<svg xmlns="http://www.w3.org/2000/svg" width="325.919" height="16.486" viewBox="0 0 325.919 16.486">
  <g id="footer" transform="translate(-823.477 -15260.112)">
    <path id="Path_8671" data-name="Path 8671" d="M831.832,15262.5a3.708,3.708,0,0,1,1.585,2.658h-.368a3.379,3.379,0,0,0-1.44-2.354,4.618,4.618,0,0,0-2.753-.865,4.551,4.551,0,0,0-3.7,1.666,6.037,6.037,0,0,0-1.295,3.969,5.779,5.779,0,0,0,1.295,3.873,4.359,4.359,0,0,0,3.522,1.6,4.635,4.635,0,0,0,2.85-.912,4.36,4.36,0,0,0,1.68-2.785h.368a4.787,4.787,0,0,1-1.793,3.072,4.978,4.978,0,0,1-3.1,1.008,4.737,4.737,0,0,1-3.825-1.729,6.182,6.182,0,0,1-1.377-4.129,6.388,6.388,0,0,1,1.392-4.209,5.244,5.244,0,0,1,6.963-.865Z" fill="#6a2259"/>
    <path id="Path_8672" data-name="Path 8672" d="M841.656,15266.083a4.739,4.739,0,0,1,.944,2.992,4.835,4.835,0,0,1-.944,2.994,3.666,3.666,0,0,1-5.7,0,4.75,4.75,0,0,1-.944-2.994,4.658,4.658,0,0,1,.944-2.992,3.637,3.637,0,0,1,5.7,0Zm-5.394.225a4.843,4.843,0,0,0,0,5.521,3.068,3.068,0,0,0,2.545,1.217,3.11,3.11,0,0,0,2.545-1.217,4.843,4.843,0,0,0,0-5.521,3.067,3.067,0,0,0-2.545-1.217A3.027,3.027,0,0,0,836.262,15266.308Z" fill="#6a2259"/>
    <path id="Path_8673" data-name="Path 8673" d="M850.648,15266.067a4.907,4.907,0,0,1,.9,3.008,5.051,5.051,0,0,1-.881,3.025,3.225,3.225,0,0,1-2.737,1.328,3.158,3.158,0,0,1-3.185-2.336v5.281h-.384v-11.443h.384v2.145a3.283,3.283,0,0,1,3.185-2.369A3.191,3.191,0,0,1,850.648,15266.067Zm-5.107.207a4.427,4.427,0,0,0-.8,2.754v.207a4.348,4.348,0,0,0,.785,2.689,3.107,3.107,0,0,0,4.817-.047,4.685,4.685,0,0,0,.8-2.8,4.6,4.6,0,0,0-.8-2.785,2.844,2.844,0,0,0-2.417-1.2A2.75,2.75,0,0,0,845.541,15266.274Z" fill="#6a2259"/>
    <path id="Path_8674" data-name="Path 8674" d="M852.773,15264.931l3.057,7.57,3.041-7.57h.449l-4.61,11.443h-.448l1.36-3.377-3.281-8.066Z" fill="#6a2259"/>
    <path id="Path_8675" data-name="Path 8675" d="M864.935,15264.866v.416a4.892,4.892,0,0,0-1.329-.191,2.379,2.379,0,0,0-2.128,1.3,4.645,4.645,0,0,0-.641,2.447v4.371h-.4v-8.275h.4v1.841a3.192,3.192,0,0,1,.992-1.409,2.647,2.647,0,0,1,1.793-.656A4.209,4.209,0,0,1,864.935,15264.866Z" fill="#6a2259"/>
    <path id="Path_8676" data-name="Path 8676" d="M867.19,15262.386a.494.494,0,0,1,.16.367.548.548,0,0,1-.528.529.5.5,0,0,1-.369-.16.463.463,0,0,1-.16-.369.548.548,0,0,1,.529-.527A.464.464,0,0,1,867.19,15262.386Zm-.176,2.545v8.275h-.385v-8.275Z" fill="#6a2259"/>
    <path id="Path_8677" data-name="Path 8677" d="M876.36,15267.026v-2.1h.383v7.619c0,2.689-1.2,4.049-3.585,4.049a3.662,3.662,0,0,1-2.417-.736,3,3,0,0,1-1.008-1.953h.384a2.633,2.633,0,0,0,.88,1.648,3.251,3.251,0,0,0,2.161.656c2.129,0,3.2-1.232,3.2-3.664v-1.826a3.583,3.583,0,0,1-6.1.994,4.908,4.908,0,0,1,0-5.7,3.561,3.561,0,0,1,6.1,1.008Zm-5.794-.768a3.98,3.98,0,0,0-.833,2.609,4.074,4.074,0,0,0,.833,2.609,3.247,3.247,0,0,0,4.962,0,4.173,4.173,0,0,0,.832-2.609,4.075,4.075,0,0,0-.832-2.609,3.219,3.219,0,0,0-4.962,0Z" fill="#6a2259"/>
    <path id="Path_8678" data-name="Path 8678" d="M879.221,15261.554v5.152a3.521,3.521,0,0,1,1.185-1.473,2.9,2.9,0,0,1,1.68-.527,2.945,2.945,0,0,1,2.177.8,3.133,3.133,0,0,1,.849,2.32v5.379h-.385v-5.379a2.784,2.784,0,0,0-.737-2.049,2.763,2.763,0,0,0-3.9.256,3.262,3.262,0,0,0-.864,2.289v4.883h-.4v-11.652Z" fill="#6a2259"/>
    <path id="Path_8679" data-name="Path 8679" d="M888.789,15264.931h2.369v.384h-2.369v6.21a1.6,1.6,0,0,0,.241,1.01,1.108,1.108,0,0,0,.912.287h1.024v.385h-1.024a1.5,1.5,0,0,1-1.248-.449,2.079,2.079,0,0,1-.288-1.232v-6.21h-1.937v-.384h1.937v-2.5l.383-.176Z" fill="#6a2259"/>
    <path id="Path_8680" data-name="Path 8680" d="M907.592,15263.282a5.99,5.99,0,1,1-4.21-1.729A5.738,5.738,0,0,1,907.592,15263.282Zm-8.131.287a5.526,5.526,0,1,0,3.921-1.633A5.3,5.3,0,0,0,899.461,15263.569Zm5.922.816a2.431,2.431,0,0,1,.977,1.648h-.384a2.053,2.053,0,0,0-.817-1.344,2.7,2.7,0,0,0-1.617-.5,2.616,2.616,0,0,0-2.16.977,3.585,3.585,0,0,0-.785,2.369,3.457,3.457,0,0,0,.785,2.32,2.574,2.574,0,0,0,2.065.928,2.683,2.683,0,0,0,1.68-.561,2.582,2.582,0,0,0,.945-1.584h.383a3.143,3.143,0,0,1-1.1,1.9,3.025,3.025,0,0,1-1.9.625,2.967,2.967,0,0,1-2.385-1.088,3.823,3.823,0,0,1-.849-2.545,3.964,3.964,0,0,1,.864-2.594,2.983,2.983,0,0,1,2.465-1.137A3.033,3.033,0,0,1,905.383,15264.386Z" fill="#6a2259"/>
    <path id="Path_8681" data-name="Path 8681" d="M922.95,15273.8v-2.273H917.8v-.352h5.154v-2.289h-6.1v-.352H929.4v.352h-6.1v2.289h5.154v.352H923.3v2.273h6.818v.336H916.132v-.336Zm.113-13.637a5.249,5.249,0,0,1-1.025,1.744h5.811v4.818h-9.4v-4.818h3.233a5.886,5.886,0,0,0,1.041-1.793Zm4.433,2.1H918.8v1.938H927.5Zm-8.691,4.131H927.5v-1.857H918.8Z" fill="#6a2259"/>
    <path id="Path_8682" data-name="Path 8682" d="M938.79,15265.042v.336h-6.626v-.336Zm-.864,8.436c-1.664.337-3.553.607-5.682.832l-.048-.352c1.249-.129,2.4-.256,3.473-.416a17.068,17.068,0,0,0,1.473-2.961l.336.111a15.164,15.164,0,0,1-1.424,2.785c.656-.111,1.28-.225,1.872-.352Zm-2.257-13.221v2.945h2.337v-2.3h.336v2.655H932.66v-2.641H933v2.289h2.337v-2.945Zm2.354,6.658v3.025h-5.139v-3.025Zm-3.826,6.066-.321.1a17.013,17.013,0,0,0-.847-2.4l.32-.1A17.434,17.434,0,0,1,934.2,15272.981Zm3.473-5.73h-4.433v2.354h4.433Zm2.129,3.266a18.685,18.685,0,0,0,.368-3.891v-5.473h3.65v12.4c0,.225.16.352.48.352h.96a.733.733,0,0,0,.4-.111,1.105,1.105,0,0,0,.241-.721c.032-.5.063-1.377.063-2.641l.32.1c0,1.057-.032,1.857-.063,2.434a1.791,1.791,0,0,1-.32,1.088,1.048,1.048,0,0,1-.673.191h-.9c-.577,0-.865-.238-.865-.719V15261.5H940.52v5.121a16.952,16.952,0,0,1-.448,4.307,10.317,10.317,0,0,1-1.778,3.521l-.24-.24A10.073,10.073,0,0,0,939.8,15270.517Z" fill="#6a2259"/>
    <path id="Path_8683" data-name="Path 8683" d="M955.559,15263.282h5.106v.271a19.507,19.507,0,0,1-8.66,8.307,4.435,4.435,0,0,1,.32.449,4.147,4.147,0,0,0,3.106,1.7c.736.031,1.776.047,3.153.047.849,0,2.017-.016,3.522-.016l-.065.367h-3.392q-2.066,0-2.978-.047a4.467,4.467,0,0,1-3.857-2.225c-.257-.354-.5-.514-.721-.514q-.96,0-2.4,3.026l-.321-.192c.992-2.129,1.921-3.186,2.753-3.186a.562.562,0,0,1,.481.176,1.3,1.3,0,0,1,.16.145,19.131,19.131,0,0,0,8.451-7.955H949.252v-.352h5.971a16.841,16.841,0,0,0-1.649-3.025l.352-.064A22.077,22.077,0,0,1,955.559,15263.282Z" fill="#6a2259"/>
    <path id="Path_8684" data-name="Path 8684" d="M964.6,15271.638l-.224-.273a13.187,13.187,0,0,0,2.433-4.689l.337.08c-.193.576-.385,1.105-.593,1.617h5.026v-1.633h.352v1.633h5.683v.336h-5.683v2.32H977v.336h-5.074v2.434h6.387v.352H964.836v-.352h6.739v-2.434h-4.8v-.336h4.8v-2.32h-5.169A14.12,14.12,0,0,1,964.6,15271.638Zm11.877-10.758v5.2H966.406v-5.2Zm-.352,2.418v-2.082h-9.364v2.082Zm0,.352h-9.364v2.1h9.364Z" fill="#6a2259"/>
    <path id="Path_8685" data-name="Path 8685" d="M986.277,15261.776v11.43h-.385v-11.43Z" fill="#6a2259"/>
    <path id="Path_8686" data-name="Path 8686" d="M995.046,15268.132v5.074h-.4v-5.074c0-2.033-.9-3.041-2.657-3.041a2.605,2.605,0,0,0-2,.863,3.278,3.278,0,0,0-.848,2.242v5.01h-.385v-8.275h.385v1.615a3.105,3.105,0,0,1,1.136-1.344,3.026,3.026,0,0,1,1.713-.5C994.022,15264.706,995.046,15265.843,995.046,15268.132Z" fill="#6a2259"/>
    <path id="Path_8687" data-name="Path 8687" d="M1002.774,15265.427a3.018,3.018,0,0,1,1.072,2.145h-.384a2.741,2.741,0,0,0-.944-1.857,3.255,3.255,0,0,0-2.049-.623,2.864,2.864,0,0,0-2.417,1.184,4.591,4.591,0,0,0-.864,2.9,4.435,4.435,0,0,0,.816,2.785,2.966,2.966,0,0,0,2.449,1.088,2.859,2.859,0,0,0,3.057-2.721h.385a3.844,3.844,0,0,1-1.121,2.3,3.355,3.355,0,0,1-2.321.8,3.284,3.284,0,0,1-2.754-1.248,4.681,4.681,0,0,1-.895-3.008,4.979,4.979,0,0,1,.944-3.139,3.216,3.216,0,0,1,2.721-1.328A3.6,3.6,0,0,1,1002.774,15265.427Z" fill="#6a2259"/>
    <path id="Path_8688" data-name="Path 8688" d="M1006.788,15272.31a.491.491,0,0,1,.16.367.548.548,0,0,1-.528.529.5.5,0,0,1-.368-.16.464.464,0,0,1-.16-.369.548.548,0,0,1,.528-.527A.457.457,0,0,1,1006.788,15272.31Z" fill="#6a2259"/>
    <path id="Path_8689" data-name="Path 8689" d="M1018.933,15261.776l4.706,11.43h-.448l-1.536-3.762H1015.7l-1.536,3.762h-.448l4.706-11.43Zm2.561,7.283-2.785-6.867h-.048l-2.8,6.867Z" fill="#6a2259"/>
    <path id="Path_8690" data-name="Path 8690" d="M1025.46,15261.554v11.652h-.385v-11.652Z" fill="#6a2259"/>
    <path id="Path_8691" data-name="Path 8691" d="M1028.724,15261.554v11.652h-.385v-11.652Z" fill="#6a2259"/>
    <path id="Path_8692" data-name="Path 8692" d="M1041.349,15261.776a3.808,3.808,0,0,1,2.593.8,2.771,2.771,0,0,1,.913,2.24,3.091,3.091,0,0,1-.593,1.857,2.9,2.9,0,0,1-1.713.992v.033a2.337,2.337,0,0,1,2.065,2.191l.144,1.633a3.865,3.865,0,0,0,.465,1.682h-.433a3.97,3.97,0,0,1-.4-1.586l-.144-1.7a2,2,0,0,0-.928-1.633,3.729,3.729,0,0,0-1.937-.432h-4.306v5.346h-.384v-11.43Zm-4.274,5.7h4.289a3.333,3.333,0,0,0,2.337-.77,2.455,2.455,0,0,0,.769-1.889,2.524,2.524,0,0,0-.72-1.951,3.47,3.47,0,0,0-2.4-.705h-4.274Z" fill="#6a2259"/>
    <path id="Path_8693" data-name="Path 8693" d="M1047.955,15262.386a.491.491,0,0,1,.16.367.548.548,0,0,1-.528.529.494.494,0,0,1-.368-.16.463.463,0,0,1-.16-.369.548.548,0,0,1,.528-.527A.46.46,0,0,1,1047.955,15262.386Zm-.175,2.545v8.275h-.385v-8.275Z" fill="#6a2259"/>
    <path id="Path_8694" data-name="Path 8694" d="M1057.126,15267.026v-2.1h.384v7.619c0,2.689-1.2,4.049-3.585,4.049a3.66,3.66,0,0,1-2.417-.736,3,3,0,0,1-1.009-1.953h.384a2.628,2.628,0,0,0,.881,1.648,3.248,3.248,0,0,0,2.161.656c2.128,0,3.2-1.232,3.2-3.664v-1.826a3.582,3.582,0,0,1-6.1.994,4.9,4.9,0,0,1,0-5.7,3.3,3.3,0,0,1,2.785-1.312A3.334,3.334,0,0,1,1057.126,15267.026Zm-5.795-.768a3.99,3.99,0,0,0-.832,2.609,4.084,4.084,0,0,0,.832,2.609,3.247,3.247,0,0,0,4.962,0,4.168,4.168,0,0,0,.833-2.609,4.069,4.069,0,0,0-.833-2.609,3.219,3.219,0,0,0-4.962,0Z" fill="#6a2259"/>
    <path id="Path_8695" data-name="Path 8695" d="M1059.987,15261.554v5.152a3.527,3.527,0,0,1,1.184-1.473,2.909,2.909,0,0,1,1.681-.527,2.947,2.947,0,0,1,2.177.8,3.133,3.133,0,0,1,.848,2.32v5.379h-.384v-5.379a2.787,2.787,0,0,0-.736-2.049,2.764,2.764,0,0,0-3.906.256,3.262,3.262,0,0,0-.864,2.289v4.883h-.4v-11.652Z" fill="#6a2259"/>
    <path id="Path_8696" data-name="Path 8696" d="M1069.555,15264.931h2.369v.384h-2.369v6.21a1.611,1.611,0,0,0,.24,1.01,1.111,1.111,0,0,0,.913.287h1.025v.385h-1.025a1.509,1.509,0,0,1-1.249-.449,2.087,2.087,0,0,1-.288-1.232v-6.21h-1.936v-.384h1.936v-2.5l.384-.176Z" fill="#6a2259"/>
    <path id="Path_8697" data-name="Path 8697" d="M1079.173,15267.2h-.384a2.471,2.471,0,0,0-.768-1.521,2.981,2.981,0,0,0-1.969-.592,2.888,2.888,0,0,0-1.745.5,1.368,1.368,0,0,0-.7,1.185,1.384,1.384,0,0,0,.8,1.231,8.029,8.029,0,0,0,1.808.641,9.7,9.7,0,0,1,2.177.753,1.766,1.766,0,0,1,1.009,1.6c0,1.617-1.041,2.432-3.121,2.432-2.018,0-3.122-.928-3.314-2.768h.4a2.545,2.545,0,0,0,.9,1.855,3.222,3.222,0,0,0,2.018.529c1.808,0,2.72-.689,2.72-2.049a1.434,1.434,0,0,0-.881-1.312,11.277,11.277,0,0,0-1.984-.656,8.3,8.3,0,0,1-2-.736,1.709,1.709,0,0,1-.912-1.521,1.755,1.755,0,0,1,.864-1.5,3.312,3.312,0,0,1,1.969-.561Q1078.789,15264.706,1079.173,15267.2Z" fill="#6a2259"/>
    <path id="Path_8698" data-name="Path 8698" d="M1091.14,15261.776a3.808,3.808,0,0,1,2.593.8,2.771,2.771,0,0,1,.913,2.24,3.091,3.091,0,0,1-.593,1.857,2.9,2.9,0,0,1-1.713.992v.033a2.338,2.338,0,0,1,2.066,2.191l.143,1.633a3.88,3.88,0,0,0,.465,1.682h-.433a3.97,3.97,0,0,1-.4-1.586l-.144-1.7a2,2,0,0,0-.928-1.633,3.726,3.726,0,0,0-1.937-.432h-4.306v5.346h-.384v-11.43Zm-4.274,5.7h4.29a3.332,3.332,0,0,0,2.336-.77,2.455,2.455,0,0,0,.769-1.889,2.524,2.524,0,0,0-.72-1.951,3.471,3.471,0,0,0-2.4-.705h-4.274Z" fill="#6a2259"/>
    <path id="Path_8699" data-name="Path 8699" d="M1102.676,15266a5.94,5.94,0,0,1,.9,3.2h-7.058a4.3,4.3,0,0,0,.944,2.785,2.991,2.991,0,0,0,2.385,1.057,3.116,3.116,0,0,0,2.146-.736,3.538,3.538,0,0,0,.975-1.762h.417a3.925,3.925,0,0,1-1.073,1.986,3.482,3.482,0,0,1-2.465.895,3.362,3.362,0,0,1-2.705-1.215,4.808,4.808,0,0,1-1.008-3.154,4.668,4.668,0,0,1,.976-3.025,3.61,3.61,0,0,1,5.57-.031Zm-5.186.16a4.238,4.238,0,0,0-.976,2.656h6.659c-.177-2.5-1.281-3.729-3.33-3.729A2.932,2.932,0,0,0,1097.49,15266.163Z" fill="#6a2259"/>
    <path id="Path_8700" data-name="Path 8700" d="M1110.9,15267.2h-.384a2.467,2.467,0,0,0-.769-1.521,2.977,2.977,0,0,0-1.968-.592,2.889,2.889,0,0,0-1.746.5,1.37,1.37,0,0,0-.7,1.185,1.385,1.385,0,0,0,.8,1.231,8.042,8.042,0,0,0,1.809.641,9.687,9.687,0,0,1,2.176.753,1.766,1.766,0,0,1,1.009,1.6c0,1.617-1.041,2.432-3.121,2.432-2.017,0-3.122-.928-3.313-2.768h.4a2.55,2.55,0,0,0,.9,1.855,3.221,3.221,0,0,0,2.017.529c1.809,0,2.721-.689,2.721-2.049a1.435,1.435,0,0,0-.881-1.312,11.312,11.312,0,0,0-1.984-.656,8.3,8.3,0,0,1-2-.736,1.707,1.707,0,0,1-.912-1.521,1.755,1.755,0,0,1,.864-1.5,3.312,3.312,0,0,1,1.969-.561Q1110.516,15264.706,1110.9,15267.2Z" fill="#6a2259"/>
    <path id="Path_8701" data-name="Path 8701" d="M1118.787,15266a5.939,5.939,0,0,1,.9,3.2h-7.059a4.294,4.294,0,0,0,.945,2.785,2.988,2.988,0,0,0,2.384,1.057,3.114,3.114,0,0,0,2.146-.736,3.537,3.537,0,0,0,.975-1.762h.417a3.924,3.924,0,0,1-1.073,1.986,3.481,3.481,0,0,1-2.465.895,3.363,3.363,0,0,1-2.7-1.215,4.809,4.809,0,0,1-1.008-3.154,4.674,4.674,0,0,1,.976-3.025,3.61,3.61,0,0,1,5.57-.031Zm-5.185.16a4.233,4.233,0,0,0-.977,2.656h6.659c-.176-2.5-1.281-3.729-3.33-3.729A2.928,2.928,0,0,0,1113.6,15266.163Z" fill="#6a2259"/>
    <path id="Path_8702" data-name="Path 8702" d="M1125.779,15264.866v.416a4.9,4.9,0,0,0-1.329-.191,2.379,2.379,0,0,0-2.128,1.3,4.645,4.645,0,0,0-.641,2.447v4.371h-.4v-8.275h.4v1.841a3.192,3.192,0,0,1,.992-1.409,2.649,2.649,0,0,1,1.793-.656A4.209,4.209,0,0,1,1125.779,15264.866Z" fill="#6a2259"/>
    <path id="Path_8703" data-name="Path 8703" d="M1126.385,15264.931l3.009,7.762,3.01-7.762h.448l-3.234,8.275h-.448l-3.233-8.275Z" fill="#6a2259"/>
    <path id="Path_8704" data-name="Path 8704" d="M1140.035,15266a5.94,5.94,0,0,1,.9,3.2h-7.059a4.3,4.3,0,0,0,.945,2.785,2.988,2.988,0,0,0,2.384,1.057,3.114,3.114,0,0,0,2.146-.736,3.538,3.538,0,0,0,.975-1.762h.417a3.925,3.925,0,0,1-1.073,1.986,3.481,3.481,0,0,1-2.465.895,3.364,3.364,0,0,1-2.705-1.215,4.808,4.808,0,0,1-1.008-3.154,4.673,4.673,0,0,1,.976-3.025,3.61,3.61,0,0,1,5.57-.031Zm-5.185.16a4.233,4.233,0,0,0-.977,2.656h6.659c-.176-2.5-1.281-3.729-3.33-3.729A2.928,2.928,0,0,0,1134.85,15266.163Z" fill="#6a2259"/>
    <path id="Path_8705" data-name="Path 8705" d="M1149.4,15261.554v11.652h-.384v-2.129a3.394,3.394,0,0,1-5.923,1.023,4.943,4.943,0,0,1-.88-3.025,4.8,4.8,0,0,1,.9-3.008,3.356,3.356,0,0,1,5.907,1.008v-5.521Zm-5.987,4.736a4.5,4.5,0,0,0-.816,2.785,4.577,4.577,0,0,0,.8,2.8,2.883,2.883,0,0,0,2.433,1.168,2.831,2.831,0,0,0,2.385-1.137,4.368,4.368,0,0,0,.8-2.689V15269a4.55,4.55,0,0,0-.785-2.736,3.044,3.044,0,0,0-4.818.031Z" fill="#6a2259"/>
  </g>
</svg>
