<?xml version="1.0" encoding="utf-8"?>
<!-- Generator: Adobe Illustrator 24.0.3, SVG Export Plug-In . SVG Version: 6.00 Build 0)  -->
<svg version="1.1" id="圖層_1" xmlns="http://www.w3.org/2000/svg" xmlns:xlink="http://www.w3.org/1999/xlink" x="0px" y="0px"
	 viewBox="0 0 325.9 16.5" style="enable-background:new 0 0 325.9 16.5;" xml:space="preserve">
<style type="text/css">
	.st0{fill:#FFFFFF;}
</style>
<g id="footer" transform="translate(-823.477 -15260.112)">
	<path id="Path_8671" class="st0" d="M831.8,15262.5c0.9,0.6,1.5,1.6,1.6,2.7H833c-0.1-1-0.6-1.8-1.4-2.4c-0.8-0.6-1.8-0.9-2.8-0.9
		c-1.4-0.1-2.8,0.6-3.7,1.7c-0.9,1.1-1.3,2.5-1.3,4c-0.1,1.4,0.4,2.8,1.3,3.9c0.9,1.1,2.2,1.6,3.5,1.6c1,0,2-0.3,2.8-0.9
		c0.9-0.7,1.5-1.7,1.7-2.8h0.4c-0.2,1.2-0.8,2.3-1.8,3.1c-0.9,0.7-2,1-3.1,1c-1.5,0.1-2.9-0.6-3.8-1.7c-0.9-1.2-1.4-2.6-1.4-4.1
		c-0.1-1.5,0.4-3,1.4-4.2C826.6,15261.3,829.6,15261,831.8,15262.5L831.8,15262.5z"/>
	<path id="Path_8672" class="st0" d="M841.7,15266.1c0.6,0.9,1,1.9,0.9,3c0,1.1-0.3,2.1-0.9,3c-1.3,1.6-3.6,1.8-5.2,0.5
		c-0.2-0.2-0.4-0.3-0.5-0.5c-0.6-0.9-1-1.9-0.9-3c0-1.1,0.3-2.1,0.9-3c1.2-1.6,3.5-1.8,5.1-0.6
		C841.3,15265.7,841.5,15265.9,841.7,15266.1z M836.3,15266.3c-1.2,1.7-1.2,3.9,0,5.5c0.6,0.8,1.5,1.2,2.5,1.2c1,0,1.9-0.4,2.5-1.2
		c1.2-1.7,1.2-3.9,0-5.5c-0.6-0.8-1.5-1.2-2.5-1.2C837.8,15265.1,836.9,15265.5,836.3,15266.3z"/>
	<path id="Path_8673" class="st0" d="M850.6,15266.1c0.6,0.9,0.9,1.9,0.9,3c0,1.1-0.3,2.1-0.9,3c-0.6,0.9-1.7,1.4-2.7,1.3
		c-1.5,0.1-2.8-0.9-3.2-2.3v5.3h-0.4v-11.4h0.4v2.1c0.4-1.4,1.7-2.4,3.2-2.4C849,15264.7,850,15265.2,850.6,15266.1z M845.5,15266.3
		c-0.6,0.8-0.8,1.8-0.8,2.8v0.2c0,1,0.2,1.9,0.8,2.7c1.1,1.3,3.1,1.5,4.4,0.4c0.2-0.1,0.3-0.3,0.4-0.5c0.6-0.8,0.8-1.8,0.8-2.8
		c0-1-0.2-2-0.8-2.8c-0.6-0.8-1.5-1.2-2.4-1.2C847,15265,846.1,15265.5,845.5,15266.3z"/>
	<path id="Path_8674" class="st0" d="M852.8,15264.9l3.1,7.6l3-7.6h0.4l-4.6,11.4h-0.4l1.4-3.4l-3.3-8.1H852.8z"/>
	<path id="Path_8675" class="st0" d="M864.9,15264.9v0.4c-0.4-0.1-0.9-0.2-1.3-0.2c-0.9,0-1.7,0.5-2.1,1.3c-0.4,0.7-0.7,1.6-0.6,2.4
		v4.4h-0.4v-8.3h0.4v1.8c0.2-0.6,0.5-1,1-1.4c0.5-0.4,1.1-0.7,1.8-0.7C864.1,15264.7,864.5,15264.7,864.9,15264.9z"/>
	<path id="Path_8676" class="st0" d="M867.2,15262.4c0.1,0.1,0.2,0.2,0.2,0.4c0,0.3-0.2,0.5-0.5,0.5c-0.1,0-0.3-0.1-0.4-0.2
		c-0.1-0.1-0.2-0.2-0.2-0.4c0-0.3,0.2-0.5,0.5-0.5C867,15262.2,867.1,15262.3,867.2,15262.4z M867,15264.9v8.3h-0.4v-8.3H867z"/>
	<path id="Path_8677" class="st0" d="M876.4,15267v-2.1h0.4v7.6c0,2.7-1.2,4-3.6,4c-0.9,0-1.7-0.2-2.4-0.7c-0.6-0.5-0.9-1.2-1-2h0.4
		c0.1,0.6,0.4,1.2,0.9,1.6c0.6,0.5,1.4,0.7,2.2,0.7c2.1,0,3.2-1.2,3.2-3.7v-1.8c-0.7,1.8-2.8,2.8-4.6,2c-0.6-0.2-1.1-0.6-1.5-1.1
		c-1.2-1.7-1.2-4,0-5.7c1.2-1.5,3.5-1.8,5-0.5C875.8,15265.9,876.1,15266.4,876.4,15267L876.4,15267z M870.6,15266.3
		c-0.6,0.7-0.9,1.7-0.8,2.6c0,0.9,0.3,1.9,0.8,2.6c1.2,1.4,3.2,1.5,4.6,0.4c0.1-0.1,0.3-0.2,0.4-0.4c0.6-0.8,0.9-1.7,0.8-2.6
		c0-0.9-0.3-1.9-0.8-2.6c-1.1-1.4-3.2-1.6-4.5-0.4C870.8,15266,870.7,15266.1,870.6,15266.3z"/>
	<path id="Path_8678" class="st0" d="M879.2,15261.6v5.2c0.3-0.6,0.7-1.1,1.2-1.5c0.5-0.3,1.1-0.5,1.7-0.5c0.8,0,1.6,0.2,2.2,0.8
		c0.6,0.6,0.9,1.5,0.8,2.3v5.4h-0.4v-5.4c0-0.8-0.2-1.5-0.7-2c-1.1-1-2.9-0.9-3.9,0.3c0,0,0,0,0,0c-0.6,0.6-0.9,1.4-0.9,2.3v4.9
		h-0.4v-11.7L879.2,15261.6z"/>
	<path id="Path_8679" class="st0" d="M888.8,15264.9h2.4v0.4h-2.4v6.2c0,0.4,0.1,0.7,0.2,1c0.2,0.2,0.6,0.3,0.9,0.3h1v0.4h-1
		c-0.5,0.1-0.9-0.1-1.2-0.4c-0.2-0.4-0.3-0.8-0.3-1.2v-6.2h-1.9v-0.4h1.9v-2.5l0.4-0.2V15264.9z"/>
	<path id="Path_8680" class="st0" d="M907.6,15263.3c2.4,2.3,2.4,6.1,0.1,8.5s-6.1,2.4-8.5,0.1c-2.4-2.3-2.4-6.1-0.1-8.5
		c1.1-1.1,2.7-1.8,4.3-1.8C905,15261.5,906.5,15262.2,907.6,15263.3z M899.5,15263.6c-2.2,2.2-2.1,5.7,0,7.8c2.2,2.2,5.7,2.1,7.8,0
		s2.1-5.7,0-7.8c-1-1-2.4-1.6-3.9-1.6C901.9,15261.9,900.5,15262.5,899.5,15263.6z M905.4,15264.4c0.5,0.4,0.9,1,1,1.6H906
		c-0.1-0.5-0.4-1-0.8-1.3c-0.5-0.3-1-0.5-1.6-0.5c-0.8,0-1.6,0.3-2.2,1c-0.5,0.7-0.8,1.5-0.8,2.4c0,0.8,0.2,1.7,0.8,2.3
		c0.5,0.6,1.3,1,2.1,0.9c0.6,0,1.2-0.2,1.7-0.6c0.5-0.4,0.8-1,0.9-1.6h0.4c-0.1,0.7-0.5,1.4-1.1,1.9c-0.5,0.4-1.2,0.6-1.9,0.6
		c-0.9,0-1.8-0.4-2.4-1.1c-0.6-0.7-0.9-1.6-0.8-2.5c0-0.9,0.3-1.9,0.9-2.6c0.6-0.8,1.5-1.2,2.5-1.1
		C904.2,15263.8,904.9,15264,905.4,15264.4z"/>
	<path id="Path_8681" class="st0" d="M923,15273.8v-2.3h-5.2v-0.4h5.2v-2.3h-6.1v-0.4h12.5v0.4h-6.1v2.3h5.2v0.4h-5.2v2.3h6.8v0.3
		h-14v-0.3H923z M923.1,15260.2c-0.2,0.6-0.6,1.2-1,1.7h5.8v4.8h-9.4v-4.8h3.2c0.5-0.5,0.8-1.1,1-1.8L923.1,15260.2z M927.5,15262.3
		h-8.7v1.9h8.7L927.5,15262.3z M918.8,15266.4h8.7v-1.9h-8.7L918.8,15266.4z"/>
	<path id="Path_8682" class="st0" d="M938.8,15265v0.3h-6.6v-0.3H938.8z M937.9,15273.5c-1.7,0.3-3.6,0.6-5.7,0.8l0-0.4
		c1.2-0.1,2.4-0.3,3.5-0.4c0.6-0.9,1.1-1.9,1.5-3l0.3,0.1c-0.4,1-0.9,1.9-1.4,2.8c0.7-0.1,1.3-0.2,1.9-0.4L937.9,15273.5z
		 M935.7,15260.3v2.9h2.3v-2.3h0.3v2.7h-5.7v-2.6h0.3v2.3h2.3v-2.9L935.7,15260.3z M938,15266.9v3h-5.1v-3H938z M934.2,15273
		l-0.3,0.1c-0.2-0.8-0.5-1.6-0.8-2.4l0.3-0.1C933.7,15271.4,934,15272.2,934.2,15273L934.2,15273z M937.7,15267.3h-4.4v2.4h4.4
		V15267.3z M939.8,15270.5c0.3-1.3,0.4-2.6,0.4-3.9v-5.5h3.7v12.4c0,0.2,0.2,0.4,0.5,0.4h1c0.1,0,0.3,0,0.4-0.1
		c0.2-0.2,0.2-0.5,0.2-0.7c0-0.5,0.1-1.4,0.1-2.6l0.3,0.1c0,1.1,0,1.9-0.1,2.4c0,0.4-0.1,0.8-0.3,1.1c-0.2,0.1-0.4,0.2-0.7,0.2h-0.9
		c-0.6,0-0.9-0.2-0.9-0.7v-12h-2.9v5.1c0,1.4-0.1,2.9-0.4,4.3c-0.4,1.3-1,2.5-1.8,3.5l-0.2-0.2
		C938.9,15273.1,939.5,15271.9,939.8,15270.5L939.8,15270.5z"/>
	<path id="Path_8683" class="st0" d="M955.6,15263.3h5.1v0.3c-1.9,3.6-5,6.5-8.7,8.3c0.1,0.1,0.2,0.3,0.3,0.4c0.7,1,1.9,1.6,3.1,1.7
		c0.7,0,1.8,0,3.2,0c0.8,0,2,0,3.5,0l-0.1,0.4h-3.4c-1.4,0-2.4,0-3,0c-1.6,0-3.1-0.8-3.9-2.2c-0.3-0.4-0.5-0.5-0.7-0.5
		c-0.6,0-1.4,1-2.4,3l-0.3-0.2c1-2.1,1.9-3.2,2.8-3.2c0.2,0,0.4,0,0.5,0.2c0.1,0,0.1,0.1,0.2,0.1c3.6-1.7,6.5-4.5,8.5-8h-11v-0.4h6
		c-0.4-1.1-1-2.1-1.6-3l0.4-0.1C954.6,15261.2,955.1,15262.2,955.6,15263.3z"/>
	<path id="Path_8684" class="st0" d="M964.6,15271.6l-0.2-0.3c1.1-1.4,1.9-3,2.4-4.7l0.3,0.1c-0.2,0.6-0.4,1.1-0.6,1.6h5v-1.6h0.4
		v1.6h5.7v0.3h-5.7v2.3h5.1v0.3h-5.1v2.4h6.4v0.4h-13.5v-0.4h6.7v-2.4h-4.8v-0.3h4.8v-2.3h-5.2
		C965.9,15269.8,965.3,15270.7,964.6,15271.6z M976.5,15260.9v5.2h-10.1v-5.2H976.5z M976.1,15263.3v-2.1h-9.4v2.1H976.1z
		 M976.1,15263.6h-9.4v2.1h9.4V15263.6z"/>
	<path id="Path_8685" class="st0" d="M986.3,15261.8v11.4h-0.4v-11.4H986.3z"/>
	<path id="Path_8686" class="st0" d="M995,15268.1v5.1h-0.4v-5.1c0-2-0.9-3-2.7-3c-0.8,0-1.5,0.3-2,0.9c-0.6,0.6-0.9,1.4-0.8,2.2v5
		h-0.4v-8.3h0.4v1.6c0.2-0.5,0.6-1,1.1-1.3c0.5-0.3,1.1-0.5,1.7-0.5C994,15264.7,995,15265.8,995,15268.1z"/>
	<path id="Path_8687" class="st0" d="M1002.8,15265.4c0.6,0.5,1,1.3,1.1,2.1h-0.4c-0.1-0.7-0.4-1.4-0.9-1.9c-0.6-0.4-1.3-0.7-2-0.6
		c-1,0-1.9,0.4-2.4,1.2c-0.6,0.8-0.9,1.9-0.9,2.9c0,1,0.2,2,0.8,2.8c0.6,0.7,1.5,1.1,2.4,1.1c1.6,0.1,2.9-1.1,3.1-2.7c0,0,0,0,0-0.1
		h0.4c-0.1,0.9-0.5,1.7-1.1,2.3c-0.6,0.5-1.5,0.8-2.3,0.8c-1.1,0.1-2.1-0.4-2.8-1.2c-0.6-0.9-1-1.9-0.9-3c0-1.1,0.3-2.2,0.9-3.1
		c0.6-0.9,1.6-1.4,2.7-1.3C1001.3,15264.7,1002.1,15264.9,1002.8,15265.4z"/>
	<path id="Path_8688" class="st0" d="M1006.8,15272.3c0.1,0.1,0.2,0.2,0.2,0.4c0,0.3-0.2,0.5-0.5,0.5c-0.1,0-0.3-0.1-0.4-0.2
		c-0.1-0.1-0.2-0.2-0.2-0.4c0-0.3,0.2-0.5,0.5-0.5C1006.6,15272.1,1006.7,15272.2,1006.8,15272.3z"/>
	<path id="Path_8689" class="st0" d="M1018.9,15261.8l4.7,11.4h-0.4l-1.5-3.8h-6l-1.5,3.8h-0.4l4.7-11.4H1018.9z M1021.5,15269.1
		l-2.8-6.9h0l-2.8,6.9H1021.5z"/>
	<path id="Path_8690" class="st0" d="M1025.5,15261.6v11.7h-0.4v-11.7H1025.5z"/>
	<path id="Path_8691" class="st0" d="M1028.7,15261.6v11.7h-0.4v-11.7H1028.7z"/>
	<path id="Path_8692" class="st0" d="M1041.3,15261.8c0.9-0.1,1.9,0.2,2.6,0.8c0.6,0.6,1,1.4,0.9,2.2c0,0.7-0.2,1.3-0.6,1.9
		c-0.4,0.5-1,0.9-1.7,1v0c1.1,0.1,2,1.1,2.1,2.2l0.1,1.6c0,0.6,0.2,1.2,0.5,1.7h-0.4c-0.2-0.5-0.4-1-0.4-1.6l-0.1-1.7
		c0-0.7-0.4-1.3-0.9-1.6c-0.6-0.3-1.3-0.5-1.9-0.4h-4.3v5.3h-0.4v-11.4L1041.3,15261.8z M1037.1,15267.5h4.3
		c0.8,0.1,1.7-0.2,2.3-0.8c0.5-0.5,0.8-1.2,0.8-1.9c0.1-0.7-0.2-1.4-0.7-2c-0.7-0.5-1.5-0.8-2.4-0.7h-4.3L1037.1,15267.5z"/>
	<path id="Path_8693" class="st0" d="M1048,15262.4c0.1,0.1,0.2,0.2,0.2,0.4c0,0.3-0.2,0.5-0.5,0.5c-0.1,0-0.3-0.1-0.4-0.2
		c-0.1-0.1-0.2-0.2-0.2-0.4c0-0.3,0.2-0.5,0.5-0.5C1047.7,15262.2,1047.9,15262.3,1048,15262.4z M1047.8,15264.9v8.3h-0.4v-8.3
		H1047.8z"/>
	<path id="Path_8694" class="st0" d="M1057.1,15267v-2.1h0.4v7.6c0,2.7-1.2,4-3.6,4c-0.9,0-1.7-0.2-2.4-0.7c-0.6-0.5-0.9-1.2-1-2
		h0.4c0.1,0.6,0.4,1.2,0.9,1.6c0.6,0.5,1.4,0.7,2.2,0.7c2.1,0,3.2-1.2,3.2-3.7v-1.8c-0.7,1.8-2.8,2.8-4.6,2.1
		c-0.6-0.2-1.1-0.6-1.5-1.1c-1.2-1.7-1.2-4,0-5.7c0.7-0.9,1.7-1.4,2.8-1.3C1055.3,15264.6,1056.7,15265.6,1057.1,15267z
		 M1051.3,15266.3c-0.6,0.7-0.9,1.7-0.8,2.6c0,0.9,0.3,1.9,0.8,2.6c1.2,1.4,3.2,1.5,4.6,0.4c0.1-0.1,0.3-0.2,0.4-0.4
		c0.6-0.8,0.9-1.7,0.8-2.6c0-0.9-0.3-1.9-0.8-2.6c-1.1-1.4-3.2-1.6-4.5-0.4C1051.6,15266,1051.5,15266.1,1051.3,15266.3z"/>
	<path id="Path_8695" class="st0" d="M1060,15261.6v5.2c0.3-0.6,0.7-1.1,1.2-1.5c0.5-0.3,1.1-0.5,1.7-0.5c0.8,0,1.6,0.2,2.2,0.8
		c0.6,0.6,0.9,1.5,0.8,2.3v5.4h-0.4v-5.4c0-0.8-0.2-1.5-0.7-2c-1.1-1-2.9-0.9-3.9,0.2c0,0,0,0,0,0c-0.6,0.6-0.9,1.4-0.9,2.3v4.9
		h-0.4v-11.7L1060,15261.6z"/>
	<path id="Path_8696" class="st0" d="M1069.6,15264.9h2.4v0.4h-2.4v6.2c0,0.4,0.1,0.7,0.2,1c0.2,0.2,0.6,0.3,0.9,0.3h1v0.4h-1
		c-0.5,0.1-0.9-0.1-1.2-0.4c-0.2-0.4-0.3-0.8-0.3-1.2v-6.2h-1.9v-0.4h1.9v-2.5l0.4-0.2V15264.9z"/>
	<path id="Path_8697" class="st0" d="M1079.2,15267.2h-0.4c-0.1-0.6-0.3-1.1-0.8-1.5c-0.6-0.4-1.3-0.6-2-0.6c-0.6,0-1.2,0.2-1.7,0.5
		c-0.4,0.2-0.7,0.7-0.7,1.2c0,0.5,0.3,1,0.8,1.2c0.6,0.3,1.2,0.5,1.8,0.6c0.8,0.2,1.5,0.4,2.2,0.8c0.6,0.3,1,0.9,1,1.6
		c0,1.6-1,2.4-3.1,2.4c-2,0-3.1-0.9-3.3-2.8h0.4c0,0.7,0.4,1.4,0.9,1.9c0.6,0.4,1.3,0.6,2,0.5c1.8,0,2.7-0.7,2.7-2
		c0-0.6-0.4-1.1-0.9-1.3c-0.6-0.3-1.3-0.5-2-0.7c-0.7-0.2-1.4-0.4-2-0.7c-0.6-0.3-0.9-0.9-0.9-1.5c0-0.6,0.3-1.2,0.9-1.5
		c0.6-0.4,1.3-0.6,2-0.6C1077.9,15264.7,1078.9,15265.5,1079.2,15267.2z"/>
	<path id="Path_8698" class="st0" d="M1091.1,15261.8c0.9-0.1,1.9,0.2,2.6,0.8c0.6,0.6,1,1.4,0.9,2.2c0,0.7-0.2,1.3-0.6,1.9
		c-0.4,0.5-1,0.9-1.7,1v0c1.1,0.1,2,1.1,2.1,2.2l0.1,1.6c0,0.6,0.2,1.2,0.5,1.7h-0.4c-0.2-0.5-0.4-1-0.4-1.6l-0.1-1.7
		c0-0.7-0.4-1.3-0.9-1.6c-0.6-0.3-1.3-0.5-1.9-0.4h-4.3v5.3h-0.4v-11.4L1091.1,15261.8z M1086.9,15267.5h4.3
		c0.8,0.1,1.7-0.2,2.3-0.8c0.5-0.5,0.8-1.2,0.8-1.9c0.1-0.7-0.2-1.4-0.7-2c-0.7-0.5-1.5-0.8-2.4-0.7h-4.3L1086.9,15267.5z"/>
	<path id="Path_8699" class="st0" d="M1102.7,15266c0.6,1,0.9,2.1,0.9,3.2h-7.1c0,1,0.3,2,0.9,2.8c0.6,0.7,1.5,1.1,2.4,1.1
		c0.8,0,1.5-0.2,2.1-0.7c0.5-0.5,0.8-1.1,1-1.8h0.4c-0.2,0.8-0.5,1.4-1.1,2c-0.7,0.6-1.6,0.9-2.5,0.9c-1,0-2-0.4-2.7-1.2
		c-0.7-0.9-1.1-2-1-3.2c0-1.1,0.3-2.2,1-3c1.3-1.5,3.5-1.8,5.1-0.5C1102.4,15265.7,1102.5,15265.8,1102.7,15266L1102.7,15266z
		 M1097.5,15266.2c-0.6,0.7-1,1.7-1,2.7h6.7c-0.2-2.5-1.3-3.7-3.3-3.7C1098.9,15265.1,1098.1,15265.5,1097.5,15266.2L1097.5,15266.2
		z"/>
	<path id="Path_8700" class="st0" d="M1110.9,15267.2h-0.4c-0.1-0.6-0.3-1.1-0.8-1.5c-0.6-0.4-1.3-0.6-2-0.6c-0.6,0-1.2,0.2-1.7,0.5
		c-0.4,0.2-0.7,0.7-0.7,1.2c0,0.5,0.3,1,0.8,1.2c0.6,0.3,1.2,0.5,1.8,0.6c0.8,0.2,1.5,0.4,2.2,0.8c0.6,0.3,1,0.9,1,1.6
		c0,1.6-1,2.4-3.1,2.4c-2,0-3.1-0.9-3.3-2.8h0.4c0,0.7,0.4,1.4,0.9,1.9c0.6,0.4,1.3,0.6,2,0.5c1.8,0,2.7-0.7,2.7-2
		c0-0.6-0.4-1.1-0.9-1.3c-0.6-0.3-1.3-0.5-2-0.7c-0.7-0.2-1.4-0.4-2-0.7c-0.6-0.3-0.9-0.9-0.9-1.5c0-0.6,0.3-1.2,0.9-1.5
		c0.6-0.4,1.3-0.6,2-0.6C1109.6,15264.7,1110.6,15265.5,1110.9,15267.2z"/>
	<path id="Path_8701" class="st0" d="M1118.8,15266c0.6,1,0.9,2.1,0.9,3.2h-7.1c0,1,0.3,2,0.9,2.8c0.6,0.7,1.5,1.1,2.4,1.1
		c0.8,0,1.5-0.2,2.1-0.7c0.5-0.5,0.8-1.1,1-1.8h0.4c-0.2,0.8-0.5,1.4-1.1,2c-0.7,0.6-1.6,0.9-2.5,0.9c-1,0-2-0.4-2.7-1.2
		c-0.7-0.9-1.1-2-1-3.2c0-1.1,0.3-2.2,1-3c1.3-1.5,3.5-1.8,5.1-0.5C1118.5,15265.7,1118.6,15265.8,1118.8,15266L1118.8,15266z
		 M1113.6,15266.2c-0.6,0.7-1,1.7-1,2.7h6.7c-0.2-2.5-1.3-3.7-3.3-3.7C1115,15265.1,1114.2,15265.5,1113.6,15266.2L1113.6,15266.2z"
		/>
	<path id="Path_8702" class="st0" d="M1125.8,15264.9v0.4c-0.4-0.1-0.9-0.2-1.3-0.2c-0.9,0-1.7,0.5-2.1,1.3
		c-0.4,0.7-0.7,1.6-0.6,2.4v4.4h-0.4v-8.3h0.4v1.8c0.2-0.6,0.5-1,1-1.4c0.5-0.4,1.1-0.7,1.8-0.7
		C1124.9,15264.7,1125.4,15264.7,1125.8,15264.9z"/>
	<path id="Path_8703" class="st0" d="M1126.4,15264.9l3,7.8l3-7.8h0.4l-3.2,8.3h-0.4l-3.2-8.3H1126.4z"/>
	<path id="Path_8704" class="st0" d="M1140,15266c0.6,1,0.9,2.1,0.9,3.2h-7.1c0,1,0.3,2,0.9,2.8c0.6,0.7,1.5,1.1,2.4,1.1
		c0.8,0,1.5-0.2,2.1-0.7c0.5-0.5,0.8-1.1,1-1.8h0.4c-0.2,0.8-0.5,1.4-1.1,2c-0.7,0.6-1.6,0.9-2.5,0.9c-1,0-2-0.4-2.7-1.2
		c-0.7-0.9-1.1-2-1-3.2c0-1.1,0.3-2.2,1-3c1.3-1.5,3.5-1.8,5.1-0.5C1139.7,15265.7,1139.9,15265.8,1140,15266L1140,15266z
		 M1134.8,15266.2c-0.6,0.7-1,1.7-1,2.7h6.7c-0.2-2.5-1.3-3.7-3.3-3.7C1136.3,15265.1,1135.4,15265.5,1134.8,15266.2L1134.8,15266.2
		z"/>
	<path id="Path_8705" class="st0" d="M1149.4,15261.6v11.7h-0.4v-2.1c-0.6,1.8-2.5,2.8-4.3,2.2c-0.7-0.2-1.2-0.6-1.7-1.2
		c-0.6-0.9-0.9-1.9-0.9-3c0-1.1,0.3-2.1,0.9-3c1.1-1.5,3.2-1.8,4.7-0.7c0.6,0.4,1,1,1.2,1.7v-5.5H1149.4z M1143.4,15266.3
		c-0.6,0.8-0.9,1.8-0.8,2.8c0,1,0.2,2,0.8,2.8c0.6,0.8,1.5,1.2,2.4,1.2c0.9,0,1.8-0.4,2.4-1.1c0.6-0.8,0.8-1.7,0.8-2.7v-0.2
		c0-1-0.2-1.9-0.8-2.7c-1-1.3-2.9-1.6-4.3-0.5C1143.8,15265.9,1143.6,15266.1,1143.4,15266.3L1143.4,15266.3z"/>
</g>
</svg>
