<?xml version="1.0" encoding="utf-8"?>
<!-- Generator: Adobe Illustrator 24.0.3, SVG Export Plug-In . SVG Version: 6.00 Build 0)  -->
<svg version="1.1" id="icon_lication.svg" xmlns="http://www.w3.org/2000/svg" xmlns:xlink="http://www.w3.org/1999/xlink" x="0px"
	 y="0px" viewBox="0 0 24 24" style="enable-background:new 0 0 24 24;" xml:space="preserve">
<style type="text/css">
	.st0{fill-rule:evenodd;clip-rule:evenodd;fill:#FFFFFF;}
</style>
<path id="Path_209" class="st0" d="M5,20h14v2H5V20z M12,7c-1.1,0-2,0.9-2,2c0,1.1,0.9,2,2,2c1.1,0,2-0.9,2-2l0,0
	C14,7.9,13.1,7,12,7z M12,2c3.8,0,7,3.1,7,6.9c0,0.1,0,0.1,0,0.2c0,3.1-2.3,6.4-7,9.8c-4.7-3.4-7-6.7-7-9.8c-0.1-3.8,2.9-7,6.8-7.1
	C11.9,2,11.9,2,12,2z"/>
</svg>
