<?xml version="1.0" encoding="utf-8"?>
<!-- Generator: Adobe Illustrator 24.0.3, SVG Export Plug-In . SVG Version: 6.00 Build 0)  -->
<svg version="1.1" id="icon_facebook.svg" xmlns="http://www.w3.org/2000/svg" xmlns:xlink="http://www.w3.org/1999/xlink" x="0px"
	 y="0px" viewBox="0 0 24 24" style="enable-background:new 0 0 24 24;" xml:space="preserve">
<style type="text/css">
	.st0{fill:#FFFFFF;}
</style>
<path id="Path_208" class="st0" d="M14.3,6.1c-0.6,0.5-0.3,1.2-0.2,1.7c0.1,0.5,0.6,0.2,1,0.2c0.7,0,1.4,0,2.1,0
	c0.2,1.1,0.2,2.2,0,3.3l0,0c-1,0.1-2.1,0.2-3.1,0.1C13.9,11.7,14,12,14,12.3c0,2.9,0,5.8,0,8.7c0,0.7-0.2,1-0.9,0.9
	c-0.9-0.1-1.7-0.1-2.6,0c-0.8,0.1-0.9-0.2-0.9-0.9c0-3.2,0-6.3,0-9.5c-1-0.2-2,0.1-2.9-0.2c0-0.9,0-1.8,0-2.7c0-0.5,0.2-0.7,0.6-0.6
	c0.5,0,1.1,0,1.6,0s0.7-0.2,0.7-0.7c0-1.1-0.1-2.3,0.6-3.3c0.7-1.2,1.7-2.1,3.3-2c1.2,0.1,2.5,0,3.7,0c0.3,1,0.1,2,0.1,3
	c-0.4,0.5-1,0.2-1.4,0.2C15.2,5.1,14.6,5.5,14.3,6.1z"/>
</svg>
