<?xml version="1.0" encoding="utf-8"?>
<!-- Generator: Adobe Illustrator 24.0.3, SVG Export Plug-In . SVG Version: 6.00 Build 0)  -->
<svg version="1.1" id="icon_phone.svg" xmlns="http://www.w3.org/2000/svg" xmlns:xlink="http://www.w3.org/1999/xlink" x="0px"
	 y="0px" viewBox="0 0 24 24" style="enable-background:new 0 0 24 24;" xml:space="preserve">
<style type="text/css">
	.st0{fill:#FFFFFF;}
</style>
<g id="Group_36" transform="translate(-1810.625 -1482.397)">
	<g id="Group_35">
		<path id="Path_207" class="st0" d="M1832.5,1500.3l-0.1-0.3c-0.3-0.8-0.9-1.4-1.7-1.6l-2.6-0.7c-0.8-0.2-1.6,0-2.3,0.6l-0.9,1
			c-3.5-0.9-6.2-3.6-7.1-7.1l1-1c0.5-0.6,0.8-1.4,0.6-2.3l-0.7-2.6c-0.3-0.8-0.9-1.4-1.6-1.7l-0.3-0.1c-0.8-0.2-1.6,0-2.2,0.5
			l-1.4,1.4c-0.2,0.3-0.3,0.6-0.4,1c-0.1,9.3,7.3,16.9,16.6,17c0.1,0,0.2,0,0.3,0c0.4-0.1,0.7-0.2,1-0.4l1.4-1.4
			C1832.6,1502,1832.8,1501.1,1832.5,1500.3z"/>
	</g>
</g>
</svg>
