<svg xmlns="http://www.w3.org/2000/svg" width="312.785" height="183.19" viewBox="0 0 312.785 183.19">
  <g id="logo_lg" transform="translate(-433.527 -14491.836)">
    <g id="Group_1675" data-name="Group 1675">
      <path id="Path_8584" data-name="Path 8584" d="M565.462,14542.735c-7.727.424-16.207,7.8-17.081,12.39C560.4,14556.692,566.02,14549.476,565.462,14542.735Zm28.256-27.827a12.768,12.768,0,0,0,8.159-2.98c4.7-3.962,4.532-9.261,4.15-14.68C599.985,14499.771,593.94,14507.843,593.718,14514.908Zm-19.57-17.719-.362.41c0,1.4-.034,2.8.006,4.2.117,4.046,1.286,7.628,4.573,10.275a13.184,13.184,0,0,0,6.833,2.773c.688.085,1.438.1,1.1-1.048-.349-1.2-.493-2.459-.922-3.62a23.346,23.346,0,0,0-7.734-10.713C576.543,14498.622,575.317,14497.943,574.148,14497.189Zm57.337,25.905c-11.562-1.726-17.439,5.311-17.114,12.207C621.182,14535.439,630.4,14528.205,631.485,14523.095Zm-65.965,12.166c.457-3.789-1.2-6.757-3.682-9.13-3.706-3.536-8.427-3.652-13.2-3.161C548.724,14527.231,558.177,14535.3,565.52,14535.261Zm8.246,45.588c5.542-1.415,13.342-12.613,12.208-17.687a33.359,33.359,0,0,0-5.092,1.342,11.954,11.954,0,0,0-5.838,5.653C573.266,14573.541,573.881,14577.151,573.766,14580.849Zm57.994-25.614c-3.508-7.822-12.514-12.295-17.823-12.331a30.548,30.548,0,0,0,1.379,5.144c2.171,4.689,6,7.028,11.149,7.179C628.2,14555.277,629.932,14555.234,631.76,14555.234Zm-25.707,25.7c0-1.8-.038-3.367.007-4.931a11.989,11.989,0,0,0-11.493-12.425c-.8-.027-1.04.253-.881.9a31.756,31.756,0,0,0,1.313,4.653,22.49,22.49,0,0,0,5.432,7.977A17.818,17.818,0,0,0,606.053,14580.934Zm21.287-40.055c-.722,0-1.447-.032-2.166.013a7.73,7.73,0,0,0-1.223.272,4.73,4.73,0,0,0,.782,1.074,34.211,34.211,0,0,1,9.119,10.473c.493.878,1,.764,1.555.132a7,7,0,0,0,1.681-5.2,6.512,6.512,0,0,0-2.924-5.281C632.1,14540.878,629.731,14540.837,627.34,14540.879Zm-39.213-39.095.108-.01c-.119-1.25-.213-2.5-.363-3.748a6.546,6.546,0,0,0-4.561-5.729,6.806,6.806,0,0,0-7.115,1.358c-.657.567-.7,1.019.167,1.543a28.274,28.274,0,0,1,4.489,3.065c2.176,1.984,4.141,4.2,6.2,6.31a5.5,5.5,0,0,0,.676.512,2.819,2.819,0,0,0,.377-.867C588.162,14503.41,588.127,14502.6,588.127,14501.784Zm-31.936,39.479c-.339-.15-.6-.371-.856-.363-2.68.069-5.358-.226-8.016.646-4.511,1.479-6.178,8.076-2.757,11.361.557.534.891.583,1.429-.229a57.121,57.121,0,0,1,4.745-6.407A70.065,70.065,0,0,1,556.191,14541.264Zm32.051,32.063-.369-.262a5.663,5.663,0,0,0-.947.716c-.614.7-1.143,1.478-1.76,2.176a36.626,36.626,0,0,1-8.834,7.121c-.968.577-.64.99-.073,1.5a7.081,7.081,0,0,0,.973.714c4.115,2.588,9.879.046,10.587-4.693C588.177,14578.207,588.114,14575.753,588.242,14573.326Zm24.288-59.909c.188-.065.555-.082.738-.273a36.521,36.521,0,0,0,4.539-4.954c3.148-4.853.056-10.212-5.3-10.992-1.213-.176-1.372.165-1.1,1.361a39.06,39.06,0,0,1,1.084,6.049C612.667,14507.516,612.53,14510.444,612.53,14513.417Zm-1.126,67.293c4.616,1.1,8.889-4.2,7.38-8.815-1.083-3.309-4.074-5.02-6.214-7.512,0,2.859.151,5.552-.042,8.221C612.334,14575.3,611.8,14577.967,611.4,14580.71Zm20.38-62.753c.18-3.205-.945-5.415-3.277-6.859a6.617,6.617,0,0,0-7.674.116,47.061,47.061,0,0,0-4.93,4.476c-.208.2-.228.593-.39,1.052C621.073,14516.172,626.4,14516.224,631.784,14517.957Zm-39.635-12.5c1.092-1.352,1.943-2.575,2.964-3.636a32.693,32.693,0,0,1,8.249-6.463c1.2-.636,1.183-.887.208-1.8a6.706,6.706,0,0,0-5.211-1.642c-2.683.1-5.64,2.13-6.116,5.01C591.8,14499.589,592.149,14502.379,592.149,14505.462Zm31.263,31.55a4.959,4.959,0,0,0,.923.271c2.018-.071,4.043-.079,6.05-.27a8.3,8.3,0,0,0,3.2-.842,6.43,6.43,0,0,0,3.494-6,7.068,7.068,0,0,0-2.537-5.78A36.969,36.969,0,0,1,623.412,14537.012Zm-75.086,23.283c-.968,4.522,3.464,8.432,7.527,7.882,4.019-.543,6.117-3.865,8.695-6.7C559.023,14562.523,553.688,14561.772,548.326,14560.295Zm16.1-43.608c.056-.12.113-.241.169-.362a55.125,55.125,0,0,0-5.722-5.2,6.3,6.3,0,0,0-7.517.044,6.464,6.464,0,0,0-3.059,6.723C553.619,14516.148,559.009,14516.22,564.426,14516.687Zm27.706,56.353c0,2.519-.049,4.846.01,7.17.122,4.82,6.552,8.318,11.472,4.481.946-.738.922-1.064-.136-1.744-.3-.194-.6-.4-.905-.584a30.108,30.108,0,0,1-9.624-8.729A3.38,3.38,0,0,0,592.132,14573.039Zm-24.582-8.515c-.147-.028-.295-.057-.442-.083-1.463,1.581-2.95,3.141-4.384,4.749a7.159,7.159,0,0,0,.246,9.7,5.677,5.677,0,0,0,5.583,1.812c-.453-2.772-1.1-5.423-1.261-8.1A80.442,80.442,0,0,1,567.55,14564.524Zm48.035-3.172c1.531,1.713,2.983,3.39,4.5,5a4.555,4.555,0,0,0,1.715,1.234c3.666,1.241,7.261.429,9.208-3.378.577-1.128,1.2-2.4.592-3.913C626.262,14561.827,620.881,14562.5,615.585,14561.353Zm-48.44-47.545.35-.169c-.088-2.7-.383-5.405-.208-8.085.179-2.753.817-5.476,1.267-8.3a3.971,3.971,0,0,0-.985-.057c-.561.115-1.1.337-1.656.474a6.769,6.769,0,0,0-4.191,9.8C563.046,14509.856,565.3,14511.716,567.145,14513.808Zm-10.743,23.471a10.882,10.882,0,0,0-.894-1.127,67.237,67.237,0,0,1-5.081-4.572,64.549,64.549,0,0,1-4.164-5.587c-.964-1.324-1.293-1.333-2.162.057a13.05,13.05,0,0,0-.882,1.756c-1.7,3.943,1.477,8.623,4.995,8.985,1.832.188,3.685.174,5.527.268C554.5,14537.1,555.253,14537.181,556.4,14537.278Z" fill="#b68e66"/>
      <path id="Path_8585" data-name="Path 8585" d="M598.756,14523.245h9.006a8.075,8.075,0,0,0-.509.915c-.415,1.107-1.138,2.22-1.153,3.338-.1,7.458-.123,14.92.016,22.377.03,1.62.816,3.226,1.276,4.922h-8.663c2.558-4.372,1.3-9.152,1.714-13.914h-2.314c-5.832,0-11.665.02-17.5-.022-.946-.007-1.314.258-1.248,1.219.224,3.273.348,6.557.647,9.825a13.328,13.328,0,0,0,.984,2.921h-8.878a11.036,11.036,0,0,0,1.685-6.692c.038-6.42.016-12.839.052-19.259a7.678,7.678,0,0,0-1.864-5.579H581.2c-2.894,4.025-1.408,8.508-1.876,12.9h20.989c0-3.19.119-6.394-.066-9.578C600.187,14525.547,599.349,14524.523,598.756,14523.245Z" fill="#b68e66"/>
      <path id="Path_8586" data-name="Path 8586" d="M565.462,14542.735c.558,6.74-5.061,13.957-17.081,12.39C549.255,14550.537,557.735,14543.159,565.462,14542.735Z" fill="#b68e66"/>
      <path id="Path_8587" data-name="Path 8587" d="M593.718,14514.908c.222-7.065,6.267-15.137,12.309-17.66.382,5.419.549,10.718-4.15,14.68A12.768,12.768,0,0,1,593.718,14514.908Z" fill="#b68e66"/>
      <path id="Path_8588" data-name="Path 8588" d="M574.148,14497.189c1.169.754,2.4,1.433,3.5,2.274a23.346,23.346,0,0,1,7.734,10.713c.429,1.161.573,2.425.922,3.62.336,1.147-.414,1.133-1.1,1.048a13.184,13.184,0,0,1-6.833-2.773c-3.287-2.647-4.456-6.229-4.573-10.275-.04-1.4-.006-2.8-.006-4.2Z" fill="#b68e66"/>
      <path id="Path_8589" data-name="Path 8589" d="M631.485,14523.095c-1.086,5.11-10.3,12.345-17.114,12.207C614.046,14528.405,619.923,14521.369,631.485,14523.095Z" fill="#b68e66"/>
      <path id="Path_8590" data-name="Path 8590" d="M565.52,14535.261c-7.343.035-16.8-8.029-16.886-12.291,4.777-.491,9.5-.375,13.2,3.161C564.325,14528.5,565.977,14531.472,565.52,14535.261Z" fill="#b68e66"/>
      <path id="Path_8591" data-name="Path 8591" d="M573.766,14580.849c.115-3.7-.5-7.308,1.278-10.691a11.954,11.954,0,0,1,5.838-5.653,33.359,33.359,0,0,1,5.092-1.342C587.108,14568.235,579.308,14579.434,573.766,14580.849Z" fill="#b68e66"/>
      <path id="Path_8592" data-name="Path 8592" d="M631.76,14555.234c-1.828,0-3.563.043-5.295-.009-5.15-.15-8.978-2.489-11.149-7.179a30.548,30.548,0,0,1-1.379-5.144C619.246,14542.939,628.252,14547.412,631.76,14555.234Z" fill="#b68e66"/>
      <path id="Path_8593" data-name="Path 8593" d="M606.053,14580.934a17.818,17.818,0,0,1-5.622-3.827,22.49,22.49,0,0,1-5.432-7.977,31.756,31.756,0,0,1-1.313-4.653c-.159-.646.077-.926.881-.9A11.989,11.989,0,0,1,606.06,14576C606.015,14577.566,606.053,14579.13,606.053,14580.934Z" fill="#b68e66"/>
      <path id="Path_8594" data-name="Path 8594" d="M627.34,14540.881c2.391-.044,4.765,0,6.824,1.48a6.512,6.512,0,0,1,2.924,5.281,7,7,0,0,1-1.681,5.2c-.551.632-1.062.746-1.555-.132a34.211,34.211,0,0,0-9.119-10.473,4.73,4.73,0,0,1-.782-1.074,7.73,7.73,0,0,1,1.223-.272C625.893,14540.847,626.618,14540.879,627.34,14540.881Z" fill="#b68e66"/>
      <path id="Path_8595" data-name="Path 8595" d="M588.127,14501.784c0,.812.035,1.626-.018,2.435a2.819,2.819,0,0,1-.377.867,5.5,5.5,0,0,1-.676-.512c-2.063-2.109-4.028-4.325-6.2-6.31a28.274,28.274,0,0,0-4.489-3.065c-.862-.524-.824-.976-.167-1.543a6.806,6.806,0,0,1,7.115-1.358,6.546,6.546,0,0,1,4.561,5.729c.15,1.246.244,2.5.363,3.748Z" fill="#b68e66"/>
      <path id="Path_8596" data-name="Path 8596" d="M556.191,14541.264a70.065,70.065,0,0,0-5.455,5.009,57.121,57.121,0,0,0-4.745,6.407c-.538.812-.872.763-1.429.229-3.421-3.285-1.754-9.882,2.757-11.361,2.658-.872,5.336-.577,8.016-.646C555.59,14540.893,555.852,14541.113,556.191,14541.264Z" fill="#b68e66"/>
      <path id="Path_8597" data-name="Path 8597" d="M588.242,14573.326c-.128,2.427-.065,4.881-.423,7.273-.708,4.739-6.472,7.281-10.587,4.693a7.081,7.081,0,0,1-.973-.714c-.567-.512-.895-.925.073-1.5a36.626,36.626,0,0,0,8.834-7.121c.617-.7,1.146-1.475,1.76-2.176a5.663,5.663,0,0,1,.947-.716Z" fill="#b68e66"/>
      <path id="Path_8598" data-name="Path 8598" d="M612.53,14513.417c0-2.973.137-5.9-.046-8.81a39.06,39.06,0,0,0-1.084-6.049c-.269-1.2-.11-1.537,1.1-1.361,5.36.78,8.452,6.14,5.3,10.992a36.521,36.521,0,0,1-4.539,4.954C613.085,14513.335,612.718,14513.352,612.53,14513.417Z" fill="#b68e66"/>
      <path id="Path_8599" data-name="Path 8599" d="M611.4,14580.71c.4-2.743.93-5.412,1.124-8.106.193-2.669.042-5.361.042-8.221,2.14,2.492,5.131,4.2,6.214,7.512C620.293,14576.508,616.02,14581.811,611.4,14580.71Z" fill="#b68e66"/>
      <path id="Path_8600" data-name="Path 8600" d="M631.784,14517.957c-5.38-1.733-10.711-1.785-16.271-1.216.162-.459.182-.855.39-1.052a47.061,47.061,0,0,1,4.93-4.476,6.617,6.617,0,0,1,7.674-.116C630.839,14512.542,631.964,14514.752,631.784,14517.957Z" fill="#b68e66"/>
      <path id="Path_8601" data-name="Path 8601" d="M592.149,14505.462c0-3.083-.346-5.873.094-8.533.476-2.88,3.433-4.905,6.116-5.01a6.706,6.706,0,0,1,5.211,1.642c.975.916.995,1.167-.208,1.8a32.693,32.693,0,0,0-8.249,6.463C594.092,14502.887,593.241,14504.11,592.149,14505.462Z" fill="#b68e66"/>
      <path id="Path_8602" data-name="Path 8602" d="M623.412,14537.012a36.969,36.969,0,0,0,11.126-12.622,7.068,7.068,0,0,1,2.537,5.78,6.43,6.43,0,0,1-3.494,6,8.3,8.3,0,0,1-3.2.842c-2.007.19-4.032.2-6.05.27A4.959,4.959,0,0,1,623.412,14537.012Z" fill="#b68e66"/>
      <path id="Path_8603" data-name="Path 8603" d="M548.326,14560.295c5.362,1.478,10.7,2.229,16.222,1.18-2.578,2.837-4.676,6.159-8.695,6.7C551.79,14568.727,547.358,14564.817,548.326,14560.295Z" fill="#b68e66"/>
      <path id="Path_8604" data-name="Path 8604" d="M564.426,14516.687c-5.417-.467-10.807-.538-16.129,1.207a6.464,6.464,0,0,1,3.059-6.723,6.3,6.3,0,0,1,7.517-.044,55.125,55.125,0,0,1,5.722,5.2C564.539,14516.445,564.482,14516.566,564.426,14516.687Z" fill="#b68e66"/>
      <path id="Path_8605" data-name="Path 8605" d="M592.132,14573.039a3.38,3.38,0,0,1,.817.595,30.108,30.108,0,0,0,9.624,8.729c.31.181.6.39.905.584,1.058.68,1.082,1.006.136,1.744-4.92,3.837-11.35.339-11.472-4.481C592.083,14577.885,592.132,14575.558,592.132,14573.039Z" fill="#b68e66"/>
      <path id="Path_8606" data-name="Path 8606" d="M567.55,14564.524a80.442,80.442,0,0,0-.258,8.07c.164,2.681.808,5.331,1.261,8.1a5.677,5.677,0,0,1-5.583-1.812,7.159,7.159,0,0,1-.246-9.7c1.434-1.608,2.921-3.168,4.384-4.749C567.255,14564.468,567.4,14564.5,567.55,14564.524Z" fill="#b68e66"/>
      <path id="Path_8607" data-name="Path 8607" d="M615.585,14561.353c5.3,1.146,10.677.475,16.017-1.053.607,1.515-.015,2.785-.592,3.913-1.947,3.807-5.542,4.619-9.208,3.378a4.555,4.555,0,0,1-1.715-1.234C618.568,14564.742,617.116,14563.065,615.585,14561.353Z" fill="#b68e66"/>
      <path id="Path_8608" data-name="Path 8608" d="M567.145,14513.808c-1.841-2.092-4.1-3.951-5.423-6.332a6.769,6.769,0,0,1,4.191-9.8c.557-.137,1.095-.358,1.656-.474a3.971,3.971,0,0,1,.985.057c-.45,2.82-1.088,5.543-1.267,8.3-.175,2.68.12,5.39.208,8.085Z" fill="#b68e66"/>
      <path id="Path_8609" data-name="Path 8609" d="M556.4,14537.278c-1.149-.1-1.9-.183-2.661-.221-1.842-.094-3.7-.079-5.527-.268-3.518-.362-6.7-5.042-4.995-8.985a13.05,13.05,0,0,1,.882-1.756c.869-1.39,1.2-1.381,2.162-.057a64.549,64.549,0,0,0,4.164,5.587,67.237,67.237,0,0,0,5.081,4.572A10.882,10.882,0,0,1,556.4,14537.278Z" fill="#b68e66"/>
    </g>
    <g id="Group_1676" data-name="Group 1676">
      <path id="Path_8610" data-name="Path 8610" d="M504.091,14674.526H434.575a1.174,1.174,0,0,1-.725-.242.7.7,0,0,1-.323-.563v-3.947a.766.766,0,0,1,.323-.645,1.174,1.174,0,0,1,.725-.242h29.079v-8.055H438.521a1.174,1.174,0,0,1-.724-.241.7.7,0,0,1-.322-.563V14656a.7.7,0,0,1,.281-.6,1.15,1.15,0,0,1,.685-.2h25.213v-7.17H436.266a1.178,1.178,0,0,1-.725-.242.7.7,0,0,1-.322-.563v-4.027a.7.7,0,0,1,.282-.6,1.157,1.157,0,0,1,.685-.2h66.052q1.047,0,1.048.887v3.865a.783.783,0,0,1-.887.887H474.207v7.17h25.132q1.046,0,1.047.885v3.866a.783.783,0,0,1-.886.887H474.207v8.055h29.724q1.045,0,1.046.887v3.866A.784.784,0,0,1,504.091,14674.526Zm-5.558-37.537a5.873,5.873,0,0,1-1.933.926,8.312,8.312,0,0,1-2.175.281H442.872a5.043,5.043,0,0,1-3.705-1.53,4.894,4.894,0,0,1-1.37-3.624v-19.091a5.016,5.016,0,0,1,1.45-3.705,5.681,5.681,0,0,1,3.947-1.451h12.647l2.9-4.349a1.3,1.3,0,0,1,.967-.646h9.344a.684.684,0,0,1,.564.363c.161.241.187.416.081.522l-2.9,4.108H495.15a5.374,5.374,0,0,1,3.705,1.451,4.671,4.671,0,0,1,1.611,3.624v19.172A4.67,4.67,0,0,1,498.533,14636.989Zm-8.619-22.637H448.349v6.284h41.565Zm0,11.762H448.349v6.524h41.565Z" fill="#6a2259"/>
      <path id="Path_8611" data-name="Path 8611" d="M550.328,14633.847H514.322a1.016,1.016,0,0,1-.685-.24.724.724,0,0,1-.282-.564v-4.511a.69.69,0,0,1,.282-.6,1.146,1.146,0,0,1,.685-.2h35.845c.7,0,1.047.3,1.047.887v4.35A.782.782,0,0,1,550.328,14633.847Zm-1.933,36.248-33.832,4.915a.8.8,0,0,1-.685-.2.785.785,0,0,1-.362-.6v-4.511a.805.805,0,0,1,.282-.646,1.475,1.475,0,0,1,.685-.322l7.652-1.128-3.141-7.57a.618.618,0,0,1,.04-.646.6.6,0,0,1,.524-.322h7.49a1.2,1.2,0,0,1,1.209.725l2.658,6.525,2.658-.4,2.82-6.123a1.722,1.722,0,0,1,.563-.483,1.379,1.379,0,0,1,.645-.241h7.491a.6.6,0,0,1,.524.363.558.558,0,0,1,.04.6l-2.014,4.43,4.592-.644a.81.81,0,0,1,.724.2.883.883,0,0,1,.322.686v4.511C549.28,14669.693,548.986,14669.988,548.4,14670.095Zm-.725-48.089a6.12,6.12,0,0,1-4.269,1.531H521.33q-3.788,0-5.075-1.531a6.384,6.384,0,0,1-1.209-4.188v-11.439a1.145,1.145,0,0,1,.2-.683.691.691,0,0,1,.6-.283H522.3a.843.843,0,0,1,.6.283.93.93,0,0,1,.282.683v10.875h4.108v-12.727a1.022,1.022,0,0,1,.241-.685.726.726,0,0,1,.565-.282h8.055a.852.852,0,0,1,.6.282.933.933,0,0,1,.282.685v12.727h4.108v-10.875a1.014,1.014,0,0,1,.242-.683.72.72,0,0,1,.564-.283H548.4a.844.844,0,0,1,.6.283.933.933,0,0,1,.281.683v11.52A5.562,5.562,0,0,1,547.67,14622.006Zm-.323,33.026a3.729,3.729,0,0,1-2.98,1.208H519.315a4.051,4.051,0,0,1-2.5-.725,3.754,3.754,0,0,1-1.45-3.142v-9.988a4.419,4.419,0,0,1,1.209-2.98,4.553,4.553,0,0,1,3.3-1.45h24.084a4.225,4.225,0,0,1,3.3,1.45,4.834,4.834,0,0,1,1.289,3.3v9.264A4.144,4.144,0,0,1,547.347,14655.032Zm-8.941-10.874H525.518v5.88h12.888Zm46.882,29a1.1,1.1,0,0,1-.645.765,2.332,2.332,0,0,1-.886.2H576.83a6.446,6.446,0,0,1-4.753-1.611,6.961,6.961,0,0,1-1.53-4.833v-56.628h-7.169v49.7c0,.43-.029,1.074-.081,1.933a7.131,7.131,0,0,1-.322,1.934l-3.544,8.78a1.638,1.638,0,0,1-.524.684,1.231,1.231,0,0,1-.765.283h-8.7a.717.717,0,0,1-.685-.363.847.847,0,0,1-.041-.765l4.511-11.841V14610a5.255,5.255,0,0,1,1.289-3.867,5.954,5.954,0,0,1,4.51-1.529H575.38a4.712,4.712,0,0,1,5.316,5.4v57.675h5.316a.768.768,0,0,1,.645.322.839.839,0,0,1,.081.806Z" fill="#6a2259"/>
      <path id="Path_8612" data-name="Path 8612" d="M664.39,14673.478a1.223,1.223,0,0,1-1.207.646H628.061a4.39,4.39,0,0,1-2.053-.524,5.669,5.669,0,0,1-1.653-1.248L613,14658.738l-8.619,14.9a1.018,1.018,0,0,1-1.047.564H593.5a.575.575,0,0,1-.563-.322.676.676,0,0,1,0-.645l12.806-21.991a1.118,1.118,0,0,1,1.048-.563h6.928a1.521,1.521,0,0,1,.885.361,7.229,7.229,0,0,1,.645.524l3.463,4.108,29.321-34.153h-50.1a1.012,1.012,0,0,1-.685-.241.726.726,0,0,1-.282-.565v-4.753c0-.536.294-.8.886-.8h27.952l-5.317-10.875c-.055-.106-.013-.281.12-.523a.6.6,0,0,1,.524-.361h9.425a1.456,1.456,0,0,1,.684.281,2.057,2.057,0,0,1,.6.523l5.4,10.955h21.992a1.663,1.663,0,0,1,1.087.362,1.234,1.234,0,0,1,.443,1.008v4.51a5.182,5.182,0,0,1-.283,1.652,4.234,4.234,0,0,1-.6,1.248l-34.718,39.632,3.463,4.269h37.457a.813.813,0,0,1,.684.443.758.758,0,0,1,.121.765Z" fill="#6a2259"/>
      <path id="Path_8613" data-name="Path 8613" d="M745.425,14674.365H675.908a1.166,1.166,0,0,1-.723-.242.693.693,0,0,1-.323-.563v-4.028a.7.7,0,0,1,.281-.6,1.162,1.162,0,0,1,.686-.2h29.723v-8.216H681.144a1.321,1.321,0,0,1-.724-.2.66.66,0,0,1-.323-.6v-4.027a.7.7,0,0,1,.282-.6,1.162,1.162,0,0,1,.686-.2h24.487v-8.055H688.877l-3.946,5.4a1.418,1.418,0,0,1-.565.443,1.564,1.564,0,0,1-.644.2H674.54a.649.649,0,0,1-.6-.363.461.461,0,0,1,.04-.6l10.794-15.144a1.117,1.117,0,0,1,1.048-.564H695.4a.5.5,0,0,1,.524.323.591.591,0,0,1-.04.563l-2.981,4.107h12.647v-7.169H685.011a5.693,5.693,0,0,1-4.511-1.933,5.464,5.464,0,0,1-1.37-3.786v-17.882a5.8,5.8,0,0,1,1.532-4.029,5.626,5.626,0,0,1,4.349-1.852H735.84a6.514,6.514,0,0,1,4.107,1.449,4.432,4.432,0,0,1,1.854,3.624v18.851a5.346,5.346,0,0,1-1.369,3.947,6.216,6.216,0,0,1-4.592,1.61H716.1v7.169h27.064q1.047,0,1.048.888v3.865a.783.783,0,0,1-.886.887H716.1v8.055h24.487q1.046,0,1.047.886v3.866a.783.783,0,0,1-.885.887H716.1v8.216h29.159q1.047,0,1.048.887v3.865A.784.784,0,0,1,745.425,14674.365Zm-14.177-64.119H689.764v6.283h41.484Zm0,11.921H689.764v6.122h41.484Z" fill="#6a2259"/>
    </g>
  </g>
</svg>
