<svg xmlns="http://www.w3.org/2000/svg" width="203.877" height="44.169" viewBox="0 0 203.877 44.169">
  <g id="logo_s" transform="translate(-175.197 -26.133)">
    <g id="Group_23" data-name="Group 23" transform="translate(0.385 -1279.412)">
      <path id="Path_155" data-name="Path 155" d="M185.433,1329.338c-3.612.2-7.576,3.647-7.984,5.791C183.067,1335.862,185.694,1332.489,185.433,1329.338Zm13.208-13.008a5.969,5.969,0,0,0,3.814-1.393c2.2-1.852,2.119-4.329,1.94-6.862A10.44,10.44,0,0,0,198.641,1316.33Zm-9.148-8.283-.169.193c0,.653-.016,1.307,0,1.961a5.988,5.988,0,0,0,2.138,4.8,6.168,6.168,0,0,0,3.194,1.3c.321.039.672.046.515-.491-.163-.558-.231-1.149-.431-1.692a10.915,10.915,0,0,0-3.615-5.007C190.613,1308.717,190.04,1308.4,189.493,1308.047Zm26.8,12.11c-5.4-.807-8.151,2.482-8,5.706C211.479,1325.927,215.788,1322.546,216.295,1320.157Zm-30.835,5.687a4.917,4.917,0,0,0-1.721-4.268c-1.733-1.653-3.939-1.707-6.172-1.477C177.609,1322.091,182.028,1325.86,185.46,1325.844Zm3.855,21.31c2.59-.662,6.236-5.9,5.706-8.268a15.583,15.583,0,0,0-2.38.628,5.586,5.586,0,0,0-2.729,2.642C189.081,1343.738,189.369,1345.425,189.315,1347.154Zm27.109-11.974a10.417,10.417,0,0,0-8.331-5.764,14.2,14.2,0,0,0,.644,2.405,5.524,5.524,0,0,0,5.212,3.356C214.759,1335.2,215.57,1335.18,216.424,1335.18Zm-12.017,12.014c0-.844-.017-1.575,0-2.3a5.6,5.6,0,0,0-5.372-5.808c-.376-.013-.486.118-.411.42a14.813,14.813,0,0,0,.613,2.175,10.5,10.5,0,0,0,2.539,3.728A8.323,8.323,0,0,0,204.407,1347.194Zm9.951-18.724c-.338,0-.676-.015-1.013.006a3.609,3.609,0,0,0-.571.127,2.2,2.2,0,0,0,.365.5,15.994,15.994,0,0,1,4.263,4.9c.23.411.469.357.727.062a3.278,3.278,0,0,0,.786-2.431,3.048,3.048,0,0,0-1.367-2.469A5.012,5.012,0,0,0,214.358,1328.47Zm-18.33-18.275.05-.005c-.055-.584-.1-1.169-.169-1.751a3.061,3.061,0,0,0-2.132-2.678,3.181,3.181,0,0,0-3.326.635c-.307.265-.325.476.078.721a13.257,13.257,0,0,1,2.1,1.433c1.017.928,1.936,1.963,2.9,2.95a2.589,2.589,0,0,0,.316.239,1.285,1.285,0,0,0,.176-.406C196.044,1310.956,196.028,1310.575,196.028,1310.195ZM181.1,1328.65c-.158-.07-.28-.173-.4-.17a12.677,12.677,0,0,0-3.747.3,3.331,3.331,0,0,0-1.288,5.311c.26.25.416.273.668-.107a26.832,26.832,0,0,1,2.217-2.995A33.1,33.1,0,0,1,181.1,1328.65Zm14.983,14.987-.173-.122a2.642,2.642,0,0,0-.443.335c-.287.327-.534.69-.822,1.017a17.108,17.108,0,0,1-4.13,3.328c-.452.27-.3.463-.034.7a3.3,3.3,0,0,0,5.4-1.86C196.051,1345.919,196.022,1344.772,196.082,1343.637Zm11.353-28c.088-.03.259-.038.345-.128a17.069,17.069,0,0,0,2.122-2.316,3.288,3.288,0,0,0-2.48-5.138c-.567-.082-.641.077-.515.637a18.177,18.177,0,0,1,.506,2.827C207.5,1312.875,207.435,1314.243,207.435,1315.633Zm-.526,31.456c2.157.515,4.155-1.964,3.449-4.12-.506-1.547-1.9-2.347-2.9-3.512,0,1.336.07,2.595-.02,3.843S207.093,1345.807,206.909,1347.089Zm9.526-29.334a3.235,3.235,0,0,0-1.532-3.206,3.092,3.092,0,0,0-3.587.055,21.832,21.832,0,0,0-2.3,2.091c-.1.092-.107.277-.183.492A18.169,18.169,0,0,1,216.435,1317.755Zm-18.527-5.841c.51-.631.908-1.2,1.385-1.7a15.29,15.29,0,0,1,3.856-3.021c.563-.3.553-.414.1-.843a3.138,3.138,0,0,0-2.436-.767,3.056,3.056,0,0,0-2.859,2.342A25.474,25.474,0,0,0,197.908,1311.914Zm14.613,14.749a2.255,2.255,0,0,0,.432.125c.944-.033,1.89-.036,2.828-.125a3.889,3.889,0,0,0,1.494-.393,3.006,3.006,0,0,0,1.633-2.806,3.3,3.3,0,0,0-1.185-2.7A17.283,17.283,0,0,1,212.521,1326.663Zm-35.1,10.883a3.217,3.217,0,0,0,3.518,3.685c1.879-.255,2.86-1.807,4.065-3.133A16.516,16.516,0,0,1,177.423,1337.546Zm7.526-20.384.079-.17a25.691,25.691,0,0,0-2.675-2.429,2.946,2.946,0,0,0-3.514.02,3.023,3.023,0,0,0-1.43,3.143A18.6,18.6,0,0,1,184.949,1317.162ZM197.9,1343.5c0,1.178-.023,2.266.005,3.352.057,2.253,3.062,3.888,5.362,2.094.442-.344.431-.5-.063-.814-.141-.091-.279-.189-.424-.274a14.067,14.067,0,0,1-4.5-4.08A1.556,1.556,0,0,0,197.9,1343.5Zm-11.491-3.98-.206-.039c-.684.739-1.38,1.469-2.05,2.22a3.347,3.347,0,0,0,.115,4.533,2.652,2.652,0,0,0,2.61.846c-.212-1.3-.513-2.535-.59-3.787S186.36,1340.781,186.409,1339.523Zm22.454-1.482c.716.8,1.394,1.584,2.1,2.338a2.138,2.138,0,0,0,.8.578,3.279,3.279,0,0,0,4.3-1.579,2.092,2.092,0,0,0,.277-1.83A15.3,15.3,0,0,1,208.863,1338.041Zm-22.643-22.225.164-.079c-.042-1.261-.18-2.527-.1-3.779.084-1.287.382-2.56.593-3.879a1.893,1.893,0,0,0-.461-.026c-.262.054-.514.157-.774.221a3.164,3.164,0,0,0-1.959,4.582A18.731,18.731,0,0,0,186.22,1315.816Zm-5.022,10.971a5.133,5.133,0,0,0-.418-.527,31.42,31.42,0,0,1-2.375-2.137,30.206,30.206,0,0,1-1.946-2.612c-.451-.619-.6-.623-1.011.027a6.058,6.058,0,0,0-.412.821,3.162,3.162,0,0,0,2.335,4.2c.856.088,1.722.081,2.583.125C180.308,1326.7,180.661,1326.742,181.2,1326.787Z" fill="#b68e66"/>
      <path id="Path_156" data-name="Path 156" d="M201,1320.227h4.21a3.886,3.886,0,0,0-.238.428,5.12,5.12,0,0,0-.539,1.56c-.047,3.486-.057,6.974.008,10.46a10.176,10.176,0,0,0,.6,2.3h-4.049c1.2-2.044.608-4.278.8-6.5H200.7c-2.726,0-5.452.009-8.179-.011-.442,0-.614.121-.583.57.105,1.531.163,3.065.3,4.592a6.265,6.265,0,0,0,.46,1.366h-4.15a5.162,5.162,0,0,0,.788-3.128c.018-3,.008-6,.024-9a3.591,3.591,0,0,0-.871-2.608h4.3c-1.353,1.882-.658,3.978-.877,6.03h9.812c0-1.491.055-2.988-.032-4.477A5.292,5.292,0,0,0,201,1320.227Z" fill="#fff"/>
      <path id="Path_157" data-name="Path 157" d="M185.433,1329.338c.261,3.151-2.366,6.524-7.984,5.791C177.857,1332.985,181.821,1329.536,185.433,1329.338Z" fill="#b68e66"/>
      <path id="Path_158" data-name="Path 158" d="M198.641,1316.33a10.44,10.44,0,0,1,5.754-8.255c.179,2.533.257,5.01-1.94,6.862A5.969,5.969,0,0,1,198.641,1316.33Z" fill="#b68e66"/>
      <path id="Path_159" data-name="Path 159" d="M189.493,1308.047c.547.353,1.12.67,1.635,1.064a10.915,10.915,0,0,1,3.615,5.007c.2.543.268,1.134.431,1.692.157.537-.194.53-.515.491a6.168,6.168,0,0,1-3.194-1.3,5.988,5.988,0,0,1-2.138-4.8c-.019-.654,0-1.308,0-1.961Z" fill="#b68e66"/>
      <path id="Path_160" data-name="Path 160" d="M216.295,1320.157c-.507,2.389-4.816,5.77-8,5.706C208.144,1322.639,210.891,1319.35,216.295,1320.157Z" fill="#b68e66"/>
      <path id="Path_161" data-name="Path 161" d="M185.46,1325.844c-3.432.016-7.851-3.753-7.893-5.745,2.233-.23,4.439-.176,6.172,1.477A4.917,4.917,0,0,1,185.46,1325.844Z" fill="#b68e66"/>
      <path id="Path_162" data-name="Path 162" d="M189.315,1347.154c.054-1.729-.234-3.416.6-5a5.586,5.586,0,0,1,2.729-2.642,15.583,15.583,0,0,1,2.38-.628C195.551,1341.258,191.9,1346.492,189.315,1347.154Z" fill="#b68e66"/>
      <path id="Path_163" data-name="Path 163" d="M216.424,1335.18c-.854,0-1.665.02-2.475,0a5.524,5.524,0,0,1-5.212-3.356,14.2,14.2,0,0,1-.644-2.405A10.417,10.417,0,0,1,216.424,1335.18Z" fill="#b68e66"/>
      <path id="Path_164" data-name="Path 164" d="M204.407,1347.194a8.323,8.323,0,0,1-2.628-1.79,10.5,10.5,0,0,1-2.539-3.728,14.813,14.813,0,0,1-.613-2.175c-.075-.3.035-.433.411-.42a5.6,5.6,0,0,1,5.372,5.808C204.39,1345.619,204.407,1346.35,204.407,1347.194Z" fill="#b68e66"/>
      <path id="Path_165" data-name="Path 165" d="M214.358,1328.471a5.005,5.005,0,0,1,3.19.692,3.048,3.048,0,0,1,1.367,2.469,3.278,3.278,0,0,1-.786,2.431c-.258.3-.5.349-.727-.062a15.994,15.994,0,0,0-4.263-4.9,2.2,2.2,0,0,1-.365-.5,3.609,3.609,0,0,1,.571-.127C213.682,1328.455,214.02,1328.47,214.358,1328.471Z" fill="#b68e66"/>
      <path id="Path_166" data-name="Path 166" d="M196.028,1310.195c0,.38.016.761-.009,1.138a1.285,1.285,0,0,1-.176.406,2.589,2.589,0,0,1-.316-.239c-.964-.987-1.883-2.022-2.9-2.95a13.257,13.257,0,0,0-2.1-1.433c-.4-.245-.385-.456-.078-.721a3.181,3.181,0,0,1,3.326-.635,3.061,3.061,0,0,1,2.132,2.678c.07.582.114,1.167.169,1.751Z" fill="#b68e66"/>
      <path id="Path_167" data-name="Path 167" d="M181.1,1328.65a33.1,33.1,0,0,0-2.55,2.341,26.832,26.832,0,0,0-2.217,2.995c-.252.38-.408.357-.668.107a3.331,3.331,0,0,1,1.288-5.311,12.677,12.677,0,0,1,3.747-.3C180.819,1328.477,180.941,1328.58,181.1,1328.65Z" fill="#b68e66"/>
      <path id="Path_168" data-name="Path 168" d="M196.082,1343.637c-.06,1.135-.031,2.282-.2,3.4a3.3,3.3,0,0,1-5.4,1.86c-.265-.24-.418-.433.034-.7a17.108,17.108,0,0,0,4.13-3.328c.288-.327.535-.69.822-1.017a2.642,2.642,0,0,1,.443-.335Z" fill="#b68e66"/>
      <path id="Path_169" data-name="Path 169" d="M207.435,1315.633c0-1.39.064-2.758-.022-4.118a18.177,18.177,0,0,0-.506-2.827c-.126-.56-.052-.719.515-.637a3.288,3.288,0,0,1,2.48,5.138,17.069,17.069,0,0,1-2.122,2.316C207.694,1315.595,207.523,1315.6,207.435,1315.633Z" fill="#b68e66"/>
      <path id="Path_170" data-name="Path 170" d="M206.909,1347.089c.184-1.282.434-2.53.525-3.789s.02-2.507.02-3.843c1,1.165,2.4,1.965,2.9,3.512C211.064,1345.125,209.066,1347.6,206.909,1347.089Z" fill="#b68e66"/>
      <path id="Path_171" data-name="Path 171" d="M216.435,1317.755a18.169,18.169,0,0,0-7.606-.568c.076-.215.085-.4.183-.492a21.832,21.832,0,0,1,2.3-2.091,3.092,3.092,0,0,1,3.587-.055A3.235,3.235,0,0,1,216.435,1317.755Z" fill="#b68e66"/>
      <path id="Path_172" data-name="Path 172" d="M197.908,1311.914a25.474,25.474,0,0,1,.044-3.988,3.056,3.056,0,0,1,2.859-2.342,3.138,3.138,0,0,1,2.436.767c.455.429.465.546-.1.843a15.29,15.29,0,0,0-3.856,3.021C198.816,1310.711,198.418,1311.283,197.908,1311.914Z" fill="#b68e66"/>
      <path id="Path_173" data-name="Path 173" d="M212.521,1326.663a17.283,17.283,0,0,0,5.2-5.9,3.3,3.3,0,0,1,1.185,2.7,3.006,3.006,0,0,1-1.633,2.806,3.889,3.889,0,0,1-1.494.393c-.938.089-1.884.092-2.828.125A2.255,2.255,0,0,1,212.521,1326.663Z" fill="#b68e66"/>
      <path id="Path_174" data-name="Path 174" d="M177.423,1337.546a16.516,16.516,0,0,0,7.583.552c-1.205,1.326-2.186,2.878-4.065,3.133A3.217,3.217,0,0,1,177.423,1337.546Z" fill="#b68e66"/>
      <path id="Path_175" data-name="Path 175" d="M184.949,1317.162a18.6,18.6,0,0,0-7.54.564,3.023,3.023,0,0,1,1.43-3.143,2.946,2.946,0,0,1,3.514-.02,25.691,25.691,0,0,1,2.675,2.429Z" fill="#b68e66"/>
      <path id="Path_176" data-name="Path 176" d="M197.9,1343.5a1.556,1.556,0,0,1,.382.278,14.067,14.067,0,0,0,4.5,4.08c.145.085.283.183.424.274.494.317.505.47.063.814-2.3,1.794-5.3.159-5.362-2.094C197.877,1345.769,197.9,1344.681,197.9,1343.5Z" fill="#b68e66"/>
      <path id="Path_177" data-name="Path 177" d="M186.409,1339.523c-.049,1.258-.2,2.522-.121,3.773s.378,2.492.59,3.787a2.652,2.652,0,0,1-2.61-.846,3.347,3.347,0,0,1-.115-4.533c.67-.751,1.366-1.481,2.05-2.22Z" fill="#b68e66"/>
      <path id="Path_178" data-name="Path 178" d="M208.863,1338.041a15.3,15.3,0,0,0,7.487-.493,2.092,2.092,0,0,1-.277,1.83,3.279,3.279,0,0,1-4.3,1.579,2.138,2.138,0,0,1-.8-.578C210.257,1339.625,209.579,1338.841,208.863,1338.041Z" fill="#b68e66"/>
      <path id="Path_179" data-name="Path 179" d="M186.22,1315.816a18.731,18.731,0,0,1-2.535-2.96,3.164,3.164,0,0,1,1.959-4.582c.26-.064.512-.167.774-.221a1.893,1.893,0,0,1,.461.026c-.211,1.319-.509,2.592-.593,3.879-.082,1.252.056,2.518.1,3.779Z" fill="#b68e66"/>
      <path id="Path_180" data-name="Path 180" d="M181.2,1326.787c-.537-.045-.89-.085-1.244-.1-.861-.044-1.727-.037-2.583-.125a3.162,3.162,0,0,1-2.335-4.2,6.058,6.058,0,0,1,.412-.821c.406-.65.56-.646,1.011-.027a30.206,30.206,0,0,0,1.946,2.612,31.42,31.42,0,0,0,2.375,2.137A5.133,5.133,0,0,1,181.2,1326.787Z" fill="#b68e66"/>
    </g>
    <g id="Group_24" data-name="Group 24" transform="translate(0.385 -1279.412)">
      <path id="Path_181" data-name="Path 181" d="M265.464,1343.693h-32.5a.551.551,0,0,1-.339-.113.325.325,0,0,1-.15-.263v-1.846a.356.356,0,0,1,.15-.3.546.546,0,0,1,.339-.114h13.593v-3.765H234.813a.547.547,0,0,1-.339-.113.325.325,0,0,1-.15-.263v-1.883a.321.321,0,0,1,.131-.282.537.537,0,0,1,.321-.095h11.785v-3.351h-12.8a.551.551,0,0,1-.339-.113.324.324,0,0,1-.151-.263v-1.883a.325.325,0,0,1,.132-.283.543.543,0,0,1,.32-.093H264.6c.326,0,.49.138.49.413v1.808a.366.366,0,0,1-.414.414H251.494v3.351h11.748c.326,0,.49.139.49.414v1.808a.367.367,0,0,1-.415.414H251.494v3.765h13.9c.325,0,.489.138.489.414v1.808A.366.366,0,0,1,265.464,1343.693Zm-2.6-17.547a2.691,2.691,0,0,1-.9.433,3.85,3.85,0,0,1-1.017.132h-24.1a2.356,2.356,0,0,1-1.732-.715,2.29,2.29,0,0,1-.641-1.695v-8.924a2.347,2.347,0,0,1,.678-1.732,2.657,2.657,0,0,1,1.845-.678h5.912l1.355-2.033a.611.611,0,0,1,.452-.3h4.368a.321.321,0,0,1,.264.169c.075.113.087.195.038.245l-1.356,1.92h13.254a2.514,2.514,0,0,1,1.732.678,2.186,2.186,0,0,1,.753,1.695v8.961A2.18,2.18,0,0,1,262.865,1326.146Zm-4.028-10.58h-19.43v2.937h19.43Zm0,5.5h-19.43v3.05h19.43Z" fill="#fff"/>
      <path id="Path_182" data-name="Path 182" d="M287.077,1324.678H270.246a.474.474,0,0,1-.32-.113.335.335,0,0,1-.132-.264v-2.108a.32.32,0,0,1,.132-.282.532.532,0,0,1,.32-.095H287q.489,0,.489.414v2.034A.366.366,0,0,1,287.077,1324.678Zm-.9,16.944-15.814,2.3a.372.372,0,0,1-.321-.094.368.368,0,0,1-.169-.282v-2.109a.376.376,0,0,1,.132-.3.679.679,0,0,1,.32-.151l3.577-.527-1.468-3.539a.289.289,0,0,1,.019-.3.278.278,0,0,1,.244-.15h3.5a.562.562,0,0,1,.565.338l1.242,3.05,1.243-.188,1.318-2.862a.818.818,0,0,1,.263-.226.645.645,0,0,1,.3-.112h3.5a.279.279,0,0,1,.245.169.261.261,0,0,1,.019.283l-.941,2.071,2.146-.3a.381.381,0,0,1,.339.094.413.413,0,0,1,.15.32v2.109Q286.587,1341.547,286.173,1341.622Zm-.339-22.479a2.86,2.86,0,0,1-2,.715H273.522a3.039,3.039,0,0,1-2.373-.715,2.989,2.989,0,0,1-.565-1.958v-5.347a.537.537,0,0,1,.095-.32.322.322,0,0,1,.282-.132h3.013a.4.4,0,0,1,.282.132.44.44,0,0,1,.132.32v5.083h1.92v-5.949a.476.476,0,0,1,.113-.32.338.338,0,0,1,.264-.132h3.765a.4.4,0,0,1,.282.132.435.435,0,0,1,.132.32v5.949h1.921v-5.083a.477.477,0,0,1,.112-.32.34.34,0,0,1,.264-.132h3.012a.4.4,0,0,1,.283.132.439.439,0,0,1,.131.32v5.384A2.6,2.6,0,0,1,285.834,1319.143Zm-.15,15.438a1.747,1.747,0,0,1-1.393.565H272.58a1.892,1.892,0,0,1-1.167-.339,1.755,1.755,0,0,1-.678-1.469v-4.668a2.064,2.064,0,0,1,.565-1.394,2.126,2.126,0,0,1,1.544-.678H284.1a1.974,1.974,0,0,1,1.544.678,2.263,2.263,0,0,1,.6,1.544v4.33A1.941,1.941,0,0,1,285.684,1334.581Zm-4.18-5.083H275.48v2.748H281.5Zm21.915,13.555a.52.52,0,0,1-.3.358,1.1,1.1,0,0,1-.415.094h-3.238a3.015,3.015,0,0,1-2.222-.753,3.254,3.254,0,0,1-.715-2.259v-26.471h-3.351v23.233c0,.2-.013.5-.038.9a3.338,3.338,0,0,1-.15.9l-1.657,4.1a.768.768,0,0,1-.245.32.573.573,0,0,1-.358.132h-4.066a.335.335,0,0,1-.32-.17.394.394,0,0,1-.019-.357l2.108-5.535v-24.024a2.453,2.453,0,0,1,.6-1.807,2.781,2.781,0,0,1,2.108-.715h7.645a2.2,2.2,0,0,1,2.484,2.522v26.961h2.485a.36.36,0,0,1,.3.15.4.4,0,0,1,.038.377Z" fill="#fff"/>
      <path id="Path_183" data-name="Path 183" d="M340.395,1343.2a.572.572,0,0,1-.564.3H323.413a2.063,2.063,0,0,1-.96-.245,2.675,2.675,0,0,1-.772-.584l-5.309-6.363-4.029,6.966a.477.477,0,0,1-.49.264h-4.594a.269.269,0,0,1-.263-.151.315.315,0,0,1,0-.3l5.987-10.28a.521.521,0,0,1,.489-.263h3.239a.712.712,0,0,1,.414.169,3.317,3.317,0,0,1,.3.245l1.619,1.92,13.706-15.965h-23.42a.473.473,0,0,1-.321-.113.337.337,0,0,1-.131-.264v-2.221c0-.251.137-.377.414-.377h13.066l-2.486-5.083c-.025-.05-.006-.132.057-.245a.278.278,0,0,1,.245-.169h4.4a.677.677,0,0,1,.32.132.978.978,0,0,1,.283.244l2.522,5.121h10.28a.775.775,0,0,1,.508.17.574.574,0,0,1,.207.47v2.109a2.432,2.432,0,0,1-.132.772,1.975,1.975,0,0,1-.281.583l-16.229,18.526,1.619,2h17.509a.381.381,0,0,1,.32.207.356.356,0,0,1,.056.358Z" fill="#fff"/>
      <path id="Path_184" data-name="Path 184" d="M378.274,1343.618H345.779a.547.547,0,0,1-.338-.113.325.325,0,0,1-.151-.264v-1.882a.322.322,0,0,1,.132-.283.54.54,0,0,1,.32-.094h13.894v-3.841H348.227a.622.622,0,0,1-.339-.094.308.308,0,0,1-.151-.282v-1.883a.327.327,0,0,1,.132-.283.543.543,0,0,1,.321-.093h11.446v-3.766h-7.795L350,1333.263a.666.666,0,0,1-.264.207.728.728,0,0,1-.3.094H345.14a.3.3,0,0,1-.283-.169.218.218,0,0,1,.018-.283l5.046-7.079a.523.523,0,0,1,.49-.263h4.48a.232.232,0,0,1,.245.151.275.275,0,0,1-.018.263l-1.394,1.92h5.912v-3.351h-9.6a2.665,2.665,0,0,1-2.109-.9,2.556,2.556,0,0,1-.64-1.77v-8.359a2.712,2.712,0,0,1,.716-1.883,2.63,2.63,0,0,1,2.033-.866h23.76a3.043,3.043,0,0,1,1.92.678,2.07,2.07,0,0,1,.867,1.694v8.811a2.5,2.5,0,0,1-.64,1.845,2.909,2.909,0,0,1-2.147.753h-9.225v3.351H377.22c.326,0,.49.139.49.415v1.807a.365.365,0,0,1-.414.414H364.569v3.766h11.446c.326,0,.49.138.49.414v1.807a.366.366,0,0,1-.414.414H364.569v3.841H378.2q.489,0,.489.414v1.807A.367.367,0,0,1,378.274,1343.618Zm-6.626-29.973H352.256v2.937h19.392Zm0,5.573H352.256v2.862h19.392Z" fill="#fff"/>
    </g>
  </g>
</svg>
