<svg xmlns="http://www.w3.org/2000/svg" xmlns:xlink="http://www.w3.org/1999/xlink" width="411" height="512" viewBox="0 0 411 512">
  <defs>
    <clipPath id="clip-path">
      <rect id="Rectangle_2" data-name="Rectangle 2" width="411" height="512" transform="translate(468 -0.655)" fill="#fff" stroke="#707070" stroke-width="1"/>
    </clipPath>
    <filter id="Path_1" x="3.5" y="-16.048" width="403.851" height="526.242" filterUnits="userSpaceOnUse">
      <feOffset input="SourceAlpha"/>
      <feGaussianBlur stdDeviation="2.5" result="blur"/>
      <feFlood flood-opacity="0.749"/>
      <feComposite operator="in" in2="blur"/>
      <feComposite in="SourceGraphic"/>
    </filter>
    <filter id="Path_32" x="17.922" y="-18" width="375.008" height="512.199" filterUnits="userSpaceOnUse">
      <feOffset input="SourceAlpha"/>
      <feGaussianBlur stdDeviation="2.5" result="blur-2"/>
      <feFlood flood-opacity="0.749"/>
      <feComposite operator="in" in2="blur-2"/>
      <feComposite in="SourceGraphic"/>
    </filter>
  </defs>
  <g id="logo_light" transform="translate(-2584 9)">
    <g id="Mask_Group_1" data-name="Mask Group 1" transform="translate(2116 -8.345)" clip-path="url(#clip-path)">
      <g id="Group_8" data-name="Group 8" transform="translate(0.33)">
        <g transform="matrix(1, 0, 0, 1, 467.67, -0.66)" filter="url(#Path_1)">
          <path id="Path_1-2" data-name="Path 1" d="M675.219,502.038,478.67,411.948V-9.2H867.521V406.571Z" transform="translate(-467.67 0.66)" fill="#6a2259"/>
        </g>
        <g transform="matrix(1, 0, 0, 1, 467.67, -0.66)" filter="url(#Path_32)">
          <path id="Path_32-2" data-name="Path 32" d="M675.056,485.489,493.592,402.314V-10.655H852.6v408Z" transform="translate(-467.67 0.66)" fill="none" stroke="#b68e66" stroke-miterlimit="10" stroke-width="1"/>
        </g>
      </g>
    </g>
    <g id="Group_2" data-name="Group 2" transform="translate(2116 -8.345)">
      <path id="Path_28" data-name="Path 28" d="M592.8,362.037H527.759a1.1,1.1,0,0,1-.679-.227.651.651,0,0,1-.3-.527V357.59a.713.713,0,0,1,.3-.6,1.1,1.1,0,0,1,.679-.227h27.206v-7.536H531.451a1.1,1.1,0,0,1-.678-.225.654.654,0,0,1-.3-.529V344.7a.645.645,0,0,1,.263-.564,1.071,1.071,0,0,1,.641-.189h23.589v-6.707H529.341a1.1,1.1,0,0,1-.678-.227.648.648,0,0,1-.3-.527v-3.768a.65.65,0,0,1,.263-.566,1.084,1.084,0,0,1,.641-.187h61.8c.652,0,.98.276.98.828v3.617a.733.733,0,0,1-.829.83H564.837v6.707H588.35c.652,0,.98.276.98.828V348.4a.732.732,0,0,1-.829.829H564.837v7.536h27.809q.98,0,.98.829v3.617A.734.734,0,0,1,592.8,362.037Zm-5.2-35.119a5.453,5.453,0,0,1-1.809.866,7.711,7.711,0,0,1-2.035.264H535.521a4.717,4.717,0,0,1-3.466-1.432,4.579,4.579,0,0,1-1.282-3.391V305.364a4.694,4.694,0,0,1,1.356-3.466,5.322,5.322,0,0,1,3.694-1.358h11.832l2.712-4.069a1.219,1.219,0,0,1,.9-.6h8.742a.638.638,0,0,1,.527.34c.151.225.175.389.076.49L557.9,300.54h26.529A5.031,5.031,0,0,1,587.9,301.9a4.37,4.37,0,0,1,1.507,3.391v17.936A4.371,4.371,0,0,1,587.6,326.918Zm-8.064-21.177H540.646v5.879h38.887Zm0,11H540.646v6.105h38.887Z" fill="#fff"/>
      <path id="Path_29" data-name="Path 29" d="M636.055,323.979H602.368a.954.954,0,0,1-.641-.226.676.676,0,0,1-.263-.528v-4.22a.647.647,0,0,1,.263-.565,1.078,1.078,0,0,1,.641-.189H635.9c.652,0,.98.277.98.829v4.07A.733.733,0,0,1,636.055,323.979Zm-1.809,33.913-31.652,4.6a.744.744,0,0,1-.641-.188.735.735,0,0,1-.339-.566v-4.22a.755.755,0,0,1,.264-.6,1.38,1.38,0,0,1,.641-.3l7.159-1.055-2.939-7.084a.577.577,0,0,1,.038-.6.56.56,0,0,1,.49-.3h7.008a1.124,1.124,0,0,1,1.13.678l2.488,6.105,2.486-.377,2.638-5.728a1.605,1.605,0,0,1,.527-.452,1.287,1.287,0,0,1,.6-.226h7.009a.558.558,0,0,1,.49.34.521.521,0,0,1,.038.564l-1.885,4.146,4.3-.6a.759.759,0,0,1,.678.188.823.823,0,0,1,.3.64v4.221C635.074,357.515,634.8,357.791,634.246,357.892Zm-.679-44.992a5.724,5.724,0,0,1-3.993,1.432H608.925q-3.544,0-4.749-1.432a5.975,5.975,0,0,1-1.13-3.918v-10.7a1.071,1.071,0,0,1,.188-.64.649.649,0,0,1,.565-.265h6.03a.8.8,0,0,1,.565.265.877.877,0,0,1,.264.64v10.174H614.5V296.547a.953.953,0,0,1,.226-.641.678.678,0,0,1,.528-.263h7.536a.8.8,0,0,1,.565.263.875.875,0,0,1,.264.641v11.907h3.844V298.28a.95.95,0,0,1,.225-.64.68.68,0,0,1,.528-.265h6.029a.794.794,0,0,1,.565.265.875.875,0,0,1,.263.64v10.777A5.2,5.2,0,0,1,633.567,312.9Zm-.3,30.9a3.488,3.488,0,0,1-2.788,1.13H607.04a3.791,3.791,0,0,1-2.336-.678,3.51,3.51,0,0,1-1.357-2.939v-9.344a4.133,4.133,0,0,1,1.131-2.789,4.254,4.254,0,0,1,3.09-1.357H630.1a3.949,3.949,0,0,1,3.09,1.357,4.524,4.524,0,0,1,1.206,3.09v8.666A3.877,3.877,0,0,1,633.266,343.8ZM624.9,333.625H612.843v5.5H624.9Zm43.861,27.13a1.033,1.033,0,0,1-.6.716,2.187,2.187,0,0,1-.829.189h-6.481a6.031,6.031,0,0,1-4.446-1.507,6.511,6.511,0,0,1-1.432-4.522v-52.98h-6.707v46.5c0,.4-.027,1.005-.076,1.809a6.694,6.694,0,0,1-.3,1.809l-3.316,8.214a1.536,1.536,0,0,1-.49.64,1.154,1.154,0,0,1-.716.264h-8.139a.672.672,0,0,1-.641-.339.794.794,0,0,1-.038-.716l4.221-11.078V301.671a4.917,4.917,0,0,1,1.205-3.617,5.57,5.57,0,0,1,4.221-1.432h15.3a4.409,4.409,0,0,1,4.973,5.049v53.96h4.974a.717.717,0,0,1,.6.3.783.783,0,0,1,.076.753Z" fill="#fff"/>
      <path id="Path_30" data-name="Path 30" d="M742.768,361.057a1.143,1.143,0,0,1-1.129.6H708.78a4.121,4.121,0,0,1-1.921-.49A5.313,5.313,0,0,1,705.313,360l-10.626-12.736-8.063,13.941a.954.954,0,0,1-.98.528h-9.2a.539.539,0,0,1-.527-.3.632.632,0,0,1,0-.6L687.9,340.257a1.045,1.045,0,0,1,.981-.527h6.481a1.425,1.425,0,0,1,.829.338,7.13,7.13,0,0,1,.6.49l3.24,3.844,27.432-31.954H680.594a.954.954,0,0,1-.641-.225.679.679,0,0,1-.263-.529v-4.446c0-.5.275-.754.828-.754H706.67L701.7,296.32c-.051-.1-.012-.263.113-.49a.559.559,0,0,1,.49-.338h8.818a1.357,1.357,0,0,1,.64.264,1.943,1.943,0,0,1,.566.489l5.048,10.249h20.576a1.557,1.557,0,0,1,1.016.339,1.154,1.154,0,0,1,.415.943V312a4.84,4.84,0,0,1-.265,1.545,3.913,3.913,0,0,1-.564,1.168l-32.481,37.078,3.24,4h35.044a.759.759,0,0,1,.64.414.707.707,0,0,1,.113.716Z" fill="#fff"/>
      <path id="Path_31" data-name="Path 31" d="M818.582,361.886H753.544a1.1,1.1,0,0,1-.677-.226.649.649,0,0,1-.3-.527v-3.769a.647.647,0,0,1,.263-.565,1.085,1.085,0,0,1,.641-.189h27.808v-7.686H758.443a1.239,1.239,0,0,1-.677-.189.619.619,0,0,1-.3-.565V344.4a.651.651,0,0,1,.264-.566,1.09,1.09,0,0,1,.642-.188h22.909v-7.536h-15.6l-3.692,5.049a1.321,1.321,0,0,1-.529.414,1.456,1.456,0,0,1-.6.189h-8.591a.607.607,0,0,1-.565-.339.431.431,0,0,1,.037-.565l10.1-14.169a1.044,1.044,0,0,1,.98-.527h8.967a.467.467,0,0,1,.49.3.549.549,0,0,1-.037.527l-2.789,3.843h11.832v-6.707H762.06a5.331,5.331,0,0,1-4.22-1.808,5.113,5.113,0,0,1-1.281-3.543v-16.73a5.427,5.427,0,0,1,1.433-3.768,5.26,5.26,0,0,1,4.068-1.733h47.555a6.1,6.1,0,0,1,3.843,1.356,4.147,4.147,0,0,1,1.735,3.391v17.635a5,5,0,0,1-1.282,3.693,5.812,5.812,0,0,1-4.3,1.507H791.152v6.707h25.32q.98,0,.981.83v3.617a.732.732,0,0,1-.829.829H791.152v7.536h22.909c.652,0,.98.277.98.829v3.617a.733.733,0,0,1-.829.83h-23.06v7.686h27.28q.98,0,.981.83v3.617A.734.734,0,0,1,818.582,361.886ZM805.319,301.9H766.508v5.878h38.811Zm0,11.153H766.508v5.727h38.811Z" fill="#fff"/>
    </g>
    <g id="Group_17" data-name="Group 17" transform="translate(2116 -8.345)">
      <path id="Path_2" data-name="Path 2" d="M650.213,238.736c-7.228.4-15.163,7.3-15.98,11.592C645.479,251.795,650.736,245.043,650.213,238.736ZM676.649,212.7a11.95,11.95,0,0,0,7.634-2.788c4.4-3.706,4.239-8.664,3.882-13.734C682.513,198.54,676.857,206.093,676.649,212.7ZM658.34,196.125l-.339.385c0,1.308-.031,2.617.006,3.925.109,3.785,1.2,7.137,4.279,9.613a12.341,12.341,0,0,0,6.392,2.6c.644.078,1.346.092,1.031-.982-.327-1.117-.461-2.3-.863-3.386a21.834,21.834,0,0,0-7.235-10.023C660.581,197.465,659.433,196.83,658.34,196.125Zm53.643,24.237c-10.817-1.615-16.315,4.967-16.012,11.42C702.343,231.911,710.967,225.143,711.983,220.362Zm-61.715,11.382c.427-3.545-1.118-6.322-3.445-8.541-3.467-3.309-7.884-3.417-12.354-2.958C634.554,224.231,643.4,231.776,650.268,231.744Zm7.715,42.651c5.184-1.324,12.482-11.8,11.421-16.547a31.04,31.04,0,0,0-4.764,1.255,11.181,11.181,0,0,0-5.462,5.289C657.515,267.557,658.09,270.935,657.983,274.395ZM712.24,250.43c-3.282-7.318-11.707-11.5-16.674-11.537a28.52,28.52,0,0,0,1.29,4.813c2.031,4.387,5.612,6.576,10.43,6.717C708.907,250.47,710.531,250.43,712.24,250.43Zm-24.05,24.045c0-1.688-.036-3.152.006-4.614a11.215,11.215,0,0,0-10.752-11.624c-.752-.026-.973.237-.824.841a29.67,29.67,0,0,0,1.228,4.353,21.023,21.023,0,0,0,5.082,7.462A16.656,16.656,0,0,0,688.19,274.475ZM708.1,237c-.676,0-1.353-.03-2.027.012a7.236,7.236,0,0,0-1.144.254,4.4,4.4,0,0,0,.732,1,32.013,32.013,0,0,1,8.531,9.8c.462.822.94.716,1.456.124a6.544,6.544,0,0,0,1.572-4.865,6.1,6.1,0,0,0-2.735-4.942C712.563,237,710.342,236.961,708.1,237Zm-36.686-36.577.1-.009c-.112-1.169-.2-2.341-.34-3.506a6.122,6.122,0,0,0-4.267-5.359,6.367,6.367,0,0,0-6.657,1.27c-.615.532-.65.954.156,1.444a26.511,26.511,0,0,1,4.2,2.868c2.036,1.857,3.875,3.929,5.8,5.9a5.175,5.175,0,0,0,.633.479,2.649,2.649,0,0,0,.353-.811C671.451,201.945,671.419,201.183,671.419,200.423ZM641.54,237.36c-.317-.141-.562-.347-.8-.341-2.508.066-5.013-.21-7.5.606-4.22,1.383-5.779,7.555-2.579,10.629.521.5.833.546,1.337-.214a53.518,53.518,0,0,1,4.439-5.994A65.362,65.362,0,0,1,641.54,237.36Zm29.986,30-.345-.245a5.305,5.305,0,0,0-.886.669c-.574.657-1.07,1.383-1.647,2.036a34.222,34.222,0,0,1-8.265,6.662c-.9.54-.6.927-.068,1.4a6.5,6.5,0,0,0,.91.669,6.594,6.594,0,0,0,9.905-4.391C671.465,271.924,671.406,269.627,671.526,267.357Zm22.724-56.05c.175-.061.519-.076.69-.256a34.238,34.238,0,0,0,4.247-4.635c2.944-4.54.052-9.554-4.963-10.284-1.135-.165-1.284.155-1.032,1.275a36.539,36.539,0,0,1,1.014,5.658C694.377,205.786,694.25,208.525,694.25,211.307ZM693.2,274.265c4.319,1.03,8.317-3.932,6.9-8.247-1.013-3.1-3.811-4.7-5.813-7.028,0,2.675.141,5.194-.039,7.691C694.066,269.2,693.565,271.7,693.2,274.265Zm19.067-58.711c.168-3-.885-5.066-3.066-6.417a6.186,6.186,0,0,0-7.179.11,43.846,43.846,0,0,0-4.613,4.186c-.2.184-.213.554-.365.984C702.242,213.884,707.23,213.933,712.263,215.554Zm-37.082-11.69c1.022-1.264,1.818-2.408,2.773-3.4a30.628,30.628,0,0,1,7.718-6.047c1.126-.594,1.107-.829.2-1.686a6.277,6.277,0,0,0-4.876-1.536c-2.51.1-5.276,1.993-5.722,4.687C674.858,198.37,675.181,200.98,675.181,203.864Zm29.249,29.518a4.565,4.565,0,0,0,.864.252c1.888-.066,3.782-.073,5.66-.251a7.791,7.791,0,0,0,2.99-.787,6.017,6.017,0,0,0,3.269-5.615,6.612,6.612,0,0,0-2.373-5.408A34.578,34.578,0,0,1,704.43,233.382Zm-70.249,21.783c-.905,4.231,3.242,7.889,7.043,7.375,3.76-.509,5.722-3.617,8.134-6.271C644.189,257.249,639.2,256.547,634.181,255.165Zm15.063-40.8.159-.339a51.581,51.581,0,0,0-5.354-4.862,5.9,5.9,0,0,0-7.033.041,6.048,6.048,0,0,0-2.862,6.29C639.134,213.862,644.177,213.929,649.244,214.366Zm25.921,52.722c0,2.357-.045,4.534.01,6.708.114,4.51,6.13,7.782,10.732,4.192.886-.69.863-.995-.126-1.631-.283-.181-.558-.377-.847-.546a28.183,28.183,0,0,1-9.005-8.166A3.121,3.121,0,0,0,675.165,267.088Zm-23-7.966-.413-.079c-1.369,1.48-2.761,2.94-4.1,4.444a6.7,6.7,0,0,0,.23,9.072,5.309,5.309,0,0,0,5.223,1.7c-.423-2.594-1.026-5.074-1.18-7.582S652.068,261.64,652.167,259.122Zm44.94-2.967c1.433,1.6,2.792,3.17,4.212,4.681a4.263,4.263,0,0,0,1.605,1.155c3.43,1.161,6.793.4,8.615-3.16a4.184,4.184,0,0,0,.553-3.662C707.1,256.6,702.062,257.227,697.107,256.155Zm-45.319-44.482.328-.158c-.083-2.522-.359-5.058-.2-7.564.168-2.576.764-5.124,1.186-7.762a3.734,3.734,0,0,0-.922-.053c-.525.107-1.028.315-1.549.443a6.333,6.333,0,0,0-3.921,9.17C647.954,207.975,650.066,209.716,651.788,211.673Zm-10.051,21.958a10.136,10.136,0,0,0-.836-1.054,63.119,63.119,0,0,1-4.754-4.278,60.387,60.387,0,0,1-3.895-5.227c-.9-1.239-1.211-1.247-2.024.054a12.17,12.17,0,0,0-.824,1.642c-1.592,3.689,1.381,8.067,4.673,8.407,1.714.176,3.447.162,5.171.25C639.956,233.461,640.662,233.54,641.737,233.631Z" fill="#b68e66"/>
      <path id="Path_3" data-name="Path 3" d="M681.363,220.5h8.425a7.7,7.7,0,0,0-.476.856,10.262,10.262,0,0,0-1.079,3.123c-.093,6.977-.114,13.959.016,20.935.028,1.516.763,3.018,1.193,4.6h-8.105c2.394-4.09,1.218-8.562,1.6-13.017h-2.165c-5.457,0-10.913.017-16.369-.021-.886-.006-1.23.241-1.168,1.139.21,3.064.326,6.135.6,9.192a12.459,12.459,0,0,0,.921,2.734h-8.307a10.324,10.324,0,0,0,1.577-6.261c.035-6.007.015-12.013.048-18.019a7.183,7.183,0,0,0-1.743-5.22h8.6c-2.707,3.766-1.317,7.961-1.755,12.068h19.637c0-2.983.112-5.98-.062-8.96C682.7,222.656,681.917,221.7,681.363,220.5Z" fill="#fff"/>
      <path id="Path_4" data-name="Path 4" d="M650.213,238.736c.523,6.307-4.734,13.059-15.98,11.592C635.05,246.036,642.985,239.133,650.213,238.736Z" fill="#b68e66"/>
      <path id="Path_5" data-name="Path 5" d="M676.649,212.7c.208-6.609,5.864-14.162,11.516-16.522.357,5.07.514,10.028-3.882,13.734A11.95,11.95,0,0,1,676.649,212.7Z" fill="#b68e66"/>
      <path id="Path_6" data-name="Path 6" d="M658.34,196.125c1.093.705,2.241,1.34,3.271,2.128a21.834,21.834,0,0,1,7.235,10.023c.4,1.086.536,2.269.863,3.386.315,1.074-.387,1.06-1.031.982a12.341,12.341,0,0,1-6.392-2.6c-3.075-2.476-4.17-5.828-4.279-9.613-.037-1.308-.006-2.617-.006-3.925Z" fill="#b68e66"/>
      <path id="Path_7" data-name="Path 7" d="M711.983,220.362c-1.016,4.781-9.64,11.549-16.012,11.42C695.668,225.329,701.166,218.747,711.983,220.362Z" fill="#b68e66"/>
      <path id="Path_8" data-name="Path 8" d="M650.268,231.744c-6.87.032-15.714-7.513-15.8-11.5,4.47-.459,8.887-.351,12.354,2.958C649.15,225.422,650.7,228.2,650.268,231.744Z" fill="#b68e66"/>
      <path id="Path_9" data-name="Path 9" d="M657.983,274.395c.107-3.46-.468-6.838,1.2-10a11.181,11.181,0,0,1,5.462-5.289,31.04,31.04,0,0,1,4.764-1.255C670.465,262.594,663.167,273.071,657.983,274.395Z" fill="#b68e66"/>
      <path id="Path_10" data-name="Path 10" d="M712.24,250.43c-1.709,0-3.333.04-4.954-.007-4.818-.141-8.4-2.33-10.43-6.717a28.52,28.52,0,0,1-1.29-4.813C700.533,238.927,708.958,243.112,712.24,250.43Z" fill="#b68e66"/>
      <path id="Path_11" data-name="Path 11" d="M688.19,274.475a16.656,16.656,0,0,1-5.26-3.582,21.023,21.023,0,0,1-5.082-7.462,29.67,29.67,0,0,1-1.228-4.353c-.149-.6.072-.867.824-.841A11.215,11.215,0,0,1,688.2,269.861C688.154,271.323,688.19,272.787,688.19,274.475Z" fill="#b68e66"/>
      <path id="Path_12" data-name="Path 12" d="M708.1,237c2.237-.041,4.458,0,6.385,1.384a6.1,6.1,0,0,1,2.735,4.942,6.544,6.544,0,0,1-1.572,4.865c-.516.592-.994.7-1.456-.124a32.013,32.013,0,0,0-8.531-9.8,4.4,4.4,0,0,1-.732-1,7.236,7.236,0,0,1,1.144-.254C706.752,236.97,707.429,237,708.1,237Z" fill="#b68e66"/>
      <path id="Path_13" data-name="Path 13" d="M671.419,200.423c0,.76.032,1.522-.017,2.279a2.649,2.649,0,0,1-.353.811,5.175,5.175,0,0,1-.633-.479c-1.929-1.974-3.768-4.046-5.8-5.9a26.511,26.511,0,0,0-4.2-2.868c-.806-.49-.771-.912-.156-1.444a6.367,6.367,0,0,1,6.657-1.27,6.122,6.122,0,0,1,4.267,5.359c.14,1.165.228,2.337.34,3.506Z" fill="#b68e66"/>
      <path id="Path_14" data-name="Path 14" d="M641.54,237.36a65.362,65.362,0,0,0-5.1,4.686A53.518,53.518,0,0,0,632,248.04c-.5.76-.816.713-1.337.214-3.2-3.074-1.641-9.246,2.579-10.629,2.487-.816,4.992-.54,7.5-.606C640.978,237.013,641.223,237.219,641.54,237.36Z" fill="#b68e66"/>
      <path id="Path_15" data-name="Path 15" d="M671.526,267.357c-.12,2.27-.061,4.567-.4,6.8a6.594,6.594,0,0,1-9.905,4.391,6.5,6.5,0,0,1-.91-.669c-.53-.478-.837-.865.068-1.4a34.222,34.222,0,0,0,8.265-6.662c.577-.653,1.073-1.379,1.647-2.036a5.305,5.305,0,0,1,.886-.669Z" fill="#b68e66"/>
      <path id="Path_16" data-name="Path 16" d="M694.25,211.307c0-2.782.127-5.521-.044-8.242a36.539,36.539,0,0,0-1.014-5.658c-.252-1.12-.1-1.44,1.032-1.275,5.015.73,7.907,5.744,4.963,10.284a34.238,34.238,0,0,1-4.247,4.635C694.769,211.231,694.425,211.246,694.25,211.307Z" fill="#b68e66"/>
      <path id="Path_17" data-name="Path 17" d="M693.2,274.265c.369-2.566.87-5.064,1.052-7.584.18-2.5.039-5.016.039-7.691,2,2.331,4.8,3.932,5.813,7.028C701.513,270.333,697.515,275.3,693.2,274.265Z" fill="#b68e66"/>
      <path id="Path_18" data-name="Path 18" d="M712.263,215.554c-5.033-1.621-10.021-1.67-15.223-1.137.152-.43.17-.8.365-.984a43.846,43.846,0,0,1,4.613-4.186,6.186,6.186,0,0,1,7.179-.11C711.378,210.488,712.431,212.557,712.263,215.554Z" fill="#b68e66"/>
      <path id="Path_19" data-name="Path 19" d="M675.181,203.864c0-2.884-.323-5.494.088-7.983.446-2.694,3.212-4.59,5.722-4.687a6.277,6.277,0,0,1,4.876,1.536c.912.857.931,1.092-.2,1.686a30.628,30.628,0,0,0-7.718,6.047C677,201.456,676.2,202.6,675.181,203.864Z" fill="#b68e66"/>
      <path id="Path_20" data-name="Path 20" d="M704.43,233.382a34.578,34.578,0,0,0,10.41-11.809,6.612,6.612,0,0,1,2.373,5.408,6.017,6.017,0,0,1-3.269,5.615,7.791,7.791,0,0,1-2.99.787c-1.878.178-3.772.185-5.66.251A4.565,4.565,0,0,1,704.43,233.382Z" fill="#b68e66"/>
      <path id="Path_21" data-name="Path 21" d="M634.181,255.165c5.017,1.382,10.008,2.084,15.177,1.1-2.412,2.654-4.374,5.762-8.134,6.271C637.423,263.054,633.276,259.4,634.181,255.165Z" fill="#b68e66"/>
      <path id="Path_22" data-name="Path 22" d="M649.244,214.366c-5.067-.437-10.11-.5-15.09,1.13a6.048,6.048,0,0,1,2.862-6.29,5.9,5.9,0,0,1,7.033-.041,51.581,51.581,0,0,1,5.354,4.862Z" fill="#b68e66"/>
      <path id="Path_23" data-name="Path 23" d="M675.165,267.088a3.121,3.121,0,0,1,.764.557,28.183,28.183,0,0,0,9.005,8.166c.289.169.564.365.847.546.989.636,1.012.941.126,1.631-4.6,3.59-10.618.318-10.732-4.192C675.12,271.622,675.165,269.445,675.165,267.088Z" fill="#b68e66"/>
      <path id="Path_24" data-name="Path 24" d="M652.167,259.122c-.1,2.518-.4,5.048-.242,7.55s.757,4.988,1.18,7.582a5.309,5.309,0,0,1-5.223-1.7,6.7,6.7,0,0,1-.23-9.072c1.341-1.5,2.733-2.964,4.1-4.444Z" fill="#b68e66"/>
      <path id="Path_25" data-name="Path 25" d="M697.107,256.155c4.955,1.072,9.99.443,14.985-.986a4.184,4.184,0,0,1-.553,3.662c-1.822,3.562-5.185,4.321-8.615,3.16a4.263,4.263,0,0,1-1.605-1.155C699.9,259.325,698.54,257.757,697.107,256.155Z" fill="#b68e66"/>
      <path id="Path_26" data-name="Path 26" d="M651.788,211.673c-1.722-1.957-3.834-3.7-5.073-5.924a6.333,6.333,0,0,1,3.921-9.17c.521-.128,1.024-.336,1.549-.443a3.734,3.734,0,0,1,.922.053c-.422,2.638-1.018,5.186-1.186,7.762-.164,2.506.112,5.042.2,7.564Z" fill="#b68e66"/>
      <path id="Path_27" data-name="Path 27" d="M641.737,233.631c-1.075-.091-1.781-.17-2.489-.206-1.724-.088-3.457-.074-5.171-.25-3.292-.34-6.265-4.718-4.673-8.407a12.17,12.17,0,0,1,.824-1.642c.813-1.3,1.122-1.293,2.024-.054a60.387,60.387,0,0,0,3.895,5.227,63.119,63.119,0,0,0,4.754,4.278A10.136,10.136,0,0,1,641.737,233.631Z" fill="#b68e66"/>
    </g>
  </g>
</svg>
