<?xml version="1.0" encoding="utf-8"?>
<!-- Generator: Adobe Illustrator 24.0.3, SVG Export Plug-In . SVG Version: 6.00 Build 0)  -->
<svg version="1.1" id="圖層_1" xmlns="http://www.w3.org/2000/svg" xmlns:xlink="http://www.w3.org/1999/xlink" x="0px" y="0px"
	 viewBox="0 0 536.1 148.5" style="enable-background:new 0 0 536.1 148.5;" xml:space="preserve">
<style type="text/css">
	.st0{enable-background:new    ;}
	.st1{fill:#B68E66;}
	.st2{fill:#6A2259;}
	.st3{fill:#FFFFFF;}
	.st4{fill:none;stroke:#B68E66;stroke-width:0.975;stroke-miterlimit:10;}
</style>
<g id="main_title_light" transform="translate(-426.523 -520.16)">
	<g id="Group_4">
		<g class="st0">
			<path class="st1" d="M442.1,552.4l-2.9-3.7c3.3-3,6-7.2,8.2-12.6l4.4,1c-0.6,1.6-1.2,3.1-1.8,4.5h19.5v4.4h-10.3
				c-0.1,2.3-0.3,4.6-0.6,6.6h12.8v4.5h-13.8c-0.2,0.7-0.4,1.3-0.5,1.9c5.2,2.6,9.5,5.2,13.1,8l-3.5,3.5c-2.9-2.6-6.5-5.2-11.2-7.9
				c-2.7,4.8-7.5,8.7-14.2,11.8l-3.3-4c7.1-3.1,11.7-7,13.9-11.6l0.7-1.6h-13.7v-4.5h14.9c0.4-2.1,0.6-4.3,0.7-6.6h-6.9
				C446,548.4,444.2,550.6,442.1,552.4z M491.8,599.1h-5V596h-33.7v3.1h-4.9V571h43.5V599.1z M486.8,581.6v-6.2h-33.7v6.2H486.8z
				 M486.8,591.7v-5.8h-33.7v5.8H486.8z M496.6,541.2v24.9h-22.4v-24.9H496.6z M491.9,545.6H479v16.2h12.9V545.6z"/>
			<path class="st1" d="M527.3,576.7c-2.4-0.5-4.8-1-7.1-1.4c-1.6-0.3-3.3-0.5-5-0.7v3.1c-0.1,8.8-2,15.9-5.6,21.4l-3.7-3.4
				c3-4.6,4.5-10.5,4.6-17.5v-17.3h25V594c0,3.1-1.8,4.7-5.3,4.7h-6.2l-1.2-4.6c2.2,0.1,4.1,0.3,6,0.3c1.4,0,2-0.7,2-2v-7.8
				c-4.6,1-9.4,1.8-14.4,2.5l-1.1-4.2c5.4-0.5,10.5-1.3,15.5-2.3v-15.5h-15.6v5.8c2.9,0.3,5.3,0.6,7.1,1c1.6,0.3,3.8,0.6,6.5,1.2
				L527.3,576.7z M540.1,556l-3.9,2.7c-0.7-1.5-1.6-2.9-2.4-4.4c-7.2,1.1-15.8,2-25.8,2.5l-1.4-4.1c0.9-0.3,1.6-0.7,2.2-1.3
				c4.2-4.4,7.7-9.3,10.4-14.8l4.7,1.4c-3.1,6.1-6.5,10.9-10.3,14.4c5.6-0.3,11.6-1,18-1.8c-1.4-2.2-2.9-4.4-4.5-6.6l3.8-2.4
				C534.9,547.1,538,551.9,540.1,556z M548,597.9c-3.9,0-5.9-1.9-5.9-5.6v-23.2h4.8v7.2l18.4-1.2v4.6l-18.4,1.2v10.4
				c0,1.4,0.8,2.2,2.4,2.2h9.5c1.4,0,2.3-0.3,2.9-1c0.7-1,1.2-3.5,1.5-7.6l4.4,1.4c-0.4,5.5-1.3,8.8-2.6,10.1
				c-1.1,1-2.9,1.6-5.3,1.6H548z M547,537.3v8.4l18-1.2v4.5l-18,1.2v9.2c0,1.6,0.8,2.5,2.5,2.5h16.7v4.5h-18c-4.1,0-6.1-2-6.1-5.8
				v-23.2H547z"/>
			<path class="st1" d="M575,568.8l-1.6-5.2c5.4-7.9,9.3-16.9,11.8-26.9l4.4,2c-1.3,4.8-2.9,9.2-4.7,13.4V599h-4.8v-37.8
				C578.6,563.9,576.9,566.4,575,568.8z M603.3,543.1v4c-2.8,5.8-5.4,10.7-8,14.7h8.4v2.8c-0.2,8.3-1.6,15.3-4.1,21
				c2.1,2.3,4.5,4.1,7.1,5.2c3.6,1.6,9.2,2.4,17,2.7c5.3,0,9.5-0.1,12.6-0.2l-0.9,4.6h-8.7c-11.8-0.1-19.8-1.4-24-3.9
				c-2-1.1-3.8-2.5-5.4-4.1c-2.3,3.6-5.1,6.6-8.4,8.9l-2.4-4.1c3.1-2.2,5.7-5.1,7.8-8.5c-2.8-3.9-5-8.9-6.6-14.9l3.9-1.5
				c1.1,4.6,2.7,8.5,4.8,11.8c1.6-4.5,2.7-9.7,2.9-15.6h-9.9v-3.5c3.2-4.5,6.1-9.4,8.6-14.7h-8.3v-4.6H603.3z M620.5,565.2v5.3h12.6
				v3.9h-12.6v5h14.7v4.1h-14.7v6.9h-4.7v-6.9h-11.4v-4.1h11.4v-5h-9.2v-3.9h9.2v-5.3h-8.6v-3.9h8.6v-5.5h-11.4v-4h11.4v-5.5h-8.6
				v-3.9h8.6V537h4.7v5.2h11.3v9.5h4.4v4h-4.4v9.5H620.5z M620.5,551.7h6.9v-5.5h-6.9V551.7z M620.5,561.2h6.9v-5.5h-6.9V561.2z"/>
			<path class="st1" d="M679.5,573.8v19.6c0,3.5-1.8,5.2-5.4,5.2H667l-1-4.6c2.3,0.2,4.5,0.3,6.5,0.3c1.5,0,2.3-0.7,2.3-2.2v-18.4
				h-17.2v-4.1h17.2v-5.4h-22.4c-0.4,14.3-2.8,25.7-7.1,34.4l-3.7-3.3c3.8-7.7,5.8-18.4,6.1-32.2v-22h26c-0.8-1.6-1.6-3-2.4-4.3
				l5-0.8c0.8,1.5,1.6,3.2,2.4,5.1h23.7v4.4h-22.8v5h16.9v9.6h6.7v4.1h-6.7v9.5H679.5z M670.7,589c-4.5,3-10,5.6-16.6,8l-1.9-4.4
				c6.7-2,12.5-4.6,17.3-7.6L670.7,589z M674.8,560.3v-5.4h-17.1v-4.1h17.1v-5h-22.4v14.6H674.8z M668.9,581l-2.2,3.5
				c-3.7-2.2-7.5-3.9-11.3-5.2l2.4-3.5C661.8,577.3,665.5,579,668.9,581z M679.5,560.3h12.2v-5.4h-12.2V560.3z M679.5,564.3v5.4
				h12.2v-5.4H679.5z M703.3,593.7l-2.6,3.9c-6-3.7-12.2-6.5-18.4-8.7l2.3-3.4C691.4,587.8,697.7,590.5,703.3,593.7z M698.4,578
				c-3,2.7-6.2,4.9-9.5,6.8l-3-2.9c3.5-2,6.6-4.2,9.2-6.5L698.4,578z"/>
			<path class="st1" d="M769.5,557.8h-5V548h-47.1v10.5h-5v-15.2h26.9c-0.9-2.3-1.8-4.4-2.9-6.2l5.2-0.8c1,2,1.9,4.4,2.8,7h25V557.8
				z M767.8,576.9l-27.8,0.7v13.1c0,1.5,0.8,2.3,2.4,2.3H761c1.5,0,2.6-0.5,3.3-1.3c0.8-1,1.4-4.1,1.7-9.1l4.7,1.5
				c-0.5,6.5-1.4,10.4-2.9,11.8c-1.2,1.2-3.2,1.8-5.8,1.8h-21c-3.9,0-5.8-2-5.8-5.9v-14l-21.6,0.6v-4.8l21.6-0.5v-11.3
				c-4.3,0.6-8.7,1.2-13.2,1.6l-1-4.6c13.9-1.1,26.1-3.2,36.7-6.2l1.6,4.4c-5.8,1.6-12.3,3-19.2,4.1v11.9l27.8-0.7V576.9z"/>
		</g>
		<g id="Group_3">
			<g class="st0">
				<path class="st2" d="M774.3,581.6c1.6-3.4,4.9-6.5,9.6-9.3l7.1-4.1c3.2-1.9,5.4-3.4,6.7-4.8c2-2.1,3-4.4,3-7.1
					c0-3.1-0.9-5.6-2.8-7.4c-1.9-1.8-4.3-2.7-7.4-2.7c-4.6,0-7.8,1.7-9.5,5.2c-0.9,1.9-1.5,4.4-1.6,7.8h-6.8
					c0.1-4.6,0.9-8.4,2.6-11.3c2.9-5.2,8-7.7,15.3-7.7c6.1,0,10.5,1.6,13.4,4.9c2.8,3.3,4.2,7,4.2,11c0,4.3-1.5,7.9-4.5,10.9
					c-1.7,1.8-4.8,3.9-9.3,6.4l-5.1,2.8c-2.4,1.3-4.3,2.6-5.7,3.8c-2.5,2.2-4,4.5-4.7,7.2H808v6.3h-36.5
					C771.7,589,772.6,585,774.3,581.6z"/>
				<path class="st2" d="M825.9,568c1.4,0.2,2.8,0.6,4.1,1.1l8.3,3.2c1.3,0.5,2.3,0.9,3.1,1.1c1.3,0.4,2.5,0.6,3.5,0.6
					c1.8,0,3.4-0.7,4.6-2.1c1.3-1.4,2.1-3.2,2.6-5.3h4.3c-0.6,3.5-1.8,6.7-3.7,9.6c-1.8,2.9-4.6,4.3-8.3,4.3c-1.1,0-2.4-0.2-4-0.7
					c-0.9-0.3-2.2-0.7-4-1.4l-7.6-2.9c-0.9-0.4-1.9-0.7-2.9-0.9s-1.8-0.3-2.5-0.3c-2.1,0-3.7,0.8-4.9,2.4c-0.7,0.9-1.4,2.5-2.1,4.8
					h-4.3c0.4-2.1,0.9-3.8,1.4-5.3s1.4-3.1,2.6-4.9c1-1.2,2.2-2.2,3.4-2.7c1.2-0.6,2.6-0.9,4.2-0.9
					C824.4,567.8,825.1,567.9,825.9,568z"/>
				<path class="st2" d="M861.9,589.8c-2.8-3.5-4.3-7.7-4.3-12.6h7c0.3,3.4,0.9,5.9,1.9,7.5c1.7,2.8,4.9,4.2,9.4,4.2
					c3.5,0,6.3-0.9,8.5-2.8c2.1-1.9,3.2-4.3,3.2-7.3c0-3.7-1.1-6.2-3.4-7.7c-2.2-1.5-5.4-2.2-9.3-2.2c-0.4,0-0.9,0-1.4,0
					c-0.5,0-0.9,0-1.4,0.1v-5.9c0.7,0.1,1.3,0.1,1.7,0.1c0.5,0,1,0,1.5,0c2.5,0,4.6-0.4,6.2-1.2c2.8-1.4,4.2-3.9,4.2-7.4
					c0-2.7-0.9-4.7-2.8-6.1c-1.9-1.4-4.1-2.2-6.6-2.2c-4.5,0-7.5,1.5-9.3,4.5c-0.9,1.6-1.5,4-1.6,7H859c0-4,0.8-7.3,2.4-10.1
					c2.7-5,7.5-7.4,14.4-7.4c5.4,0,9.6,1.2,12.6,3.6c3,2.4,4.5,5.9,4.5,10.5c0,3.3-0.9,5.9-2.6,8c-1.1,1.3-2.5,2.3-4.2,3
					c2.8,0.8,5,2.2,6.6,4.4s2.4,4.9,2.4,8c0,5.1-1.7,9.2-5,12.4c-3.3,3.2-8.1,4.8-14.2,4.8C869.3,595,864.7,593.3,861.9,589.8z"/>
			</g>
			<circle id="Ellipse_1" class="st2" cx="915.4" cy="579" r="15.8"/>
			<g class="st0">
				<path class="st3" d="M924.9,569c-4.8,0.7-10.2,1-16.3,1.1v1.4h16.3v5.3h-16.3v0.2c-0.1,5.1-1,9.2-2.8,12.3l-1.3-1.3
					c1.5-2.6,2.3-6.3,2.5-11v-8.3c6.3,0,12.1-0.4,17.1-1.2L924.9,569z M909.7,581v-1.5h7c-0.3-0.7-0.6-1.3-0.9-1.8l1.8-0.3
					c0.3,0.6,0.6,1.3,0.9,2.1h7.5v1.5h-10.6c0,0.7-0.1,1.4-0.3,2h9.1c-0.1,3.1-0.3,4.9-0.5,5.5c-0.2,0.5-0.6,0.9-1.2,1.1
					c-0.6,0.2-2,0.3-4,0.3H918l-0.5-1.6c0.5,0,0.9,0,1.4,0c1.3,0,2.1-0.1,2.5-0.2c0.3-0.1,0.6-0.3,0.7-0.6c0.1-0.3,0.2-1.3,0.3-2.9
					h-7.9c-0.9,2.3-2.6,4.1-5.1,5.3l-0.9-1.5c3.1-1.5,4.8-4,5-7.4H909.7z M923.2,575.3V573h-14.6v2.2H923.2z"/>
			</g>
		</g>
	</g>
	<g id="Group_5">
		<g class="st0">
			<path class="st2" d="M455.4,648.3l-2.4,0.6c-0.2-0.6-0.3-1.2-0.5-1.7c-4,0.9-7.7,1.4-11.3,1.7l-0.7-2.4c0.5-0.2,0.9-0.5,1.2-0.8
				c1.4-1.1,3.1-2.8,5-5.2c-2.1,0.2-4.2,0.4-6.3,0.6l-0.6-2.4c0.4-0.2,0.8-0.5,1.1-0.9c1.9-2.3,3.6-4.9,5-7.9l2.7,1.1
				c-1.8,3.2-3.6,5.8-5.4,7.6c1.7-0.1,3.5-0.3,5.3-0.5c1.1-1.5,2.2-3,3.4-4.7l2.6,0.9c-4,5.7-7.4,9.6-10,11.9
				c2.4-0.3,4.9-0.7,7.3-1.2c-0.4-1.2-0.9-2.3-1.3-3.4l2.2-0.7C453.7,643.1,454.7,645.5,455.4,648.3z M443.9,650.5
				c-0.2,2.9-0.7,5.4-1.5,7.6l-2.6-0.9c0.9-2.1,1.4-4.4,1.6-7.1L443.9,650.5z M474.7,620.2v8.9h-32.8v-8.9H474.7z M451.9,622.7h-7v4
				h7V622.7z M449.7,657l-2.6,0.6c-0.3-2.7-0.5-5-0.8-7.1l2.4-0.5C449.1,652.1,449.4,654.5,449.7,657z M455.7,655.4l-2.4,1.1
				c-0.5-2.4-1.1-4.6-1.8-6.4l2.3-0.8C454.5,651.1,455.1,653.2,455.7,655.4z M461.1,658h-2.8v-18.5c-0.9,1.1-2,2.2-3,3.3l-0.9-2.8
				c3-3.1,5.1-6.4,6.3-10l2.7,0.5c-0.5,1.5-1.2,2.9-1.9,4.3h6c-0.4-1.5-0.9-3-1.4-4.2l2.8-0.5c0.5,1.4,0.9,3,1.4,4.7h6.5v2.7h-6.4
				v3.7h5.7v2.5h-5.7v3.6h5.8v2.6h-5.8v3.8h6.9v2.8h-16.3V658z M461.9,622.7h-7.1v4h7.1V622.7z M461.1,637.4v3.7h6.5v-3.7H461.1z
				 M461.1,647.2h6.5v-3.6h-6.5V647.2z M461.1,653.6h6.5v-3.8h-6.5V653.6z M471.8,622.7h-7v4h7V622.7z"/>
			<path class="st2" d="M499.6,622.3v-3.9h3v3.9h17.2v2.9h-17.2v3.9h13.8V645h-10.8c3.2,3.8,8.2,6.7,15,8.8l-1.3,2.8
				c-7.7-3-13.2-6.9-16.4-11.7h-0.3v13.2h-3V645h-0.3c-2.7,4.6-8,8.6-15.9,11.9l-1.7-2.8c7.3-2.7,12.3-5.8,14.9-9.1h-10.9v-15.8
				h13.9v-3.9h-17.2v-2.9H499.6z M499.6,631.9h-10.9v4h10.9V631.9z M488.8,642.2h10.9v-4h-10.9V642.2z M513.4,631.9h-10.8v4h10.8
				V631.9z M502.6,642.2h10.8v-4h-10.8V642.2z"/>
			<path class="st2" d="M526,657.5l-0.6-3c1.2,0.1,2.3,0.2,3.4,0.2c1,0,1.6-0.6,1.6-1.6v-10.7c-1.7,0.7-3.4,1.3-5.1,1.9l-0.8-3.1
				c2-0.5,4-1.2,5.9-1.9v-9.8h-5.3v-3h5.3v-7.8h3.1v7.8h4.6v3h-4.6v8.5c1.5-0.7,2.8-1.5,4.2-2.2v3.1c-1.4,0.8-2.8,1.5-4.2,2.2v12.9
				c0,2.4-1.2,3.6-3.6,3.6H526z M551.8,642.7v3.9h9.4v2.7h-9.4v4.8c1.5,0.2,3.2,0.3,5.1,0.3c2.7,0,5-0.1,6.9-0.2l-0.9,3.1
				c-2.1,0-4,0-5.8-0.1c-5.3,0-8.9-0.6-10.8-1.5c-1.5-0.8-2.9-2.3-4.1-4.5c-1,2.8-2.3,5.1-3.8,6.8l-2.5-1.7
				c2.6-2.8,4.2-6.8,4.9-11.8l2.9,0.4c-0.2,1.2-0.4,2.3-0.6,3.3c1.3,2.6,2.7,4.2,4.4,4.9c0.4,0.2,0.9,0.3,1.4,0.5v-10.9h-8.3V640
				h8.3v-3.6h-9.7v-2.7h9.7v-3.6h-8v-2.7h8v-3.2h-10v-2.7h10v-3h3v3h10.9v2.7h-10.9v3.2h8.5v6.2h2.8v2.7h-2.8v6.3H551.8z
				 M551.8,633.7h5.7v-3.6h-5.7V633.7z M551.8,636.4v3.6h5.7v-3.6H551.8z"/>
			<path class="st2" d="M577.8,629.3v2.4c-1.5,2.5-3.3,5-5.2,7.4h5.7v2.1c-0.6,3.4-1.4,6.3-2.4,8.6c0.3,0.2,0.7,0.5,1.1,0.8
				c1.4,1.2,2.7,2.2,4.2,2.8c1.4,0.5,3.4,0.8,5.8,0.9c2.4,0,5.1,0,8.1,0c3,0,6.8-0.1,11.6-0.3l-0.7,3h-10.5c-3.3,0-6.2,0-8.7-0.1
				c-3-0.1-5.2-0.4-6.8-1.1c-1.8-0.7-3.4-1.8-4.9-3.3c-0.3-0.3-0.7-0.4-1.1-0.4c-1,0-2.5,1.9-4.4,5.7l-2.3-2c2-3.9,3.9-6,5.7-6.5
				c0.9-2.2,1.7-4.8,2.2-7.6h-6.4v-2.4c2.1-2.4,4-4.9,5.5-7.3H568v-2.8H577.8z M577.6,625.1l-2,2c-1.6-1.9-3.8-4-6.6-6.2l2-1.9
				C573.6,621,575.8,623.1,577.6,625.1z M605.2,626.9H603v1.6h-8.8v2.5h9.1v12.6h-9.1v2.7h11.5v2.6h-11.5v4.3h-3V649h-11.5v-2.6
				h11.5v-2.7H582v-12.6h9.2v-2.5h-8.8v-1.5H580v-6.8h25.2V626.9z M591.2,626.1v-3.3h-8.2v3.3H591.2z M591.2,636.3v-2.8H585v2.8
				H591.2z M591.2,638.6H585v2.8h6.2V638.6z M594.2,626.1h8.1v-3.3h-8.1V626.1z M594.2,636.3h6.2v-2.8h-6.2V636.3z M600.3,638.6
				h-6.2v2.8h6.2V638.6z"/>
			<path class="st2" d="M627.1,651.5c-4.9,1.4-10.1,2.6-15.8,3.5l-0.7-3c3.2-0.4,6.3-1,9.3-1.7c1.4-6.1,2.3-12.6,2.9-19.5l3,0.4
				c-0.7,6.6-1.7,12.7-3,18.3c1.5-0.4,2.9-0.8,4.3-1.2V651.5z M617.9,625.7c-0.5-2.3-1.2-4.4-1.8-6.3l3.1-0.5c0.6,2,1.2,4.3,1.7,6.8
				h7v3h-16.9v-3H617.9z M617.6,648.5l-2.6,0.6c-0.8-5.9-1.8-11.6-2.9-17l2.7-0.9C615.8,636.3,616.8,642,617.6,648.5z M638.4,618.5
				v7.6h10.8v3h-10.8v8.4h8.7v20.2h-3v-2.8H632v2.9h-3v-20.3h6.2v-18.9H638.4z M644.1,652v-11.8H632V652H644.1z"/>
			<path class="st2" d="M671.3,638.9c-0.6-1.4-1.2-2.7-1.8-3.8l3.1-0.5c0.6,1.3,1.2,2.7,1.8,4.3h17.2v2.8h-22.4
				c-0.1,1.3-0.3,2.6-0.7,3.8h17.4c0,6.1-0.7,9.7-2.2,10.8c-0.6,0.4-1.5,0.8-2.7,0.9c-1,0.1-2.1,0.2-3.1,0.2H673l-0.9-2.8
				c2.2,0,4.3,0,6.2,0c1.5,0,2.6-0.3,3.2-0.6c0.7-0.5,1.1-2.4,1.2-5.8h-15.3c-2.2,4.2-6.2,7.4-12,9.8l-1.8-2.7
				c7.8-2.8,11.9-7.3,12.5-13.5h-12v-2.8H671.3z M672,622.2c-0.4-1.3-0.9-2.4-1.4-3.6l3.1-0.5c0.5,1.2,0.9,2.6,1.4,4.1h14.7v2.8
				h-7.3c-0.5,1.7-1.1,3.4-1.8,5h9.2v6.7h-3v-3.9H659v3.9h-3v-6.7h8.8c-0.6-1.8-1.2-3.5-1.8-5h-7v-2.8H672z M679.3,625.1h-13
				c0.5,1.5,1,3.2,1.5,5h9.5C678.2,628.5,678.9,626.8,679.3,625.1z"/>
			<path class="st2" d="M717.8,636.3c0.5,0.5,0.8,1.1,0.8,1.9c0,0.7-0.3,1.4-0.8,1.9c-0.5,0.5-1.2,0.7-1.9,0.7
				c-0.8,0-1.4-0.3-1.9-0.7c-0.5-0.5-0.7-1.2-0.7-1.9c0-0.8,0.2-1.4,0.7-1.9s1.1-0.8,1.9-0.8C716.6,635.6,717.2,635.8,717.8,636.3z"
				/>
			<path class="st2" d="M761.6,653.9c-6.6,1.4-13.7,2.6-21.4,3.5l-0.7-3c3.4-0.4,6.8-0.8,10.1-1.3V645h-8.4v-3h8.4v-5h3.1v5h7.7v3
				h-7.7v7.6c3-0.5,6-1.1,8.9-1.8V653.9z M761.4,620.5v2.9h-11c-2.1,4.3-4,7.5-5.8,9.7c4.3-0.4,8.3-0.9,12.2-1.6
				c-0.9-1.5-2-3.1-3.2-4.7l2.4-1.5c2.9,3.9,5.1,7.3,6.6,10.1l-2.6,1.8c-0.6-1.1-1.2-2.2-1.8-3.4c-5.4,0.9-11.4,1.8-17.8,2.4
				l-0.7-2.8c0.5-0.1,0.9-0.2,1.2-0.3c1.8-1.5,3.9-4.8,6.3-9.7h-7v-2.9H761.4z M768,622.6v26.6h-3v-26.6H768z M766.5,657.6l-0.7-3
				c2.1,0.1,4,0.2,5.9,0.2c1.2,0,1.8-0.6,1.8-1.9v-34.1h3.1v34.9c0,2.6-1.3,4-3.9,4H766.5z"/>
			<path class="st2" d="M798.9,651.5c-4.9,1.4-10.1,2.6-15.8,3.5l-0.7-3c3.2-0.4,6.3-1,9.3-1.7c1.4-6.1,2.3-12.6,2.9-19.5l3,0.4
				c-0.7,6.6-1.7,12.7-3,18.3c1.5-0.4,2.9-0.8,4.3-1.2V651.5z M789.6,625.7c-0.5-2.3-1.2-4.4-1.8-6.3l3.1-0.5c0.6,2,1.2,4.3,1.7,6.8
				h7v3h-16.9v-3H789.6z M789.4,648.5l-2.6,0.6c-0.8-5.9-1.8-11.6-2.9-17l2.7-0.9C787.6,636.3,788.6,642,789.4,648.5z M810.2,618.5
				v7.6H821v3h-10.8v8.4h8.7v20.2h-3v-2.8h-12.1v2.9h-3v-20.3h6.2v-18.9H810.2z M815.9,652v-11.8h-12.1V652H815.9z"/>
			<path class="st2" d="M826,653.7c0.9-0.3,1.4-0.9,1.4-1.6v-31.8h16.2v20h-13.1v12.4c3.8-1.1,7.1-2.2,10.1-3.4
				c-0.9-1.5-1.8-3-2.7-4.5l2.4-1.5c2.7,4.2,4.8,7.8,6.2,10.9l-2.4,1.7c-0.6-1.3-1.3-2.7-2.1-4.1c-4.3,1.8-9.3,3.4-14.9,4.8
				L826,653.7z M840.7,623.1h-10.2v5.6h10.2V623.1z M830.5,637.4h10.2v-5.9h-10.2V637.4z M854.9,652l-0.8-3l3.7,0.1
				c1.2,0,1.8-0.6,1.8-1.8v-24.1h-7.8v34.6h-3.1v-37.5h14v27.7c0,2.7-1.3,4-3.9,4H854.9z"/>
			<path class="st2" d="M890.4,653.9c-6.6,1.4-13.7,2.6-21.4,3.5l-0.7-3c3.4-0.4,6.8-0.8,10.1-1.3V645H870v-3h8.4v-5h3.1v5h7.7v3
				h-7.7v7.6c3-0.5,6-1.1,8.9-1.8V653.9z M890.3,620.5v2.9h-11c-2.1,4.3-4,7.5-5.8,9.7c4.3-0.4,8.3-0.9,12.2-1.6
				c-0.9-1.5-2-3.1-3.2-4.7l2.4-1.5c2.9,3.9,5.1,7.3,6.6,10.1l-2.6,1.8c-0.6-1.1-1.2-2.2-1.8-3.4c-5.4,0.9-11.4,1.8-17.8,2.4
				l-0.7-2.8c0.5-0.1,0.9-0.2,1.2-0.3c1.8-1.5,3.9-4.8,6.3-9.7h-7v-2.9H890.3z M896.8,622.6v26.6h-3v-26.6H896.8z M895.3,657.6
				l-0.7-3c2.1,0.1,4,0.2,5.9,0.2c1.2,0,1.8-0.6,1.8-1.9v-34.1h3.1v34.9c0,2.6-1.3,4-3.9,4H895.3z"/>
			<path class="st2" d="M943.5,629.4v2.9h-9.8c-1.2,0.9-2.4,1.6-3.6,2.3c1.7,1.8,3,3.9,4,6.1c3.7-1.4,7.1-3.6,10.4-6.7l2.1,2.1
				c-3.1,2.8-6.6,5-10.4,6.5c3.5,4,8.1,7.3,13.7,9.9l-1.6,2.8c-5.3-2.8-9.6-6.1-12.9-9.9c0.2,1.1,0.3,2.2,0.3,3.4
				c0,3.4-0.5,5.7-1.4,7c-1,1.5-3.4,2.2-7.1,2.2h-1.4l-1-2.7h2c2.6,0,4.2-0.4,4.8-1.1c0.8-0.9,1.2-2.7,1.2-5.3
				c0-0.8-0.1-1.5-0.2-2.2c-4.8,3.8-11.1,6.8-18.9,9.2l-1.5-2.7c8.5-2.5,15.2-5.6,19.8-9.4c-0.3-1.2-0.7-2.2-1.2-3.3
				c-4.1,3.2-9.6,5.8-16.5,7.7l-1.5-2.7c7.2-1.9,12.8-4.3,16.8-7.3c-0.5-0.8-1.1-1.5-1.7-2.2c-0.3,0.2-0.7,0.3-1,0.5
				c-3,1.4-6.9,2.8-11.7,4.1l-1.6-2.5c4.1-0.9,7.9-2.1,11.1-3.5c1.5-0.7,3-1.4,4.5-2.1h-11.4v-2.9H943.5z M932.6,622.4h16.2v7.5h-3
				v-4.6h-30.2v4.6h-3v-7.5h17c-0.5-1.3-1-2.5-1.5-3.5l3.2-0.5C931.6,619.5,932.1,620.9,932.6,622.4z"/>
		</g>
		<line id="Line_1" class="st4" x1="962.2" y1="615.5" x2="962.2" y2="660.1"/>
		<line id="Line_2" class="st4" x1="427" y1="615.5" x2="427" y2="660.1"/>
	</g>
</g>
</svg>
