<?xml version="1.0" encoding="utf-8"?>
<!-- Generator: Adobe Illustrator 24.0.3, SVG Export Plug-In . SVG Version: 6.00 Build 0)  -->
<svg version="1.1" id="menu_toggle" xmlns="http://www.w3.org/2000/svg" xmlns:xlink="http://www.w3.org/1999/xlink" x="0px"
	 y="0px" viewBox="0 0 36.5 32.9" style="enable-background:new 0 0 36.5 32.9;" xml:space="preserve">
<style type="text/css">
	.st0{fill:#FFFFFF;}
</style>
<g id="Group_25" transform="translate(-1805.492 -1311.08)">
	<path id="Path_185" class="st0" d="M1840.4,1314.3h-33.3c-0.9,0-1.6-0.7-1.6-1.6l0,0c0-0.9,0.7-1.6,1.6-1.6h33.3
		c0.9,0,1.6,0.7,1.6,1.6l0,0C1842,1313.6,1841.3,1314.3,1840.4,1314.3z"/>
	<path id="Path_186" class="st0" d="M1840.4,1329h-33.3c-0.9,0-1.6-0.7-1.6-1.6l0,0c0-0.9,0.7-1.6,1.6-1.6h33.3
		c0.9,0,1.6,0.7,1.6,1.6l0,0C1842,1328.3,1841.3,1329,1840.4,1329z"/>
	<path id="Path_187" class="st0" d="M1840.4,1344h-33.3c-0.9,0-1.6-0.7-1.6-1.6l0,0c0-0.9,0.7-1.6,1.6-1.6h33.3
		c0.9,0,1.6,0.7,1.6,1.6l0,0C1842,1343.2,1841.3,1344,1840.4,1344z"/>
</g>
</svg>
