<svg xmlns="http://www.w3.org/2000/svg" width="463.751" height="217.948" viewBox="0 0 463.751 217.948">
  <g id="section8_title_en" transform="translate(-257.207 -13698.67)">
    <path id="Path_8222" data-name="Path 8222" d="M310.694,13702.918l4.247,11.162-.728.122q0-.06-3.367-3.579a23.215,23.215,0,0,0-17.5-7.342q-9.162,0-14.53,5.249a17.049,17.049,0,0,0-5.369,12.649,14.8,14.8,0,0,0,2.518,8.584q2.516,3.672,10.519,6.847,13.76,4.642,18.832,6.976a28.969,28.969,0,0,1,9.776,7.908q4.707,5.578,4.707,14.3a27.788,27.788,0,0,1-.85,6.941,23.156,23.156,0,0,1-2.73,6.363,27.709,27.709,0,0,1-4.52,5.576,20.97,20.97,0,0,1-5.369,3.818,28.832,28.832,0,0,1-8.615,1.969q-5.886.668-7.766.667H266.1v-25.967h.91q.12,12.924,6.067,18.019t18.5,5.1q11.406,0,17.321-5.4a16.966,16.966,0,0,0,5.916-12.982,14.36,14.36,0,0,0-2.063-7.857,19.387,19.387,0,0,0-5.764-5.7q-3.7-2.458-14.007-6-10.246-3.6-14.407-6.3a20.6,20.6,0,0,1-6.953-8.124,23.9,23.9,0,0,1-2.794-11.062,23.463,23.463,0,0,1,7.129-17.4q7.127-7.03,18.716-7.032a50.338,50.338,0,0,1,9.707,1.031,47.485,47.485,0,0,1,5.825,1.336A1.07,1.07,0,0,0,310.694,13702.918Z" fill="#fff"/>
    <path id="Path_8223" data-name="Path 8223" d="M421.494,13701.765H435.6v.91q-7.15.365-7.152,7.468a33.114,33.114,0,0,0,.364,4.188l9.4,67.7q.848,5.061,1.911,6.474t4.4,1.717v.91H424.438v-.91q4.016.122,4.016-3.856a32.509,32.509,0,0,0-.364-3.556l-9.172-65.635-32.035,73.957h-.606l-32.216-73.835L345,13783.3a21.689,21.689,0,0,0-.243,3.431q0,3.488,4.088,3.488v.91h-13.65v-.91q3.093,0,3.974-.759a4.954,4.954,0,0,0,1.364-2.426,23.005,23.005,0,0,0,.728-3.732l10.22-72.192q-2.493-6.009-4.988-7.224a10.979,10.979,0,0,0-4.807-1.214v-.91h16.853l31.429,73.1Z" fill="#fff"/>
    <path id="Path_8224" data-name="Path 8224" d="M509.381,13750H483.154l-13.528,33.733a19.561,19.561,0,0,0-1.4,4.488q0,2,2.973,2v.91H457.916v-.91a7.5,7.5,0,0,0,4.485-1.3q1.816-1.307,4-6.769l32.393-81.72h1.6l31.863,78.922q0,.609,2.45,5.738t7.475,5.132v.91H521.316v-.91q2.85,0,2.852-2.245a14.669,14.669,0,0,0-1.4-4.854,2.01,2.01,0,0,1-.425-.789q-.121-.6-.181-.605Zm-25.37-2.488h24.171l-12.074-30.456Z" fill="#fff"/>
    <path id="Path_8225" data-name="Path 8225" d="M560.073,13702.675v-.91h25.36q9.647,0,13.954.427a23.83,23.83,0,0,1,8.827,2.822,16.451,16.451,0,0,1,6.826,6.5,20.228,20.228,0,0,1,2.3,10.049,23.064,23.064,0,0,1-4.095,12.964,33.345,33.345,0,0,1-11.559,10.412l6.31,9.7q2.063,3.639,10.952,15.943t13.742,15a19.31,19.31,0,0,0,9.4,2.7q4.488,0,10.314-3.458l.364,1.212q-7.275,5.947-18.911,5.947a20.311,20.311,0,0,1-13.335-4.594q-5.577-4.594-19.413-25.207a.342.342,0,0,1-.121-.241l-8.982-13.823-7.963.243h-7.234v34.168q0,4.121,1.082,5.907t5.228,1.786v.91H560.073v-.91q4.306-.182,5.369-1.816t1.061-6.67v-71a15.533,15.533,0,0,0-.909-5.729Q564.684,13702.736,560.073,13702.675Zm16.745,1.456v41.923h9.361q11.063,0,16.413-5.218t5.35-13.711a26.45,26.45,0,0,0-5.259-15.623q-5.259-7.371-18.51-7.371Z" fill="#fff"/>
    <path id="Path_8226" data-name="Path 8226" d="M720.958,13698.67l-4.247,10.8h-.91a11.214,11.214,0,0,0,.243-2.607,1.7,1.7,0,0,0-1-1.79,9.32,9.32,0,0,0-3.179-.4H688.56v76.451q0,4.73.759,6.456a3.669,3.669,0,0,0,2.062,2.184,13.965,13.965,0,0,0,4.217.454v.91H671.39v-.91q4.551-.3,5.7-1.759t1.154-6.062v-77.725H655.908a15.261,15.261,0,0,0-4.419.4q-1.031.394-1.029,1.971a9.553,9.553,0,0,0,.485,2.427h-.91l-4.247-10.8h.91a5.337,5.337,0,0,0,2.149,2.64,14.213,14.213,0,0,0,4.573.455h59.3a19.779,19.779,0,0,0,5.058-.455,3.65,3.65,0,0,0,2.27-2.64Z" fill="#fff"/>
    <path id="Path_8227" data-name="Path 8227" d="M322.913,13870.629H273.83v34.354a25.023,25.023,0,0,0,.455,6.179,4.587,4.587,0,0,0,1.7,2.242,7.657,7.657,0,0,0,4.338.907v.91H257.207v-.91q6.309.426,6.31-6.123v-71.845q0-6.123-1-7.76t-5.309-1.819v-.909h23.115v.909q-3.822.243-5.157,1.456t-1.335,4.976v34.945h49.083v-31.974q0-5.458-.94-7.431t-5.248-1.973v-.909h22.811v.909a9.674,9.674,0,0,0-4.027.639,3.4,3.4,0,0,0-1.8,1.968q-.48,1.334-.48,6.791v68.571q0,5.275.48,6.577a4.491,4.491,0,0,0,1.683,2.152,7.476,7.476,0,0,0,4.146.849v.91H316.725v-.91q3.7,0,4.944-1.515t1.244-8.179Z" fill="#fff"/>
    <path id="Path_8228" data-name="Path 8228" d="M411.055,13824.52q18.806,0,30.76,11.437t11.952,28.546q0,22.022-13.833,37.069t-36.706,15.047q-18.564,0-30.4-12.135a40.227,40.227,0,0,1-11.83-29.121,54.922,54.922,0,0,1,5.7-23.54,47.828,47.828,0,0,1,17.17-19.688Q395.342,13824.521,411.055,13824.52Zm-.364,87.365a37.359,37.359,0,0,0,18.2-4.943,36.76,36.76,0,0,0,14.135-13.62,34.5,34.5,0,0,0,5.158-17.838,42.191,42.191,0,0,0-6.948-23.6,49.351,49.351,0,0,0-18.018-16.625q-11.073-6.006-20.477-6.006-13.285,0-24.116,10.011a32.494,32.494,0,0,0-10.829,24.874q0,18.99,13.226,33.369T410.691,13911.885Z" fill="#fff"/>
    <path id="Path_8229" data-name="Path 8229" d="M556.86,13825.855h14.108v.909q-7.152.365-7.152,7.469a33.111,33.111,0,0,0,.364,4.188l9.4,67.7q.849,5.061,1.911,6.474t4.4,1.717v.91H559.8v-.91q4.016.122,4.015-3.856a32.484,32.484,0,0,0-.364-3.555l-9.172-65.636-32.034,73.957h-.606l-32.216-73.835-9.064,66.006a21.694,21.694,0,0,0-.243,3.431q0,3.489,4.089,3.488v.91H470.56v-.91q3.093,0,3.973-.759a4.955,4.955,0,0,0,1.366-2.426,23.1,23.1,0,0,0,.727-3.732l10.22-72.192q-2.493-6.009-4.989-7.224a10.978,10.978,0,0,0-4.806-1.214v-.909H493.9l31.429,73.1Z" fill="#fff"/>
    <path id="Path_8230" data-name="Path 8230" d="M597.529,13826.887v-1.031H653.71v12.314h-.91q-1.82-6.854-3.064-8.068t-6.1-1.213H614.153v40.1h27.363q4.063,0,5.156-.759a2.675,2.675,0,0,0,1.153-2.216h.91v8.435h-.91a3.081,3.081,0,0,0-1.426-2.366,9.72,9.72,0,0,0-4.156-.607h-28.09v27.605q0,6.249,1.151,9.009a5.507,5.507,0,0,0,3.666,3.458,30.579,30.579,0,0,0,7.6.7h15.753q7.512,0,9.6-.512a7.11,7.11,0,0,0,3.545-2.049q1.452-1.54,2.241-6.722h.91v12.255h-61.1v-.91a10.128,10.128,0,0,0,4.7-1.183q1.606-1,1.607-5.183V13835.8q0-4.909-.85-6.911T597.529,13826.887Z" fill="#fff"/>
  </g>
</svg>
