<?xml version="1.0" encoding="utf-8"?>
<!-- Generator: Adobe Illustrator 24.0.3, SVG Export Plug-In . SVG Version: 6.00 Build 0)  -->
<svg version="1.1" id="圖層_1" xmlns="http://www.w3.org/2000/svg" xmlns:xlink="http://www.w3.org/1999/xlink" x="0px" y="0px"
	 viewBox="0 0 154 44" style="enable-background:new 0 0 154 44;" xml:space="preserve">
<style type="text/css">
	.st0{fill:#FCFCFC;}
	.st1{fill:#B78E66;}
</style>
<g id="section2_list1" transform="translate(-257 -538.953)">
	<g id="Group_1533" transform="translate(-0.211 -2455.189)">
		<g id="Group_1532">
			<path id="Path_7497" class="st0" d="M315.5,3022.4c0.6,0.1,1.2,0.1,1.8,0.1c0-0.8,0-1.6-0.2-2.5c0.5,0.1,1.2,0.2,2,0.3
				c0.6,0.1,0.9,0.2,0.9,0.3c0,0.2-0.2,0.3-0.5,0.4c-0.3,0.1-0.4,0.2-0.4,0.4v1h1.2c0-0.8-0.1-1.6-0.2-2.4c0.5,0.1,1.2,0.2,2,0.3
				c0.6,0.1,0.9,0.2,0.9,0.3c0,0.2-0.2,0.3-0.5,0.5c-0.3,0.1-0.4,0.2-0.4,0.4v0.9h0.2c0.1-0.1,0.3-0.2,0.4-0.4
				c0.3-0.3,0.4-0.5,0.5-0.5c0.1,0,0.3,0.2,0.6,0.5c0.3,0.3,0.4,0.5,0.4,0.6c0,0.2-0.1,0.3-0.2,0.3h-1.9v2.5h0.4
				c0.1-0.1,0.3-0.3,0.4-0.4c0.3-0.3,0.5-0.5,0.5-0.5c0.1,0,0.4,0.2,0.7,0.5c0.1,0.1,0.2,0.3,0.4,0.4c0.1-0.2,0.1-0.4,0.2-0.6
				c0.3-1.6,0.5-3.1,0.7-4.7c0.7,0.2,1.3,0.4,1.9,0.5c0.6,0.2,0.9,0.4,0.9,0.6c0,0.2-0.2,0.3-0.5,0.4c-0.3,0-0.5,0.1-0.5,0.2
				c-0.2,0.8-0.4,1.6-0.7,2.3h2.2c0,0,0.2-0.2,0.5-0.6c0.5-0.5,0.8-0.8,0.9-0.8c0.1,0,0.5,0.3,1.1,0.9c0.4,0.4,0.6,0.6,0.6,0.7
				c0,0.2-0.1,0.3-0.4,0.3h-1c0,1.6-0.3,3.3-0.7,4.8c-0.3,0.9-0.6,1.7-1.1,2.5c0.1,0.2,0.3,0.3,0.4,0.5c0.8,0.7,1.7,1.3,2.7,1.7
				l-0.1,0.3c-0.5,0.1-1,0.5-1.2,1c-0.2,0.4-0.3,0.7-0.4,0.7c-0.2,0-0.6-0.3-1.2-0.8c-0.5-0.6-1-1.2-1.4-1.8
				c-0.3,0.3-0.6,0.5-0.9,0.7c-1.1,0.8-2.3,1.5-3.5,2l-0.2-0.4c0.8-0.5,1.6-1,2.2-1.7c0.6-0.6,1.1-1.2,1.6-2
				c-0.3-0.7-0.6-1.4-0.7-2.2c-0.2-1-0.4-2.1-0.5-3.2c-0.4,0.9-1,1.7-1.5,2.5l-0.3-0.3c0.1-0.2,0.1-0.3,0.2-0.5c0,0-0.1,0-0.1,0.1
				c-0.3,0.2-0.5,0.4-0.5,0.6v5.3c0,0.6-0.5,1.2-1.1,1.3c-0.4,0.2-0.9,0.3-1.4,0.4c-0.1,0-0.2-0.2-0.3-0.6c-0.1-0.5-0.5-0.9-1.3-1.3
				l0.1-0.4c0.5,0.1,1,0.1,1.5,0.2c0.3,0,0.5-0.1,0.6-0.4c0,0,0-0.1,0-0.1v-1.4h-2.8v3.7c0,0.2-0.3,0.4-0.9,0.5
				c-0.2,0-0.4,0-0.5,0.1c-0.4,0-0.6-0.2-0.6-0.6c0.1-1.3,0.2-2.4,0.2-3.4v-2.7c0-0.9-0.1-1.9-0.2-3.1c0.8,0.2,1.5,0.4,2.2,0.8h2.4
				c0.1-0.1,0.3-0.3,0.4-0.4c0.2-0.2,0.4-0.4,0.7-0.4c0.4,0.1,0.8,0.3,1.2,0.6c0.3,0.2,0.5,0.4,0.7,0.6c0.2-0.6,0.4-1.2,0.5-1.8
				h-6.7c-1,0-1.7,0-2.2,0.1l-0.3-0.7c0.7,0.1,1.3,0.1,2,0.1v-2.5c-0.7,0-1.2,0-1.5,0.1L315.5,3022.4z M318.5,3029.5h2.8v-1.6h-2.8
				L318.5,3029.5z M318.5,3031.6h2.8v-1.6h-2.8L318.5,3031.6z M319.2,3025.5h1.2v-2.5h-1.2V3025.5z M325.9,3025.8
				c0.1,0.6,0.2,1.3,0.4,1.9c0.3,1,0.6,1.9,1.1,2.8c0,0,0,0,0,0.1c0.2-0.5,0.4-1.1,0.5-1.7c0.3-1.3,0.5-2.7,0.5-4.1h-2.1
				C326.2,3025.1,326.1,3025.4,325.9,3025.8L325.9,3025.8z"/>
			<path id="Path_7498" class="st0" d="M342.6,3020c0.6,0.1,1.3,0.2,2.2,0.3c0.7,0.1,1,0.2,1,0.4c0,0.2-0.2,0.4-0.6,0.5
				c-0.2,0-0.4,0.2-0.4,0.5v1.3h2c0.2-0.2,0.4-0.4,0.6-0.6c0.5-0.6,0.8-0.9,0.9-0.9c0.2,0,0.6,0.3,1.3,0.9c0.4,0.4,0.6,0.6,0.6,0.7
				c0,0.2-0.1,0.3-0.4,0.3h-5v2.7h3.3c0.3-0.2,0.5-0.5,0.7-0.8c0.5-0.6,0.8-0.9,0.9-0.9c0.3,0,0.7,0.3,1.2,0.9
				c0.5,0.6,0.8,0.9,0.8,1.1c0,0.2-0.1,0.3-0.4,0.3h-6.5v3.8c0.1,0.8-0.3,1.5-1,1.9c-0.4,0.2-0.9,0.4-1.4,0.4
				c-0.2,0-0.3-0.2-0.4-0.6c-0.2-0.6-0.8-1-2-1.4l0.1-0.3c0.9,0.1,1.6,0.1,2.2,0.1c0.3,0,0.5-0.2,0.6-0.4c0,0,0-0.1,0-0.1v-3.3h-5.1
				c-1,0-1.7,0-2.2,0.1l-0.3-0.7c0.8,0.1,1.6,0.2,2.5,0.1h0.3v-2.4c0-0.5,0-1-0.1-1.5c0.8,0.1,1.5,0.2,2.3,0.3
				c0.5,0,0.7,0.1,0.7,0.3c0,0.1-0.1,0.2-0.4,0.3c-0.3,0.2-0.5,0.3-0.5,0.5v2.5h2.8v-3.4C342.8,3022,342.8,3021,342.6,3020z
				 M338.4,3027.6c0.6,0.2,1.2,0.4,1.7,0.5c0.5,0.2,0.8,0.3,0.8,0.5c0,0.2-0.1,0.3-0.4,0.3s-0.5,0.1-0.5,0.2
				c-0.5,0.7-1.1,1.3-1.8,1.7c-0.8,0.6-1.6,1-2.5,1.4l-0.3-0.3c0.7-0.6,1.3-1.3,1.9-2.1C337.8,3029.2,338.1,3028.4,338.4,3027.6
				L338.4,3027.6z M348.7,3028.4c0.7,0.4,1.1,0.6,1.4,0.8c0.7,0.4,1,0.7,1,0.8c0,0.2-0.1,0.2-0.4,0.3c-0.3,0-0.5,0.1-0.5,0.2
				c-1.4,1.2-2.9,2.2-4.5,3.1c-1.4,0.7-2.9,1.2-4.3,1.6c-1.8,0.5-3.6,0.9-5.6,1.2l-0.2-0.3c2.2-0.6,4.4-1.3,6.5-2.2
				c1.2-0.6,2.4-1.3,3.5-2.1C346.8,3030.8,347.8,3029.7,348.7,3028.4L348.7,3028.4z"/>
			<path id="Path_7499" class="st0" d="M358,3023.7c0.8,0.2,1.5,0.4,2.1,0.6c0.8,0.2,1.1,0.4,1.1,0.6c0,0.2-0.2,0.3-0.6,0.4
				c-0.2,0-0.4,0.1-0.6,0.2c-0.4,1.4-1,2.8-1.7,4.1c-0.7,1.4-1.6,2.7-2.7,3.8l-0.2-0.4c0.6-1.3,1.1-2.7,1.5-4.1
				C357.3,3027.3,357.7,3025.5,358,3023.7z M362.5,3020.1c0.7,0.1,1.3,0.2,2,0.4c0.8,0.1,1.2,0.3,1.2,0.5c0,0.2-0.2,0.4-0.5,0.5
				c-0.3,0.1-0.5,0.2-0.5,0.4v12.3c0.1,0.7-0.3,1.4-0.9,1.7c-0.6,0.4-1.3,0.6-2,0.6c-0.2,0-0.4-0.2-0.4-0.6
				c-0.1-0.6-0.9-1.2-2.3-1.8l0.1-0.4c1,0.2,2.1,0.3,3.1,0.3c0.3,0,0.4-0.1,0.4-0.4V3022C362.6,3021.7,362.6,3021,362.5,3020.1
				L362.5,3020.1z M366.8,3023.8c1.3,1.2,2.4,2.5,3.3,4c0.5,0.9,0.8,2,0.9,3.1c0,0.4-0.1,0.9-0.4,1.2c-0.2,0.3-0.5,0.5-0.9,0.5
				c-0.3,0-0.5-0.1-0.6-0.4c-0.3-0.8-0.5-1.6-0.6-2.5c-0.4-2-1-3.9-2-5.8L366.8,3023.8z"/>
			<path id="Path_7500" class="st0" d="M375.4,3022.2c0.8,0.1,1.6,0.1,2.5,0.1h4.3c0-0.8-0.1-1.5-0.1-2.2c0.6,0.1,1.3,0.2,2.2,0.3
				c0.6,0.1,0.9,0.2,0.9,0.4c0,0.2-0.2,0.3-0.6,0.4c-0.3,0.1-0.4,0.2-0.4,0.4v0.7h3.7c0.2-0.2,0.4-0.5,0.6-0.8
				c0.4-0.6,0.7-0.8,0.8-0.8c0.2,0,0.6,0.3,1.1,0.8c0.5,0.5,0.8,0.9,0.8,1c0,0.2-0.1,0.3-0.4,0.3h-6.6v1.8h2.4
				c0.3-0.3,0.5-0.6,0.8-0.9c0.1-0.2,0.3-0.3,0.5-0.3c0.4,0.1,0.7,0.3,1.1,0.5c0.7,0.4,1,0.7,1,0.9c0,0.2-0.1,0.4-0.4,0.5
				c-0.2,0.1-0.3,0.3-0.3,0.5v2.2c0,0.6,0,1.3,0.1,2.3c0,0.2-0.3,0.4-0.9,0.5c-0.2,0-0.4,0-0.6,0.1c-0.3,0-0.5-0.2-0.5-0.6v-0.4
				h-2.7c1,0.9,2.1,1.6,3.3,2.2c1.2,0.5,2.5,0.9,3.8,1.2l-0.1,0.4c-0.5,0.2-0.9,0.5-1,1c-0.1,0.4-0.3,0.6-0.4,0.6
				c-0.6-0.2-1.2-0.4-1.7-0.8c-0.9-0.5-1.8-1.2-2.5-2c-0.6-0.6-1.2-1.3-1.7-2.1v2.1c0,1.1,0,2.2,0.1,3.2c0,0.2-0.3,0.4-0.9,0.5
				c-0.2,0-0.4,0-0.6,0.1c-0.4,0-0.6-0.2-0.6-0.6c0.1-1.2,0.2-2.2,0.2-3.2v-1.1c-0.4,0.4-0.8,0.8-1.2,1.2c-0.8,0.6-1.7,1.2-2.6,1.6
				c-1,0.5-2.1,0.9-3.3,1.2l-0.1-0.3c1.3-0.6,2.4-1.3,3.5-2.2c1-0.9,1.9-1.9,2.6-3.1h-1.8v0.5c0,0.2-0.3,0.4-0.9,0.5
				c-0.2,0-0.4,0-0.6,0.1c-0.3,0-0.5-0.2-0.6-0.4c0,0,0-0.1,0-0.1c0-0.6,0.1-1.3,0.1-1.9v-2.3c0-0.9,0-1.8-0.1-2.6
				c0.9,0.2,1.7,0.5,2.5,0.9h2.5v-1.8h-4.3c-1,0-1.8,0-2.2,0.1L375.4,3022.2z M379.2,3027.1h3v-1.9h-3V3027.1z M379.2,3029.5h3v-2
				h-3V3029.5z M384.1,3025.1v2h3v-1.9L384.1,3025.1z M384.1,3027.6v2h3v-2H384.1z"/>
			<path id="Path_7501" class="st0" d="M401.8,3020c0.8,0.1,1.6,0.2,2.4,0.3c0.5,0,0.7,0.1,0.7,0.4c0,0.1-0.1,0.2-0.4,0.3
				c-0.3,0.1-0.5,0.3-0.5,0.5v1.1h3.4c0.3-0.2,0.5-0.5,0.7-0.8c0.5-0.6,0.8-0.9,0.9-0.9c0.2,0,0.6,0.3,1.2,0.9
				c0.6,0.6,0.8,1,0.8,1.1c0,0.2-0.1,0.3-0.4,0.3h-12.9c-0.8,0-1.6,0-2.4,0.1l-0.3-0.8c1,0.1,2,0.2,3,0.2h4v-1
				C402,3021.1,401.9,3020.6,401.8,3020z M398.6,3030.3c0.6,0.3,1,0.6,1.4,0.8c0.5,0.3,0.8,0.5,0.8,0.7c0,0.2-0.1,0.2-0.4,0.2
				c-0.3,0-0.5,0.1-0.6,0.2c-0.5,0.5-1,1-1.5,1.5c-0.9,0.7-1.9,1.2-2.9,1.6l-0.1-0.3c0.7-0.6,1.4-1.4,1.9-2.1
				C397.8,3032.1,398.3,3031.2,398.6,3030.3z M397.5,3024.2c0.8,0.2,1.6,0.5,2.4,0.8h6.1c0.3-0.3,0.5-0.6,0.8-0.8
				c0.1-0.2,0.3-0.3,0.5-0.3c0.4,0.1,0.7,0.3,1.1,0.5c0.6,0.4,1,0.7,1,0.9c0,0.2-0.1,0.4-0.4,0.5c-0.2,0.1-0.3,0.3-0.3,0.5v0.8
				c0,0.6,0,1.3,0.1,2.3c0,0.2-0.3,0.4-0.9,0.5c-0.2,0-0.4,0-0.6,0.1c-0.3,0-0.5-0.2-0.5-0.5v-0.4h-2.4v4.9c0.1,0.8-0.3,1.6-1,1.9
				c-0.4,0.3-0.9,0.4-1.4,0.5c-0.2,0-0.3-0.2-0.4-0.6c-0.2-0.6-0.8-1.1-2-1.5l0.1-0.3c0.7,0.1,1.4,0.1,2.1,0.1
				c0.3,0,0.5-0.2,0.6-0.4c0,0,0-0.1,0-0.1v-4.4h-2.6v0.4c0,0.2-0.3,0.4-0.9,0.5c-0.2,0-0.4,0-0.6,0.1c-0.3,0-0.5-0.1-0.6-0.4
				c0,0,0-0.1,0-0.1c0-0.6,0.1-1.3,0.1-1.9v-0.8C397.7,3025.9,397.6,3025.1,397.5,3024.2L397.5,3024.2z M399.6,3028.7h7v-3.2h-7
				V3028.7z M405.8,3030.6c1.1,0.3,2.2,0.7,3.3,1.2c1.1,0.6,1.7,1.2,1.7,1.8c0,0.4-0.1,0.7-0.3,1c-0.2,0.3-0.6,0.4-0.9,0.5
				c-0.3,0-0.5-0.2-0.8-0.6c-0.4-0.7-0.9-1.4-1.4-2c-0.5-0.6-1.1-1.1-1.8-1.6L405.8,3030.6z"/>
		</g>
	</g>
	<g id="Group_1534" transform="translate(0.445 -2455.189)">
		<path id="Path_7502" class="st1" d="M318.1,3012.1c0-0.8,0-2.5-0.1-2.7c-1-0.1-2,0.1-2.9,0.5c-0.1,0.3-0.2,0.7-0.2,1l-0.3,0.1
			c0-0.5,0.2-1.9,0.2-2.8l0.3,0c0,0.1,0,0.5,0.1,0.7c0.2,0,2.1,0.1,3.6,0.1c1.6,0,3.5-0.1,3.7-0.1c0-0.1,0.1-0.5,0.2-0.7l0.3,0
			c-0.1,0.3-0.3,2.5-0.4,2.9l-0.3-0.1c0-0.4,0-0.9,0-1.1c-0.9-0.3-1.9-0.5-2.9-0.5c0,0.3-0.1,1.9-0.1,2.7v0.5c0,1,0,2.9,0.1,3.7
			c0.2,0,1.2,0.1,1.4,0.2l0,0.2c-0.3,0-1.6,0-2.2,0c-0.5,0-1.8,0-2.2,0l0.1-0.2c0.3,0,1.2-0.1,1.4-0.2c0-0.9,0.1-2.8,0.1-3.7
			L318.1,3012.1z"/>
		<path id="Path_7503" class="st1" d="M328.4,3016.5c0.4,0,0.8-0.1,1.1-0.2c-0.2-0.6-1-2.9-1.2-3.3c-0.4,0-2.2,0.1-2.6,0.1
			c-0.3,1-0.6,2.1-0.8,3.1c0.3,0.1,0.6,0.1,1,0.2l0,0.2c-0.3,0-1.4,0-1.7,0c-0.3,0-1,0-1.3,0l0-0.2c0.3,0,0.6-0.1,1-0.2
			c0.4-0.7,2.6-6.7,2.8-7.1c-0.3-0.1-0.6-0.1-0.9-0.1l0-0.2c0.3,0,1.3,0,1.4,0c0.5,0,1.6,0,1.9,0l0,0.2c-0.3,0-0.6,0.1-0.8,0.1
			c0.1,0.5,0.7,2.2,1.2,3.4c0.4,1.3,0.9,2.5,1.5,3.7c0.3,0.1,0.6,0.1,1,0.2l0,0.2c-0.1,0-1.3,0-1.8,0c-0.3,0-1.6,0-1.9,0
			L328.4,3016.5z M327.1,3009.4L327.1,3009.4c-0.4,1-1.1,2.9-1.2,3.3l2.3,0C328,3012,327.3,3010,327.1,3009.4L327.1,3009.4z"/>
		<path id="Path_7504" class="st1" d="M334.5,3012.1c0-1,0-2.6-0.1-2.9c-0.3,0-0.9-0.1-1.2-0.2l0-0.2c0.2,0,1.5,0,2,0
			c0.4,0,1.6,0,1.8,0l0,0.2c-0.1,0-0.9,0.1-1.1,0.2c0,0.4-0.1,2.1-0.1,3v0.3c1.3-1,2.4-2.1,3.6-3.3c-0.3-0.1-0.5-0.1-0.8-0.2l0-0.2
			c0.5,0,1.3,0,1.7,0c0.3,0,0.8,0,1.2,0l-0.1,0.2c-0.2,0-0.5,0.1-0.7,0.1c-1,0.7-2,1.6-3,2.4c0.4,0.7,3.6,4.7,4.2,5.2l-0.4,0.1
			c-0.9-0.3-4.6-4.2-4.9-4.5c-0.2,0.2-0.6,0.4-0.7,0.6v0.3c0,1,0,2.5,0.1,2.9c0.4,0.1,0.8,0.2,1.3,0.2l0,0.2c-0.2,0-1.4,0-2,0
			c-0.5,0-1.6,0-1.9,0l0-0.2c0.4,0,0.8-0.1,1.2-0.2c0-0.5,0.1-2,0.1-3.6L334.5,3012.1z"/>
		<path id="Path_7505" class="st1" d="M344.5,3012.4c0-1,0-2.8-0.1-3.1c-0.2,0-0.9-0.1-1.2-0.2l0-0.2c0.3,0,0.6,0,1,0s0.7,0,1,0
			c0.4,0,3,0,3.3-0.1c0-0.2,0.1-0.3,0.1-0.5l0.3,0c-0.1,0.2-0.2,2-0.2,2.3l-0.2-0.1c0-0.1,0-0.6,0-0.8c-0.2-0.3-1.9-0.5-2.5-0.5
			c0,0.2-0.1,2.3-0.1,3v0.2c0.8,0,1.5,0,2.3-0.2c0.1-0.2,0.1-0.3,0.1-0.5l0.2,0c0,0.2-0.2,1.7-0.3,2.1l-0.2-0.1c0-0.2,0-0.5,0-0.7
			c-0.7-0.2-1.4-0.3-2.2-0.2v0.2c0,0.7,0,3.1,0.1,3.4c0.9,0.1,1.8-0.1,2.7-0.4c0.1-0.4,0.2-0.7,0.2-1l0.3-0.1
			c-0.1,0.3-0.3,2-0.4,2.6l-0.2,0c0-0.3,0-0.5,0-0.7c-0.3-0.1-2.8-0.1-3.5-0.1c-0.4,0-1.3,0-1.7,0l0.1-0.2c0.4,0,0.8-0.1,1.1-0.2
			c0-0.2,0.1-2.2,0.1-3.5L344.5,3012.4z"/>
		<path id="Path_7506" class="st1" d="M359.6,3016.5c0.4,0,0.8-0.1,1.1-0.2c-0.2-0.6-1-2.9-1.2-3.3c-0.4,0-2.2,0.1-2.6,0.1
			c-0.3,1-0.6,2.1-0.8,3.1c0.3,0.1,0.6,0.1,1,0.2l0,0.2c-0.3,0-1.4,0-1.7,0c-0.3,0-1,0-1.3,0l0-0.2c0.3,0,0.6-0.1,1-0.2
			c0.4-0.7,2.6-6.7,2.8-7.1c-0.3-0.1-0.6-0.1-0.9-0.1l0-0.2c0.3,0,1.3,0,1.4,0c0.5,0,1.6,0,1.9,0l0,0.2c-0.3,0-0.6,0.1-0.8,0.1
			c0.1,0.5,0.7,2.2,1.2,3.4c0.4,1.3,0.9,2.5,1.5,3.7c0.3,0.1,0.6,0.1,1,0.2l0,0.2c-0.1,0-1.3,0-1.8,0c-0.3,0-1.6,0-1.9,0
			L359.6,3016.5z M358.3,3009.4L358.3,3009.4c-0.4,1-1.1,2.9-1.2,3.3l2.3,0C359.2,3012,358.5,3010,358.3,3009.4L358.3,3009.4z"/>
		<path id="Path_7507" class="st1" d="M367.5,3008.9c0.3,0,0.8,0,1.6,0c0.9,0,1.5,0,1.8,0l-0.1,0.2c-0.2,0-0.7,0.1-1,0.2
			c0.1,0.5,1.3,5.2,1.5,5.7h0c0.1-0.4,1.7-4.3,2-5.4c-0.3-0.1-0.9-0.1-1.1-0.2l-0.1-0.2c0.4,0,0.9,0,1.6,0c0.7,0,1.3,0,1.6,0l0,0.2
			c-0.3,0-0.6,0.1-0.9,0.2c0.2,0.6,1.7,4.5,2,5.4h0c0.6-1.9,1.1-3.8,1.5-5.7c-0.3-0.1-0.7-0.1-1-0.2l-0.1-0.2c0.2,0,0.8,0,1.5,0
			c0.6,0,1.1,0,1.4,0l0,0.2c-0.2,0-0.5,0.1-0.7,0.2c-0.3,0.3-2.8,7.6-2.9,8c-0.3-0.6-2.3-5.7-2.7-6.6c-0.4,1-2.1,5.3-2.7,6.6
			c-0.4-0.9-2-6.7-2.6-8c-0.3-0.1-0.5-0.1-0.8-0.2L367.5,3008.9z"/>
		<path id="Path_7508" class="st1" d="M385.3,3016.5c0.4,0,0.8-0.1,1.1-0.2c-0.2-0.6-1-2.9-1.2-3.3c-0.4,0-2.2,0.1-2.6,0.1
			c-0.3,1-0.6,2.1-0.8,3.1c0.3,0.1,0.6,0.1,1,0.2l0,0.2c-0.3,0-1.4,0-1.7,0c-0.3,0-1,0-1.3,0l0-0.2c0.3,0,0.6-0.1,1-0.2
			c0.4-0.7,2.6-6.7,2.8-7.1c-0.3-0.1-0.6-0.1-0.9-0.1l0-0.2c0.3,0,1.3,0,1.4,0c0.5,0,1.6,0,1.9,0l0,0.2c-0.3,0-0.6,0.1-0.8,0.1
			c0.1,0.5,0.7,2.2,1.2,3.4c0.4,1.3,0.9,2.5,1.5,3.7c0.3,0.1,0.6,0.1,1,0.2l0,0.2c-0.1,0-1.3,0-1.8,0c-0.3,0-1.6,0-1.9,0
			L385.3,3016.5z M384.1,3009.4L384.1,3009.4c-0.4,1-1.1,2.9-1.2,3.3l2.3,0C385,3012,384.3,3010,384.1,3009.4z"/>
		<path id="Path_7509" class="st1" d="M391.4,3012c0-0.6,0-2.4-0.1-2.7c-0.2,0-0.9-0.1-1.2-0.2l0-0.2c0.3,0,1.2,0,1.9,0
			c0.7,0,1.8,0,2,0l-0.1,0.2c-0.3,0-0.9,0.1-1.3,0.2c0,0.4-0.1,2-0.1,2.8v0.4c0,1.5,0,3.6,0.1,3.8c0.9,0.1,1.8-0.1,2.7-0.6
			c0.2-0.4,0.3-0.8,0.4-1.3l0.3,0c-0.3,1.2-0.5,2.4-0.6,3.6l-0.3-0.1c0-0.2,0.1-1,0.1-1.3c-0.2,0-2.6-0.1-3.2-0.1
			c-0.6,0-1.6,0-1.9,0l0-0.2c0.4,0,0.8-0.1,1.2-0.2c0-0.5,0.1-2.6,0.1-3.7L391.4,3012z"/>
		<path id="Path_7510" class="st1" d="M399.1,3012.1c0-1,0-2.6-0.1-2.9c-0.3,0-0.9-0.1-1.2-0.2l0-0.2c0.2,0,1.5,0,2,0
			c0.4,0,1.6,0,1.8,0l0,0.2c-0.1,0-0.9,0.1-1.1,0.2c0,0.4-0.1,2.1-0.1,3v0.3c1.3-1,2.4-2.1,3.6-3.3c-0.3-0.1-0.5-0.1-0.8-0.2l0-0.2
			c0.5,0,1.3,0,1.7,0c0.3,0,0.8,0,1.2,0l-0.1,0.2c-0.2,0-0.5,0.1-0.7,0.1c-1,0.7-2,1.6-3,2.4c0.4,0.7,3.6,4.7,4.2,5.2l-0.4,0.1
			c-0.9-0.3-4.6-4.2-4.9-4.5c-0.2,0.2-0.6,0.4-0.7,0.6v0.3c0,1,0,2.5,0.1,2.9c0.4,0.1,0.8,0.2,1.3,0.2l0,0.2c-0.2,0-1.4,0-2,0
			c-0.5,0-1.6,0-1.9,0l0-0.2c0.4,0,0.8-0.1,1.2-0.2c0-0.5,0.1-2,0.1-3.6L399.1,3012.1z"/>
	</g>
	<g id="Group_1545" transform="translate(-0.512 -2455.189)">
		<g id="Group_1544">
			<path id="Path_7549" class="st1" d="M288,2998.8c0-2.4,1.9-4.3,4.3-4.3s4.3,1.9,4.3,4.3s-1.9,4.3-4.3,4.3c0,0,0,0,0,0
				C290,3003.1,288,3001.2,288,2998.8C288,2998.8,288,2998.8,288,2998.8z M296.7,3037.8v-13h5.4l-5.5-16.5c-0.6-1.8-2.3-3-4.1-3
				h-0.3c-1.9,0-3.5,1.2-4.1,3l-1.9,5.6c2.4,1.3,3.9,3.9,3.9,6.6v17.4L296.7,3037.8z M280.4,3015.1c1.8,0,3.3-1.5,3.3-3.3
				s-1.5-3.3-3.3-3.3c-1.8,0-3.3,1.5-3.3,3.3l0,0C277.2,3013.6,278.6,3015.1,280.4,3015.1C280.4,3015.1,280.4,3015.1,280.4,3015.1z
				 M265.3,3003.1c2.4,0,4.3-1.9,4.3-4.3c0-2.4-1.9-4.3-4.3-4.3s-4.3,1.9-4.3,4.3l0,0C260.9,3001.2,262.8,3003.1,265.3,3003.1
				C265.2,3003.1,265.3,3003.1,265.3,3003.1L265.3,3003.1z M269.6,3037.8v-15.2h3.3v-13c0-2.4-1.9-4.3-4.3-4.3H262
				c-2.4,0-4.3,1.9-4.3,4.3v13h3.3v15.2H269.6z M283.7,3037.8v-8.7h2.2v-8.7c0-1.8-1.5-3.2-3.3-3.3h-4.3c-1.8,0-3.2,1.5-3.3,3.3v8.7
				h2.2v8.7H283.7z"/>
		</g>
	</g>
</g>
</svg>
