<svg xmlns="http://www.w3.org/2000/svg" width="351.443" height="29.785" viewBox="0 0 351.443 29.785">
  <g id="section9_formtitle" transform="translate(-973.821 -251.805)">
    <g id="Group_1687" data-name="Group 1687" transform="translate(2.015 -14290.407)">
      <path id="Path_8647" data-name="Path 8647" d="M1249.146,14557.874a19.1,19.1,0,0,0,1.64-2.2h-4.621v-1.841h6.762v1.561a21.191,21.191,0,0,1-2.641,3.741,11.361,11.361,0,0,1,.72.9h2.721v1.26a16.6,16.6,0,0,1-1.061,3.681l-1.639-.66a13.2,13.2,0,0,0,.78-2.36h-1.561v7.762c0,1.26-.6,1.9-1.76,1.9h-1.96l-.421-1.881a12.816,12.816,0,0,0,1.7.12c.3,0,.46-.22.46-.64v-7.262h-2.761v-1.92h3.261c-.721-.82-1.58-1.68-2.541-2.6l1.52-.961C1248.266,14556.954,1248.726,14557.435,1249.146,14557.874Zm8.181-1a8.946,8.946,0,0,0,.38-1.2h-3.921v-1.841h10.023v1.841h-4.041c-.12.4-.24.8-.38,1.2h3.741v11.042h-2.161a22.707,22.707,0,0,1,3.241,2.341l-1.341,1.34a17.08,17.08,0,0,0-3.3-2.62l1.1-1.061h-3.661l1.181,1.041a15.633,15.633,0,0,1-3.881,2.76l-1.141-1.479a14.43,14.43,0,0,0,3.562-2.321h-2.221v-11.042Zm3.822,3.1v-1.42h-4.682v1.42Zm0,3.1v-1.5h-4.682v1.5Zm0,1.6h-4.682v1.561h4.682Z" fill="#fff"/>
      <path id="Path_8648" data-name="Path 8648" d="M1268.245,14566.756a24.634,24.634,0,0,1-.74,4.821l-1.76-.561a19.072,19.072,0,0,0,.8-4.48Zm5.682-1.54-1.761.42c-.08-.279-.139-.56-.2-.8a35.109,35.109,0,0,1-5.48,1l-.521-1.82a2.853,2.853,0,0,0,.9-.54,18.3,18.3,0,0,0,2.381-2.94c-.961.1-1.94.22-2.961.34l-.48-1.78a2.12,2.12,0,0,0,.82-.721,32.888,32.888,0,0,0,2.641-5.241l1.94.761a26.41,26.41,0,0,1-3.02,5.081c.74-.08,1.48-.16,2.24-.28.46-.76.96-1.6,1.48-2.48l1.8.7a48.811,48.811,0,0,1-4.821,6.861q1.32-.24,2.641-.54c-.161-.561-.34-1.08-.54-1.6l1.66-.54A29.759,29.759,0,0,1,1273.927,14565.216Zm-2.521,5.441-1.82.439c-.16-1.64-.34-3.1-.56-4.36l1.68-.36C1270.966,14567.7,1271.206,14569.116,1271.406,14570.657Zm2.781-1.36-1.62.72a30.67,30.67,0,0,0-1.061-3.541l1.521-.5A26.839,26.839,0,0,1,1274.187,14569.3Zm3.841-15.823a23.829,23.829,0,0,1-.88,3h6.3q0,10.384-.3,12.823c-.22,1.48-1.2,2.221-2.961,2.221-.42,0-1.14-.04-2.18-.119l-.5-1.882c.9.061,1.68.1,2.34.1.761,0,1.221-.44,1.341-1.3.12-.94.179-4.221.219-9.842h-5.161a18.063,18.063,0,0,1-2.2,3.2l-1.3-1.66a14.8,14.8,0,0,0,3.261-6.8Zm1.86,11.923-1.64,1.14a41.854,41.854,0,0,0-3.081-4.6l1.6-1A38.951,38.951,0,0,1,1279.888,14565.4Z" fill="#fff"/>
      <path id="Path_8649" data-name="Path 8649" d="M1301.489,14561.535v7.422h-3.021a48.676,48.676,0,0,1,5.041,1.24l-1.12,1.7a39.671,39.671,0,0,0-6.2-1.621l.88-1.32h-4.921l.94,1.24a25.37,25.37,0,0,1-6.262,1.58l-.98-1.7a31.873,31.873,0,0,0,5.661-1.12h-3.381v-7.422Zm-5.642-8.342v2h2.241a7.112,7.112,0,0,0,.76-1.76l2.12.279a8.639,8.639,0,0,1-.6,1.48h3.061v4.081h-2.12v-2.4h-13v2.32h-2.121v-4h3.14a11.96,11.96,0,0,0-.779-1.42l2.16-.34c.241.52.5,1.12.741,1.76h2.32v-2Zm4.521,4.3v3.461h-11.122v-3.461Zm-.92,6.2v-.68h-9.282v.68Zm0,1.921v-.62h-9.282v.62Zm0,1.3h-9.282v.66h9.282Zm-1.1-8.042h-7.082v.7h7.082Z" fill="#fff"/>
      <path id="Path_8650" data-name="Path 8650" d="M1309.606,14560.635a25.97,25.97,0,0,1-2.34,11.362l-1.641-1.44a21.894,21.894,0,0,0,2-9.922v-6.861h14.944v5.321h-12.963Zm1.461,4.821-.6-1.4a8.678,8.678,0,0,0,2.82-2.24h-3.18v-1.841h12.383v1.841h-2a36.98,36.98,0,0,1,1.759,3.341l-1.78.88c-.18-.44-.359-.86-.52-1.24-.84.1-1.661.18-2.48.26v1.46h4.66v1.8h-4.66v1.2h5.781v1.86h-13.723v-1.86h5.941v-1.2h-5.02v-1.8h5.02v-1.3C1314.007,14565.315,1312.546,14565.4,1311.067,14565.456Zm-1.461-9.782v1.54h10.963v-1.54Zm9.122,6.723,1.18-.581h-4.38a15.038,15.038,0,0,1-1.781,1.92c1.861-.12,3.681-.28,5.441-.5A7.739,7.739,0,0,0,1318.728,14562.4Z" fill="#fff"/>
    </g>
    <g id="Group_1706" data-name="Group 1706" transform="translate(2.015 -14290.407)">
      <g id="Group_1705" data-name="Group 1705">
        <path id="Path_8739" data-name="Path 8739" d="M995.361,14569.263c-.517,0-.953-.041-1.47-.08a7.049,7.049,0,0,1-6.2-3.416c-1.469-2.025-2.9-4.528-4.17-6.554-.794-1.271-1.311-1.509-3.336-1.509H978.8v6.236c0,3.376.437,3.574,3.615,3.892v1.113H971.806v-1.113c3.3-.357,3.575-.516,3.575-3.892v-15.85c0-3.377-.437-3.5-3.575-3.853v-1.112h10.129c2.9,0,4.846.357,6.356,1.35a5.939,5.939,0,0,1,2.7,5.244c0,3.415-2.185,5.562-5.124,6.832.715,1.231,2.423,3.893,3.614,5.681a36.649,36.649,0,0,0,3.138,4.091,5.719,5.719,0,0,0,2.9,1.827Zm-14.657-12.91c2.065,0,3.376-.317,4.369-1.151a5.583,5.583,0,0,0,2.185-4.886c0-4.25-2.821-5.8-5.879-5.8a3.633,3.633,0,0,0-2.105.4c-.357.278-.477.675-.477,1.708v9.731Z" fill="#b78e66"/>
        <path id="Path_8740" data-name="Path 8740" d="M1017.525,14562.629c-.238,1.033-1.31,5.124-1.708,6.316h-19.3v-1.113c3.695-.278,3.972-.635,3.972-3.892v-15.69c0-3.536-.436-3.734-3.415-4.012v-1.112h12.154c3.734,0,5.284-.04,5.76-.08.04.993.2,3.972.358,6.077l-1.192.2a13.206,13.206,0,0,0-1.192-3.02c-.635-1.31-1.549-1.589-3.932-1.589h-3.774c-1.231,0-1.311.119-1.311,1.271v8.778h4.409c2.98,0,3.178-.6,3.655-3.3h1.232v8.184H1012c-.516-2.86-.834-3.259-3.694-3.259h-4.37v7.905c0,2.781.874,3.02,2.86,3.06h3.7c2.423,0,2.819-.358,3.694-1.392a17,17,0,0,0,2.145-3.654Z" fill="#b78e66"/>
        <path id="Path_8741" data-name="Path 8741" d="M1034.089,14549.163c-.675-2.621-1.788-5.2-5.521-5.2-3.1,0-4.171,2.264-4.171,4.329,0,2.741,1.748,4.131,5.045,5.84,4.766,2.462,6.832,4.289,6.832,8.063,0,4.171-3.615,7.348-8.739,7.348a16.59,16.59,0,0,1-6.078-1.31,54.452,54.452,0,0,1-1.072-5.959l1.231-.318c.795,2.662,2.543,6.118,6.674,6.118a4.368,4.368,0,0,0,4.607-4.568c0-3.059-1.629-4.29-5.124-6.2-4.171-2.264-6.514-4.171-6.514-7.864,0-3.535,2.939-6.871,8.183-6.871a25.423,25.423,0,0,1,5.243.754c.158,1.43.318,3.019.635,5.6Z" fill="#b78e66"/>
        <path id="Path_8742" data-name="Path 8742" d="M1060.306,14562.629c-.239,1.033-1.311,5.124-1.709,6.316h-19.3v-1.113c3.694-.278,3.972-.635,3.972-3.892v-15.69c0-3.536-.437-3.734-3.416-4.012v-1.112H1052c3.733,0,5.283-.04,5.759-.08.04.993.2,3.972.358,6.077l-1.192.2a13.209,13.209,0,0,0-1.192-3.02c-.635-1.31-1.549-1.589-3.932-1.589h-3.773c-1.232,0-1.312.119-1.312,1.271v8.778h4.409c2.98,0,3.178-.6,3.655-3.3h1.232v8.184h-1.232c-.516-2.86-.834-3.259-3.694-3.259h-4.37v7.905c0,2.781.875,3.02,2.861,3.06h3.694c2.423,0,2.82-.358,3.694-1.392a17,17,0,0,0,2.145-3.654Z" fill="#b78e66"/>
        <path id="Path_8743" data-name="Path 8743" d="M1086.64,14569.263c-.516,0-.953-.041-1.469-.08a7.047,7.047,0,0,1-6.2-3.416c-1.47-2.025-2.9-4.528-4.17-6.554-.795-1.271-1.311-1.509-3.337-1.509h-1.39v6.236c0,3.376.437,3.574,3.614,3.892v1.113h-10.606v-1.113c3.3-.357,3.575-.516,3.575-3.892v-15.85c0-3.377-.436-3.5-3.575-3.853v-1.112h10.13c2.9,0,4.846.357,6.355,1.35a5.937,5.937,0,0,1,2.7,5.244c0,3.415-2.185,5.562-5.125,6.832.715,1.231,2.423,3.893,3.615,5.681a36.4,36.4,0,0,0,3.138,4.091,5.718,5.718,0,0,0,2.9,1.827Zm-14.657-12.91c2.066,0,3.377-.317,4.37-1.151a5.583,5.583,0,0,0,2.184-4.886c0-4.25-2.82-5.8-5.879-5.8a3.633,3.633,0,0,0-2.1.4c-.357.278-.476.675-.476,1.708v9.731Z" fill="#b78e66"/>
        <path id="Path_8744" data-name="Path 8744" d="M1111.943,14544.238c-2.662.356-3.336.714-4.767,4.289-1.072,2.622-6.553,15.929-8.5,20.854h-1.311c-2.344-6.4-5.76-15.689-8.024-21.568-1.112-2.939-1.788-3.338-4.211-3.575v-1.112h10.09v1.112c-2.94.317-3.1.794-2.542,2.264.993,2.9,3.892,10.8,6.4,17.4,2.1-5.124,4.727-11.6,6.594-16.6.874-2.3.4-2.662-2.86-3.059v-1.112h9.136Z" fill="#b78e66"/>
        <path id="Path_8745" data-name="Path 8745" d="M1124.1,14568.945v-1.113c2.583-.317,2.9-.715,2.344-2.224-.516-1.55-1.311-3.535-2.145-6.038h-8.58c-.636,1.788-1.231,3.337-1.788,4.966-.873,2.581-.317,2.9,2.94,3.3v1.113h-9.176v-1.113c2.5-.317,3.138-.595,4.529-4.17l8.222-20.854,1.271-.237c2.5,6.792,5.243,14.3,7.746,21.171,1.271,3.456,1.629,3.773,4.449,4.091v1.113Zm-3.972-21.172c-1.271,3.416-2.621,7.03-3.813,10.169h7.428Z" fill="#b78e66"/>
        <path id="Path_8746" data-name="Path 8746" d="M1153.214,14549.362a15.074,15.074,0,0,0-1.271-3.3c-.636-1.072-1.033-1.352-3.218-1.352h-3.972v19.345c0,3.1.318,3.535,4.092,3.773v1.113h-11.559v-1.113c3.694-.238,4.012-.635,4.012-3.773v-19.345h-3.616c-2.184,0-2.82.238-3.495,1.431a18.148,18.148,0,0,0-1.311,3.218h-1.192c.239-2.423.477-4.927.6-7.15h.914c.6.953,1.033.914,2.145.914h15.73a1.994,1.994,0,0,0,2.026-.914h.953c0,1.867.159,4.728.357,7.03Z" fill="#b78e66"/>
        <path id="Path_8747" data-name="Path 8747" d="M1157.663,14568.945v-1.113c3.257-.357,3.575-.516,3.575-3.892v-15.771c0-3.416-.318-3.575-3.575-3.932v-1.112h10.646v1.112c-3.3.356-3.616.516-3.616,3.932v15.771c0,3.416.318,3.534,3.616,3.892v1.113Z" fill="#b78e66"/>
        <path id="Path_8748" data-name="Path 8748" d="M1185.507,14542.57a12.768,12.768,0,0,1,12.869,13.106c0,8.541-5.8,13.863-13.107,13.863a12.929,12.929,0,0,1-13.188-13.267C1172.081,14549.163,1177.125,14542.57,1185.507,14542.57Zm-.795,1.469c-4.448,0-8.5,3.734-8.5,11.162,0,7.388,4.052,12.83,9.692,12.83,4.806,0,8.421-3.575,8.421-11.241C1194.325,14548.449,1189.916,14544.039,1184.712,14544.039Z" fill="#b78e66"/>
        <path id="Path_8749" data-name="Path 8749" d="M1229.677,14544.238c-2.543.277-3.377.675-3.5,2.5-.04,1.271-.119,2.938-.119,6.634v15.928h-1.509l-17-20.774v9.931c0,3.575.119,5.363.2,6.515.08,2.025,1.073,2.621,3.932,2.859v1.113h-9.652v-1.113c2.463-.2,3.416-.794,3.575-2.74.12-1.271.2-3.059.2-6.674v-10.129a3.459,3.459,0,0,0-.793-2.621c-.755-.993-1.589-1.232-3.536-1.43v-1.112h5.958l16.842,19.979v-9.731c0-3.7-.079-5.4-.2-6.594-.119-1.787-1.033-2.345-4.211-2.542v-1.112h9.812Z" fill="#b78e66"/>
      </g>
    </g>
  </g>
</svg>
