<?xml version="1.0" encoding="utf-8"?>
<!-- Generator: Adobe Illustrator 24.0.3, SVG Export Plug-In . SVG Version: 6.00 Build 0)  -->
<svg version="1.1" id="圖層_1" xmlns="http://www.w3.org/2000/svg" xmlns:xlink="http://www.w3.org/1999/xlink" x="0px" y="0px"
	 viewBox="0 0 514.1 99.1" style="enable-background:new 0 0 514.1 99.1;" xml:space="preserve">
<style type="text/css">
	.st0{fill:#6A2259;}
	.st1{fill:#FFFFFF;}
</style>
<g id="section5_title" transform="translate(-1118.811 -7198.721)">
	<g id="Group_1581">
		<path id="Path_7820" class="st0" d="M1139,7231.6l0.7,6.7c-6.3,1.5-13.2,3-18.6,4.2l-1.5-7.1c2.8-0.5,6.3-1.1,10.1-1.9
			c1.3-5.9,2.2-11.9,2.6-18l6.7,1c-0.9,5.3-2.2,11.2-3.3,15.7L1139,7231.6z M1140.4,7214.3h-20.5v-6.7h8c-0.7-2.2-1.5-4.4-2.5-6.5
			l6.2-1.8c1.3,2.2,2.3,4.6,3.1,7.1l-3.4,1.1h9.1V7214.3z M1123.1,7232.8c-0.3-5.4-0.8-10.7-1.7-16l5.5-1c1,5.2,1.6,10.5,2.1,15.9
			L1123.1,7232.8z M1155.4,7214.7v7.9h9.6v23.9h-7.5v-2.2h-10.1v2.4h-7v-24.1h7.5v-23.4h7.5v8.6h11.1v6.9L1155.4,7214.7z
			 M1157.5,7229.3h-10.1v8.3h10.1V7229.3z"/>
		<path id="Path_7821" class="st0" d="M1201.8,7231.6c4.4,3.7,9.5,6.6,15.1,8.5c-2,1.9-3.8,4-5.2,6.4c-5.8-2.6-10.9-6.3-15.3-10.9
			v11.3h-7.6v-11c-4.2,4.5-9.3,8-15,10.5c-1.4-2.2-3.1-4.3-5-6.1c5.4-1.9,10.4-4.8,14.8-8.6h-9.1v-19.7h14.3v-2.1h-18.4v-6.8h18.4
			v-3.8h7.6v3.8h18.9v6.8h-18.9v2.1h14.9v19.7L1201.8,7231.6z M1181.7,7219.2h7.2v-2h-7.2V7219.2z M1181.7,7226.2h7.2v-2h-7.2
			V7226.2z M1196.4,7217.2v2h7.5v-2H1196.4z M1203.9,7224.2h-7.5v2h7.5V7224.2z"/>
		<path id="Path_7822" class="st0" d="M1264.4,7205.5c-1.3,4.9-3.5,9.5-6.7,13.5c2.9,2.1,6.2,3.7,9.7,4.6c-1.4,1.5-2.7,3.1-3.8,4.9
			v18h-7v-1.4h-7.7v1.6h-6.7v-16.2l-0.1,0.1c-0.7-1.3-1.5-2.6-2.5-3.8v3h-5.1v5.4c1.9-0.4,3.7-0.8,5.5-1.2l0.7,6.4
			c-7.2,1.8-15,3.5-21,4.9l-1.2-7l2-0.4v-16.7h5.9v15.6l1.7-0.4v-18.1h-6.9V7201h17.9v11.9c3.7-3.9,6.4-8.6,7.9-13.7l6.9,1.7
			c-0.3,1-0.7,2-1.1,2.9h5.5l1.2-0.2L1264.4,7205.5z M1227.6,7212.1h5v-5h-5V7212.1z M1239.8,7224.4c3.1-1.3,6.1-3.1,8.6-5.4
			c-0.8-1-1.5-2-2.2-3.1c-0.6,0.8-1.3,1.6-2,2.4c-1.5-1.5-3.1-2.9-4.9-4.2v4.2h-4.6v5.1h5.1L1239.8,7224.4z M1258.6,7227.8
			c-2-1.1-3.9-2.4-5.6-3.9c-1.7,1.4-3.5,2.7-5.4,3.9H1258.6z M1256.7,7238.8v-5h-7.7v5H1256.7z M1250.2,7209.9l-0.3,0.6
			c0.9,1.4,1.8,2.7,2.8,3.9c1-1.4,2-2.9,2.8-4.5H1250.2z"/>
		<path id="Path_7823" class="st0" d="M1316.1,7207.4h-7.5c0.9,0.7,1.8,1.5,2.6,2.4l-3.8,3.3h3.7v13.7h-15.5v2h18.4
			c0,0-0.1,1.6-0.2,2.5c-0.4,6.5-0.9,9.9-2.2,11.3c-1.1,1.2-2.6,1.9-4.2,2c-2.1,0.2-4.3,0.3-6.4,0.2c-0.2-2.3-0.9-4.6-2.1-6.6
			c1.6,0.2,3.2,0.2,4.8,0.2c0.6,0.1,1.2-0.1,1.7-0.5c0.5-1,0.8-2,0.9-3.1h-10.7v12h-7.1v-8.9c-4.2,3.7-9.1,6.6-14.4,8.5
			c-1.3-2.1-2.8-4-4.5-5.7c4.7-1.3,9.1-3.3,13.2-6h-9c0.9-4.6,1.5-9.2,1.8-13.9h12.9v-1.9h-14.7v-5.1c-1.4-1.7-3-3.4-4.7-4.9
			c3.1-2.8,5.5-6.3,7.1-10.2l6.4,1.9c-0.2,0.4-0.4,0.9-0.6,1.4h9.9v5.1c2.3-2.4,4-5.2,5.1-8.4l6.6,1.7c-0.2,0.5-0.4,1-0.6,1.5h13.1
			V7207.4z M1279.1,7207.4c-1.3,2-2.7,3.9-4.3,5.6h8.7c-1.3-1.4-2.6-2.6-4-3.9l1.9-1.8L1279.1,7207.4z M1288.5,7226.7h-6.4l-0.2,2
			h6.7V7226.7z M1305.6,7213c-1.3-1.4-2.8-2.7-4.3-3.8l2.2-1.9h-3.3c-1.1,1.8-2.5,3.5-4,5c-1.7-1.6-3.5-3-5.3-4.2
			c0.3-0.2,0.6-0.5,0.8-0.8h-5.4c1,0.8,1.9,1.7,2.7,2.6l-3.2,3L1305.6,7213z M1303.9,7218.9h-8.3v1.9h8.3V7218.9z"/>
		<path id="Path_7824" class="st0" d="M1366.1,7218.5v8h-46.6v-8H1366.1z"/>
		<path id="Path_7825" class="st0" d="M1385.2,7226.7c-1.4,0.5-2.9,0.9-4.4,1.2v11.3c0,3.1-0.5,5-2.2,6.1c-1.7,1.1-4,1.4-7.3,1.4
			c-0.3-2.3-0.9-4.6-1.8-6.8c1.3,0.1,2.6,0.1,3.9,0c0.6,0,0.8-0.1,0.8-0.8v-9.5l-4,1.1l-1.5-7c1.6-0.3,3.5-0.8,5.6-1.2v-7.7h-4.7
			v-6.7h4.7v-9.1h6.7v9.1h4v6.7h-4v6.1l3.5-0.9L1385.2,7226.7z M1392.5,7199.2h6.5v21.3c0,10.1-1,20-9.6,26.3
			c-1.5-1.8-3.3-3.4-5.2-4.8c2.5-1.7,4.6-4.1,5.9-6.9c-1.6,0.6-3.1,1.2-4.6,1.8l-2.7-6.2c2.4-0.6,5.8-1.6,9.3-2.8
			c0.1-1.2,0.2-2.4,0.3-3.8h-6.4v-6.4h6.4v-4h-6.9v-6.5h6.9L1392.5,7199.2z M1416.5,7235h-8.2v11.6h-6.9v-47.5h6.9v8.1h7.3v6.5h-7.3
			v4h6.8v6.4h-6.8v4.4h8.2V7235z"/>
		<path id="Path_7826" class="st0" d="M1463.1,7235.6v4.6c0,3-0.7,4.4-2.9,5.1c-2.2,0.8-5.1,0.8-8.6,0.8c-0.4-1.7-0.9-3.4-1.7-5
			c-2.9,1.8-6,3.4-9.2,4.6c-1.6-1.8-3.4-3.5-5.3-5.1c4.4-1.1,9.2-3,11.8-5l6.7,2.6c-1,0.8-2,1.6-3.1,2.3c1.7,0,3.6,0,4.2,0
			c0.7,0,0.9-0.2,0.9-0.8v-4.3H1443v-11.4h33v11.4H1463.1z M1481.2,7222.9h-44.4v-5.6h18.4c-0.2-0.3-0.3-0.5-0.6-0.8l1.9-0.6h-14.9
			v-15.8h34.8v15.8h-14.4c0.3,0.4,0.6,0.9,0.9,1.4h18.2L1481.2,7222.9z M1448.7,7205.9h20.5v-1.5h-20.5V7205.9z M1448.7,7211.5h20.5
			v-1.6h-20.5V7211.5z M1449.9,7230.8h18.7v-1.7h-18.7V7230.8z M1468.7,7235.8c4.5,1.5,8.8,3.3,13,5.5l-5.1,4.4
			c-4-2.4-8.2-4.4-12.6-6.1L1468.7,7235.8z"/>
		<path id="Path_7827" class="st0" d="M1527.3,7240.1c0.6,0,0.8-0.5,0.8-6.1c1.5,1.1,3.1,1.8,4.9,2.3c-0.5,7.5-1.8,9.4-5.1,9.4h-2.3
			c-4.1,0-4.9-1.8-4.9-7v-8.9h-1.4c-0.6,7-2.2,12.8-8.6,16.5c-0.5-1.2-1.2-2.3-2-3.3v1.4h-14.4v1.9h-5.1v-14.7
			c-0.5,0.6-0.9,1.2-1.3,1.7c-0.8-1.7-1.7-3.4-2.7-5c2.3-2.8,4.2-5.9,5.5-9.3h-3.8v-10h10.2v10h-3.4l1.8,0.6c-0.3,0.8-0.6,1.5-1,2.3
			h3.4c-0.2-0.7-0.5-1.4-0.9-2l2.7-1h-1.1v-10h10v10h-6.9c0.5,1,0.9,2,1.2,3h5.9v4.7h-5.8v1.2h4.8v4.4h-4.8v1.5h5.2v4.4h-5.2v1.5
			h5.4v0.2c3.3-2.5,4.3-6,4.7-10h-2.8v-29.5h19.6v29.5h-4.1v8.9c0,1.3,0.1,1.5,0.5,1.5L1527.3,7240.1z M1491.4,7206h-5.8v-5h5.8
			v-2.1h5.5v9.5h-5.5V7206z M1490.8,7215.5h2.5v-3.1h-2.5V7215.5z M1497.9,7226.6h-3.5v1.2h3.5V7226.6z M1497.9,7232.3h-3.5v1.5h3.5
			V7232.3z M1494.4,7239.6h3.5v-1.5h-3.5V7239.6z M1504.7,7208.2h-5.6v-9.5h5.6v2.1h5v5h-5V7208.2z M1502.5,7215.4h2.3v-2.9h-2.3
			V7215.4z M1516.5,7208.4h7.3v-1.8h-7.3V7208.4z M1516.5,7215.9h7.3v-1.8h-7.3V7215.9z M1516.5,7223.4h7.3v-1.8h-7.3V7223.4z"/>
		<path id="Path_7828" class="st0" d="M1551.8,7224.6l1.6,6.4c-5.2,2.6-10.8,5.5-15.5,7.6l-2.9-7.3c1.8-0.6,3.8-1.4,6.2-2.4v-12h-5
			v-6.9h5v-10.6h6.8v10.6h4.2v6.9h-4.2v9.2L1551.8,7224.6z M1573.7,7238.9c2.6,0,3.1-1,3.6-5.8c1.9,1.2,4.1,2.1,6.3,2.6
			c-0.8,7.2-2.9,9.6-9.2,9.6h-9.8c-7.4,0-9.5-2.1-9.5-9.9v-11.4l-2,0.9l-2.7-6.4l4.7-2v-12.9h6.9v10l2.7-1.1v-13.8h6.8v10.8l4.2-1.8
			l5.5,1.7l-0.2,1c-0.1,7.5-0.8,14.9-1.9,22.3l-5.9-1.7c0.4-3.8,0.7-9.6,0.8-15.2l-2.4,1v17.4h-6.8v-14.4l-2.7,1.2v14.4
			c0,3,0.3,3.4,3.3,3.4L1573.7,7238.9z"/>
		<path id="Path_7829" class="st0" d="M1600.4,7230.4c-0.4-1.2-1.1-2.8-1.8-4.5v20.3h-6.6v-18.4c-1,3.3-2.3,6.5-3.9,9.5
			c-0.9-2.6-2-5.1-3.3-7.5c2.7-3.6,5-10.1,6.3-15.2h-4.9v-6.7h5.8v-9.1h6.6v9.1h4.6v6.7h-4.6v2c1.3,1.7,5.1,7.6,5.9,9.1
			L1600.4,7230.4z M1613.4,7235.9c-1.7,3.6-4.1,6.8-6.9,9.6c-1.7-1.4-3.4-2.7-5.3-3.9c2.5-2,4.6-4.6,6-7.5L1613.4,7235.9z
			 M1611.6,7206h-8.3v-5.7h28.9v5.7h-8.8v1.6h7.9v12.6h-27.1v-12.6h7.4L1611.6,7206z M1620.9,7233.5v12.6h-6.5v-12.6h-11.1v-5.6
			h28.9v5.6H1620.9z M1606.2,7226.7v-5.4h23.2v5.4H1606.2z M1610,7215.1h1.6v-2.5h-1.6V7215.1z M1618.3,7206h-1.7v1.6h1.7V7206z
			 M1616.7,7215.1h1.7v-2.5h-1.7V7215.1z M1627,7234.2c2.2,2.3,4.2,4.9,6,7.6l-5.6,3.2c-1.6-2.9-3.5-5.6-5.7-8.1L1627,7234.2z
			 M1623.4,7212.6v2.5h1.7v-2.5H1623.4z"/>
	</g>
	<rect id="Rectangle_154" x="1119.5" y="7259.2" class="st0" width="301.1" height="38.6"/>
	<g id="Group_1720" transform="translate(0 -1.713)">
		<path id="Path_7830" class="st1" d="M1146.2,7273.8v-7.5h3.1v7.5h3v3.1h-3v8.7c1.2-0.4,2.3-0.9,3.5-1.4v3.1
			c-3,1.4-6.2,2.5-9.4,3.4l-0.8-3.2c1.2-0.2,2.4-0.5,3.6-0.8v-9.7h-3.2v-3.1H1146.2z M1163.4,7266.2v6.5l6.2-1.8
			c-0.1,4.2-0.6,8.5-1.5,12.6l-2.9-0.9c0.6-2.6,1.1-5.2,1.4-7.8l-3.2,0.9v11.8h-3v-11l-2.8,0.8v11.6c0,1,0.4,1.5,1.4,1.5h7.2
			c0.4,0,0.8-0.2,1-0.6c0.4-1.3,0.6-2.6,0.5-3.9l2.9,0.9c-0.2,3.2-0.7,5-1.3,5.6c-0.7,0.6-1.6,0.9-2.6,0.9h-8.8
			c-2.3,0-3.5-1.3-3.5-3.8v-11.4l-1.7,0.5v-3.1l1.7-0.5v-5.9h3v5l2.8-0.8v-7.3L1163.4,7266.2z"/>
		<path id="Path_7831" class="st1" d="M1177.8,7279h6.3v2.9h-6.3v3.7c2.5-0.2,5-0.6,7.4-1.2v2.9c-2.4,0.6-4.9,1-7.4,1.3v5.2h-3.1
			v-4.8c-0.5,0-1.1,0.1-1.6,0.2l-0.5-3.1l2.1-0.1v-17.4c3.1-0.3,6.2-1.1,9.1-2.2l1.6,2.6c-2.5,0.9-5,1.5-7.6,2v2.6h6.3v2.9h-6.3
			L1177.8,7279z M1198.5,7278.7v2.7c-0.7,2.5-1.9,4.8-3.5,6.7c1.8,1.3,3.7,2.4,5.8,3.2l-1.7,2.7c-2.2-1-4.3-2.3-6.2-3.9
			c-2.2,1.7-4.7,3.1-7.4,3.9l-1.7-2.6c2.5-0.8,4.8-2,6.8-3.5c-1.6-1.8-2.7-4-3.3-6.3h-1.6v-2.9L1198.5,7278.7z M1196.9,7267.1v6.2
			c0,0.7,0.3,1,1,1h2.3v2.8h-3.2c-2.1,0-3.2-1-3.2-3.1v-4h-3.2v1.3c0.1,2.8-1.4,5.5-3.8,6.9l-2.1-2.4c1.7-0.7,2.9-2.3,2.9-4.2v-4.5
			L1196.9,7267.1z M1192.6,7286c1.2-1.3,2.1-2.8,2.8-4.4h-5.3C1190.5,7283.2,1191.4,7284.8,1192.6,7286L1192.6,7286z"/>
		<path id="Path_7832" class="st1" d="M1211.5,7267.4c-0.6,1.8-1.3,3.6-2.1,5.3v21.3h-3.1v-16.3c-0.9,1.2-1.8,2.3-2.8,3.4l-1-3.1
			c2.9-3.5,5-7.5,6.3-11.9L1211.5,7267.4z M1228.4,7278.3v11.8h-2.8c1.7,0.4,3.4,0.9,5,1.4l-1,2.4c-2.3-1-4.7-1.8-7.2-2.3l0.8-1.5
			h-5.2l1.1,1.4c-2.3,1.2-4.7,1.9-7.2,2.3l-1.3-2.3c2-0.3,4-0.8,6-1.5h-3.5v-11.8H1228.4z M1230.2,7267.1v2.6h-5.6v1.4h4.6v6.3H1212
			v-6.3h4.7v-1.4h-4.9v-2.6H1230.2z M1217.1,7273.4h-2.5v1.8h2.5V7273.4z M1225.5,7281.7v-1.3h-9.8v1.3H1225.5z M1225.5,7284.8v-1.2
			h-9.8v1.2H1225.5z M1225.5,7286.6h-9.8v1.3h9.8V7286.6z M1221.9,7273.4h-2.5v1.8h2.5V7273.4z M1221.9,7269.7h-2.5v1.4h2.5V7269.7z
			 M1226.5,7273.4h-2.3v1.8h2.3L1226.5,7273.4z"/>
		<path id="Path_7833" class="st1" d="M1233.8,7281.2l-1-3.4c2.8-3.5,4.8-7.6,6-11.9l2.8,1.3c-0.6,1.8-1.3,3.6-2.1,5.4v21.3h-3.1
			v-16.1C1235.6,7279,1234.7,7280.2,1233.8,7281.2z M1252.7,7266.4l-0.2,2.3h7v2.8h-7.3l-0.3,1.8h5.8v16.9h2.7v2.9h-19.9v-2.9h2.9
			v-16.9h5.3l0.3-1.8h-7.3v-2.8h7.6c0.1-0.9,0.2-1.8,0.2-2.7L1252.7,7266.4z M1254.7,7277.8v-1.6h-8.3v1.6H1254.7z M1254.7,7281.9
			v-1.7h-8.3v1.7H1254.7z M1254.7,7286v-1.7h-8.3v1.7H1254.7z M1254.7,7290.2v-1.7h-8.3v1.7H1254.7z"/>
		<path id="Path_7834" class="st1" d="M1289.9,7277.5v2.6h-13.2v13.8h-3.1v-2.4c-2.3,0.4-5.7,0.7-10,1l-0.4-2.6l2.5-0.1v-9.6h-2.5
			v-2.6L1289.9,7277.5z M1286.5,7276.3h-3.1v-7h-13.6v7h-3v-9.4h19.7V7276.3z M1273.7,7281.7v-1.5h-5v1.5H1273.7z M1273.7,7285.5
			v-1.7h-5v1.7L1273.7,7285.5z M1273.7,7289.1v-1.3h-5v1.8C1270.6,7289.4,1272.2,7289.3,1273.7,7289.1z M1282.6,7274v2h-11.8v-2
			H1282.6z M1282.5,7270.7v2.1h-11.7v-2.1H1282.5z M1277.8,7283.9v-2.6h10.6v2.4c-0.5,2-1.4,3.8-2.6,5.4c1.4,0.9,2.8,1.7,4.3,2.3
			l-1.6,2.6c-1.7-0.8-3.3-1.8-4.8-2.9c-1.6,1.2-3.3,2.2-5.2,2.9l-1.6-2.4c1.7-0.6,3.2-1.4,4.6-2.5c-1.3-1.5-2.3-3.3-2.8-5.2H1277.8z
			 M1285.5,7283.9h-4.1c0.4,1.3,1.2,2.4,2.1,3.4C1284.4,7286.3,1285.1,7285.2,1285.5,7283.9L1285.5,7283.9z"/>
		<path id="Path_7835" class="st1" d="M1308.3,7268.3h11.6v2.9h-26.7v-2.9h11.7c-0.2-0.6-0.5-1.2-0.8-1.8l3.5-0.6
			C1307.8,7266.7,1308.1,7267.5,1308.3,7268.3z M1312.5,7293.8l-0.8-2.8l2.3,0.1c1,0,1.6-0.4,1.6-1.1v-7.4h-18.3v11.2h-3V7280h24.2
			v10.7c0,2.1-1.2,3.1-3.7,3.1H1312.5z M1315.3,7272.5v6.4h-17.6v-6.4H1315.3z M1312.8,7283.9v6.5h-12.4v-6.5H1312.8z
			 M1312.3,7274.8h-11.6v1.7h11.6V7274.8z M1310,7286.2h-6.8v1.9h6.8V7286.2z"/>
		<path id="Path_7836" class="st1" d="M1338.2,7286.9c0.4,0.4,0.7,1,0.7,1.6c0,0.6-0.2,1.2-0.7,1.6c-0.5,0.4-1.1,0.6-1.7,0.6
			c-0.6,0-1.2-0.2-1.6-0.7c-0.9-0.9-0.9-2.3-0.1-3.2c0,0,0,0,0.1-0.1c0.4-0.4,1-0.7,1.6-0.6
			C1337.2,7286.2,1337.8,7286.5,1338.2,7286.9z M1338.6,7269.4l-0.8,15.3h-2.6l-0.8-15.3H1338.6z"/>
	</g>
</g>
</svg>
