<svg xmlns="http://www.w3.org/2000/svg" width="940.071" height="93.311" viewBox="0 0 940.071 93.311">
  <g id="section4_title_en" transform="translate(-724.487 -4668.419)">
    <path id="Path_7660" data-name="Path 7660" d="M724.608,4760.88v-.91q4.187,0,5.43-1.576t1.244-5.4V4679.88a12.046,12.046,0,0,0-.971-5.607q-.97-1.728-5.824-1.85v-.91h23.964v.91a9.256,9.256,0,0,0-4.671.85,4.1,4.1,0,0,0-1.759,2,19.269,19.269,0,0,0-.425,5.217v62.733q0,8.07,3.877,11.376t13.269,3.306h10.906q7.875,0,11.541-3.883t4.089-14.621h.911v21.477Z" fill="#b78e66"/>
    <path id="Path_7661" data-name="Path 7661" d="M807.715,4672.545v-1.032H863.9v12.316h-.91q-1.82-6.855-3.063-8.069t-6.1-1.214H824.338v40.1H851.7q4.063,0,5.157-.759a2.673,2.673,0,0,0,1.152-2.215h.91v8.433h-.91a3.08,3.08,0,0,0-1.426-2.365,9.719,9.719,0,0,0-4.156-.607h-28.09v27.6q0,6.249,1.15,9.009a5.513,5.513,0,0,0,3.666,3.459,30.645,30.645,0,0,0,7.6.7h15.754q7.512,0,9.6-.512a7.1,7.1,0,0,0,3.545-2.049q1.453-1.538,2.241-6.721h.91v12.255H807.715v-.91a10.14,10.14,0,0,0,4.7-1.182q1.608-1,1.608-5.184v-72.148q0-4.909-.85-6.91T807.715,4672.545Z" fill="#b78e66"/>
    <path id="Path_7662" data-name="Path 7662" d="M910.72,4671.513v.91a9.271,9.271,0,0,0-3.913.546,3.5,3.5,0,0,0-2.548,2.121,32.407,32.407,0,0,0-.395,6.609v68.57q0,5.578.456,6.821a4.089,4.089,0,0,0,1.759,2.062,9.354,9.354,0,0,0,4.641.818v.91H886.877v-.91q4.488,0,5.581-1.727t1.093-7.852v-67.9q0-6.365-1.214-8.336t-5.46-1.728v-.91Z" fill="#b78e66"/>
    <path id="Path_7663" data-name="Path 7663" d="M975.019,4672.666l4.247,11.163-.728.121q0-.06-3.368-3.579a23.207,23.207,0,0,0-17.5-7.341q-9.16,0-14.53,5.247a17.048,17.048,0,0,0-5.369,12.65,14.8,14.8,0,0,0,2.517,8.585q2.517,3.672,10.52,6.846,13.761,4.643,18.831,6.976a28.937,28.937,0,0,1,9.776,7.908q4.709,5.578,4.707,14.3a27.768,27.768,0,0,1-.849,6.939,23.135,23.135,0,0,1-2.73,6.364,27.748,27.748,0,0,1-4.52,5.576,20.94,20.94,0,0,1-5.369,3.819,28.9,28.9,0,0,1-8.616,1.969q-5.884.668-7.765.667H930.426v-25.967h.91q.121,12.922,6.067,18.019t18.5,5.1q11.408,0,17.322-5.4a16.966,16.966,0,0,0,5.916-12.983,14.351,14.351,0,0,0-2.064-7.857,19.4,19.4,0,0,0-5.763-5.7q-3.7-2.459-14.007-6-10.246-3.6-14.408-6.3a20.618,20.618,0,0,1-6.953-8.124,23.9,23.9,0,0,1-2.794-11.062,23.464,23.464,0,0,1,7.129-17.4q7.128-7.031,18.717-7.032a50.224,50.224,0,0,1,9.707,1.032,47.122,47.122,0,0,1,5.824,1.335A1.077,1.077,0,0,0,975.019,4672.666Z" fill="#b78e66"/>
    <path id="Path_7664" data-name="Path 7664" d="M1087.367,4760.88h-16.926v-13.772q-12.911,14.379-30.789,14.379-13.275,0-21.063-7.463T1010.8,4733.4v-53.512q0-4.852-1.152-6.158t-5.4-1.3v-.91h23.723v.91q-3.764,0-5.309,1.183t-1.548,5.612V4728.3q0,15.412,7.211,21.993a23.681,23.681,0,0,0,16.422,6.583q14.482,0,25.693-13.044v-60.489q0-7.945-1.4-9.434a5.741,5.741,0,0,0-4.368-1.486h-.85v-.91h23.54v.91q-4.368.243-5.49,1.455t-1.123,4.608v72.753a23.17,23.17,0,0,0,.425,5.639,4.167,4.167,0,0,0,1.729,2.213,8.35,8.35,0,0,0,4.459.879Z" fill="#b78e66"/>
    <path id="Path_7665" data-name="Path 7665" d="M1109.742,4672.423v-.91H1135.1q9.645,0,13.954.426a23.847,23.847,0,0,1,8.827,2.823,16.432,16.432,0,0,1,6.825,6.5,20.229,20.229,0,0,1,2.306,10.049,23.054,23.054,0,0,1-4.1,12.963,33.339,33.339,0,0,1-11.558,10.413l6.309,9.7q2.063,3.638,10.952,15.943t13.742,15a19.322,19.322,0,0,0,9.405,2.7q4.488,0,10.313-3.458l.364,1.214q-7.273,5.946-18.911,5.946a20.309,20.309,0,0,1-13.335-4.594q-5.575-4.593-19.413-25.206a.344.344,0,0,1-.121-.242l-8.981-13.823-7.963.243h-7.235v34.168q0,4.121,1.083,5.907t5.227,1.787v.91h-23.055v-.91q4.307-.182,5.37-1.818t1.061-6.67v-71a15.551,15.551,0,0,0-.909-5.728Q1114.352,4672.484,1109.742,4672.423Zm16.745,1.456V4715.8h9.362q11.063,0,16.413-5.217t5.35-13.712a26.447,26.447,0,0,0-5.259-15.622q-5.259-7.373-18.51-7.372Z" fill="#b78e66"/>
    <path id="Path_7666" data-name="Path 7666" d="M1220.574,4672.545v-1.032h56.181v12.316h-.91q-1.82-6.855-3.064-8.069t-6.1-1.214H1237.2v40.1h27.363q4.063,0,5.156-.759a2.674,2.674,0,0,0,1.153-2.215h.91v8.433h-.91a3.079,3.079,0,0,0-1.425-2.365,9.731,9.731,0,0,0-4.157-.607H1237.2v27.6q0,6.249,1.151,9.009a5.509,5.509,0,0,0,3.666,3.459,30.636,30.636,0,0,0,7.6.7h15.753q7.512,0,9.6-.512a7.106,7.106,0,0,0,3.545-2.049q1.454-1.538,2.241-6.721h.91v12.255h-61.095v-.91a10.153,10.153,0,0,0,4.7-1.182q1.607-1,1.607-5.184v-72.148q0-4.909-.85-6.91T1220.574,4672.545Z" fill="#b78e66"/>
    <path id="Path_7667" data-name="Path 7667" d="M1419.244,4668.419l-4.246,10.8h-.91a11.227,11.227,0,0,0,.242-2.609,1.707,1.707,0,0,0-1-1.79,9.367,9.367,0,0,0-3.178-.394h-23.306v76.451q0,4.729.759,6.457a3.679,3.679,0,0,0,2.062,2.183,14.024,14.024,0,0,0,4.217.454v.91h-24.208v-.91q4.551-.3,5.7-1.758t1.153-6.063v-77.724h-22.338a15.352,15.352,0,0,0-4.419.394q-1.031.4-1.03,1.972a9.531,9.531,0,0,0,.486,2.427h-.91l-4.248-10.8h.911a5.342,5.342,0,0,0,2.149,2.639,14.27,14.27,0,0,0,4.573.455h59.3a19.875,19.875,0,0,0,5.058-.455,3.651,3.651,0,0,0,2.27-2.639Z" fill="#b78e66"/>
    <path id="Path_7668" data-name="Path 7668" d="M1459.639,4671.513v.91a9.272,9.272,0,0,0-3.913.546,3.5,3.5,0,0,0-2.548,2.121,32.4,32.4,0,0,0-.4,6.609v68.57q0,5.578.455,6.821a4.1,4.1,0,0,0,1.76,2.062,9.353,9.353,0,0,0,4.641.818v.91H1435.8v-.91q4.488,0,5.581-1.727t1.093-7.852v-67.9q0-6.365-1.214-8.336t-5.46-1.728v-.91Z" fill="#b78e66"/>
    <path id="Path_7669" data-name="Path 7669" d="M1562.794,4671.513H1576.9v.91q-7.152.365-7.153,7.467a33.119,33.119,0,0,0,.364,4.189l9.4,67.7q.848,5.06,1.911,6.474t4.4,1.717v.91h-20.082v-.91q4.016.121,4.016-3.857a32.5,32.5,0,0,0-.364-3.555l-9.172-65.635-32.034,73.957h-.607l-32.215-73.835-9.064,66.006a21.687,21.687,0,0,0-.243,3.43q0,3.489,4.089,3.489v.91h-13.651v-.91q3.094,0,3.974-.758a4.958,4.958,0,0,0,1.365-2.427,23.012,23.012,0,0,0,.728-3.732l10.22-72.193q-2.495-6.009-4.989-7.223a10.972,10.972,0,0,0-4.806-1.214v-.91h16.852l31.429,73.1Z" fill="#b78e66"/>
    <path id="Path_7670" data-name="Path 7670" d="M1603.463,4672.545v-1.032h56.181v12.316h-.91q-1.82-6.855-3.064-8.069t-6.1-1.214h-29.486v40.1h27.362q4.063,0,5.157-.759a2.674,2.674,0,0,0,1.153-2.215h.91v8.433h-.91a3.08,3.08,0,0,0-1.426-2.365,9.726,9.726,0,0,0-4.156-.607h-28.09v27.6q0,6.249,1.15,9.009a5.512,5.512,0,0,0,3.667,3.459,30.624,30.624,0,0,0,7.6.7h15.753q7.512,0,9.6-.512a7.1,7.1,0,0,0,3.544-2.049q1.453-1.538,2.242-6.721h.91v12.255h-61.095v-.91a10.145,10.145,0,0,0,4.7-1.182q1.608-1,1.608-5.184v-72.148q0-4.909-.85-6.91T1603.463,4672.545Z" fill="#b78e66"/>
  </g>
</svg>
