<svg xmlns="http://www.w3.org/2000/svg" width="301.131" height="100.819" viewBox="0 0 301.131 100.819">
  <g id="section1_title" transform="translate(-1132 -468.765)">
    <g id="Group_18" data-name="Group 18" transform="translate(0.385 -1279.412)">
      <path id="Path_65" data-name="Path 65" d="M1151.111,1781.029l.7,6.7c-6.351,1.5-13.2,3-18.6,4.2l-1.5-7.151c2.8-.45,6.35-1.1,10.1-1.85a123.04,123.04,0,0,0,2.6-17.951l6.7,1.05c-.95,5.25-2.2,11.2-3.35,15.7Zm1.4-17.3h-20.5v-6.65h8.05a43.146,43.146,0,0,0-2.55-6.451l6.251-1.75a34.065,34.065,0,0,1,3.1,7.1l-3.451,1.1h9.1Zm-17.3,18.551a138.651,138.651,0,0,0-1.7-16l5.55-1.05a153.374,153.374,0,0,1,2.051,15.851Zm32.3-18.151v7.9h9.551v23.9h-7.45v-2.15h-10.051v2.35h-7.051v-24.1h7.5v-23.4h7.5v8.6h11.051v6.9Zm2.1,14.651h-10.051v8.25h10.051Z" fill="#6a2259"/>
      <path id="Path_66" data-name="Path 66" d="M1213.962,1781.029a46.1,46.1,0,0,0,15.051,8.451,30.078,30.078,0,0,0-5.2,6.35,47.743,47.743,0,0,1-15.251-10.9v11.251h-7.6v-10.951a45.573,45.573,0,0,1-14.951,10.5,34.229,34.229,0,0,0-5-6.1,45.454,45.454,0,0,0,14.751-8.6h-9.051v-19.7h14.251v-2.1H1182.61v-6.751h18.351v-3.8h7.6v3.8h18.85v6.751h-18.85v2.1h14.9v19.7Zm-20.151-12.351h7.15v-2h-7.15Zm0,7h7.15v-2.051h-7.15Zm14.751-9v2h7.45v-2Zm7.45,6.95h-7.45v2.051h7.45Z" fill="#6a2259"/>
      <path id="Path_67" data-name="Path 67" d="M1276.513,1754.927a37.507,37.507,0,0,1-6.65,13.5,30.057,30.057,0,0,0,9.7,4.6,28.671,28.671,0,0,0-3.8,4.9v17.951h-6.951v-1.45h-7.651v1.6h-6.65v-16.151l-.1.05a23.147,23.147,0,0,0-2.5-3.75v2.95h-5.05v5.35c1.85-.4,3.7-.8,5.5-1.2l.7,6.4c-7.2,1.75-15,3.55-20.951,4.9l-1.2-6.951,2-.35v-16.651h5.851v15.551l1.7-.35v-18.1h-6.95v-17.3h17.9v11.9a32.894,32.894,0,0,0,7.9-13.7l6.9,1.7c-.3.95-.65,1.95-1.051,2.9h5.5l1.25-.25Zm-36.753,6.651h5v-5h-5Zm12.151,12.3a30.777,30.777,0,0,0,8.6-5.4,31.561,31.561,0,0,1-2.2-3.1,23.943,23.943,0,0,1-2.051,2.35,48.143,48.143,0,0,0-4.85-4.2v4.2h-4.55v5.1h5.05Zm18.851,3.351a34.762,34.762,0,0,1-5.6-3.851,38.883,38.883,0,0,1-5.4,3.851Zm-1.95,11v-4.951h-7.651v4.951Zm-6.5-28.9-.351.6a32.242,32.242,0,0,0,2.851,3.9,31.853,31.853,0,0,0,2.75-4.5Z" fill="#6a2259"/>
      <path id="Path_68" data-name="Path 68" d="M1328.212,1756.828h-7.5a21.861,21.861,0,0,1,2.651,2.35l-3.8,3.3h3.65v13.7h-15.451v2h18.352s-.051,1.65-.151,2.5c-.4,6.5-.95,9.85-2.25,11.3a6.086,6.086,0,0,1-4.2,2,47.354,47.354,0,0,1-6.4.2,15.258,15.258,0,0,0-2.05-6.6,35.912,35.912,0,0,0,4.8.2,2.36,2.36,0,0,0,1.7-.45,6.444,6.444,0,0,0,.85-3.15h-10.651v12h-7.1v-8.851a44.877,44.877,0,0,1-14.351,8.5,29.258,29.258,0,0,0-4.55-5.7,46.362,46.362,0,0,0,13.15-5.95h-8.95a128.766,128.766,0,0,0,1.85-13.9h12.851v-1.9H1286.01v-5.05a48.135,48.135,0,0,0-4.7-4.9,27.942,27.942,0,0,0,7.1-10.251l6.4,1.9-.6,1.35h9.9v5.1a22.962,22.962,0,0,0,5.049-8.35l6.6,1.7c-.2.5-.4,1.05-.6,1.55h13.051Zm-37,.049a39.153,39.153,0,0,1-4.3,5.6h8.651a48.844,48.844,0,0,0-4-3.851l1.949-1.75Zm9.451,19.3h-6.4l-.25,2h6.65Zm17.051-13.7a32.026,32.026,0,0,0-4.35-3.8l2.2-1.85h-3.25a28.347,28.347,0,0,1-4,5.05,40.863,40.863,0,0,0-5.351-4.251c.3-.25.55-.5.8-.75h-5.4a22.717,22.717,0,0,1,2.7,2.651l-3.151,2.95Zm-1.65,5.9h-8.3v1.9h8.3Z" fill="#6a2259"/>
      <path id="Path_69" data-name="Path 69" d="M1378.262,1767.978v7.951h-46.6v-7.951Z" fill="#6a2259"/>
      <path id="Path_70" data-name="Path 70" d="M1397.361,1776.179c-1.451.45-2.9.85-4.4,1.25v11.3c0,3.149-.5,5-2.2,6.1-1.7,1.15-4,1.4-7.3,1.4a25.521,25.521,0,0,0-1.8-6.75,34.46,34.46,0,0,0,3.851.049c.6,0,.8-.15.8-.8v-9.5l-4.05,1.1-1.5-6.951c1.6-.3,3.5-.75,5.551-1.2v-7.7h-4.7v-6.65h4.7v-9.1h6.65v9.1h4v6.65h-4v6.1l3.5-.9Zm7.25-27.552h6.451v21.251c0,10.151-1,19.952-9.6,26.3a29.653,29.653,0,0,0-5.2-4.8,17.64,17.64,0,0,0,5.9-6.85c-1.549.65-3.1,1.25-4.549,1.8l-2.7-6.25c2.451-.6,5.8-1.65,9.3-2.75q.225-1.8.3-3.75h-6.351v-6.351h6.451v-4.05h-6.9v-6.5h6.9Zm24,35.852h-8.151v11.651h-6.85v-47.5h6.85v8.05h7.351v6.5h-7.351v4.05h6.75v6.351h-6.75v4.35h8.151Z" fill="#6a2259"/>
    </g>
    <rect id="Rectangle_6" data-name="Rectangle 6" width="301.131" height="38.584" transform="translate(1132 531)" fill="#6a2259"/>
    <g id="Group_1718" data-name="Group 1718" transform="translate(-1.225 -1281.31)">
      <path id="Path_71" data-name="Path 71" d="M1168.155,1822.23a5.97,5.97,0,0,1,1.979,4.65,7.421,7.421,0,0,1-2.1,5.07,27.577,27.577,0,0,1-4.44,3.45c-2.189,1.44-3.51,2.7-3.989,3.779h10.559v3.09h-14.939a8.252,8.252,0,0,1,2.13-5.7,29.019,29.019,0,0,1,4.92-3.93,19.707,19.707,0,0,0,2.939-2.4,5.062,5.062,0,0,0,1.41-3.39,3.456,3.456,0,0,0-.929-2.61,4.033,4.033,0,0,0-2.79-.84,3.443,3.443,0,0,0-2.97,1.35,6.534,6.534,0,0,0-1.08,3.81h-3.51a8.25,8.25,0,0,1,2.1-5.79,7.159,7.159,0,0,1,5.58-2.34A7.439,7.439,0,0,1,1168.155,1822.23Z" fill="#fff"/>
      <path id="Path_72" data-name="Path 72" d="M1179.584,1830.21a6.522,6.522,0,0,0,2.61,1.17c.6,0,1.26-.66,2.04-1.95l2.07,1.44c-1.32,2.1-2.7,3.15-4.11,3.15a6.562,6.562,0,0,1-3.36-1.17,6.36,6.36,0,0,0-2.639-1.2c-.6,0-1.29.63-2.04,1.95l-2.071-1.44c1.321-2.1,2.67-3.15,4.111-3.15A6.454,6.454,0,0,1,1179.584,1830.21Z" fill="#fff"/>
      <path id="Path_73" data-name="Path 73" d="M1201.154,1821.99a5.3,5.3,0,0,1,1.95,4.35,4.609,4.609,0,0,1-3.571,4.68,6.059,6.059,0,0,1,2.911,1.74,4.543,4.543,0,0,1,1.08,3.12,6.282,6.282,0,0,1-2.071,4.859,8.18,8.18,0,0,1-5.669,1.95,8.064,8.064,0,0,1-5.37-1.71,7.613,7.613,0,0,1-2.519-5.519h3.569a4.345,4.345,0,0,0,1.32,3.209,4.223,4.223,0,0,0,2.97,1.051,4.463,4.463,0,0,0,3.21-1.141,3.46,3.46,0,0,0,1.05-2.549,3.25,3.25,0,0,0-1.11-2.7,4.81,4.81,0,0,0-3.15-.87h-1.5v-2.64h1.5a4.452,4.452,0,0,0,2.88-.81,3.009,3.009,0,0,0,.96-2.4,3.1,3.1,0,0,0-.87-2.37,4.184,4.184,0,0,0-2.79-.81,3.762,3.762,0,0,0-4.17,3.81h-3.449a6.979,6.979,0,0,1,2.4-5.04,7.52,7.52,0,0,1,5.19-1.77A8.223,8.223,0,0,1,1201.154,1821.99Z" fill="#fff"/>
      <path id="Path_74" data-name="Path 74" d="M1241.563,1819.92a183.037,183.037,0,0,1-19.889,1.29v1.05h19.739v7.14h-19.739c-.15,6.36-1.29,11.459-3.45,15.239l-2.28-2.4c1.74-3.12,2.7-7.469,2.82-13.019v-10.38a172.134,172.134,0,0,0,21.449-1.38Zm-19.2,14.76v-2.73h7.979a15.112,15.112,0,0,0-.779-1.56l3.269-.51c.24.6.51,1.29.781,2.07h9v2.73h-12.719a18.239,18.239,0,0,1-.271,1.83h11.04a40.779,40.779,0,0,1-.63,7.049,2.415,2.415,0,0,1-1.589,1.35,25.252,25.252,0,0,1-5.521.36h-.21l-.9-2.82q.989.09,1.979.09a11.923,11.923,0,0,0,2.731-.21,1.074,1.074,0,0,0,.659-.51c.06-.3.15-1.17.33-2.609h-8.789a12.751,12.751,0,0,1-6.151,6.149l-1.649-2.64a9.574,9.574,0,0,0,5.909-8.039Zm15.989-7.92v-1.86h-16.679v1.86Z" fill="#fff"/>
      <path id="Path_75" data-name="Path 75" d="M1246.274,1827.12v-2.85h1.32l-1.47-1.83a15.406,15.406,0,0,0,3.63-5.13l2.819.63c-.209.54-.419,1.08-.66,1.56h8.071v2.73h-4.231c-.059.72-.119,1.38-.21,2.04h5.28v2.85h-5.91l-.09.27a40.028,40.028,0,0,1,5.611,3.39l-1.771,1.77h11.52v12.929H1267v-1.11h-13.859v1.11h-3.151V1833.27c-.719.42-1.469.84-2.249,1.23l-2.1-2.55c3.06-1.35,5.07-2.97,6-4.83Zm2.37-2.85h3.9c.119-.66.21-1.32.27-2.04h-2.43A14.772,14.772,0,0,1,1248.644,1824.27Zm9.059,8.28a29.3,29.3,0,0,0-3.9-2.85,12.33,12.33,0,0,1-2.76,2.85Zm9.3,4.619v-1.859h-13.859v1.859Zm0,4.44v-1.74h-13.859v1.74Zm5.37-22.019v11.49h-10.74v-11.49Zm-3.06,2.76h-4.619v6h4.619Z" fill="#fff"/>
      <path id="Path_76" data-name="Path 76" d="M1278.194,1845.479l-2.4-2.16a15.3,15.3,0,0,0,1.77-7.559v-7.65h11.88v14.849c0,1.53-.93,2.31-2.79,2.31h-2.67l-.81-2.88c.93.09,1.8.15,2.579.15.45,0,.691-.21.691-.63v-2.58c-1.741.391-3.571.75-5.46,1.05l-.57-2.22A17.119,17.119,0,0,1,1278.194,1845.479Zm13.17-19.589-2.491,1.77c-.3-.6-.63-1.2-.96-1.8-3.12.48-6.869.84-11.189,1.08l-.84-2.61a4.222,4.222,0,0,0,1.41-.75,29.052,29.052,0,0,0,4.02-6l3,.9a21.224,21.224,0,0,1-4.08,5.7c1.98-.12,4.08-.33,6.3-.57-.479-.78-1.019-1.56-1.559-2.34l2.4-1.53A52.662,52.662,0,0,1,1291.364,1825.89Zm-6.571,9.81c-.989-.24-2.01-.42-3.059-.6a8.153,8.153,0,0,0-1.14-.18v.6c0,.75-.061,1.47-.12,2.19a53.908,53.908,0,0,0,5.97-.87v-6.03h-5.85v1.74l2.4.36c.721.12,1.651.27,2.79.51Zm9.93,9.239c-2.159,0-3.239-.96-3.239-2.85V1832.01h3.089v2.64l7.53-.54v2.88l-7.53.54v3.869c0,.51.331.78,1.02.78h3.45a1.017,1.017,0,0,0,.93-.45,7.347,7.347,0,0,0,.48-2.91l2.85.9c-.24,2.549-.66,4.049-1.2,4.529a3.761,3.761,0,0,1-2.46.69Zm-.119-26.789v2.97l7.349-.54v2.88l-7.349.54v3.27c0,.6.329.93.989.93h7.05v2.88h-7.98c-2.1,0-3.15-1.02-3.15-3v-9.93Z" fill="#fff"/>
      <path id="Path_77" data-name="Path 77" d="M1311.254,1824.63v20.849h-3V1830.09c-.54.78-1.08,1.53-1.68,2.31l-1.05-3.36a34.046,34.046,0,0,0,4.89-11.43l2.82,1.32-.361,1.23h6.33v2.55a50.006,50.006,0,0,1-3.179,5.7h3.359v1.74a25.461,25.461,0,0,1-1.649,8.969,9.779,9.779,0,0,0,2.7,1.831,21.7,21.7,0,0,0,7.2,1.169c1.95,0,3.93-.06,5.97-.12l-.57,2.94h-3.51c-5.459-.06-9.18-.63-11.159-1.74a10.89,10.89,0,0,1-2.01-1.41,13.712,13.712,0,0,1-3.481,3.6l-1.529-2.73a10.852,10.852,0,0,0,3-3.179,21.559,21.559,0,0,1-2.79-6.33l2.519-.99a15.439,15.439,0,0,0,1.651,4.32,22.46,22.46,0,0,0,.96-5.46h-4.26v-2.22a44.358,44.358,0,0,0,3.48-5.7h-3.121v-2.58C1312.334,1821.93,1311.823,1823.31,1311.254,1824.63Zm15.539,6.09v1.65h5.37v2.4h-5.37v1.5h6.3v2.519h-6.3v2.46h-2.97v-2.46h-4.53v-2.519h4.53v-1.5h-3.57v-2.4h3.57v-1.65h-3.36v-2.46h3.36v-1.71h-4.53v-2.46h4.53v-1.74h-3.36v-2.46h3.36v-2.07h2.97v2.07h5.1v4.2h1.62v2.46h-1.62v4.17Zm0-6.63h2.34v-1.74h-2.34Zm0,4.17h2.34v-1.71h-2.34Z" fill="#fff"/>
      <path id="Path_78" data-name="Path 78" d="M1352.983,1834.56v7.889q0,2.79-2.88,2.79h-3.209l-.571-2.67a35.5,35.5,0,0,1-4.8,2.04l-1.2-2.82a34.064,34.064,0,0,0,7.71-3.21l.75,2.55a20.944,20.944,0,0,1-2.129,1.26,17.163,17.163,0,0,0,2.429.18.777.777,0,0,0,.87-.87v-7.139h-7.109v-2.58h7.109v-1.53h-8.939c-.181,6.15-1.2,11.1-3,14.879l-2.37-2.1c1.5-3.269,2.28-7.829,2.34-13.709v-10.11H1349.2a10.293,10.293,0,0,0-.81-1.38l3.27-.54c.27.57.54,1.2.81,1.92h10.2v2.79h-9.69v1.5h7.32v4.17h2.7v2.58h-2.7v4.11Zm-3.03-6.69v-1.59h-7.08v-2.58h7.08v-1.5h-8.91v5.67Zm-2.009,9-1.411,2.22a22.743,22.743,0,0,0-4.71-2.16l1.5-2.219A26.3,26.3,0,0,1,1347.944,1836.869Zm5.039-9h4.29v-1.59h-4.29Zm0,2.58v1.53h4.29v-1.53Zm10.259,12.029-1.649,2.52a40.914,40.914,0,0,0-8.01-3.87l1.44-2.129A45.386,45.386,0,0,1,1363.242,1842.479Zm-2.16-6.209a24.209,24.209,0,0,1-4.169,2.97l-1.83-1.8a23.083,23.083,0,0,0,3.93-2.759Z" fill="#fff"/>
      <path id="Path_79" data-name="Path 79" d="M1392.492,1827.09h-3.149v-3.81H1369.9v4.17h-3.18v-7.23h11.459a23.1,23.1,0,0,0-1.05-2.28l3.391-.54c.359.84.719,1.8,1.049,2.82h10.919Zm-1.049,8.849-11.7.361v4.65c0,.6.3.9.93.9h7.56a1.252,1.252,0,0,0,1.11-.57q.45-.54.63-3.509l2.97.96c-.241,3-.72,4.739-1.38,5.279a4.046,4.046,0,0,1-2.76.81h-9.09c-2.1,0-3.12-1.08-3.12-3.18v-5.25l-9.3.27V1833.6l9.3-.27v-3.9c-1.71.21-3.449.42-5.249.6l-.66-2.94a78.877,78.877,0,0,0,16.138-2.73l1.051,2.79c-2.52.69-5.219,1.29-8.13,1.8v4.29l11.7-.33Z" fill="#fff"/>
    </g>
  </g>
</svg>
