<?xml version="1.0" encoding="utf-8"?>
<!-- Generator: Adobe Illustrator 24.0.3, SVG Export Plug-In . SVG Version: 6.00 Build 0)  -->
<svg version="1.1" id="圖層_1" xmlns="http://www.w3.org/2000/svg" xmlns:xlink="http://www.w3.org/1999/xlink" x="0px" y="0px"
	 viewBox="0 0 311 111.2" style="enable-background:new 0 0 311 111.2;" xml:space="preserve">
<style type="text/css">
	.st0{fill:#6A2259;}
	.st1{fill:#FFFFFF;}
</style>
<g id="section8_title" transform="translate(-256.426 -356.94)">
	<g id="Group_1622" transform="translate(0 -13601.66)">
		<g id="Group_1621">
			<g id="Group_1620">
				<g transform="matrix(1, 0, 0, 1, 256.43, 13958.6)">
					<path id="Path_8231-2" class="st0" d="M51.5,55.4H34.7v1.5h-6.5V37.3c-1.5-1.4-3.2-2.6-4.9-3.7c3.2-2.7,5.7-6.2,7.2-10.1H17.1
						l2.6,1.1c-1.5,2.5-3.3,4.8-5.3,6.8l2.5-0.1c1.2-1.5,2.3-3.1,3.4-4.8l5.4,3c-2.6,3.6-5.6,6.8-9,9.7l4-0.3
						c-0.2-0.7-0.5-1.4-0.9-2l4.7-1.7c1.4,2.5,2.4,5.3,3,8.1l-5,1.9c-0.1-0.7-0.2-1.3-0.4-1.9C11.6,44.5,9.4,44.9,8,45.4
						c-0.6-1.5-1.3-3-2.2-4.4c1.5-0.2,2.5-1.1,4.2-2.5c0.9-0.7,1.7-1.4,2.5-2.2c-1.8,0-3.6,0.3-5.3,0.8c-0.6-1.5-1.4-3-2.2-4.4
						c1.2-0.3,2.2-1,3-1.9c2-2.2,3.6-4.6,5-7.3H7.5V10.8h41.6v12.7H32.9l4.2,1.1c-0.5,1.3-1,2.5-1.6,3.8h3.4
						c-0.4-1.1-0.8-2.1-1.2-3.1l5.5-1.6c0.8,1.5,1.5,3.1,2.1,4.7h5.7V34h-5.9v1.9h4.5v5h-4.5v1.9h4.5v5h-4.5v1.9h6.6L51.5,55.4z
						 M12.8,47.1c-0.4,2.9-1.2,5.8-2.4,8.6c-1.8-0.5-3.6-0.9-5.4-1.2c1.2-2.5,1.9-5.3,2.2-8.1L12.8,47.1z M18.5,46.2
						c0.7,2.6,1.1,5.3,1.4,8l-5.5,1c-0.1-2.7-0.5-5.4-1.1-8L18.5,46.2z M19,15.9h-4.6v2.5H19V15.9z M24.4,45.1
						c1.2,2.3,2.2,4.8,3,7.3l-5.2,1.3c-0.7-2.6-1.6-5.1-2.7-7.5L24.4,45.1z M30.4,15.9h-4.7v2.5h4.7V15.9z M38.7,34h-3.9v1.9h3.9V34
						z M38.7,40.9h-3.9v1.9h3.9V40.9z M34.8,49.7h3.9v-1.9h-3.9V49.7z M37,18.4h4.8V16H37V18.4z"/>
				</g>
				<g transform="matrix(1, 0, 0, 1, 256.43, 13958.6)">
					<path id="Path_8232-2" class="st0" d="M87.2,41.7c4.4,3.7,9.5,6.6,15.1,8.5c-2,1.9-3.8,4-5.2,6.3c-5.8-2.6-10.9-6.3-15.3-10.9
						v11.3h-7.6v-11c-4.2,4.5-9.3,8-15,10.5c-1.4-2.2-3.1-4.3-5-6.1c5.4-1.9,10.4-4.8,14.8-8.6H60V22h14.3v-2.1H55.9v-6.8h18.4V9.4
						h7.6v3.8h18.9v6.8H81.8V22h14.9v19.7L87.2,41.7z M67.1,29.3h7.1v-2h-7.1V29.3z M67.1,36.3h7.1v-2.1h-7.1V36.3z M81.8,27.3v2
						h7.5v-2H81.8z M89.3,34.3h-7.5v2.1h7.5V34.3z"/>
				</g>
				<g transform="matrix(1, 0, 0, 1, 256.43, 13958.6)">
					<path id="Path_8233-2" class="st0" d="M150.8,17c0,0,0,2.3,0,3.2c-0.6,22.3-1.1,30.4-3.2,33.1c-1.2,1.8-3.1,3-5.3,3.2
						c-2.7,0.3-5.4,0.4-8.1,0.2c-0.3-2.5-1.1-4.9-2.4-7.1c3.2,0.3,6.2,0.3,7.6,0.3c0.8,0.1,1.7-0.3,2.2-0.9c1.5-1.6,2-8.9,2.5-25.4
						h-9.5c-1.2,2.6-2.6,5.1-4.2,7.5c-1.3-1.1-2.7-2.1-4.1-3.1v23.8h-13.1v3.6h-6.5V17.5h5.7c0.5-2.7,0.9-5.4,1.1-8.2l8,1.1
						c-0.9,2.5-1.7,5-2.5,7.1h7.4v6.7c2.7-4.6,4.7-9.5,6-14.7l7,1.6c-0.5,2-1.2,3.9-1.9,5.9H150.8z M119.6,23.8H113v6.8h6.6V23.8z
						 M119.6,45.4v-8.6H113v8.6H119.6z M136.1,43.9c-2-4-4.1-7.9-6.6-11.7l5.7-3.2c2.3,3.4,5.5,8.2,7,11.1L136.1,43.9z"/>
				</g>
				<g transform="matrix(1, 0, 0, 1, 256.43, 13958.6)">
					<path id="Path_8234-2" class="st0" d="M200.8,47.5v7.2h-45.1v-7.2h11.4c0.8-3.7,1.6-7.8,2.3-12.1h-8.1v-7.2h9.2
						c0.4-2.5,0.6-4.9,1-7.3h-13v-7.2h39.2V21h-18.1c-0.4,2.4-0.7,4.8-1.1,7.3h7.4l1.3-0.2l5.8,0.4c-0.2,6-0.9,12.8-1.5,19.1H200.8z
						 M177.4,35.4c-0.8,4.3-1.5,8.5-2.2,12.1h8.5c0.4-4.1,0.8-8.3,1-12.1H177.4z"/>
				</g>
				<g transform="matrix(1, 0, 0, 1, 256.43, 13958.6)">
					<path id="Path_8235-2" class="st0" d="M250.6,49.4v6.2H206v-6.2h18.7v-2.2h-12.4v-4.6c-0.5,0.6-1.1,1.1-1.6,1.6
						c-1.9-1.7-3.9-3.2-6-4.5c3.3-2.5,6-5.8,7.9-9.5h-1.9V11h34.9v19.2h-29.9l4.3,1.2c-0.3,0.7-0.7,1.4-1,2.1h5.8V31h7.5v2.5h15.1v6
						h-15.1v2.2H245v5.5h-12.8v2.2H250.6z M224.7,41.6v-2.2H215c-0.6,0.8-1.2,1.5-1.8,2.2L224.7,41.6z M217.8,18H238v-1.6h-20.2
						L217.8,18z M217.8,24.7H238v-1.6h-20.2L217.8,24.7z"/>
				</g>
				<g transform="matrix(1, 0, 0, 1, 256.43, 13958.6)">
					<path id="Path_8236-2" class="st0" d="M256.8,29.9c-0.6-2.2-1.4-4.3-2.3-6.4c1.1-0.3,2-1.1,3-2.6c2.3-3.7,4.2-7.7,5.6-11.9
						l6.7,2.7c-1.7,3.9-3.8,7.6-6.2,11.1l2.5-0.1c1.3-2.1,2.5-4.3,3.6-6.6l6,3.9c-2.1,3.6-4.4,7-7.1,10.2l4.1-1.5
						c1.7,3.1,2.9,6.4,3.5,9.9l-5.2,2.1c-0.1-0.7-0.2-1.4-0.4-2.1c-10.1,1.8-12.1,2.4-13.3,3.1c-0.6-2.2-1.4-4.3-2.2-6.4
						c1.5-0.4,2.5-1.4,4.2-3.3c0.5-0.5,1.5-1.7,2.7-3.1C258.6,29.2,257.5,29.5,256.8,29.9L256.8,29.9z M261.9,43.8
						c-0.2,4.2-0.8,8.3-2,12.3c-1.7-0.8-3.5-1.4-5.4-1.9c1.2-2.9,1.6-7.3,1.8-11.4L261.9,43.8z M267.1,42.5c0.6,3.3,1.1,6.6,1.3,10
						l-5.2,1.4c-0.1-3.4-0.5-6.8-1-10.2L267.1,42.5z M268.8,33.2c-0.2-0.8-0.6-1.5-0.9-2.3c-0.8,1-1.6,1.9-2.4,2.8L268.8,33.2z
						 M301.4,26.6c-0.9,6.8-3,13.3-6.4,19.3c2,2,4.4,3.6,7,4.7c-1.9,1.8-3.5,3.8-4.8,6.1c-2.4-1.3-4.7-2.9-6.5-4.9
						c-1.9,2-4,3.8-6.2,5.2c-1.2-1.8-2.5-3.5-4.1-5c-0.6,1.7-1.4,3.3-2.3,4.8c-1.9-1.7-4-3.3-6.3-4.6c0.6-0.9,1.2-1.8,1.7-2.8
						l-3.7,1.3c-0.5-2.7-1.3-5.4-2.2-8.1l4.8-1.6c0.8,1.9,1.5,4.3,2,6.2c2.9-7.3,3.5-17.6,3.5-29.1h-3.8v-6.8h16.7l1.1-0.2l5,0.6
						c-0.5,4.5-1.4,9.4-2.2,13.7h0.8l1.2-0.2L301.4,26.6z M286.3,46c-1.2-1.9-2.1-3.9-3-6c-0.5,3.8-1.4,7.5-2.7,11.1
						C282.8,49.6,284.8,47.9,286.3,46L286.3,46z M284.9,18.1c0,2.5-0.1,4.9-0.2,7.2h3.2c0.5-2.3,0.8-4.9,1.2-7.2H284.9z M286.9,31.7
						c0.8,2.8,1.9,5.5,3.3,8c1.3-2.5,2.3-5.2,3-8H286.9z"/>
				</g>
			</g>
		</g>
	</g>
	<g transform="matrix(1, 0, 0, 1, 256.43, 356.94)">
		<path id="Path_8237-2" class="st0" d="M302,103.8H5.1V65.3h297V103.8z"/>
	</g>
	<g id="Group_1623" transform="translate(0 -13601.66)">
		<path id="Path_8238" class="st1" d="M289.9,14050.1c-0.6,2.8-1.6,5.5-2.9,7.9l-2.6-1.6c1.3-2.1,2.2-4.5,2.7-6.9L289.9,14050.1z
			 M285,14043v-2.8h3.1c-0.3-1-0.7-1.9-1.2-2.8l2.7-1.1c0.5,1.2,0.9,2.5,1.3,3.8h2.6c0.4-1.2,0.8-2.5,1.1-3.8l2.8,1
			c-0.3,1-0.7,1.9-1.1,2.8h2.9v2.8h-5.5v2.4h5v2.8h-5v10.7h-3.1v-10.7h-5.1v-2.8h5.1v-2.4H285z M290.5,14033.4
			c-0.3-0.7-0.7-1.4-1.2-2.1l3.2-0.5c0.4,0.8,0.7,1.7,1,2.6h5.5v2.9h-13.8v-2.9H290.5z M298.6,14054.4l-2.6,1
			c-0.5-1.9-1-3.7-1.7-5.5l2.6-0.7C297.5,14051,298.1,14052.7,298.6,14054.4L298.6,14054.4z M311.9,14034.1
			c-2.7,0.9-5.6,1.4-8.4,1.5v4.7h9.1v3h-2.8v15.6h-3.1v-15.6h-3.2v2.8c-0.2,5.3-1.3,9.6-3.5,12.8l-2.2-2.4c1.7-2.5,2.6-5.9,2.8-10.4
			v-13c3.4,0,6.7-0.6,9.9-1.8L311.9,14034.1z"/>
		<path id="Path_8239" class="st1" d="M318.4,14037.9v-6.4h3.2v6.4h5.1v-6.7h3.1v6.7h5.1v-6.7h3.1v6.7h4.2v3H338v9.4h-11.3v-9.4
			h-5.1v13.7h19.6v3.2h-22.8v-16.9h-3.5v-3H318.4z M329.8,14047.3h5.1v-6.4h-5.1V14047.3z"/>
		<path id="Path_8240" class="st1" d="M345.5,14046.2l-1-3.3c3.1-3.5,5.4-7.6,6.7-12l2.9,1.4c-0.7,2.2-1.7,4.3-2.8,6.3v20.3h-3.2
			v-15.7C347.3,14044.2,346.4,14045.2,345.5,14046.2z M371.4,14040.8l-9.6,1.3c0.1,1.3,0.3,2.7,0.6,4c0.4,2.5,1.3,5,2.7,7.1
			c1,1.6,2,2.4,3,2.4c0.7-0.1,1.2-1.8,1.5-5.3l2.7,1.6c-0.2,1.9-0.8,3.7-1.7,5.5c-0.5,0.9-1.4,1.4-2.4,1.5c-1.5,0-3.1-1-4.7-2.9
			c-1.9-2.4-3.3-5.3-4-8.3c-0.4-1.7-0.7-3.4-0.8-5.1l-6.2,0.9l-0.5-3l6.4-0.9c-0.2-2.5-0.3-5.3-0.4-8.5h3.2c0,3.1,0.1,5.8,0.3,8.1
			l9.3-1.3L371.4,14040.8z M369,14035.5l-2.1,2.1c-1.3-1.7-2.7-3.2-4.4-4.6l2-1.9C366.1,14032.4,367.7,14033.9,369,14035.5
			L369,14035.5z"/>
		<path id="Path_8241" class="st1" d="M375.2,14040.6v-2.8h1.3l-1.5-1.8c1.5-1.4,2.8-3.2,3.6-5.1l2.8,0.6c-0.2,0.5-0.4,1.1-0.7,1.6
			h8.1v2.7h-4.2c-0.1,0.7-0.1,1.4-0.2,2h5.3v2.8h-5.9l-0.1,0.3c2,1,3.8,2.1,5.6,3.4l-1.8,1.8h11.5v12.9h-3.2v-1.1H382v1.1h-3.2
			v-12.2c-0.7,0.4-1.5,0.8-2.2,1.2l-2.1-2.5c3.1-1.4,5.1-3,6-4.8L375.2,14040.6z M377.5,14037.7h3.9c0.1-0.7,0.2-1.3,0.3-2h-2.4
			C378.8,14036.4,378.2,14037.1,377.5,14037.7L377.5,14037.7z M386.6,14046c-1.2-1.1-2.5-2-3.9-2.8c-0.8,1.1-1.7,2.1-2.8,2.8H386.6z
			 M395.9,14050.6v-1.9H382v1.9H395.9z M395.9,14055v-1.7H382v1.7H395.9z M401.3,14033v11.5h-10.7v-11.5H401.3z M398.2,14035.8h-4.6
			v6h4.6V14035.8z"/>
		<path id="Path_8242" class="st1" d="M410.2,14052.9c-0.5,2-1.4,3.8-2.5,5.5l-2.5-1.6c1-1.4,1.8-2.9,2.3-4.6L410.2,14052.9z
			 M419.3,14051.3c0.9,0.8,1.8,1.6,2.6,2.4l-2.1,1.5c-1-1.1-2-2.1-3.1-3l1.4-0.9h-10v-2.3h17.3v-1h-19.9v-2.2h19.9v-1h-17.2v-2.3
			h2.7v-1.2h-5v-2.2h5v-1.1h-3.9v-2.1h3.9v-1.1h-4.5v-2.2h4.5v-1.4h3.1v1.4h4v2.2h-4v1.1h3.5v2.1h-3.5v1.1h4v2.2h-4v1.2h9.2v-1.2
			h-4.3v-2.2h4.3v-1.1h-3.7v-2.1h3.7v-1.1h-4.2v-2.2h4.2v-1.4h3.1v1.4h4.4v2.2h-4.4v1.1h3.8v2.1h-3.8v1.1h4.9v2.2h-4.9v1.2h2.2v3.4
			h3.4v2.2h-3.4v3.3L419.3,14051.3z M414.7,14058.3c-2,0-3.1-0.9-3.1-2.8v-3.3h3v2.7c0,0.5,0.3,0.8,0.8,0.8h6.7c0.4,0,0.7-0.1,1-0.3
			c0.4-0.7,0.6-1.5,0.5-2.3l2.8,0.9c-0.2,2.2-0.7,3.4-1.2,3.9c-0.8,0.4-1.7,0.6-2.6,0.6H414.7z M432.6,14056.3l-2.3,1.6
			c-1.1-1.7-2.4-3.3-3.8-4.9l2.2-1.4C430.2,14053.1,431.5,14054.7,432.6,14056.3L432.6,14056.3z"/>
		<path id="Path_8243" class="st1" d="M461.4,14040.5h-3.1v-3.8h-19.4v4.2h-3.2v-7.2h11.5c-0.3-0.8-0.7-1.5-1-2.3l3.4-0.5
			c0.4,0.8,0.7,1.8,1,2.8h10.9V14040.5z M460.3,14049.4l-11.7,0.4v4.6c0,0.6,0.3,0.9,0.9,0.9h7.6c0.4,0,0.9-0.2,1.1-0.6
			c0.3-0.4,0.5-1.5,0.6-3.5l3,1c-0.2,3-0.7,4.7-1.4,5.3c-0.8,0.6-1.8,0.9-2.8,0.8h-9.1c-2.1,0-3.1-1.1-3.1-3.2v-5.2l-9.3,0.3v-3.1
			l9.3-0.3v-3.9c-1.7,0.2-3.5,0.4-5.2,0.6l-0.7-2.9c5.5-0.3,10.9-1.3,16.1-2.7l1,2.8c-2.5,0.7-5.2,1.3-8.1,1.8v4.3l11.7-0.3
			L460.3,14049.4z"/>
	</g>
</g>
</svg>
