<?xml version="1.0" encoding="utf-8"?>
<!-- Generator: Adobe Illustrator 24.0.3, SVG Export Plug-In . SVG Version: 6.00 Build 0)  -->
<svg version="1.1" id="圖層_1" xmlns="http://www.w3.org/2000/svg" xmlns:xlink="http://www.w3.org/1999/xlink" x="0px" y="0px"
	 viewBox="0 0 154 44" style="enable-background:new 0 0 154 44;" xml:space="preserve">
<style type="text/css">
	.st0{fill:#B78E66;}
	.st1{fill:#FCFCFC;}
</style>
<g id="section2_list3" transform="translate(-262 -730.081)">
	<g id="Group_1536" transform="translate(-0.076 -2455.189)">
		<path id="Path_7519" class="st0" d="M325.6,3201.2c0,0.4,0,1,0,1.3c-0.9,0.2-1.9,0.3-2.8,0.4c-1,0-2-0.1-2.9-0.5
			c-1.3-0.6-2.2-1.9-2.2-3.3c0-1.3,0.6-2.6,1.8-3.4c1-0.6,2.1-0.9,3.3-0.9c0.8,0,1.7,0.1,2.5,0.3c0-0.2,0.2-0.8,0.2-1l0.3-0.1
			c-0.1,1.1-0.2,2.3-0.2,3.4l-0.3-0.1c0-0.3-0.1-0.7-0.1-1c-0.7-0.8-1.8-1.2-2.9-1.1c-1.7-0.1-3.2,1.3-3.2,3c0,0.1,0,0.1,0,0.2
			c0,2.2,1.7,4,3.9,4.1c0.5,0,1-0.1,1.4-0.3c0-0.4,0-0.7,0-1.1v-0.6c0-0.3,0-0.6,0-0.9c-0.2,0-0.9-0.1-1.1-0.1l-0.1-0.2
			c0.6,0,1.4,0,1.8,0c0.5,0,1.6,0,1.7,0l-0.1,0.2c-0.1,0-0.7,0.1-1,0.1c0,0.2,0,0.9,0,1.2L325.6,3201.2z"/>
		<path id="Path_7520" class="st0" d="M329.8,3201.6c-0.7-0.7-1.1-1.7-1.1-2.7c0-2.2,1.8-4.2,4.9-4.2c1.1-0.1,2.2,0.3,3.1,0.9
			c0.9,0.7,1.3,1.7,1.3,2.8c0,2.7-2.1,4.5-4.8,4.5C332,3202.9,330.8,3202.5,329.8,3201.6z M336.7,3199.2c0.2-2.1-1.4-3.9-3.5-4
			c0,0,0,0,0,0c-1.7,0-3.1,1.3-3.2,3c0,0.1,0,0.2,0,0.3c0,2.1,1.7,3.9,3.8,3.9C335.5,3202.3,336.8,3200.8,336.7,3199.2z"/>
		<path id="Path_7521" class="st0" d="M341.2,3197.7c0-1,0-2.2-0.1-2.5c-0.2-0.1-0.6-0.1-0.9-0.2l0-0.2c0.3,0,1,0,1.9,0
			c0.5,0,1.4,0,1.6,0l-0.1,0.2c-0.3,0-0.8,0.1-1.2,0.2c0,0.2-0.1,1.6-0.1,2.6v1.5c0,2.4,1,3.2,2.2,3.2c0.6,0,1.2-0.1,1.6-0.5
			c0.6-0.6,0.7-1.5,0.7-2.9v-1c0-0.4,0-2.4-0.1-2.8c-0.3,0-0.9-0.1-1.2-0.2l-0.1-0.2c0.3,0,1.1,0,1.8,0c0.6,0,1.2,0,1.4,0l-0.1,0.2
			c-0.2,0-0.5,0.1-0.8,0.2c0,0.2-0.1,1.6-0.1,1.9v0.5c0,0.4,0,1,0,1.4c0.1,1.1-0.3,2.3-1.1,3.1c-0.6,0.5-1.5,0.8-2.3,0.8
			c-1.7,0.2-3.2-1.1-3.4-2.7c0-0.2,0-0.4,0-0.6L341.2,3197.7z"/>
		<path id="Path_7522" class="st0" d="M352.2,3198c0-0.4,0-2.5-0.1-2.7c-0.2,0-0.9-0.1-1.2-0.1l0-0.2l2.4,0c1.1-0.1,2.1,0,3.1,0.3
			c0.6,0.2,0.9,0.7,1,1.3c-0.2,0.9-0.7,1.7-1.6,2.1c0.9,1.6,1.9,3,3.1,4.4l-0.5,0.1c-0.8-0.4-3.7-3.8-3.9-4c-0.4,0-0.9,0.1-1.1,0.1
			v0.3c0,0.7,0,2.4,0.1,2.9c0.4,0.1,0.8,0.1,1.2,0.2l0,0.2c-0.3,0-1.4,0-1.9,0c-0.5,0-1.6,0-1.9,0l0-0.2c0.4,0,0.8-0.1,1.2-0.2
			c0-0.3,0.1-2.5,0.1-3.7L352.2,3198z M353.4,3198.7c0.5,0,0.9-0.1,1.4-0.2c0.8-0.3,1.3-1,1.3-1.8c0-0.7-0.6-1.6-2.6-1.6
			c0,0.5-0.1,2.4-0.1,3.2L353.4,3198.7z"/>
		<path id="Path_7523" class="st0" d="M367.9,3202.5c0.2,0,1-0.1,1.2-0.1c0-0.4-1-5.4-1.1-6.2h0c-0.3,0.7-2.5,6-2.8,6.6
			c-0.3-0.7-2.4-6.2-2.5-6.6h0c-0.4,2-0.7,4.1-0.9,6.2c0.2,0,0.8,0.1,1,0.2l0,0.2c-0.2,0-1.4,0-1.7,0c-0.3,0-0.9,0-1.2,0l0.1-0.2
			c0.2,0,0.5-0.1,0.8-0.1c0.2-0.7,1.5-6.2,1.6-7.1c-0.3,0-1-0.1-1.1-0.2l-0.1-0.2c0.1,0,1,0,1.6,0c0.5,0,1.4,0,1.7,0l0,0.2
			c-0.3,0-0.6,0.1-0.8,0.2c0.3,1,1.7,4.6,2,5.5c0.3-0.6,2.2-5.2,2.3-5.5c-0.2-0.1-0.5-0.1-0.8-0.2l-0.1-0.2c0.4,0,1.1,0,1.5,0
			c0.4,0,1.3,0,1.5,0l0,0.2c-0.2,0-0.7,0.1-0.9,0.2c0.2,1.2,1.3,6.4,1.5,7.1c0.3,0.1,0.7,0.1,0.9,0.2l0.1,0.2c-0.4,0-1,0-1.6,0
			s-1.7,0-2.1,0L367.9,3202.5z"/>
		<path id="Path_7524" class="st0" d="M374.5,3198.3c0-1,0-2.8-0.1-3.1c-0.2,0-0.9-0.1-1.2-0.2l0-0.2c0.3,0,0.6,0,1,0s0.7,0,1,0
			c0.4,0,3,0,3.3-0.1c0-0.2,0.1-0.3,0.1-0.5l0.3,0c-0.1,0.2-0.2,2-0.2,2.3l-0.2-0.1c0-0.1,0-0.6,0-0.8c-0.2-0.3-1.9-0.5-2.5-0.5
			c0,0.2-0.1,2.3-0.1,3v0.2c0.8,0,1.5,0,2.3-0.2c0.1-0.2,0.1-0.3,0.1-0.5l0.2,0c0,0.2-0.2,1.7-0.3,2.1l-0.2-0.1c0-0.2,0-0.5,0-0.7
			c-0.7-0.2-1.4-0.3-2.2-0.2v0.2c0,0.7,0,3.1,0.1,3.4c0.9,0.1,1.8-0.1,2.7-0.4c0.1-0.4,0.2-0.7,0.2-1l0.3-0.1
			c-0.1,0.3-0.3,2-0.4,2.6l-0.2,0c0-0.3,0-0.5,0-0.7c-0.3-0.1-2.8-0.1-3.5-0.1c-0.4,0-1.3,0-1.7,0l0.1-0.2c0.4,0,0.8-0.1,1.1-0.2
			c0-0.2,0.1-2.2,0.1-3.5L374.5,3198.3z"/>
		<path id="Path_7525" class="st0" d="M384.4,3198.1c0-0.8,0-2.5-0.1-2.7c-1-0.1-2,0.1-2.9,0.5c-0.1,0.3-0.2,0.7-0.2,1l-0.3,0.1
			c0-0.5,0.2-1.9,0.2-2.8l0.3,0c0,0.1,0,0.5,0.1,0.7c0.2,0,2.1,0.1,3.6,0.1c1.6,0,3.5-0.1,3.7-0.1c0-0.1,0.1-0.5,0.2-0.7l0.3,0
			c-0.1,0.3-0.3,2.5-0.4,2.9l-0.3-0.1c0-0.4,0-0.9,0-1.1c-0.9-0.3-1.9-0.5-2.9-0.5c0,0.3-0.1,1.9-0.1,2.7v0.5c0,1,0,2.9,0.1,3.7
			c0.2,0,1.2,0.1,1.4,0.2l0,0.2c-0.3,0-1.6,0-2.2,0c-0.5,0-1.8,0-2.2,0l0.1-0.2c0.3,0,1.2-0.1,1.4-0.2c0-0.9,0.1-2.8,0.1-3.7
			L384.4,3198.1z"/>
	</g>
	<g id="Group_1541" transform="translate(-0.281 -2455.189)">
		<g id="Group_1540">
			<path id="Path_7539" class="st1" d="M321.4,3208.7c0.9,0.1,1.8,0.4,2.6,0.7c0.4,0.1,0.6,0.5,0.6,0.9c0,0.4-0.2,0.7-0.4,0.9
				c-0.1,0.1-0.1,0.1-0.2,0.2h2.6c0.4-1,0.6-2.1,0.6-3.2c0.8,0.1,1.5,0.3,2,0.4c0.8,0.1,1.1,0.3,1.1,0.5c0,0.1-0.2,0.2-0.6,0.4
				c-0.3,0-0.5,0.1-0.5,0.2c-0.6,0.7-1.3,1.2-2.1,1.7h2.6c0.2-0.2,0.5-0.5,0.7-0.8c0.5-0.6,0.8-0.9,0.9-0.9c0.3,0,0.7,0.3,1.2,0.8
				c0.5,0.6,0.8,0.9,0.8,1.1c0,0.2-0.1,0.3-0.4,0.3h-6v2h2c0.2-0.2,0.4-0.5,0.6-0.8c0.4-0.6,0.7-0.9,0.8-0.9c0.2,0,0.6,0.3,1.1,0.8
				c0.5,0.5,0.8,0.9,0.8,1c0,0.2-0.1,0.3-0.3,0.3h-4.9v2.1h3.7c0.2-0.2,0.5-0.5,0.7-0.8c0.5-0.6,0.8-0.9,0.8-0.9
				c0.3,0,0.7,0.3,1.2,0.8c0.5,0.6,0.8,0.9,0.8,1c0,0.2-0.1,0.3-0.4,0.3h-7.9c0.1,0,0.2,0,0.3,0.1c0.8,0.2,1.2,0.3,1.2,0.5
				c0,0.2-0.2,0.3-0.5,0.4c-0.2,0.1-0.4,0.2-0.5,0.5c-0.1,0.3-0.2,0.6-0.2,0.9h4.5c0.3-0.2,0.5-0.5,0.7-0.8c0.5-0.6,0.8-0.9,0.9-0.9
				c0.3,0,0.7,0.3,1.2,0.8c0.5,0.6,0.8,0.9,0.8,1c0,0.2-0.1,0.3-0.4,0.3H327c0.5,0.6,1.2,1.1,1.9,1.4c0.6,0.3,1.3,0.6,2,0.7
				c1.1,0.3,2.2,0.5,3.3,0.6l-0.2,0.4c-0.5,0.2-0.8,0.5-1,1c-0.1,0.4-0.2,0.6-0.2,0.6c-0.6-0.1-1.1-0.3-1.6-0.5
				c-0.8-0.3-1.5-0.6-2.2-1.1c-0.6-0.4-1.1-0.9-1.5-1.5c-0.4-0.6-0.8-1.2-1.1-1.8h-0.4c-0.2,0.7-0.6,1.3-1,1.9
				c-0.7,0.7-1.5,1.3-2.3,1.8c-1.5,0.6-3,1.1-4.6,1.3l-0.1-0.2c1.4-0.5,2.7-1.1,3.9-1.9c0.8-0.5,1.4-1.2,1.9-2
				c0.2-0.3,0.3-0.6,0.4-0.9h-3.4c-0.7,0-1.5,0-2.2,0.1l-0.3-0.7c0.8,0.1,1.6,0.2,2.5,0.1h3.5c0.2-0.8,0.3-1.5,0.3-2.3h-3.9
				c-1,0-1.8,0-2.2,0.1l-0.3-0.7c0.8,0.1,1.7,0.1,2.5,0.1h4.3v-2.1h-2.4c-1,0-1.7,0-2.2,0.1l-0.3-0.7c0.8,0.1,1.6,0.2,2.5,0.2h2.4
				v-2h-3.5c-1,0-1.8,0-2.2,0.1l-0.3-0.7c0.8,0.1,1.6,0.2,2.5,0.1h1.7c-0.2-0.2-0.3-0.3-0.4-0.6c-0.3-0.7-0.8-1.4-1.4-1.9
				L321.4,3208.7z"/>
			<path id="Path_7540" class="st1" d="M345,3208.2c0.6,0.2,1.1,0.3,1.6,0.5c0.6,0.2,0.9,0.3,0.9,0.4c0,0.2-0.2,0.3-0.5,0.3
				c0,0,0,0-0.1,0c1,0.7,2,1.3,3.2,1.8c1.3,0.5,2.7,0.8,4,1l-0.1,0.4c-0.5,0.2-0.9,0.5-1.1,1c-0.1,0.4-0.3,0.6-0.4,0.6
				c-0.6-0.1-1.2-0.4-1.7-0.7c-1-0.5-1.9-1.1-2.7-1.8c-0.6-0.6-1.2-1.2-1.7-1.9c-0.9,1-2,1.9-3.2,2.7c0.4,0.1,0.8,0.1,1.2,0.1h1.8
				c0.1-0.2,0.3-0.5,0.4-0.7c0.2-0.4,0.3-0.6,0.4-0.6c0.1,0,0.4,0.2,0.7,0.7c0.2,0.2,0.4,0.5,0.5,0.8c0,0.2-0.1,0.3-0.2,0.3h-3.6
				c-0.4,0-0.8,0-1.4,0.1l-0.2-0.4c-0.5,0.3-1,0.6-1.6,0.9c0.6,0.2,1.1,0.3,1.7,0.6h5c0.2-0.3,0.5-0.6,0.8-0.8
				c0.1-0.2,0.3-0.3,0.5-0.3c0.4,0.1,0.7,0.3,1,0.5c0.6,0.4,0.9,0.7,0.9,0.9c0,0.2-0.2,0.4-0.4,0.5c-0.2,0.1-0.3,0.3-0.3,0.5v1.2
				c0,0.6,0,1.3,0.1,2.3c0,0.1,0,0.1-0.1,0.2l1.2,0.8c0.5,0.3,0.7,0.6,0.7,0.8c0,0.2-0.1,0.3-0.3,0.3l-0.6-0.1
				c-0.8,0.3-1.6,0.6-2.4,0.9c0.1,0,0.1,0,0.2,0.1c1.3,0.5,2.7,0.8,4.1,0.9l-0.1,0.4c-0.5,0.1-0.8,0.5-0.9,0.9
				c-0.1,0.4-0.2,0.6-0.3,0.6c-0.7,0-1.3-0.2-1.9-0.5c-0.9-0.3-1.8-0.8-2.5-1.3c-0.7-0.5-1.2-1.1-1.7-1.8c-0.4-0.7-0.8-1.4-1-2.2
				h-2.2v3.1c1.1-0.1,2.2-0.3,3.2-0.4l0.1,0.3c-1.7,1.1-3.6,1.8-5.6,2.3c-0.2,0-0.3,0.1-0.3,0.2l-0.1,0.3c0,0.2-0.1,0.2-0.2,0.2
				c-0.2,0-0.5-0.4-0.9-1.3l-0.5-1.2c0.8-0.1,1.6-0.1,2.4-0.2v-5.3c0-1,0-2-0.2-3c-0.9,0.5-2,0.9-3.1,1.3l-0.1-0.3
				c1.5-0.8,2.9-1.8,4.2-2.9C343,3210.8,344.1,3209.6,345,3208.2z M342.9,3216.1h5.7v-1.6h-5.7V3216.1z M342.9,3218.2h5.7v-1.6h-5.7
				V3218.2z M345.5,3218.7c0.4,0.7,1,1.3,1.7,1.9c0.3,0.3,0.7,0.6,1.1,0.8c0.2-0.2,0.4-0.4,0.6-0.7c0.3-0.4,0.6-0.8,0.9-1.2
				c0,0-0.1,0-0.1,0c-0.2,0-0.4,0-0.6,0.1c-0.3,0-0.5-0.2-0.5-0.6v-0.3H345.5z"/>
			<path id="Path_7541" class="st1" d="M364.3,3208.8c0.6,0.1,1.3,0.2,1.9,0.3c0.9,0.2,1.3,0.4,1.3,0.5c0,0.2-0.1,0.3-0.4,0.4
				c-0.2,0.1-0.3,0.1-0.4,0.2c0,1.5,0.2,3,0.6,4.5c0.4,1.1,0.9,2.1,1.5,3c0.5,0.9,1.2,1.7,2,2.4c1,0.8,2,1.4,3.1,2l-0.1,0.5
				c-0.6,0.1-1.1,0.4-1.4,1c-0.2,0.4-0.4,0.6-0.6,0.6c-0.3,0-0.8-0.4-1.6-1.3c-1-1-1.8-2.2-2.4-3.4c-0.6-1.2-1-2.5-1.2-3.8
				c-0.1-1-0.2-2-0.3-3.1c-0.1,1.9-0.6,3.8-1.3,5.6c-0.6,1.5-1.6,2.7-2.8,3.8c-1.3,1.1-2.7,1.9-4.2,2.6l-0.1-0.4
				c1.3-0.9,2.5-2,3.5-3.2c1-1.2,1.7-2.6,2.2-4.2c0.5-1.8,0.7-3.6,0.7-5.5C364.3,3210.3,364.3,3209.5,364.3,3208.8z"/>
			<path id="Path_7542" class="st1" d="M378.7,3211.4c0.4,0.6,0.6,1.4,0.6,2.1c0.1,0.6-0.1,1.2-0.5,1.6c-0.3,0.3-0.6,0.4-1,0.4
				c-0.2,0-0.4-0.1-0.5-0.2c-0.1-0.1-0.2-0.3-0.2-0.5c0.1-0.4,0.3-0.7,0.6-1c0.4-0.7,0.6-1.5,0.7-2.3L378.7,3211.4z M379.4,3208.2
				c0.5,0,1.2,0.1,2,0.3c0.6,0.1,0.9,0.2,0.9,0.4c0,0.2-0.2,0.3-0.5,0.4c-0.3,0.1-0.4,0.2-0.4,0.4v14.4c0,0.2-0.3,0.4-0.8,0.5
				c-0.2,0-0.3,0-0.5,0.1c-0.4,0-0.6-0.2-0.6-0.6c0.1-1.1,0.1-2.1,0.1-3v-9.9C379.6,3210.1,379.5,3209.1,379.4,3208.2L379.4,3208.2z
				 M381.8,3210.8c0.5,0.2,0.9,0.5,1.3,0.9c0.2,0.2,0.4,0.6,0.4,0.9c0,0.3-0.1,0.7-0.3,0.9c-0.2,0.2-0.5,0.4-0.8,0.4
				c-0.1,0-0.2-0.1-0.3-0.2c-0.1-0.3-0.2-0.6-0.2-0.8c-0.1-0.6-0.2-1.3-0.4-1.9L381.8,3210.8z M382.7,3210.2
				c0.8,0.1,1.6,0.2,2.5,0.1h1.6v-0.6c0-0.5-0.1-1-0.2-1.5c0.8,0.1,1.5,0.2,2.3,0.3c0.5,0,0.7,0.1,0.7,0.4c0,0.1-0.1,0.2-0.4,0.3
				c-0.3,0.2-0.5,0.3-0.5,0.5v0.6h1.7c0.2-0.2,0.4-0.4,0.6-0.7c0.4-0.5,0.6-0.7,0.7-0.7c0.2,0,0.6,0.2,1,0.7s0.7,0.8,0.7,0.9
				c0,0.1-0.1,0.3-0.2,0.3c0,0,0,0-0.1,0h-4.4v1.5h1.1c0.2-0.2,0.4-0.4,0.5-0.6c0.4-0.5,0.6-0.7,0.7-0.7c0.2,0,0.5,0.2,1,0.7
				c0.4,0.5,0.6,0.8,0.6,0.9c0,0.2-0.1,0.3-0.3,0.3h-3.7v1.6h2.2c0.2-0.2,0.4-0.4,0.6-0.7c0.4-0.5,0.7-0.8,0.7-0.8
				c0.2,0,0.5,0.2,1,0.7c0.5,0.5,0.7,0.8,0.7,0.9c0,0.2-0.1,0.3-0.3,0.3h-8.9c-1,0-1.8,0-2.2,0.1l-0.3-0.7c0.8,0.1,1.6,0.2,2.5,0.1
				h2.1v-1.6H386c-1,0-1.8,0-2.2,0.1l-0.3-0.7c0.8,0.1,1.6,0.2,2.5,0.1h0.7v-1.5h-1.6c-0.7,0-1.4,0-2.2,0.1L382.7,3210.2z
				 M383.3,3215.4c0.9,0.2,1.7,0.5,2.6,0.9h3.8c0.2-0.2,0.3-0.4,0.4-0.5c0.4-0.4,0.6-0.5,0.7-0.5c0.4,0.1,0.8,0.3,1.2,0.6
				c0.6,0.4,0.8,0.7,0.8,0.9c0,0.1-0.1,0.3-0.4,0.5c-0.3,0.2-0.5,0.5-0.5,0.7v5c0,0.6-0.4,1.2-1,1.4c-0.4,0.2-0.9,0.4-1.4,0.4
				c-0.1,0-0.3-0.2-0.4-0.7c-0.2-0.6-0.8-1-1.8-1.4l0.1-0.3c0.7,0.2,1.4,0.2,2.1,0.3c0.3,0,0.5-0.2,0.5-0.6v-1h-4.6v3.3
				c0,0.2-0.3,0.4-0.9,0.5c-0.3,0-0.5,0-0.6,0c-0.3,0-0.5-0.1-0.6-0.4c0-0.1,0-0.1,0-0.2c0-0.6,0.1-1.3,0.1-1.9v-4.3
				C383.4,3217.1,383.4,3216.2,383.3,3215.4L383.3,3215.4z M385.4,3218.2h4.6v-1.4h-4.6V3218.2z M385.4,3220.4h4.6v-1.7h-4.6V3220.4
				z"/>
			<path id="Path_7543" class="st1" d="M397.6,3210c0.8,0.2,1.6,0.6,2.4,0.9h0.3c0.3-0.3,0.5-0.6,0.7-0.9c0.1-0.2,0.3-0.3,0.5-0.3
				c0.4,0.1,0.7,0.3,1,0.5c0.6,0.4,0.9,0.7,0.9,0.9c0,0.2-0.1,0.4-0.3,0.5c-0.1,0.1-0.2,0.3-0.2,0.5v5.6c0,0.6,0,1.3,0.1,2.2
				c0,0.2-0.3,0.4-0.9,0.5c-0.2,0-0.4,0-0.6,0.1c-0.3,0-0.5-0.2-0.5-0.6v-0.6h-1.3v1c0,0.2-0.3,0.4-0.8,0.5c-0.2,0-0.4,0-0.6,0.1
				c-0.4,0-0.5-0.2-0.5-0.6c0-0.6,0.1-1.2,0.1-1.8v-5.9C397.7,3211.7,397.7,3210.8,397.6,3210z M399.6,3218.7h1.3v-7.3h-1.3V3218.7z
				 M403.5,3211.8c0.8,0.1,1.7,0.2,2.5,0.1h0.7v-0.6c0-1.1-0.1-2.1-0.2-3.2c0.6,0,1.2,0.1,2.1,0.3c0.6,0.1,0.9,0.2,0.9,0.4
				c0,0.2-0.2,0.3-0.5,0.5c-0.2,0-0.4,0.2-0.4,0.4v2.2h0.7c0.2-0.2,0.4-0.5,0.6-0.7c0.4-0.5,0.7-0.8,0.8-0.8c0.2,0,0.6,0.3,1.1,0.8
				c0.5,0.5,0.7,0.8,0.7,0.9c0,0.2-0.1,0.3-0.3,0.3h-3.5v3.2h1.4c0.3-0.2,0.5-0.5,0.7-0.8c0.5-0.6,0.8-0.9,0.9-0.9
				c0.3,0,0.7,0.3,1.2,0.8c0.5,0.6,0.8,0.9,0.8,1c0,0.2-0.1,0.3-0.4,0.3h-4.2c0.6,1.2,1.3,2.3,2.2,3.2c0.8,0.7,1.6,1.3,2.6,1.6
				l-0.1,0.4c-0.5,0.2-0.9,0.6-1.1,1.1c-0.1,0.4-0.3,0.7-0.5,0.7c-0.1,0-0.5-0.3-1-1c-0.6-0.8-1.2-1.7-1.6-2.6
				c-0.4-0.8-0.7-1.7-1-2.6v7.2c0,0.2-0.3,0.4-0.9,0.5c-0.2,0-0.4,0-0.5,0.1c-0.4,0-0.6-0.2-0.6-0.6c0.1-1.1,0.2-2.2,0.2-3.1v-2.8
				c-0.3,0.5-0.6,1-0.9,1.5c-0.6,0.8-1.3,1.5-2,2.1c-0.8,0.6-1.6,1.1-2.5,1.5l-0.1-0.2c1-0.8,1.9-1.8,2.7-2.9c0.8-1.3,1.5-2.7,2-4.1
				h-0.3c-1,0-1.7,0-2.2,0.1l-0.3-0.7c0.8,0.1,1.6,0.2,2.4,0.1h1.2v-3.2H406c-1,0-1.8,0-2.2,0.1L403.5,3211.8z"/>
		</g>
	</g>
	<path id="Path_7550" class="st0" d="M282.4,732l-17.9,13.4v26.8h35.8v-26.8L282.4,732z M283.5,753.2c0,1.8-1.5,3.4-3.3,3.4
		c0,0,0,0,0,0v8.9h-2.2v-8.9c-1.8,0-3.4-1.5-3.4-3.3c0,0,0,0,0,0v-6.7h2.2v6.7h1.1v-6.7h2.2v6.7h1.1v-6.7h2.2V753.2z M289.1,765.5
		h-2.2v-7.8h-2.2V751c0-2.5,2-4.5,4.5-4.5L289.1,765.5z"/>
</g>
</svg>
