<?xml version="1.0" encoding="utf-8"?>
<!-- Generator: Adobe Illustrator 24.0.3, SVG Export Plug-In . SVG Version: 6.00 Build 0)  -->
<svg version="1.1" id="圖層_1" xmlns="http://www.w3.org/2000/svg" xmlns:xlink="http://www.w3.org/1999/xlink" x="0px" y="0px"
	 viewBox="0 0 302.1 83.4" style="enable-background:new 0 0 302.1 83.4;" xml:space="preserve">
<style type="text/css">
	.st0{fill:#B78E66;}
	.st1{enable-background:new    ;}
	.st2{fill:#FFFFFF;}
</style>
<g id="section2_title" transform="translate(-236.972 -247)">
	<rect id="Rectangle_132" x="257" y="329.6" class="st0" width="88.1" height="0.8"/>
	<rect id="Rectangle_133" x="237" y="268.3" class="st0" width="302.1" height="56.8"/>
	<g class="st1">
		<path class="st2" d="M259.4,258.4h14.8v2.5h-12.1v6.2h11.2v2.4h-11.2v6.9h12.3v2.4h-15L259.4,258.4L259.4,258.4z"/>
		<path class="st2" d="M281,258.4h3.3l10.2,16.5v-16.5h2.6v20.4H294l-10.3-16.5v16.5H281V258.4z"/>
		<path class="st2" d="M306,258.4l5.9,17.4l5.8-17.4h3.1l-7.4,20.4h-2.9l-7.4-20.4H306z"/>
		<path class="st2" d="M326.8,258.4h2.8v20.4h-2.8V258.4z"/>
		<path class="st2" d="M337.3,258.4h9.3c1.5,0,2.8,0.2,3.8,0.7c1.9,0.9,2.8,2.5,2.8,4.8c0,1.2-0.3,2.2-0.8,3s-1.2,1.4-2.1,1.9
			c0.8,0.3,1.4,0.8,1.8,1.3s0.6,1.4,0.7,2.6l0.1,2.7c0,0.8,0.1,1.4,0.2,1.7c0.2,0.6,0.5,1.1,0.9,1.2v0.5h-3.4
			c-0.1-0.2-0.2-0.4-0.2-0.7c-0.1-0.3-0.1-0.8-0.1-1.6l-0.2-3.4c-0.1-1.3-0.5-2.2-1.4-2.7c-0.5-0.3-1.3-0.4-2.4-0.4h-6.1v8.8h-2.8
			L337.3,258.4L337.3,258.4z M346.3,267.7c1.3,0,2.3-0.3,3-0.8s1.1-1.5,1.1-2.8c0-1.5-0.5-2.4-1.5-3c-0.5-0.3-1.3-0.4-2.2-0.4h-6.6
			v7L346.3,267.7L346.3,267.7z"/>
		<path class="st2" d="M377.2,261.3c1.4,1.8,2,4.1,2,6.9c0,3-0.8,5.6-2.3,7.6c-1.8,2.4-4.4,3.6-7.8,3.6c-3.1,0-5.6-1-7.4-3.1
			c-1.6-2-2.4-4.5-2.4-7.6c0-2.8,0.7-5.1,2.1-7.1c1.8-2.5,4.4-3.8,7.8-3.8C372.8,257.8,375.4,259,377.2,261.3z M374.7,274.3
			c1.1-1.7,1.6-3.8,1.6-6c0-2.4-0.6-4.3-1.9-5.8s-3-2.2-5.1-2.2s-3.8,0.7-5.2,2.2s-2,3.6-2,6.4c0,2.3,0.6,4.2,1.7,5.7
			c1.1,1.6,3,2.3,5.6,2.3C371.9,276.9,373.6,276.1,374.7,274.3z"/>
		<path class="st2" d="M385.3,258.4h3.3l10.2,16.5v-16.5h2.6v20.4h-3.1L388,262.3v16.5h-2.6v-20.4H385.3z"/>
		<path class="st2" d="M408.7,258.4h4l5.9,17.3l5.8-17.3h3.9v20.4h-2.6v-12c0-0.4,0-1.1,0-2.1s0-2,0-3.1l-5.8,17.2h-2.7l-5.9-17.2
			v0.6c0,0.5,0,1.3,0,2.3s0,1.8,0,2.3v12h-2.6L408.7,258.4L408.7,258.4z"/>
		<path class="st2" d="M435.6,258.4h14.8v2.5h-12.1v6.2h11.2v2.4h-11.2v6.9h12.3v2.4h-15L435.6,258.4L435.6,258.4z"/>
		<path class="st2" d="M457.1,258.4h3.3l10.2,16.5v-16.5h2.6v20.4h-3.1l-10.3-16.5v16.5h-2.6v-20.4H457.1z"/>
		<path class="st2" d="M495.3,258.4v2.4h-6.9v18h-2.8v-18h-6.9v-2.4H495.3z"/>
	</g>
	<g class="st1">
		<path class="st2" d="M274,292.5v2.4h-6.9v18h-2.8v-18h-6.9v-2.4H274z"/>
		<path class="st2" d="M279.7,292.5h9.3c1.5,0,2.8,0.2,3.8,0.7c1.9,0.9,2.8,2.5,2.8,4.8c0,1.2-0.3,2.2-0.8,3s-1.2,1.4-2.1,1.9
			c0.8,0.3,1.4,0.8,1.8,1.3s0.6,1.4,0.7,2.6l0.1,2.7c0,0.8,0.1,1.4,0.2,1.7c0.2,0.6,0.5,1.1,0.9,1.2v0.5H293
			c-0.1-0.2-0.2-0.4-0.2-0.7c-0.1-0.3-0.1-0.8-0.1-1.6l-0.2-3.4c-0.1-1.3-0.5-2.2-1.4-2.7c-0.5-0.3-1.3-0.4-2.4-0.4h-6.1v8.8h-2.8
			L279.7,292.5L279.7,292.5z M288.7,301.9c1.3,0,2.3-0.3,3-0.8s1.1-1.5,1.1-2.8c0-1.5-0.5-2.4-1.5-3c-0.5-0.3-1.3-0.4-2.2-0.4h-6.6
			v7L288.7,301.9L288.7,301.9z"/>
		<path class="st2" d="M308.7,292.5h3.1l7.4,20.4h-3l-2.1-6.1H306l-2.2,6.1H301L308.7,292.5z M313.3,304.6l-3.1-9l-3.3,9H313.3z"/>
		<path class="st2" d="M324.9,292.5H339v2.5h-11.4v6.2h10v2.4h-10v9.3h-2.8L324.9,292.5L324.9,292.5z"/>
		<path class="st2" d="M345.1,292.5h14.2v2.5h-11.4v6.2h10v2.4h-10v9.3h-2.8L345.1,292.5L345.1,292.5z"/>
		<path class="st2" d="M365.7,292.5h2.8v20.4h-2.8V292.5z"/>
		<path class="st2" d="M390.3,294c1.4,1.4,2.2,2.9,2.3,4.6h-2.7c-0.3-1.3-0.9-2.4-1.8-3.1c-0.9-0.8-2.2-1.2-3.8-1.2
			c-2,0-3.6,0.7-4.8,2.1c-1.2,1.4-1.8,3.6-1.8,6.5c0,2.4,0.5,4.3,1.6,5.8s2.7,2.2,4.9,2.2c2,0,3.5-0.8,4.6-2.3
			c0.6-0.8,1-1.9,1.2-3.3h2.7c-0.2,2.1-1,4-2.4,5.4c-1.6,1.8-3.8,2.6-6.5,2.6c-2.3,0-4.3-0.7-5.9-2.2c-2.1-1.9-3.1-4.8-3.1-8.8
			c0-3,0.8-5.5,2.4-7.4c1.7-2.1,4.1-3.1,7-3.1C386.9,292,388.8,292.7,390.3,294z"/>
	</g>
</g>
</svg>
