<?xml version="1.0" encoding="utf-8"?>
<!-- Generator: Adobe Illustrator 24.0.3, SVG Export Plug-In . SVG Version: 6.00 Build 0)  -->
<svg version="1.1" id="圖層_1" xmlns="http://www.w3.org/2000/svg" xmlns:xlink="http://www.w3.org/1999/xlink" x="0px" y="0px"
	 viewBox="0 0 154 44" style="enable-background:new 0 0 154 44;" xml:space="preserve">
<style type="text/css">
	.st0{fill:#B78E66;}
	.st1{fill:#FCFCFC;}
</style>
<g id="section2_list4" transform="translate(-260 -835.237)">
	<g id="Group_1537" transform="translate(-0.076 -2455.189)">
		<path id="Path_7526" class="st0" d="M324.5,3305c0,0.4,0,1,0,1.3c-0.9,0.2-1.9,0.3-2.8,0.4c-1,0-2-0.1-2.9-0.5
			c-1.3-0.6-2.2-1.9-2.2-3.3c0-1.3,0.6-2.6,1.8-3.4c1-0.6,2.1-0.9,3.3-0.9c0.8,0,1.7,0.1,2.5,0.3c0-0.2,0.2-0.8,0.2-1l0.3-0.1
			c-0.1,1.1-0.2,2.3-0.2,3.4l-0.3-0.1c0-0.3-0.1-0.7-0.1-1c-0.7-0.8-1.8-1.2-2.9-1.1c-1.7-0.1-3.2,1.3-3.2,3c0,0.1,0,0.1,0,0.2
			c0,2.2,1.7,4,3.9,4.1c0.5,0,1-0.1,1.4-0.3c0-0.4,0-0.7,0-1.1v-0.6c0-0.3,0-0.6,0-0.9c-0.2,0-0.9-0.1-1.1-0.1l-0.1-0.2
			c0.6,0,1.4,0,1.8,0c0.5,0,1.6,0,1.7,0l-0.1,0.2c-0.1,0-0.7,0.1-1,0.1c0,0.2,0,0.9,0,1.2L324.5,3305z"/>
		<path id="Path_7527" class="st0" d="M328.9,3301.8c0-0.4,0-2.5-0.1-2.7c-0.2,0-0.9-0.1-1.2-0.1l0-0.2l2.4,0c1.1-0.1,2.1,0,3.1,0.3
			c0.6,0.2,0.9,0.7,1,1.3c-0.2,0.9-0.7,1.7-1.6,2.1c0.9,1.6,1.9,3,3.1,4.4l-0.5,0.1c-0.8-0.4-3.7-3.8-3.9-4c-0.4,0-0.9,0.1-1.1,0.1
			v0.3c0,0.7,0,2.4,0.1,2.9c0.4,0.1,0.8,0.1,1.2,0.2l0,0.2c-0.3,0-1.4,0-1.9,0c-0.5,0-1.6,0-1.9,0l0-0.2c0.4,0,0.8-0.1,1.2-0.2
			c0-0.3,0.1-2.5,0.1-3.7L328.9,3301.8z M330.2,3302.6c0.5,0,0.9-0.1,1.4-0.2c0.8-0.3,1.3-1,1.3-1.8c0-0.7-0.6-1.6-2.6-1.6
			c0,0.5-0.1,2.4-0.1,3.2L330.2,3302.6z"/>
		<path id="Path_7528" class="st0" d="M338.4,3302.2c0-1,0-2.8-0.1-3.1c-0.2,0-0.9-0.1-1.2-0.2l0-0.2c0.3,0,0.6,0,1,0s0.7,0,1,0
			c0.4,0,3,0,3.3-0.1c0-0.2,0.1-0.3,0.1-0.5l0.3,0c-0.1,0.2-0.2,2-0.2,2.3l-0.2-0.1c0-0.1,0-0.6,0-0.8c-0.2-0.3-1.9-0.5-2.5-0.5
			c0,0.2-0.1,2.3-0.1,3v0.2c0.8,0,1.5,0,2.3-0.2c0.1-0.2,0.1-0.3,0.1-0.5l0.2,0c0,0.2-0.2,1.7-0.3,2.1l-0.2-0.1c0-0.2,0-0.5,0-0.7
			c-0.7-0.2-1.4-0.3-2.2-0.2v0.2c0,0.7,0,3.1,0.1,3.4c0.9,0.1,1.8-0.1,2.7-0.4c0.1-0.4,0.2-0.7,0.2-1l0.3-0.1
			c-0.1,0.3-0.3,2-0.4,2.6l-0.2,0c0-0.3,0-0.5,0-0.7c-0.3-0.1-2.8-0.1-3.5-0.1c-0.4,0-1.3,0-1.7,0l0.1-0.2c0.4,0,0.8-0.1,1.1-0.2
			c0-0.2,0.1-2.2,0.1-3.5L338.4,3302.2z"/>
		<path id="Path_7529" class="st0" d="M346.6,3302.2c0-1,0-2.8-0.1-3.1c-0.2,0-0.9-0.1-1.2-0.2l0-0.2c0.3,0,0.6,0,1,0s0.7,0,1,0
			c0.4,0,3,0,3.3-0.1c0-0.2,0.1-0.3,0.1-0.5l0.3,0c-0.1,0.2-0.2,2-0.2,2.3l-0.2-0.1c0-0.1,0-0.6,0-0.8c-0.2-0.3-1.9-0.5-2.5-0.5
			c0,0.2-0.1,2.3-0.1,3v0.2c0.8,0,1.5,0,2.3-0.2c0.1-0.2,0.1-0.3,0.1-0.5l0.2,0c0,0.2-0.2,1.7-0.3,2.1l-0.2-0.1c0-0.2,0-0.5,0-0.7
			c-0.7-0.2-1.4-0.3-2.2-0.2v0.2c0,0.7,0,3.1,0.1,3.4c0.9,0.1,1.8-0.1,2.7-0.4c0.1-0.4,0.2-0.7,0.2-1l0.3-0.1
			c-0.1,0.3-0.3,2-0.4,2.6l-0.2,0c0-0.3,0-0.5,0-0.7c-0.3-0.1-2.8-0.1-3.5-0.1c-0.4,0-1.3,0-1.7,0l0.1-0.2c0.4,0,0.8-0.1,1.1-0.2
			c0-0.2,0.1-2.2,0.1-3.5L346.6,3302.2z"/>
		<path id="Path_7530" class="st0" d="M353.4,3298.8c0.6,0,1.7,0,2.5-0.1c0.2,0.4,2.5,3.2,2.7,3.4c0.3,0.3,2.1,2.5,2.4,2.8
			c0-1.9,0-3.8-0.2-5.7c-0.2,0-0.8-0.1-1.1-0.2l-0.1-0.2c0.2,0,1.4,0,1.7,0s1.2,0,1.4,0l0,0.2c-0.1,0-0.5,0.1-0.8,0.2
			c-0.1,0.8-0.2,1.6-0.2,2.4c0,0.5-0.1,5.2-0.2,5.6c-0.3-0.3-3.4-3.9-3.7-4.2c-0.2-0.2-2.3-2.7-2.6-3.2c0,0.2,0.1,6,0.2,6.4
			c0.2,0.1,1,0.1,1.2,0.2l0,0.2c-0.2,0-1.4,0-1.6,0c-0.3,0-1.2,0-1.5,0l0-0.2c0.3,0,0.6-0.1,0.9-0.2c0.2-0.5,0.3-6.7,0.3-7.1
			c-0.4-0.1-0.8-0.1-1.2-0.1L353.4,3298.8z"/>
		<path id="Path_7531" class="st0" d="M366,3302.2c0-1,0-2.8-0.1-3.1c-0.2,0-0.9-0.1-1.2-0.2l0-0.2c0.3,0,0.6,0,1,0s0.7,0,1,0
			c0.4,0,3,0,3.3-0.1c0-0.2,0.1-0.3,0.1-0.5l0.3,0c-0.1,0.2-0.2,2-0.2,2.3l-0.2-0.1c0-0.1,0-0.6,0-0.8c-0.2-0.3-1.9-0.5-2.5-0.5
			c0,0.2-0.1,2.3-0.1,3v0.2c0.8,0,1.5,0,2.3-0.2c0.1-0.2,0.1-0.3,0.1-0.5l0.2,0c0,0.2-0.2,1.7-0.3,2.1l-0.2-0.1c0-0.2,0-0.5,0-0.7
			c-0.7-0.2-1.4-0.3-2.2-0.2v0.2c0,0.7,0,3.1,0.1,3.4c0.9,0.1,1.8-0.1,2.7-0.4c0.1-0.4,0.2-0.7,0.2-1l0.3-0.1
			c-0.1,0.3-0.3,2-0.4,2.6l-0.2,0c0-0.3,0-0.5,0-0.7c-0.3-0.1-2.8-0.1-3.5-0.1c-0.4,0-1.3,0-1.7,0l0.1-0.2c0.4,0,0.8-0.1,1.1-0.2
			c0-0.2,0.1-2.2,0.1-3.5L366,3302.2z"/>
		<path id="Path_7532" class="st0" d="M374.2,3301.8c0-0.4,0-2.5-0.1-2.7c-0.2,0-0.9-0.1-1.2-0.1l0-0.2l2.4,0c1.1-0.1,2.1,0,3.1,0.3
			c0.6,0.2,0.9,0.7,1,1.3c-0.2,0.9-0.7,1.7-1.6,2.1c0.9,1.6,1.9,3,3.1,4.4l-0.5,0.1c-0.8-0.4-3.7-3.8-3.9-4c-0.4,0-0.9,0.1-1.1,0.1
			v0.3c0,0.7,0,2.4,0.1,2.9c0.4,0.1,0.8,0.1,1.2,0.2l0,0.2c-0.3,0-1.4,0-1.9,0c-0.5,0-1.6,0-1.9,0l0-0.2c0.4,0,0.8-0.1,1.2-0.2
			c0-0.3,0.1-2.5,0.1-3.7L374.2,3301.8z M375.5,3302.6c0.5,0,0.9-0.1,1.4-0.2c0.8-0.3,1.3-1,1.3-1.8c0-0.7-0.6-1.6-2.6-1.6
			c0,0.5-0.1,2.4-0.1,3.2V3302.6z"/>
		<path id="Path_7533" class="st0" d="M384.8,3303.7c0-0.2,0-0.5,0-0.7c-0.8-1.4-1.7-2.7-2.7-3.9c-0.3-0.1-0.5-0.1-0.8-0.2l0-0.2
			c0.2,0,0.9,0,1.9,0c0.6,0,1.4,0,1.5,0l-0.1,0.2c-0.2,0-0.7,0.1-1,0.2c0.7,1.2,1.8,2.8,2.1,3.4c0.7-1.1,1.4-2.2,1.9-3.4
			c-0.2-0.1-0.7-0.1-0.9-0.2l0-0.2c0.2,0,0.8,0,1.4,0c0.5,0,1.1,0,1.3,0l0,0.2c-0.2,0-0.5,0.1-0.8,0.2c-1,1.2-1.9,2.4-2.7,3.8
			c0,0.3,0,0.5,0,0.8v0.4c0,0.3,0,1.8,0.1,2.1c0.1,0,0.9,0.1,1.1,0.2l0,0.2c-0.2,0-1.2,0-2,0c-0.4,0-1.2,0-1.5,0l0.1-0.2
			c0.3,0,0.7-0.1,1-0.2c0-0.2,0.1-1.4,0.1-2.1L384.8,3303.7z"/>
	</g>
	<g id="Group_1543" transform="translate(-0.211 -2455.189)">
		<g id="Group_1542">
			<path id="Path_7544" class="st1" d="M321,3314.8c0.6,0.2,1.1,0.4,1.6,0.6c0.5,0.2,0.8,0.4,0.8,0.6c0,0.1-0.1,0.2-0.4,0.2
				s-0.4,0.1-0.4,0.1c-0.9,1.2-1.9,2.3-3,3.3c0.8,0,1.5,0,2.2-0.1c-0.1-0.3-0.2-0.6-0.4-0.9l0.1-0.1c0.6,0.3,1.1,0.6,1.5,1.1
				c0.3,0.3,0.5,0.7,0.5,1.1c0,0.3-0.1,0.6-0.2,0.8c-0.2,0.2-0.4,0.3-0.7,0.3c-0.2,0-0.3,0-0.4-0.1c-0.1-0.1-0.2-0.4-0.2-0.9
				c0-0.2-0.1-0.4-0.1-0.6c-0.3,0.1-0.6,0.3-0.8,0.4v4.7c0,1.1,0,2,0.1,2.7c0,0.2-0.3,0.4-0.9,0.5c-0.2,0-0.4,0-0.6,0.1
				c-0.3,0-0.4-0.2-0.4-0.5c0-0.6,0.1-1.5,0.1-2.7v-1.5c0,0-0.1,0-0.2,0c-0.3,0-0.4,0.1-0.4,0.2c-0.3,1.4-0.9,2.7-1.7,3.8l-0.2-0.2
				c0.1-0.8,0.2-1.6,0.3-2.3c0.1-0.7,0.1-1.6,0.2-2.6c0.5,0.1,1,0.3,1.5,0.4c0.2,0,0.3,0.1,0.5,0.2v-2c-0.3,0.1-0.6,0.2-0.9,0.2
				c-0.2,0-0.2,0.1-0.2,0.2c0,0.1,0,0.1-0.1,0.2c0,0.1-0.1,0.2-0.2,0.2c-0.2,0-0.5-0.4-0.8-1.1c-0.1-0.2-0.2-0.6-0.4-1.1l1.9,0
				C319.6,3318.1,320.4,3316.5,321,3314.8z M319.4,3311.9c0.6,0.2,1.1,0.4,1.6,0.6c0.5,0.2,0.8,0.4,0.8,0.6c0,0.1-0.1,0.2-0.4,0.2
				c-0.2,0-0.3,0-0.4,0.1c-0.6,0.9-1.3,1.6-2.1,2.3c0.1,0.1,0.2,0.1,0.4,0.2c0.3,0.3,0.5,0.6,0.5,1.1c0,0.3-0.1,0.5-0.3,0.7
				c-0.2,0.2-0.4,0.2-0.6,0.2c-0.2,0-0.5-0.2-0.6-0.7c-0.3-0.7-0.7-1.4-1.2-2l0.1-0.2c0.4,0.1,0.8,0.2,1.2,0.4
				C318.7,3314.4,319.1,3313.2,319.4,3311.9L319.4,3311.9z M321.6,3321.9c0.5,0.3,0.9,0.8,1.2,1.2c0.1,0.1,0.2,0.3,0.2,0.4
				c1.3-0.4,2.6-0.9,3.9-1.5v-3.1h-1.8c-1,0-1.7,0-2.2,0.1l-0.3-0.7c0.8,0.1,1.6,0.2,2.4,0.1h2.9l0.4-1.6h-2.6l-0.1,0.4
				c0,0.2-0.4,0.3-1.1,0.4c-0.7,0-1-0.1-1-0.4c0.8-1.7,1.3-3.4,1.5-5.3c0.8,0.2,1.4,0.3,1.9,0.5c0.5,0.1,0.8,0.3,0.8,0.4
				c0,0.2-0.2,0.3-0.5,0.3c-0.2,0-0.4,0.2-0.5,0.4l-0.1,0.2h1.8c0.2-0.2,0.4-0.4,0.6-0.6c0.3-0.3,0.5-0.5,0.6-0.5
				c0.2,0,0.6,0.2,1.1,0.7c0.5,0.4,0.7,0.7,0.7,0.9c0,0.1-0.2,0.3-0.6,0.4c-0.3,0.1-0.5,0.2-0.5,0.4l-0.7,3.3h0.4
				c0.2-0.2,0.4-0.4,0.6-0.6c0.4-0.5,0.7-0.7,0.7-0.7c0.2,0,0.5,0.2,0.9,0.7c0.4,0.5,0.7,0.8,0.7,0.8c0,0.1-0.1,0.3-0.2,0.3
				c0,0,0,0-0.1,0h-4.1v0.6c0.2,0.6,0.4,1.2,0.6,1.7c0.1,0.2,0.2,0.4,0.3,0.6c0.2-0.2,0.4-0.5,0.6-0.7c0.3-0.5,0.6-1,0.8-1.5
				c0.5,0.3,1,0.7,1.5,0.9c0.4,0.3,0.7,0.5,0.7,0.7c0,0.2-0.1,0.2-0.2,0.2l-0.9-0.1c-0.7,0.3-1.4,0.6-2.1,0.9
				c0.2,0.4,0.5,0.8,0.9,1.1c0.7,0.7,1.5,1.3,2.4,1.7l-0.1,0.3c-0.4,0.1-0.8,0.4-1.1,0.8c-0.2,0.4-0.3,0.7-0.5,0.7s-0.3-0.2-0.7-0.6
				c-0.5-0.5-0.9-1.1-1.2-1.7c-0.4-0.7-0.7-1.4-0.9-2.2c0,0,0-0.1,0-0.1v3.7c0,1-0.3,1.6-0.9,1.9c-0.4,0.3-0.9,0.4-1.3,0.5
				c-0.1,0-0.2-0.2-0.3-0.6c-0.2-0.6-0.7-1.1-1.7-1.5l0.1-0.3c0.6,0.1,1.2,0.2,1.8,0.2c0.3,0,0.5-0.2,0.6-0.4c0,0,0-0.1,0-0.1v-2.7
				c-0.5,0.5-1.1,1-1.7,1.4c-0.3,0.2-0.6,0.4-0.9,0.6v0.4c0,0.2-0.1,0.3-0.2,0.3c-0.1,0-0.4-0.3-0.7-0.9c-0.1-0.1-0.1-0.2-0.2-0.3
				c0,0.3-0.1,0.6-0.3,0.8c-0.2,0.2-0.5,0.4-0.8,0.4c-0.1,0-0.2-0.1-0.3-0.2c-0.1-0.3-0.2-0.7-0.2-1.1c-0.1-0.8-0.2-1.6-0.4-2.4
				L321.6,3321.9z M324,3319.9c0.6,0.1,1.2,0.3,1.7,0.6c0.3,0.2,0.4,0.4,0.4,0.8c0,0.3-0.2,0.7-0.4,0.9c-0.2,0.2-0.5,0.3-0.7,0.3
				c-0.2,0-0.3-0.2-0.4-0.6c-0.2-0.6-0.4-1.2-0.8-1.7L324,3319.9z M325.9,3316.4h2.5l0.5-2.1h-2.3L325.9,3316.4z"/>
			<path id="Path_7545" class="st1" d="M343.6,3311.9c0.7,0.1,1.5,0.1,2.2,0.3c0.4,0,0.7,0.1,0.7,0.4c0,0.1-0.1,0.2-0.4,0.3
				c-0.3,0.1-0.5,0.3-0.5,0.5v0.8h3.5c0.2-0.2,0.4-0.4,0.5-0.6c0.4-0.5,0.6-0.7,0.7-0.7c0.2,0,0.5,0.2,1,0.7
				c0.4,0.5,0.7,0.7,0.7,0.8c0,0.2-0.1,0.3-0.3,0.3h-4.5l1,0.4c0.5,0.2,0.7,0.4,0.7,0.6c0,0.1-0.1,0.1-0.4,0.2c-0.1,0-0.3,0-0.4,0.1
				c-0.6,0.4-1.1,0.8-1.8,1.1h3.5c0.2-0.2,0.4-0.5,0.6-0.7c0.4-0.5,0.7-0.8,0.7-0.8c0.2,0,0.6,0.3,1.1,0.8c0.5,0.5,0.7,0.8,0.7,0.9
				c0,0.2-0.1,0.3-0.4,0.3h-13.6c-1,0-1.7,0-2.2,0.1l-0.3-0.7c0.8,0.1,1.6,0.2,2.4,0.2h2.6c-0.1-0.2-0.2-0.3-0.2-0.5
				c-0.1-0.5-0.4-1-0.8-1.4l0.2-0.2c0.6,0.1,1.2,0.3,1.8,0.5c0.4,0.2,0.6,0.4,0.6,0.5c0,0.3-0.1,0.7-0.3,1c-0.1,0.1-0.1,0.1-0.2,0.2
				h2.8c0.4-0.7,0.7-1.5,0.9-2.3h-6.4c-0.7,0-1.5,0-2.2,0.1l-0.3-0.7c0.8,0.1,1.6,0.2,2.5,0.1h3.7v-0.7
				C343.7,3312.9,343.7,3312.4,343.6,3311.9z M339.1,3324l0.4,0.1c0,0.8,0,1.6-0.2,2.4c-0.1,0.4-0.4,0.8-0.8,1
				c-0.2,0.1-0.4,0.2-0.7,0.2c-0.3,0-0.7-0.1-0.9-0.4c-0.2-0.2-0.4-0.5-0.3-0.8c0-0.2,0.2-0.3,0.7-0.5c0.4-0.2,0.8-0.4,1.1-0.7
				C338.7,3324.9,339,3324.5,339.1,3324L339.1,3324z M338.9,3317.6c0.9,0.2,1.7,0.5,2.5,0.9h6.3c0.2-0.3,0.5-0.5,0.8-0.7
				c0.1-0.2,0.3-0.3,0.5-0.3c0.4,0.1,0.7,0.3,1.1,0.5c0.6,0.4,1,0.7,1,0.9c0,0.2-0.2,0.4-0.4,0.5c-0.2,0.1-0.3,0.3-0.3,0.5v0.5
				c0,0.6,0,1.4,0.1,2.4c0,0.2-0.3,0.4-1,0.5c-0.2,0-0.4,0-0.7,0.1c-0.3,0-0.5-0.2-0.5-0.5v-0.2h-7.4c0,0.2-0.3,0.4-0.9,0.5
				c-0.2,0-0.4,0-0.5,0.1c-0.3,0-0.5-0.1-0.6-0.4c0-0.1,0-0.1,0-0.2c0-0.6,0.1-1.2,0.1-1.8v-0.8C339,3319.3,339,3318.4,338.9,3317.6
				L338.9,3317.6z M340.4,3323.7c0.6,0,1.2,0.1,2,0.2c0.7,0.1,1,0.2,1,0.4c0,0.2-0.2,0.4-0.5,0.5c-0.2,0.1-0.4,0.3-0.4,0.5v0.3
				c0,0.4,0.1,0.6,0.4,0.7c0.8,0.1,1.6,0.1,2.4,0.1c0.6,0,1.1,0,1.7-0.1c0.2,0,0.5-0.1,0.6-0.2c0.2-0.1,0.3-0.3,0.4-0.5
				c0.1-0.3,0.3-0.7,0.5-1.3l0.4,0.1c0,0.6,0.1,0.9,0.1,1.1c0,0.3,0.1,0.6,0.4,0.8c0.3,0.2,0.5,0.4,0.5,0.5c0,0.3-0.2,0.6-0.6,0.8
				c-0.4,0.2-0.7,0.3-1.1,0.3c-0.9,0.1-1.8,0.2-2.7,0.2c-1.2,0-2.4,0-3.5-0.2c-0.4-0.1-0.8-0.3-1-0.6c-0.2-0.4-0.2-0.8-0.2-1.2v-0.4
				C340.5,3325,340.5,3324.4,340.4,3323.7L340.4,3323.7z M340.9,3320.3h7.4v-1.3h-7.4V3320.3z M340.9,3322.3h7.4v-1.5h-7.4V3322.3z
				 M344,3322.9c0.7,0.1,1.4,0.4,2.1,0.7c0.3,0.2,0.5,0.5,0.5,0.9c0,0.4-0.2,0.7-0.4,0.9c-0.2,0.2-0.5,0.3-0.8,0.3
				c-0.2,0-0.4-0.2-0.5-0.7c-0.2-0.7-0.5-1.3-1-1.9L344,3322.9z M349.9,3323.5c0.8,0.3,1.5,0.7,2.1,1.2c0.5,0.3,0.8,0.8,0.9,1.4
				c0,0.4-0.2,0.8-0.5,1c-0.2,0.2-0.4,0.3-0.7,0.3c-0.2,0-0.4-0.1-0.5-0.2c-0.2-0.3-0.4-0.6-0.4-0.9c-0.2-0.9-0.6-1.8-1.1-2.6
				L349.9,3323.5z"/>
			<path id="Path_7546" class="st1" d="M363.4,3312c0.8,0.1,1.7,0.2,2.4,0.3c0.5,0,0.7,0.1,0.7,0.4c0,0.1-0.1,0.2-0.4,0.3
				c-0.3,0.2-0.5,0.3-0.5,0.5v2.1h3.6c0.3-0.2,0.5-0.5,0.7-0.8c0.5-0.6,0.8-0.9,0.9-0.9c0.3,0,0.7,0.3,1.2,0.8
				c0.5,0.6,0.8,0.9,0.8,1c0,0.2-0.1,0.3-0.4,0.3h-2.9c-0.4,1.7-1.1,3.3-1.9,4.8c-0.4,0.9-1,1.7-1.6,2.4c0.2,0.2,0.5,0.3,0.7,0.4
				c1.9,1.1,3.9,1.8,6.1,2.1l-0.1,0.4c-0.5,0.2-1,0.6-1.1,1.2c-0.1,0.5-0.2,0.7-0.3,0.7c-1-0.1-2-0.5-2.9-1
				c-1.3-0.6-2.5-1.5-3.6-2.5c-0.8,0.7-1.7,1.2-2.7,1.7c-1.7,0.9-3.5,1.5-5.4,1.9l-0.1-0.4c1.6-0.6,3.1-1.4,4.6-2.3
				c0.9-0.6,1.8-1.3,2.5-2.1c-0.6-0.8-1.2-1.7-1.6-2.7c-0.7-1.5-1.2-3.1-1.5-4.7h-1.2c-0.8,0-1.6,0-2.4,0.1l-0.3-0.8
				c1,0.1,2,0.2,3,0.2h4v-1.9C363.5,3313.1,363.5,3312.6,363.4,3312z M360.9,3316.1c0.6,1.7,1.5,3.4,2.6,4.9
				c0.3,0.5,0.7,0.9,1.1,1.3c0.5-0.7,0.8-1.4,1.1-2.1c0.6-1.3,1.1-2.7,1.5-4.1L360.9,3316.1z"/>
			<path id="Path_7547" class="st1" d="M378,3312c0.8,0.2,1.5,0.5,2.3,0.8h8.1c0.2-0.2,0.3-0.4,0.5-0.6c0.2-0.2,0.4-0.4,0.5-0.4
				c0.4,0.1,0.7,0.3,1.1,0.5c0.6,0.4,0.9,0.7,0.9,0.9s-0.2,0.3-0.5,0.5c-0.2,0.1-0.3,0.3-0.3,0.4c0,3.1,0.1,5.6,0.2,7.5
				c0,0.9,0.2,1.7,0.4,2.6c0.2,0.7,0.3,1,0.4,1s0.2-0.3,0.4-0.9c0.1-0.3,0.2-0.9,0.4-1.8l0.4,0.2c-0.2,1.8-0.3,2.8-0.3,3
				c0,0.4,0,0.7,0.1,1.1c0.1,0.2,0.1,0.5,0.2,0.7c0,0.4-0.2,0.7-0.5,0.7c-0.5,0-1-0.2-1.4-0.6c-0.5-0.5-0.8-1.1-1-1.7
				c-0.4-1.3-0.7-2.6-0.8-3.9c-0.2-1.8-0.3-4.7-0.3-8.6h-8.5v5.3c0,1.4-0.1,2.9-0.3,4.3c-0.2,1.1-0.7,2.2-1.2,3.1
				c-0.6,0.8-1.3,1.6-2.1,2.3l-0.3-0.1c0.7-1.1,1.2-2.3,1.5-3.5c0.4-2,0.6-4,0.5-6C378.2,3315.6,378.1,3313.4,378,3312z M387,3315.8
				c-0.5,0.1-1.1,0.2-1.8,0.3v1.6h0.3c0.2-0.2,0.4-0.5,0.7-0.7c0.1-0.1,0.3-0.2,0.5-0.3c0.3,0.1,0.6,0.2,0.9,0.4
				c0.6,0.4,0.8,0.6,0.8,0.8c0,0.2-0.1,0.4-0.3,0.5c-0.1,0.1-0.2,0.3-0.2,0.5v1.8c0,0.5,0,1.2,0.1,2c0,0.2-0.3,0.4-0.9,0.5
				c-0.2,0-0.4,0-0.5,0.1c-0.3,0-0.5-0.2-0.5-0.5v-0.4h-0.9v2.4c0.5,0,1-0.1,1.5-0.1c-0.2-0.4-0.4-0.8-0.6-1.2l0.2-0.2
				c0.7,0.3,1.4,0.7,2,1.2c0.5,0.3,0.8,0.8,0.8,1.4c0,0.4-0.1,0.7-0.4,0.9c-0.2,0.2-0.4,0.2-0.6,0.2c-0.2,0-0.4-0.1-0.5-0.2
				c-0.2-0.3-0.3-0.6-0.4-0.9c-0.1-0.4-0.2-0.7-0.3-1c-1.6,0.7-3.2,1.3-4.9,1.7c-0.2,0-0.3,0.1-0.3,0.2c0,0.1-0.1,0.2-0.1,0.2
				c0,0.2-0.1,0.2-0.2,0.2c-0.2,0-0.5-0.4-0.8-1.2c-0.1-0.2-0.2-0.6-0.5-1.1c1.1,0,2.3-0.1,3.3-0.1v-2.5h-0.9v0.6
				c0,0.2-0.3,0.3-0.8,0.4c-0.2,0-0.3,0-0.5,0.1c-0.3,0-0.5-0.2-0.5-0.5c0-0.6,0.1-1.1,0.1-1.7v-2.1c0-0.8,0-1.5-0.1-2.3
				c0.7,0.2,1.4,0.5,2.1,0.8h0.6v-1.4c-0.9,0.1-1.9,0.1-3,0.1l-0.2-0.4c1.2-0.2,2.4-0.4,3.6-0.8c0.8-0.3,1.6-0.6,2.4-1.1
				c0.6,0.4,1,0.6,1.2,0.8c0.5,0.4,0.8,0.6,0.8,0.8c0,0.1-0.1,0.2-0.3,0.2L387,3315.8z M382.6,3321.9h0.9v-3.7h-0.9L382.6,3321.9z
				 M385.2,3318.2v3.7h0.9v-3.7H385.2z"/>
			<path id="Path_7548" class="st1" d="M396.1,3320.3c0.5,0.1,1.1,0.2,1.6,0.2c0.2-0.2,0.4-0.4,0.6-0.6c0.2-0.3,0.4-0.4,0.6-0.4
				c0.2,0,0.5,0.2,0.9,0.6c0.5,0.4,0.8,0.7,0.8,0.8c0,0.2-0.1,0.3-0.4,0.5c-0.2,0.1-0.3,0.3-0.3,0.5v3.2c0.5,0.6,1.2,1,2,1.1
				c1.8,0.2,3.6,0.2,5.4,0.2c1.8,0,3.6-0.1,5.4-0.3l0.1,0.3c-0.4,0.1-0.8,0.5-1.1,1.3c0,0.3-0.1,0.5-0.3,0.5h-4.6
				c-1,0-2.4-0.1-4-0.2c-1.4-0.2-2.7-1-3.4-2.2c0,0-0.1,0.1-0.1,0.2c-0.4,0.7-0.9,1.3-1.4,1.9c0,0.5-0.1,0.7-0.3,0.7
				c-0.1,0-0.2-0.1-0.4-0.4c-0.3-0.6-0.6-1.3-1-2.1c0.8-0.1,1.4-0.3,1.8-0.4v-4.6c-0.5,0-1.1,0-1.6,0.1L396.1,3320.3z M396.6,3315.8
				c0.9,0.1,1.8,0.4,2.6,0.8c0.4,0.2,0.6,0.5,0.7,0.9c0,0.4-0.2,0.7-0.4,1c-0.2,0.2-0.5,0.3-0.8,0.3c-0.3,0-0.5-0.2-0.7-0.7
				c-0.3-0.8-0.8-1.4-1.4-2L396.6,3315.8z M401.9,3312.2c0.7,0.1,1.4,0.2,2,0.3c0.4,0,0.6,0.1,0.6,0.3c0,0.1-0.1,0.2-0.4,0.3
				c-0.3,0.1-0.4,0.3-0.4,0.4v1.7h0.5c0.1-0.1,0.3-0.3,0.4-0.4c0.3-0.3,0.5-0.5,0.5-0.5c0.2,0,0.4,0.2,0.7,0.5l0.4,0.4
				c0.1-0.2,0.1-0.4,0.2-0.6c0.2-0.9,0.4-1.8,0.5-2.7c0.6,0.2,1.1,0.3,1.7,0.5c0.5,0.2,0.8,0.3,0.8,0.5c0,0.2-0.1,0.3-0.4,0.3
				s-0.5,0.1-0.5,0.2c-0.1,0.4-0.3,0.8-0.5,1.1h1.4c0,0,0.2-0.2,0.5-0.5c0.5-0.5,0.8-0.8,0.9-0.8c0.1,0,0.5,0.3,1.1,0.9
				c0.4,0.4,0.6,0.6,0.6,0.7c0,0.2-0.1,0.3-0.4,0.3h-4.5c-0.1,0.2-0.2,0.3-0.3,0.4c-0.3,0.4-0.6,0.8-1,1.2c0.7,0.1,1.4,0.2,2.1,0.2
				h0.7c0.2-0.2,0.3-0.3,0.4-0.4c0.2-0.2,0.4-0.4,0.7-0.4c0.2,0,0.5,0.2,1.1,0.7c0.5,0.4,0.8,0.8,0.8,0.9c0,0.2-0.2,0.3-0.7,0.3
				c-0.2,0-0.5,0-0.7,0.2c-0.5,0.3-0.9,0.6-1.2,0.8c0.6,0.1,1,0.3,1,0.4c0,0.2-0.1,0.3-0.4,0.4c-0.3,0.1-0.5,0.2-0.5,0.4v0.8h0.5
				c0.2-0.2,0.3-0.3,0.4-0.5c0.3-0.4,0.5-0.6,0.5-0.6c0.2,0,0.4,0.2,0.8,0.6c0.4,0.4,0.6,0.6,0.6,0.7c0,0.2-0.1,0.3-0.2,0.3h-2.6
				v2.7c0.1,0.5-0.2,1.1-0.6,1.4c-0.4,0.3-0.8,0.4-1.3,0.5c-0.2,0-0.3-0.1-0.3-0.4c-0.1-0.5-0.6-1-1.7-1.4l0.1-0.4
				c0.5,0.1,1.1,0.2,1.6,0.2c0.2,0,0.4-0.1,0.4-0.3v-2.2c-0.8,0-1.4,0-1.8,0.1l-0.3-0.7c0.7,0.1,1.4,0.1,2,0.1v-0.7
				c0-0.6-0.1-1.1-0.2-1.7c0.4,0.1,0.8,0.1,1.1,0.2c0.2-0.4,0.3-0.8,0.5-1.3h-0.8c-0.7,0-1.5,0-2.2,0.1l-0.2-0.6
				c-0.1,0.1-0.2,0.2-0.3,0.3l-0.2-0.2c0.2-0.4,0.3-0.8,0.4-1.2h-3v2.2h0.6c0.2-0.2,0.4-0.3,0.5-0.4c0.1-0.1,0.3-0.2,0.5-0.3
				c0.4,0.1,0.8,0.3,1.1,0.6c0.4,0.3,0.7,0.6,0.7,0.8c0,0.1-0.1,0.2-0.3,0.3c-0.2,0.1-0.3,0.2-0.4,0.4c0,1-0.1,2.1-0.3,3.5
				c-0.1,0.8-0.3,1.5-0.6,2.2c-0.2,0.3-0.5,0.5-0.8,0.6c-0.2,0.2-0.5,0.2-0.8,0.3c-0.1,0-0.2-0.2-0.2-0.5c-0.2-0.6-0.6-1.1-1.2-1.4
				l0.1-0.3c0.3,0.1,0.6,0.1,1,0.1c0.2,0,0.4-0.1,0.5-0.3c0.2-0.6,0.3-1.2,0.3-1.8c0.1-1.1,0.2-2.2,0.2-3.3h-0.9
				c0,0.9-0.1,1.8-0.3,2.8c-0.2,0.8-0.5,1.6-0.9,2.3c-0.4,0.7-0.9,1.2-1.5,1.7l-0.2-0.2c0.3-0.5,0.5-1,0.6-1.6
				c0.2-0.7,0.4-1.4,0.5-2.1c0.1-1.1,0.2-2.4,0.2-3.9v-1.5c-0.5,0-0.9,0-1.1,0.1l-0.2-0.6l0,0c-0.2,0.2-0.5,0.3-0.8,0.3
				c-0.3,0-0.5-0.2-0.7-0.7c-0.3-0.7-0.8-1.4-1.4-1.9l0.2-0.3c0.9,0.1,1.7,0.3,2.5,0.7c0.3,0.1,0.6,0.5,0.6,0.8
				c0,0.3-0.1,0.6-0.4,0.9c0.7,0.1,1.4,0.1,2.1,0.1v-1.5C402,3313.1,402,3312.7,401.9,3312.2z"/>
		</g>
	</g>
	<path id="Path_7551" class="st0" d="M281.4,873.1h-19.9v-4H273c-1.5-5.6-5.9-10-11.5-11.4c1.3-0.3,2.6-0.5,4-0.5
		C274.3,857.2,281.4,864.3,281.4,873.1C281.4,873.1,281.4,873.1,281.4,873.1z M301.4,857.7c-1.3-0.3-2.6-0.5-4-0.5
		c-5.6,0-10.9,3-13.7,7.8c0.6,1.3,1,2.7,1.3,4.1c0.3,1.3,0.4,2.6,0.4,4h16v-4h-11.5C291.4,863.5,295.8,859.1,301.4,857.7z
		 M288.7,855.2c1.5-4.1,4.4-7.6,8.2-10c-8.6,0.3-15.4,7.3-15.4,15.9v0C283.4,858.7,285.8,856.6,288.7,855.2L288.7,855.2z
		 M280.3,850.9c-1.7-4.4-5.1-7.9-9.4-9.7c3,3.8,4.6,8.5,4.6,13.4c0,0.4-0.1,0.8-0.1,1.2c0.9,0.5,1.7,1,2.4,1.6
		C278.2,855.1,279.1,852.9,280.3,850.9L280.3,850.9z"/>
</g>
</svg>
