<svg xmlns="http://www.w3.org/2000/svg" width="724.91" height="93.554" viewBox="0 0 724.91 93.554">
  <g id="section6_title_en" transform="translate(-926.997 -8282.977)">
    <path id="Path_8008" data-name="Path 8008" d="M978.462,8334.3H952.235l-13.529,33.732a19.65,19.65,0,0,0-1.4,4.49q0,2,2.972,2v.911H927v-.911a7.492,7.492,0,0,0,4.485-1.3q1.818-1.305,4-6.769l32.392-81.719h1.606l31.863,78.921q0,.611,2.451,5.739t7.474,5.132v.911H990.4v-.911q2.852,0,2.851-2.245a14.655,14.655,0,0,0-1.395-4.854,2.011,2.011,0,0,1-.424-.789c-.082-.4-.143-.606-.183-.606Zm-25.369-2.487h24.17l-12.074-30.456Z" fill="#b78e66"/>
    <path id="Path_8009" data-name="Path 8009" d="M1110.843,8286.071h14.107v.911q-7.15.362-7.152,7.466a33.148,33.148,0,0,0,.364,4.189l9.4,67.7q.847,5.06,1.911,6.475t4.4,1.717v.911h-20.082v-.911q4.016.122,4.016-3.857a32.491,32.491,0,0,0-.364-3.555l-9.172-65.634-32.034,73.957h-.607L1043.41,8301.6l-9.063,66.006a21.693,21.693,0,0,0-.243,3.43q0,3.489,4.089,3.49v.911h-13.651v-.911q3.094,0,3.974-.759a4.95,4.95,0,0,0,1.365-2.427,23.161,23.161,0,0,0,.728-3.731l10.219-72.193q-2.493-6.01-4.988-7.223a10.967,10.967,0,0,0-4.807-1.213v-.911h16.853l31.429,73.1Z" fill="#b78e66"/>
    <path id="Path_8010" data-name="Path 8010" d="M1151.512,8287.1v-1.031h56.181v12.315h-.911q-1.818-6.854-3.063-8.069t-6.1-1.212h-29.485v40.1H1195.5q4.063,0,5.156-.759a2.672,2.672,0,0,0,1.154-2.215h.91v8.433h-.91a3.08,3.08,0,0,0-1.426-2.365,9.723,9.723,0,0,0-4.156-.607h-28.09V8359.3q0,6.249,1.15,9.01a5.511,5.511,0,0,0,3.666,3.458,30.582,30.582,0,0,0,7.6.7h15.753q7.512,0,9.6-.513a7.1,7.1,0,0,0,3.545-2.05q1.453-1.537,2.241-6.721h.911v12.257h-61.1v-.911a10.148,10.148,0,0,0,4.7-1.183q1.607-1,1.607-5.184v-72.147q0-4.91-.849-6.911T1151.512,8287.1Z" fill="#b78e66"/>
    <path id="Path_8011" data-name="Path 8011" d="M1304.571,8286.071h17.291v.911q-3.944.122-5.46,1.668t-1.517,6.521v81.359l-71.287-75.907v66.084a16.488,16.488,0,0,0,.485,4.668,3.52,3.52,0,0,0,1.4,2.062,15.886,15.886,0,0,0,4.549,1.092v.911h-17.169v-.911q4.609,0,5.733-1.638t1.123-7.821v-60.445q0-7.942-2.215-12.974t-10.222-4.668v-.911h16.805l66.98,71.321v-63.073q0-5.095-1.821-6.216a8.787,8.787,0,0,0-4.671-1.121Z" fill="#b78e66"/>
    <path id="Path_8012" data-name="Path 8012" d="M1366.563,8286.071v.911a9.282,9.282,0,0,0-3.913.544,3.5,3.5,0,0,0-2.548,2.122,32.388,32.388,0,0,0-.4,6.608v68.57q0,5.578.455,6.82a4.1,4.1,0,0,0,1.76,2.063,9.359,9.359,0,0,0,4.641.818v.911H1342.72v-.911q4.488,0,5.581-1.728t1.093-7.853v-67.9q0-6.366-1.214-8.337t-5.46-1.727v-.911Z" fill="#b78e66"/>
    <path id="Path_8013" data-name="Path 8013" d="M1458.345,8282.977l-4.246,10.8h-.91a11.231,11.231,0,0,0,.242-2.609,1.7,1.7,0,0,0-1-1.789,9.321,9.321,0,0,0-3.179-.395h-23.305v76.451q0,4.729.758,6.456a3.668,3.668,0,0,0,2.063,2.183,13.947,13.947,0,0,0,4.217.455v.911h-24.208v-.911q4.551-.3,5.7-1.759t1.153-6.062v-77.724H1393.3a15.278,15.278,0,0,0-4.419.395q-1.029.4-1.029,1.971a9.561,9.561,0,0,0,.485,2.428h-.91l-4.247-10.8h.91a5.343,5.343,0,0,0,2.15,2.64,14.267,14.267,0,0,0,4.573.455h59.3a19.86,19.86,0,0,0,5.057-.455,3.651,3.651,0,0,0,2.271-2.64Z" fill="#b78e66"/>
    <path id="Path_8014" data-name="Path 8014" d="M1498.739,8286.071v.911a9.286,9.286,0,0,0-3.913.544,3.505,3.505,0,0,0-2.547,2.122,32.388,32.388,0,0,0-.4,6.608v68.57q0,5.578.455,6.82a4.1,4.1,0,0,0,1.76,2.063,9.357,9.357,0,0,0,4.64.818v.911H1474.9v-.911q4.488,0,5.581-1.728t1.092-7.853v-67.9q0-6.366-1.213-8.337t-5.46-1.727v-.911Z" fill="#b78e66"/>
    <path id="Path_8015" data-name="Path 8015" d="M1520.2,8287.1v-1.031h56.181v12.315h-.91q-1.82-6.854-3.064-8.069t-6.1-1.212h-29.486v40.1h27.363q4.063,0,5.156-.759a2.674,2.674,0,0,0,1.153-2.215h.91v8.433h-.91a3.078,3.078,0,0,0-1.426-2.365,9.72,9.72,0,0,0-4.156-.607h-28.09V8359.3q0,6.249,1.151,9.01a5.507,5.507,0,0,0,3.666,3.458,30.573,30.573,0,0,0,7.6.7H1565q7.512,0,9.6-.513a7.1,7.1,0,0,0,3.545-2.05q1.452-1.537,2.241-6.721h.91v12.257H1520.2v-.911a10.144,10.144,0,0,0,4.7-1.183q1.608-1,1.608-5.184v-72.147q0-4.91-.85-6.911T1520.2,8287.1Z" fill="#b78e66"/>
    <path id="Path_8016" data-name="Path 8016" d="M1642.807,8287.224l4.247,11.163-.728.122q0-.062-3.368-3.58a23.209,23.209,0,0,0-17.5-7.341q-9.16,0-14.53,5.247a17.05,17.05,0,0,0-5.369,12.65,14.8,14.8,0,0,0,2.518,8.585q2.516,3.672,10.519,6.847,13.761,4.641,18.831,6.975a28.948,28.948,0,0,1,9.776,7.908q4.709,5.578,4.707,14.3a27.783,27.783,0,0,1-.849,6.94,23.154,23.154,0,0,1-2.73,6.363,27.682,27.682,0,0,1-4.52,5.576,20.946,20.946,0,0,1-5.369,3.818,28.9,28.9,0,0,1-8.615,1.97q-5.886.667-7.766.668h-23.844v-25.968h.91q.121,12.923,6.068,18.019t18.5,5.1q11.408,0,17.322-5.4a16.964,16.964,0,0,0,5.916-12.982,14.352,14.352,0,0,0-2.064-7.857,19.394,19.394,0,0,0-5.763-5.7q-3.7-2.458-14.007-6-10.247-3.6-14.407-6.3a20.615,20.615,0,0,1-6.954-8.123,23.908,23.908,0,0,1-2.793-11.062,23.458,23.458,0,0,1,7.129-17.4q7.126-7.031,18.716-7.032a50.26,50.26,0,0,1,9.707,1.031,47.538,47.538,0,0,1,5.825,1.335A1.058,1.058,0,0,0,1642.807,8287.224Z" fill="#b78e66"/>
  </g>
</svg>
