<svg xmlns="http://www.w3.org/2000/svg" width="925.413" height="91.794" viewBox="0 0 925.413 91.794">
  <g id="section7_title_en" transform="translate(-733.521 -12318.989)">
    <path id="Path_8107" data-name="Path 8107" d="M778.113,12321.477l4.248,11.163-.729.121q0-.059-3.367-3.579a23.2,23.2,0,0,0-17.5-7.341q-9.164,0-14.53,5.248a17.045,17.045,0,0,0-5.37,12.649,14.8,14.8,0,0,0,2.518,8.585q2.516,3.672,10.52,6.846,13.758,4.642,18.831,6.976a28.963,28.963,0,0,1,9.776,7.909q4.707,5.577,4.707,14.3a27.716,27.716,0,0,1-.85,6.938,23.076,23.076,0,0,1-2.73,6.364,27.707,27.707,0,0,1-4.52,5.576,20.907,20.907,0,0,1-5.369,3.818,28.906,28.906,0,0,1-8.615,1.971q-5.886.667-7.766.666H733.521v-25.968h.91q.12,12.923,6.067,18.02t18.5,5.1q11.406,0,17.321-5.4a16.97,16.97,0,0,0,5.916-12.985,14.353,14.353,0,0,0-2.063-7.856,19.386,19.386,0,0,0-5.764-5.7q-3.7-2.457-14.007-6-10.247-3.6-14.407-6.3a20.6,20.6,0,0,1-6.953-8.123,23.905,23.905,0,0,1-2.794-11.063,23.457,23.457,0,0,1,7.129-17.4q7.128-7.033,18.717-7.032a50.206,50.206,0,0,1,9.707,1.032,46.971,46.971,0,0,1,5.824,1.335A1.081,1.081,0,0,0,778.113,12321.477Z" fill="#b78e66"/>
    <path id="Path_8108" data-name="Path 8108" d="M805.948,12320.323h25.6v.91q-4.187-.182-5.886,1.244t-1.7,7.432v34.28l53.086-39.861q1.578-1.091,1.578-2,0-1.091-3.58-1.093v-.91h19.293v.91a24.659,24.659,0,0,0-14.2,5.328l-46.262,34.51,46.15,35.043a.615.615,0,0,0,.181.121.4.4,0,0,1,.182.182.529.529,0,0,0,.243.061,134.081,134.081,0,0,0,14.1,9.548,19.6,19.6,0,0,0,9.378,2.755v.911h-30.4v-.911q4.065,0,4.065-.91,0-.787-3.337-3.336l-50.477-38.343v33.138q0,5.817.819,7.148a4.638,4.638,0,0,0,2.184,1.91,10.782,10.782,0,0,0,4.459.393v.911H805.948v-.911q5.1.243,6.4-1.545t1.3-7.549v-69.3q0-5.941-1.3-7.7t-6.4-1.456Z" fill="#b78e66"/>
    <path id="Path_8109" data-name="Path 8109" d="M974.114,12320.323h13.409v.91a9,9,0,0,0-4.187,1.214,14.545,14.545,0,0,0-3.762,4.247l-21.84,33.131v40.908q0,4.961,1.285,6.5t5.57,1.543v.911h-23.9v-.911q6.855.428,6.855-5.395l-.121-2.548v-37.771l-21.9-36.25q-3.459-5.764-7.705-5.583v-.91h21.112v.91q-2.952,0-2.95,2.24a8.054,8.054,0,0,0,1.516,3.571l18.028,29.741,19.686-29.971a6.341,6.341,0,0,0,1.213-1.789,5.059,5.059,0,0,0,.668-1.791q0-2-2.608-2h-.364Z" fill="#b78e66"/>
    <path id="Path_8110" data-name="Path 8110" d="M1141.661,12408.78v.911h-36.038a65.971,65.971,0,0,1-18.171-2.245,47.912,47.912,0,0,1-15.9-8.524,48.447,48.447,0,0,1-13.1-15.622,40.024,40.024,0,0,1-5.005-19.11q0-10.68,6.28-21.3a47.928,47.928,0,0,1,17.867-17.262,51.87,51.87,0,0,1,26.269-6.643q13.165,0,27.848,5.825l3.7,10.313h-.89a35.55,35.55,0,0,0-12.764-9.859,40.9,40.9,0,0,0-18.039-3.912q-17.281,0-28.316,13.013t-11.036,32.307a51.383,51.383,0,0,0,1.821,14.288,35.006,35.006,0,0,0,6.825,12.377,33.646,33.646,0,0,0,10.739,8.979,43.5,43.5,0,0,0,12.831,4,64.192,64.192,0,0,0,11.285,1l4.793-.121q8.128-.3,10.162-1.518t2.033-6.187v-13.53q0-3.942-1.638-5.309a6.48,6.48,0,0,0-4.672-1.183v-.91h23.115v.91q-3.883,0-5.187,1.514t-1.3,5.813v14.045q0,4.239,1.122,6.086t4.095,1.846Z" fill="#b78e66"/>
    <path id="Path_8111" data-name="Path 8111" d="M1209.738,12368.557h-26.227l-13.528,33.732a19.577,19.577,0,0,0-1.4,4.489q0,2,2.973,2v.911h-13.287v-.911a7.493,7.493,0,0,0,4.485-1.3q1.816-1.3,4-6.769l32.393-81.719h1.6l31.863,78.922q0,.608,2.451,5.739t7.474,5.13v.911h-20.871v-.911q2.85,0,2.852-2.244a14.665,14.665,0,0,0-1.4-4.854,2.026,2.026,0,0,1-.425-.789q-.121-.606-.181-.606Zm-25.37-2.487h24.171l-12.074-30.457Z" fill="#b78e66"/>
    <path id="Path_8112" data-name="Path 8112" d="M1260.429,12321.233v-.91h25.36q9.647,0,13.954.426a23.834,23.834,0,0,1,8.827,2.824,16.432,16.432,0,0,1,6.826,6.5,20.229,20.229,0,0,1,2.305,10.049,23.064,23.064,0,0,1-4.1,12.963,33.326,33.326,0,0,1-11.559,10.412l6.31,9.7q2.063,3.637,10.952,15.943t13.742,15a19.3,19.3,0,0,0,9.4,2.7q4.49,0,10.314-3.457l.364,1.213q-7.275,5.947-18.911,5.945a20.31,20.31,0,0,1-13.335-4.593q-5.577-4.592-19.413-25.206a.344.344,0,0,1-.121-.242l-8.982-13.823-7.963.243h-7.234v34.168q0,4.119,1.082,5.907t5.228,1.786v.911h-23.055v-.911q4.307-.182,5.369-1.817t1.062-6.67v-71a15.521,15.521,0,0,0-.91-5.729Q1265.04,12321.294,1260.429,12321.233Zm16.745,1.458v41.921h9.361q11.063,0,16.413-5.216t5.35-13.712a26.447,26.447,0,0,0-5.259-15.623q-5.259-7.37-18.51-7.37Z" fill="#b78e66"/>
    <path id="Path_8113" data-name="Path 8113" d="M1371.14,12321.233v-.91h41.013q15.653,0,24.723,2.457a43.9,43.9,0,0,1,15.8,7.736,37.4,37.4,0,0,1,10.679,13.5,41.906,41.906,0,0,1,3.943,18.353,47.787,47.787,0,0,1-4.1,19.2,50.223,50.223,0,0,1-11.132,16.26,38.378,38.378,0,0,1-14.835,9.343q-7.8,2.52-24.116,2.519H1371.14v-.911h1.092q3.276,0,4.307-2.637t1.031-9.549v-65.055q0-7.273-1.243-8.791T1371.14,12321.233Zm30.456.971h-13.711v69.347q0,6.552,2.214,9.737t7.554,4.612a57.92,57.92,0,0,0,14.378,1.425q25.119,0,35.28-12.893t10.162-28.121q0-17.9-13.924-31T1401.6,12322.2Z" fill="#b78e66"/>
    <path id="Path_8114" data-name="Path 8114" d="M1488.585,12321.356v-1.033h56.181v12.316h-.91q-1.82-6.855-3.064-8.068t-6.1-1.213h-29.486v40.1h27.363q4.063,0,5.156-.758a2.675,2.675,0,0,0,1.153-2.215h.91v8.434h-.91a3.082,3.082,0,0,0-1.426-2.366,9.739,9.739,0,0,0-4.156-.606h-28.09v27.6q0,6.25,1.151,9.009a5.51,5.51,0,0,0,3.666,3.46,30.688,30.688,0,0,0,7.6.7h15.753q7.512,0,9.6-.512a7.117,7.117,0,0,0,3.545-2.049q1.452-1.538,2.241-6.722h.91v12.256h-61.1v-.911a10.133,10.133,0,0,0,4.7-1.182q1.608-1,1.608-5.184v-72.148q0-4.91-.85-6.909T1488.585,12321.356Z" fill="#b78e66"/>
    <path id="Path_8115" data-name="Path 8115" d="M1641.644,12320.323h17.29v.91q-3.943.125-5.46,1.669t-1.517,6.522v81.358l-71.287-75.907v66.084a16.445,16.445,0,0,0,.486,4.668,3.538,3.538,0,0,0,1.4,2.063,15.955,15.955,0,0,0,4.55,1.089v.911h-17.17v-.911q4.609,0,5.733-1.637t1.123-7.82v-60.447q0-7.941-2.214-12.973t-10.223-4.67v-.91h16.806l66.979,71.323v-63.074q0-5.093-1.82-6.215a8.772,8.772,0,0,0-4.671-1.124Z" fill="#b78e66"/>
  </g>
</svg>
