<?xml version="1.0" encoding="utf-8"?>
<!-- Generator: Adobe Illustrator 24.0.3, SVG Export Plug-In . SVG Version: 6.00 Build 0)  -->
<svg version="1.1" id="圖層_1" xmlns="http://www.w3.org/2000/svg" xmlns:xlink="http://www.w3.org/1999/xlink" x="0px" y="0px"
	 viewBox="0 0 416.1 38.9" style="enable-background:new 0 0 416.1 38.9;" xml:space="preserve">
<style type="text/css">
	.st0{fill:#FFFFFF;}
</style>
<g id="section4_title" transform="translate(-281.462 -4726.045)">
	<g id="Group_1559">
		<path id="Path_7671" class="st0" d="M288.3,4732.9h-6.8v-4.7h6.8v-1.6h5.8v1.6h4.9v4.7h-4.9v1.5h-5.8V4732.9z M316.1,4759.3
			c0,2.3-0.4,3.5-1.8,4.3s-3.1,0.9-5.3,0.9c-0.2-1.3-0.6-2.6-1.2-3.9l-2,2.7c-1.3-1.3-2.7-2.5-4.2-3.7v4.4h-4.4v-4
			c-1.5,1.5-3.3,2.7-5.2,3.6c-0.8-1.2-1.8-2.3-3-3.3c1.9-0.5,3.7-1.3,5.4-2.4h-3.7v-8.1h6.5v-0.7h-7.3v-2.8h7.3v-0.9h-8.8v19.4H283
			V4735h15.3v9.8h2v-9.8h15.8L316.1,4759.3z M288.4,4738.1v0.7h4.8v-0.7H288.4z M293.2,4742.1v-0.8h-4.8v0.8H293.2z M294.2,4755h1.2
			c-0.3-0.7-0.6-1.3-1-1.9l1.9-0.7c0.5,0.6,0.9,1.3,1.2,2l-1.4,0.6h1.6v-2.6h-3.5L294.2,4755z M317.5,4728.2v4.7h-6.3v1.5h-5.8v-1.5
			h-5.2v-4.7h5.2v-1.6h5.8v1.6H317.5z M301.3,4754.6c0.3-0.6,0.8-1.6,1-2.2h-1.1v2.6h1.2L301.3,4754.6z M304.1,4757.8
			c1.2,0.7,2.6,1.5,3.4,2c1,0,2.1,0,2.5,0c0.4,0,0.6-0.2,0.6-0.6v-13.9h-9v0.8h7.8v2.8h-7.8v0.7h6.7v8.1H304.1z M304.4,4753.1
			l-1.3,1.9h1.4v-2.6h-1.8L304.4,4753.1z M305.5,4738.2v0.7h5v-0.7H305.5z M305.5,4742.1h5v-0.7h-5V4742.1z"/>
		<path id="Path_7672" class="st0" d="M343.6,4747.8c-0.2,0.4-0.4,0.9-0.7,1.3h14.7l-0.1,1.9c-0.4,7.5-0.8,10.8-1.8,12
			c-0.7,0.9-1.6,1.4-2.7,1.6c-1.3,0.2-2.6,0.3-4,0.2c-0.1-1.4-0.4-2.8-1-4.2c-1.1,1.5-2.4,2.8-3.9,4c-1.1-1.1-2.3-2.2-3.5-3.2
			c2.8-2,5.1-4.7,6.6-7.8H346c-2.5,4.1-5.9,7.6-10,10.2c-0.9-1.3-2-2.5-3.1-3.6c3.1-1.6,5.8-3.8,7.8-6.6h-1.1
			c-1.3,1.4-2.7,2.6-4.3,3.7c-0.8-0.9-1.6-1.8-2.4-2.6l-0.1,0.1c-0.7,0.5-1.5,0.8-2.4,0.9c-0.9,0.1-1.7,0.1-2.6,0.1
			c-0.1-1.2-0.3-2.4-0.6-3.6v12.6h-5v-36.3h8.6l0.8-0.2l3.8,2.1c-1,3.5-2.2,8-3.2,11.1c1.7,2.2,2.7,5,2.6,7.8c0,0.9-0.1,1.8-0.2,2.7
			c1.5-1.2,2.7-2.6,3.7-4.2h-3.5v-4.5h23.8v4.5L343.6,4747.8z M327.2,4750.9h0.8c0.4,0,0.7-0.1,1-0.3c0.4-0.3,0.6-1,0.6-2
			c0-2.4-0.8-4.7-2.3-6.5c0.6-2.4,1.3-5.8,1.8-8.5h-2V4750.9z M355.9,4742.2h-18.4v-14.2h18.4V4742.2z M350.4,4732.1h-7.6v1.2h7.6
			V4732.1z M350.4,4737h-7.6v1.2h7.6V4737z M351.2,4759.6c0.4-0.5,0.7-2.2,1-6c-1,2.3-2.2,4.5-3.7,6.4c0.7,0,1.3,0.1,1.7,0.1
			C350.5,4760.2,350.9,4760,351.2,4759.6L351.2,4759.6z"/>
		<path id="Path_7673" class="st0" d="M371.1,4741.5c-0.1-0.8-0.4-2-0.6-3.1v26.3h-5v-27.1c-0.2,3-0.6,6-1.3,9l-3.6-1.2
			c0.9-3.5,1.4-7,1.6-10.6l3.3,0.4v-8.5h5v7.4l2.3-0.7c0.7,2.1,1.5,5,1.9,6.7h22.5v8.8h-23.9v-8L371.1,4741.5z M397,4751.4
			c-1.4,2.8-3.5,5.2-6.1,7c2.6,0.7,5.2,1.1,7.9,1.4c-1.4,1.5-2.5,3.2-3.4,5c-3.7-0.5-7.4-1.4-10.8-2.9c-3.6,1.4-7.4,2.3-11.2,2.9
			c-0.6-1.7-1.5-3.4-2.6-4.9c2.7-0.3,5.4-0.8,8-1.4c-1.5-1.2-2.9-2.6-4.1-4.1h-2.1v-4.5h19.6l1-0.2L397,4751.4z M379.6,4739.3h-4.9
			v-11.5h21v11.5h-5.2v-7.4h-10.9V4739.3z M378.1,4745.4h1.8v-2h-1.8L378.1,4745.4z M390.1,4735.5h-9.8v-2.6h9.8L390.1,4735.5z
			 M380.3,4736.3h9.8v2.8h-9.8L380.3,4736.3z M381.7,4754.3c1,0.8,2,1.4,3.1,2c1.1-0.6,2.1-1.2,3.1-2H381.7z M384.1,4745.4h1.8v-2
			h-1.8V4745.4z M390.2,4745.4h1.8v-2h-1.8V4745.4z"/>
		<path id="Path_7674" class="st0" d="M408.3,4746.8c-1.6-1.2-5.2-3.1-7.6-4.3l3.1-4.3c2.2,1,5.9,2.7,7.7,3.8L408.3,4746.8z
			 M401.2,4760.3c2.8-4,5.3-8.2,7.6-12.5l4.3,3.9c-2.1,4.2-4.5,8.5-7,12.5L401.2,4760.3z M409.9,4735.8c-1.6-1.2-5-3.1-7.2-4.4
			l3.3-4.2c2.1,1.1,5.6,2.8,7.4,3.9L409.9,4735.8z M428.7,4743.8v4.2h8.1v16.4h-5.5v-1.4h-10.8v1.6h-5.2v-16.6h8v-4.2h-10.2v-5.6
			h10.2v-3.7c-2.4,0.4-4.9,0.6-7.3,0.8c-0.3-1.7-0.8-3.4-1.6-5c6.7-0.6,13.9-2,18.3-3.9l4.4,4.6c-2.7,1.1-5.5,1.9-8.4,2.4v4.7h9.8
			v5.6L428.7,4743.8z M431.3,4753.3h-10.8v4.5h10.8V4753.3z"/>
		<path id="Path_7675" class="st0" d="M454.2,4740.5c-0.6,0.5-1.2,1-1.7,1.5c-1-1.7-2.1-3.3-3.4-4.8c3.8-2.7,7-6.3,9.2-10.5l5.1,1.8
			c-0.6,1.1-1.2,2.2-1.9,3.2h5.1v3.6c2.5-2.5,4.4-5.4,5.6-8.7l5.6,1.5c-0.4,1-0.8,1.9-1.2,2.8h10.6v5h-1.8c-0.7,2.3-1.7,4.4-3,6.4
			c1.9,1.3,3.7,2.7,5.4,4.2l-4.3,3.8c-1.4-1.4-2.9-2.7-4.6-3.9c-2.3,2.1-4.9,3.8-7.8,4.9c-1-1.7-2.1-3.3-3.5-4.7
			c2.4-0.8,4.7-2,6.7-3.6c-1.3-0.8-2.5-1.7-3.7-2.4l4-3.3c1,0.6,2,1.2,3.1,1.9c0.7-1.1,1.2-2.2,1.6-3.4h-5.8
			c-1.2,1.7-2.6,3.3-4.2,4.7c-0.6-0.7-1.7-1.8-2.7-2.8v10.3h-5.3V4732c-0.5,0.8-1.1,1.6-1.7,2.4v15.9h-5.4V4740.5z M449.6,4760.2
			c1.7-2.6,3-5.5,3.7-8.6l5.2,2c-0.8,3.3-2,6.5-3.7,9.5L449.6,4760.2z M482.5,4762.3c-0.7-1.6-1.4-3.2-2.2-4.8
			c-0.7,5.3-2.3,6.6-7,6.6h-6.9c-6.2,0-7.8-1.6-7.8-6.5v-6h5.6l-0.2-0.3l4.2-2.7c1.5,1.7,3.8,4.2,5,5.7l-4.5,3.1
			c-1.3-1.9-2.7-3.8-4.3-5.6v5.7c0,1.3,0.4,1.4,2.6,1.4h5.9c1.8,0,2.1-0.5,2.3-3.7c1.6,0.9,3.3,1.6,5.1,2c-0.8-1.6-1.7-3.2-2.4-4.6
			l5.2-1.8c1.6,2.8,4,6.8,5.1,9.2L482.5,4762.3z"/>
		<path id="Path_7676" class="st0" d="M497.5,4743.6v21h-5.7V4728h15.5v15.7L497.5,4743.6z M497.5,4732.5v1.2h4.4v-1.2H497.5z
			 M502,4739.1v-1.2h-4.4v1.2H502z M525.5,4758.6c0,2.6-0.4,4-1.9,5s-3.4,1.1-6.1,1.1c-0.3-1.6-0.7-3.2-1.4-4.8
			c-0.1,1.5-0.6,2.4-1.8,3c-1.4,0.7-3.3,0.8-5.8,0.8c-0.2-1.5-0.7-3-1.4-4.4c1.3,0.1,2.9,0.1,3.3,0.1c0.5,0,0.6-0.2,0.6-0.6v-1H506
			c-0.3,2.3-1.2,4.4-2.6,6.2c-1.4-1-2.8-1.9-4.4-2.6c2.4-2.7,2.6-6.4,2.6-9.4v-7.2h14.6v14.5c1.2,0,2.4,0,2.9,0
			c0.5,0,0.7-0.2,0.7-0.7v-14.9h-10.1V4728h15.9L525.5,4758.6z M511.2,4754.2v-1h-4.8l0,1L511.2,4754.2z M506.4,4748.6v1h4.8v-1
			H506.4z M515.1,4732.5v1.2h4.6v-1.2H515.1z M519.7,4739.1v-1.2h-4.6v1.2H519.7z"/>
		<path id="Path_7677" class="st0" d="M544.1,4757h-7.8v3.7h-5.4V4729h13.2L544.1,4757z M536.3,4734.2v6h2.4v-6H536.3z
			 M538.7,4751.8v-6.6h-2.4v6.6H538.7z M559.1,4735.7v3h7.5v5H564v2.4h3.4v5H564v7.6c0,2.6-0.5,4.1-2.2,4.9s-4,1-6.9,1
			c-0.3-1.9-0.9-3.7-1.8-5.4c1.7,0.1,3.8,0.1,4.4,0.1s0.8-0.1,0.8-0.6v-7.5h-13.4v-5h13.4v-2.4h-12.4v-5h7.5v-3h-8.5v-5.1h8.5v-4
			h5.7v4h8.5v5.1L559.1,4735.7z M550.8,4751.2c1.4,1.9,3.6,4.6,4.6,6.2l-5.1,3c-0.9-1.7-2.9-4.5-4.3-6.6L550.8,4751.2z"/>
		<path id="Path_7678" class="st0" d="M601,4758.4c1,0,1.3-0.6,1.4-4c1.6,1.1,3.5,1.8,5.4,2.3c-0.7,5.6-2.2,7.2-6.2,7.2h-4.4
			c-5.2,0-6.4-1.8-6.4-7.2v-10.2H586c-0.8,7.9-2.8,14.4-13,18.3c-0.9-1.9-2.1-3.6-3.6-5c8.5-2.8,9.9-7.5,10.4-13.2h-9.2v-5.6h14.9
			v-14.4h6.2v14.4h15v5.6h-10v10.1c0,1.6,0.2,1.7,1.4,1.7L601,4758.4z M578.7,4739.9c-1.6-3-3.5-5.9-5.7-8.5l4.6-2.8
			c2.3,2.5,4.4,5.2,6.1,8.1L578.7,4739.9z M605.6,4731.2c-2,3-4.3,5.9-6.7,8.6l-5.2-2.1c2.2-2.7,4.1-5.6,5.7-8.7L605.6,4731.2z"/>
		<path id="Path_7679" class="st0" d="M652.2,4754.4c1.8,2.5,3.4,5.2,4.8,8l-5.7,2.6c-1.3-2.9-2.8-5.7-4.5-8.4l5-2.1h-31.9v-5.2h5.1
			v-4.1h-4v-5.2h0.7c-0.9-1.7-2-3.2-3.2-4.7c3.5-2.3,6.3-5.5,8.2-9.2l5,1.7c-0.5,1-1.1,2-1.7,3h24.9v5.1h-28.7c-0.3,0.4-0.6,0.7-1,1
			h4.9v3.1h2v-3.1h4.8v3.1h2.2v-3.1h4.8v3.1h2.2v-3.1h5.3v3.1h3.6v5.2h-3.6v4.1h4.5v5.2L652.2,4754.4z M619,4762.6
			c1.9-2.5,3.4-5.1,4.7-8l5.7,1.5c-1.3,3.1-2.9,6-4.7,8.8L619,4762.6z M625,4739.9v-2.9c-1,1-2.1,2-3.3,2.9H625z M630.1,4749.2h2
			v-4.1h-2L630.1,4749.2z M636,4755.9c0.6,2.5,0.9,5.1,1,7.7l-5.7,0.8c0-2.7-0.3-5.3-0.7-7.9L636,4755.9z M636.9,4745.1v4.1h2.2
			v-4.1H636.9z M644.1,4755.6c1,2.5,1.7,5,2.2,7.6l-5.8,1.1c-0.4-2.7-1-5.3-1.9-7.8L644.1,4755.6z M643.9,4745.1v4.1h2.2v-4.1H643.9
			z"/>
		<path id="Path_7680" class="st0" d="M670.8,4729.2c-0.8,2.2-1.7,4.6-2.7,6.8v28.6h-5.5v-18.7c-0.6,0.8-1.1,1.5-1.7,2.2
			c-0.7-2.2-1.6-4.3-2.7-6.4c3.5-4.5,6.1-9.6,7.6-15l5.4,1.6v0h25.4v4.1h-8v1.4h6.8v8.5h-23.9v-8.5h6.4v-1.4h-7L670.8,4729.2z
			 M690.1,4758.6c2.8,1,5.7,2.1,7.5,3l-5,3.2c-2.7-1.5-5.5-2.8-8.4-3.8l2.8-2.4h-7.2l2.8,2c-3.2,2-6.7,3.4-10.4,4.1
			c-0.8-1.4-1.8-2.8-3-4c2.6-0.4,5.2-1.1,7.6-2.1h-4.9v-15.2h23.1v15.2L690.1,4758.6z M676.3,4739.1h1.5v-2.1h-1.5V4739.1z
			 M677.2,4747.6h12.1v-1h-12.1L677.2,4747.6z M677.2,4751.6h12.1v-1h-12.1L677.2,4751.6z M677.2,4755.6h12.1v-1.1h-12.1
			L677.2,4755.6z M683.9,4732.4h-1.6v1.4h1.6V4732.4z M682.3,4739.1h1.6v-2.1h-1.6V4739.1z M688.5,4737v2.1h1.5v-2.1H688.5z"/>
	</g>
</g>
</svg>
