<svg xmlns="http://www.w3.org/2000/svg" width="838.496" height="91.794" viewBox="0 0 838.496 91.794">
  <g id="section5_title_en" transform="translate(-259.264 -7148.665)">
    <path id="Path_7918" data-name="Path 7918" d="M259.385,7239.366v-.91q4.186,0,5.43-1.576t1.244-5.4v-73.117a12.054,12.054,0,0,0-.971-5.608q-.971-1.728-5.824-1.85V7150h23.964v.91a9.257,9.257,0,0,0-4.671.85,4.11,4.11,0,0,0-1.759,2,19.266,19.266,0,0,0-.425,5.218v62.733q0,8.068,3.877,11.375t13.269,3.307h10.9q7.875,0,11.542-3.884t4.089-14.621h.91v21.477Z" fill="#b78e66"/>
    <path id="Path_7919" data-name="Path 7919" d="M389.71,7198.232H363.482l-13.528,33.732a19.634,19.634,0,0,0-1.4,4.49q0,2,2.973,2v.91H338.244v-.91a7.5,7.5,0,0,0,4.486-1.3q1.816-1.3,4-6.769l32.392-81.718h1.606l31.863,78.921q0,.609,2.449,5.739t7.475,5.131v.91H401.644v-.91q2.85,0,2.851-2.244a14.651,14.651,0,0,0-1.394-4.854,2.038,2.038,0,0,1-.426-.789q-.12-.606-.182-.606Zm-25.371-2.487h24.172l-12.074-30.457Z" fill="#b78e66"/>
    <path id="Path_7920" data-name="Path 7920" d="M513.691,7150h17.29v.91q-3.944.123-5.46,1.669T524,7159.1v81.359l-71.287-75.908v66.084a16.487,16.487,0,0,0,.485,4.668,3.529,3.529,0,0,0,1.4,2.062,15.915,15.915,0,0,0,4.55,1.091v.91h-17.17v-.91q4.609,0,5.733-1.637t1.123-7.821v-60.446q0-7.942-2.215-12.974t-10.222-4.669V7150h16.8l66.98,71.322v-63.073q0-5.094-1.82-6.216a8.781,8.781,0,0,0-4.671-1.123Z" fill="#b78e66"/>
    <path id="Path_7921" data-name="Path 7921" d="M552.324,7150.909V7150h41.013q15.654,0,24.724,2.457a43.89,43.89,0,0,1,15.8,7.736,37.394,37.394,0,0,1,10.679,13.5,41.905,41.905,0,0,1,3.944,18.353,47.805,47.805,0,0,1-4.1,19.2,50.248,50.248,0,0,1-11.133,16.259,38.369,38.369,0,0,1-14.834,9.344q-7.8,2.517-24.116,2.517H552.324v-.91h1.092q3.277,0,4.308-2.637t1.031-9.549v-65.055q0-7.273-1.243-8.79T552.324,7150.909Zm30.457.971H569.07v69.346q0,6.552,2.213,9.737t7.554,4.611A57.856,57.856,0,0,0,593.216,7237q25.117,0,35.279-12.892t10.162-28.121q0-17.9-13.923-31T582.781,7151.88Z" fill="#b78e66"/>
    <path id="Path_7922" data-name="Path 7922" d="M751.46,7150h14.107v.91q-7.151.364-7.152,7.468a33.13,33.13,0,0,0,.364,4.189l9.4,67.7q.848,5.06,1.911,6.473t4.4,1.717v.91H754.4v-.91q4.016.123,4.016-3.856a32.314,32.314,0,0,0-.365-3.556l-9.171-65.635-32.035,73.957h-.606l-32.215-73.835-9.064,66.006a21.68,21.68,0,0,0-.243,3.43q0,3.489,4.089,3.489v.91H665.159v-.91q3.094,0,3.974-.758a4.961,4.961,0,0,0,1.365-2.427,22.99,22.99,0,0,0,.728-3.731l10.22-72.194q-2.494-6.01-4.989-7.222a10.96,10.96,0,0,0-4.806-1.215V7150H688.5l31.428,73.1Z" fill="#b78e66"/>
    <path id="Path_7923" data-name="Path 7923" d="M839.347,7198.232H813.12l-13.528,33.732a19.578,19.578,0,0,0-1.4,4.49q0,2,2.973,2v.91H787.882v-.91a7.494,7.494,0,0,0,4.485-1.3q1.816-1.3,4-6.769l32.393-81.718h1.6l31.863,78.921q0,.609,2.45,5.739t7.475,5.131v.91H851.282v-.91q2.85,0,2.852-2.244a14.667,14.667,0,0,0-1.4-4.854,2.025,2.025,0,0,1-.425-.789q-.121-.606-.181-.606Zm-25.37-2.487h24.171l-12.074-30.457Z" fill="#b78e66"/>
    <path id="Path_7924" data-name="Path 7924" d="M890.038,7150.909V7150H915.4q9.646,0,13.954.426a23.859,23.859,0,0,1,8.827,2.823,16.439,16.439,0,0,1,6.826,6.5,20.233,20.233,0,0,1,2.3,10.049,23.06,23.06,0,0,1-4.095,12.963,33.329,33.329,0,0,1-11.559,10.413l6.31,9.7q2.063,3.637,10.952,15.943t13.742,15a19.314,19.314,0,0,0,9.4,2.7q4.488,0,10.314-3.458l.364,1.213q-7.275,5.946-18.911,5.946a20.308,20.308,0,0,1-13.335-4.593q-5.577-4.593-19.413-25.207a.342.342,0,0,1-.121-.242l-8.982-13.823-7.963.243h-7.234v34.168q0,4.12,1.082,5.908t5.228,1.786v.91H890.038v-.91q4.306-.182,5.369-1.818t1.062-6.67v-70.995a15.526,15.526,0,0,0-.91-5.729Q894.649,7150.97,890.038,7150.909Zm16.745,1.456v41.923h9.361q11.063,0,16.413-5.217t5.35-13.712a26.447,26.447,0,0,0-5.259-15.622q-5.259-7.373-18.51-7.372Z" fill="#b78e66"/>
    <path id="Path_7925" data-name="Path 7925" d="M999.595,7150h25.6v.91q-4.186-.182-5.886,1.244t-1.7,7.432v34.279L1070.7,7154q1.578-1.094,1.578-2,0-1.092-3.58-1.093V7150h19.293v.91a24.651,24.651,0,0,0-14.2,5.328l-46.262,34.51,46.15,35.043a.656.656,0,0,0,.181.121.4.4,0,0,1,.182.182.541.541,0,0,0,.243.06,134.24,134.24,0,0,0,14.1,9.547,19.588,19.588,0,0,0,9.378,2.756v.91h-30.4v-.91q4.065,0,4.065-.91,0-.787-3.336-3.336l-50.478-38.344V7229q0,5.815.819,7.148a4.636,4.636,0,0,0,2.184,1.91,10.781,10.781,0,0,0,4.459.393v.91H999.595v-.91q5.1.243,6.4-1.546t1.3-7.548v-69.3q0-5.941-1.3-7.7t-6.4-1.455Z" fill="#b78e66"/>
  </g>
</svg>
