<svg xmlns="http://www.w3.org/2000/svg" width="416.112" height="38.874" viewBox="0 0 416.112 38.874">
  <g id="section4_title" transform="translate(-281.462 -4726.045)">
    <g id="Group_1559" data-name="Group 1559">
      <path id="Path_7671" data-name="Path 7671" d="M288.3,4732.924h-6.838v-4.719H288.3v-1.56h5.759v1.56h4.88v4.719h-4.88v1.48H288.3Zm27.8,26.356c0,2.28-.4,3.479-1.759,4.279s-3.119.88-5.319.88a17.176,17.176,0,0,0-1.2-3.879l-2.04,2.679a42.321,42.321,0,0,0-4.159-3.679v4.4h-4.439v-4a19.63,19.63,0,0,1-5.239,3.559,17.978,17.978,0,0,0-2.96-3.32,20.26,20.26,0,0,0,5.359-2.4H290.66v-8.119h6.519v-.72H289.86v-2.839h7.319v-.88H288.42v19.437h-5.4v-29.715h15.318v9.8h2v-9.8H316.1Zm-27.675-21.157v.72h4.8v-.72Zm4.8,4v-.76h-4.8v.76Zm1,12.917h1.24a12.773,12.773,0,0,0-1.04-1.919l1.92-.72a13.945,13.945,0,0,1,1.2,2l-1.44.64h1.6V4752.4h-3.479Zm23.276-26.835v4.719h-6.319v1.48h-5.759v-1.48h-5.239v-4.719h5.239v-1.56h5.759v1.56Zm-16.237,26.356c.32-.64.76-1.56,1-2.16h-1.12v2.639h1.24Zm2.879,3.239c1.2.68,2.56,1.48,3.4,2,.96.04,2.08.04,2.48.04.44,0,.559-.16.559-.6v-13.918h-8.958v.8h7.759v2.839h-7.759v.72H308.3v8.119Zm.281-4.679-1.32,1.919h1.439V4752.4H302.7Zm1.119-14.958v.72h5.039v-.72Zm0,3.96h5.039v-.681h-5.039Z" fill="#6a2259"/>
      <path id="Path_7672" data-name="Path 7672" d="M343.578,4747.842a12.944,12.944,0,0,1-.68,1.279h14.717l-.12,1.88c-.36,7.479-.839,10.758-1.839,11.958a4.092,4.092,0,0,1-2.68,1.56,18.885,18.885,0,0,1-3.959.2,12.89,12.89,0,0,0-1-4.159,23.142,23.142,0,0,1-3.88,4,29.862,29.862,0,0,0-3.519-3.16,21.025,21.025,0,0,0,6.559-7.838h-1.16a29.67,29.67,0,0,1-10,10.158,28.325,28.325,0,0,0-3.079-3.6,22.668,22.668,0,0,0,7.838-6.559h-1.12a22.927,22.927,0,0,1-4.279,3.679,33.1,33.1,0,0,0-2.439-2.6l-.12.08a5.812,5.812,0,0,1-2.4.92,23.664,23.664,0,0,1-2.56.119,13.92,13.92,0,0,0-.64-3.6v12.558h-5.039V4728.4h8.6l.8-.2,3.8,2.119c-.96,3.52-2.2,8.039-3.24,11.118a12.385,12.385,0,0,1,2.6,7.839,13.2,13.2,0,0,1-.24,2.72,17.561,17.561,0,0,0,3.719-4.159h-3.479v-4.52h23.8v4.52Zm-16.358,3.039h.84a1.541,1.541,0,0,0,1.04-.32c.4-.32.56-.959.56-2.039a10.257,10.257,0,0,0-2.319-6.479c.6-2.36,1.319-5.76,1.839-8.479h-1.96Zm28.716-8.639H337.579v-14.157h18.357Zm-5.519-10.158h-7.6v1.2h7.6Zm0,4.919h-7.6v1.24h7.6Zm.759,22.637c.4-.52.72-2.16.96-6.039a28.482,28.482,0,0,1-3.719,6.439c.72.04,1.28.08,1.679.08A1.161,1.161,0,0,0,351.176,4759.64Z" fill="#6a2259"/>
      <path id="Path_7673" data-name="Path 7673" d="M371.14,4741.482c-.12-.839-.36-1.959-.64-3.119v26.316h-5.039V4737.6a53.508,53.508,0,0,1-1.32,8.958l-3.6-1.24a57.146,57.146,0,0,0,1.6-10.6l3.32.44v-8.479H370.5v7.359l2.28-.72c.679,2.119,1.519,4.959,1.879,6.679h22.476v8.759H373.219v-8.039Zm25.835,9.959a19.786,19.786,0,0,1-6.079,7,49.23,49.23,0,0,0,7.919,1.361,22.39,22.39,0,0,0-3.439,4.959,39.409,39.409,0,0,1-10.8-2.92,53.9,53.9,0,0,1-11.2,2.88,21.079,21.079,0,0,0-2.56-4.879,53.23,53.23,0,0,0,8.039-1.44,23.393,23.393,0,0,1-4.08-4.12H372.7V4749.8h19.637l.96-.2Zm-17.357-12.118H374.7v-11.478h20.957v11.478H390.5v-7.359H379.618Zm-1.52,6.039h1.76v-1.96H378.1Zm11.958-9.879H380.3v-2.639h9.758Zm-9.758.8h9.758v2.76H380.3Zm1.4,18a19.573,19.573,0,0,0,3.12,1.96,19.652,19.652,0,0,0,3.119-1.96Zm2.439-8.918h1.76v-1.96h-1.76Zm6.039,0h1.8v-1.96h-1.8Z" fill="#6a2259"/>
      <path id="Path_7674" data-name="Path 7674" d="M408.34,4746.842c-1.64-1.16-5.2-3.08-7.559-4.319l3.12-4.32c2.2,1,5.879,2.72,7.679,3.8Zm-7.159,13.477a113.624,113.624,0,0,0,7.6-12.477l4.279,3.879c-2.119,4.2-4.519,8.518-6.958,12.518ZM409.9,4735.8c-1.56-1.16-5-3.08-7.2-4.4l3.28-4.2c2.119,1.08,5.639,2.84,7.359,3.92Zm18.8,8.038v4.24h8.079v16.4h-5.519v-1.44h-10.8v1.6h-5.239v-16.557h7.959v-4.24H412.94v-5.559h10.238V4734.6c-2.44.36-4.919.64-7.279.839a21.671,21.671,0,0,0-1.56-4.959c6.719-.639,13.878-2,18.317-3.878l4.439,4.558a50.335,50.335,0,0,1-8.4,2.44v4.679h9.758v5.559Zm2.56,9.478h-10.8v4.48h10.8Z" fill="#6a2259"/>
      <path id="Path_7675" data-name="Path 7675" d="M454.22,4740.483c-.56.52-1.159,1.04-1.719,1.48a32.775,32.775,0,0,0-3.4-4.76,30.264,30.264,0,0,0,9.159-10.518l5.119,1.76a33.938,33.938,0,0,1-1.88,3.24h5.119v3.6a24.113,24.113,0,0,0,5.559-8.678l5.559,1.479c-.359.96-.8,1.92-1.239,2.839h10.6v5.04h-1.838a26.909,26.909,0,0,1-2.96,6.4,50.922,50.922,0,0,1,5.439,4.24l-4.319,3.839a42.225,42.225,0,0,0-4.56-3.919,24.916,24.916,0,0,1-7.8,4.919,25.59,25.59,0,0,0-3.48-4.719,20.872,20.872,0,0,0,6.68-3.56c-1.281-.84-2.52-1.68-3.68-2.4l3.959-3.32c.96.56,2.04,1.2,3.12,1.88a18.78,18.78,0,0,0,1.64-3.359h-5.8a26.949,26.949,0,0,1-4.159,4.719c-.6-.68-1.68-1.8-2.72-2.76v10.318H461.3V4732c-.519.84-1.08,1.64-1.68,2.44v15.877h-5.4Zm-4.6,19.716a26.009,26.009,0,0,0,3.68-8.558l5.2,1.96a34.94,34.94,0,0,1-3.679,9.478Zm32.915,2.08a51.927,51.927,0,0,0-2.24-4.759c-.68,5.319-2.32,6.639-7.039,6.639h-6.918c-6.24,0-7.759-1.6-7.759-6.479v-6.039h5.559l-.24-.28,4.239-2.719c1.52,1.719,3.839,4.2,5,5.718l-4.519,3.08a62.08,62.08,0,0,0-4.279-5.559v5.719c0,1.28.36,1.44,2.6,1.44h5.879c1.76,0,2.08-.48,2.32-3.68a16.775,16.775,0,0,0,5.08,1.96c-.8-1.56-1.68-3.2-2.4-4.6l5.2-1.8c1.64,2.84,3.96,6.759,5.079,9.2Z" fill="#6a2259"/>
      <path id="Path_7676" data-name="Path 7676" d="M497.54,4743.643v21.036h-5.68v-36.714h15.518v15.678Zm0-11.159v1.2h4.438v-1.2Zm4.438,6.639v-1.24H497.54v1.24Zm23.557,19.477c0,2.559-.4,4.039-1.92,5s-3.439,1.08-6.079,1.08a20.334,20.334,0,0,0-1.4-4.76c-.12,1.52-.559,2.44-1.759,3-1.44.72-3.32.76-5.8.76a15.352,15.352,0,0,0-1.36-4.36c1.28.08,2.879.08,3.319.08.48-.04.64-.159.64-.6v-1h-5.2a12.415,12.415,0,0,1-2.6,6.159,25.16,25.16,0,0,0-4.4-2.64c2.36-2.679,2.56-6.4,2.56-9.4v-7.2h14.637V4759.2c1.16.04,2.4.04,2.879.04.521,0,.681-.2.681-.72v-14.877H509.657v-15.678h15.878Zm-14.358-4.36V4753.2h-4.759l-.04,1.039Zm-4.759-5.6v1h4.759v-1Zm8.678-16.158v1.2h4.64v-1.2Zm4.64,6.639v-1.24H515.1v1.24Z" fill="#6a2259"/>
      <path id="Path_7677" data-name="Path 7677" d="M544.138,4757H536.3v3.72h-5.36v-31.675h13.2Zm-7.838-22.8v6.039h2.439V4734.2Zm2.439,17.637v-6.559H536.3v6.559Zm20.316-16.117v3h7.52v5h-2.6v2.4h3.4v5.039h-3.4v7.6c0,2.639-.48,4.079-2.24,4.919s-4,.96-6.879.96a19.686,19.686,0,0,0-1.8-5.439c1.68.08,3.84.08,4.44.08s.8-.12.8-.64v-7.479H544.858v-5.039H558.3v-2.4H545.858v-5h7.479v-3h-8.479v-5.079h8.479v-4h5.718v4h8.519v5.079Zm-8.238,15.477c1.44,1.88,3.56,4.559,4.6,6.239L550.3,4760.4c-.88-1.679-2.88-4.519-4.32-6.6Z" fill="#6a2259"/>
      <path id="Path_7678" data-name="Path 7678" d="M601.015,4758.36c1.04,0,1.281-.6,1.44-4a17.494,17.494,0,0,0,5.359,2.28c-.679,5.639-2.239,7.239-6.239,7.239h-4.358c-5.2,0-6.4-1.76-6.4-7.159v-10.2h-4.8c-.759,7.878-2.8,14.438-12.958,18.277a16.886,16.886,0,0,0-3.6-5.039c8.518-2.8,9.879-7.519,10.4-13.238h-9.2v-5.639h14.917v-14.358h6.159v14.358h15v5.639h-9.958v10.118c0,1.56.16,1.72,1.359,1.72ZM578.7,4739.883a43.359,43.359,0,0,0-5.719-8.479l4.64-2.759a47.421,47.421,0,0,1,6.118,8.119Zm26.916-8.679a74.42,74.42,0,0,1-6.719,8.6l-5.159-2.119a42.831,42.831,0,0,0,5.679-8.679Z" fill="#6a2259"/>
      <path id="Path_7679" data-name="Path 7679" d="M652.176,4754.36a59.086,59.086,0,0,1,4.838,7.959l-5.718,2.56a53.406,53.406,0,0,0-4.52-8.4l5.039-2.121H619.9V4749.2h5.119v-4.119h-4.04v-5.159h.681a32.82,32.82,0,0,0-3.2-4.719,24.5,24.5,0,0,0,8.2-9.159l5.039,1.68a24.451,24.451,0,0,1-1.68,2.96h24.916v5.079H626.219c-.319.36-.639.719-.959,1.04h4.879v3.119H632.1V4736.8h4.8v3.119h2.2V4736.8h4.8v3.119h2.2V4736.8h5.32v3.119h3.6v5.159h-3.6v4.119h4.518v5.159Zm-33.2,8.239a43.045,43.045,0,0,0,4.719-7.958l5.68,1.479a58.644,58.644,0,0,1-4.68,8.8Zm6.039-22.676v-2.88a30.718,30.718,0,0,1-3.28,2.88Zm5.119,9.278H632.1v-4.119h-1.959Zm5.839,6.719a49.077,49.077,0,0,1,1.04,7.719l-5.719.84a54.293,54.293,0,0,0-.72-7.919Zm.92-10.838v4.119h2.2v-4.119Zm7.238,10.479a40.9,40.9,0,0,1,2.241,7.6l-5.84,1.12a42.692,42.692,0,0,0-1.879-7.8Zm-.24-10.479v4.119h2.2v-4.119Z" fill="#6a2259"/>
      <path id="Path_7680" data-name="Path 7680" d="M670.779,4729.245c-.76,2.239-1.68,4.559-2.68,6.8v28.6H662.58v-18.717q-.84,1.14-1.68,2.16a44.883,44.883,0,0,0-2.719-6.4,42.989,42.989,0,0,0,7.559-15l5.358,1.6v.04h25.437v4.119h-8v1.36h6.759v8.518H671.379V4733.8h6.439v-1.36h-7.039Zm19.316,29.4c2.76.96,5.68,2.12,7.479,2.96l-5,3.2a50.7,50.7,0,0,0-8.439-3.76l2.8-2.4H679.7l2.8,2a29.79,29.79,0,0,1-10.4,4.079,21.19,21.19,0,0,0-2.959-3.959,36.553,36.553,0,0,0,7.6-2.12h-4.879v-15.2h23.076v15.2Zm-13.757-19.517h1.48v-2.08h-1.48Zm.88,8.479H689.3v-1.04H677.218Zm0,3.959H689.3v-1.039H677.218Zm0,4H689.3v-1.08H677.218Zm6.718-23.117h-1.6v1.36h1.6Zm-1.6,6.679h1.6v-2.08h-1.6Zm6.2-2.08v2.08h1.519v-2.08Z" fill="#6a2259"/>
    </g>
  </g>
</svg>
