<?xml version="1.0" encoding="utf-8"?>
<!-- Generator: Adobe Illustrator 24.0.3, SVG Export Plug-In . SVG Version: 6.00 Build 0)  -->
<svg version="1.1" id="圖層_1" xmlns="http://www.w3.org/2000/svg" xmlns:xlink="http://www.w3.org/1999/xlink" x="0px" y="0px"
	 viewBox="0 0 170.4 118.8" style="enable-background:new 0 0 170.4 118.8;" xml:space="preserve">
<style type="text/css">
	.st0{fill:#BB9167;}
	.st1{fill:#FFFFFF;}
</style>
<g id="section4_txt2" transform="translate(-1244.883 -985.407)">
	<g id="Group_1564" transform="translate(0.015 -4569.432)">
		<path id="Path_7750" class="st0" d="M1248.9,5556.9c1,0.3,1.9,0.5,2.8,0.8c0.9,0.3,1.3,0.5,1.3,0.8c0,0.3-0.2,0.5-0.7,0.5
			c-0.5,0.1-0.7,0.2-0.8,0.3c-0.3,0.7-0.5,1.3-0.8,1.9h4.4v-2c0-1.4-0.1-2.8-0.3-4.2c0.8,0.1,1.9,0.3,3.1,0.5c1,0.2,1.5,0.3,1.5,0.5
			c0,0.3-0.3,0.5-0.9,0.8c-0.3,0.1-0.6,0.3-0.6,0.7v3.8h3.2c0.3-0.3,0.6-0.6,0.9-1c0.7-0.9,1.2-1.4,1.5-1.4c0.2,0,0.9,0.5,2,1.5
			c0.6,0.6,1,1,1,1.1c0,0.3-0.2,0.4-0.6,0.4h-7.9v6.6h2.5c0.3-0.4,0.7-0.7,0.9-1.1c0.7-0.9,1.1-1.3,1.2-1.3c0.3,0,0.9,0.4,1.7,1.2
			c0.8,0.8,1.2,1.3,1.2,1.5c0,0.3-0.2,0.4-0.5,0.4h-7v7.5h4.8c0.4-0.4,0.7-0.8,1-1.2c0.7-0.9,1.2-1.3,1.3-1.3c0.4,0,1,0.4,1.8,1.3
			c0.8,0.8,1.2,1.4,1.2,1.5c0,0.3-0.2,0.4-0.5,0.4h-19.1c-1.5,0-2.5,0-3.1,0.1l-0.4-1c1.2,0.1,2.4,0.2,3.6,0.2h6.6v-7.5h-3.9
			c-1.5,0-2.5,0-3.1,0.1l-0.4-1c1.2,0.2,2.4,0.3,3.6,0.2h3.9v-6.6h-4.7c-0.4,0.8-0.8,1.5-1.3,2.2c-1,1.4-2.2,2.7-3.5,3.8l-0.4-0.4
			c0.9-1.6,1.8-3.2,2.4-4.9C1248.2,5560.7,1248.6,5558.8,1248.9,5556.9z"/>
		<path id="Path_7751" class="st0" d="M1270.8,5561.5c1.2,0.2,2.3,0.7,3.4,1.3c0.9,0.6,1.1,1.9,0.4,2.8c-0.1,0.1-0.2,0.2-0.3,0.3
			c-0.3,0.3-0.7,0.5-1.2,0.5c-0.4,0-0.7-0.4-0.9-1.2c-0.4-1.2-1-2.3-1.8-3.2L1270.8,5561.5z M1277.8,5560.6l0.5,0.1
			c-0.8,3.5-1.5,6.3-1.9,8.2c-0.3,1.3-0.5,2.6-0.6,4c0,0.4,0,0.9,0.1,1.4c0.2,0.8,0.3,1.6,0.3,2.4c0,0.3-0.1,0.6-0.3,0.9
			c-0.3,0.3-0.6,0.4-1,0.4c-0.5,0-1-0.1-1.4-0.4c-0.2-0.2-0.3-0.5-0.3-0.9c0-0.5,0.1-0.9,0.2-1.3c0-0.4,0.1-0.7,0.1-1.1
			c0-0.5-0.1-1-0.3-1.4c-0.2-0.4-0.9-0.7-2-0.9l0.1-0.6c0.8,0,1.5,0,2.2-0.2c0.4-0.3,0.7-0.7,0.8-1.2L1277.8,5560.6z M1272.9,5555.2
			c1.2,0.2,2.4,0.7,3.5,1.4c0.9,0.6,1.1,1.7,0.5,2.6c-0.1,0.1-0.2,0.2-0.3,0.3c-0.3,0.3-0.7,0.5-1.1,0.5c-0.4,0-0.7-0.4-1-1.2
			c-0.4-1.2-1-2.3-1.9-3.2L1272.9,5555.2z M1291,5557.7c-1.3,0.3-2.6,0.5-3.9,0.7v5.1h1.9c0.4-0.3,0.7-0.7,0.9-1.1
			c0.7-0.9,1.1-1.3,1.2-1.3c0.4,0,0.9,0.4,1.7,1.2c0.8,0.8,1.2,1.3,1.2,1.5c0,0.3-0.2,0.4-0.5,0.4h-6.4v5.2h1.4
			c0.3-0.4,0.7-0.8,1.1-1.2c0.2-0.2,0.4-0.4,0.7-0.4c0.5,0.1,1.1,0.4,1.5,0.7c0.9,0.6,1.3,1,1.3,1.3c0,0.2-0.2,0.5-0.5,0.7
			c-0.2,0.2-0.4,0.5-0.4,0.8v3c0,0.8,0,2,0.1,3.4c0,0.3-0.5,0.6-1.4,0.8c-0.3,0-0.6,0.1-0.9,0.1c-0.5,0-0.7-0.3-0.7-0.8v-1h-7.2v1.1
			c0,0.3-0.4,0.6-1.3,0.8c-0.3,0-0.6,0.1-0.9,0.1c-0.4,0.1-0.8-0.2-0.8-0.6c0-0.1,0-0.1,0-0.2c0.1-0.9,0.1-1.9,0.1-2.8v-3.1
			c0-1.3-0.1-2.6-0.2-3.9c1.3,0.4,2.6,0.9,3.8,1.4h1.4v-5.2h-2.4c-1.5,0-2.5,0-3.1,0.1l-0.4-1c1.2,0.2,2.4,0.2,3.6,0.2h2.4v-4.7
			c-1.8,0.2-3.5,0.3-5.1,0.4l-0.2-0.6c2.1-0.3,4.2-0.9,6.2-1.6c1.6-0.5,3-1.3,4.4-2.2c0.8,0.6,1.5,1.1,2,1.5
			c0.8,0.5,1.1,0.9,1.1,1.2c0,0.2-0.1,0.3-0.4,0.3L1291,5557.7z M1282.2,5576h7.2v-5.9h-7.2V5576z"/>
		<path id="Path_7752" class="st0" d="M1301.6,5555c0.8,0.1,1.6,0.2,2.4,0.5c0.8,0.2,1.3,0.4,1.3,0.6c0,0.2-0.2,0.4-0.5,0.6
			c-0.3,0.1-0.5,0.2-0.5,0.4c-0.8,1.2-1.7,2.3-2.9,3.2h1.7c0.4-0.5,0.7-0.9,1-1.2c0.2-0.2,0.4-0.4,0.7-0.5c0.5,0.1,1,0.4,1.4,0.7
			c0.9,0.6,1.3,1,1.3,1.2c0,0.3-0.2,0.6-0.5,0.7c-0.2,0.2-0.4,0.4-0.4,0.7v11.3c0,0.8,0,1.9,0.1,3.2c0,0.3-0.4,0.6-1.3,0.7
			c-0.3,0-0.5,0.1-0.8,0.1c-0.5,0-0.7-0.3-0.7-0.8v-1.2h-3.2v1.7c0,0.3-0.4,0.6-1.2,0.7c-0.3,0-0.5,0.1-0.8,0.1
			c-0.4,0.1-0.8-0.2-0.8-0.6c0-0.1,0-0.1,0-0.2c0.1-0.9,0.1-1.8,0.1-2.6v-11.8c0-1.2-0.1-2.4-0.2-3.6c1,0.3,2,0.6,2.9,1
			C1301.1,5558.4,1301.5,5556.7,1301.6,5555z M1300.7,5567h3.2v-6.1h-3.2V5567z M1300.7,5574.5h3.2v-6.8h-3.2V5574.5z
			 M1309.8,5554.8c0.9,0.3,1.8,0.5,2.6,0.8c0.8,0.2,1.2,0.5,1.2,0.8c0,0.3-0.2,0.5-0.7,0.5c-0.4,0.1-0.7,0.2-0.7,0.3
			c-0.3,1-0.6,1.9-0.9,2.8h4.1c0.3-0.3,0.7-0.7,1-1c0.2-0.2,0.5-0.4,0.8-0.5c0.6,0.1,1.1,0.4,1.5,0.8c0.9,0.6,1.3,1.1,1.3,1.4
			c0,0.2-0.2,0.5-0.7,0.7c-0.3,0.2-0.4,0.3-0.4,0.5c0,3.5-0.2,7-0.6,10.5c-0.4,2.4-0.9,3.9-1.4,4.5c-0.4,0.5-0.9,0.9-1.5,1.1
			c-0.5,0.3-1,0.4-1.6,0.4c-0.3,0-0.5-0.3-0.7-1c-0.3-0.9-1.3-1.6-3.2-2.2l0.1-0.4c1.8,0.2,3,0.2,3.7,0.2c0.6,0,1-0.5,1.2-1.5
			c0.3-1.6,0.5-3.1,0.6-4.7c0.2-3.1,0.4-5.8,0.4-8.2h-4.8c-0.2,0.6-0.5,1.1-0.8,1.7c-0.8,1.5-1.8,2.9-2.9,4.2l-0.4-0.4
			c0.7-1.7,1.4-3.4,1.8-5.2C1309.2,5558.9,1309.5,5556.9,1309.8,5554.8L1309.8,5554.8z M1309.4,5564.5c1.2,0.6,2.4,1.3,3.4,2.2
			c0.5,0.4,0.8,1,0.9,1.7c0,0.7-0.2,1.4-0.7,2c-0.3,0.5-0.8,0.8-1.4,0.8c-0.2,0-0.4-0.1-0.5-0.2c-0.3-0.6-0.4-1.2-0.5-1.8
			c-0.3-1.5-0.9-2.9-1.7-4.2L1309.4,5564.5z"/>
		<path id="Path_7753" class="st0" d="M1327.7,5555.5c1.3,0.2,2.5,0.5,3.7,1.1c0.5,0.2,0.9,0.7,0.9,1.3c0,0.5-0.2,1-0.6,1.3
			c-0.1,0.1-0.2,0.2-0.3,0.3h3.7c0.5-1.5,0.8-3,0.9-4.6c1.2,0.2,2.2,0.4,2.9,0.6c1.1,0.2,1.6,0.4,1.6,0.7c0,0.2-0.3,0.4-0.9,0.5
			c-0.4,0.1-0.7,0.2-0.8,0.3c-0.9,0.9-1.9,1.8-3,2.4h3.8c0.3-0.4,0.7-0.7,1-1.1c0.7-0.8,1.1-1.3,1.2-1.3c0.4,0,0.9,0.4,1.7,1.2
			c0.8,0.8,1.2,1.3,1.2,1.5c0,0.3-0.2,0.4-0.5,0.4h-8.6v2.9h2.9c0.3-0.3,0.6-0.7,0.9-1.1c0.6-0.8,1-1.3,1.1-1.3
			c0.3,0,0.9,0.4,1.6,1.2c0.7,0.8,1.1,1.3,1.1,1.4c0,0.3-0.2,0.4-0.5,0.4h-7.1v3h5.4c0.4-0.3,0.7-0.7,0.9-1.1
			c0.7-0.8,1.1-1.3,1.2-1.3c0.4,0,0.9,0.4,1.7,1.2c0.8,0.8,1.2,1.3,1.2,1.5c0,0.3-0.2,0.4-0.5,0.4H1334c0.2,0,0.3,0.1,0.4,0.1
			c1.1,0.2,1.7,0.5,1.7,0.7c0,0.2-0.2,0.4-0.7,0.6c-0.3,0.1-0.6,0.4-0.7,0.7c-0.1,0.5-0.2,0.9-0.4,1.3h6.4c0.4-0.3,0.7-0.7,1-1.1
			c0.7-0.9,1.1-1.3,1.2-1.3c0.4,0,0.9,0.4,1.7,1.2c0.8,0.8,1.2,1.3,1.2,1.5c0,0.3-0.2,0.4-0.5,0.4h-9.8c0.8,0.8,1.7,1.5,2.8,2.1
			c0.9,0.5,1.9,0.8,2.9,1c1.6,0.4,3.2,0.7,4.8,0.9l-0.3,0.6c-0.7,0.3-1.2,0.8-1.5,1.4c-0.2,0.6-0.3,0.9-0.4,0.9
			c-0.8-0.1-1.6-0.4-2.3-0.7c-1.1-0.4-2.2-0.9-3.1-1.5c-0.9-0.6-1.6-1.3-2.2-2.1c-0.6-0.8-1.2-1.7-1.6-2.6h-0.6
			c-0.3,1-0.8,1.9-1.5,2.7c-1,1.1-2.1,1.9-3.4,2.6c-2.1,0.9-4.4,1.5-6.7,1.8l-0.2-0.3c2-0.7,3.8-1.6,5.6-2.7
			c1.1-0.7,2.1-1.7,2.7-2.8c0.2-0.4,0.4-0.8,0.6-1.3h-4.9c-1.1,0-2.1,0-3.1,0.1l-0.4-1c1.2,0.2,2.4,0.2,3.6,0.2h5.1
			c0.3-1.1,0.4-2.2,0.4-3.4h-5.6c-1.5,0-2.5,0-3.1,0.1l-0.4-1c1.2,0.1,2.4,0.2,3.6,0.2h6.3v-3h-3.5c-1.5,0-2.5,0-3.1,0.1l-0.4-1
			c1.2,0.2,2.4,0.3,3.6,0.2h3.5v-2.9h-5.1c-1.5,0-2.5,0-3.1,0.1l-0.4-1c1.2,0.2,2.4,0.2,3.6,0.2h2.5c-0.2-0.2-0.4-0.5-0.6-0.8
			c-0.5-1-1.2-2-2.1-2.7L1327.7,5555.5z"/>
		<path id="Path_7754" class="st0" d="M1351.5,5554.8c0.8,0.2,1.6,0.5,2.3,0.7c0.7,0.2,1.1,0.5,1.1,0.7c0,0.3-0.2,0.4-0.6,0.5
			c-0.4,0.1-0.6,0.1-0.7,0.3c-0.5,1.2-1.3,2.3-2.1,3.2c-0.9,1-2,1.9-3.1,2.6l-0.3-0.3c0.8-1.1,1.5-2.3,2.1-3.6
			C1350.8,5557.7,1351.2,5556.3,1351.5,5554.8z M1352.9,5559.5c0.8,0.2,1.6,0.5,2.4,0.7c0.7,0.2,1.1,0.5,1.1,0.7c0,0,0,0.1,0,0.1
			c0.7,0,1.5,0.1,2.4,0.1v-2c0-1.5-0.1-2.9-0.2-4.4c0.8,0.1,1.8,0.2,3,0.4c0.8,0.1,1.2,0.3,1.2,0.5c0,0.1,0,0.2-0.1,0.3
			c0.6,0.2,1.1,0.4,1.7,0.7c0.5,0.3,0.8,0.6,0.8,0.9c0,0.6-0.2,1.1-0.6,1.4c-0.1,0.1-0.1,0.1-0.2,0.2c0.4,0.3,0.7,0.6,1,0.9
			c0.4,0.3,0.7,0.8,0.9,1.2c0,0.3-0.1,0.4-0.4,0.4h-4.3v15.9c0,0.3-0.4,0.6-1.2,0.8c-0.3,0-0.5,0.1-0.8,0.1c-0.6,0-0.9-0.3-0.9-0.8
			c0.2-1.6,0.2-3,0.2-4.3v-11.7c-1.2,0-2.1,0.1-2.7,0.1l-0.2-0.6c0,0,0,0-0.1,0c-0.4,0.1-0.7,0.2-0.7,0.3c-0.4,1-0.9,2-1.5,2.9
			c0.1,0,0.1,0,0.2,0.1c0.5,0.2,0.8,0.3,0.8,0.4c0,0.3-0.2,0.6-0.5,0.7c-0.2,0.1-0.3,0.3-0.3,0.6v11.7c0,0.3-0.4,0.5-1.2,0.7
			c-0.3,0-0.5,0.1-0.8,0.1c-0.6,0-0.9-0.2-0.9-0.7c0.2-1.8,0.2-3.6,0.2-5.5v-4.8c-0.8,0.8-1.7,1.6-2.6,2.3l-0.3-0.3
			c1.1-1.4,2.1-3,2.9-4.7C1352,5563.2,1352.5,5561.4,1352.9,5559.5L1352.9,5559.5z M1355.5,5564c0.6,0.1,1.2,0.2,1.5,0.3
			c1,0.2,1.5,0.4,1.5,0.5c0,0.2-0.1,0.4-0.3,0.5c-0.3,0.2-0.5,0.3-0.5,0.4c0,1.6-0.2,3.2-0.6,4.7c-0.2,0.9-0.6,1.8-1.1,2.7
			c-0.4,0.7-1.1,1.3-2,1.5l-0.1-0.3c0.4-0.7,0.7-1.4,0.9-2.2c0.2-0.9,0.4-1.7,0.4-2.6C1355.5,5568.4,1355.5,5566.5,1355.5,5564z
			 M1363.4,5559.5L1363.4,5559.5c-0.2,0-0.3-0.1-0.4-0.2c-0.2-0.2-0.3-0.5-0.3-0.8c-0.2-0.7-0.4-1.4-0.7-2.1c0,0,0,0-0.1,0
			c-0.4,0.1-0.6,0.3-0.6,0.6v4.2h0.7c0.3-0.3,0.5-0.6,0.7-0.9C1363.1,5559.9,1363.3,5559.7,1363.4,5559.5L1363.4,5559.5z
			 M1362,5564.4c0.6,0.1,1.4,0.1,2.4,0.3c0.7,0.1,1,0.2,1,0.4c0,0.2-0.2,0.4-0.6,0.6c-0.2,0-0.4,0.2-0.4,0.5v4.5
			c0,0.3,0,0.5,0.1,0.5c0.1,0.1,0.3,0.2,0.4,0.2c0.1,0,0.2,0,0.3-0.1c0.1-0.2,0.1-0.4,0.2-0.6c0-0.4,0.1-0.9,0.2-1.6h0.4
			c0.1,0.7,0.1,1.3,0.1,1.6c0,0.3,0.1,0.6,0.4,0.8c0.4,0.2,0.5,0.4,0.5,0.6c0,0.3-0.1,0.5-0.2,0.7c-0.2,0.2-0.4,0.4-0.7,0.4
			c-0.4,0.1-0.7,0.2-1.1,0.2c-0.5,0-1,0-1.5-0.1c-0.3,0-0.5-0.2-0.7-0.4c-0.3-0.5-0.4-1-0.4-1.6v-4
			C1362.2,5566.3,1362.2,5565.3,1362,5564.4L1362,5564.4z M1370.1,5560.5c0.2,0,0.6,0.4,1.2,1.2c0.4,0.4,0.7,0.9,0.9,1.4
			c0,0.3-0.1,0.4-0.4,0.4h-1.5v11.7c0.1,1-0.4,2-1.3,2.5c-0.6,0.3-1.2,0.6-1.9,0.6c-0.2,0-0.4-0.3-0.6-0.9c-0.2-0.8-1.2-1.5-2.8-2.1
			l0.1-0.4c1,0.1,2,0.2,3,0.2c0.5,0,0.8-0.2,0.8-0.7v-11h-0.5c-0.5,0-1.2,0-2,0.1l-0.4-1c0.8,0.1,1.6,0.2,2.4,0.2h1.9
			c0.2-0.3,0.4-0.7,0.6-1.3C1369.8,5560.9,1370,5560.5,1370.1,5560.5z M1370.1,5554.8c0.2,0,0.6,0.4,1.2,1.2
			c0.4,0.4,0.7,0.9,0.9,1.4c0,0.3-0.1,0.4-0.4,0.4h-4.3c-0.5,0-1.2,0-2,0.1l-0.4-1c0.8,0.1,1.6,0.2,2.5,0.2h1.3
			c0.2-0.4,0.4-0.8,0.6-1.2C1369.8,5555.2,1370,5554.8,1370.1,5554.8z"/>
		<path id="Path_7755" class="st0" d="M1378.7,5554.9c0.8,0.2,1.6,0.5,2.4,0.7c0.7,0.2,1.1,0.5,1.1,0.7s-0.2,0.4-0.6,0.5
			c-0.4,0.1-0.7,0.1-0.7,0.2c1.1,0.2,2.1,0.6,3.1,1c0.6,0.3,0.9,0.9,1,1.5c0,0.4-0.2,0.7-0.5,1c-0.2,0.2-0.5,0.4-0.8,0.4
			c-0.6-0.1-1.1-0.4-1.4-1c-0.5-0.9-1.1-1.6-1.9-2.2c-0.6,1-1.3,1.9-2.1,2.7c-0.3,0.3-0.6,0.6-1,0.9c0.8,0.1,1.5,0.1,2,0.1h1.1
			c0.2-0.3,0.3-0.6,0.5-0.9c0.3-0.5,0.4-0.8,0.5-0.8c0.2,0,0.5,0.3,0.9,0.9c0.3,0.3,0.5,0.7,0.7,1.1c0,0.3-0.1,0.4-0.3,0.4h-3.4
			c-0.5,0-1.2,0-2,0.1l-0.3-0.7c-0.7,0.6-1.5,1.1-2.3,1.6l-0.3-0.3c1-1.1,1.9-2.3,2.6-3.7
			C1377.8,5557.8,1378.3,5556.4,1378.7,5554.9z M1375.8,5563.2c1.1,0.2,2.1,0.6,3,1h2.2c0.3-0.3,0.5-0.6,0.7-0.8
			c0.3-0.4,0.5-0.6,0.7-0.6c0.5,0.1,1,0.4,1.4,0.7c0.8,0.6,1.2,1,1.2,1.2c0,0.2-0.2,0.4-0.6,0.7c-0.3,0.2-0.4,0.4-0.5,0.7v0.9
			l0.2,4.6c0,0.3-0.4,0.5-1.3,0.6c-0.3,0-0.6,0.1-0.8,0.1c-0.4,0-0.6-0.2-0.6-0.7v-0.2h-2.9v3.7c1-0.1,2-0.3,2.9-0.4
			c-0.4-0.7-0.9-1.4-1.5-2l0.2-0.4c1.3,0.3,2.6,0.9,3.7,1.7c0.6,0.5,0.9,1.3,0.9,2.1c0,0.4-0.2,0.8-0.5,1.1
			c-0.2,0.2-0.6,0.4-0.9,0.4c-0.4,0-0.8-0.4-1.1-1.3c-0.1-0.3-0.2-0.5-0.3-0.8c-1.4,1-3,1.8-4.7,2.3c-0.2,0-0.4,0.1-0.4,0.3
			c0,0.1,0,0.2-0.1,0.3c0,0.2-0.1,0.3-0.2,0.3c-0.3,0-0.7-0.6-1.2-1.7c-0.1-0.3-0.4-0.8-0.7-1.5c0.5,0,0.9-0.1,1.3-0.1v-7.7
			C1376.1,5566.2,1376,5564.7,1375.8,5563.2z M1378.7,5567.5h2.9v-2.6h-2.9V5567.5z M1378.7,5570.7h2.9v-2.6h-2.9V5570.7z
			 M1389.3,5554.9c1,0.1,2.1,0.3,3.1,0.5c0.6,0,0.9,0.2,0.9,0.5c0,0.1-0.2,0.2-0.5,0.4c-0.4,0.2-0.6,0.4-0.6,0.6v1.9h1.7
			c0.3-0.3,0.6-0.5,0.8-0.7c0.3-0.3,0.6-0.5,0.8-0.5c0.3,0,0.8,0.4,1.7,1.1c0.8,0.6,1.2,1.1,1.2,1.3c0,0.2-0.2,0.3-0.6,0.4
			c-0.3,0-0.5,0-0.8,0.1c-0.6,0.5-1.2,0.9-1.8,1.3c0.2,0.1,0.3,0.2,0.5,0.4c0.9,0.6,1.3,1,1.3,1.2c0,0.2-0.2,0.4-0.5,0.6
			c-0.2,0.1-0.4,0.3-0.5,0.6v3.8c0,0.3-0.4,0.5-1.3,0.6c-0.3,0-0.6,0.1-0.8,0.1c-0.3,0.1-0.7-0.2-0.7-0.5c0-0.1,0-0.1,0-0.2v-0.5
			h-4.3v3h4c0.3-0.4,0.7-0.8,1.1-1.1c0.2-0.2,0.4-0.4,0.7-0.4c0.5,0.2,1,0.4,1.5,0.7c0.9,0.6,1.3,1.1,1.3,1.3c0,0.2-0.2,0.5-0.5,0.7
			c-0.2,0.2-0.4,0.4-0.4,0.7v1.6c0,0.8,0,1.9,0.1,3.2c0,0.3-0.4,0.6-1.3,0.8c-0.3,0-0.5,0.1-0.8,0.1c-0.5,0-0.7-0.3-0.7-0.8v-0.9h-5
			v1c0,0.3-0.4,0.6-1.2,0.8c-0.3,0-0.5,0.1-0.8,0.1c-0.5,0-0.8-0.3-0.8-0.8c0.1-0.9,0.1-1.7,0.1-2.6v-10c0-0.8,0-1.7-0.1-2.4
			c-0.2,0.1-0.5,0.1-0.7,0.1c-0.3,0-0.7-0.1-0.9-0.4c-0.2-0.2-0.3-0.5-0.3-0.8c0-0.2,0.4-0.6,1.2-1.2c0.8-0.8,1.2-1.9,1.2-3l0.5-0.1
			c0.3,0.5,0.6,1.1,0.7,1.6h1.8v-1.8C1389.5,5556.4,1389.4,5555.6,1389.3,5554.9L1389.3,5554.9z M1389.2,5562.7h3.4
			c0.3-0.4,0.5-0.7,0.8-0.9c0.1-0.1,0.2-0.2,0.4-0.3c0.2-0.6,0.3-1.3,0.4-1.9h-6.4c0,0.8-0.2,1.6-0.6,2.3
			C1387.8,5562.1,1388.5,5562.4,1389.2,5562.7z M1388.8,5567.1h4.3v-3.7h-4.3V5567.1z M1388.8,5576h5v-4.5h-5V5576z"/>
	</g>
	<g>
		<path class="st1" d="M1254.7,1025.9v3.5h7.1v9.7h-1.9v-1.1h-5.2v6.7h-2v-6.7h-5.2v1.1h-1.9v-9.7h7.1v-3.5H1254.7z M1252.8,1036
			v-4.8h-5.2v4.8H1252.8z M1259.9,1036v-4.8h-5.2v4.8H1259.9z"/>
		<path class="st1" d="M1277.6,1038.3h1.9l0.1-2.3h-1.4v-1.6h1.5l0.1-2.1h-1.6v-1.6h1.7l0.1-2.3h-1.9v-1.8h3.7l-0.4,11.7h1.4v1.8
			h-5.7c2.1,0.8,3.9,1.7,5.7,2.8l-1.1,1.7c-1.9-1.4-3.9-2.4-6-3.2l0.8-1.3h-11.7v-1.8h1.5l-0.5-11.1c1.1-0.2,2.2-0.6,3.3-1.2
			l0.7,1.6c-0.5,0.3-1.2,0.5-2.2,0.8l0.1,2.3h1.7v1.6h-1.6l0.1,2h1.6v1.6h-1.5l0.1,2.3h1.9v-11.6h7.7V1038.3z M1271.9,1041.3
			c-1.5,1.2-3.4,2.2-5.7,3.2l-1.2-1.5c2.2-0.8,4.1-1.7,5.6-2.8L1271.9,1041.3z M1276,1038.3v-10h-4.5v10H1276z M1275.4,1029.3v1.3
			h-3.3v-1.3H1275.4z M1275.4,1031.7v5.6h-3.2v-5.6H1275.4z M1274.2,1033h-0.8v3h0.8V1033z"/>
		<path class="st1" d="M1293,1029.2c-0.5-1-1.2-1.9-1.9-2.7l1.9-0.7c0.7,1,1.4,2.1,2,3.4h7.6v1.9h-3.1c-1,3-2.4,5.6-4.3,7.6
			c2.1,1.7,4.7,3.1,7.8,4.2l-1.1,1.6c-3.2-1.2-5.9-2.7-8-4.5c-2.3,2-5,3.5-8.3,4.4l-1-1.7c3.2-0.8,5.9-2.2,8-4
			c-2.2-2.2-3.7-4.8-4.6-7.8h-3.1v-1.9H1293z M1293.9,1037.6c1.6-1.8,2.8-3.9,3.6-6.5h-7.7C1290.6,1033.6,1292,1035.7,1293.9,1037.6
			z"/>
		<path class="st1" d="M1312.2,1026.7c-0.7,1.6-1.6,3.2-2.6,4.7v13.2h-1.9v-11c-0.8,0.8-1.7,1.7-2.6,2.4l-0.6-2
			c2.7-2.3,4.7-5.1,6-8.2L1312.2,1026.7z M1322,1033.4l-6.3,0.4v7.7c0,0.6,0.3,0.8,0.9,0.8h3c0.4,0,0.8-0.2,1-0.5
			c0.2-0.3,0.3-1.4,0.4-3.2l1.8,0.6c-0.1,2.3-0.4,3.7-0.8,4.2c-0.4,0.5-1.1,0.7-2.1,0.7h-3.8c-1.6,0-2.4-0.8-2.4-2.4v-15.6h1.9v5.9
			l6.3-0.4V1033.4z"/>
		<path class="st1" d="M1331.1,1026.1c1.6,1,3.3,2.2,5.1,3.6l-1.1,1.5c-0.7-0.6-1.3-1.1-1.9-1.5v1.2h-4.8v-0.7
			c-0.9,0.7-1.9,1.5-3,2.2l-1.1-1.5c2.2-1.4,4.1-2.9,5.6-4.6H1331.1z M1335.2,1044.4h-1.8v-0.7h-3.8v0.7h-1.7v-5.5
			c-0.4,2.1-1.1,3.9-2,5.5l-1.5-1.3c1.3-2,2-4.5,2-7.6v-3.7h8.6v5.9h-6.9c0,0.4-0.1,0.8-0.2,1.1h7.2V1044.4z M1328.2,1035.5
			c0,0.3,0,0.5,0,0.8h5v-1h-4.9V1035.5z M1333.1,1033.1h-4.9v1h4.9V1033.1z M1332.9,1029.4c-0.9-0.7-1.6-1.2-2.2-1.6
			c-0.5,0.5-1,1-1.5,1.6H1332.9z M1333.4,1042.2v-1.9h-3.8v1.9H1333.4z M1337.3,1044.3l-0.4-1.8c1,0.1,1.9,0.1,2.8,0.1
			c0.5,0,0.7-0.2,0.7-0.7v-15.7h1.9v16.2c0,1.3-0.7,2-1.9,2H1337.3z M1338.7,1027.4v12.8h-1.8v-12.8H1338.7z"/>
		<path class="st1" d="M1348.2,1039.8c-0.5,1.6-1.1,2.9-1.9,4.1l-1.6-1c0.8-1.1,1.4-2.2,1.7-3.5L1348.2,1039.8z M1345.9,1028.7v-1.6
			h6.6c-0.2-0.3-0.3-0.7-0.5-0.9l2.1-0.3c0.2,0.4,0.3,0.8,0.5,1.3h6.9v1.6h-3.2l-0.6,1.2h4.7v1.6H1345v-1.6h4.5l-0.5-1.2H1345.9z
			 M1360.4,1032.4v6.2h-13.3v-6.2H1360.4z M1358.5,1034.8v-1h-9.6v1H1358.5z M1358.5,1036.2h-9.6v1h9.6V1036.2z M1351.7,1044.1
			c-1.5,0-2.3-0.7-2.3-2.1v-2.6h1.9v2.2c0,0.5,0.3,0.8,0.9,0.8h4c0.4,0,0.6-0.1,0.8-0.2c0.2-0.2,0.3-0.7,0.4-1.6l1.8,0.6
			c-0.2,1.4-0.4,2.3-0.9,2.5c-0.4,0.2-1,0.4-1.7,0.4H1351.7z M1355.8,1029.9l0.6-1.2h-5.3l0.5,1.2H1355.8z M1356,1040.8l-1.6,1.1
			c-0.5-0.7-1.1-1.4-1.9-2.2l1.6-1C1355,1039.5,1355.6,1040.2,1356,1040.8z M1363,1042.5l-1.6,1.1c-0.6-1.1-1.4-2.3-2.5-3.5l1.5-1
			C1361.6,1040.4,1362.4,1041.6,1363,1042.5z"/>
		<path class="st1" d="M1382.1,1044.5h-1.8v-0.8h-13v0.8h-1.8v-17.8h16.6V1044.5z M1380.2,1042v-13.6h-13v13.6H1380.2z
			 M1378.2,1034.1v3.5l0.2-0.1l1.1,0.9c-0.6,0.4-1.2,0.7-1.8,1.1c0.6,0.3,1.3,0.7,1.8,1l-0.9,1.3c-1.6-1.1-3.2-2-4.9-2.6l0.8-1.1
			c0.6,0.2,1.2,0.5,1.8,0.7c0.7-0.4,1.3-0.7,1.8-1.1h-4.5c-0.3,0.4-0.7,0.7-1.1,1v1.8c0.7-0.2,1.4-0.4,2.1-0.6l0.3,1.3
			c-1.3,0.3-2.5,0.6-3.9,0.9l-0.5-1.2c0.3-0.1,0.4-0.3,0.4-0.6v-0.7c-0.7,0.4-1.6,0.7-2.5,1l-0.9-1.4c1.9-0.5,3.3-1,4.1-1.6h-2.6
			v-3.5H1378.2z M1372.9,1029.7v-0.9h1.7v0.9h3.9v1.4h-3.9v0.9h4.9v1.4H1368v-1.4h4.8v-0.9h-3.9v-1.4H1372.9z M1376.7,1035.3h-5.9v1
			h5.9V1035.3z"/>
		<path class="st1" d="M1402.1,1026.6v1.8h-14.6v12.6c0,0.6,0.3,0.9,0.9,0.9h14.1v1.8h-14.6c-1.5,0-2.2-0.8-2.2-2.2v-13.1h-0.8v-1.8
			H1402.1z M1394.4,1035.5v5.6h-5.7v-5.6H1394.4z M1399.4,1029.4v5h-9.3v-5H1399.4z M1392.7,1037.1h-2.4v2.4h2.4V1037.1z
			 M1397.7,1031h-5.7v1.7h5.7V1031z M1401.4,1035.5v5.6h-5.7v-5.6H1401.4z M1399.8,1037.1h-2.4v2.4h2.4V1037.1z"/>
		<path class="st1" d="M1412.6,1034.6c0.6,0.7,1.2,1.4,1.8,2.1l-1.3,1.1c-0.5-0.8-1.1-1.5-1.7-2.1c-0.7-0.8-1.5-1.5-2.3-2.1l1.1-1
			C1411,1033.2,1411.9,1033.8,1412.6,1034.6z"/>
		<path class="st1" d="M1247.2,1071c-0.1,1.3-0.3,2.5-0.6,3.6l-1.6-0.5c0.4-0.9,0.6-2,0.7-3.2L1247.2,1071z M1252.5,1069.8l-1.5,0.4
			c-0.1-0.2-0.1-0.5-0.2-0.7c-1.8,0.4-3.5,0.7-5.1,0.8l-0.4-1.5c0.3-0.1,0.5-0.3,0.7-0.5c0.5-0.4,1.2-1.1,1.9-2
			c-0.8,0.1-1.7,0.2-2.6,0.3l-0.4-1.4c0.2-0.1,0.5-0.3,0.7-0.6c0.8-1,1.5-2.2,2.1-3.4l1.7,0.6c-0.8,1.3-1.5,2.4-2.3,3.3l2-0.2
			c0.5-0.7,0.9-1.4,1.5-2.1l1.6,0.6c-1.8,2.4-3.2,4.2-4.4,5.3c0.9-0.1,1.8-0.3,2.7-0.5c-0.2-0.5-0.3-1-0.5-1.4l1.3-0.4
			C1251.8,1067.4,1252.2,1068.5,1252.5,1069.8z M1261.5,1056.7v4.5H1246v-4.5H1261.5z M1250.6,1058.2h-2.8v1.5h2.8V1058.2z
			 M1249.9,1073.9l-1.6,0.3c-0.1-1.3-0.2-2.4-0.3-3.3l1.4-0.3C1249.6,1071.6,1249.8,1072.7,1249.9,1073.9z M1252.6,1073.1l-1.4,0.7
			c-0.2-1.1-0.5-2.1-0.7-3l1.4-0.5C1252.1,1071.2,1252.4,1072.1,1252.6,1073.1z M1255.3,1074.5h-1.7v-8.2c-0.4,0.4-0.8,0.9-1.2,1.3
			l-0.5-1.7c1.3-1.4,2.2-2.9,2.7-4.5l1.7,0.3c-0.2,0.6-0.5,1.2-0.7,1.7h2.3c-0.2-0.6-0.4-1.2-0.6-1.7l1.7-0.3c0.2,0.6,0.4,1.3,0.6,2
			h2.8v1.7h-2.7v1.3h2.4v1.5h-2.4v1.3h2.5v1.6h-2.5v1.4h3.1v1.7h-7.4V1074.5z M1255.2,1058.2h-2.8v1.5h2.8V1058.2z M1255.3,1065v1.3
			h2.7v-1.3H1255.3z M1255.3,1069.2h2.7v-1.3h-2.7V1069.2z M1255.3,1072.1h2.7v-1.4h-2.7V1072.1z M1259.7,1058.2h-2.8v1.5h2.8
			V1058.2z"/>
		<path class="st1" d="M1272.8,1057.6v-1.7h1.8v1.7h7.8v1.8h-7.8v1.4h6.4v7.7h-4.7c1.5,1.5,3.6,2.7,6.6,3.6l-0.9,1.8
			c-3.4-1.4-5.9-3.2-7.4-5.4h0v6h-1.8v-6h0c-1.3,2.1-3.6,3.9-7.1,5.4l-1.1-1.7c3.1-1.1,5.3-2.4,6.5-3.7h-4.8v-7.7h6.4v-1.4h-7.8
			v-1.8H1272.8z M1272.8,1062.4h-4.6v1.5h4.6V1062.4z M1268.2,1066.9h4.6v-1.5h-4.6V1066.9z M1279.2,1062.4h-4.5v1.5h4.5V1062.4z
			 M1274.7,1066.9h4.5v-1.5h-4.5V1066.9z"/>
		<path class="st1" d="M1293,1059.2c-0.5-1-1.2-1.9-1.9-2.7l1.9-0.7c0.7,1,1.4,2.1,2,3.4h7.6v1.9h-3.1c-1,3-2.4,5.6-4.3,7.6
			c2.1,1.7,4.7,3.1,7.8,4.2l-1.1,1.6c-3.2-1.2-5.9-2.7-8-4.5c-2.3,2-5,3.5-8.3,4.4l-1-1.7c3.2-0.8,5.9-2.2,8-4
			c-2.2-2.2-3.7-4.8-4.6-7.8h-3.1v-1.9H1293z M1293.9,1067.6c1.6-1.8,2.8-3.9,3.6-6.5h-7.7C1290.6,1063.6,1292,1065.7,1293.9,1067.6
			z"/>
		<path class="st1" d="M1312.2,1056.7c-0.7,1.6-1.6,3.2-2.6,4.7v13.2h-1.9v-11c-0.8,0.8-1.7,1.7-2.6,2.4l-0.6-2
			c2.7-2.3,4.7-5.1,6-8.2L1312.2,1056.7z M1322,1063.4l-6.3,0.4v7.7c0,0.6,0.3,0.8,0.9,0.8h3c0.4,0,0.8-0.2,1-0.5
			c0.2-0.3,0.3-1.4,0.4-3.2l1.8,0.6c-0.1,2.3-0.4,3.7-0.8,4.2c-0.4,0.5-1.1,0.7-2.1,0.7h-3.8c-1.6,0-2.4-0.8-2.4-2.4v-15.6h1.9v5.9
			l6.3-0.4V1063.4z"/>
		<path class="st1" d="M1326.1,1059.2v-1.8h15.3v1.8h-6.7v12.2h8v1.8h-17.9v-1.8h8v-12.2H1326.1z"/>
		<path class="st1" d="M1346.8,1061.2v-5.1h1.8v5.1h2v1.8h-2v6.1c0.7-0.3,1.3-0.5,1.9-0.8v1.8c-1.8,0.8-3.6,1.4-5.6,2l-0.5-1.8
			c0.8-0.2,1.6-0.3,2.3-0.6v-6.7h-2.1v-1.8H1346.8z M1362.9,1063.8v1.6h-7.5c-0.2,0.3-0.3,0.6-0.5,0.9h7.5c0,2-0.1,3.6-0.3,4.8
			c-0.2,1.2-0.4,2-0.8,2.5c-0.4,0.5-0.9,0.7-1.7,0.8h-1.7l-0.5-1.7c0.5,0,0.9,0.1,1.3,0.1c0.7,0,1.2-0.3,1.4-0.9
			c0.2-0.6,0.4-2,0.5-4h-0.7c-1.3,3.3-3.5,5.5-6.5,6.6l-1-1.5c2.7-0.9,4.6-2.6,5.8-5h-1.3c-1,1.7-2.6,3.1-4.9,4.1l-1.1-1.3
			c1.9-0.7,3.3-1.7,4.2-2.8h-1.5c-0.5,0.5-1.1,0.9-1.8,1.4l-1-1.4c1.3-0.7,2.3-1.5,2.9-2.4h-2.6v-1.6H1362.9z M1361.6,1056.6v6.3
			h-9.4v-6.3H1361.6z M1359.8,1059.1v-1h-5.9v1H1359.8z M1359.8,1060.5h-5.9v1h5.9V1060.5z"/>
		<path class="st1" d="M1375,1064.2c0.3,0.4,0.5,1,0.5,1.6c0,1-0.3,1.9-0.9,2.7c-0.6,0.8-1.4,1.3-2.4,1.5v-1.2
			c0.5-0.2,1-0.5,1.4-0.9c0.3-0.5,0.5-0.9,0.5-1.4c-0.1,0-0.3,0.1-0.5,0.1c-0.4,0-0.8-0.2-1-0.4c-0.3-0.3-0.4-0.6-0.4-1.1
			c0-0.4,0.1-0.8,0.4-1.1c0.3-0.3,0.7-0.4,1.1-0.4C1374.2,1063.5,1374.6,1063.7,1375,1064.2z"/>
		<path class="st1" d="M1255.2,1086.8c-0.3,0.3-0.5,0.6-0.8,0.8h5.3v1.5c-2.2,3.8-6.2,6-12,6.5l-0.8-1.7c1.7-0.1,3.2-0.3,4.5-0.7
			c-0.6-0.7-1.2-1.3-1.8-1.9l1.6-0.8c0.7,0.6,1.3,1.3,1.9,2c1.8-0.8,3.3-1.9,4.4-3.3h-5.4c-1.6,0.9-3.4,1.6-5.5,2.1l-1.1-1.7
			c3.5-0.6,6.2-1.9,7.9-3.7L1255.2,1086.8z M1255.2,1100.7c2-0.9,3.5-2.1,4.7-3.6h-5.5c-1.7,0.8-3.8,1.4-6.1,1.9l-1.1-1.7
			c4.4-0.4,7.6-1.7,9.6-3.9l1.6,0.9c-0.4,0.4-0.8,0.7-1.2,1.1h5.1v1.5c-2.9,4.7-8.2,7.1-16,7.3l-0.8-1.8c3,0,5.6-0.3,7.8-1
			c-0.6-0.8-1.3-1.5-1.9-2.2l1.7-0.8C1253.9,1099.1,1254.5,1099.9,1255.2,1100.7z"/>
		<path class="st1" d="M1282.4,1092.8v1.8h-5.4v7c0,0.5,0.2,0.8,0.7,0.8h2.2c0.3,0,0.5-0.2,0.7-0.5c0.2-0.3,0.3-1.3,0.3-3l1.7,0.6
			c-0.1,2.2-0.4,3.6-0.8,4c-0.4,0.4-0.9,0.6-1.6,0.6h-3.1c-1.4,0-2-0.7-2-2.1v-7.4h-3.2v0.4c-0.1,2.6-0.6,4.6-1.6,6.2
			c-1,1.4-2.6,2.5-4.8,3.3l-1-1.6c2.2-0.8,3.6-1.8,4.4-2.9c0.8-1.3,1.2-2.9,1.3-4.9v-0.4h-5v-1.8H1282.4z M1280.6,1087v1.8h-13.9
			v-1.8H1280.6z"/>
		<path class="st1" d="M1294.9,1096.7c-0.1,0.4-0.1,0.8-0.2,1.1h7.4v1.8h-8.1c-0.5,0.9-1.1,1.7-1.8,2.3c-1.3,1.2-3.6,2.1-7,2.8
			l-0.8-1.8c2.9-0.5,4.9-1.2,6.2-2.2c0.4-0.3,0.7-0.7,1-1h-6.3v-1.8h7.3c0.1-0.4,0.2-0.9,0.3-1.3L1294.9,1096.7z M1289.9,1087.9
			c-0.2-0.6-0.5-1.1-0.8-1.6l2-0.3c0.3,0.6,0.5,1.2,0.8,1.9h4c0.3-0.6,0.5-1.3,0.7-2l2,0.3c-0.2,0.6-0.4,1.2-0.7,1.7h4.2v1.7h-7.2
			v1.5h6.1v1.6h-6.1v1.6h7.9v1.8h-17.6v-1.8h7.9v-1.6h-6.1v-1.6h6.1v-1.5h-7.2v-1.7H1289.9z M1303,1103l-1.1,1.7
			c-2.4-1.3-4.8-2.4-7.3-3.1l1-1.5C1298.3,1100.8,1300.8,1101.8,1303,1103z"/>
		<path class="st1" d="M1319.2,1096.3v1.4c-1.3,0.6-2.8,1.1-4.4,1.6v0.3h7.7v1.5h-7.7v1.5c0,1.1-0.6,1.7-1.8,1.7h-2.3l-0.4-1.5
			c0.7,0,1.4,0.1,2.2,0.1c0.4,0,0.6-0.3,0.6-0.8v-0.9h-8.2v-1.5h8.2v-1c1.3-0.4,2.3-0.7,3.2-1h-8.2v-1.4H1319.2z M1308,1091.6h2.8
			v1.3h-2.7l0.1,1.1h11l0.1-1.1h-2.7v-1.3h2.8l0.1-1h-2.8v-1.3h2.8l0.1-1.1h-3.1v-1.5h4.9l-0.5,7.3h1.4v3.4h-1.8v-2H1307v1.9h-1.8
			v-3.3h1.4l-0.5-6.9c1.4-0.2,2.9-0.5,4.3-0.9l0.6,1.4c-0.7,0.2-1.7,0.5-3.2,0.7l0.1,1h2.9v1.3h-2.8L1308,1091.6z M1313.8,1087.5
			c0.4-0.4,0.8-0.7,1.1-1.1l1.1,0.6c-0.4,0.5-0.7,0.9-1.1,1.2c0.4,0.3,0.9,0.6,1.2,1l-0.8,0.8l0.9,0.6c-0.4,0.5-0.8,0.9-1.2,1.2
			c0.5,0.3,0.9,0.7,1.3,1l-0.9,0.9c-0.4-0.4-0.9-0.8-1.4-1.1c-0.5,0.4-1.2,0.7-2,1.1l-0.7-1.1c0.5-0.2,1.1-0.4,1.6-0.7
			c-0.4-0.3-0.9-0.5-1.3-0.8l0.9-0.9c0.5,0.3,1,0.6,1.5,0.9c0.4-0.3,0.8-0.7,1.1-1.1c-0.4-0.3-0.8-0.6-1.2-1
			c-0.6,0.4-1.2,0.8-2.1,1.2l-0.7-1.1c0.6-0.2,1.2-0.5,1.7-0.8c-0.4-0.3-0.9-0.6-1.4-0.9l0.9-0.8
			C1312.8,1086.9,1313.3,1087.2,1313.8,1087.5z"/>
		<path class="st1" d="M1326.8,1091.2v-5.1h1.8v5.1h2v1.8h-2v6.1c0.7-0.3,1.3-0.5,1.9-0.8v1.8c-1.8,0.8-3.6,1.4-5.6,2l-0.5-1.8
			c0.8-0.2,1.6-0.3,2.3-0.6v-6.7h-2.1v-1.8H1326.8z M1342.9,1093.8v1.6h-7.5c-0.2,0.3-0.3,0.6-0.5,0.9h7.5c0,2-0.1,3.6-0.3,4.8
			c-0.2,1.2-0.4,2-0.8,2.5c-0.4,0.5-0.9,0.7-1.7,0.8h-1.7l-0.5-1.7c0.5,0,0.9,0.1,1.3,0.1c0.7,0,1.2-0.3,1.4-0.9
			c0.2-0.6,0.4-2,0.5-4h-0.7c-1.3,3.3-3.5,5.5-6.5,6.6l-1-1.5c2.7-0.9,4.6-2.6,5.8-5h-1.3c-1,1.7-2.6,3.1-4.9,4.1l-1.1-1.3
			c1.9-0.7,3.3-1.7,4.2-2.8h-1.5c-0.5,0.5-1.1,0.9-1.8,1.4l-1-1.4c1.3-0.7,2.3-1.5,2.9-2.4h-2.6v-1.6H1342.9z M1341.6,1086.6v6.3
			h-9.4v-6.3H1341.6z M1339.8,1089.1v-1h-5.9v1H1339.8z M1339.8,1090.5h-5.9v1h5.9V1090.5z"/>
		<path class="st1" d="M1346.6,1091.2v-5.1h1.9v5.1h1.7v1.8h-1.7v5.4c0.6-0.3,1.1-0.5,1.7-0.8v1.9c-1.6,0.8-3.3,1.5-5.1,2.1
			l-0.5-1.9c0.7-0.2,1.3-0.3,2-0.5v-6.2h-1.8v-1.8H1346.6z M1356.2,1100.5c-2,0.7-4.1,1.4-6.3,1.9l-0.5-1.8c2.3-0.4,4.6-1,6.8-1.8
			V1100.5z M1357,1088.6c0-0.8,0-1.7,0-2.5h1.8c0,0.9,0,1.7,0,2.5h1.6c-0.2-0.7-0.5-1.3-0.7-1.9l1.7-0.3c0.2,0.6,0.4,1.3,0.6,2.1
			h0.9v1.8h-4c0,2.5,0.2,4.7,0.3,6.5c0.6-1.5,1.1-3.2,1.5-5.1l1.6,0.7c-0.7,3-1.6,5.5-2.7,7.4c0.3,1.6,0.7,2.4,1.1,2.5
			c0.3,0,0.7-1,1-2.9l1.4,1.2c-0.7,2.4-1.5,3.6-2.5,3.6c-0.7,0-1.3-0.5-1.8-1.6c-0.2-0.3-0.3-0.7-0.4-1.1c-0.9,1.2-2,2.1-3.1,2.8
			l-1.2-1.5c1.4-0.8,2.7-2,3.7-3.5c-0.1-0.5-0.2-1.1-0.3-1.7c-0.3-2-0.4-4.4-0.5-7.4h-7v-1.8H1357z M1356.1,1092v5.8h-5.3v-5.8
			H1356.1z M1354.5,1093.6h-2v2.7h2V1093.6z"/>
		<path class="st1" d="M1375.7,1093.3c0.5,0.5,0.8,1.1,0.8,1.9c0,0.7-0.3,1.4-0.8,1.9c-0.5,0.5-1.2,0.8-1.9,0.8
			c-0.8,0-1.4-0.3-1.9-0.8c-0.6-0.5-0.8-1.1-0.8-1.9c0-0.8,0.3-1.4,0.8-1.9c0.5-0.5,1.2-0.8,1.9-0.8
			C1374.5,1092.5,1375.1,1092.8,1375.7,1093.3z M1372.8,1094.3c-0.3,0.2-0.4,0.6-0.4,0.9c0,0.4,0.1,0.7,0.4,0.9
			c0.3,0.3,0.6,0.4,1,0.4c0.4,0,0.7-0.1,1-0.4c0.3-0.3,0.4-0.6,0.4-0.9c0-0.4-0.1-0.7-0.4-0.9c-0.3-0.3-0.6-0.4-1-0.4
			C1373.4,1093.9,1373,1094,1372.8,1094.3z"/>
	</g>
</g>
</svg>
