<?xml version="1.0" encoding="utf-8"?>
<!-- Generator: Adobe Illustrator 24.0.3, SVG Export Plug-In . SVG Version: 6.00 Build 0)  -->
<svg version="1.1" id="圖層_1" xmlns="http://www.w3.org/2000/svg" xmlns:xlink="http://www.w3.org/1999/xlink" x="0px" y="0px"
	 viewBox="0 0 211 118.9" style="enable-background:new 0 0 211 118.9;" xml:space="preserve">
<style type="text/css">
	.st0{fill:#BB9167;}
	.st1{fill:#FFFFFF;}
</style>
<g id="Group_1566" transform="translate(0.015 -4569.432)">
	<path id="Path_7779" class="st0" d="M1,4570.9c1.1,0.3,2.2,0.6,3.2,1.1h14.2c0.3-0.4,0.6-0.7,0.9-1c0.4-0.5,0.7-0.7,0.9-0.7
		c0.6,0.1,1.2,0.4,1.7,0.8c1,0.7,1.5,1.2,1.5,1.5c0,0.2-0.2,0.5-0.6,0.8c-0.3,0.2-0.4,0.5-0.5,0.9v11.1l0.2,5.2
		c0,0.3-0.5,0.6-1.5,0.7c-0.3,0-0.6,0.1-0.9,0.1c-0.5,0-0.7-0.3-0.7-0.8v-1.6H4v1.6c0,0.3-0.4,0.6-1.2,0.7c-0.3,0-0.5,0.1-0.8,0.1
		c-0.6,0-0.9-0.3-0.9-0.8c0.1-1.9,0.2-3.5,0.2-4.9v-10.3C1.2,4574.1,1.1,4572.6,1,4570.9z M4,4588.3h15.3v-4.3h-4.1
		c-0.7,0.1-1.4-0.2-1.9-0.7c-0.5-0.5-0.7-1.2-0.7-1.9v-8.8H10v1c0,2-0.2,4-0.6,6c-0.8,2.5-2.5,4.7-4.9,6l-0.3-0.4
		c0.6-0.7,1.2-1.5,1.5-2.4c0.5-1,0.8-2.1,1.1-3.2c0.3-2,0.4-4,0.4-5.9v-1H4L4,4588.3z M15.3,4572.7v8.2c0,0.4,0.2,0.5,0.7,0.5h3.2
		v-8.8L15.3,4572.7z"/>
	<path id="Path_7780" class="st0" d="M44.5,4571.6c-1.9,0.1-3.7,0.2-5.4,0.3v2.5h4.8c0.3-0.4,0.7-0.7,1-1.1c0.7-0.8,1.1-1.3,1.3-1.3
		c0.3,0,0.9,0.4,1.7,1.2c0.8,0.8,1.1,1.3,1.1,1.5c0,0.3-0.2,0.4-0.5,0.4h-8.8c1.4,0.8,2.8,1.4,4.4,1.8c1.8,0.5,3.7,0.8,5.6,1
		l-0.1,0.6c-0.7,0.2-1.3,0.8-1.5,1.5c-0.2,0.6-0.4,0.8-0.6,0.8c-0.8-0.2-1.6-0.4-2.4-0.8c-1.3-0.6-2.5-1.3-3.7-2.2
		c-0.8-0.6-1.5-1.3-2.2-2v3.6c0,0.3-0.4,0.6-1.3,0.7c-0.3,0.1-0.6,0.1-0.9,0.1c-0.4,0.1-0.8-0.2-0.8-0.6c0-0.1,0-0.1,0-0.2
		c0.2-1.1,0.2-2.2,0.2-3.4c-0.7,0.8-1.5,1.4-2.4,2.1c-1.1,0.7-2.2,1.3-3.4,1.8c-1.4,0.6-2.8,1-4.3,1.3l-0.2-0.4
		c1.6-0.6,3.1-1.4,4.5-2.4c1.3-0.9,2.4-2.1,3.4-3.4h-4c-1.5,0-2.5,0-3.1,0.1l-0.4-1c1.2,0.1,2.4,0.2,3.6,0.2h6.4v-2.5
		c-2.2,0-5.1,0.1-8.5,0.1l-0.1-0.6c3.1-0.2,5.7-0.4,8-0.7c2.6-0.3,5.2-0.9,7.7-1.6c0.7,0.5,1.4,0.9,2,1.4c0.6,0.5,1,0.9,1,1.2
		c-0.1,0.2-0.3,0.2-0.6,0.2L44.5,4571.6z M30.1,4580.6c1.2,0.2,2.3,0.3,3.5,0.3h7.2c0.2-0.2,0.4-0.4,0.6-0.6
		c0.3-0.3,0.7-0.5,1.1-0.6c0.3,0,0.9,0.4,1.7,1.1c0.8,0.7,1.3,1.2,1.3,1.4c0,0.3-0.3,0.4-1,0.5c-0.4,0-0.8,0.1-1.1,0.3
		c-1.1,0.5-2.1,0.9-2.9,1.2c0.1,0,0.1,0.1,0.1,0.1c0,0.3-0.2,0.6-0.7,0.8c-0.3,0.1-0.5,0.3-0.5,0.6v0.1h4.9c0.3-0.4,0.7-0.7,1-1.1
		c0.7-0.9,1.1-1.3,1.2-1.3c0.4,0,0.9,0.4,1.7,1.2c0.8,0.8,1.2,1.3,1.2,1.5c0,0.3-0.2,0.4-0.5,0.4h-9.4v2.7c0,1.4-0.4,2.4-1.3,2.7
		c-0.7,0.4-1.5,0.6-2.3,0.7c-0.2,0-0.4-0.3-0.5-0.8c-0.2-0.9-1.2-1.6-3-2.2l0.1-0.5c0.9,0.1,1.8,0.2,2.8,0.2c0.4,0,0.8-0.1,1.1-0.2
		c0.2-0.1,0.3-0.3,0.3-0.7v-1.9h-6.8c-1.5,0-2.5,0-3.1,0.1l-0.4-1c1.2,0.2,2.4,0.3,3.6,0.2h6.8c0-0.9-0.1-1.8-0.2-2.5
		c0.8,0.1,1.5,0.2,2.1,0.4c0.2,0,0.3,0,0.5,0.1c0.7-0.7,1.4-1.4,2.1-2.1h-7.3c-1.1,0-2.1,0.1-3.1,0.2L30.1,4580.6z"/>
	<path id="Path_7781" class="st0" d="M57.1,4569.6c1.3,0.2,2.5,0.5,3.7,1.1c0.5,0.2,0.9,0.7,0.9,1.3c0,0.5-0.2,1-0.6,1.3
		c-0.1,0.1-0.2,0.2-0.3,0.3h3.7c0.5-1.5,0.8-3,0.9-4.6c1.2,0.2,2.2,0.4,2.9,0.6c1.1,0.2,1.6,0.4,1.6,0.7c0,0.2-0.3,0.4-0.9,0.5
		c-0.4,0.1-0.7,0.2-0.8,0.3c-0.9,0.9-1.9,1.8-3,2.4h3.8c0.3-0.4,0.7-0.7,1-1.1c0.7-0.8,1.1-1.3,1.2-1.3c0.4,0,0.9,0.4,1.7,1.2
		c0.8,0.8,1.2,1.3,1.2,1.5c0,0.3-0.2,0.4-0.5,0.4H65v2.9h2.9c0.3-0.3,0.6-0.7,0.9-1.1c0.6-0.8,1-1.3,1.1-1.3c0.3,0,0.9,0.4,1.6,1.2
		c0.7,0.8,1.1,1.3,1.1,1.4c0,0.3-0.2,0.4-0.5,0.4H65v3.1h5.4c0.4-0.3,0.7-0.7,0.9-1.1c0.7-0.8,1.1-1.3,1.2-1.3
		c0.4,0,0.9,0.4,1.7,1.2c0.8,0.8,1.2,1.3,1.2,1.5c0,0.3-0.2,0.4-0.5,0.4H63.4c0.1,0,0.3,0.1,0.4,0.1c1.1,0.2,1.7,0.5,1.7,0.7
		c0,0.2-0.2,0.4-0.7,0.6c-0.3,0.1-0.6,0.4-0.7,0.7c-0.1,0.5-0.2,0.9-0.4,1.3h6.4c0.4-0.3,0.7-0.7,1-1.1c0.7-0.9,1.1-1.3,1.2-1.3
		c0.4,0,0.9,0.4,1.7,1.2c0.8,0.8,1.2,1.3,1.2,1.5c0,0.3-0.2,0.4-0.5,0.4h-9.8c0.8,0.8,1.7,1.5,2.8,2.1c0.9,0.5,1.9,0.8,2.9,1
		c1.6,0.4,3.2,0.7,4.8,0.9l-0.3,0.6c-0.7,0.3-1.2,0.8-1.5,1.4c-0.2,0.6-0.3,0.9-0.4,0.9c-0.8-0.1-1.6-0.4-2.3-0.7
		c-1.1-0.4-2.2-0.9-3.1-1.5c-0.9-0.6-1.6-1.3-2.2-2.1c-0.6-0.8-1.2-1.7-1.6-2.6h-0.6c-0.3,1-0.8,1.9-1.5,2.7c-1,1.1-2.1,1.9-3.4,2.6
		c-2.1,0.9-4.4,1.5-6.7,1.8l-0.2-0.3c2-0.7,3.8-1.6,5.6-2.7c1.1-0.7,2.1-1.7,2.7-2.8c0.2-0.4,0.4-0.8,0.6-1.3h-4.9
		c-1.1,0-2.1,0-3.1,0.1l-0.4-1c1.2,0.2,2.4,0.2,3.6,0.2h5.1c0.3-1.1,0.4-2.2,0.4-3.4h-5.6c-1.5,0-2.5,0-3.1,0.1l-0.4-1
		c1.2,0.1,2.4,0.2,3.6,0.2H62v-3h-3.5c-1.5,0-2.5,0-3.1,0.1l-0.4-1c1.2,0.2,2.4,0.3,3.6,0.2H62v-2.9H57c-1.5,0-2.5,0-3.1,0.1l-0.4-1
		c1.2,0.2,2.4,0.2,3.6,0.2h2.5c-0.2-0.2-0.4-0.5-0.6-0.8c-0.5-1-1.2-2-2.1-2.7L57.1,4569.6z"/>
	<path id="Path_7782" class="st0" d="M84,4586.1c0.7,0.4,1.3,0.7,1.9,1c0.7,0.4,1.1,0.7,1.1,0.9s-0.2,0.3-0.5,0.4
		c-0.4,0-0.6,0.1-0.7,0.2c-0.8,0.5-1.7,0.9-2.6,1.3c-1.6,0.6-3.3,1.1-5,1.4l-0.2-0.4c1.3-0.6,2.5-1.3,3.6-2.2
		C82.5,4588,83.3,4587.1,84,4586.1z M81,4569.1c1.1,0.3,2.2,0.7,3.3,1.2h10.5c0.4-0.4,0.7-0.8,1.1-1.1c0.2-0.2,0.4-0.4,0.7-0.4
		c0.6,0.1,1.1,0.4,1.5,0.7c0.9,0.6,1.4,1,1.4,1.3c0,0.2-0.2,0.5-0.6,0.7c-0.3,0.1-0.5,0.4-0.5,0.7v1.2c0,0.8,0,1.9,0.1,3.2
		c0,0.3-0.4,0.6-1.3,0.8c-0.3,0-0.6,0.1-0.9,0.1c-0.5,0-0.7-0.3-0.7-0.8v-0.4h-4.6v2.5h6c0.3-0.3,0.6-0.6,0.8-1
		c0.6-0.8,1-1.1,1.1-1.1c0.3,0,0.8,0.4,1.5,1.1c0.7,0.7,1.1,1.2,1.1,1.3c0,0.3-0.2,0.4-0.5,0.4H81.7c-1.5,0-2.5,0-3.1,0.1l-0.4-1
		c1.2,0.2,2.4,0.2,3.6,0.2h6.6v-2.5h-4.4v0.6c0,0.3-0.4,0.6-1.3,0.7c-0.3,0-0.5,0.1-0.8,0.1c-0.4,0.1-0.8-0.2-0.8-0.6
		c0-0.1,0-0.1,0-0.2c0.1-0.9,0.1-1.8,0.1-2.6v-1.5C81.1,4571.5,81.1,4570.3,81,4569.1L81,4569.1z M81.2,4580.2c1,0.3,2,0.6,3,1h10.5
		c0.3-0.4,0.6-0.7,0.8-0.9c0.2-0.2,0.4-0.4,0.7-0.4c0.6,0.1,1.1,0.4,1.6,0.9c0.9,0.6,1.3,1,1.3,1.3c0,0.2-0.2,0.4-0.6,0.6
		c-0.3,0.2-0.5,0.4-0.6,0.5v2.3c0,0.3-0.4,0.5-1.2,0.7c-0.3,0-0.5,0.1-0.8,0.1c-0.5,0-0.7-0.2-0.7-0.6v-0.2h-3.6v4.3
		c0.1,1.1-0.4,2.1-1.4,2.5c-0.6,0.3-1.3,0.5-2,0.6c-0.3,0-0.5-0.3-0.7-0.8c-0.3-0.8-1.3-1.5-3.2-2l0.1-0.4c1.4,0.1,2.5,0.1,3.5,0.1
		c0.6,0,0.9-0.2,0.9-0.7v-3.6h-4.5v0.1c0,0.3-0.4,0.6-1.2,0.7c-0.3,0-0.5,0.1-0.8,0.1c-0.5,0-0.8-0.2-0.8-0.7
		c0.1-0.5,0.1-1.1,0.1-1.6v-1.6C81.4,4581.6,81.4,4580.9,81.2,4580.2L81.2,4580.2z M83.9,4573h11.8v-1.9H83.9L83.9,4573z
		 M83.9,4575.6h11.8v-1.9H83.9L83.9,4575.6z M95.2,4584.7v-2.8h-11v2.8H95.2z M92.9,4586.4c1.7,0.3,3.4,0.7,5.1,1.3
		c1.8,0.6,2.7,1.3,2.7,2c0,0.5-0.1,0.9-0.4,1.3c-0.3,0.4-0.7,0.6-1.2,0.7c-0.5,0-1-0.3-1.3-0.8c-0.7-0.8-1.5-1.6-2.3-2.2
		c-0.9-0.7-1.9-1.3-2.9-1.8L92.9,4586.4z"/>
	<path id="Path_7783" class="st0" d="M114.2,4568.9c1,0.1,1.9,0.3,2.8,0.5c1.1,0.2,1.7,0.4,1.7,0.7c0,0.3-0.2,0.5-0.7,0.7
		c-0.5,0.1-0.7,0.3-0.7,0.6v2.1c0.4,1.5,0.9,2.9,1.6,4.3c0.2,0.5,0.4,0.9,0.7,1.4c0.5-0.6,1-1.3,1.4-2c0.8-1.2,1.4-2.5,2-3.9
		c0.9,0.6,1.7,1.1,2.5,1.6c0.7,0.5,1.1,0.9,1.1,1.2c0,0.3-0.2,0.4-0.5,0.4l-1.5-0.1c-1.4,1.3-2.9,2.5-4.6,3.4
		c0.7,1.1,1.5,2.1,2.4,2.9c1.5,1.4,3.3,2.6,5.2,3.6l-0.2,0.5c-0.8,0.3-1.4,0.9-1.7,1.6c-0.3,0.7-0.6,1-0.7,1c-0.3,0-1-0.5-2-1.6
		c-1.3-1.3-2.4-2.8-3.2-4.4c-0.9-1.6-1.6-3.4-2.1-5.1c-0.1-0.3-0.2-0.6-0.3-0.8v11.8c0.1,1-0.3,1.9-1.1,2.4
		c-0.8,0.5-1.7,0.8-2.6,0.8c-0.3,0-0.5-0.3-0.5-0.8c-0.2-0.8-1.3-1.7-3.3-2.5l0.1-0.6c1.3,0.2,2.6,0.4,3.9,0.4
		c0.4,0,0.6-0.2,0.6-0.5V4578c-0.1,0.1-0.3,0.2-0.4,0.2c-0.5,0.1-0.8,0.3-0.9,0.5c-0.7,2.4-2,4.7-3.6,6.6c-1.6,1.6-3.4,3-5.4,3.9
		l-0.2-0.3c1.2-1,2.2-2.2,3.1-3.5c0.8-1.2,1.5-2.4,2-3.8c0.6-1.4,1.1-2.9,1.3-4.5c-2.9,0-4.7,0-5.2,0.1l-0.4-1
		c0.9,0.1,1.8,0.2,2.7,0.2h2.7c0.2-0.3,0.4-0.5,0.7-0.7c0.4-0.4,0.7-0.6,0.9-0.6c0.6,0.2,1.1,0.6,1.6,1c0.4,0.3,0.8,0.6,1.2,1v-5.5
		C114.4,4571.2,114.3,4570.3,114.2,4568.9z"/>
	<path id="Path_7784" class="st0" d="M136,4573c0.8,0.3,1.6,0.5,2.3,0.8c0.7,0.3,1.1,0.6,1.1,0.9c0,0.2-0.2,0.3-0.6,0.3
		c-0.4,0.1-0.6,0.1-0.6,0.2c-1.3,1.7-2.8,3.3-4.3,4.8c1.1,0,2.1,0,3.1-0.1c-0.1-0.5-0.3-0.9-0.5-1.3l0.2-0.2
		c0.8,0.4,1.5,0.9,2.2,1.5c0.4,0.4,0.7,1,0.8,1.6c0,0.4-0.1,0.8-0.3,1.2c-0.3,0.3-0.6,0.4-1,0.4c-0.2,0-0.4-0.1-0.6-0.2
		c-0.1-0.1-0.3-0.6-0.4-1.3c0-0.3-0.1-0.6-0.2-0.9c-0.4,0.2-0.8,0.4-1.2,0.6v6.7c0,1.6,0,2.9,0.1,3.8c0,0.3-0.4,0.5-1.3,0.7
		c-0.3,0-0.6,0.1-0.8,0.1c-0.4,0-0.6-0.2-0.6-0.7c0.1-0.9,0.1-2.2,0.1-3.8v-2.2c-0.1,0-0.2,0-0.3,0.1c-0.4,0-0.6,0.1-0.6,0.2
		c-0.2,1-0.6,2-1,3c-0.4,0.9-0.9,1.7-1.4,2.5l-0.3-0.3c0.2-1.2,0.4-2.3,0.5-3.3c0.1-1.1,0.2-2.3,0.3-3.8c0.8,0.2,1.5,0.4,2.2,0.6
		c0.2,0.1,0.5,0.2,0.7,0.3v-2.9c-0.4,0.1-0.8,0.2-1.3,0.3c-0.2,0.1-0.3,0.1-0.3,0.2c0,0.1-0.1,0.2-0.1,0.3c-0.1,0.2-0.1,0.3-0.2,0.3
		c-0.3,0-0.7-0.5-1.1-1.6c-0.1-0.3-0.3-0.8-0.6-1.5c0.9,0,1.9,0,2.7-0.1C134,4577.9,135.2,4575.5,136,4573z M133.7,4568.9
		c0.8,0.3,1.6,0.5,2.3,0.8c0.7,0.3,1.1,0.6,1.1,0.9c0,0.2-0.2,0.3-0.6,0.3c-0.4,0.1-0.6,0.1-0.6,0.2c-0.9,1.2-1.9,2.4-3.1,3.4
		c0.2,0.1,0.3,0.2,0.5,0.3c0.5,0.4,0.8,0.9,0.8,1.5c0,0.4-0.2,0.8-0.5,1.1c-0.2,0.2-0.5,0.3-0.8,0.3c-0.4,0-0.7-0.3-0.9-1
		c-0.4-1.1-1-2-1.8-2.8l0.2-0.3c0.6,0.2,1.1,0.3,1.7,0.6C132.7,4572.5,133.3,4570.7,133.7,4568.9L133.7,4568.9z M136.8,4583.4
		c0.7,0.5,1.3,1.1,1.8,1.8c0.1,0.2,0.2,0.4,0.3,0.6c1.9-0.6,3.8-1.3,5.6-2.2v-4.5h-2.7c-1.5,0-2.5,0-3.1,0.1l-0.4-1
		c1.2,0.2,2.3,0.2,3.5,0.2h4.2l0.6-2.3h-3.7l-0.2,0.6c0,0.3-0.5,0.5-1.5,0.5c-1,0-1.4-0.2-1.4-0.5c1.5-3.5,2.2-6.1,2.2-7.6
		c1.1,0.3,2.1,0.5,2.8,0.7c0.7,0.2,1.1,0.4,1.1,0.6c0,0.3-0.2,0.4-0.7,0.5c-0.3,0.1-0.6,0.3-0.7,0.5l-0.1,0.3h2.7
		c0.3-0.3,0.6-0.6,0.9-0.9c0.4-0.4,0.7-0.7,0.9-0.7c0.3,0,0.8,0.3,1.6,1c0.7,0.6,1.1,1.1,1.1,1.3c0,0.2-0.3,0.4-0.8,0.5
		c-0.4,0.1-0.7,0.3-0.7,0.6l-1.1,4.8h0.5c0.3-0.3,0.6-0.6,0.8-0.9c0.6-0.7,0.9-1,1-1c0.3,0,0.7,0.3,1.4,1c0.6,0.7,1,1.1,1,1.2
		c0,0.2-0.1,0.4-0.3,0.4c0,0-0.1,0-0.1,0h-5.9v0.8c0.2,0.9,0.5,1.7,0.9,2.5c0.1,0.3,0.2,0.6,0.4,0.8c0.3-0.3,0.6-0.7,0.8-1.1
		c0.5-0.7,0.9-1.4,1.2-2.2c0.8,0.5,1.5,0.9,2.1,1.3c0.6,0.5,1,0.8,1,1c0,0.2-0.1,0.3-0.3,0.3l-1.3-0.1c-1,0.5-2,0.9-3.1,1.2
		c0.4,0.6,0.8,1.2,1.3,1.7c1,1,2.2,1.9,3.5,2.5l-0.1,0.5c-0.6,0.2-1.2,0.6-1.5,1.2c-0.3,0.6-0.5,1-0.7,1c-0.2,0-0.5-0.3-1-0.9
		c-0.7-0.7-1.2-1.5-1.7-2.4c-0.5-1-1-2-1.3-3.1c0-0.1,0-0.1-0.1-0.2v5.3c0,1.4-0.4,2.3-1.3,2.7c-0.6,0.4-1.2,0.6-1.9,0.7
		c-0.2,0-0.3-0.3-0.5-0.9c-0.2-0.8-1-1.6-2.5-2.2l0.1-0.5c0.8,0.2,1.7,0.3,2.5,0.3c0.4,0.1,0.8-0.2,0.8-0.6c0-0.1,0-0.1,0-0.2v-3.8
		c-0.7,0.7-1.5,1.4-2.4,2c-0.5,0.2-0.9,0.6-1.3,0.9v0.6c0,0.3-0.1,0.5-0.3,0.5c-0.2,0-0.6-0.4-1.1-1.2c-0.1-0.1-0.2-0.3-0.3-0.4
		c0,0.4-0.1,0.9-0.4,1.2c-0.3,0.3-0.7,0.5-1.1,0.5c-0.2,0-0.3-0.1-0.4-0.3c-0.2-0.5-0.2-1-0.2-1.5c-0.1-1.2-0.3-2.3-0.6-3.5
		L136.8,4583.4z M140.3,4580.4c0.9,0.2,1.7,0.5,2.5,0.9c0.4,0.2,0.6,0.6,0.6,1.1c0,0.5-0.2,1-0.6,1.3c-0.3,0.3-0.7,0.4-1,0.4
		c-0.2,0-0.4-0.3-0.6-0.9c-0.2-0.9-0.6-1.7-1.1-2.4L140.3,4580.4z M143.1,4575.4h3.7l0.7-3h-3.4L143.1,4575.4z"/>
	<path id="Path_7785" class="st0" d="M158.2,4569c1.1,0.3,2.2,0.7,3.3,1.2h11.6c0.3-0.3,0.5-0.6,0.7-0.9c0.3-0.3,0.6-0.5,0.7-0.5
		c0.6,0.2,1.1,0.4,1.5,0.8c0.8,0.6,1.2,1,1.2,1.2c0,0.3-0.2,0.5-0.7,0.7c-0.3,0.2-0.5,0.4-0.5,0.6c0,4.5,0.1,8.1,0.3,10.8
		c0.1,1.3,0.3,2.5,0.6,3.7c0.2,1,0.4,1.4,0.6,1.4s0.3-0.5,0.5-1.4c0.1-0.5,0.3-1.4,0.6-2.6l0.5,0.3c-0.3,2.6-0.4,4.1-0.4,4.4
		c0,0.5,0.1,1,0.2,1.5c0.1,0.3,0.2,0.7,0.3,1c0,0.6-0.2,0.9-0.7,1c-0.7,0-1.4-0.3-2-0.8c-0.7-0.7-1.2-1.6-1.4-2.5
		c-0.6-1.8-1-3.7-1.1-5.6c-0.3-2.6-0.4-6.8-0.4-12.4h-12.3v7.7c0,2.1-0.1,4.2-0.4,6.2c-0.3,1.6-1,3.1-1.8,4.5
		c-0.9,1.2-1.9,2.3-3,3.3l-0.4-0.2c1-1.6,1.7-3.3,2.1-5.1c0.6-2.9,0.8-5.8,0.7-8.7C158.5,4574.2,158.4,4571,158.2,4569z
		 M171.3,4574.5c-0.8,0.2-1.7,0.3-2.6,0.5v2.3h0.5c0.3-0.3,0.6-0.7,1-1c0.2-0.2,0.4-0.3,0.7-0.4c0.5,0.1,0.9,0.3,1.3,0.6
		c0.8,0.5,1.2,0.9,1.2,1.1c0,0.3-0.2,0.5-0.4,0.7c-0.2,0.2-0.3,0.4-0.3,0.7v2.6c0,0.7,0,1.7,0.1,2.9c0,0.3-0.4,0.6-1.2,0.7
		c-0.3,0-0.5,0.1-0.8,0.1c-0.5,0-0.7-0.2-0.7-0.7v-0.6h-1.3v3.5c0.8,0,1.5-0.1,2.2-0.1c-0.2-0.6-0.5-1.1-0.9-1.7l0.3-0.2
		c1,0.4,2,1,2.9,1.8c0.7,0.5,1.1,1.2,1.2,2c0,0.5-0.2,1-0.6,1.4c-0.3,0.2-0.6,0.3-0.9,0.3c-0.3,0-0.6-0.1-0.8-0.3
		c-0.3-0.4-0.5-0.8-0.5-1.3c-0.1-0.5-0.3-1-0.5-1.5c-2.2,1.1-4.6,1.9-7,2.4c-0.3,0-0.5,0.1-0.5,0.2c0,0.1-0.1,0.2-0.1,0.4
		c-0.1,0.2-0.1,0.4-0.3,0.4c-0.3,0-0.7-0.6-1.2-1.8c-0.1-0.3-0.4-0.8-0.7-1.6c1.7-0.1,3.3-0.1,4.8-0.2v-3.7h-1.3v0.9
		c0,0.3-0.4,0.5-1.2,0.6c-0.2,0-0.5,0.1-0.7,0.1c-0.5,0-0.7-0.2-0.7-0.7c0.1-0.8,0.1-1.6,0.1-2.4v-3.1c0-1.1-0.1-2.2-0.2-3.4
		c1,0.3,2,0.7,3,1.1h0.9v-2c-1.3,0.1-2.7,0.1-4.3,0.2l-0.2-0.6c1.7-0.2,3.5-0.6,5.1-1.1c1.2-0.4,2.3-0.9,3.4-1.6
		c0.8,0.5,1.4,0.9,1.8,1.1c0.8,0.5,1.2,0.9,1.2,1.2c0,0.2-0.2,0.3-0.5,0.3L171.3,4574.5z M164.9,4583.4h1.2v-5.4h-1.2V4583.4z
		 M168.7,4578v5.4h1.3v-5.4H168.7z"/>
	<path id="Path_7786" class="st0" d="M182,4578.8c1.2,0.2,2.4,0.2,3.6,0.2h6.5v-7.5c0-0.8-0.1-1.6-0.2-2.3c1.2,0.1,2.3,0.3,3.4,0.5
		c0.7,0,1,0.2,1,0.5c0,0.1-0.2,0.3-0.6,0.5c-0.5,0.2-0.7,0.4-0.7,0.7v7.7h5.5c0.4-0.3,0.7-0.7,0.9-1.1c0.7-0.9,1.1-1.3,1.2-1.3
		c0.4,0,0.9,0.4,1.7,1.2c0.8,0.8,1.2,1.3,1.2,1.5c0,0.3-0.2,0.4-0.5,0.4h-7.3v8.3c0,0.8,0.1,1.2,0.4,1.4c0.7,0.1,1.4,0.2,2.1,0.2
		c0.5,0,1-0.1,1.5-0.2c0.4-0.1,0.7-0.5,0.8-1.3l0.9-4.3l0.6,0.1c0.1,2.6,0.2,3.9,0.2,3.9c0.1,0.4,0.2,0.8,0.5,1.1
		c0.4,0.2,0.6,0.6,0.7,1c0,0.5-0.2,1-0.6,1.4c-0.6,0.4-1.3,0.6-2,0.6c-0.8,0.2-1.7,0.3-2.6,0.3c-1.2,0-2.4,0-3.6-0.2
		c-0.4-0.1-0.9-0.3-1.2-0.6c-0.5-0.7-0.7-1.5-0.6-2.4v-9.5h-3.2c0,1.8-0.1,3.7-0.4,5.5c-0.3,1.2-0.8,2.3-1.5,3.2
		c-0.7,0.8-1.5,1.5-2.4,2.1c-1.4,0.9-2.9,1.5-4.5,2l-0.2-0.3c1-0.5,2-1.1,2.8-1.9c0.7-0.7,1.3-1.4,1.8-2.3c0.5-0.8,0.8-1.7,1-2.6
		c0.3-1.9,0.4-3.7,0.4-5.6h-2.9c-1.5,0-2.5,0-3.1,0.1L182,4578.8z M185.3,4571.7c1.3,0.4,2.5,1,3.5,1.9c0.6,0.6,0.8,1.5,0.8,2.3
		c0,0.5-0.2,1-0.6,1.3c-0.3,0.3-0.7,0.4-1,0.4c-0.4,0-0.7-0.5-1-1.5c-0.4-1.5-1.1-2.9-2-4.1L185.3,4571.7z M199.2,4570.9
		c1,0.3,1.9,0.5,2.6,0.8c1,0.3,1.4,0.5,1.4,0.7c0,0.3-0.3,0.4-0.9,0.5c-0.3,0-0.6,0.1-0.8,0.3c-0.5,0.8-1.1,1.6-1.8,2.3
		c-0.8,0.9-1.8,1.6-2.9,2.2l-0.3-0.4c0.5-0.9,1-1.8,1.4-2.8C198.6,4573.3,199,4572.1,199.2,4570.9L199.2,4570.9z"/>
</g>
<g>
	<path class="st1" d="M4.6,47.6L3.3,49c-0.8-0.9-1.9-1.8-3.3-2.8l1.3-1.2C2.6,45.8,3.7,46.7,4.6,47.6z M4.7,51.2
		C3.9,53.7,3,55.9,2,58l-1.7-0.8c1.1-2.2,2.1-4.4,2.9-6.7L4.7,51.2z M5.2,42.7l-1.3,1.3c-0.8-0.9-2-1.8-3.5-2.9L1.7,40
		C3.1,40.9,4.2,41.8,5.2,42.7z M16.9,51.8v1.4c-0.9,1-1.9,1.8-3.2,2.5c1.4,0.4,2.9,0.7,4.7,1l-1.1,1.6c-2.2-0.4-4-0.9-5.6-1.6
		c-1.8,0.8-3.9,1.3-6.3,1.7l-0.8-1.7c1.9-0.2,3.5-0.6,5-1c-1.2-0.7-2.2-1.4-3-2.3H5.5v-1.6H16.9z M17.5,46.7v4.3H5.4v-4.3H17.5z
		 M16.3,46.1h-1.7v-4.2H8.2v4.3H6.6v-5.8h9.7V46.1z M9,48.1H7.1v1.5H9V48.1z M11.5,54.9c1-0.5,1.9-1,2.7-1.5H8.7
		C9.5,53.9,10.4,54.5,11.5,54.9z M14,42.7V44H8.9v-1.3H14z M14,44.7V46H8.9v-1.3H14z M12.3,48.1h-1.7v1.5h1.7V48.1z M15.8,48.1h-1.9
		v1.5h1.9V48.1z"/>
	<path class="st1" d="M25,44.7v1.5c-0.6,1-1.3,2.1-2.1,3.1h2.3v1.3c-0.2,1.5-0.5,2.7-0.9,3.7c0.2,0.1,0.3,0.2,0.5,0.4
		c0.6,0.6,1.2,1,1.8,1.3c0.6,0.2,1.4,0.4,2.6,0.4c1.1,0,2.3,0,3.7,0c1.4,0,3.3-0.1,5.5-0.1L38,58h-4.9c-1.4,0-2.8,0-4-0.1
		c-1.4,0-2.4-0.2-3.1-0.5c-0.8-0.3-1.6-0.8-2.3-1.5c-0.1-0.1-0.3-0.2-0.5-0.2c-0.4,0-1,0.9-1.9,2.6L19.9,57c0.9-1.7,1.8-2.7,2.6-3
		c0.4-1,0.6-2,0.8-3.1h-2.8v-1.4c0.9-1,1.7-2.1,2.3-3h-2.6v-1.7H25z M24.8,42.8L23.6,44c-0.7-0.9-1.7-1.9-3-2.9l1.3-1.2
		C23,40.9,24,41.8,24.8,42.8z M31.8,46l-1.1-1.3c0.2-0.2,0.3-0.4,0.5-0.7h-2.8V45c0,0.4,0,0.8,0,1.1h2.8c0,4.2-0.1,6.8-0.3,7.8
		c-0.2,0.8-0.9,1.3-2.3,1.3c-0.2,0-0.4,0-0.8-0.1l-0.4-1.6c0.4,0.1,0.7,0.1,1,0.1c0.6,0,0.9-0.2,1-0.5c0.1-0.5,0.2-2.3,0.2-5.4h-1.3
		c-0.3,3.2-1,5.6-2.2,7.2l-1.3-1.2c1.2-1.8,1.9-4.7,1.9-8.8V44h-1.3v-1.7h2.4c-0.2-0.7-0.5-1.4-0.8-2l1.8-0.5
		c0.4,0.9,0.7,1.7,0.9,2.5h1.7v1.5c0.7-1.1,1.2-2.4,1.5-4l1.7,0.3c-0.1,0.6-0.3,1.2-0.5,1.8h4v1.7h-4.7C33,44.6,32.4,45.4,31.8,46z
		 M37.8,45v1.6c-0.5,0.6-1.1,1.2-1.7,1.8v0.7h2.2v1.7h-2.2v2.8c0,1.1-0.6,1.7-1.7,1.7H33l-0.4-1.7c0.4,0,0.8,0.1,1.2,0.1
		c0.4,0,0.6-0.2,0.6-0.7v-2.2h-2.4v-1.7h2.4v-1c0.6-0.6,1.1-1.2,1.5-1.6h-3.1V45H37.8z"/>
	<path class="st1" d="M42.6,54.9c-0.1,1.3-0.3,2.5-0.6,3.6l-1.6-0.5c0.4-0.9,0.6-2,0.7-3.2L42.6,54.9z M48,53.7L46.5,54
		c-0.1-0.2-0.1-0.5-0.2-0.7c-1.8,0.4-3.5,0.7-5.1,0.8l-0.4-1.5c0.3-0.1,0.5-0.3,0.7-0.5c0.5-0.4,1.2-1.1,1.9-2
		c-0.8,0.1-1.7,0.2-2.6,0.3l-0.4-1.4c0.2-0.1,0.5-0.3,0.7-0.6c0.8-1,1.5-2.2,2.1-3.4l1.7,0.6c-0.8,1.3-1.5,2.4-2.3,3.3l2-0.2
		c0.5-0.7,0.9-1.4,1.5-2.1l1.6,0.6c-1.8,2.4-3.2,4.2-4.4,5.3c0.9-0.1,1.8-0.3,2.7-0.5c-0.2-0.5-0.3-1-0.5-1.4l1.3-0.4
		C47.2,51.3,47.6,52.4,48,53.7z M56.9,40.5V45H41.4v-4.5H56.9z M46,42h-2.8v1.5H46V42z M45.3,57.8l-1.6,0.3
		c-0.1-1.3-0.2-2.4-0.3-3.3l1.4-0.3C45,55.5,45.2,56.6,45.3,57.8z M48.1,57l-1.4,0.7c-0.2-1.1-0.5-2.1-0.7-3l1.4-0.5
		C47.6,55,47.8,56,48.1,57z M50.7,58.3H49v-8.2c-0.4,0.4-0.8,0.9-1.2,1.3l-0.5-1.7c1.3-1.4,2.2-2.9,2.7-4.5l1.7,0.3
		c-0.2,0.6-0.5,1.2-0.7,1.7h2.3c-0.2-0.6-0.4-1.2-0.6-1.7l1.7-0.3c0.2,0.6,0.4,1.3,0.6,2h2.8v1.7h-2.7v1.3h2.4v1.5h-2.4V53h2.5v1.6
		h-2.5v1.4h3.1v1.7h-7.4V58.3z M50.6,42h-2.8v1.5h2.8V42z M50.7,48.9v1.3h2.7v-1.3H50.7z M50.7,53h2.7v-1.3h-2.7V53z M50.7,55.9h2.7
		v-1.4h-2.7V55.9z M55.1,42h-2.8v1.5h2.8V42z"/>
	<path class="st1" d="M68.2,41.4v-1.7h1.8v1.7h7.8v1.8h-7.8v1.4h6.4v7.7h-4.7c1.5,1.5,3.6,2.7,6.6,3.6l-0.9,1.8
		c-3.4-1.4-5.9-3.2-7.4-5.4h0v6h-1.8v-6h0c-1.3,2.1-3.6,3.9-7.1,5.4L60,56.1c3.1-1.1,5.3-2.4,6.5-3.7h-4.8v-7.7h6.4v-1.4h-7.8v-1.8
		H68.2z M68.2,46.3h-4.6v1.5h4.6V46.3z M63.7,50.7h4.6v-1.5h-4.6V50.7z M74.6,46.3h-4.5v1.5h4.5V46.3z M70.1,50.7h4.5v-1.5h-4.5
		V50.7z"/>
	<path class="st1" d="M85,44.7v1.5c-0.6,1-1.4,2.1-2.2,3.1h2.4v1.3c-0.3,1.5-0.6,2.7-1,3.7l0.5,0.4c0.6,0.6,1.2,1,1.8,1.2
		c0.6,0.2,1.4,0.3,2.5,0.4c1.1,0,2.3,0,3.7,0c1.4,0,3.3-0.1,5.6-0.2L98,57.9h-4.9c-1.4,0-2.8,0-4.1-0.1c-1.4,0-2.4-0.2-3.1-0.5
		c-0.8-0.3-1.6-0.8-2.3-1.5c-0.1-0.1-0.3-0.2-0.5-0.2c-0.4,0-1,0.9-1.9,2.6L79.9,57c0.9-1.7,1.8-2.7,2.6-3.1c0.4-0.9,0.7-2,0.9-3.1
		h-2.9v-1.4c0.9-1,1.7-2.1,2.4-3h-2.7v-1.7H85z M84.9,42.8L83.7,44c-0.7-0.9-1.7-1.9-3.1-2.9l1.2-1.2C83.1,40.9,84.1,41.8,84.9,42.8
		z M97.8,43.8h-1.1v0.8h-4v0.9h4.2v6.1h-4.2v0.9h5.1v1.5h-5.1v1.7h-1.8v-1.7h-5.1v-1.5h5.1v-0.9h-4.2v-6.1h4.2v-0.9h-4v-0.7h-1.2
		v-3.4h12V43.8z M90.9,43.2V42h-3.3v1.1H90.9z M90.9,48v-1h-2.4v1H90.9z M90.9,49.3h-2.4v1h2.4V49.3z M92.7,43.2h3.2V42h-3.2V43.2z
		 M92.7,48h2.4v-1h-2.4V48z M95.1,49.3h-2.4v1h2.4V49.3z"/>
	<path class="st1" d="M113.8,39.9v3.6h4c0,6.7-0.1,10.9-0.3,12.4c-0.2,1.4-1.1,2.2-2.6,2.2c-0.4,0-1,0-1.9-0.1l-0.5-1.7
		c0.8,0.1,1.5,0.1,2.1,0.1c0.7,0,1-0.4,1.2-1.3c0.1-1,0.2-4.3,0.2-9.9h-2.2V46c-0.1,5.6-1.3,9.6-3.6,12.2l-1.1-1
		c-2.6,0.3-5.6,0.6-8.9,0.8l-0.2-1.7c1.4-0.1,2.8-0.2,4.1-0.3v-1.4h-3.4v-1.6h3.4v-1.1h-3.5v-6.4h3.5v-1h-3.9v-1.6h3.9v-1
		c-1,0.1-2.2,0.1-3.3,0.1l-0.5-1.5c3.4,0,6.2-0.3,8.5-0.8l0.8,1.4c-1.1,0.3-2.3,0.5-3.7,0.6v1.2h3.8v1.6h-3.8v1h3.5v6.4h-3.5v1.1
		h3.5v1.6h-3.5v1.2c1.2-0.1,2.4-0.2,3.4-0.4v0.9c1.8-2.3,2.7-5.8,2.7-10.5v-0.7h-1.8v-1.7h1.8v-3.6H113.8z M104.1,48.2v-1.2h-1.9
		v1.2H104.1z M104.1,49.5h-1.9v1.2h1.9V49.5z M105.7,48.2h1.9v-1.2h-1.9V48.2z M107.6,49.5h-1.9v1.2h1.9V49.5z"/>
	<path class="st1" d="M127.3,41.2c-1.4,4-3.3,7.1-5.6,9.2l-1.5-1.3c2.4-2.2,4.2-5,5.3-8.6L127.3,41.2z M136.6,57.5l-1.8,0.8
		c-0.3-0.7-0.5-1.3-0.8-1.9c-3.5,0.5-7.4,0.9-11.6,1.2l-0.3-1.8c1.4-0.5,3.4-3.5,5.9-9.2l1.9,0.6c-1.6,3.4-3.2,6.2-4.9,8.4
		c2.8-0.2,5.6-0.5,8.2-0.9c-0.7-1.3-1.4-2.5-2.1-3.6l1.7-0.6C134.4,52.8,135.6,55.1,136.6,57.5z M133.5,40.4
		c0.7,3.5,2.3,6.4,4.8,8.6l-1.5,1.3c-2.4-2.2-3.9-4.9-4.8-8.1h-3.2v-1.8H133.5z"/>
	<path class="st1" d="M157.5,58.3h-1.8v-0.8h-13v0.8h-1.8V40.5h16.6V58.3z M155.7,55.9V42.2h-13v13.6H155.7z M153.6,47.9v3.5
		l0.2-0.1l1.1,0.9c-0.6,0.4-1.2,0.7-1.8,1.1c0.6,0.3,1.3,0.7,1.8,1l-0.9,1.3c-1.6-1.1-3.2-2-4.9-2.6l0.8-1.1
		c0.6,0.2,1.2,0.5,1.8,0.7c0.7-0.4,1.3-0.7,1.8-1.1h-4.5c-0.3,0.4-0.7,0.7-1.1,1v1.8c0.7-0.2,1.4-0.4,2.1-0.6l0.3,1.3
		c-1.3,0.3-2.5,0.6-3.9,0.9l-0.5-1.2c0.3-0.1,0.4-0.3,0.4-0.6v-0.7c-0.7,0.4-1.6,0.7-2.5,1l-0.9-1.4c1.9-0.5,3.3-1,4.1-1.6h-2.6
		v-3.5H153.6z M148.3,43.5v-0.9h1.7v0.9h3.9v1.4H150v0.9h4.9v1.4h-11.5v-1.4h4.8v-0.9h-3.9v-1.4H148.3z M152.1,49.2h-5.9v1h5.9V49.2
		z"/>
	<path class="st1" d="M170.4,48c0.3,0.4,0.5,1,0.5,1.6c0,1-0.3,1.9-0.9,2.7c-0.6,0.8-1.4,1.3-2.4,1.5v-1.2c0.5-0.2,1-0.5,1.4-0.9
		c0.3-0.5,0.5-0.9,0.5-1.4c-0.1,0-0.3,0.1-0.5,0.1c-0.4,0-0.8-0.2-1-0.4c-0.3-0.3-0.4-0.6-0.4-1.1c0-0.4,0.1-0.8,0.4-1.1
		c0.3-0.3,0.7-0.4,1.1-0.4C169.6,47.4,170.1,47.6,170.4,48z"/>
	<path class="st1" d="M4.5,82.7C3.8,84.6,2.9,86.3,2,88l-1.9-0.8c1.1-1.7,2-3.4,2.8-5.2L4.5,82.7z M4.8,79.8l-1.3,1.3
		c-0.8-0.7-1.9-1.4-3.3-2.2l1.3-1.2C2.8,78.4,3.9,79.1,4.8,79.8z M4.7,71.1v-1.2h1.8v1.2h2.2v1.6H6.5v1.2H4.7v-1.2H0.5v-1.6H4.7z
		 M5.5,75.8l-1.3,1.3c-0.8-0.7-1.9-1.4-3.2-2.2l1.3-1.2C3.6,74.3,4.6,75,5.5,75.8z M18.5,81.1l-1.1,1.5c-0.5-0.1-0.9-0.2-1.4-0.4v6
		h-1.8v-0.8H8.6v0.8H6.8v-5.9c-0.4,0.1-0.8,0.2-1.2,0.4l-1.1-1.5c2.1-0.5,3.9-1.2,5.4-1.9c-0.7-0.5-1.3-1.1-1.8-1.7
		c-0.7,0.6-1.5,1.2-2.3,1.7L4.8,78c2.2-1.2,3.7-2.8,4.5-4.6l1.8,0.3c-0.2,0.4-0.3,0.7-0.5,1.1h5.6v1.3c-0.7,1.2-1.7,2.3-3,3.3
		C14.7,80.2,16.5,80.7,18.5,81.1z M11.6,80.5c-1,0.6-2.2,1.1-3.4,1.6h7C13.8,81.6,12.6,81.1,11.6,80.5z M14.3,86v-2.2H8.6V86H14.3z
		 M11.6,78.6c1-0.6,1.8-1.3,2.4-2.1H9.5c-0.1,0.1-0.1,0.1-0.2,0.2C9.9,77.4,10.7,78,11.6,78.6z M13.7,69.8v1.2h4.2v1.6h-4.2v1.2
		h-1.8v-1.2H9.6v-1.6h2.2v-1.2H13.7z"/>
	<path class="st1" d="M26.7,72.3h-6.2v-1.8h8.1v15.4c0,1.6-0.8,2.3-2.4,2.3h-2.8l-0.5-1.8l2.9,0.1c0.6,0,1-0.4,1-1.2v-4.6
		c-1.7,1.6-3.6,2.9-5.8,4l-1-1.8c2.6-1.2,4.9-2.7,6.9-4.7V72.3z M25.1,77.8l-1.6,1.1c-0.7-1.4-1.7-2.9-2.9-4.5l1.6-1
		C23.5,75.1,24.4,76.6,25.1,77.8z M31.3,86.4l3.3,0.1c0.7,0,1-0.4,1-1.2v-5c-1.6,1.6-3.5,2.9-5.5,4l-1-1.8c2.5-1.2,4.7-2.7,6.6-4.7
		v-5.5h-6.2v-1.8h8v15.4c0,1.6-0.8,2.3-2.4,2.3h-3.2L31.3,86.4z M33.9,77.4l-1.6,1.1c-0.6-1.3-1.5-2.7-2.6-4.3l1.5-1
		C32.3,74.9,33.2,76.3,33.9,77.4z"/>
	<path class="st1" d="M44.8,88.2H43v-9.1c-0.6,1.7-1.4,3.2-2.3,4.6l-0.8-2.1c1.4-1.8,2.5-3.9,3.1-6.2h-2.7v-1.8H43v-3.7h1.9v3.7h2.2
		v1.8h-2.2v1.2c0.9,1,1.9,2.2,2.8,3.4l-1.1,1.7c-0.6-1.2-1.2-2.2-1.7-2.9V88.2z M51.4,71.3c-0.7,3.6-1.7,6.3-3.2,8.2l-1.4-1.3
		c1.3-1.7,2.3-4.2,2.8-7.3L51.4,71.3z M57.8,87.6l-1.8,0.8c-0.2-0.6-0.4-1.2-0.6-1.8c-2.3,0.5-4.9,0.9-7.7,1.2L47.4,86
		c1-0.5,2.4-3.5,4.2-9.3l1.9,0.6c-1.2,3.4-2.4,6.2-3.6,8.4c1.7-0.2,3.3-0.5,4.9-0.8c-0.5-1.3-1-2.4-1.5-3.5l1.7-0.6
		C56.1,83,57.1,85.3,57.8,87.6z M55.6,70.5c0.4,3.4,1.4,6.1,2.9,8.2L57.1,80c-1.5-2.1-2.5-4.6-3-7.7h-1.6v-1.8H55.6z"/>
	<path class="st1" d="M62.8,75.2v-2.4c-0.7,0.1-1.4,0.2-2.1,0.3l-0.4-1.8c2.3-0.2,4.3-0.6,6.1-1.2l0.7,1.8c-0.8,0.2-1.6,0.4-2.4,0.6
		v2.7h2.1V77h-2.1v0.6c0.7,0.6,1.4,1.4,2.1,2.1l-1,1.5c-0.4-0.7-0.8-1.3-1.1-1.8v8.7h-1.8v-8.4c-0.6,1.7-1.3,3.2-2.2,4.6l-0.8-2
		C61,80.8,62,79,62.6,77h-2.3v-1.8H62.8z M72,87.7c-1.3,0-1.9-0.7-1.9-2v-0.4c-1,1-2.1,1.8-3.3,2.4l-1.1-1.6
		c1.6-0.9,3.1-2.1,4.4-3.6v-8.8H72v6.3c1.5-2.5,2.7-5.5,3.6-9.2l1.7,0.7c-0.5,2-1.1,3.8-1.8,5.5l1.3-0.4c0.6,1.6,1.2,3.3,1.7,5
		l-1.6,0.7c-0.5-1.8-1-3.5-1.6-4.9c-1,2.3-2.1,4.2-3.4,5.8v2c0,0.4,0.2,0.6,0.6,0.6h1.6c0.3,0,0.6-0.1,0.7-0.4
		c0.2-0.3,0.3-1.1,0.4-2.6l1.7,0.6c-0.1,2-0.4,3.2-0.8,3.6c-0.4,0.4-0.9,0.6-1.6,0.6H72z M69.6,76.1c-0.4,2.7-0.9,5-1.5,7l-1.6-1
		c0.7-1.9,1.2-4,1.6-6.3L69.6,76.1z M74.4,72.9l-1.3,1.3c-0.8-1-1.9-2.1-3.4-3.2l1.2-1.2C72.3,70.8,73.4,71.8,74.4,72.9z"/>
	<path class="st1" d="M86.1,83.7c-1.8,0.9-3.6,1.6-5.6,2.2l-0.5-2.1c0.7-0.1,1.3-0.3,2-0.5v-6.9H80v-1.8h1.9v-4.6h1.9v4.6h1.6v1.8
		h-1.6v6.3c0.8-0.3,1.5-0.6,2.3-1V83.7z M96.8,77.1v6.6h-2.4v2.2c0,0.4,0.1,0.6,0.4,0.6h1.4c0.2,0,0.3-0.1,0.4-0.3
		c0.1-0.2,0.2-0.8,0.2-1.8l1.7,0.5c-0.1,1.5-0.3,2.4-0.6,2.7c-0.3,0.3-0.8,0.4-1.4,0.4h-2.2c-1.2,0-1.8-0.6-1.8-1.8v-2.5h-1.7
		c-0.2,1.1-0.7,2.1-1.5,2.8c-0.8,0.8-2.2,1.4-4.2,1.9l-0.7-1.7c1.6-0.3,2.8-0.7,3.5-1.3c0.5-0.4,0.9-1,1.1-1.7h-2v-6.6H96.8z
		 M90.9,71.2c-0.2-0.5-0.3-0.9-0.5-1.3l2-0.3c0.2,0.5,0.3,1,0.5,1.6h4.7v1.6h-2c-0.2,0.6-0.4,1.2-0.6,1.8h3.2v1.6H86v-1.6h2.9
		c-0.2-0.6-0.4-1.2-0.6-1.8h-1.7v-1.6H90.9z M95.1,79.7v-1.1h-6.3v1.1H95.1z M95.1,81h-6.3v1.1h6.3V81z M93.8,72.8h-3.6
		c0.2,0.6,0.4,1.1,0.5,1.8H93C93.4,74,93.6,73.4,93.8,72.8z"/>
	<path class="st1" d="M110.4,78c0.3,0.4,0.5,1,0.5,1.6c0,1-0.3,1.9-0.9,2.7c-0.6,0.8-1.4,1.3-2.4,1.5v-1.2c0.5-0.2,1-0.5,1.4-0.9
		c0.3-0.5,0.5-0.9,0.5-1.4c-0.1,0-0.3,0.1-0.5,0.1c-0.4,0-0.8-0.2-1-0.4c-0.3-0.3-0.4-0.6-0.4-1.1c0-0.4,0.1-0.8,0.4-1.1
		c0.3-0.3,0.7-0.4,1.1-0.4C109.6,77.4,110.1,77.6,110.4,78z"/>
	<path class="st1" d="M17.6,118h-1.9v-1h-13v1H0.8v-17h16.8V118z M15.6,115.3v-12.6h-3.4v7.2c0,0.4,0.2,0.5,0.7,0.5h2.2v1.7h-2.7
		c-1.3,0-2-0.6-2-1.8v-7.7H7.9v4.1c0,2.8-1.2,4.9-3.4,6.2L3,111.7c2-1,3-2.7,3-4.9v-4.1H2.7v12.6H15.6z"/>
	<path class="st1" d="M28.2,103.2v-1.1c-1.7,0.1-3.6,0.1-5.6,0.1l-0.5-1.6c5.2,0,9.6-0.3,13.1-0.8l0.9,1.5c-1.7,0.3-3.7,0.5-5.9,0.7
		v1.2h7.7v1.8h-7.7v0.3c1.9,0.4,3.3,0.8,4.2,1.1c1,0.3,2.2,0.8,3.7,1.4l-0.7,1.7c-1.3-0.6-2.7-1.2-4.1-1.7c-1-0.4-2.1-0.7-3.2-0.9
		v1.9H34v1.7c-1,0.7-2.2,1.4-3.5,2.1v0.3h6.8v1.7h-6.8v1.9c0,1.2-0.7,1.8-2.1,1.8h-2.4l-0.5-1.7c0.7,0,1.4,0,2.2,0
		c0.6,0,0.8-0.3,0.8-0.8v-1.3h-7.8v-1.7h7.8v-1c1.2-0.5,2.1-1,2.9-1.4h-7.7v-1.7h4.4V105h0c-1.3,1.8-3.7,3.3-7.1,4.6l-1-1.6
		c2.8-0.9,4.9-1.9,6.1-3h-5.6v-1.8H28.2z"/>
	<path class="st1" d="M50.3,110.5c-0.1,0.4-0.1,0.8-0.2,1.1h7.4v1.8h-8.1c-0.5,0.9-1.1,1.7-1.8,2.3c-1.3,1.2-3.6,2.1-7,2.8l-0.8-1.8
		c2.9-0.5,4.9-1.2,6.2-2.2c0.4-0.3,0.7-0.7,1-1h-6.3v-1.8h7.3c0.1-0.4,0.2-0.9,0.3-1.3L50.3,110.5z M45.3,101.7
		c-0.2-0.6-0.5-1.1-0.8-1.6l2-0.3c0.3,0.6,0.5,1.2,0.8,1.9h4c0.3-0.6,0.5-1.3,0.7-2l2,0.3c-0.2,0.6-0.4,1.2-0.7,1.7h4.2v1.7h-7.2
		v1.5h6.1v1.6h-6.1v1.6H58v1.8H40.4v-1.8h7.9v-1.6h-6.1V105h6.1v-1.5H41v-1.7H45.3z M58.4,116.8l-1.1,1.7c-2.4-1.3-4.8-2.4-7.3-3.1
		l1-1.5C53.7,114.7,56.2,115.7,58.4,116.8z"/>
	<path class="st1" d="M66.1,115.5c-1.3,1.1-3,2-5,2.7l-1.1-1.6c2.2-0.6,3.8-1.4,4.9-2.4L66.1,115.5z M76,100.3v6h-6.1
		c0.1,0.3,0.3,0.6,0.4,0.9h7.8v1.6H60.3v-1.6h8c-0.2-0.3-0.3-0.6-0.5-0.9h-5.3v-6H76z M75.7,109.7v4.3h-5.4v2.4
		c0,1.3-0.6,1.9-1.8,1.9h-2.4l-0.4-1.8c0.8,0.1,1.5,0.1,2.2,0.1c0.3,0,0.5-0.2,0.5-0.7v-2h-5.7v-4.3H75.7z M74.1,102.7v-0.9h-9.9
		v0.9H74.1z M74.1,104h-9.9v0.9h9.9V104z M73.9,111.1h-9.3v1.3h9.3V111.1z M78.3,116.4l-0.7,1.7c-1.8-1-3.7-1.7-5.7-2.3l0.8-1.5
		C74.6,114.8,76.5,115.5,78.3,116.4z"/>
	<path class="st1" d="M87.1,104.8v1.5c-1,4.4-3,7.8-6,10.1l-1.2-1.6c2.6-1.9,4.4-4.7,5.4-8.2h-4.7v-1.8H87.1z M97.4,104
		c-1.5,1.9-3.1,3.5-4.8,4.8c1.5,2.4,3.5,4.5,5.9,6.1l-1.2,1.7c-3.2-2.6-5.6-5.5-7.1-8.7v8.2c0,1.4-0.7,2.1-2,2.1h-2.6l-0.4-1.9
		c0.8,0.1,1.6,0.1,2.4,0.1c0.5,0,0.7-0.3,0.7-0.9V99.8h1.9v4.1c0.4,1.2,0.9,2.3,1.5,3.4c1.5-1.3,2.9-2.8,4.1-4.4L97.4,104z"/>
	<path class="st1" d="M107.6,111.4l-1.5,0.6c-0.1-0.4-0.2-0.7-0.3-1c-1.8,0.5-3.6,0.9-5.2,1.1l-0.5-1.6c0.3-0.1,0.6-0.3,0.8-0.5
		c0.6-0.6,1.4-1.7,2.4-3.3c-0.9,0.2-1.9,0.3-2.9,0.5l-0.5-1.7c0.3-0.1,0.5-0.3,0.8-0.7c0.9-1.5,1.7-3.2,2.3-5.1l1.8,0.7
		c-0.9,2-1.8,3.6-2.7,4.9c0.8-0.1,1.5-0.2,2.2-0.3c0.4-0.7,0.8-1.4,1.2-2.2l1.6,0.6c-1.7,3.2-3.2,5.4-4.4,6.8
		c0.9-0.2,1.8-0.3,2.7-0.6c-0.2-0.6-0.4-1.1-0.6-1.6l1.4-0.5C106.7,108.8,107.2,110.1,107.6,111.4z M102.2,113.3
		c-0.1,1.8-0.3,3.4-0.6,4.8l-1.7-0.5c0.4-1.3,0.6-2.8,0.7-4.5L102.2,113.3z M104.9,117.2l-1.6,0.2c0-1.9-0.1-3.3-0.3-4.3l1.5-0.2
		C104.6,114,104.8,115.4,104.9,117.2z M107.5,115.1c1.2-0.6,2.3-1.5,3.2-2.5l0.6,1.3c-0.9,1.2-1.9,2.3-3.2,3l-0.7-1.1l-1.2,0.5
		c-0.3-1.3-0.6-2.4-1-3.4l1.3-0.5C106.9,113.2,107.2,114.1,107.5,115.1z M113.7,106.8l0.3-1.2h-5.8l1.6-5.9l1.8,0.2l-0.3,1.1h5.3
		v0.8l-1,5h2.5v1.7h-4.4v7.9c0,1.2-0.6,1.8-1.8,1.8H110l-0.4-1.7c0.6,0.1,1.1,0.1,1.6,0.1c0.4,0,0.6-0.2,0.6-0.7v-7.4h-4.5v-1.7
		H113.7z M111.1,110.9l-0.9,1.3c-0.9-0.7-1.8-1.2-2.7-1.6l0.9-1.3C109.4,109.8,110.3,110.3,111.1,110.9z M114.6,102.5h-3.9l-0.4,1.6
		h4L114.6,102.5z M118.6,115.5l-0.9,1.4c-1.2-1.4-2.3-2.5-3.6-3.3l0.8-1.2C116.2,113.3,117.5,114.3,118.6,115.5z M117.8,110.2
		c-0.8,0.9-1.7,1.5-2.7,2l-0.9-1.2c0.9-0.4,1.6-1,2.3-1.8L117.8,110.2z"/>
	<path class="st1" d="M135.8,100.4v8.8c0,2.9,0.1,4.8,0.2,5.6c0.1,0.8,0.3,1.2,0.5,1.2c0.2,0,0.4-0.9,0.6-2.7l1.5,0.7
		c-0.3,1.6-0.5,2.7-0.8,3.2c-0.3,0.5-0.7,0.8-1.1,0.8c-0.9,0-1.6-0.6-2-1.8c-0.5-1.2-0.7-3.6-0.7-7.1v-7h-11v6.6
		c0,3.8-0.6,7-1.6,9.6l-1.5-1.2c0.8-2.2,1.2-5,1.2-8.3v-8.4H135.8z M133.2,103.5v1.7h-3.8v1.5h3.5v6.4h-3.5v2.4
		c0.7-0.1,1.3-0.3,1.8-0.4c-0.2-0.4-0.4-0.8-0.6-1.1l1.5-0.6c0.8,1.3,1.4,2.6,2,4l-1.7,0.7c-0.2-0.5-0.4-1-0.5-1.4
		c-1.9,0.5-4.7,0.9-8.2,1.2l-0.5-1.7c1.6-0.1,3.1-0.2,4.4-0.3V113H124v-6.4h3.5v-1.5h-3.8v-1.7H133.2z M127.6,108.3h-1.8v3.1h1.8
		V108.3z M131.2,108.3h-1.8v3.1h1.8V108.3z"/>
	<path class="st1" d="M150.1,99.9v7.2h7.8v1.9h-5.5v6.2c0,0.6,0.2,0.9,0.7,0.9h2.3c0.3,0,0.6-0.2,0.7-0.4c0.2-0.3,0.3-1.3,0.4-2.9
		l1.8,0.6c-0.2,2.2-0.4,3.5-0.8,3.9c-0.4,0.4-1,0.6-1.8,0.6h-3.2c-1.4,0-2.1-0.8-2.1-2.2V109h-3v0.1c-0.1,2.5-0.6,4.5-1.7,6
		c-1,1.4-2.6,2.5-4.9,3.2l-1.1-1.7c2.2-0.8,3.6-1.7,4.4-2.9c0.8-1.2,1.2-2.8,1.3-4.7V109h-5.2v-1.9h7.8v-7.2H150.1z M146.3,105.5
		l-1.8,0.9c-0.8-1.7-1.7-3.2-2.7-4.5l1.8-0.8C144.5,102.4,145.4,103.8,146.3,105.5z M156.6,101.7c-0.7,1.6-1.5,3.2-2.6,4.7l-1.7-0.9
		c1.1-1.6,1.9-3.1,2.6-4.7L156.6,101.7z"/>
	<path class="st1" d="M161.2,105.3l-1.2-1.5c1.5-1.1,2.5-2.4,3-3.9l1.8,0.2c-0.2,0.6-0.4,1.1-0.6,1.6h12.9v1.8h-14.1
		C162.6,104.1,161.9,104.7,161.2,105.3z M164.7,104.2v2.3h1.9v-2.3h1.8v2.3h1.9v-2.3h1.8v2.3h1.9v-2.3h1.8v2.3h1.8v1.8h-1.8v2.9h2.1
		v1.8h-17.5v-1.8h2.5v-2.9h-2.2v-1.8h2.2v-2.3H164.7z M164.4,114.2c-0.7,1.6-1.5,3-2.5,4.2l-1.5-1.1c0.9-1.1,1.7-2.4,2.4-3.8
		L164.4,114.2z M166.6,111.1v-2.9h-1.9v2.9H166.6z M168.6,117.9l-1.9,0.4c-0.3-1.5-0.6-2.8-0.9-4l1.8-0.4
		C167.9,115.1,168.3,116.5,168.6,117.9z M170.3,111.1v-2.9h-1.9v2.9H170.3z M173.3,117.8l-1.9,0.4c-0.3-1.5-0.7-2.8-1.2-4l1.7-0.4
		C172.4,115,172.9,116.3,173.3,117.8z M174,111.1v-2.9h-1.9v2.9H174z M178.2,117.2l-1.6,1.1c-0.6-1.2-1.5-2.6-2.6-4.1l1.5-0.9
		C176.7,114.8,177.6,116.1,178.2,117.2z"/>
	<path class="st1" d="M187.1,100.5v1.5c-0.6,1.7-1.3,3.5-2.1,5.4c1.3,1.8,1.9,3.4,2,4.8c0,0.9-0.2,1.6-0.6,2
		c-0.6,0.5-1.6,0.8-3.1,0.8l-0.6-1.9c0.4,0.1,0.7,0.1,1,0.1c0.6,0,0.9-0.1,1.1-0.2c0.2-0.1,0.3-0.4,0.3-0.7c0-1.4-0.7-2.9-2-4.5
		c0.9-2,1.6-3.8,2.1-5.4h-2.7v16h-1.9v-17.8H187.1z M189.7,115.7c1.1-0.3,2.1-0.7,3.2-1.2l0.5,1.8c-1.5,0.6-3.3,1.2-5.5,1.8
		l-0.5-1.7c0.3-0.1,0.5-0.3,0.5-0.6v-15.3h9v8.9h-7.2V115.7z M195,102.3h-5.3v1.9h5.3V102.3z M189.7,107.7h5.3v-1.8h-5.3V107.7z
		 M198,111.3c-0.8,1-1.8,1.8-2.8,2.3c0.9,1.2,2,2.1,3.3,2.9l-1.1,1.6c-2.5-1.5-4.3-3.8-5.5-7l1.4-0.8c0.3,0.7,0.6,1.4,0.9,2
		c0.9-0.5,1.7-1.3,2.5-2.2L198,111.3z"/>
	<path class="st1" d="M209.1,107.2c0.5,0.5,0.8,1.1,0.8,1.9c0,0.7-0.3,1.4-0.8,1.9s-1.2,0.8-1.9,0.8c-0.8,0-1.4-0.3-1.9-0.8
		c-0.6-0.5-0.8-1.1-0.8-1.9c0-0.8,0.3-1.4,0.8-1.9c0.5-0.5,1.2-0.8,1.9-0.8C207.9,106.4,208.6,106.7,209.1,107.2z M206.2,108.1
		c-0.3,0.2-0.4,0.6-0.4,0.9c0,0.4,0.1,0.7,0.4,0.9c0.3,0.3,0.6,0.4,1,0.4c0.4,0,0.7-0.1,1-0.4c0.3-0.3,0.4-0.6,0.4-0.9
		c0-0.4-0.1-0.7-0.4-0.9c-0.3-0.3-0.6-0.4-1-0.4C206.8,107.7,206.5,107.8,206.2,108.1z"/>
</g>
</svg>
