<svg xmlns="http://www.w3.org/2000/svg" xmlns:xlink="http://www.w3.org/1999/xlink" width="582.693" height="73.349" viewBox="0 0 582.693 73.349">
  <defs>
    <filter id="Path_8231" x="0" y="1.85" width="70.553" height="70.003" filterUnits="userSpaceOnUse">
      <feOffset dx="7" dy="3" input="SourceAlpha"/>
      <feGaussianBlur stdDeviation="4" result="blur"/>
      <feFlood flood-opacity="0.702"/>
      <feComposite operator="in" in2="blur"/>
      <feComposite in="SourceGraphic"/>
    </filter>
    <filter id="Path_8232" x="49.3" y="0.35" width="72.003" height="71.503" filterUnits="userSpaceOnUse">
      <feOffset dx="7" dy="3" input="SourceAlpha"/>
      <feGaussianBlur stdDeviation="4" result="blur-2"/>
      <feFlood flood-opacity="0.702"/>
      <feComposite operator="in" in2="blur-2"/>
      <feComposite in="SourceGraphic"/>
    </filter>
    <filter id="Path_8233" x="101.5" y="0.35" width="68.353" height="71.376" filterUnits="userSpaceOnUse">
      <feOffset dx="7" dy="3" input="SourceAlpha"/>
      <feGaussianBlur stdDeviation="4" result="blur-3"/>
      <feFlood flood-opacity="0.702"/>
      <feComposite operator="in" in2="blur-3"/>
      <feComposite in="SourceGraphic"/>
    </filter>
    <filter id="Path_8234" x="150.8" y="4.75" width="69.053" height="64.902" filterUnits="userSpaceOnUse">
      <feOffset dx="7" dy="3" input="SourceAlpha"/>
      <feGaussianBlur stdDeviation="4" result="blur-4"/>
      <feFlood flood-opacity="0.702"/>
      <feComposite operator="in" in2="blur-4"/>
      <feComposite in="SourceGraphic"/>
    </filter>
    <filter id="Path_8235" x="199.65" y="1.949" width="69.953" height="68.604" filterUnits="userSpaceOnUse">
      <feOffset dx="7" dy="3" input="SourceAlpha"/>
      <feGaussianBlur stdDeviation="4" result="blur-5"/>
      <feFlood flood-opacity="0.702"/>
      <feComposite operator="in" in2="blur-5"/>
      <feComposite in="SourceGraphic"/>
    </filter>
    <filter id="Path_8236" x="249.549" y="0" width="71.503" height="71.952" filterUnits="userSpaceOnUse">
      <feOffset dx="7" dy="3" input="SourceAlpha"/>
      <feGaussianBlur stdDeviation="4" result="blur-6"/>
      <feFlood flood-opacity="0.702"/>
      <feComposite operator="in" in2="blur-6"/>
      <feComposite in="SourceGraphic"/>
    </filter>
    <filter id="Path_8237" x="314.717" y="19.766" width="267.976" height="53.583" filterUnits="userSpaceOnUse">
      <feOffset dx="7" dy="7" input="SourceAlpha"/>
      <feGaussianBlur stdDeviation="2.5" result="blur-7"/>
      <feFlood flood-opacity="0.502"/>
      <feComposite operator="in" in2="blur-7"/>
      <feComposite in="SourceGraphic"/>
    </filter>
  </defs>
  <g id="section8_title" transform="translate(-256.426 -356.94)">
    <g id="Group_1622" data-name="Group 1622" transform="translate(0 -13601.66)">
      <g id="Group_1621" data-name="Group 1621">
        <g id="Group_1620" data-name="Group 1620">
          <g transform="matrix(1, 0, 0, 1, 256.43, 13958.6)" filter="url(#Path_8231)">
            <path id="Path_8231-2" data-name="Path 8231" d="M307.979,14014h-16.8v1.45h-6.55V13995.9a40.8,40.8,0,0,0-4.9-3.7,23.99,23.99,0,0,0,7.2-10.1h-13.4l2.6,1.051a42.4,42.4,0,0,1-5.251,6.85l2.45-.1a41.173,41.173,0,0,0,3.351-4.75l5.35,3a57.505,57.505,0,0,1-9,9.65l4-.35a18.251,18.251,0,0,0-.851-2l4.7-1.65a30.52,30.52,0,0,1,3,8.1l-5,1.9a16.915,16.915,0,0,0-.4-1.949c-10.451,1.2-12.6,1.6-14.051,2.149a25.672,25.672,0,0,0-2.2-4.4c1.45-.25,2.55-1.1,4.2-2.5a24.523,24.523,0,0,0,2.5-2.25,21.027,21.027,0,0,0-5.3.8,36.009,36.009,0,0,0-2.2-4.4,5.819,5.819,0,0,0,2.95-1.9,35.3,35.3,0,0,0,5-7.251h-5.45v-12.65h41.553v12.65H289.327l4.151,1.051q-.75,1.875-1.65,3.75h3.35a28.6,28.6,0,0,0-1.25-3.1l5.55-1.6a30.512,30.512,0,0,1,2.1,4.7h5.7v5.7h-5.9v1.851h4.45v5.05h-4.45v1.851h4.45v5.05h-4.45v1.9h6.6Zm-38.7-8.3a31.585,31.585,0,0,1-2.35,8.551,44.776,44.776,0,0,0-5.4-1.2,24.044,24.044,0,0,0,2.2-8.1Zm5.65-.9a49.823,49.823,0,0,1,1.351,7.951l-5.5.95a43.375,43.375,0,0,0-1.051-8Zm.551-30.251h-4.6v2.45h4.6Zm5.35,29.2a46.531,46.531,0,0,1,2.95,7.3l-5.2,1.3a45.3,45.3,0,0,0-2.7-7.45Zm5.951-29.2h-4.7v2.45h4.7Zm8.3,18.051h-3.9v1.851h3.9Zm0,6.9h-3.9v1.851h3.9Zm-3.9,8.8h3.9v-1.9h-3.9Zm2.2-31.3h4.75v-2.45h-4.75Z" transform="translate(-256.43 -13958.6)" fill="#b68e66"/>
          </g>
          <g transform="matrix(1, 0, 0, 1, 256.43, 13958.6)" filter="url(#Path_8232)">
            <path id="Path_8232-2" data-name="Path 8232" d="M343.678,14000.3a46.09,46.09,0,0,0,15.051,8.451,30.094,30.094,0,0,0-5.2,6.35,47.752,47.752,0,0,1-15.251-10.9v11.251h-7.6V14004.5a45.579,45.579,0,0,1-14.951,10.5,34.207,34.207,0,0,0-5-6.1,45.447,45.447,0,0,0,14.751-8.6h-9.051v-19.7h14.251v-2.1H312.326v-6.751h18.351v-3.8h7.6v3.8h18.851v6.751H338.278v2.1h14.9v19.7Zm-20.151-12.351h7.15v-2h-7.15Zm0,7h7.15v-2.051h-7.15Zm14.751-9v2h7.45v-2Zm7.45,6.95h-7.45v2.051h7.45Z" transform="translate(-256.43 -13958.6)" fill="#b68e66"/>
          </g>
          <g transform="matrix(1, 0, 0, 1, 256.43, 13958.6)" filter="url(#Path_8233)">
            <path id="Path_8233-2" data-name="Path 8233" d="M407.279,13975.6s0,2.3-.05,3.15c-.6,22.251-1.1,30.352-3.2,33.1a7.148,7.148,0,0,1-5.3,3.2,45.8,45.8,0,0,1-8.1.2,16.678,16.678,0,0,0-2.4-7.051c3.2.3,6.2.3,7.551.3a2.559,2.559,0,0,0,2.2-.9c1.45-1.551,2.05-8.9,2.45-25.4h-9.5a50.6,50.6,0,0,1-4.25,7.45,43.268,43.268,0,0,0-4.1-3.1v23.8h-13.1v3.551h-6.55v-37.8h5.7a67.68,67.68,0,0,0,1.1-8.15l7.951,1.1c-.85,2.45-1.7,4.951-2.5,7.051h7.4v6.65a54.261,54.261,0,0,0,5.951-14.65l7,1.649c-.55,1.95-1.2,3.9-1.9,5.851Zm-31.252,6.8h-6.551v6.75h6.551Zm0,21.6v-8.6h-6.551v8.6Zm16.5-1.5a116.633,116.633,0,0,0-6.551-11.65l5.7-3.2c2.251,3.4,5.5,8.15,7,11.1Z" transform="translate(-256.43 -13958.6)" fill="#b68e66"/>
          </g>
          <g transform="matrix(1, 0, 0, 1, 256.43, 13958.6)" filter="url(#Path_8234)">
            <path id="Path_8234-2" data-name="Path 8234" d="M457.279,14006.052v7.2H412.226v-7.2h11.35c.75-3.7,1.551-7.8,2.251-12.1h-8.051v-7.15h9.2c.35-2.451.65-4.851.95-7.251H414.976v-7.2h39.2v7.2h-18.1c-.35,2.4-.7,4.8-1.1,7.251h7.351l1.3-.25,5.8.4c-.25,6-.85,12.751-1.55,19.1Zm-23.452-12.1c-.75,4.3-1.5,8.45-2.2,12.1h8.5c.4-4.1.75-8.35,1-12.1Z" transform="translate(-256.43 -13958.6)" fill="#b68e66"/>
          </g>
          <g transform="matrix(1, 0, 0, 1, 256.43, 13958.6)" filter="url(#Path_8235)">
            <path id="Path_8235-2" data-name="Path 8235" d="M507.029,14007.952v6.2h-44.6v-6.2h18.7v-2.25H468.776v-4.6c-.55.6-1.1,1.1-1.65,1.6a45.24,45.24,0,0,0-6.05-4.5,27.827,27.827,0,0,0,7.85-9.451h-1.85v-19.2h34.852v19.2H472.077l4.349,1.25a19.68,19.68,0,0,1-1.049,2.051h5.75v-2.5h7.55v2.5h15.1v5.95h-15.1v2.15h12.751v5.55H488.677v2.25Zm-25.9-7.8V13998h-9.651c-.6.75-1.2,1.45-1.8,2.15Zm-6.9-23.552h20.152v-1.6H474.226Zm0,6.7h20.152v-1.649H474.226Z" transform="translate(-256.43 -13958.6)" fill="#b68e66"/>
          </g>
          <g transform="matrix(1, 0, 0, 1, 256.43, 13958.6)" filter="url(#Path_8236)">
            <path id="Path_8236-2" data-name="Path 8236" d="M513.226,13988.451a54.925,54.925,0,0,0-2.251-6.351c1.1-.3,1.951-1.149,2.951-2.6a54.848,54.848,0,0,0,5.6-11.9l6.65,2.7a65.141,65.141,0,0,1-6.25,11.051l2.55-.149a59.527,59.527,0,0,0,3.551-6.551l5.95,3.851a76.211,76.211,0,0,1-7.051,10.25l4.051-1.55a36.046,36.046,0,0,1,3.55,9.9l-5.2,2.1a20.12,20.12,0,0,0-.351-2.1c-10.1,1.8-12.1,2.351-13.35,3.051a58.991,58.991,0,0,0-2.25-6.4c1.5-.351,2.55-1.4,4.25-3.251.55-.55,1.5-1.7,2.65-3.149-3.2.4-4.3.7-5.05,1.05Zm5.1,13.9a52.614,52.614,0,0,1-2,12.3,35.436,35.436,0,0,0-5.351-1.851c1.151-2.851,1.6-7.3,1.8-11.351Zm5.251-1.3a89.184,89.184,0,0,1,1.3,10l-5.151,1.351a85.855,85.855,0,0,0-1-10.151Zm1.7-9.3c-.25-.8-.6-1.55-.9-2.3-.8.95-1.6,1.9-2.4,2.8Zm32.552-6.55a52.891,52.891,0,0,1-6.351,19.251,22.656,22.656,0,0,0,7,4.7,25.908,25.908,0,0,0-4.8,6.051,24.675,24.675,0,0,1-6.55-4.9,34.847,34.847,0,0,1-6.25,5.25,27.554,27.554,0,0,0-4.1-5.05,26.7,26.7,0,0,1-2.35,4.8,38.911,38.911,0,0,0-6.251-4.6,20.94,20.94,0,0,0,1.651-2.75l-3.651,1.3a61.205,61.205,0,0,0-2.2-8.051l4.751-1.6c.75,1.9,1.5,4.3,2.05,6.2,2.9-7.35,3.55-17.6,3.55-29.1h-3.75v-6.8h16.651l1.1-.25,5,.6c-.5,4.5-1.351,9.351-2.2,13.651h.849l1.25-.25Zm-15.051,19.351a37.055,37.055,0,0,1-2.95-6,56.825,56.825,0,0,1-2.7,11.051A23.329,23.329,0,0,0,542.778,14004.552Zm-1.45-27.852c-.05,2.45-.1,4.851-.2,7.2h3.25c.45-2.3.85-4.851,1.25-7.2Zm2.05,13.6a38.018,38.018,0,0,0,3.35,8,37.153,37.153,0,0,0,2.95-8Z" transform="translate(-256.43 -13958.6)" fill="#b68e66"/>
          </g>
        </g>
      </g>
    </g>
    <g transform="matrix(1, 0, 0, 1, 256.43, 356.94)" filter="url(#Path_8237)">
      <path id="Path_8237-2" data-name="Path 8237" d="M801.318,14017.449H571.643v-38.583H801.318l23.3,19.292Z" transform="translate(-256.43 -13958.6)" fill="#b68e66"/>
    </g>
    <g id="Group_1623" data-name="Group 1623" transform="translate(0 -13601.66)">
      <path id="Path_8238" data-name="Path 8238" d="M600.057,14005.063a29.467,29.467,0,0,1-2.909,7.948l-2.58-1.649a23.041,23.041,0,0,0,2.67-6.9Zm-4.919-7.051v-2.85H598.2a17.835,17.835,0,0,0-1.229-2.76l2.729-1.051a34.749,34.749,0,0,1,1.291,3.811h2.639c.421-1.23.81-2.49,1.14-3.811l2.79.99a22.13,22.13,0,0,1-1.11,2.82h2.94v2.85h-5.52v2.43h5.01v2.85h-5.01v10.65h-3.12v-10.65h-5.129v-2.85h5.129v-2.43Zm5.49-9.66a17.058,17.058,0,0,0-1.17-2.069l3.239-.54c.36.78.69,1.65,1.05,2.609h5.46v2.881H595.438v-2.881Zm8.1,21.06-2.61,1.021a47.881,47.881,0,0,0-1.68-5.46l2.58-.69A51.332,51.332,0,0,1,608.727,14009.412Zm13.29-20.339a33.141,33.141,0,0,1-8.43,1.529v4.65h9.06v2.97h-2.761v15.63H616.8v-15.63h-3.21v2.819c-.15,5.34-1.32,9.57-3.54,12.75l-2.25-2.37c1.71-2.489,2.64-5.939,2.76-10.38v-12.989a29.253,29.253,0,0,0,9.93-1.77Z" fill="#fff"/>
      <path id="Path_8239" data-name="Path 8239" d="M628.588,13992.853v-6.42h3.179v6.42h5.1v-6.72h3.09v6.72h5.13v-6.72h3.09v6.72h4.2v3.03h-4.2v9.449h-11.31v-9.449h-5.1v13.681h19.59v3.179H628.588v-16.859h-3.54v-3.03Zm11.369,9.421h5.13v-6.391h-5.13Z" fill="#fff"/>
      <path id="Path_8240" data-name="Path 8240" d="M655.648,14001.163l-1.02-3.271a32.089,32.089,0,0,0,6.719-12l2.94,1.38a33.156,33.156,0,0,1-2.819,6.3v20.309h-3.18v-15.659C657.447,13999.213,656.578,14000.2,655.648,14001.163Zm25.948-5.4-9.569,1.32a37.851,37.851,0,0,0,.57,3.959,19.724,19.724,0,0,0,2.7,7.141q1.575,2.339,2.97,2.43c.659-.061,1.17-1.83,1.5-5.339l2.73,1.589a17.147,17.147,0,0,1-1.651,5.46,2.83,2.83,0,0,1-2.4,1.47c-1.5,0-3.06-.99-4.68-2.91a20.489,20.489,0,0,1-3.96-8.279,35.347,35.347,0,0,1-.84-5.1l-6.18.869-.48-2.969,6.39-.9c-.18-2.49-.3-5.34-.36-8.52h3.18q0,4.589.27,8.1l9.3-1.29Zm-2.4-5.25-2.13,2.1a27.5,27.5,0,0,0-4.38-4.589l1.98-1.921A37.52,37.52,0,0,1,679.2,13990.513Z" fill="#fff"/>
      <path id="Path_8241" data-name="Path 8241" d="M685.318,13995.553v-2.85h1.319l-1.469-1.83a15.411,15.411,0,0,0,3.63-5.13l2.819.63c-.21.54-.42,1.08-.66,1.56h8.07v2.73H694.8c-.059.72-.12,1.38-.21,2.04h5.28v2.85h-5.91l-.09.271a40.017,40.017,0,0,1,5.61,3.39l-1.77,1.77h11.52v12.93h-3.18v-1.11h-13.86v1.11h-3.15v-12.21c-.719.42-1.469.84-2.249,1.23l-2.1-2.55c3.06-1.351,5.07-2.97,6-4.83Zm2.37-2.85h3.9c.119-.66.21-1.32.27-2.04h-2.431A14.838,14.838,0,0,1,687.688,13992.7Zm9.059,8.279a29.336,29.336,0,0,0-3.9-2.85,12.358,12.358,0,0,1-2.759,2.85Zm9.3,4.62v-1.86h-13.86v1.86Zm0,4.439v-1.74h-13.86v1.74Zm5.37-22.019v11.489h-10.74v-11.489Zm-3.06,2.76h-4.62v6h4.62Z" fill="#fff"/>
      <path id="Path_8242" data-name="Path 8242" d="M720.358,14007.853a18.329,18.329,0,0,1-2.52,5.52l-2.49-1.561a14.247,14.247,0,0,0,2.309-4.56Zm9.089-1.561a31.023,31.023,0,0,1,2.58,2.43l-2.13,1.5a32.581,32.581,0,0,0-3.06-3.029l1.44-.9h-9.959v-2.279h17.309v-1.021H715.738v-2.189h19.889v-1.05H718.468v-2.311h2.7v-1.169h-5.04v-2.161h5.04V13993h-3.9v-2.13h3.9v-1.11H716.7v-2.16h4.471v-1.379h3.059v1.379h3.99v2.16h-3.99v1.11h3.51v2.13h-3.51v1.109h3.96v2.161h-3.96v1.169h9.18v-1.169h-4.35v-2.161h4.35V13993h-3.69v-2.13h3.69v-1.11h-4.2v-2.16h4.2v-1.379h3.06v1.379h4.439v2.16h-4.439v1.11h3.78v2.13h-3.78v1.109h4.86v2.161h-4.86v1.169h2.16v3.36h3.449v2.189h-3.449v3.3Zm-4.59,6.99q-3.059,0-3.059-2.79v-3.33h3.029v2.67c0,.511.27.78.84.78h6.69a1.355,1.355,0,0,0,.99-.33,4.417,4.417,0,0,0,.54-2.34l2.85.9c-.24,2.159-.66,3.449-1.23,3.869a4.978,4.978,0,0,1-2.58.57Zm17.94-1.95-2.28,1.59a39.553,39.553,0,0,0-3.75-4.858l2.22-1.381A36.032,36.032,0,0,1,742.8,14011.332Z" fill="#fff"/>
      <path id="Path_8243" data-name="Path 8243" d="M771.536,13995.523h-3.149v-3.811h-19.44v4.17h-3.179v-7.229h11.459a23.616,23.616,0,0,0-1.05-2.28l3.39-.54c.36.84.719,1.8,1.049,2.82h10.92Zm-1.049,8.849-11.7.36v4.649c0,.6.3.9.93.9h7.56a1.252,1.252,0,0,0,1.11-.57q.45-.539.63-3.51l2.97.96c-.241,3-.72,4.74-1.38,5.28a4.052,4.052,0,0,1-2.76.81h-9.09c-2.1,0-3.12-1.08-3.12-3.18v-5.25l-9.3.271v-3.061l9.3-.27v-3.9c-1.71.211-3.45.42-5.25.6l-.66-2.939a78.9,78.9,0,0,0,16.139-2.73l1.05,2.79c-2.519.69-5.219,1.29-8.129,1.8v4.29l11.7-.33Z" fill="#fff"/>
    </g>
  </g>
</svg>
