<?xml version="1.0" encoding="utf-8"?>
<!-- Generator: Adobe Illustrator 24.0.3, SVG Export Plug-In . SVG Version: 6.00 Build 0)  -->
<svg version="1.1" id="圖層_1" xmlns="http://www.w3.org/2000/svg" xmlns:xlink="http://www.w3.org/1999/xlink" x="0px" y="0px"
	 viewBox="0 0 154 44" style="enable-background:new 0 0 154 44;" xml:space="preserve">
<style type="text/css">
	.st0{fill:#B78E66;}
	.st1{fill:#FCFCFC;}
</style>
<g id="section2_list2" transform="translate(-261 -634.466)">
	<g id="Group_1535" transform="translate(-0.076 -2455.189)">
		<path id="Path_7511" class="st0" d="M325.1,3101.8c0,0.4,0,1,0,1.3c-0.9,0.2-1.9,0.3-2.8,0.4c-1,0-2-0.1-2.9-0.5
			c-1.3-0.6-2.2-1.9-2.2-3.3c0-1.3,0.6-2.6,1.8-3.4c1-0.6,2.1-0.9,3.3-0.9c0.8,0,1.7,0.1,2.5,0.3c0-0.2,0.2-0.8,0.2-1l0.3-0.1
			c-0.1,1.1-0.2,2.3-0.2,3.4l-0.3-0.1c0-0.3-0.1-0.7-0.1-1c-0.7-0.8-1.8-1.2-2.9-1.1c-1.7-0.1-3.2,1.3-3.2,3c0,0.1,0,0.1,0,0.2
			c0,2.2,1.7,4,3.9,4.1c0.5,0,1-0.1,1.4-0.3c0-0.4,0-0.7,0-1.1v-0.6c0-0.3,0-0.6,0-0.9c-0.2,0-0.9-0.1-1.1-0.1l-0.1-0.2
			c0.6,0,1.4,0,1.8,0c0.5,0,1.6,0,1.7,0l-0.1,0.2c-0.1,0-0.7,0.1-1,0.1c0,0.2,0,0.9,0,1.2L325.1,3101.8z"/>
		<path id="Path_7512" class="st0" d="M329.4,3102.2c-0.7-0.7-1.1-1.7-1.1-2.7c0-2.2,1.8-4.2,4.9-4.2c1.1-0.1,2.2,0.3,3.1,0.9
			c0.9,0.7,1.3,1.7,1.3,2.8c0,2.7-2.1,4.5-4.8,4.5C331.5,3103.6,330.3,3103.1,329.4,3102.2z M336.2,3099.8c0.2-2.1-1.4-3.9-3.5-4
			c0,0,0,0,0,0c-1.7,0-3.1,1.3-3.2,3c0,0.1,0,0.2,0,0.3c0,2.1,1.7,3.9,3.8,3.9C335,3102.9,336.3,3101.5,336.2,3099.8L336.2,3099.8z"
			/>
		<path id="Path_7513" class="st0" d="M341,3102.2c-0.7-0.7-1.1-1.7-1.1-2.7c0-2.2,1.8-4.2,4.9-4.2c1.1-0.1,2.2,0.3,3.1,0.9
			c0.9,0.7,1.4,1.7,1.3,2.8c0,2.7-2.1,4.5-4.8,4.5C343.2,3103.6,341.9,3103.1,341,3102.2z M347.9,3099.8c0.2-2.1-1.4-3.9-3.5-4
			c0,0,0,0,0,0c-1.7,0-3.1,1.3-3.2,3c0,0.1,0,0.2,0,0.3c0,2.1,1.7,3.9,3.8,3.9C346.7,3102.9,348,3101.5,347.9,3099.8L347.9,3099.8z"
			/>
		<path id="Path_7514" class="st0" d="M352.6,3098.6c0-0.5,0-2.5-0.1-2.8c-0.3-0.1-0.9-0.1-1.2-0.2l0-0.2c0.2,0,1.4,0,1.8,0
			c0.4,0,1.7,0,2.6,0c1.1-0.1,2.1,0.1,3.1,0.5c1.1,0.4,1.8,1.5,1.8,2.7c0,2.3-1.8,4.6-6.1,4.6c-0.6,0-3,0-3.2,0l0-0.2
			c0.4,0,0.8-0.1,1.2-0.2c0.1-0.2,0.1-2.2,0.1-3.4L352.6,3098.6z M353.9,3099.6c0,0.6,0,2.7,0.1,3.1c0.4,0.1,0.8,0.2,1.2,0.2
			c2.1,0,4.1-1.2,4.1-3.6c0-1-0.4-2-1.2-2.6c-1-0.6-2.1-0.9-3.2-0.8c-0.3,0-0.7,0-1,0.1c0,0.2-0.1,2.7-0.1,3.2L353.9,3099.6z"/>
		<path id="Path_7515" class="st0" d="M368.1,3098.6c0-0.6,0-2.4-0.1-2.7c-0.2,0-0.9-0.1-1.2-0.2l0-0.2c0.3,0,1.2,0,1.9,0
			c0.7,0,1.8,0,2,0l-0.1,0.2c-0.3,0-0.9,0.1-1.3,0.2c0,0.4-0.1,2-0.1,2.8v0.4c0,1.5,0,3.6,0.1,3.8c0.9,0.1,1.8-0.1,2.7-0.6
			c0.2-0.4,0.3-0.8,0.4-1.3l0.3,0c-0.3,1.2-0.5,2.4-0.6,3.6l-0.3-0.1c0-0.2,0.1-1,0.1-1.3c-0.2,0-2.6-0.1-3.2-0.1
			c-0.6,0-1.6,0-1.9,0l0-0.2c0.4,0,0.8-0.1,1.2-0.2c0-0.5,0.1-2.6,0.1-3.7L368.1,3098.6z"/>
		<path id="Path_7516" class="st0" d="M377,3099.4c0,1.4,0,3.3,0.1,3.5c0.3,0.1,0.9,0.1,1.2,0.2l0.1,0.2c-0.2,0-1.4,0-2.1,0
			c-0.4,0-1.4,0-1.7,0l0-0.2c0.2,0,0.9-0.1,1.2-0.2c0-0.5,0.1-2.5,0.1-3.6v-0.7c0-0.4,0-2.4-0.1-2.8c-0.2,0-1-0.1-1.2-0.2l-0.1-0.2
			c0.2,0,1.2,0,2.1,0c0.6,0,1.5,0,1.7,0l-0.1,0.2c-0.2,0-0.8,0.1-1.2,0.2c0,0.2-0.1,1.5-0.1,2.9L377,3099.4z"/>
		<path id="Path_7517" class="st0" d="M381.8,3099c0-1,0-2.8-0.1-3.1c-0.4-0.1-0.8-0.1-1.2-0.2l0-0.2c0.4,0,1.5,0,1.9,0
			c0.5,0,3.3,0,3.5-0.1c0-0.1,0.1-0.5,0.1-0.8l0.3-0.1c-0.1,0.9-0.2,1.8-0.2,2.7l-0.3-0.1c0-0.3,0-0.6-0.1-0.9
			c-0.9-0.4-1.8-0.5-2.7-0.5c-0.1,0.2-0.1,2.1-0.1,3v0.2c0.8,0,1.6,0,2.3-0.2c0.1-0.2,0.1-0.4,0.2-0.7l0.2,0
			c-0.1,0.5-0.2,1.6-0.2,2.5l-0.2-0.1c0-0.2,0-0.6-0.1-0.9c-0.7-0.2-1.5-0.3-2.3-0.3v0.3c0,0.9,0,2.9,0.1,3.2
			c0.4,0.1,0.8,0.1,1.2,0.2l0,0.2c-0.4,0-1.3,0-2,0c-0.6,0-1.5,0-1.9,0l0-0.2c0.4,0,0.8-0.1,1.2-0.2c0-0.3,0.1-2.1,0.1-3.3
			L381.8,3099z"/>
		<path id="Path_7518" class="st0" d="M390,3099c0-1,0-2.8-0.1-3.1c-0.2,0-0.9-0.1-1.2-0.2l0-0.2c0.3,0,0.6,0,1,0s0.7,0,1,0
			c0.4,0,3,0,3.3-0.1c0-0.2,0.1-0.3,0.1-0.5l0.3,0c-0.1,0.2-0.2,2-0.2,2.3l-0.2-0.1c0-0.1,0-0.6,0-0.8c-0.2-0.3-1.9-0.5-2.5-0.5
			c0,0.2-0.1,2.3-0.1,2.9v0.2c0.8,0,1.5,0,2.3-0.2c0.1-0.2,0.1-0.3,0.1-0.5l0.2,0c0,0.2-0.2,1.7-0.3,2.1l-0.2-0.1c0-0.2,0-0.5,0-0.7
			c-0.7-0.2-1.4-0.3-2.2-0.2v0.2c0,0.7,0,3.1,0.1,3.4c0.9,0.1,1.8-0.1,2.7-0.4c0.1-0.4,0.2-0.7,0.2-1l0.3-0.1
			c-0.1,0.3-0.3,2-0.4,2.6l-0.2,0c0-0.3,0-0.5,0-0.7c-0.3-0.1-2.8-0.1-3.5-0.1c-0.4,0-1.3,0-1.7,0l0.1-0.2c0.4,0,0.8-0.1,1.1-0.2
			c0-0.2,0.1-2.2,0.1-3.5L390,3099z"/>
	</g>
	<g id="Group_1539" transform="translate(-0.211 -2455.189)">
		<g id="Group_1538">
			<path id="Path_7534" class="st1" d="M324.2,3111c0.8,0.1,1.7,0.2,2.4,0.3c0.5,0,0.7,0.1,0.7,0.4c0,0.1-0.1,0.2-0.4,0.3
				c-0.3,0.2-0.5,0.3-0.5,0.5v2.1h3.6c0.3-0.2,0.5-0.5,0.7-0.8c0.5-0.6,0.8-0.9,0.9-0.9c0.3,0,0.7,0.3,1.2,0.8
				c0.5,0.6,0.8,0.9,0.8,1c0,0.2-0.1,0.3-0.4,0.3h-2.9c-0.4,1.7-1.1,3.3-1.9,4.8c-0.4,0.9-1,1.7-1.6,2.4c0.2,0.2,0.4,0.3,0.7,0.4
				c1.9,1.1,3.9,1.8,6.1,2.1l-0.1,0.4c-0.5,0.2-1,0.6-1.1,1.2c-0.1,0.5-0.2,0.7-0.3,0.7c-1-0.1-2-0.5-2.9-1
				c-1.3-0.6-2.5-1.5-3.6-2.5c-0.8,0.7-1.7,1.2-2.7,1.7c-1.7,0.9-3.5,1.5-5.4,1.9l-0.1-0.4c1.6-0.6,3.1-1.4,4.6-2.3
				c0.9-0.6,1.8-1.3,2.5-2.1c-0.6-0.8-1.2-1.7-1.6-2.7c-0.7-1.5-1.2-3.1-1.5-4.7h-1.2c-0.8,0-1.6,0-2.4,0.1l-0.3-0.8
				c1,0.1,2,0.2,3,0.2h4v-1.9C324.4,3112.1,324.3,3111.6,324.2,3111z M321.8,3115.1c0.6,1.7,1.5,3.4,2.6,4.9
				c0.3,0.5,0.7,0.9,1.1,1.3c0.5-0.7,0.8-1.4,1.1-2.1c0.6-1.3,1.1-2.7,1.5-4.1L321.8,3115.1z"/>
			<path id="Path_7535" class="st1" d="M341.6,3110.9l1.7,0.5c0.6,0.2,0.9,0.3,0.9,0.5c0,0.2-0.2,0.3-0.5,0.4l-0.1,0
				c0.7,0.2,1.4,0.4,2.1,0.6c1.2,0.4,1.8,0.9,1.8,1.5c0,0.3-0.1,0.5-0.3,0.7c-0.2,0.2-0.4,0.4-0.7,0.4c-0.3,0-0.7-0.2-0.9-0.5
				c-0.7-0.9-1.6-1.7-2.6-2.3c-0.6,0.8-1.2,1.6-2,2.2l-0.1,0.1c0.5,0,1.2,0.1,2,0.1c0.2-0.2,0.3-0.3,0.4-0.5
				c0.2-0.2,0.4-0.4,0.6-0.6c0.2,0,0.5,0.2,0.8,0.6c0.4,0.4,0.6,0.6,0.6,0.7c0,0.2-0.1,0.3-0.3,0.3h-2.2c-1,0-1.8,0-2.2,0.1
				l-0.1-0.3c-0.4,0.3-0.8,0.6-1.3,0.9c0.6,0.2,1.2,0.4,1.7,0.7h2.8c0.2-0.3,0.5-0.5,0.7-0.8c0.1-0.2,0.3-0.3,0.5-0.3
				c0.4,0.1,0.7,0.3,1,0.5c0.6,0.4,0.9,0.7,0.9,0.8c0,0.2-0.1,0.3-0.4,0.5c-0.2,0.1-0.3,0.3-0.3,0.5v1.1c0,0.5,0,1.2,0.1,2
				c0,0.2-0.3,0.4-0.8,0.5c-0.2,0-0.4,0-0.6,0.1c-0.2,0-0.4-0.1-0.5-0.4c0,0,0-0.1,0-0.1v-0.1h-3.9c0,0.3-0.1,0.7-0.1,1
				c0.5,0.2,1,0.3,1.5,0.6h2.2c0.2-0.2,0.4-0.5,0.7-0.7c0.1-0.1,0.3-0.2,0.5-0.2c0.3,0.1,0.6,0.2,0.9,0.4c0.6,0.4,0.8,0.6,0.8,0.8
				c0,0.2-0.1,0.4-0.3,0.5c-0.1,0.1-0.2,0.3-0.2,0.5v0.6c0,0.5,0,1.2,0.1,2.1c0,0.2-0.3,0.4-0.9,0.5c-0.2,0-0.4,0-0.5,0.1
				c-0.2,0-0.5-0.1-0.5-0.4c0,0,0-0.1,0-0.1v-0.6h-3.1v0.5c0,0.2-0.3,0.4-0.8,0.5c-0.2,0-0.4,0-0.5,0.1c-0.3,0-0.5-0.2-0.6-0.4
				c0,0,0-0.1,0-0.1c0-0.6,0.1-1.1,0.1-1.7v-0.7c-0.1,0.2-0.3,0.5-0.4,0.7c-0.5,0.7-1.2,1.4-1.9,2l-0.3-0.1c0.6-0.9,1-2,1.3-3
				c0.3-1.7,0.5-3.5,0.4-5.3c0-0.8,0-1.5-0.1-2c-0.4,0.2-0.7,0.4-1.1,0.6l-0.2-0.3c0.9-0.8,1.6-1.7,2.3-2.6
				C340.5,3113.2,341.1,3112.1,341.6,3110.9z M340.6,3119.3c0,0.5,0,1-0.1,1.4h3.8v-1.4H340.6z M340.7,3117.3v1.5h3.7v-1.5H340.7z
				 M341.5,3125.6h3.1v-2.4h-3.1V3125.6z M347.5,3112.5c0.6,0,1.2,0.1,2.1,0.3c0.6,0.1,0.9,0.2,0.9,0.3c0,0.2-0.2,0.4-0.5,0.5
				c-0.2,0-0.3,0.2-0.3,0.4v8.7c0,0.2-0.3,0.4-0.9,0.5c-0.2,0-0.3,0.1-0.5,0.1c-0.4,0-0.6-0.2-0.6-0.6c0.1-1.1,0.1-2.2,0.1-3.1v-4
				C347.7,3114.7,347.6,3113.6,347.5,3112.5L347.5,3112.5z M350.6,3111.1c0.7,0.1,1.3,0.2,2,0.4c0.8,0.1,1.1,0.3,1.1,0.5
				c0,0.2-0.2,0.3-0.5,0.4c-0.3,0.1-0.5,0.2-0.5,0.4v12.6c0.1,0.6-0.2,1.2-0.7,1.6c-0.5,0.3-1,0.5-1.6,0.5c-0.2,0-0.3-0.2-0.3-0.5
				c-0.1-0.5-0.7-1.1-1.9-1.6l0.1-0.3c0.7,0.1,1.4,0.2,2.1,0.2c0.3,0,0.4-0.1,0.4-0.3v-12C350.8,3112.6,350.7,3111.9,350.6,3111.1
				L350.6,3111.1z"/>
			<path id="Path_7536" class="st1" d="M357,3112.4c1,0.1,2,0.2,3,0.2h1.5v-0.3c0-0.5,0-1-0.1-1.5c0.5,0.1,1.1,0.1,1.8,0.3
				c0.7,0.1,1,0.2,1,0.4c0,0.2-0.2,0.3-0.6,0.5c-0.2,0.1-0.4,0.2-0.4,0.5v0.2h3.2v-0.3c0-0.5,0-1-0.1-1.5c0.5,0.1,1.1,0.1,1.8,0.3
				c0.7,0.1,1,0.2,1,0.4c0,0.2-0.2,0.3-0.5,0.5c-0.2,0-0.4,0.2-0.4,0.5v0.2h2c0.2-0.2,0.4-0.4,0.5-0.6c0.4-0.5,0.6-0.8,0.7-0.8
				c0.2,0,0.5,0.2,1,0.7c0.5,0.5,0.7,0.8,0.7,0.9c0,0.2-0.1,0.3-0.3,0.3h-4.6v0.8c0,0,0,0.1,0,0.1c0.1,0,0.2,0,0.3,0.1
				c0.7,0.1,1,0.3,1,0.4c0,0.1-0.1,0.2-0.3,0.3s-0.3,0.2-0.3,0.3c0,0.3,0,0.6-0.1,0.8h1c0.1-0.2,0.3-0.3,0.4-0.5
				c0.1-0.2,0.3-0.3,0.5-0.3c0.4,0.1,0.7,0.3,0.9,0.5c0.4,0.3,0.6,0.6,0.6,0.7c0,0.1-0.2,0.3-0.5,0.5c-0.2,0.2-0.3,0.4-0.3,0.4
				c0,0.8,0,1.5,0.1,2.3c0.1,0.3,0.2,0.5,0.3,0.5c0.3-0.7,0.5-1.4,0.6-2.1l0.3,0.1c-0.1,1.2-0.1,1.9-0.1,2.1c0,0.3,0.1,0.7,0.2,1
				c0.1,0.2,0.1,0.4,0.2,0.6c0,0.1-0.1,0.3-0.2,0.3c-0.1,0.1-0.2,0.1-0.3,0.2c-0.5,0-0.9-0.1-1.3-0.4c-0.4-0.3-0.7-0.7-0.9-1.2
				c-0.3-1.4-0.5-2.8-0.4-4.3h-1.2c-0.1,0.6-0.2,1.2-0.3,1.8c0.3,0.2,0.5,0.4,0.7,0.6c0.2,0.2,0.3,0.5,0.3,0.8
				c0,0.2-0.1,0.4-0.2,0.5c-0.1,0.2-0.3,0.3-0.5,0.3c-0.1,0-0.4-0.3-0.8-0.9c-0.2,0.5-0.5,0.9-0.9,1.2c-0.6,0.5-1.2,1-1.9,1.2
				l-0.1-0.3c0.5-0.4,0.9-0.9,1.2-1.5c0.3-0.6,0.6-1.2,0.7-1.9c-0.3-0.3-0.7-0.6-1.1-0.8l0.1-0.2c0.4,0.1,0.8,0.2,1.1,0.3
				c0.1-0.4,0.1-0.8,0.1-1.2c-0.7,0-1.1,0-1.3,0.1l-0.3-0.7c0.5,0.1,1.1,0.1,1.6,0.1v-0.2c0-0.5,0-0.9,0-1.3c-0.1,0-0.1,0-0.2,0
				c-0.4,0-0.6-0.1-0.6-0.4c0-0.2,0.1-0.5,0.1-0.7v-0.2h-3.2v0.6c0,0.2-0.3,0.3-0.8,0.4c0.1,0,0.2,0,0.3,0c0.4,0,0.6,0.1,0.6,0.3
				c0,0.1-0.1,0.2-0.4,0.3c-0.3,0.1-0.4,0.3-0.4,0.4v0.1h0.6c0.1-0.1,0.3-0.3,0.4-0.4c0.3-0.3,0.4-0.4,0.5-0.4
				c0.1,0,0.3,0.2,0.6,0.5c0.2,0.2,0.3,0.4,0.4,0.6c0,0.2-0.1,0.3-0.2,0.3h-2.3v0.9h1.5c0.1-0.1,0.2-0.2,0.4-0.4
				c0.1-0.2,0.3-0.3,0.5-0.4c0.1,0,0.3,0.1,0.6,0.4c0.3,0.3,0.4,0.5,0.4,0.6c0,0.2,0,0.3-0.1,0.3h-0.5c0,0.3,0,0.5,0.1,0.5
				c0.1,0.1,0.2,0.2,0.3,0.2c0.2,0.1,0.3,0.1,0.3,0.2c0,0.2-0.1,0.3-0.2,0.4c-0.2,0.1-0.5,0.2-0.7,0.2c-0.2,0-0.4,0.1-0.5,0.1
				c0.1,0.1,0.3,0.2,0.4,0.4c0.3,0.3,0.5,0.5,0.5,0.6c0,0.2-0.1,0.3-0.2,0.3h-2.7v0.6c1.1-0.1,2.2-0.2,3.2-0.3l0.1,0.2
				c-2.1,0.8-4.2,1.4-6.4,1.7c-0.2,0-0.4,0.1-0.4,0.1c0,0.1,0,0.1-0.1,0.2c0,0.1-0.1,0.2-0.2,0.2c-0.2,0-0.4-0.3-0.7-1
				c-0.1-0.2-0.2-0.5-0.4-0.9c1.1,0,2.1-0.1,3.1-0.1v-0.7h-0.2c-1,0-1.8,0-2.2,0.1l-0.3-0.7c0.8,0.1,1.6,0.2,2.5,0.1h0.2
				c0-0.4,0-0.9-0.1-1.3c0.5,0,0.9,0.1,1.3,0.2c-0.1-0.2-0.1-0.4-0.1-0.6v-0.6h-0.6c-0.1,0.3-0.3,0.5-0.5,0.7
				c-0.2,0.3-0.5,0.5-0.7,0.7c-0.3,0.2-0.7,0.3-1,0.4c-0.6,0.2-1.1,0.3-1.7,0.4l-0.2-0.2c0.4-0.1,0.7-0.3,1.1-0.4
				c0.2-0.1,0.5-0.3,0.6-0.5c0.2-0.2,0.3-0.4,0.4-0.6c0.1-0.2,0.2-0.3,0.3-0.5c-0.7,0-1.3,0-2,0.1l-0.3-0.7c0.8,0.1,1.6,0.2,2.5,0.1
				h1.1v-0.9h-0.3c-0.7,0-1.5,0-2.2,0.1l-0.3-0.7c0.8,0.1,1.6,0.2,2.5,0.1h0.3c0-0.5,0-0.9-0.1-1.4c0.3,0,0.5,0.1,0.7,0.1
				c0,0,0-0.1,0-0.1c0-0.2,0.1-0.5,0.1-0.7v-0.1h-1.8c-0.8,0-1.6,0-2.4,0.1L357,3112.4z M357.1,3123.7c0.8,0.1,1.6,0.1,2.5,0.1h10.8
				c0.2-0.2,0.4-0.4,0.5-0.6c0.4-0.5,0.6-0.8,0.7-0.8c0.2,0,0.5,0.2,1,0.7c0.5,0.5,0.7,0.8,0.7,0.9c0,0.1-0.1,0.3-0.2,0.3
				c0,0-0.1,0-0.1,0h-4.3c0.5,0.1,0.9,0.3,1.4,0.5c0.5,0.2,0.9,0.5,1.2,0.8c0.2,0.2,0.3,0.5,0.4,0.8c0,0.2-0.1,0.5-0.3,0.6
				c-0.1,0.2-0.3,0.3-0.6,0.4c-0.2,0-0.5-0.4-1.1-1.1c-0.1-0.2-0.3-0.3-0.4-0.5c-3.1,0.6-6.2,1-9.4,1.2c-0.1,0-0.1,0.1-0.1,0.3
				c0,0.2-0.1,0.3-0.2,0.3c-0.2,0-0.4-0.3-0.6-0.8c-0.1-0.3-0.3-0.7-0.5-1.3c1.2,0,2.3,0,3.5,0c0.1-0.1,0.1-0.2,0.1-0.4
				c0.1-0.3,0.2-0.6,0.2-0.8h-2.8c-1,0-1.7,0-2.2,0.1L357.1,3123.7z M361.1,3122.1c0.8,0.1,1.7,0.1,2.5,0.1h3.8
				c0.2-0.2,0.4-0.4,0.5-0.6c0.4-0.5,0.6-0.7,0.6-0.7c0.2,0,0.5,0.2,0.9,0.7c0.4,0.5,0.6,0.7,0.6,0.8c0,0.2-0.1,0.3-0.3,0.3h-6.2
				c-1,0-1.8,0-2.2,0.1L361.1,3122.1z M363.3,3118.7c0,0.1-0.1,0.2-0.4,0.3c-0.3,0.1-0.4,0.3-0.4,0.4v0.1h0.9
				c0.1-0.1,0.3-0.3,0.4-0.4c0.1-0.2,0.3-0.3,0.3-0.4H363.3z M368.9,3125.3c-0.4-0.3-0.8-0.7-1.3-0.9l0-0.1h-3.2
				c-0.2,0.3-0.4,0.5-0.6,0.7c-0.2,0.2-0.4,0.3-0.6,0.4C365.1,3125.4,367,3125.4,368.9,3125.3L368.9,3125.3z M363.5,3117.2v0.2
				c0,0.1,0,0.3,0.1,0.4c0.2,0,0.4,0.1,0.6,0.1c0.1,0,0.3,0,0.4-0.1c0.1,0,0.2-0.1,0.3-0.4l0.1-0.2L363.5,3117.2z"/>
			<path id="Path_7537" class="st1" d="M377.4,3114c0.8,0.1,1.6,0.2,2.4,0.1h0.6v-0.6c0-0.9-0.1-1.8-0.2-2.7c0.5,0,1.2,0.1,2,0.3
				c0.6,0.1,1,0.2,1,0.4c0,0.2-0.2,0.3-0.5,0.5c-0.2,0-0.4,0.2-0.4,0.5v1.7h0.2c0.2-0.2,0.3-0.3,0.4-0.5c0.3-0.4,0.5-0.6,0.6-0.6
				c0.2,0,0.5,0.2,0.9,0.6c0.4,0.4,0.6,0.7,0.6,0.8c0,0.2-0.1,0.3-0.3,0.3h-2.5v2.5h0.3c0,0,0.2-0.2,0.5-0.7
				c0.4-0.5,0.6-0.8,0.7-0.8c0.2,0,0.6,0.2,1,0.7c0.5,0.5,0.7,0.8,0.7,0.9c0,0.2-0.1,0.3-0.3,0.3h-2.7v3.2h0.1c0,0,0.2-0.2,0.4-0.5
				c0.4-0.5,0.6-0.7,0.7-0.7c0.4,0.2,0.8,0.5,1.1,0.8c0.4,0.3,0.5,0.5,0.5,0.6c0,0.2-0.1,0.3-0.3,0.3h-2.6v3.2l0.2,0
				c1.7,0.3,3.4,0.5,5.1,0.5c1.8,0,3.6-0.2,5.3-0.7l0.1,0.3c-0.6,0.3-1,0.9-1.2,1.5c-0.1,0.4-0.2,0.6-0.4,0.6c-3,0-5.3-0.1-7.1-0.2
				c-1.1-0.1-2.2-0.4-3.2-0.9c-0.7-0.4-1.3-0.9-1.7-1.6c-0.3-0.4-0.5-0.8-0.7-1.3c-0.3,1.7-1,3.2-2.2,4.4l-0.1-0.1
				c0.2-0.9,0.4-1.7,0.5-2.4c0.1-0.6,0.2-1.3,0.2-2.1c0.1-1,0.1-2.2,0.1-3.6c0.7,0.2,1.3,0.3,1.9,0.4c0.4,0.1,0.7,0.3,0.7,0.4
				s-0.1,0.3-0.4,0.4s-0.4,0.1-0.4,0.2c-0.1,0.6-0.1,1.2-0.2,1.6c0.3,0.6,0.7,1.2,1.3,1.7c0.1,0.1,0.1,0.1,0.2,0.2v-6.3h-1.4
				c-1,0-1.7,0-2.2,0.1l-0.3-0.7c0.8,0.1,1.6,0.2,2.5,0.1h1.1v-2.5h-0.6c-1,0-1.7,0-2.2,0.1L377.4,3114z M390.7,3111.4
				c0.4,0.1,0.7,0.3,1,0.5c0.6,0.4,0.9,0.7,0.9,0.8c0,0.2-0.1,0.3-0.4,0.5c-0.2,0.1-0.3,0.3-0.3,0.5v2.2c0,0.6,0,1.3,0.1,2.2
				c0,0.2-0.3,0.4-0.9,0.5c-0.2,0-0.4,0-0.6,0.1c-0.3,0-0.5-0.2-0.5-0.5v-0.3h-2.4v3.2c0,0.7,0.1,1,0.2,1.1c0.6,0.2,1.2,0.2,1.8,0.2
				l0.9-0.1c0.3,0,0.5-0.2,0.6-0.6c0.2-0.8,0.4-1.6,0.5-2.4l0.4,0.1c0,0.7,0,1.3,0.1,2c0,0.3,0.2,0.7,0.5,0.9
				c0.2,0.2,0.3,0.3,0.3,0.4c0,0.4-0.2,0.7-0.5,0.9c-0.2,0.1-0.4,0.2-0.6,0.3c-0.8,0.1-1.5,0.2-2.3,0.2c-1,0-2,0-2.9-0.2
				c-0.3-0.1-0.6-0.4-0.7-0.7c-0.1-0.4-0.2-0.8-0.1-1.2v-7.9c0-0.7,0-1.4-0.1-2.2c0.7,0.2,1.4,0.4,2.1,0.7h1.7
				c0.2-0.3,0.5-0.6,0.7-0.9C390.4,3111.5,390.5,3111.4,390.7,3111.4L390.7,3111.4z M387.7,3113.1v4.3h2.4v-4.3H387.7z"/>
			<path id="Path_7538" class="st1" d="M396.9,3113.7c0.8,0.1,1.6,0.2,2.5,0.1h4.5c0-0.9-0.1-1.8-0.2-2.8c0.6,0.1,1.3,0.2,2.2,0.3
				c0.6,0.1,0.9,0.2,0.9,0.4c0,0.2-0.2,0.3-0.6,0.5c-0.3,0.1-0.4,0.2-0.4,0.4v1.2h3.7c0.2-0.2,0.5-0.5,0.7-0.8
				c0.5-0.6,0.7-0.9,0.8-0.9c0.3,0,0.7,0.3,1.2,0.8c0.5,0.6,0.8,0.9,0.8,1c0,0.2-0.1,0.3-0.4,0.3h-6.8v4c0.3,0.5,0.7,0.9,1,1.3
				c0.4-0.6,0.8-1.2,1.1-1.8c0.4-0.8,0.6-1.7,0.8-2.6c0.6,0.2,1.2,0.3,1.7,0.5c0.5,0.2,0.8,0.4,0.8,0.5c0,0.2-0.1,0.3-0.4,0.3
				s-0.5,0.1-0.5,0.2c-0.1,0.3-0.3,0.5-0.4,0.7c0.6,0.2,1.1,0.5,1.6,0.9c0.4,0.4,0.6,0.9,0.6,1.4c0,0.3-0.2,0.6-0.4,0.8
				c-0.2,0.2-0.4,0.3-0.7,0.3c-0.3,0-0.5-0.3-0.7-0.9c-0.2-0.6-0.5-1.2-0.9-1.8c-0.2,0.2-0.4,0.4-0.6,0.6c-0.5,0.5-1.1,1-1.7,1.4
				c0.5,0.6,1.1,1.1,1.7,1.6c1.3,0.9,2.7,1.6,4.2,2l-0.1,0.4c-0.5,0.2-0.9,0.6-1.1,1.1c-0.1,0.4-0.3,0.6-0.4,0.6
				c-0.7-0.3-1.3-0.7-1.8-1.2c-1.1-0.9-2-1.9-2.8-3c-0.4-0.6-0.8-1.2-1.1-1.8v3.8c0,1.1,0,2.1,0.1,3.2c0,0.2-0.3,0.4-0.9,0.5
				c-0.2,0-0.4,0-0.6,0.1c-0.4,0-0.6-0.2-0.6-0.6c0.1-1.2,0.2-2.2,0.2-3.2v-2.1c-2,1.9-4.3,3.5-6.9,4.5l-0.3-0.1
				c2.1-1.5,4-3.3,5.7-5.3c-0.1,0-0.2,0.1-0.4,0.1c-0.2,0-0.4-0.1-0.5-0.2c-0.2-0.2-0.3-0.5-0.4-0.8c-0.1-0.5-0.3-0.9-0.5-1.3
				c-0.2,0.4-0.4,0.7-0.7,1c-0.7,0.9-1.5,1.7-2.3,2.4l-0.3-0.3c0.6-0.9,1.2-2,1.6-3c0.4-1.1,0.8-2.3,1-3.5c0.6,0.2,1.2,0.3,1.7,0.5
				c0.5,0.2,0.8,0.4,0.8,0.6c0,0.2-0.1,0.3-0.4,0.3c-0.3,0-0.4,0.1-0.5,0.2c-0.1,0.4-0.3,0.8-0.5,1.1c0.4,0.2,0.9,0.4,1.3,0.7
				c0.6,0.4,0.9,0.8,0.9,1.1c0,0.1,0,0.2,0,0.2c0.3-0.4,0.5-0.7,0.7-1.1v-4.2h-4.5c-1,0-1.8,0-2.2,0.1L396.9,3113.7z"/>
		</g>
	</g>
	<g id="Group_1547" transform="translate(-1.287 -2455.189)">
		<g id="Group_1546">
			<path id="Path_7552" class="st0" d="M296.9,3093.3h-22.4v4.9l3.7,3c0.2,0.2,0.4,0.5,0.4,0.8v8.7c0,0.6-0.4,1-1,1c0,0,0,0,0,0
				h-8.1c-0.6,0-1-0.4-1-1c0,0,0,0,0,0v-8.7c0-0.3,0.1-0.6,0.4-0.8l3.7-3v-4.9h-8.1v20.4c0,4.5,3.6,8.1,8.1,8.1c0,0,0,0,0,0h12.2
				c4.5,0,8.1-3.6,8.1-8.1c0,0,0,0,0,0v-6.1h4.1c2.2,0,4.1-1.8,4.1-4.1c0,0,0,0,0,0v-6.1C301,3095.2,299.2,3093.3,296.9,3093.3
				C297,3093.3,296.9,3093.3,296.9,3093.3z M296.9,3103.5h-4.1v-6.1h4.1V3103.5z"/>
			<rect id="Rectangle_136" x="264.3" y="3125.9" class="st0" width="32.6" height="4.1"/>
		</g>
	</g>
</g>
</svg>
