<?xml version="1.0" encoding="utf-8"?>
<!-- Generator: Adobe Illustrator 24.0.3, SVG Export Plug-In . SVG Version: 6.00 Build 0)  -->
<svg version="1.1" id="圖層_1" xmlns="http://www.w3.org/2000/svg" xmlns:xlink="http://www.w3.org/1999/xlink" x="0px" y="0px"
	 viewBox="0 0 302.1 195.4" style="enable-background:new 0 0 302.1 195.4;" xml:space="preserve">
<style type="text/css">
	.st0{fill:#B78E66;}
	.st1{enable-background:new    ;}
	.st2{fill:#FFFFFF;}
	.st3{fill:#FCFCFC;}
</style>
<g id="section2_title" transform="translate(-236.972 -247)">
	<rect id="Rectangle_132" x="257" y="441.6" class="st0" width="88.1" height="0.8"/>
	<rect id="Rectangle_133" x="237" y="380.3" class="st0" width="302.1" height="56.8"/>
	<g class="st1">
		<path class="st2" d="M259.4,370.4h14.8v2.5h-12.1v6.2h11.2v2.4h-11.2v6.9h12.3v2.4h-15V370.4z"/>
		<path class="st2" d="M281,370.4h3.3l10.2,16.5v-16.5h2.6v20.4H294l-10.3-16.5v16.5H281V370.4z"/>
		<path class="st2" d="M306,370.4l5.9,17.4l5.8-17.4h3.1l-7.4,20.4h-2.9l-7.4-20.4H306z"/>
		<path class="st2" d="M326.8,370.4h2.8v20.4h-2.8V370.4z"/>
		<path class="st2" d="M337.3,370.4h9.3c1.5,0,2.8,0.2,3.8,0.7c1.9,0.9,2.8,2.5,2.8,4.8c0,1.2-0.3,2.2-0.8,3
			c-0.5,0.8-1.2,1.4-2.1,1.9c0.8,0.3,1.4,0.8,1.8,1.3c0.4,0.5,0.6,1.4,0.7,2.6l0.1,2.7c0,0.8,0.1,1.4,0.2,1.7
			c0.2,0.6,0.5,1.1,0.9,1.2v0.5h-3.4c-0.1-0.2-0.2-0.4-0.2-0.7c-0.1-0.3-0.1-0.8-0.1-1.6l-0.2-3.4c-0.1-1.3-0.5-2.2-1.4-2.7
			c-0.5-0.3-1.3-0.4-2.4-0.4h-6.1v8.8h-2.8V370.4z M346.3,379.7c1.3,0,2.3-0.3,3-0.8c0.7-0.5,1.1-1.5,1.1-2.8c0-1.5-0.5-2.4-1.5-3
			c-0.5-0.3-1.3-0.4-2.2-0.4h-6.6v7H346.3z"/>
		<path class="st2" d="M377.2,373.3c1.4,1.8,2,4.1,2,6.9c0,3-0.8,5.6-2.3,7.6c-1.8,2.4-4.4,3.6-7.8,3.6c-3.1,0-5.6-1-7.4-3.1
			c-1.6-2-2.4-4.5-2.4-7.6c0-2.8,0.7-5.1,2.1-7.1c1.8-2.5,4.4-3.8,7.8-3.8C372.8,369.8,375.4,371,377.2,373.3z M374.7,386.3
			c1.1-1.7,1.6-3.8,1.6-6c0-2.4-0.6-4.3-1.9-5.8c-1.3-1.5-3-2.2-5.1-2.2c-2.1,0-3.8,0.7-5.2,2.2s-2,3.6-2,6.4c0,2.3,0.6,4.2,1.7,5.7
			c1.1,1.6,3,2.3,5.6,2.3C371.9,388.9,373.6,388.1,374.7,386.3z"/>
		<path class="st2" d="M385.3,370.4h3.3l10.2,16.5v-16.5h2.6v20.4h-3.1L388,374.3v16.5h-2.6V370.4z"/>
		<path class="st2" d="M408.7,370.4h4l5.9,17.3l5.8-17.3h3.9v20.4h-2.6v-12c0-0.4,0-1.1,0-2.1c0-1,0-2,0-3.1l-5.8,17.2h-2.7
			l-5.9-17.2v0.6c0,0.5,0,1.3,0,2.3c0,1,0,1.8,0,2.3v12h-2.6V370.4z"/>
		<path class="st2" d="M435.6,370.4h14.8v2.5h-12.1v6.2h11.2v2.4h-11.2v6.9h12.3v2.4h-15V370.4z"/>
		<path class="st2" d="M457.1,370.4h3.3l10.2,16.5v-16.5h2.6v20.4h-3.1l-10.3-16.5v16.5h-2.6V370.4z"/>
		<path class="st2" d="M495.3,370.4v2.4h-6.9v18h-2.8v-18h-6.9v-2.4H495.3z"/>
	</g>
	<g class="st1">
		<path class="st2" d="M274,404.5v2.4h-6.9v18h-2.8v-18h-6.9v-2.4H274z"/>
		<path class="st2" d="M279.7,404.5h9.3c1.5,0,2.8,0.2,3.8,0.7c1.9,0.9,2.8,2.5,2.8,4.8c0,1.2-0.3,2.2-0.8,3
			c-0.5,0.8-1.2,1.4-2.1,1.9c0.8,0.3,1.4,0.8,1.8,1.3c0.4,0.5,0.6,1.4,0.7,2.6l0.1,2.7c0,0.8,0.1,1.4,0.2,1.7
			c0.2,0.6,0.5,1.1,0.9,1.2v0.5H293c-0.1-0.2-0.2-0.4-0.2-0.7c-0.1-0.3-0.1-0.8-0.1-1.6l-0.2-3.4c-0.1-1.3-0.5-2.2-1.4-2.7
			c-0.5-0.3-1.3-0.4-2.4-0.4h-6.1v8.8h-2.8V404.5z M288.7,413.9c1.3,0,2.3-0.3,3-0.8c0.7-0.5,1.1-1.5,1.1-2.8c0-1.5-0.5-2.4-1.5-3
			c-0.5-0.3-1.3-0.4-2.2-0.4h-6.6v7H288.7z"/>
		<path class="st2" d="M308.7,404.5h3.1l7.4,20.4h-3l-2.1-6.1h-8.1l-2.2,6.1H301L308.7,404.5z M313.3,416.6l-3.1-9l-3.3,9H313.3z"/>
		<path class="st2" d="M324.9,404.5H339v2.5h-11.4v6.2h10v2.4h-10v9.3h-2.8V404.5z"/>
		<path class="st2" d="M345.1,404.5h14.2v2.5h-11.4v6.2h10v2.4h-10v9.3h-2.8V404.5z"/>
		<path class="st2" d="M365.7,404.5h2.8v20.4h-2.8V404.5z"/>
		<path class="st2" d="M390.3,406c1.4,1.4,2.2,2.9,2.3,4.6h-2.7c-0.3-1.3-0.9-2.4-1.8-3.1c-0.9-0.8-2.2-1.2-3.8-1.2
			c-2,0-3.6,0.7-4.8,2.1c-1.2,1.4-1.8,3.6-1.8,6.5c0,2.4,0.5,4.3,1.6,5.8c1.1,1.5,2.7,2.2,4.9,2.2c2,0,3.5-0.8,4.6-2.3
			c0.6-0.8,1-1.9,1.2-3.3h2.7c-0.2,2.1-1,4-2.4,5.4c-1.6,1.8-3.8,2.6-6.5,2.6c-2.3,0-4.3-0.7-5.9-2.2c-2.1-1.9-3.1-4.8-3.1-8.8
			c0-3,0.8-5.5,2.4-7.4c1.7-2.1,4.1-3.1,7-3.1C386.9,404,388.8,404.7,390.3,406z"/>
	</g>
	<g class="st1">
		<path class="st0" d="M259.1,302.5c3.2,0.4,6.1,0.6,8.9,0.6h4.2v-0.2c0-1.8-0.1-3.3-0.4-4.6c1.7,0.2,3.6,0.5,6,0.8
			c2.2,0.2,3.3,0.6,3.3,1.1c0,0.6-0.6,1.1-1.8,1.5c-0.8,0.3-1.2,0.8-1.2,1.5h11.2c0-1.8-0.2-3.3-0.6-4.6c1.6,0.2,3.5,0.4,5.7,0.8
			c2.1,0.2,3.2,0.6,3.2,1.1c0,0.6-0.5,1-1.5,1.4c-0.7,0.2-1,0.7-1,1.4h6.3c0.1-0.1,0.5-0.6,1.3-1.6c1.1-1.2,1.7-1.8,1.8-1.8
			c0.5,0,1.4,0.6,2.5,1.8c1.2,1.2,1.7,2,1.7,2.2c0,0.6-0.3,0.9-0.8,0.9h-12.9v1.8c0,0.7-0.9,1.2-2.6,1.5c-0.8,0.1-1.3,0.2-1.6,0.2
			c-1.2,0-1.7-0.3-1.7-1c0.1-1,0.2-1.7,0.2-2.1v-0.4H278v1.8c0,0.7-0.9,1.2-2.7,1.5c-0.8,0.1-1.4,0.2-1.7,0.2c-1.1,0-1.6-0.3-1.6-1
			c0.1-1.1,0.2-1.8,0.2-2.3v-0.2h-5.1c-2.8,0-5.2,0.1-7.2,0.4L259.1,302.5z M262.2,307.5c2.2,0.5,4.2,1.2,6.1,2.1h7.4
			c0.6-0.6,1-1.2,1.4-1.6c0.4-0.4,0.7-0.5,1.1-0.5c0.6,0,1.5,0.5,2.8,1.4c1.5,1,2.3,1.7,2.3,2.2c0,0.3-0.2,0.6-0.7,0.9
			c-0.5,0.3-0.7,0.6-0.8,0.9v5.7c0,0.6-0.8,1-2.4,1.3c-0.8,0.1-1.3,0.2-1.6,0.2c-0.7,0-1.1-0.3-1.2-0.9H268v27
			c0,0.6-0.8,1.1-2.5,1.4c-0.7,0.1-1.3,0.2-1.6,0.2c-1.1,0-1.7-0.5-1.7-1.5c0.3-3.5,0.5-6.7,0.5-9.4v-20.7
			C262.7,313.8,262.5,310.9,262.2,307.5z M268,313.6h8.6v-2.5H268V313.6z M268,317.9h8.6v-2.8H268V317.9z M285.4,307.1
			c2.1,0.5,4.3,1.3,6.5,2.3h7c0.5-0.5,0.9-0.9,1.1-1.2c1-0.9,1.7-1.3,2-1.3c0.5,0,1.6,0.6,3.3,1.8c1.6,1.3,2.4,2.1,2.4,2.6
			c0,0.4-0.4,0.8-1.3,1.4c-1,0.7-1.5,1.3-1.5,1.9v28.5c0,1.7-0.9,2.9-2.7,3.7c-1.4,0.7-2.6,1.1-3.6,1.1c-0.4,0-0.8-0.7-1.2-2
			c-0.3-1.1-1.2-2.1-2.8-2.9c-0.1,0.5-0.4,0.9-0.8,1.2c-0.4,0.5-0.9,0.7-1.6,0.7c-1.1,0-2-0.7-2.8-2.1c-0.7-1.4-1.8-2.7-3.3-4v6.2
			c0,0.5-0.7,0.9-2,1.1c-0.6,0.1-1.1,0.1-1.3,0.1c-0.8,0-1.3-0.3-1.3-0.8v-6c-1.1,0.9-2.3,1.7-3.4,2.3c-2.9,1.6-5.8,2.8-8.8,3.6
			l-0.3-0.6c2.2-1.1,4.3-2.5,6.2-4.2c1.7-1.4,3.2-3,4.4-4.6h-3.4v0.4c0,0.5-0.7,0.9-2.1,1.1c-0.6,0.1-1.1,0.1-1.4,0.1
			c-1,0-1.5-0.4-1.5-1.2c0.2-0.8,0.3-1.6,0.3-2.5v-5.3c0-1-0.1-2.2-0.3-3.5c1.5,0.4,3.1,0.9,4.8,1.7h5.4v-2.1h-5.1
			c-3.1,0-5.3,0.1-6.5,0.2l-0.9-2.1c1.7,0.3,4.2,0.4,7.4,0.4h5.1c0-1.2-0.2-2.3-0.4-3.2c1.3,0.1,2.8,0.4,4.6,0.6
			c1.7,0.2,2.5,0.4,2.5,0.8c0,0.5-0.4,0.9-1.3,1.2c-0.4,0.1-0.6,0.3-0.7,0.5h6.2c0.1-0.1,0.5-0.5,1.2-1.3c0.9-0.9,1.4-1.4,1.5-1.4
			c0.4,0,1.1,0.5,2.1,1.5c0.9,1,1.4,1.6,1.4,1.8c0,0.6-0.2,0.9-0.7,0.9h-4.3c0.4,0.2,0.9,0.4,1.3,0.7c1.5,1,2.2,1.7,2.2,2.1
			c0,0.4-0.2,0.7-0.7,1.1c-0.4,0.4-0.6,0.8-0.6,1.2v1c0,1.3,0.1,3.2,0.2,5.5c0,0.5-0.7,0.9-2.2,1.1c-0.6,0.1-1.1,0.1-1.4,0.1
			c-0.9,0-1.3-0.4-1.3-1.2v-0.2h-5.1v0.9c3.1,0.7,5.3,1.4,6.6,2.2c1.2,0.7,1.8,1.5,2,2.4c1.5,0.2,2.8,0.4,3.8,0.4
			c0.6,0,0.8-0.5,0.8-1.4v-21.3h-9.2c-0.5,0.3-1.1,0.6-2,0.7c-0.7,0.1-1.2,0.2-1.5,0.2c-0.9,0-1.4-0.5-1.4-1.5
			c0.1-1.6,0.2-3.2,0.2-4.8C285.6,311.5,285.5,309.2,285.4,307.1z M276.4,334.7h5.3v-6.3h-5.3V334.7z M277,329.2
			c1.5,0.4,2.5,0.8,3.1,1.1c0.8,0.5,1.2,0.9,1.2,1.2c0,0.7-0.2,1.3-0.6,1.8c-0.5,0.5-1,0.7-1.5,0.7c-0.4,0-0.7-0.1-0.8-0.2
			c-0.2-0.1-0.4-0.6-0.5-1.4c-0.1-0.9-0.5-1.9-1.2-2.8L277,329.2z M286.2,324.8v2.1h3.4c0.6-0.7,1.2-1.4,1.7-1.8
			c0.1-0.1,0.2-0.2,0.3-0.3H286.2z M286.2,328.3v4.5c0.2-0.4,0.4-0.8,0.6-1.2c0.3-0.7,0.5-1.6,0.7-2.6c1.1,0.3,2.2,0.6,3.3,0.9
			c0.2,0.1,0.3,0.1,0.5,0.2v-1.7H286.2z M286.2,334.2v0.4h5.1v-3.1c-0.5,0.1-0.7,0.2-0.8,0.4c-0.5,0.5-1.1,0.9-1.8,1.2
			C288,333.5,287.2,333.9,286.2,334.2z M290.7,317.9h8.9v-2.8h-8.9V317.9z M290.7,313.6h8.9v-2.8h-8.9V313.6z"/>
		<path class="st0" d="M334.3,299c0.6,0,1.9,0.8,3.9,2.4c0.6,0.6,1.1,1,1.4,1.4c0-1.2-0.1-2.3-0.3-3.4c2.5,0.7,5.1,1.6,7.6,2.8h7.7
			c0.8-0.9,1.5-1.8,2.2-2.5c0.5-0.6,1-0.9,1.5-0.9c0.4,0,1.4,0.5,3,1.5c1.8,1.2,2.7,2.1,2.7,2.6c0,0.5-0.4,0.9-1.1,1.4
			c-0.6,0.5-0.8,0.9-0.8,1.5v4.2c0,1.7,0.1,3.9,0.2,6.7c0,0.7-0.9,1.2-2.7,1.6c-0.8,0.1-1.4,0.2-1.7,0.2c-0.9,0-1.4-0.6-1.4-1.7
			h-10.8v0.8c0,0.7-0.9,1.2-2.6,1.5c-0.8,0.1-1.4,0.2-1.8,0.2c-1.1,0-1.7-0.6-1.7-1.7c0.1-1.9,0.2-3.8,0.2-5.6v-4.6
			c0-0.8,0-1.7-0.1-2.4c-0.3,0.1-0.6,0.2-0.9,0.3c-1.3,0.3-2,0.7-2.2,1c-2.5,4.5-4.8,8.1-7.2,10.8c2.4,2.3,4.1,4.3,5.2,6.1
			c0.7,1.2,1.3,2.5,1.7,4.1c0.4,1.5,0.6,3,0.6,4.6v0.3c0.9-1.1,1.7-2.4,2.4-3.9c1-1.7,1.8-3.5,2.4-5.5c-2.9,0-5,0.1-6.2,0.2
			l-0.9-2.1c1.7,0.2,4.2,0.4,7.4,0.4h17.5c0.1,0,0.7-0.6,1.6-1.8c1.1-1.4,1.8-2.2,2-2.2c0.6,0,1.5,0.7,2.7,2.1c1.3,1.4,2,2.2,2,2.5
			c0,0.6-0.3,0.9-0.9,0.9h-18.8c-1,1.8-2.1,3.3-3.2,4.6h13.7c0.6-0.7,1.1-1.3,1.4-1.8c0.7-0.8,1.3-1.2,1.7-1.2
			c0.7,0,1.9,0.6,3.6,1.9c1.4,1.1,2.2,2,2.2,2.5c0,0.3-0.3,0.7-1,1.2c-0.7,0.5-1,1-1.1,1.4c-0.1,2.4-0.6,5.3-1.3,8.7
			c-0.6,2.7-1.4,4.6-2.4,5.5c-0.7,0.7-1.7,1.2-3,1.6c-1.3,0.5-2.4,0.7-3.1,0.7c-0.2,0-0.5-0.6-0.8-1.7c-0.4-1.3-1.8-2.7-4.3-4.1
			l0.2-1c1.8,0.4,3,0.6,3.8,0.6c1.1,0,1.9-0.2,2.4-0.6c0.5-0.5,1-1.9,1.5-4.4c0.6-2.8,0.9-5.4,0.9-7.9h-0.5
			c-0.8,2.3-1.6,4.2-2.5,5.5c-1.1,1.8-2.4,3.4-4,4.8c-1.5,1.5-3.4,2.9-5.9,4.2c-2.6,1.4-5.8,2.7-9.4,3.9l-0.6-0.7
			c2.8-1.5,5.4-3.3,7.9-5.3c1.9-1.5,3.6-3.3,5-5.4c1.2-1.9,2.3-4.3,3.3-7.1h-2.4c-0.5,1.7-1.1,2.9-1.8,3.8c-0.7,1.3-1.7,2.5-3,3.5
			c-1.1,1.1-2.6,2.1-4.4,3.1c-2,1.1-4.4,2-7.1,2.8l-0.7-0.6c1.9-1.1,3.8-2.4,5.5-3.8c1.3-1.1,2.5-2.4,3.4-3.8c0.8-1.3,1.6-3,2.2-5
			h-0.8c-0.3,0.3-0.5,0.6-0.7,0.8c-2,1.7-3.9,3-5.9,3.8c-0.2,1.1-0.5,1.9-1.1,2.5c-0.8,1.2-1.8,2-2.8,2.5c-1,0.6-1.9,0.8-2.5,0.8
			c-0.5,0-0.8-0.6-1.2-1.8c-0.3-1-1.4-2-3.3-2.8v11.6c0,0.7-0.9,1.2-2.6,1.6c-0.7,0.1-1.3,0.2-1.6,0.2c-1.2,0-1.8-0.6-1.8-1.7
			c0.3-3.8,0.4-7.1,0.4-10.1v-27.9c0-2.5-0.1-5.6-0.4-9.3c2.5,0.6,4.8,1.5,7,2.5h3.5c0.9-0.7,1.6-1.3,2.2-1.9
			C333.3,299.3,333.9,299,334.3,299z M326,303.1v29.5c1.1,0.1,2,0.2,2.8,0.2c1,0,1.8-0.2,2.2-0.5c0.5-0.5,0.7-1.3,0.7-2.4
			c0-2.6-0.3-4.8-0.8-6.5c-0.6-2.1-1.6-4.3-3-6.4c1.3-4.1,2.4-8.7,3.2-13.9H326z M345.6,308.8h10.8v-5.1h-10.8V308.8z M345.6,315.3
			h10.8v-5.1h-10.8V315.3z"/>
		<path class="st0" d="M382.1,307.9c0.9,3.2,1.4,5.9,1.4,8.1c0,2.2-0.4,3.7-1.2,4.5c-0.7,0.6-1.5,0.9-2.5,0.9
			c-0.6,0-1.1-0.2-1.5-0.6c-0.3-0.4-0.4-0.8-0.4-1.3c0-0.4,0.6-1.5,1.7-3.3c1.1-2.1,1.7-4.8,1.8-8.1L382.1,307.9z M384,298.6
			c1.5,0.1,3.4,0.4,5.7,0.7c1.6,0.2,2.4,0.5,2.4,1c0,0.5-0.4,0.9-1.3,1.3c-0.7,0.2-1,0.6-1,1.3v34.7c0,3,0.1,5.9,0.2,8.9
			c0,0.6-0.9,1.1-2.6,1.4c-0.7,0.1-1.3,0.2-1.6,0.2c-0.9,0-1.4-0.5-1.4-1.5c0.1-3.2,0.2-6.2,0.2-8.9v-30.3
			C384.6,304,384.4,301.1,384,298.6z M390.9,306.2c2,1.1,3.4,2,4.2,2.8c0.9,1.1,1.4,2.1,1.4,2.9c0,1.2-0.3,2.1-0.8,2.8
			c-0.5,0.5-1,0.9-1.5,1c1.7,0.5,3.3,1.1,5.1,1.8h20.2c0.6-0.7,1.1-1.3,1.5-1.8c0.4-0.5,0.9-0.7,1.3-0.7c0.6,0,1.5,0.5,3,1.6
			c1.7,1.1,2.5,1.9,2.5,2.4c0,0.4-0.3,0.7-0.9,1.1c-0.6,0.4-0.9,0.7-1,1v5.5c0,0.6-0.8,1.1-2.5,1.3c-0.7,0.1-1.3,0.2-1.7,0.2
			c-0.9,0-1.4-0.4-1.4-1.2v-0.3h-20.9v0.5c0,0.7-0.9,1.2-2.6,1.5c-0.7,0.1-1.2,0.2-1.6,0.2c-1.1,0-1.7-0.5-1.7-1.4
			c0.1-1,0.2-2.2,0.2-3.4v-4c0-1.2-0.1-2.5-0.4-4c-0.4,0-0.7-0.2-0.9-0.5c-0.2-0.2-0.5-1.1-0.6-2.6c-0.2-1.9-0.7-3.9-1.5-5.9
			L390.9,306.2z M393.8,329.7c2.6,0.3,5,0.4,7.2,0.4h13.5c0.8-0.7,1.3-1.2,1.6-1.4c1-0.7,1.7-1.1,2.2-1.1c0.5,0,1.6,0.8,3.4,2.3
			c1.8,1.7,2.7,2.7,2.7,3.2c0,0.5-0.7,0.8-2,0.9c-1.2,0.1-1.9,0.3-2.3,0.6c-1.3,1.8-3.2,3.5-5.6,5.1c3.1,0.9,7.5,1.6,13.1,2.1
			l-0.4,1.3c-1.4,0.4-2.4,1.4-2.9,2.8c-0.4,1.2-0.7,1.8-0.9,1.8c-1.6,0-3.7-0.5-6.5-1.4c-3.3-1-6-2.1-8-3.4c-1,0.5-2,0.9-3,1.2
			c-3.6,1.4-8.7,2.6-15.1,3.6l-0.4-1.1c4.8-1.3,9.6-3.4,14.3-6.1c0.2-0.1,0.3-0.2,0.5-0.3c-0.8-0.8-1.5-1.6-2.2-2.5
			c-1.4-1.8-2.5-3.8-3.3-6c-2.1,0-3.8,0.1-5.2,0.2L393.8,329.7z M396.8,298.8c2.4,0.7,4.8,1.5,7.2,2.5H414c0.8-0.7,1.6-1.4,2.3-2
			c0.5-0.5,1-0.7,1.5-0.7c0.4,0,1.4,0.5,3.1,1.6c1.9,1.3,2.8,2.2,2.8,2.7c0,0.5-0.4,1-1.2,1.5c-0.6,0.5-0.9,1-0.9,1.6v0.9
			c0,1.7,0.1,4,0.3,7c0,0.7-0.9,1.2-2.8,1.5c-0.8,0.1-1.4,0.2-1.8,0.2c-0.9,0-1.4-0.6-1.4-1.7h-12.7v0.8c0,0.7-0.9,1.2-2.6,1.6
			c-0.8,0.1-1.4,0.2-1.8,0.2c-1.1,0-1.7-0.6-1.7-1.7c0.2-1.9,0.3-3.7,0.3-5.6v-2.3C397.2,304,397.1,301.4,396.8,298.8z M399.3,325.2
			h3.2v-6.2h-3.2V325.2z M401.3,331.6c1.8,2,3.6,3.6,5.4,4.7c0.6,0.4,1.3,0.8,2.1,1.2c2.1-1.8,4-3.7,5.6-6H401.3z M403.1,306.7h12.7
			v-3.8h-12.7V306.7z M403.1,312.3h12.7v-4.2h-12.7V312.3z M407.9,325.2h3.4v-6.2h-3.4V325.2z M416.8,325.2h3.4v-6.2h-3.4V325.2z"/>
		<path class="st0" d="M438.2,312.5c3.3,0.9,5.7,1.8,7,2.8c1.1,0.9,1.7,2.1,1.7,3.4c0,1-0.4,2-1.3,3c-0.6,0.7-1.4,1.1-2.4,1.1
			c-0.7,0-1.4-0.8-1.9-2.4c-0.7-2.3-1.9-4.5-3.6-6.6L438.2,312.5z M452.8,310.6l1,0.2c-1.8,7.3-3.1,13-4,17.1
			c-0.8,4-1.2,6.8-1.2,8.3c0,0.9,0,1.8,0.1,2.9c0.5,2.1,0.7,3.8,0.7,5.1c0,0.9-0.2,1.5-0.6,1.8c-0.4,0.5-1.1,0.7-2.1,0.7
			c-1.3,0-2.2-0.2-2.9-0.7c-0.4-0.3-0.6-0.9-0.6-1.8c0-0.6,0.2-1.5,0.5-2.8c0.1-0.9,0.2-1.7,0.2-2.3c0-1.2-0.2-2.2-0.6-2.8
			c-0.5-0.7-1.9-1.4-4.2-2l0.2-1.3c2.4,0,3.9-0.2,4.6-0.5c0.7-0.4,1.3-1.2,1.7-2.4L452.8,310.6z M442.6,299.5c3.5,0.9,6,1.8,7.3,2.8
			c1.2,0.9,1.7,2,1.7,3.3c0,1-0.4,2-1.3,2.8c-0.6,0.7-1.4,1-2.3,1c-0.8,0-1.5-0.8-2.1-2.4c-0.7-2.3-2-4.5-3.9-6.6L442.6,299.5z
			 M480.2,304.6c-2.8,0.6-5.4,1-8,1.4v10.6h4c0.2-0.1,0.8-0.9,2-2.4c1.4-1.8,2.2-2.7,2.5-2.7c0.8,0,1.9,0.8,3.5,2.5
			c1.6,1.7,2.4,2.7,2.4,3.1c0,0.6-0.4,0.9-1.1,0.9h-13.3v10.7h3c0.8-0.9,1.5-1.7,2.3-2.4c0.5-0.6,1-0.9,1.5-0.9
			c0.5,0,1.5,0.5,3.1,1.5c1.9,1.3,2.8,2.2,2.8,2.7c0,0.5-0.4,1-1.1,1.5c-0.6,0.5-0.8,1.1-0.8,1.6v6.2c0,1.7,0.1,4.1,0.2,7.1
			c0,0.7-1,1.2-2.9,1.6c-0.9,0.1-1.5,0.2-2,0.2c-0.9,0-1.4-0.6-1.4-1.7v-2.1h-15v2.3c0,0.7-0.9,1.2-2.8,1.6
			c-0.9,0.1-1.5,0.2-1.8,0.2c-1.2,0-1.7-0.6-1.7-1.7c0.1-1.9,0.2-3.9,0.2-5.9v-6.5c0-2.8-0.1-5.5-0.4-8.1c2.6,0.7,5.2,1.7,7.9,3h2.8
			v-10.7H461c-3.1,0-5.3,0.1-6.5,0.2l-0.9-2.1c1.7,0.3,4.2,0.4,7.4,0.4h5.1v-9.8c-3.7,0.4-7.3,0.7-10.6,0.8l-0.4-1.3
			c5.8-1.1,10.1-2.2,13-3.3c3-1,6-2.5,9.2-4.5c1.7,1.3,3.1,2.3,4.2,3.1c1.6,1.1,2.4,1.9,2.4,2.4c0,0.5-0.3,0.7-0.9,0.7L480.2,304.6z
			 M461.9,342.5h15v-12.3h-15V342.5z"/>
	</g>
	<g id="Group_1723" transform="translate(-9)">
		<g class="st1">
			<path class="st3" d="M312.2,279.7h-26.1v-1.5h12.7v-8.1h-9.6v-1.6h9.6v-6.8h-8.1c-1.1,2.1-2.4,3.8-3.7,5.2l-1.3-1.1
				c2.7-2.8,4.6-6.3,5.8-10.5l1.6,0.4c-0.4,1.4-0.9,2.9-1.6,4.4h7.3v-5.9h1.6v5.9h11.4v1.6h-11.4v6.8h10v1.6h-10v8.1h11.8V279.7z"/>
			<path class="st3" d="M326,270.5c-1.6,3.9-3.6,7.2-5.8,10l-1.2-1.1c2.2-2.6,4.1-5.9,5.7-9.9L326,270.5z M325.3,266.3l-1,1.3
				c-1.6-1.6-3.4-3-5.3-4.1l1-1.3C321.9,263.3,323.7,264.7,325.3,266.3z M326,258.4l-0.9,1.3c-1.6-1.6-3.4-3-5.3-4.2l1-1.2
				C322.7,255.5,324.5,256.9,326,258.4z M345.2,264.3h-8.9v5.1h6.9v11.1h-1.6v-2.2h-12.2v2.2h-1.6v-11.1h6.9v-5.1h-8.9v-1.5h8.9
				v-5.2c-2.7,0.3-5.2,0.4-7.5,0.4l-0.7-1.5c6.4,0,11.8-0.7,16.2-2.1l0.8,1.3c-2,0.7-4.5,1.2-7.5,1.6v5.4h8.9V264.3z M341.7,276.9
				v-5.9h-12.2v5.9H341.7z"/>
			<path class="st3" d="M360.1,266.8l-1.2,1c-0.6-1-1.2-2-1.9-3v15.7h-1.6v-14.9c-1.1,3.1-2.1,5.4-2.9,6.9l-0.9-1.7
				c1.5-2.7,2.8-5.9,3.7-9.8H352v-1.5h3.5v-5.5h1.6v5.5h2.2v1.5h-2.2v1.6C358.1,264,359.2,265.4,360.1,266.8z M378.3,275.8
				c-0.2,1.7-0.5,2.9-0.9,3.8c-0.4,0.9-1,1.3-1.7,1.3c-1.3,0-2.7-1.4-4.3-4.1c-1.6,1.4-3.6,2.6-5.8,3.6l-1.1-1.2
				c2.3-0.8,4.4-2.1,6.2-3.7c-0.9-1.9-1.5-3.7-1.8-5.4h-5.5l-0.2,1.8c1.7,0.9,3.1,1.9,4.2,2.9l-0.9,1.3c-0.8-0.8-1.9-1.7-3.6-2.7
				c-0.6,2.9-1.9,5.3-3.7,7.3l-1.4-1c2.4-2.1,3.7-5.4,3.9-9.6h-2.7v-1.5h9.4c-0.6-4.8-0.9-9.6-1-14.4l1.5,0.1
				c0.1,6.5,0.5,11.3,1,14.4h3c-0.1-0.2-0.3-0.6-0.7-1.4l1.2-0.5c0.4,0.5,0.7,1.1,1.1,1.9h3.2v1.5h-7.5c0.2,1.3,0.7,2.7,1.4,4.2
				c1-1,1.8-2.2,2.6-3.6l1.2,0.7c-0.9,1.6-2,3-3.2,4.2c0.4,0.8,0.9,1.6,1.6,2.4c0.6,0.8,1.1,1.2,1.5,1.2c0.3,0,0.5-0.3,0.8-0.8
				c0.2-0.5,0.5-1.7,0.7-3.4L378.3,275.8z M367.6,266.9l-1.3,0.4c0-0.4-0.1-0.8-0.2-1.4c-2.1,0.2-4,0.4-5.5,0.6l-0.2-1.1
				c1.3-1.5,2.3-2.9,3.2-4.2l-3.1,0.5l-0.4-1.3c1.4-2.2,2.4-4.3,3.1-6.1l1.3,0.6c-0.6,1.4-1.5,3.1-2.7,5.1c1-0.1,1.9-0.2,2.9-0.5
				c0.4-0.6,0.9-1.4,1.4-2.4l1.3,0.7c-1.4,2.4-3.1,4.8-5,7c1,0,2.1-0.2,3.4-0.3c-0.1-0.7-0.3-1.4-0.6-2l1.3-0.4
				C366.9,263.4,367.3,265,367.6,266.9z M378,266.8l-1.3,0.4c0-0.3-0.2-0.8-0.3-1.4c-1.6,0.2-3.4,0.4-5.4,0.7l-0.4-1.3
				c1.3-1.5,2.3-2.8,3.1-4c-0.8,0.1-1.8,0.3-3,0.5l-0.5-1.3c1.2-2,2.2-3.9,3-5.9l1.3,0.6c-0.8,1.7-1.7,3.4-2.6,4.9
				c0.6-0.1,1.6-0.2,2.9-0.5c0.4-0.5,0.8-1.3,1.3-2.1l1.3,0.7c-1.1,1.8-2.6,4.1-4.7,6.7l3.3-0.4c-0.2-0.7-0.3-1.2-0.5-1.6l1.3-0.4
				C377.2,263.8,377.7,265.2,378,266.8z"/>
			<path class="st3" d="M399,262.1l-1.2,1c-0.3-0.6-0.7-1.2-1.1-1.8c-3.6,0.5-7.3,0.9-11.2,1.1l-0.6-1.3c1.8-1.4,3.4-3.7,4.8-6.8
				l1.6,0.4c-1.2,2.5-2.5,4.5-3.9,6.1c3.1-0.3,5.9-0.5,8.3-0.9c-0.5-0.7-1.4-1.7-2.5-2.8l1.4-0.9C396.8,258.5,398.3,260.5,399,262.1
				z M397.1,278.8c0,0.5-0.2,0.9-0.5,1.3c-0.4,0.3-0.8,0.5-1.2,0.6c-0.4,0-1.4,0.1-2.9,0.1l-0.6-1.5c0.5,0,0.9,0,1.4,0
				c1,0,1.6,0,1.9-0.1c0.3-0.1,0.4-0.2,0.4-0.5v-4.9c-2.9,1.3-5.2,2.3-7.1,2.9l-0.7-1c-0.2,1.8-0.7,3.5-1.4,5l-1.4-0.8
				c0.9-2.4,1.4-4.7,1.4-7.2v-8.1h10.7V278.8z M395.5,272v-5.9h-7.6v2.1c2.1,0.4,4.2,1,6.5,1.8l-0.7,1.3c-2.3-0.8-4.2-1.3-5.8-1.6
				v2.9c0,0.8,0,1.7-0.1,2.5C389.8,274.5,392.3,273.5,395.5,272z M411.1,275.4c-0.1,1.5-0.3,2.6-0.6,3.3c-0.3,0.7-0.7,1.1-1.1,1.4
				c-0.4,0.2-1.2,0.3-2.4,0.3l-4.5-0.1c-0.7,0-1.2-0.2-1.6-0.6s-0.6-0.9-0.6-1.5V267h1.5v4.3h8.6v1.4h-8.6v5.3
				c0,0.6,0.4,0.9,1.1,0.9c3,0,4.8,0,5.2-0.1s0.8-0.2,1-0.6s0.5-1.4,0.6-3.2L411.1,275.4z M410.8,265.7h-8.7c-0.5,0-1-0.2-1.3-0.6
				c-0.3-0.4-0.5-0.9-0.5-1.4v-9.3h1.5v3.7h8.6v1.4h-8.6v3.9c0,0.5,0.3,0.7,0.8,0.7h8.3V265.7z"/>
			<path class="st3" d="M442.8,280.5h-1.6v-1.9h-20.4v1.9h-1.6v-25.2h23.6V280.5z M441.3,277.2v-20.5h-20.4v20.5H441.3z
				 M439.7,265.3h-17.4V264h8v-1.5h-6.1v-4.2h13.8v4.2h-6.1v1.5h7.8V265.3z M438.3,275.5h-14.6v-8.9h14.6V275.5z M436.8,274.3v-6.5
				h-11.6v6.5H436.8z M436.5,261.3v-1.7h-10.8v1.7H436.5z M434.5,273h-7v-3.9h7V273z M433.1,271.8v-1.6H429v1.6H433.1z"/>
		</g>
		<g id="Group_1722" transform="translate(0.038 -1)">
			<rect id="Rectangle_134" x="266" y="255" class="st3" width="2" height="26.5"/>
			<rect id="Rectangle_135" x="462.9" y="255" class="st3" width="2" height="26.5"/>
		</g>
	</g>
</g>
</svg>
