<svg xmlns="http://www.w3.org/2000/svg" width="494.628" height="215.992" viewBox="0 0 494.628 215.992">
  <g id="section9_contact" transform="translate(-353.764 -604.793)">
    <g id="Group_1725" data-name="Group 1725">
      <g id="Group_1686" data-name="Group 1686" transform="translate(2.015 -14290.407)">
        <path id="Path_8635" data-name="Path 8635" d="M495.464,15014.019a15.352,15.352,0,0,1-.6,3.58l-1.7-.58a11.484,11.484,0,0,0,.64-3.221Zm5.34-1.261-1.62.42c-.06-.22-.12-.42-.16-.6a42.6,42.6,0,0,1-5.041.82l-.48-1.6a2.361,2.361,0,0,0,.8-.54,12.061,12.061,0,0,0,1.72-1.761c-.78.08-1.58.16-2.42.24l-.4-1.54a2.068,2.068,0,0,0,.7-.641,19.686,19.686,0,0,0,1.94-3.36l1.841.72a19.844,19.844,0,0,1-2.22,3.181c.6-.04,1.179-.1,1.759-.18.441-.641.941-1.341,1.461-2.1l1.76.68a36.824,36.824,0,0,1-4.261,5.121c.821-.119,1.641-.26,2.441-.42-.16-.46-.32-.9-.48-1.3l1.46-.481A23.615,23.615,0,0,1,500.8,15012.758Zm8.962-13.163v4.562H494.183v-4.562Zm-11.022,1.641h-2.6v1.32h2.6Zm-.58,15.644-1.7.38c-.08-1.26-.2-2.36-.321-3.319l1.581-.321C497.884,15014.618,498.024,15015.7,498.164,15016.879Zm2.741-.82-1.581.72c-.22-1.14-.46-2.14-.72-3.021l1.5-.5A21.037,21.037,0,0,1,500.9,15016.059Zm2.68,1.42H501.7v-8.08c-.361.4-.721.779-1.1,1.139l-.6-1.86a11.48,11.48,0,0,0,2.66-4.36l1.86.34a16.971,16.971,0,0,1-.7,1.66h2.161c-.181-.6-.36-1.141-.56-1.641l1.88-.3c.18.58.36,1.221.56,1.94h2.761v1.8h-2.641v1.18h2.28v1.681h-2.28v1.1h2.381v1.68h-2.381v1.2h2.981v1.841h-7.382Zm-.3-16.243h-2.62v1.32h2.62Zm.3,6.882v1.18h2.52v-1.18Zm0,3.961h2.52v-1.1h-2.52Zm0,2.88h2.52v-1.2h-2.52Zm4.221-13.723h-2.6v1.32h2.6Z" fill="#fff"/>
        <path id="Path_8636" data-name="Path 8636" d="M520.944,15000.5v-1.6h2.041v1.6h7.762v1.961h-7.762v1.24h6.341v7.9h-4.5a15.346,15.346,0,0,0,6.361,3.381l-.939,1.94a15.459,15.459,0,0,1-7.262-5.321v5.981h-2.041v-5.962c-1.28,2.081-3.6,3.861-6.981,5.382l-1.161-1.881a16.73,16.73,0,0,0,6.342-3.521h-4.581v-7.9h6.381v-1.24h-7.761v-1.961Zm0,5h-4.36v1.36h4.36Zm-4.36,4.3h4.36v-1.34h-4.36Zm10.722-4.3h-4.321v1.36h4.321Zm-4.321,4.3h4.321v-1.34h-4.321Z" fill="#fff"/>
        <path id="Path_8637" data-name="Path 8637" d="M534.243,15005.517v-.74c-.18.22-.36.439-.54.64l-1.12-1.56a25.706,25.706,0,0,0,3.4-4.821h1.381c1.28,1.28,2.46,2.58,3.58,3.94l-1.28,1.4c-.159-.2-.3-.4-.44-.58v1.721h-1.48v1.6h2.3v1.961h-2.3v5.141c.7-.18,1.4-.38,2.08-.58v1.961a61.677,61.677,0,0,1-6.4,1.521l-.5-2c.96-.12,1.9-.28,2.821-.46v-5.581h-2.281v-1.961h2.281v-1.6Zm1.28,8.241-1.58.42a36.734,36.734,0,0,0-.9-3.82l1.56-.521A39.646,39.646,0,0,1,535.523,15013.758Zm3.561-10.142a30.078,30.078,0,0,0-2.22-2.581,30.429,30.429,0,0,1-1.7,2.581Zm1.2,6.4a21.792,21.792,0,0,1-.921,3.48l-1.42-.521a20.443,20.443,0,0,0,.84-3.36Zm6.621-10.822c-.04.38-.1.74-.141,1.1h3.982v1.761h-4.261c-.06.36-.12.72-.2,1.04h3.64v9.063h1.241v1.76h-3.221a18.6,18.6,0,0,1,3.381,2.061l-1.04,1.6a16.629,16.629,0,0,0-3.7-2.48l.8-1.181h-3.56l1.221,1.08a15.03,15.03,0,0,1-3.921,2.6l-1.16-1.48a14.63,14.63,0,0,0,3.62-2.2h-3.54v-1.76h1.34v-9.062h2.86c.08-.36.14-.72.2-1.04h-3.94v-1.761h4.2c.059-.479.119-.938.159-1.38Zm1.08,6.4v-.86h-4.661v.86Zm0,2.2v-.86h-4.661v.86Zm0,2.16v-.84h-4.661v.84Zm0,2.2v-.86h-4.661v.86Z" fill="#fff"/>
        <path id="Path_8638" data-name="Path 8638" d="M560.625,15014.679c-2.261.6-4.682,1.1-7.242,1.52l-.5-2c1.42-.16,2.821-.4,4.2-.681a75.362,75.362,0,0,0,1.22-8.7l2.02.28a62.5,62.5,0,0,1-1.32,7.981c.56-.16,1.1-.3,1.621-.44Zm-4.682-12.6c-.239-.939-.479-1.82-.76-2.641l2.12-.34c.221.881.441,1.86.661,2.98h3.081v2H553v-2Zm.5,10.643-1.72.42q-.54-3.99-1.32-7.682l1.8-.6C555.664,15007.156,556.084,15009.777,556.443,15012.718Zm9.782-13.763v3.28h4.782v2.041h-4.782v3.3h4.022v9.781h-2v-1.18h-5.041v1.2h-1.981v-9.8H564.1v-8.622Zm2.021,15.283v-4.84h-5.041v4.84Z" fill="#fff"/>
        <path id="Path_8639" data-name="Path 8639" d="M580.944,15000.5v-1.6h2.041v1.6h7.762v1.961h-7.762v1.24h6.341v7.9h-4.5a15.346,15.346,0,0,0,6.361,3.381l-.939,1.94a15.459,15.459,0,0,1-7.262-5.321v5.981h-2.041v-5.962c-1.28,2.081-3.6,3.861-6.981,5.382l-1.161-1.881a16.73,16.73,0,0,0,6.342-3.521h-4.581v-7.9h6.381v-1.24h-7.761v-1.961Zm0,5h-4.36v1.36h4.36Zm-4.36,4.3h4.36v-1.34h-4.36Zm10.722-4.3h-4.321v1.36h4.321Zm-4.321,4.3h4.321v-1.34h-4.321Z" fill="#fff"/>
        <path id="Path_8640" data-name="Path 8640" d="M600.165,14999.555v4.041a9.669,9.669,0,0,0,3.34-4.661l2,.4a10.1,10.1,0,0,1-.42,1.16h4.6v1.5a12.552,12.552,0,0,1-2.62,4.121,14.19,14.19,0,0,0,4.36,2.2l-1.179,1.72c-.221-.08-.42-.139-.62-.22v7.6h-2v-.721h-4.1v.721h-1.98v-7.562c-.241.1-.441.2-.64.28l-1.261-1.7a19.971,19.971,0,0,0,4.481-2.36,11.7,11.7,0,0,1-1.42-2,15.479,15.479,0,0,1-1.481,1.321l-1.059-1.382v2.421h-1.881v2.62h1.78v1.961h-1.78v2.9c.76-.24,1.5-.5,2.2-.76v2.1a68.844,68.844,0,0,1-7.261,2.14l-.581-2.02c.3-.08.6-.141.881-.2v-6.9h1.84v6.461l.98-.26v-8.042h-2.78v-6.882Zm-1.981,1.921h-2.621v3.04h2.621Zm7.381,6a19.928,19.928,0,0,1-3.74,2.261h7.6A14.035,14.035,0,0,1,605.565,15007.477Zm2.061,7.342v-3.2h-4.1v3.2Zm-2.04-10a11.478,11.478,0,0,0,1.88-2.48H604.1l-.179.26A12.744,12.744,0,0,0,605.586,15004.816Z" fill="#fff"/>
        <path id="Path_8641" data-name="Path 8641" d="M623.085,15007.076a1.543,1.543,0,0,1,.46,1.121,1.575,1.575,0,0,1-.46,1.12,1.64,1.64,0,0,1-1.12.439,1.607,1.607,0,0,1-1.121-.439,1.56,1.56,0,0,1-.44-1.12,1.529,1.529,0,0,1,.44-1.121,1.469,1.469,0,0,1,1.121-.46A1.5,1.5,0,0,1,623.085,15007.076Z" fill="#fff"/>
        <path id="Path_8642" data-name="Path 8642" d="M640.944,15000.5v-1.6h2.041v1.6h7.762v1.961h-7.762v1.24h6.341v7.9h-4.5a15.346,15.346,0,0,0,6.361,3.381l-.939,1.94a15.459,15.459,0,0,1-7.262-5.321v5.981h-2.041v-5.962c-1.28,2.081-3.6,3.861-6.981,5.382l-1.161-1.881a16.73,16.73,0,0,0,6.342-3.521h-4.581v-7.9h6.381v-1.24h-7.761v-1.961Zm0,5h-4.36v1.36h4.36Zm-4.36,4.3h4.36v-1.34h-4.36Zm10.722-4.3h-4.321v1.36h4.321Zm-4.321,4.3h4.321v-1.34h-4.321Z" fill="#fff"/>
        <path id="Path_8643" data-name="Path 8643" d="M667.546,15015.2h3.441v1.94h-17.8v-1.94h3.38v-10.942h10.983Zm2.7-10.022h-2.021v-2.54H655.7v2.54h-2.021v-4.421h7.161a11.825,11.825,0,0,0-.719-1.52l2.2-.36c.22.56.44,1.2.66,1.88h7.262Zm-4.8,2.8v-1.78h-6.781v1.78Zm0,3.6v-1.76h-6.781v1.76Zm0,3.621v-1.78h-6.781v1.78Z" fill="#fff"/>
        <path id="Path_8644" data-name="Path 8644" d="M690.987,15013.538v2.1H672.923v-2.1Zm-1.841-12.583v2.061H674.783v-2.061Z" fill="#fff"/>
        <path id="Path_8645" data-name="Path 8645" d="M700.165,14999.555v4.041a9.669,9.669,0,0,0,3.34-4.661l2,.4a10.1,10.1,0,0,1-.42,1.16h4.6v1.5a12.552,12.552,0,0,1-2.62,4.121,14.19,14.19,0,0,0,4.36,2.2l-1.179,1.72c-.221-.08-.42-.139-.62-.22v7.6h-2v-.721h-4.1v.721h-1.98v-7.562c-.241.1-.441.2-.64.28l-1.261-1.7a19.971,19.971,0,0,0,4.481-2.36,11.7,11.7,0,0,1-1.42-2,15.479,15.479,0,0,1-1.481,1.321l-1.059-1.382v2.421h-1.881v2.62h1.78v1.961h-1.78v2.9c.76-.24,1.5-.5,2.2-.76v2.1a68.844,68.844,0,0,1-7.261,2.14l-.581-2.02c.3-.08.6-.141.881-.2v-6.9h1.84v6.461l.98-.26v-8.042h-2.78v-6.882Zm-1.981,1.921h-2.621v3.04h2.621Zm7.381,6a19.928,19.928,0,0,1-3.74,2.261h7.6A14.035,14.035,0,0,1,705.565,15007.477Zm2.061,7.342v-3.2h-4.1v3.2Zm-2.04-10a11.478,11.478,0,0,0,1.88-2.48H704.1l-.179.26A12.744,12.744,0,0,0,705.586,15004.816Z" fill="#fff"/>
        <path id="Path_8646" data-name="Path 8646" d="M729.526,15017.159h-2.12v-1.081H716.523v1.081h-2.1v-16h15.1Zm-2.12-3.121V15003.2H716.523v10.842Z" fill="#fff"/>
      </g>
      <g id="Group_1688" data-name="Group 1688" transform="translate(2.015 -14290.407)">
        <path id="Path_8651" data-name="Path 8651" d="M494.718,15058.017a15.347,15.347,0,0,1-.6,3.58l-1.7-.58a11.484,11.484,0,0,0,.64-3.221Zm5.341-1.26-1.62.42c-.06-.221-.12-.42-.16-.6a43.021,43.021,0,0,1-5.041.821l-.48-1.6a2.373,2.373,0,0,0,.8-.539,12.077,12.077,0,0,0,1.72-1.762c-.78.08-1.58.16-2.42.24l-.4-1.539a2.078,2.078,0,0,0,.7-.641,19.693,19.693,0,0,0,1.94-3.361l1.841.721a19.811,19.811,0,0,1-2.221,3.18c.6-.039,1.18-.1,1.76-.18.441-.641.941-1.34,1.461-2.1l1.76.68a36.881,36.881,0,0,1-4.261,5.121c.821-.119,1.641-.26,2.441-.42-.161-.461-.32-.9-.48-1.3l1.46-.481A23.679,23.679,0,0,1,500.059,15056.757Zm8.962-13.164v4.563H493.438v-4.562ZM498,15045.233h-2.6v1.32H498Zm-.58,15.645-1.7.379c-.08-1.26-.2-2.358-.32-3.32l1.58-.32C497.138,15058.616,497.279,15059.7,497.419,15060.878Zm2.741-.82-1.581.719c-.22-1.139-.46-2.139-.72-3.02l1.5-.5A21.146,21.146,0,0,1,500.16,15060.058Zm2.68,1.42h-1.88v-8.081c-.361.4-.721.78-1.1,1.14l-.6-1.861a11.47,11.47,0,0,0,2.66-4.359l1.86.34a17.176,17.176,0,0,1-.7,1.66h2.161c-.181-.6-.36-1.141-.561-1.641l1.881-.3c.18.58.36,1.221.56,1.941h2.761v1.8h-2.641v1.18h2.28v1.68h-2.28v1.1h2.381v1.68h-2.381v1.2h2.98v1.842H502.84Zm-.3-16.244h-2.62v1.32h2.62Zm.3,6.883v1.18h2.52v-1.18Zm0,3.961h2.52v-1.1h-2.52Zm0,2.879h2.52v-1.2h-2.52Zm4.221-13.723h-2.6v1.32h2.6Z" fill="#fff"/>
        <path id="Path_8652" data-name="Path 8652" d="M520.2,15044.493v-1.6h2.041v1.6H530v1.961H522.24v1.24h6.341v7.9h-4.5a15.357,15.357,0,0,0,6.361,3.381l-.939,1.939a15.453,15.453,0,0,1-7.262-5.32v5.98H520.2v-5.961c-1.28,2.08-3.6,3.861-6.981,5.381l-1.161-1.881a16.73,16.73,0,0,0,6.342-3.52h-4.581v-7.9H520.2v-1.24h-7.761v-1.961Zm0,5h-4.36v1.36h4.36Zm-4.36,4.3h4.36v-1.34h-4.36Zm10.722-4.3H522.24v1.36h4.321Zm-4.321,4.3h4.321v-1.34H522.24Z" fill="#fff"/>
        <path id="Path_8653" data-name="Path 8653" d="M533.5,15049.515v-.74c-.18.221-.36.439-.54.641l-1.12-1.56a25.77,25.77,0,0,0,3.4-4.821h1.381c1.28,1.28,2.46,2.58,3.58,3.939l-1.28,1.4c-.159-.2-.3-.4-.44-.58v1.721H537v1.6h2.3v1.961H537v5.141c.7-.18,1.4-.379,2.08-.58v1.961a61.884,61.884,0,0,1-6.4,1.521l-.5-2c.961-.119,1.9-.279,2.822-.459v-5.582h-2.281v-1.961H535v-1.6Zm1.28,8.242-1.58.42a36.659,36.659,0,0,0-.9-3.82l1.56-.521A39.652,39.652,0,0,1,534.778,15057.757Zm3.561-10.143a30.215,30.215,0,0,0-2.22-2.58,30.039,30.039,0,0,1-1.7,2.58Zm1.2,6.4a21.693,21.693,0,0,1-.92,3.48l-1.42-.521a20.428,20.428,0,0,0,.84-3.359Zm6.622-10.822c-.04.379-.1.74-.141,1.1H550v1.76h-4.261c-.061.361-.12.721-.2,1.041h3.64v9.063h1.241v1.76H547.2a18.538,18.538,0,0,1,3.381,2.061l-1.04,1.6a16.663,16.663,0,0,0-3.7-2.48l.8-1.18h-3.56l1.221,1.08a15.053,15.053,0,0,1-3.921,2.6l-1.161-1.48a14.588,14.588,0,0,0,3.621-2.2H539.3v-1.76h1.339v-9.062H543.5c.08-.361.14-.721.2-1.041h-3.94v-1.76h4.2c.059-.479.119-.938.159-1.381Zm1.08,6.4v-.859H542.58v.859Zm0,2.2v-.861H542.58v.861Zm0,2.16v-.84H542.58v.84Zm0,2.2v-.861H542.58v.861Z" fill="#fff"/>
        <path id="Path_8654" data-name="Path 8654" d="M557.659,15043.774a26.078,26.078,0,0,1-1.32,3.48v14.223h-2v-10.8c-.561.781-1.181,1.541-1.822,2.3l-.639-2.079a22.232,22.232,0,0,0,3.94-8Zm4.781.1v-.881h2.021v.881h5.081v1.641h-5.081v.779h4.461v6.162H568.6a20.141,20.141,0,0,1,1.7,2.2l-1.44,1c-.2-.318-.4-.619-.6-.92a3.825,3.825,0,0,0-.68.061v1.1h2.56v1.78h-2.56v2.061c0,1.119-.62,1.7-1.861,1.7h-2.339l-.421-1.84c.72.061,1.421.1,2.081.1.359,0,.559-.139.559-.42v-1.6h-5.661a15.393,15.393,0,0,1,2.681,1.641l-1.021,1.6a13.97,13.97,0,0,0-3.08-2.121l.781-1.119h-2.2v-1.78h8.5v-.981c-2.06.08-4.68.182-7.882.262l-.259-1.641c1.82-.02,3.48-.061,4.981-.1v-.98h-4.261v-6.162h4.261v-.779h-4.621v-1.641Zm.14,4.82v-.92H560v.92Zm0,1.34H560v.941h2.58Zm1.721-1.34h2.78v-.92H564.3Zm2.78,1.34H564.3v.941h2.78Zm-.441,2.621.321-.2h-2.5v.92c.96-.041,1.86-.08,2.68-.121C566.961,15053.036,566.8,15052.835,566.64,15052.655Z" fill="#fff"/>
        <path id="Path_8655" data-name="Path 8655" d="M590.122,15057.216v1.4H586.3a26.191,26.191,0,0,1,2.98,1.74l-1.2,1.221a12.476,12.476,0,0,0-1.34-1c-3.161.3-7.241.561-12.283.8l-.36-1.5a2.633,2.633,0,0,0,.821-.2c.519-.278,1.12-.619,1.84-1.061h-4.481v-1.4Zm-17.4-7.36v-1.181h3.5v-.561h-2.8v-1.279h2.8v-.58h1.761v.58h2.761v1.279h-2.761v.561h3.481v1.181h-1.981v.28c0,.2.1.3.34.3h1.5v.881h-1.98c-.8,0-1.181-.221-1.181-.621v-.839h-1.941a4.915,4.915,0,0,1-2.14,1.9h2.2v-.98h1.64v.98h2.241v1.08h-2.241v.58c1.04-.039,2.02-.059,2.94-.1v1.18c-2.34.121-5,.24-8,.32l-.16-1.279,3.581-.08v-.621H574v-1.039c-.28.119-.56.24-.86.359l-.6-1.141a5.213,5.213,0,0,0,2.3-1.159Zm3.941-6v-.882h1.94v.882h2.161v1.6H578.6v.58h-1.94v-.58h-4.1v-1.6Zm11.6,11.46v1.3H574.178v-1.3Zm-11.322,4.583c3.04-.142,5.721-.3,8-.462-.3-.18-.6-.34-.9-.5l.32-.32h-5.241A23.229,23.229,0,0,1,576.939,15059.9Zm10.742-5.282a2.535,2.535,0,0,1-.72-1.22,9.439,9.439,0,0,1-.26-2.382c0-.6.019-1.32.1-2.159H585.48a10.677,10.677,0,0,1-.479,2.681,16.943,16.943,0,0,1,1.56,1.24l-1.18,1.18a11.751,11.751,0,0,0-1.061-.941,6.626,6.626,0,0,1-1.82,1.98l-1.3-1.16a5.247,5.247,0,0,0,1.74-1.84,14.259,14.259,0,0,0-1.5-.881l.92-1.039a9.909,9.909,0,0,1,1.14.561,8.348,8.348,0,0,0,.3-1.78H581.78v-1.562h2.04v-.979H585.5v.979h3.06a27.717,27.717,0,0,0-.26,3.721,7.52,7.52,0,0,0,.1,1.5c.061.342.14.521.22.541.16-.041.28-.2.36-.48a6.835,6.835,0,0,0,.18-1.3l1.4.622a6.392,6.392,0,0,1-.78,2.56,1.418,1.418,0,0,1-1.02.58A1.674,1.674,0,0,1,587.681,15054.616Zm-1.88-11.643v.882h4.06v1.6H585.8v.58H583.86v-.58h-2.181v-1.6h2.181v-.882Z" fill="#fff"/>
        <path id="Path_8656" data-name="Path 8656" d="M599.42,15043.554v4.041a9.672,9.672,0,0,0,3.34-4.662l2,.4a9.849,9.849,0,0,1-.419,1.16h4.6v1.5a12.542,12.542,0,0,1-2.62,4.121,14.146,14.146,0,0,0,4.36,2.2l-1.179,1.721c-.221-.08-.42-.14-.62-.221v7.6h-2v-.721h-4.1v.721H600.8v-7.561c-.241.1-.441.2-.64.279l-1.261-1.7a20.045,20.045,0,0,0,4.482-2.359,11.731,11.731,0,0,1-1.421-2,15.613,15.613,0,0,1-1.481,1.321l-1.059-1.382v2.42h-1.881v2.621h1.78v1.961h-1.78v2.9c.76-.24,1.5-.5,2.2-.76v2.1a69.191,69.191,0,0,1-7.261,2.142l-.581-2.021c.3-.08.6-.141.881-.2v-6.9h1.84v6.461l.98-.26v-8.043h-2.78v-6.881Zm-1.981,1.92h-2.621v3.041h2.621Zm7.381,6a19.977,19.977,0,0,1-3.74,2.26h7.6A14.009,14.009,0,0,1,604.82,15051.476Zm2.061,7.342v-3.2h-4.1v3.2Zm-2.04-10a11.486,11.486,0,0,0,1.879-2.48h-3.36l-.18.26A12.911,12.911,0,0,0,604.841,15048.815Z" fill="#fff"/>
        <path id="Path_8657" data-name="Path 8657" d="M630.3,15058.5v2.08H612.137v-2.08Zm-1.4-14.2v2.041H613.578v-2.041Zm-1.38,6.842v2.039H614.938v-2.039Z" fill="#fff"/>
        <path id="Path_8658" data-name="Path 8658" d="M635.4,15051.556h4.221v1.9H635.4v2.461a30.452,30.452,0,0,0,4.921-.781v1.941a45.019,45.019,0,0,1-4.921.84v3.439h-2.04v-3.221c-.36.021-.721.061-1.08.1l-.32-2.08,1.4-.08v-11.623a22.855,22.855,0,0,0,6.081-1.5l1.061,1.76a30.611,30.611,0,0,1-5.1,1.32v1.721h4.221v1.92H635.4Zm13.763-.2v1.819a11.756,11.756,0,0,1-2.36,4.482,17.164,17.164,0,0,0,3.861,2.141l-1.1,1.8a18.044,18.044,0,0,1-4.161-2.6,16.428,16.428,0,0,1-4.921,2.621l-1.16-1.762a15.187,15.187,0,0,0,4.541-2.359,10.651,10.651,0,0,1-2.221-4.221h-1.08v-1.921Zm-1.04-7.763v4.121c0,.441.2.683.64.683h1.561v1.858H648.2a1.85,1.85,0,0,1-2.12-2.061v-2.68h-2.16v.859a5.218,5.218,0,0,1-2.561,4.621l-1.4-1.6a3.033,3.033,0,0,0,1.92-2.8v-3Zm-2.88,12.623a10.267,10.267,0,0,0,1.84-2.939H643.54A7.8,7.8,0,0,0,645.241,15056.216Z" fill="#fff"/>
        <path id="Path_8659" data-name="Path 8659" d="M660.859,15046.034a3.979,3.979,0,0,1,1.32,3.1,4.942,4.942,0,0,1-1.4,3.379,18.38,18.38,0,0,1-2.961,2.3,7.159,7.159,0,0,0-2.661,2.521H662.2v2.062h-9.962a5.508,5.508,0,0,1,1.42-3.8,19.287,19.287,0,0,1,3.281-2.621,13.2,13.2,0,0,0,1.96-1.6,3.384,3.384,0,0,0,.941-2.262,2.3,2.3,0,0,0-.621-1.74,2.691,2.691,0,0,0-1.86-.56,2.294,2.294,0,0,0-1.98.9,4.36,4.36,0,0,0-.721,2.541h-2.34a5.5,5.5,0,0,1,1.4-3.861,4.781,4.781,0,0,1,3.721-1.561A4.952,4.952,0,0,1,660.859,15046.034Z" fill="#fff"/>
        <path id="Path_8660" data-name="Path 8660" d="M672.859,15045.874a3.536,3.536,0,0,1,1.3,2.9,3.075,3.075,0,0,1-2.381,3.122,4.021,4.021,0,0,1,1.94,1.159,3.023,3.023,0,0,1,.721,2.08,4.186,4.186,0,0,1-1.381,3.24,5.449,5.449,0,0,1-3.78,1.3,5.37,5.37,0,0,1-3.581-1.141,5.081,5.081,0,0,1-1.681-3.68H666.4a2.9,2.9,0,0,0,.88,2.141,2.82,2.82,0,0,0,1.981.7,2.973,2.973,0,0,0,2.14-.76,2.31,2.31,0,0,0,.7-1.7,2.159,2.159,0,0,0-.74-1.8,3.2,3.2,0,0,0-2.1-.58h-1v-1.762h1a2.972,2.972,0,0,0,1.92-.539,2.01,2.01,0,0,0,.64-1.6,2.072,2.072,0,0,0-.58-1.58,2.793,2.793,0,0,0-1.86-.539,2.507,2.507,0,0,0-2.781,2.539h-2.3a4.652,4.652,0,0,1,1.6-3.359,5.015,5.015,0,0,1,3.461-1.182A5.485,5.485,0,0,1,672.859,15045.874Z" fill="#fff"/>
        <path id="Path_8661" data-name="Path 8661" d="M685.059,15046.714a8.438,8.438,0,0,1,1.381,5.142,10.058,10.058,0,0,1-1.461,5.661,4.554,4.554,0,0,1-3.94,2.16q-4.231,0-4.741-3.9h2.28a2.276,2.276,0,0,0,2.48,1.98,2.634,2.634,0,0,0,2.282-1.4,6.213,6.213,0,0,0,.82-3.3v-.18h-.1a4.026,4.026,0,0,1-1.5,1.3,4.516,4.516,0,0,1-1.921.4,4.372,4.372,0,0,1-3.38-1.379,4.742,4.742,0,0,1-1.241-3.422,4.694,4.694,0,0,1,1.441-3.541,4.935,4.935,0,0,1,3.6-1.4A4.648,4.648,0,0,1,685.059,15046.714Zm-5.961.9a3.04,3.04,0,0,0-.759,2.16,2.829,2.829,0,0,0,.759,2.1,2.649,2.649,0,0,0,2.04.8,2.708,2.708,0,0,0,2.041-.8,3.166,3.166,0,0,0,.741-2.182,2.875,2.875,0,0,0-.781-2.141,2.731,2.731,0,0,0-2-.779A2.655,2.655,0,0,0,679.1,15047.614Z" fill="#fff"/>
        <path id="Path_8662" data-name="Path 8662" d="M695.158,15050.216v1.92h-3.58c-.16.66-.3,1.261-.461,1.779h3.341c-.08,3.922-.4,6.121-.94,6.623s-1.68.76-3.421.76h-.26l-.58-1.9a7.322,7.322,0,0,0,.88.058,3.137,3.137,0,0,0,1.76-.34q.452-.36.54-3.359h-3.78c.38-1.32.68-2.541.92-3.621H688v-1.92Zm-.4-6.6v5.782H688.6v-5.782Zm-1.921,1.719h-2.321v2.342h2.321Zm8.8-2.439v.962h3.921v1.7h-3.921v.961h4.4v.939a13.884,13.884,0,0,1-.841,2.98l-1.46-.42.16.98-2.28.32v.561c0,.2.18.32.54.32h3.28v1.779h-3.86q-1.92,0-1.921-1.62v-.78l-1.64.221-.28-1.74,1.92-.262v-1.459H697.6v4.26a21.1,21.1,0,0,1-1.74,8.982l-1.62-1.4a19.574,19.574,0,0,0,1.4-7.582v-6.08H699.6v-3.621Zm-1.1,11.563c-.04,3.48-.74,5.881-2.081,7.182l-1.641-1.281c1.141-1.02,1.721-2.98,1.761-5.9Zm3.08,6.721c-1.38,0-2.061-.58-2.061-1.7v-5.021h1.9v4.641c0,.121.08.2.24.221h.6c.239-.02.379-.24.419-.641s.06-.98.06-1.721l1.74.66a6.144,6.144,0,0,1-.42,2.98,2.308,2.308,0,0,1-1.7.58Zm-2-11.643,2-.279c.12-.32.221-.621.32-.92h-2.32Z" fill="#fff"/>
        <path id="Path_8663" data-name="Path 8663" d="M719.718,15042.853a19.2,19.2,0,0,0-1.92,4.143,15.661,15.661,0,0,0-.88,5.2,15.873,15.873,0,0,0,.88,5.2,20.148,20.148,0,0,0,1.92,4.14h-1.9a16.924,16.924,0,0,1-2.2-4.082,15.445,15.445,0,0,1,0-10.5,16.012,16.012,0,0,1,2.2-4.1Z" fill="#fff"/>
        <path id="Path_8664" data-name="Path 8664" d="M724.278,15047.575v-1.261h-2.6v-1.681h2.6v-1.621h1.9v1.621h2.38v1.681h-2.38v1.261h2.281v8.1h-2.281v1.279h2.561v1.721h-2.561v2.74h-1.9v-2.74h-2.7v-1.721h2.7v-1.279h-2.361v-8.1Zm.18,3.28v-1.761h-.96v1.761Zm0,1.521h-.96v1.779h.96Zm1.5-1.521h.98v-1.761h-.98Zm.98,1.521h-.98v1.779h.98Zm6.222-8.482v-.9h1.94v.9h4.061v1.6H735.1v.762h3.66v6.041h-.4a20.407,20.407,0,0,1,1.46,2.141l-1.28.9c-.16-.281-.321-.58-.481-.861l-.519.041v1.26h2.06v1.721h-2.06v2.1c0,1.24-.58,1.861-1.721,1.861H733.8l-.42-1.842c.62.061,1.2.1,1.76.1.32,0,.48-.2.48-.58v-1.641h-4.561a12.265,12.265,0,0,1,2.2,1.439l-1,1.521a11.291,11.291,0,0,0-2.622-1.861l.741-1.1h-1.161v-1.721h6.4v-1.121c-1.66.1-3.74.2-6.241.281l-.241-1.58c1.481-.021,2.822-.041,4.062-.08v-.98h-3.7v-6.041h3.661v-.762h-4v-1.6Zm.12,4.7v-1h-2.041v1Zm0,1.34h-2.041v1.021h2.041Zm1.72-1.34h2.02v-1H735Zm2.02,1.34H735v1.021h2.02Zm-.4,2.361h-1.54v.92c.761-.041,1.461-.08,2.1-.121Z" fill="#fff"/>
        <path id="Path_8665" data-name="Path 8665" d="M746.478,15047.794v1.621a27.384,27.384,0,0,1-2.12,2.981h2.32v1.358a21.357,21.357,0,0,1-.94,3.563c.16.119.3.238.44.359a6.959,6.959,0,0,0,1.8,1.2,8.944,8.944,0,0,0,2.48.361c1.08.02,2.321.039,3.721.039,1.44,0,3.321-.059,5.642-.16l-.481,1.961h-4.9c-1.361,0-2.721-.039-4.062-.08a10.179,10.179,0,0,1-3.08-.439,6.544,6.544,0,0,1-2.26-1.461.634.634,0,0,0-.46-.2c-.36,0-.981.858-1.82,2.579l-1.5-1.4c.9-1.721,1.76-2.74,2.6-3.08a16.449,16.449,0,0,0,.861-2.861H741.9v-1.561a27.826,27.826,0,0,0,2.3-2.9h-2.621v-1.881Zm-.12-1.9-1.341,1.34a20.659,20.659,0,0,0-3.04-2.9l1.361-1.279A23.244,23.244,0,0,1,746.358,15045.894Zm12.842,1.121h-1.08v.841h-3.961v.739H758.3v6.242h-4.141v.8h5.061v1.7h-5.061v1.641h-2v-1.641H747.1v-1.7h5.06v-.8H748v-6.242h4.16v-.739h-3.92v-.741h-1.18v-3.541H759.2Zm-7.042-.781v-.979h-3.1v.979Zm0,4.762v-.84H750v.84Zm0,1.461H750v.8h2.16Zm2-6.223h3.04v-.979h-3.04Zm0,4.762H756.3v-.84h-2.141Zm2.141,1.461h-2.141v.8H756.3Z" fill="#fff"/>
        <path id="Path_8666" data-name="Path 8666" d="M769.2,15058.677c-2.26.6-4.681,1.1-7.242,1.52l-.5-2c1.421-.16,2.822-.4,4.2-.68a75.344,75.344,0,0,0,1.221-8.7l2.02.279a62.513,62.513,0,0,1-1.321,7.982c.561-.16,1.1-.3,1.621-.441Zm-4.681-12.6c-.239-.939-.48-1.82-.76-2.641l2.12-.34c.221.881.441,1.861.66,2.98h3.081v2h-8.042v-2Zm.5,10.643-1.72.42q-.54-3.99-1.32-7.682l1.8-.6C764.238,15051.155,764.657,15053.776,765.017,15056.716Zm9.782-13.762v3.279h4.781v2.041H774.8v3.3h4.022v9.781h-2v-1.18h-5.041v1.2H769.8v-9.8h2.881v-8.621Zm2.021,15.283v-4.841h-5.041v4.841Z" fill="#fff"/>
        <path id="Path_8667" data-name="Path 8667" d="M782.717,15045.874v-2.041h16v2.041h-6.562v5.1h5.482v2h-5.482v5.742h7.4v2.039H781.536v-2.039h2.921v-9.242h2.04v9.242h3.562v-12.844Z" fill="#fff"/>
        <path id="Path_8668" data-name="Path 8668" d="M804.017,15046.755l-1.54.68a24.343,24.343,0,0,0-1.221-3.1l1.621-.539A24.11,24.11,0,0,1,804.017,15046.755Zm2.1-3.682v4.7h.981v-4.7h1.88v4.7h2.3v1.961h-1.34l-.62,1.939h1.78v1.82h-3.461v1.621h3.081v1.82h-3.081v1.84c1.36-.119,2.56-.26,3.56-.4v1.842a88.645,88.645,0,0,1-9.261.82l-.3-1.961c1.42-.041,2.74-.1,3.94-.16v-1.98H802.5v-1.82h3.081v-1.621H802v-1.82h1.8l-.52-1.939h-1.7v-1.961h2.681v-4.7Zm1.281,8.6.64-1.939H805.2l.52,1.939Zm4.541-7.521a16.875,16.875,0,0,1-1.18,3.262l-1.621-.6a13.925,13.925,0,0,0,1.08-3.142Zm3.26,11.3-1.76.779a32.893,32.893,0,0,0-1.9-4.98l1.782-.58A35.6,35.6,0,0,1,815.2,15055.456Zm.861-8.582v-3.9h2.04v3.9h1.621v2H818.1v10.424a1.864,1.864,0,0,1-2.08,2.119H813.5l-.46-2c.8.08,1.561.141,2.26.141a.7.7,0,0,0,.761-.8v-9.883h-4.281v-2Z" fill="#fff"/>
        <path id="Path_8669" data-name="Path 8669" d="M839.54,15043.593v2H831.7a15.1,15.1,0,0,1-.58,1.92h7.522v14.023h-2.021v-.781h-12.1v.781H822.5v-14.023h6.522a12.375,12.375,0,0,0,.56-1.92h-8.021v-2Zm-12.923,15.244v-9.422h-2.1v9.422Zm5.9-7.5v-1.92h-3.961v1.92Zm0,3.721v-1.92h-3.961v1.92Zm0,3.781v-2h-3.961v2Zm4.1,0v-9.422h-2.16v9.422Z" fill="#fff"/>
        <path id="Path_8670" data-name="Path 8670" d="M843.257,15042.853a16.619,16.619,0,0,1,2.2,4.1,15.444,15.444,0,0,1,0,10.5,17.61,17.61,0,0,1-2.2,4.082h-1.9a22.5,22.5,0,0,0,1.92-4.14,16.443,16.443,0,0,0,.88-5.2,16.215,16.215,0,0,0-.88-5.2,21.321,21.321,0,0,0-1.92-4.143Z" fill="#fff"/>
      </g>
      <g id="Group_1690" data-name="Group 1690" transform="translate(2.015 -14290.407)">
        <path id="Path_8706" data-name="Path 8706" d="M501.865,15094.368a11.465,11.465,0,0,1,0,10.682,4.474,4.474,0,0,1-3.9,2.08,4.429,4.429,0,0,1-3.9-2.08,11.465,11.465,0,0,1,0-10.682,4.389,4.389,0,0,1,3.9-2.082A4.434,4.434,0,0,1,501.865,15094.368Zm-6.3,1.8a10.485,10.485,0,0,0-.479,3.541,10.637,10.637,0,0,0,.479,3.541,2.475,2.475,0,0,0,2.4,1.9,2.506,2.506,0,0,0,2.4-1.9,10.634,10.634,0,0,0,.48-3.541,10.481,10.481,0,0,0-.48-3.541,2.484,2.484,0,0,0-2.4-1.9A2.453,2.453,0,0,0,495.563,15096.167Z" fill="#fff"/>
        <path id="Path_8707" data-name="Path 8707" d="M513.6,15093.327a3.533,3.533,0,0,1,1.3,2.9,3.073,3.073,0,0,1-2.381,3.121,4.038,4.038,0,0,1,1.941,1.16,3.028,3.028,0,0,1,.72,2.08,4.186,4.186,0,0,1-1.381,3.24,5.449,5.449,0,0,1-3.78,1.3,5.37,5.37,0,0,1-3.581-1.141,5.084,5.084,0,0,1-1.681-3.68h2.381a2.9,2.9,0,0,0,.88,2.141,2.82,2.82,0,0,0,1.981.7,2.973,2.973,0,0,0,2.14-.76,2.309,2.309,0,0,0,.7-1.7,2.16,2.16,0,0,0-.74-1.8,3.2,3.2,0,0,0-2.1-.58h-1v-1.762h1a2.977,2.977,0,0,0,1.921-.539,2.011,2.011,0,0,0,.639-1.6,2.073,2.073,0,0,0-.58-1.58,2.793,2.793,0,0,0-1.86-.539,2.507,2.507,0,0,0-2.781,2.539h-2.3a4.65,4.65,0,0,1,1.6-3.359,5.015,5.015,0,0,1,3.461-1.182A5.485,5.485,0,0,1,513.6,15093.327Z" fill="#fff"/>
        <path id="Path_8708" data-name="Path 8708" d="M527.065,15100.73v1.878h-10.1v-1.878Z" fill="#fff"/>
        <path id="Path_8709" data-name="Path 8709" d="M537.9,15094.167a8.437,8.437,0,0,1,1.381,5.141,10.059,10.059,0,0,1-1.461,5.662,4.556,4.556,0,0,1-3.94,2.16q-4.231,0-4.742-3.9h2.281a2.276,2.276,0,0,0,2.48,1.979,2.631,2.631,0,0,0,2.281-1.4,6.213,6.213,0,0,0,.821-3.3v-.18h-.1a4.033,4.033,0,0,1-1.5,1.3,4.52,4.52,0,0,1-1.921.4,4.376,4.376,0,0,1-3.381-1.379,5.2,5.2,0,0,1,.2-6.963,4.939,4.939,0,0,1,3.6-1.4A4.649,4.649,0,0,1,537.9,15094.167Zm-5.961.9a3.039,3.039,0,0,0-.76,2.16,2.831,2.831,0,0,0,.76,2.1,2.652,2.652,0,0,0,2.04.8,2.713,2.713,0,0,0,2.041-.8,3.164,3.164,0,0,0,.74-2.181,2.876,2.876,0,0,0-.78-2.142,2.731,2.731,0,0,0-2-.779A2.654,2.654,0,0,0,531.943,15095.067Z" fill="#fff"/>
        <path id="Path_8710" data-name="Path 8710" d="M550.6,15092.567v2.061h-6.821l-.4,3.92h.06a3.937,3.937,0,0,1,1.521-.959,4.78,4.78,0,0,1,1.74-.3,4.336,4.336,0,0,1,3.28,1.32,5.073,5.073,0,0,1,1.28,3.641,4.5,4.5,0,0,1-1.679,3.621,5.672,5.672,0,0,1-3.682,1.26,5.362,5.362,0,0,1-3.34-1.061,4.162,4.162,0,0,1-1.7-3.16h2.3a2.406,2.406,0,0,0,.92,1.74,3.461,3.461,0,0,0,3.981-.279,2.746,2.746,0,0,0,.861-2.1,3.3,3.3,0,0,0-.741-2.26,2.645,2.645,0,0,0-2.121-.819,3.553,3.553,0,0,0-1.6.319,2.574,2.574,0,0,0-1.162,1.1h-2.179l.78-8.041Z" fill="#fff"/>
        <path id="Path_8711" data-name="Path 8711" d="M562.6,15092.567v2.061h-6.821l-.4,3.92h.06a3.937,3.937,0,0,1,1.521-.959,4.78,4.78,0,0,1,1.74-.3,4.336,4.336,0,0,1,3.28,1.32,5.073,5.073,0,0,1,1.28,3.641,4.5,4.5,0,0,1-1.679,3.621,5.672,5.672,0,0,1-3.682,1.26,5.362,5.362,0,0,1-3.34-1.061,4.162,4.162,0,0,1-1.7-3.16h2.3a2.406,2.406,0,0,0,.92,1.74,3.461,3.461,0,0,0,3.981-.279,2.746,2.746,0,0,0,.861-2.1,3.3,3.3,0,0,0-.741-2.26,2.645,2.645,0,0,0-2.121-.819,3.553,3.553,0,0,0-1.6.319,2.574,2.574,0,0,0-1.162,1.1h-2.179l.78-8.041Z" fill="#fff"/>
        <path id="Path_8712" data-name="Path 8712" d="M574.323,15092.567v1.881l-5,12.4h-2.48l5.121-12.164h-7.3v-2.119Z" fill="#fff"/>
        <path id="Path_8713" data-name="Path 8713" d="M586.224,15100.73v1.878h-10.1v-1.878Z" fill="#fff"/>
        <path id="Path_8714" data-name="Path 8714" d="M597.763,15092.567v2.061h-6.821l-.4,3.92h.06a3.938,3.938,0,0,1,1.521-.959,4.781,4.781,0,0,1,1.74-.3,4.336,4.336,0,0,1,3.28,1.32,5.074,5.074,0,0,1,1.281,3.641,4.505,4.505,0,0,1-1.68,3.621,5.672,5.672,0,0,1-3.682,1.26,5.362,5.362,0,0,1-3.34-1.061,4.162,4.162,0,0,1-1.7-3.16h2.3a2.406,2.406,0,0,0,.92,1.74,3.461,3.461,0,0,0,3.981-.279,2.746,2.746,0,0,0,.861-2.1,3.3,3.3,0,0,0-.741-2.26,2.645,2.645,0,0,0-2.121-.819,3.553,3.553,0,0,0-1.6.319,2.567,2.567,0,0,0-1.161,1.1h-2.18l.78-8.041Z" fill="#fff"/>
        <path id="Path_8715" data-name="Path 8715" d="M609.063,15094.167a8.437,8.437,0,0,1,1.381,5.141,10.059,10.059,0,0,1-1.461,5.662,4.554,4.554,0,0,1-3.94,2.16q-4.232,0-4.742-3.9h2.281a2.276,2.276,0,0,0,2.48,1.979,2.63,2.63,0,0,0,2.281-1.4,6.2,6.2,0,0,0,.821-3.3v-.18h-.1a4.033,4.033,0,0,1-1.5,1.3,4.516,4.516,0,0,1-1.921.4,4.376,4.376,0,0,1-3.381-1.379,4.746,4.746,0,0,1-1.24-3.422,4.694,4.694,0,0,1,1.441-3.541,4.935,4.935,0,0,1,3.6-1.4A4.649,4.649,0,0,1,609.063,15094.167Zm-5.961.9a3.038,3.038,0,0,0-.759,2.16,2.83,2.83,0,0,0,.759,2.1,2.652,2.652,0,0,0,2.04.8,2.711,2.711,0,0,0,2.041-.8,3.165,3.165,0,0,0,.741-2.181,2.876,2.876,0,0,0-.781-2.142,2.731,2.731,0,0,0-2-.779A2.654,2.654,0,0,0,603.1,15095.067Z" fill="#fff"/>
        <path id="Path_8716" data-name="Path 8716" d="M621.063,15094.167a8.437,8.437,0,0,1,1.381,5.141,10.059,10.059,0,0,1-1.461,5.662,4.554,4.554,0,0,1-3.94,2.16q-4.232,0-4.742-3.9h2.281a2.276,2.276,0,0,0,2.48,1.979,2.63,2.63,0,0,0,2.281-1.4,6.2,6.2,0,0,0,.821-3.3v-.18h-.1a4.033,4.033,0,0,1-1.5,1.3,4.516,4.516,0,0,1-1.921.4,4.376,4.376,0,0,1-3.381-1.379,4.746,4.746,0,0,1-1.24-3.422,4.694,4.694,0,0,1,1.441-3.541,4.935,4.935,0,0,1,3.6-1.4A4.649,4.649,0,0,1,621.063,15094.167Zm-5.961.9a3.038,3.038,0,0,0-.759,2.16,2.83,2.83,0,0,0,.759,2.1,2.652,2.652,0,0,0,2.04.8,2.711,2.711,0,0,0,2.041-.8,3.165,3.165,0,0,0,.741-2.181,2.876,2.876,0,0,0-.781-2.142,2.731,2.731,0,0,0-2-.779A2.654,2.654,0,0,0,615.1,15095.067Z" fill="#fff"/>
      </g>
      <g id="Group_1692" data-name="Group 1692" transform="translate(2.015 -14290.407)">
        <g id="Group_1691" data-name="Group 1691">
          <path id="Path_8717" data-name="Path 8717" d="M378.546,14998.844a26.292,26.292,0,0,0,3.529.179h1.016q-.025-1.931-.178-3.429,1.143.1,3,.406,1.447.229,1.448.508,0,.406-.838.711a.717.717,0,0,0-.559.686v1.118h6.6a33.269,33.269,0,0,0-.2-3.429q1.167.1,3,.406,1.471.229,1.472.508,0,.406-.863.711a.716.716,0,0,0-.558.686v1.118h.3a7.934,7.934,0,0,0,.838-1.041q.914-1.2,1.092-1.194.481,0,1.549,1.143t1.066,1.4q0,.432-.482.432h-4.367v8h.787a8.723,8.723,0,0,0,.888-1.092q.99-1.244,1.143-1.244.533,0,1.65,1.193t1.117,1.447c0,.288-.177.432-.533.432h-7.439a15.333,15.333,0,0,0,3.681,2.006,27.186,27.186,0,0,0,4.6,1.143l-.1.482a2.282,2.282,0,0,0-1.422,1.447q-.281.787-.61.787a6.086,6.086,0,0,1-1.929-.863,12.884,12.884,0,0,1-2.971-2.209,15.131,15.131,0,0,1-2.311-2.793h-4.8a19.415,19.415,0,0,1-2.819,3.123,14.8,14.8,0,0,1-2.971,1.879,23.744,23.744,0,0,1-3.757,1.4l-.178-.432a15.955,15.955,0,0,0,3.631-2.539,13.4,13.4,0,0,0,2.717-3.428H381.06q-2.209,0-3.149.1l-.406-1.016a26.934,26.934,0,0,0,3.555.178h2.031v-8h-1.016q-2.208,0-3.148.1Zm4.977,14.4a23.191,23.191,0,0,0,3.554.2h.813v-1.117a11.333,11.333,0,0,0-.229-2.234,32.52,32.52,0,0,1,3.276.457q.99.025.99.457c0,.136-.187.3-.559.508q-.66.3-.66.711v1.219h.635a10.9,10.9,0,0,0,.762-.939q.888-1.066,1.041-1.065.482,0,1.472,1.04t.991,1.295q0,.381-.432.381h-4.469v3.352h4.164a7.172,7.172,0,0,0,.965-1.143q1.016-1.27,1.168-1.27.558,0,1.7,1.22,1.168,1.217,1.168,1.5c0,.288-.177.432-.533.432H381.8q-2.233,0-3.174.1l-.381-1.016a26.591,26.591,0,0,0,3.555.178h6.094v-3.352h-.813q-2.233,0-3.148.1Zm2.437-11.451h6.6v-2.031h-6.6Zm0,2.818h6.6v-2.133h-6.6Zm0,3.148h6.6v-2.412h-6.6Z" fill="#b78e66"/>
          <path id="Path_8718" data-name="Path 8718" d="M410.64,15001.154q.3,0,1.117,1.118a3.2,3.2,0,0,1,.787,1.319q0,.432-.381.432h-3.072v8.658q1.727-.381,3.25-.838l.1.279a19.469,19.469,0,0,1-6.424,3.783c-.238.034-.356.136-.356.3a2.433,2.433,0,0,0-.1.355c-.068.237-.169.355-.305.355q-.508,0-1.193-1.777-.2-.482-.635-1.574,1.524-.177,2.945-.406v-9.141h-.33q-.736,0-2.031.1l-.406-1.016a24,24,0,0,0,2.437.178h.33v-3.25a20.384,20.384,0,0,0-.33-3.859q1.117.152,2.895.457,1.371.205,1.371.457,0,.406-.686.711a.631.631,0,0,0-.533.636v4.849h.3a6.145,6.145,0,0,0,.609-1.143Q410.462,15001.154,410.64,15001.154Zm11.654.534q.381-.686.686-1.169a.79.79,0,0,1,.66-.482,3.849,3.849,0,0,1,1.523.711q1.5.889,1.5,1.244c0,.136-.219.364-.66.686a1.089,1.089,0,0,0-.558.813q0,7.261-.508,8.43a2.655,2.655,0,0,1-1.244,1.473,2.8,2.8,0,0,1-1.3.482c-.238,0-.423-.355-.559-1.066a2,2,0,0,0-1.244-1.6v2.361q0,.482-1.244.711a6.786,6.786,0,0,1-.787.076q-.939,0-.94-.787.2-2.462.2-4.494v-5.129l-2.132.711v10.715c0,.559.219.88.66.965a35.048,35.048,0,0,0,3.859.152,14.446,14.446,0,0,0,2.819-.229,1.717,1.717,0,0,0,1.117-.508,4.014,4.014,0,0,0,.584-1.193q.381-1.091.812-2.92l.635.1q.051,1.956.051,2.438a2.481,2.481,0,0,0,.482,1.727,1.652,1.652,0,0,1,.66,1.117c0,.474-.346.873-1.041,1.193a5.921,5.921,0,0,1-1.752.457,29.977,29.977,0,0,1-4.367.254,38.122,38.122,0,0,1-5.535-.254,2.094,2.094,0,0,1-1.5-.889,3.246,3.246,0,0,1-.3-1.676v-10.461a9.132,9.132,0,0,0-2.031.889l-.736-.914a8.2,8.2,0,0,0,2.767-.635v-4.85a18.894,18.894,0,0,0-.228-2.945q1.269.127,2.869.381,1.5.2,1.5.533,0,.482-.762.762a.763.763,0,0,0-.558.686V15004l2.132-.762v-2.895a32.933,32.933,0,0,0-.279-4.569q1.167.1,3,.405,1.271.177,1.27.533,0,.406-.737.687a.6.6,0,0,0-.482.608v4.267Zm-1.7,1.294v7.566a10.231,10.231,0,0,0,1.219.076c.355,0,.593-.245.711-.736q.1-1.295.1-7.616Z" fill="#b78e66"/>
          <path id="Path_8719" data-name="Path 8719" d="M434.075,14995.772q1.4.379,2.641.761c.829.238,1.244.5,1.244.787q0,.406-.685.508-.661.1-.762.279a26.223,26.223,0,0,1-1.549,3.834.15.15,0,0,1,.1.025q.862.229.863.406a.781.781,0,0,1-.508.711.6.6,0,0,0-.33.609v14.829q0,.507-1.219.761a6.769,6.769,0,0,1-.812.076q-.915,0-.914-.837.228-2.769.228-5.562v-6.932a35.19,35.19,0,0,1-2.564,2.844l-.381-.381a34.267,34.267,0,0,0,2.92-5.865A40.37,40.37,0,0,0,434.075,14995.772Zm12.8,7.616q1.347.457,2.159.762,2.031.56,2.031,1.092,0,.3-.635.482-.585.127-.686.533a55.229,55.229,0,0,1-2.056,6.449,35.608,35.608,0,0,1-2.336,4.418h2.844a7.523,7.523,0,0,0,.99-1.143q1.066-1.295,1.244-1.294.558,0,1.7,1.218,1.167,1.244,1.168,1.5,0,.406-.533.406H439.255a26.431,26.431,0,0,0-3.148.128l-.381-1.017a22.973,22.973,0,0,0,3.529.2h5.2a31.783,31.783,0,0,0,1.422-5.281A48.969,48.969,0,0,0,446.872,15003.389Zm-4.164-7.719q1.8.177,3.428.482c.694.017,1.041.2,1.041.559,0,.1-.2.245-.609.432q-.711.28-.711.686v3.631h1.752a10.336,10.336,0,0,0,.964-1.143q1.066-1.295,1.27-1.294.509,0,1.676,1.243,1.143,1.219,1.142,1.523,0,.381-.482.381h-11.5q-2.209,0-3.148.1l-.407-1.017a23.512,23.512,0,0,0,3.555.2h2.234v-3.453A13.851,13.851,0,0,0,442.708,14995.67Zm-3.631,8.557a18.8,18.8,0,0,1,2.768,4.546,11.854,11.854,0,0,1,.965,4.188,3.323,3.323,0,0,1-.584,2.031,1.589,1.589,0,0,1-1.117.482q-1.652,0-1.651-2.133a43.375,43.375,0,0,0-.812-8.836Z" fill="#b78e66"/>
          <path id="Path_8720" data-name="Path 8720" d="M457.359,14996.076a20.757,20.757,0,0,1,2.92,1.016h13.914q.456-.508.787-.863a.869.869,0,0,1,.66-.355,3.53,3.53,0,0,1,1.549.838q1.269.838,1.269,1.193,0,.28-.457.584c-.321.187-.508.364-.558.534v2.538c0,.22-.187.381-.559.482a4.335,4.335,0,0,1,.762.736c.609.66.914,1.076.914,1.244a.337.337,0,0,1-.381.381H468.3q-.3,1.194-.609,2.133h3.681a8.524,8.524,0,0,0,.787-.787q.585-.508.813-.508a2.929,2.929,0,0,1,1.447.813q1.22.863,1.219,1.117a.986.986,0,0,1-.457.762,1.15,1.15,0,0,0-.457.736v9.369h.2q.077-.051.838-1.016.914-1.118,1.092-1.117.456,0,1.472,1.092,1.043,1.091,1.041,1.346,0,.381-.482.381H459.161q-2.208,0-3.148.1l-.406-1.016a20.964,20.964,0,0,0,3.554.229h.432v-7.719a27.8,27.8,0,0,0-.33-4.977,16.309,16.309,0,0,1,3.478,1.193h2.286q.2-.99.38-2.133h-5.535q-2.208,0-3.148.1l-.381-1.016a22.982,22.982,0,0,0,3.529.2h5.637q.153-.914.33-1.9h-5.56q0,.482-1.245.711a5.626,5.626,0,0,1-.761.076q-.813,0-.813-.686a12.1,12.1,0,0,0,.1-1.65v-2.031A13.582,13.582,0,0,0,457.359,14996.076Zm5.992,1.752h-3.072v3.25h3.072Zm-.94,11.68h9.344v-2.234h-9.344Zm0,2.717h9.344v-2.031h-9.344Zm0,2.869h9.344v-2.133h-9.344Zm0,2.945h9.344v-2.234h-9.344Zm6.526-20.211h-2.946v3.25h2.946Zm6.906,4.418c-.237.017-.415.026-.533.026-.406,0-.626-.162-.66-.483h-5.739q-.228,1.042-.431,1.9h6.144a6.361,6.361,0,0,0,.737-.889C475.564,15002.567,475.725,15002.382,475.843,15002.246Zm-1.219-1.168v-3.25h-3.047v3.25Z" fill="#b78e66"/>
        </g>
      </g>
      <g id="Group_1694" data-name="Group 1694" transform="translate(2.015 -14290.407)">
        <g id="Group_1693" data-name="Group 1693">
          <path id="Path_8721" data-name="Path 8721" d="M360.082,15001.346a6.99,6.99,0,0,0-6.989,6.99c0,3.861,5.825,11.651,6.989,11.651s6.991-7.79,6.991-11.651A6.99,6.99,0,0,0,360.082,15001.346Zm0,11.65a4.66,4.66,0,1,1,4.661-4.66A4.663,4.663,0,0,1,360.082,15013Z" fill="#b78e66"/>
        </g>
      </g>
      <g id="Group_1696" data-name="Group 1696" transform="translate(2.015 -14290.407)">
        <g id="Group_1695" data-name="Group 1695">
          <path id="Path_8722" data-name="Path 8722" d="M377.631,15046.088a20.013,20.013,0,0,0,3.25.2v-2.539a36.714,36.714,0,0,0-.178-3.885q1.083.177,1.964.33,1.973.3,1.972.609,0,.381-.66.736a.576.576,0,0,0-.457.559v4.189a7.866,7.866,0,0,0,.634-.787q.762-.863.889-.863.355,0,1.194.863.837.889.837,1.066a.381.381,0,0,1-.431.432h-3.123v4.418q1.625-.356,3.123-.762l.228.381a35.791,35.791,0,0,1-3.351,2.158v7.008q0,2.032-1.258,2.59a5.848,5.848,0,0,1-2.2.66q-.254,0-.381-.736-.253-1.194-2.235-2.03l.077-.483a12.822,12.822,0,0,0,2.056.2,2.205,2.205,0,0,0,1.067-.2.72.72,0,0,0,.228-.635v-5.027a6.981,6.981,0,0,1-.914.381.72.72,0,0,0-.381.482,3.5,3.5,0,0,0-.2.432.6.6,0,0,1-.533.381q-.3,0-.813-1.955-.1-.533-.406-1.777,1.7-.28,3.25-.559V15047a27.675,27.675,0,0,0-2.844.1Zm6.678,7.414a23.724,23.724,0,0,0,3.58.2h.939a17.361,17.361,0,0,0,.965-3.047q1.32.177,2.819.482,1.244.28,1.244.711,0,.356-.991.508-.609.076-.71.432-.2.482-.381.914h4.849a8.2,8.2,0,0,0,.864-1.092q.965-1.244,1.168-1.244.507,0,1.6,1.194,1.117,1.166,1.117,1.421,0,.406-.482.406h-2.514a12.723,12.723,0,0,1-1.955,3.4,8.257,8.257,0,0,1-.838.99q.558.177,1.016.3a7.362,7.362,0,0,1,3.047,1.447,1.361,1.361,0,0,1,.431.99,1.409,1.409,0,0,1-.431,1.117,1.506,1.506,0,0,1-1.117.609,3.162,3.162,0,0,1-1.524-.914,15.687,15.687,0,0,0-2.666-1.955l-.406-.2a15.5,15.5,0,0,1-3.479,1.65,36.433,36.433,0,0,1-5.713,1.422l-.228-.432a39.088,39.088,0,0,0,4.6-1.676,13.619,13.619,0,0,0,2.843-1.828l.051-.051q-1.143-.508-2.615-1.016a.373.373,0,0,0-.076.1,1.391,1.391,0,0,1-1.422.838q-1.447,0-1.447-.838a28.412,28.412,0,0,0,2.107-3.961h-.66a26.353,26.353,0,0,0-3.149.127Zm10.08-9.166q1.371.381,2.615.762,1.219.356,1.219.787c0,.271-.22.44-.66.508s-.686.161-.737.279a7.272,7.272,0,0,1-1.421,1.8,13.994,13.994,0,0,1-1.422,1.066h2.64a7.774,7.774,0,0,0,.838-1.041q.915-1.194,1.067-1.193.507,0,1.574,1.143,1.091,1.143,1.092,1.371,0,.432-.534.432H388.778q-2.21,0-3.123.1l-.432-1.016a23.513,23.513,0,0,0,3.555.2h4.164a13.286,13.286,0,0,0,.888-2.412A21.287,21.287,0,0,0,394.389,15044.336Zm-3.682-4.367a32.519,32.519,0,0,1,3.276.457q.99.025.99.482c0,.118-.187.271-.559.457q-.66.33-.66.736v1.32h1.524a6.206,6.206,0,0,0,.888-1.092q.966-1.244,1.143-1.244.533,0,1.65,1.193t1.117,1.473c0,.271-.177.406-.533.406H389.59q-2.209,0-3.148.076l-.381-1.016a22.847,22.847,0,0,0,3.529.2h1.32v-1.219A12.709,12.709,0,0,0,390.707,15039.969Zm-2.717,4.8a9.9,9.9,0,0,1,2.692,1.117q1.143.686,1.142,1.32a1.962,1.962,0,0,1-.71,1.6,1.535,1.535,0,0,1-1.092.432.821.821,0,0,1-.635-.279,1.991,1.991,0,0,1-.432-1.066,10.185,10.185,0,0,0-1.295-2.92Zm1.752,12.873,3.276.584a10.758,10.758,0,0,0,.736-1.041,10.187,10.187,0,0,0,1.371-2.793h-3.656A26.062,26.062,0,0,1,389.742,15057.641Z" fill="#b78e66"/>
          <path id="Path_8723" data-name="Path 8723" d="M409.094,15045.072q1.189.634,2.078,1.143,1.167.609,1.168.99c0,.2-.194.321-.584.355q-.711,0-.812.229a28.015,28.015,0,0,1-1.724,2.641c.117.034.218.067.3.1.524.152.787.288.787.407a.752.752,0,0,1-.457.659.561.561,0,0,0-.33.559v10.766q0,.457-1.182.66a5.533,5.533,0,0,1-.729.076q-.907,0-.908-.736.178-2.717.178-5.483v-4.394a23.747,23.747,0,0,1-3.148,2.26l-.2-.381a26.714,26.714,0,0,0,3.3-4.469A20.4,20.4,0,0,0,409.094,15045.072Zm-1.02-5.1q1.143.661,2.006,1.092,1.143.609,1.143.965,0,.3-.533.355-.686,0-.762.254a23.506,23.506,0,0,1-2.006,2.488,14.305,14.305,0,0,1-3.783,2.666l-.229-.381a18.491,18.491,0,0,0,2.463-3.377A15.008,15.008,0,0,0,408.074,15039.969Zm2.133,12.822a26.934,26.934,0,0,0,3.555.178h6.4v-.482q0-.787-.2-2.768a24.557,24.557,0,0,1,2.869.508q1.7.3,1.7.712t-.686.71q-.736.152-.736.609v.711h.736a4.824,4.824,0,0,0,.635-.812q.736-.888.863-.889.432,0,1.27.889.863.914.863,1.117,0,.432-.381.432h-3.986v7.084a2.36,2.36,0,0,1-1.016,2.209,4.348,4.348,0,0,1-2.336.736q-.381,0-.508-.711-.228-1.167-3.021-2.335l.1-.483a21.382,21.382,0,0,0,3.25.381c.39,0,.584-.127.584-.381v-6.5h-6.4q-2.209,0-3.123.1Zm.838-9.039a22.982,22.982,0,0,0,3.529.2h2.235v-1.854a12.794,12.794,0,0,0-.2-2.234q1.7.152,3.275.432.99.051.99.508,0,.177-.558.457-.634.33-.635.762v1.93h2.311a9.3,9.3,0,0,0,.914-1.092q.964-1.244,1.142-1.244.508,0,1.6,1.194,1.118,1.166,1.117,1.421,0,.406-.508.406h-6.576v4.063h1.6a6.206,6.206,0,0,0,.888-1.092q.966-1.244,1.143-1.244.533,0,1.65,1.193t1.117,1.447c0,.288-.177.432-.533.432h-9.75q-2.208,0-3.148.1l-.406-1.016a26.916,26.916,0,0,0,3.554.178h1.016v-4.062h-2.235a26.716,26.716,0,0,0-3.148.127Zm2.514,10.867a10.439,10.439,0,0,1,2.64,1.194q.939.684.94,1.243a2.537,2.537,0,0,1-.508,1.676,1.759,1.759,0,0,1-1.32.635,1.046,1.046,0,0,1-.711-.2c-.169-.1-.3-.542-.406-1.32a7.834,7.834,0,0,0-1.016-2.92Z" fill="#b78e66"/>
          <path id="Path_8724" data-name="Path 8724" d="M431.155,15044.234a19.618,19.618,0,0,1,3.605,1.219h5v-.381a37.434,37.434,0,0,0-.3-5.1q1.347.127,3.377.457c.948.118,1.422.306,1.422.559q0,.457-.838.762-.609.177-.609.66v3.047h4.8a16.032,16.032,0,0,1,1.168-1.32q.4-.508.736-.508a4.583,4.583,0,0,1,1.65.813q1.5,1.04,1.5,1.446,0,.356-.634.736a.992.992,0,0,0-.483.787v4.443q0,1.27.1,3.453,0,.508-1.4.762-.634.051-.939.051-.686,0-.686-.812v-1.219h-5.814v3.353q0,2.537.1,5,0,.533-1.421.813a6.642,6.642,0,0,1-.915.1q-1.014,0-1.015-.914.2-2.742.2-5v-3.353H434.4v1.117q0,.558-1.4.838a7.422,7.422,0,0,1-.863.076q-.99,0-.99-.812.2-3.173.2-5.586v-.482Q431.358,15047.18,431.155,15044.234Zm3.25,9.141h5.357v-7.186H434.4Zm8.4-7.186v7.186h5.814v-7.186Z" fill="#b78e66"/>
          <path id="Path_8725" data-name="Path 8725" d="M459.059,15048.8l.635.1a52.113,52.113,0,0,1-.28,6.7,5.185,5.185,0,0,1-1.041,2.717,1.285,1.285,0,0,1-.914.432,2.2,2.2,0,0,1-1.447-.482,1.512,1.512,0,0,1-.508-1.219,3.079,3.079,0,0,1,.99-1.879,7.789,7.789,0,0,0,1.6-2.463A14.164,14.164,0,0,0,459.059,15048.8Zm2.945-3.453q1.271.1,2.869.355,1.5.229,1.5.584,0,.457-.761.736a.707.707,0,0,0-.534.661v11.5q0,.889.534,1.042a23.063,23.063,0,0,0,3.351.177,7.2,7.2,0,0,0,2.184-.279,1.433,1.433,0,0,0,.863-.609,6.739,6.739,0,0,0,.457-1.32q.281-1.27.609-3.377l.635.2q.076,2.158.076,2.691a2.279,2.279,0,0,0,.711,1.931q.915.735.914,1.243a1.552,1.552,0,0,1-.914,1.346,4.325,4.325,0,0,1-1.6.508,22.006,22.006,0,0,1-3.936.279,28.834,28.834,0,0,1-5.053-.279,1.976,1.976,0,0,1-1.421-.939,4.067,4.067,0,0,1-.28-1.8v-11.68A21.261,21.261,0,0,0,462,15045.352Zm2.235-5.18a16.3,16.3,0,0,1,5.255,2.006,2.943,2.943,0,0,1,1.245,2.361,1.986,1.986,0,0,1-.559,1.32,1.362,1.362,0,0,1-1.041.432q-1.016,0-1.727-1.523a11.96,11.96,0,0,0-3.351-4.164Zm9.166,8.43a17.468,17.468,0,0,1,4.265,3.479,4.449,4.449,0,0,1,1.219,2.641,2.8,2.8,0,0,1-.66,1.9,1.677,1.677,0,0,1-1.371.813,1.154,1.154,0,0,1-.813-.306,7.835,7.835,0,0,1-.711-2.437,16.979,16.979,0,0,0-2.463-5.687Z" fill="#b78e66"/>
        </g>
      </g>
      <g id="Group_1698" data-name="Group 1698" transform="translate(2.015 -14290.407)">
        <g id="Group_1697" data-name="Group 1697">
          <path id="Path_8726" data-name="Path 8726" d="M365.9,15053.563l2.328-2.33-2.328-2.329h-4.657v-1.164a1.165,1.165,0,0,0-2.33,0v1.164h-3.492v4.659h3.492v1.163h-4.657l-2.328,2.328,2.328,2.328h4.657v5.822h2.33v-5.822h2.328v-4.656h-2.328v-1.163Z" fill="#b78e66"/>
        </g>
      </g>
      <g id="Group_1700" data-name="Group 1700" transform="translate(2.015 -14290.407)">
        <g id="Group_1699" data-name="Group 1699">
          <path id="Path_8727" data-name="Path 8727" d="M378.723,15087.63a18.24,18.24,0,0,1,3.123,1.144h2.082q.355-.435.559-.687.76-.762,1.041-.762a4.31,4.31,0,0,1,1.675.889q1.168.914,1.168,1.244,0,.278-.558.711c-.491.32-.737.635-.737.939v17.57a1.99,1.99,0,0,1-1.345,1.828,4.581,4.581,0,0,1-1.8.482q-.281,0-.533-.889-.3-1.093-2.438-1.827l.1-.534a17.792,17.792,0,0,0,2.869.3q.381,0,.381-.686v-6.4h-2.844c-.051.676-.118,1.32-.2,1.93a17.542,17.542,0,0,1-1.244,4.621,17.085,17.085,0,0,1-2.108,3.4l-.406-.2a29.88,29.88,0,0,0,1.067-5.229,83.669,83.669,0,0,0,.355-8.989Q378.926,15090.345,378.723,15087.63Zm2.793,12.594h2.793v-5.281h-2.717v1.549Q381.592,15098.521,381.516,15100.224Zm.076-5.967h2.717v-4.8h-2.717Zm7.084-6.4a12.422,12.422,0,0,1,3.072,1.117h4.545a7.392,7.392,0,0,1,.711-.762q.711-.686.94-.686c.288,0,.761.295,1.421.889q1.3,1.014,1.3,1.574,0,.278-.736.584c-.457.186-.685.364-.685.533q0,3.58-.661,4.266a2.488,2.488,0,0,1-1.371.838,4.441,4.441,0,0,1-1.3.279c-.169,0-.3-.34-.381-1.016q-.279-.94-2.589-1.93l.1-.406a16.606,16.606,0,0,0,2.565.2,1.912,1.912,0,0,0,.685-.1c.169-.068.271-.33.3-.787a22.561,22.561,0,0,0,.127-2.793h-5.281v7.77q1.117.076,1.929.076h3.25a4.833,4.833,0,0,1,.635-.66c.372-.391.66-.584.863-.584a4.4,4.4,0,0,1,1.473.965q1.4,1.014,1.4,1.4c0,.2-.219.363-.66.482-.508.135-.8.313-.888.533a21.638,21.638,0,0,1-2.311,5.764,16.9,16.9,0,0,0,4.164,2.336l-.1.534a2.651,2.651,0,0,0-1.549,1.192q-.406.914-.686.914c-.254,0-.711-.289-1.371-.863a13.521,13.521,0,0,1-2.006-2.031,16.083,16.083,0,0,1-3.859,3.123l-.178-.33a19.908,19.908,0,0,0,2.565-3.58,3.583,3.583,0,0,0,.38-.711,12.65,12.65,0,0,1-1.168-2.336,25.766,25.766,0,0,1-1.345-5.434c-.2.016-.381.025-.533.025v11.73c0,.3-.4.523-1.194.66a6.174,6.174,0,0,1-.761.076q-.813,0-.813-.736.228-2.566.229-4.545v-13.405Q388.9,15090.293,388.676,15087.858Zm3.986,10.359a20.47,20.47,0,0,0,1.4,3.58,9.4,9.4,0,0,0,1.371,1.98c.118-.3.228-.619.33-.939a23.574,23.574,0,0,0,1.066-4.646Q394.186,15098.192,392.662,15098.218Z" fill="#b78e66"/>
          <path id="Path_8728" data-name="Path 8728" d="M403.5,15095.577a20.544,20.544,0,0,0,3.555.279h5.18a7.633,7.633,0,0,0,.609-.533,1.969,1.969,0,0,1,1.041-.584q.4,0,1.549.991,1.167.989,1.168,1.345t-.965.406a2.343,2.343,0,0,0-1.067.229,23.945,23.945,0,0,1-2.919,2.234l-.229-.2a25.068,25.068,0,0,0,.914-3.148h-1.295v11.248q0,1.928-1.219,2.463a4.053,4.053,0,0,1-1.752.609q-.279,0-.482-.889-.33-1.219-2.437-2.082l.1-.381a13.977,13.977,0,0,0,2.539.279c.321,0,.483-.238.483-.711v-5.662a14.241,14.241,0,0,1-1.981,2.641,13.461,13.461,0,0,1-2.59,2.031l-.1-.33a17.165,17.165,0,0,0,2.259-3.834,33.615,33.615,0,0,0,1.727-5.383h-.533a23.226,23.226,0,0,0-3.149.2Zm9.268-8.049a3.8,3.8,0,0,1,1.675.965q1.245.964,1.245,1.5,0,.278-.965.381a2.9,2.9,0,0,0-1.27.3,20.384,20.384,0,0,1-2.513,2.006,1.745,1.745,0,0,1,.584,1.244,1.9,1.9,0,0,1-.559,1.295,1.33,1.33,0,0,1-1.041.457q-.786,0-1.32-1.143a8.9,8.9,0,0,0-2.565-3.123l.229-.406a17.929,17.929,0,0,1,3.605,1.041l1.168-2.691h-4.291a13.253,13.253,0,0,0-2.514.2l-.431-1.219a15.829,15.829,0,0,0,2.945.306h4.088q.66-.458,1.117-.763A1.588,1.588,0,0,1,412.772,15087.528Zm-.127,14.016a14.68,14.68,0,0,0,3.148.33h1.549a19.324,19.324,0,0,0,.2-2.844,21.642,21.642,0,0,1,2.361.33c1.134.2,1.7.4,1.7.584,0,.254-.178.439-.534.559q-.584.2-.584.457-.075.48-.152.914h1.955a5.959,5.959,0,0,1,.686-.787q.609-.661.965-.66a3.613,3.613,0,0,1,1.548.914q1.168.938,1.168,1.32c0,.153-.143.338-.431.559a1.171,1.171,0,0,0-.457.787,33.343,33.343,0,0,1-.432,3.783,5.147,5.147,0,0,1-.66,1.93,2.248,2.248,0,0,1-1.371.863,7.3,7.3,0,0,1-1.5.229q-.406,0-.635-.838-.254-1.219-2.717-2.234l.1-.381a32.509,32.509,0,0,0,3.351.381.454.454,0,0,0,.432-.229,6.945,6.945,0,0,0,.33-1.98q.153-1.55.152-2.971H420.16a12.027,12.027,0,0,1-1.4,3.707,8.053,8.053,0,0,1-2.666,2.666,18.814,18.814,0,0,1-4.443,1.98l-.229-.406a20.315,20.315,0,0,0,3.352-2.666,7.819,7.819,0,0,0,1.777-2.768,14.533,14.533,0,0,0,.685-2.514h-1.447a11.5,11.5,0,0,0-2.717.2Zm4.164-14.7q1.117.3,2.26.711,1.318.4,1.32.686,0,.381-.66.559-.787.126-.787.381c-.153.371-.3.711-.432,1.016h4.316q.025,0,.762-.812.966-1.143,1.27-1.143.279,0,1.65,1.27c.575.523.863.847.863.965,0,.27-.161.406-.482.406H425.01a15.091,15.091,0,0,1-1.752,3.555,8.13,8.13,0,0,1-.863,1.168q.279.126.558.229a20.777,20.777,0,0,0,4.52,1.244l-.178.533a2.541,2.541,0,0,0-1.447,1.422q-.254.914-.406.914a8.055,8.055,0,0,1-2.209-.863,12.038,12.038,0,0,1-2.717-1.8,13.9,13.9,0,0,1-2.641,1.4,25.934,25.934,0,0,1-5.1,1.447l-.229-.381a27.092,27.092,0,0,0,4.012-1.8,10.88,10.88,0,0,0,2.514-1.905.55.55,0,0,0,.1-.127,10.338,10.338,0,0,1-.939-1.473,16.669,16.669,0,0,1-1.067-2.184q-.279.3-.508.533a9.665,9.665,0,0,1-2.285,1.574l-.279-.432a12.418,12.418,0,0,0,1.752-3.071A17.472,17.472,0,0,0,416.809,15086.843Zm.863,4.748a10.083,10.083,0,0,0,2.438,2.742,1.39,1.39,0,0,0,.2.127c.118-.221.237-.441.355-.66a12.2,12.2,0,0,0,1.194-2.92h-3.707a4.35,4.35,0,0,1-.407.584A1.1,1.1,0,0,0,417.672,15091.591Z" fill="#b78e66"/>
          <path id="Path_8729" data-name="Path 8729" d="M429.606,15103.677a23.628,23.628,0,0,0,3.554.2h11.782v-.2q0-.712-.2-2.514a19.323,19.323,0,0,1,2.691.483q1.575.3,1.574.71,0,.354-.66.635-.635.176-.635.584v.3h1.8a5.235,5.235,0,0,0,.812-.889q.864-1.015,1.016-1.016.457,0,1.4.99c.626.676.939,1.092.939,1.244a.337.337,0,0,1-.381.381h-5.586v3.148a2.53,2.53,0,0,1-.965,2.285,3.726,3.726,0,0,1-2.183.787q-.457,0-.559-.736-.254-1.169-3.224-2.336l.127-.482a29.631,29.631,0,0,0,3.453.3c.389,0,.584-.145.584-.432v-2.539H433.16q-2.208,0-3.148.1Zm.1-14.32a23.643,23.643,0,0,0,3.555.2h6.7a17.236,17.236,0,0,0-.3-2.514q1.119.1,2.895.406c.914.153,1.371.321,1.371.508,0,.254-.229.473-.686.66a.667.667,0,0,0-.533.66v.279h5.586a8.855,8.855,0,0,0,.889-1.092q.965-1.245,1.142-1.244.534,0,1.651,1.193t1.117,1.473c0,.27-.178.406-.533.406h-9.852v1.93H446.8a9.61,9.61,0,0,1,1.041-1.117.953.953,0,0,1,.686-.432,4.177,4.177,0,0,1,1.422.711q1.295.889,1.3,1.219,0,.354-.508.711a.879.879,0,0,0-.407.711v1.016q0,1.192.1,3.25,0,.507-1.295.736a3.068,3.068,0,0,1-.482.051,8.24,8.24,0,0,1,1.65.609,1.475,1.475,0,0,1,.94,1.27,1.646,1.646,0,0,1-.458,1.066,1.137,1.137,0,0,1-.837.33,1.46,1.46,0,0,1-1.245-.914,6.947,6.947,0,0,0-.812-1.143,95.016,95.016,0,0,1-14.93,2.361c-.085,0-.143.153-.177.457-.068.3-.169.457-.3.457-.339,0-.618-.391-.838-1.168q-.228-.609-.711-1.98,4.443,0,9.064-.229v-1.9h-4.8v.432c0,.32-.407.559-1.219.711a6.233,6.233,0,0,1-.813.076.7.7,0,0,1-.787-.787q.1-1.348.1-2.666v-1.4a31.843,31.843,0,0,0-.2-3.656,20.308,20.308,0,0,1,3.326,1.219h4.392v-1.93h-6.728q-2.209,0-3.123.076Zm4.7,15.54a13.655,13.655,0,0,1,3.58,1.065,1.564,1.564,0,0,1,.888,1.295,2.1,2.1,0,0,1-.685,1.447,1.5,1.5,0,0,1-1.143.457q-.609,0-1.015-.99a7.292,7.292,0,0,0-1.956-2.742Zm.787-10.056h4.8v-1.93h-4.8Zm0,2.768h4.8v-2.031h-4.8Zm7.515-4.7v1.93h4.9v-1.93Zm0,2.666v2.031h4.9v-2.031Zm4.571,4.164a5.942,5.942,0,0,0-1.016-.812l.228-.3q.686.126,1.27.254a.96.96,0,0,1-.152-.584h-4.9v1.752Q444.993,15099.917,447.278,15099.741Z" fill="#b78e66"/>
          <path id="Path_8730" data-name="Path 8730" d="M461.522,15090.677q1.218.431,2.336.838t1.117.914c0,.152-.194.254-.584.3-.372.051-.584.109-.635.178a30.667,30.667,0,0,1-4.24,4.9q1.65-.076,3.148-.229a10.225,10.225,0,0,0-.736-1.9l.178-.2a9.137,9.137,0,0,1,2.336,1.625,2.913,2.913,0,0,1,.812,1.727,1.949,1.949,0,0,1-.33,1.168,1.4,1.4,0,0,1-.965.432.93.93,0,0,1-.685-.229,2.963,2.963,0,0,1-.381-1.4c-.017-.152-.042-.314-.076-.482-.372.236-.737.447-1.092.635v7.186q0,2.411.1,3.834c0,.3-.431.523-1.295.66a7.386,7.386,0,0,1-.837.076q-.635,0-.635-.736.1-1.321.1-3.834v-2.336c-.067.016-.152.033-.254.052-.372.065-.584.151-.634.253a18.967,18.967,0,0,1-1.092,3.072,16.861,16.861,0,0,1-1.574,2.514l-.28-.3q.357-1.8.559-3.352.2-1.626.355-3.859,1.143.3,2.209.609a3.729,3.729,0,0,1,.711.3v-3.021q-.533.2-1.091.355c-.22.016-.33.084-.33.2a1.807,1.807,0,0,0-.077.381c-.067.22-.169.33-.3.33q-.508,0-1.194-1.752-.2-.483-.66-1.6,1.371-.053,2.615-.1A29.951,29.951,0,0,0,461.522,15090.677Zm-2.844-3.352q1.194.431,2.336.838,1.09.4,1.092.914c0,.153-.187.254-.559.3-.39.051-.6.109-.635.178a18,18,0,0,1-2.666,3,5.98,5.98,0,0,1,.559.381,2.092,2.092,0,0,1,.787,1.625,1.563,1.563,0,0,1-.508,1.066,1.055,1.055,0,0,1-.812.33q-.558,0-.94-1.066a8.809,8.809,0,0,0-1.828-3l.2-.306a15.661,15.661,0,0,1,1.676.559A28.006,28.006,0,0,0,458.678,15087.325Zm3.428,14.752a8.815,8.815,0,0,1,2.336,1.6,2.705,2.705,0,0,1,.812,1.65,1.979,1.979,0,0,1-.355,1.244,1.493,1.493,0,0,1-1.041.457.931.931,0,0,1-.686-.229,2.883,2.883,0,0,1-.381-1.371,8.573,8.573,0,0,0-.965-3.072Zm7.515-14.854q1.549.252,2.514.482,1.371.278,1.371.635c0,.152-.228.295-.685.433q-.56.1-.661.3a9.027,9.027,0,0,1-2.234,1.5H473.4c.372-.406.736-.771,1.091-1.092a1.112,1.112,0,0,1,.711-.406,4.729,4.729,0,0,1,1.5.711c.914.625,1.371,1.067,1.371,1.32q0,.328-.558.686a.986.986,0,0,0-.356.736v2.945q0,1.194.077,3.25c0,.32-.423.559-1.27.711a7.422,7.422,0,0,1-.863.076c-.474,0-.711-.264-.711-.787v-.1h-1.422a16.746,16.746,0,0,0,1.346,3.783.973.973,0,0,0,.177.254c.085-.137.161-.271.229-.406a12.51,12.51,0,0,0,1.015-2.209q1.245.785,2.311,1.447,1.041.735,1.041,1.066a.382.382,0,0,1-.432.432l-1.421-.229a13.679,13.679,0,0,1-2.108.914,8.5,8.5,0,0,0,1.244,1.4,13.405,13.405,0,0,0,3.1,1.955l-.1.432a2.739,2.739,0,0,0-1.523,1.5q-.481.914-.686.914-.279,0-1.091-.965a13.116,13.116,0,0,1-1.7-2.615,26.634,26.634,0,0,1-1.091-3.123q-.281-1.093-.483-2.412v7.39a2.474,2.474,0,0,1-1.219,2.487,4.329,4.329,0,0,1-1.752.559q-.279,0-.482-.812-.33-1.143-2.437-1.9l.1-.432c.982.066,1.828.1,2.539.1.321,0,.483-.229.483-.687v-4.113a1.526,1.526,0,0,0-.584.33,18.419,18.419,0,0,1-2.87,3.758,15.78,15.78,0,0,1-3.351,2.539l-.178-.178a20.084,20.084,0,0,0,2.311-3.377,27.46,27.46,0,0,0,1.752-3.961,24.561,24.561,0,0,0-2.946.1l-.406-1.016a4.74,4.74,0,0,0,1.549.229h1.6c.253-.306.44-.519.558-.636q.558-.609.863-.609.432,0,1.524.965c.067.051.127.092.178.127v-3h-1.8v.406c0,.32-.415.559-1.244.711a5.319,5.319,0,0,1-.787.1q-.838,0-.838-.736a11.512,11.512,0,0,0,.1-1.6v-5.814a13.438,13.438,0,0,0-.2-2.133,22.934,22.934,0,0,1,2.971,1.016h.914A12.336,12.336,0,0,0,469.621,15087.224Zm-1.4,7.135h6.17v-3.047h-6.17Zm0,3.555h6.17v-2.869h-6.17Z" fill="#b78e66"/>
        </g>
      </g>
      <g id="Group_1702" data-name="Group 1702" transform="translate(2.015 -14290.407)">
        <g id="Group_1701" data-name="Group 1701">
          <path id="Path_8731" data-name="Path 8731" d="M368.341,15105.078l-.082-.249a2.345,2.345,0,0,0-1.432-1.354l-2.19-.6a2.145,2.145,0,0,0-1.876.49l-.792.793a8.412,8.412,0,0,1-5.916-5.917l.793-.793a2.143,2.143,0,0,0,.489-1.874l-.6-2.191a2.348,2.348,0,0,0-1.355-1.432l-.25-.084a1.988,1.988,0,0,0-1.851.437l-1.185,1.188a2.173,2.173,0,0,0-.348.814,13.992,13.992,0,0,0,14.118,14.151,2.193,2.193,0,0,0,.852-.344l1.185-1.186a1.982,1.982,0,0,0,.436-1.852Z" fill="#b78e66"/>
        </g>
      </g>
      <rect id="Rectangle_201" data-name="Rectangle 201" width="92.861" height="0.863" transform="translate(551.94 665.168)" fill="#b78e66"/>
      <g id="Group_1704" data-name="Group 1704" transform="translate(2.015 -14290.407)">
        <g id="Group_1703" data-name="Group 1703">
          <path id="Path_8732" data-name="Path 8732" d="M496.6,14923.927a71.329,71.329,0,0,1-3.08,8.457,51.051,51.051,0,0,1-10.248,1.344c-13.384,0-20.216-8.9-20.216-18.7,0-11.425,8.679-19.319,21.223-19.319a57.115,57.115,0,0,1,10.584,1.288c.224,2.519.617,5.88,1.065,8.679l-1.737.394c-1.12-3.753-2.463-6.05-5.32-7.226a15.321,15.321,0,0,0-5.88-1.063c-9.24,0-14.111,6.832-14.111,16.071,0,10.81,5.6,17.752,14.672,17.752,5.712,0,8.512-2.631,11.367-8.229Z" fill="#b78e66"/>
          <path id="Path_8733" data-name="Path 8733" d="M521.014,14895.7a18,18,0,0,1,18.143,18.479c0,12.041-8.175,19.545-18.479,19.545-10.752,0-18.592-8.176-18.592-18.7C502.086,14905,509.2,14895.7,521.014,14895.7Zm-1.12,2.071c-6.272,0-11.984,5.265-11.984,15.735,0,10.416,5.712,18.088,13.663,18.088,6.777,0,11.872-5.039,11.872-15.848C533.445,14903.992,527.23,14897.775,519.894,14897.775Z" fill="#b78e66"/>
          <path id="Path_8734" data-name="Path 8734" d="M583.285,14898.056c-3.584.394-4.76.951-4.928,3.527-.056,1.793-.167,4.145-.167,9.352v22.457h-2.128l-23.968-29.289v14c0,5.041.168,7.561.279,9.186.112,2.855,1.513,3.7,5.544,4.032v1.567H544.31v-1.567c3.471-.28,4.815-1.121,5.04-3.864.168-1.793.279-4.312.279-9.408v-14.281a4.877,4.877,0,0,0-1.119-3.694c-1.065-1.4-2.24-1.737-4.985-2.017v-1.567h8.4l23.743,28.168v-13.722c0-5.207-.111-7.614-.279-9.295-.169-2.52-1.456-3.3-5.937-3.584v-1.567h13.832Z" fill="#b78e66"/>
          <path id="Path_8735" data-name="Path 8735" d="M617.668,14905.281a21.283,21.283,0,0,0-1.792-4.649c-.9-1.512-1.456-1.9-4.536-1.9h-5.6V14926c0,4.37.449,4.985,5.769,5.321v1.567h-16.3v-1.567c5.208-.336,5.655-.9,5.655-5.321v-27.271h-5.1c-3.081,0-3.976.337-4.928,2.017a25.6,25.6,0,0,0-1.848,4.537h-1.681c.336-3.416.672-6.946.84-10.081h1.288c.841,1.344,1.456,1.288,3.025,1.288h22.176a2.813,2.813,0,0,0,2.856-1.288h1.344c0,2.631.223,6.665.5,9.911Z" fill="#b78e66"/>
          <path id="Path_8736" data-name="Path 8736" d="M639.732,14932.888v-1.567c3.64-.448,4.087-1.009,3.3-3.138-.728-2.184-1.848-4.982-3.024-8.512h-12.1c-.9,2.521-1.736,4.705-2.52,7-1.232,3.641-.448,4.088,4.144,4.649v1.567H616.6v-1.567c3.528-.448,4.423-.84,6.384-5.881l11.592-29.4,1.792-.336c3.527,9.577,7.392,20.159,10.92,29.848,1.792,4.871,2.3,5.32,6.272,5.769v1.567Zm-5.6-29.848c-1.792,4.815-3.7,9.913-5.376,14.336h10.472Z" fill="#b78e66"/>
          <path id="Path_8737" data-name="Path 8737" d="M689.067,14923.927a70.974,70.974,0,0,1-3.08,8.457,51.041,51.041,0,0,1-10.248,1.344c-13.383,0-20.216-8.9-20.216-18.7,0-11.425,8.68-19.319,21.224-19.319a57.127,57.127,0,0,1,10.584,1.288c.224,2.519.616,5.88,1.065,8.679l-1.737.394c-1.12-3.753-2.464-6.05-5.32-7.226a15.321,15.321,0,0,0-5.88-1.063c-9.24,0-14.111,6.832-14.111,16.071,0,10.81,5.6,17.752,14.672,17.752,5.712,0,8.511-2.631,11.367-8.229Z" fill="#b78e66"/>
          <path id="Path_8738" data-name="Path 8738" d="M723.954,14905.281a21.283,21.283,0,0,0-1.792-4.649c-.9-1.512-1.456-1.9-4.536-1.9h-5.6V14926c0,4.37.449,4.985,5.769,5.321v1.567H701.5v-1.567c5.208-.336,5.656-.9,5.656-5.321v-27.271h-5.1c-3.08,0-3.976.337-4.928,2.017a25.6,25.6,0,0,0-1.848,4.537H693.6c.336-3.416.671-6.946.839-10.081h1.289c.84,1.344,1.456,1.288,3.024,1.288H720.93a2.813,2.813,0,0,0,2.856-1.288h1.344c0,2.631.224,6.665.5,9.911Z" fill="#b78e66"/>
        </g>
      </g>
    </g>
  </g>
</svg>
