<?xml version="1.0" encoding="utf-8"?>
<!-- Generator: Adobe Illustrator 24.0.3, SVG Export Plug-In . SVG Version: 6.00 Build 0)  -->
<svg version="1.1" id="圖層_1" xmlns="http://www.w3.org/2000/svg" xmlns:xlink="http://www.w3.org/1999/xlink" x="0px" y="0px"
	 viewBox="0 0 267 119" style="enable-background:new 0 0 267 119;" xml:space="preserve">
<style type="text/css">
	.st0{fill:#BB9167;}
	.st1{fill:#FFFFFF;}
</style>
<g>
	<path class="st0" d="M6.2,9.1C7,9.3,7.7,9.6,8.4,9.8c0.7,0.3,1,0.5,1,0.8c0,0.1-0.2,0.2-0.5,0.3C8.6,11,8.4,11,8.3,11.1
		c-1.1,1.1-2.4,2.2-3.8,3.1c1,0,2-0.1,2.8-0.1c-0.2-0.4-0.3-0.8-0.6-1.2L7,12.7c0.5,0.3,1,0.5,1.4,0.7c0.8-1.2,1.4-2.2,1.9-3.2
		c0.5-1.2,0.9-2.5,1.3-4.1c0.8,0.2,1.7,0.4,2.4,0.7c0.7,0.2,1.1,0.5,1.1,0.7S14.9,7.9,14.5,8c-0.4,0.1-0.7,0.1-0.7,0.3
		c-0.3,0.6-0.6,1.1-0.9,1.6l0.5,0.2h2.3c0.1-0.4,0.3-0.9,0.5-1.5s0.3-1.3,0.4-2.1c0.8,0.3,1.5,0.5,2.2,0.6C19.6,7.3,20,7.5,20,7.7
		s-0.2,0.4-0.7,0.4c-0.3,0.1-0.5,0.2-0.6,0.3c-0.3,0.4-0.7,0.8-1.1,1C17.3,9.6,17,9.8,16.7,10h2.7c0,0,0.2-0.2,0.6-0.6
		c0.5-0.6,0.8-0.9,1-0.9s0.6,0.3,1.3,1c0.5,0.4,0.7,0.7,0.7,0.8c0,0.3-0.1,0.4-0.4,0.4h-3.7v2.8h0.3c0,0,0.2-0.2,0.6-0.6
		c0.5-0.6,0.8-0.8,0.9-0.8c0.2,0,0.6,0.3,1.3,1c0.4,0.4,0.6,0.6,0.6,0.8c0,0.3-0.1,0.4-0.3,0.4h-3.5v2.9h0.4c0,0,0.2-0.2,0.6-0.5
		c0.4-0.5,0.7-0.8,0.9-0.8c0.2,0,0.6,0.3,1.2,0.9c0.4,0.4,0.6,0.6,0.6,0.7c0,0.3-0.1,0.4-0.3,0.4h-3.4v3.5h0.7c0,0,0.3-0.2,0.7-0.7
		c0.6-0.6,0.9-1,1.1-1s0.6,0.4,1.4,1.1c0.5,0.4,0.8,0.7,0.8,0.8c0,0.3-0.1,0.4-0.4,0.4h-9.5v0.8c0,0.3-0.4,0.5-1.2,0.7
		c-0.3,0.1-0.6,0.1-0.8,0.1c-0.6,0-0.9-0.2-0.9-0.7c0.1-1.2,0.2-2.3,0.2-3.6v-7.1c-0.6,0.5-1.2,1.1-1.9,1.6c0.2,0.2,0.4,0.3,0.5,0.4
		c0.6,0.6,0.9,1.1,0.9,1.5c0,0.5-0.1,0.9-0.4,1.2c-0.3,0.3-0.6,0.4-1,0.4c-0.3,0-0.6-0.1-0.7-0.2C8.1,17,8,16.5,7.9,15.8
		c0-0.4-0.1-0.7-0.3-1c-0.4,0.2-0.8,0.4-1.2,0.6V19c0,1.6,0,3,0.1,3.9c0,0.3-0.4,0.5-1.3,0.7c-0.4,0.1-0.7,0.1-0.8,0.1
		c-0.5,0-0.7-0.2-0.7-0.7c0.1-0.9,0.1-2.1,0.1-3.6l0,0c-0.4,0.1-0.6,0.1-0.6,0.2c-0.4,0.8-0.8,1.4-1.3,2C1.4,22,0.8,22.5,0,23.1
		l-0.3-0.3c0.4-0.8,0.7-1.6,1-2.3c0.2-0.8,0.4-1.7,0.6-2.7C2,18,2.7,18.2,3.4,18.4c0.2,0.1,0.4,0.1,0.5,0.2v-2.1
		c-0.5,0.1-0.9,0.3-1.4,0.4c-0.2,0-0.4,0.1-0.4,0.2C2,17,2,17,1.9,17.2c0,0.2-0.1,0.3-0.2,0.3c-0.3,0-0.7-0.5-1.1-1.6
		C0.5,15.5,0.3,15,0,14.3c1,0,1.9,0,2.8-0.1C4.3,12.6,5.4,10.9,6.2,9.1z M1.1-0.2C2.2,0.1,3.3,0.5,4.4,1h14.1
		c0.3-0.4,0.6-0.7,0.8-0.9c0.2-0.2,0.4-0.4,0.7-0.4c0.3,0,0.8,0.3,1.5,0.8c0.8,0.6,1.3,1,1.3,1.2s-0.2,0.4-0.5,0.6s-0.5,0.4-0.6,0.6
		v3.4c0,0.3-0.4,0.5-1.3,0.6C20,7,19.7,7,19.6,7c-0.5,0-0.7-0.2-0.7-0.7V5.8H4.1V6c0,0.1,0,0.1,0,0.1C4.8,6.3,5.4,6.5,6,6.7
		C6.7,7,7,7.2,7,7.5c0,0.1-0.2,0.2-0.6,0.3C6,7.9,5.9,8,5.8,8.1C5,9,4.1,9.8,3,10.6c0.2,0.1,0.3,0.1,0.5,0.2c0.5,0.3,0.7,0.7,0.7,1
		S4,12.6,3.7,13c-0.2,0.2-0.5,0.4-0.9,0.4c-0.3,0-0.6-0.3-0.9-0.8c-0.3-0.8-0.9-1.5-1.7-2.2L0.5,10c0.6,0.1,1.1,0.3,1.5,0.4
		c0.6-1.2,1.1-2.5,1.4-3.8c-0.1,0-0.3,0.1-0.6,0.1C2.4,6.8,2.1,6.8,1.9,6.8C1.4,6.8,1.1,6.5,1.1,6c0.1-0.5,0.1-1,0.1-1.7V2
		C1.3,1.4,1.2,0.7,1.1-0.2z M4.1,5.1h3V1.8h-3V5.1z M7.1,17.4c1,0.4,1.7,0.9,2.2,1.3c0.6,0.5,0.9,1.1,0.9,1.5c0,0.6-0.2,1.1-0.7,1.4
		c-0.3,0.3-0.6,0.4-1,0.4c-0.2,0-0.3-0.1-0.5-0.3c-0.1-0.2-0.2-0.5-0.3-1.1c-0.1-0.9-0.5-1.9-1-3.1L7.1,17.4z M9.8,5.1h3.1V1.8H9.8
		V5.1z M16.2,13.5v-2.8h-2.6v2.8H16.2z M16.2,17.2v-2.9h-2.6v2.9H16.2z M16.2,21.4v-3.5h-2.6v3.5H16.2z M15.7,5.1h3.2V1.8h-3.2V5.1z
		"/>
	<path class="st0" d="M26.2,2.9c0.8,0.1,2,0.2,3.6,0.2H36c0-1.2-0.1-2.3-0.2-3.2c0.8,0.1,1.9,0.2,3.1,0.5c0.9,0.1,1.3,0.3,1.3,0.6
		s-0.3,0.5-0.8,0.6c-0.4,0-0.6,0.2-0.6,0.4v1h5.3c0.1,0,0.4-0.3,0.9-1c0.6-0.8,1-1.2,1.1-1.2c0.3,0,0.9,0.4,1.6,1.2
		c0.7,0.8,1.1,1.3,1.1,1.4c0,0.3-0.2,0.4-0.5,0.4h-9.5v2.6h3.5c0.4-0.5,0.8-0.9,1.1-1.2s0.5-0.5,0.7-0.5s0.7,0.2,1.5,0.7
		C46.6,6,47,6.5,47,6.7c0,0.3-0.2,0.5-0.6,0.8C46.2,7.7,46,8,46,8.3v3.2c0,0.8,0,1.9,0.1,3.4c0,0.3-0.4,0.6-1.3,0.7
		c-0.4,0.1-0.7,0.1-0.9,0.1c-0.5,0-0.7-0.3-0.7-0.8v-0.6h-3.9c1.5,1.4,3.1,2.5,4.7,3.2c1.8,0.8,3.7,1.4,5.5,1.7l-0.1,0.6
		c-0.7,0.2-1.2,0.7-1.5,1.5c-0.2,0.6-0.4,0.9-0.6,0.9c-0.3,0-1.1-0.4-2.4-1.2c-1.3-0.7-2.5-1.7-3.7-2.9c-0.9-1-1.7-2-2.4-3v3.1
		c0,1.6,0,3.1,0.1,4.6c0,0.3-0.5,0.6-1.4,0.8c-0.4,0.1-0.7,0.1-0.9,0.1c-0.6,0-0.9-0.3-0.9-0.8c0.2-1.7,0.2-3.2,0.2-4.6v-1.6
		c-0.6,0.7-1.2,1.3-1.8,1.8c-1.1,0.9-2.4,1.7-3.8,2.4c-1.4,0.7-3,1.3-4.7,1.8l-0.2-0.4c1.8-0.8,3.5-1.9,5.1-3.2
		c1.5-1.3,2.8-2.8,3.8-4.5h-2.7V15c0,0.3-0.4,0.6-1.3,0.7c-0.4,0.1-0.6,0.1-0.8,0.1c-0.5,0-0.8-0.3-0.8-0.8c0.1-0.9,0.1-1.8,0.1-2.8
		V8.8c0-1.3-0.1-2.5-0.2-3.7c1.2,0.3,2.4,0.7,3.7,1.3H36V3.8h-6.2c-1.5,0-2.5,0-3.1,0.1L26.2,2.9z M31.7,10H36V7.1h-4.3V10z
		 M31.7,13.5H36v-2.9h-4.3V13.5z M38.8,7.1V10h4.4V7.1H38.8z M38.8,10.7v2.9h4.4v-2.9C43.2,10.7,38.8,10.7,38.8,10.7z"/>
	<path class="st0" d="M51.7,5.6c0.8,0.2,2,0.2,3.6,0.2h0.5V4.2c0-1.7-0.1-3.1-0.2-4.4c0.8,0.1,1.8,0.2,2.9,0.4
		c0.8,0.1,1.2,0.3,1.2,0.5c0,0.3-0.3,0.5-0.8,0.6c-0.4,0.1-0.6,0.3-0.6,0.6v3.9h0.3c0.1,0,0.3-0.3,0.6-0.7c0.5-0.5,0.7-0.8,0.8-0.8
		c0.2,0,0.6,0.3,1.1,0.8C61.7,5.7,62,6,62,6.1c0,0.3-0.1,0.4-0.3,0.4h-3.2v2.6c1.4,0.5,2.4,1,3,1.6s1,1.4,1,2.3
		c0,0.4-0.2,0.8-0.5,1.1c-0.2,0.3-0.5,0.4-0.9,0.4c-0.5,0-0.9-0.5-1.3-1.4c-0.3-0.8-0.7-1.7-1.3-2.5v12c0,0.3-0.4,0.6-1.2,0.8
		c-0.3,0.1-0.6,0.1-0.7,0.1c-0.6,0-0.9-0.3-0.9-0.8c0.1-1.5,0.2-3,0.2-4.3v-5.7c-0.6,1.2-1.2,2-1.8,2.7c-0.6,0.9-1.3,1.6-2.1,2.3
		l-0.4-0.2c1.9-3.8,3.3-7.4,4-10.9h-0.3c-1.5,0-2.5,0-3.1,0.1L51.7,5.6z M62.1,5.7c0.8,0.2,2,0.2,3.6,0.2h0.6V4.7
		c0-1.8-0.1-3.4-0.2-4.8C66.9,0,68,0.1,69.2,0.4c0.9,0.1,1.3,0.3,1.3,0.6s-0.3,0.5-0.8,0.7c-0.4,0.1-0.6,0.3-0.6,0.6v3.8h1.7
		c0.1,0,0.3-0.3,0.8-0.9c0.6-0.7,0.9-1,1-1c0.3,0,0.8,0.3,1.4,1s0.9,1.1,0.9,1.2c0,0.3-0.1,0.4-0.4,0.4h-5.2c0.9,2.9,1.9,5,2.9,6.5
		c1.1,1.5,2.2,2.6,3.3,3.2L75.4,17c-0.8,0.2-1.4,0.8-1.7,1.7c-0.2,0.6-0.4,1-0.7,1c-0.2,0-0.6-0.6-1.2-1.9C71.2,16.6,70.6,15,70,13
		c-0.3-1.1-0.6-2.3-0.9-3.5v8.6c0,1.6,0,3.1,0.1,4.6c0,0.3-0.4,0.6-1.3,0.8c-0.4,0.1-0.7,0.1-0.9,0.1c-0.6,0-0.9-0.3-0.9-0.8
		c0.2-1.7,0.2-3.2,0.2-4.6V12c-0.3,0.6-0.5,1.1-0.7,1.6c-0.8,1.5-1.7,2.8-2.7,3.9c-1,1.2-2.1,2.1-3.3,2.9L59.3,20
		c1.2-1.4,2.3-3.3,3.3-5.5c1-2.3,1.9-4.9,2.6-7.9c-1.3,0-2.2,0-2.8,0.1L62.1,5.7z"/>
	<path class="st0" d="M84.1,6.6c1.3,0.2,2.3,0.5,2.8,0.8c0.4,0.2,0.7,0.5,0.7,0.9c0,0.5-0.2,0.9-0.6,1.3c-0.1,0.1-0.1,0.1-0.2,0.2
		h4.3c0.1-0.3,0.3-0.7,0.4-1.2s0.2-1.1,0.3-1.9C92.6,7,93.3,7.2,94,7.3c0.8,0.2,1.2,0.4,1.2,0.6c0,0.2-0.2,0.4-0.7,0.4
		c-0.4,0.1-0.6,0.2-0.7,0.3c-0.3,0.4-0.6,0.7-1,0.9c-0.2,0.1-0.3,0.2-0.5,0.3h2.8c0.1,0,0.4-0.4,0.9-1c0.6-0.8,1-1.1,1.1-1.1
		c0.3,0,0.8,0.4,1.5,1.1s1,1.2,1,1.3c0,0.3-0.2,0.4-0.5,0.4h-8.6v2.2h3.2c0.1,0,0.3-0.3,0.8-0.9c0.6-0.7,0.9-1,1-1
		c0.3,0,0.7,0.3,1.4,1c0.6,0.7,1,1.1,1,1.2c0,0.3-0.1,0.4-0.4,0.4h-6.9v2.2h5.9c0.1,0,0.4-0.4,0.9-1c0.6-0.8,1-1.2,1.1-1.2
		c0.3,0,0.9,0.4,1.6,1.1c0.7,0.8,1.1,1.2,1.1,1.4c0,0.3-0.2,0.4-0.5,0.4H91c1,0.9,1.9,1.6,2.7,1.9c0.6,0.3,1.6,0.7,2.8,1
		c1.4,0.3,2.9,0.6,4.6,0.8l-0.3,0.6c-0.7,0.3-1.2,0.8-1.4,1.5C99.2,22.7,99.1,23,99,23c-0.3,0-1.1-0.2-2.2-0.6
		c-1.2-0.4-2.1-0.9-2.9-1.5c-0.9-0.6-1.6-1.3-2.1-2c-0.4-0.5-0.7-1.1-1.1-1.7v5.5c0,0.3-0.4,0.6-1.3,0.8c-0.4,0.1-0.7,0.1-0.9,0.1
		c-0.6,0-0.8-0.3-0.8-0.8c0.1-1,0.2-2.4,0.2-4.3v-0.6c-0.7,0.6-1.3,1.2-2,1.6c-1.1,0.7-2.3,1.3-3.7,1.9c-1.4,0.5-2.9,1-4.5,1.3
		l-0.2-0.5c1.6-0.6,3.1-1.5,4.5-2.5c1.3-0.9,2.4-2,3.4-3.2h-3.8c-1.5,0-2.5,0-3.1,0.1l-0.4-1c0.8,0.2,2,0.2,3.6,0.2H88v-2.2h-4
		c-1.5,0-2.5,0-3.2,0.1l-0.4-1c0.8,0.1,2,0.2,3.6,0.2h3.7v-2.2h-5.2c-1.5,0-2.5,0-3.1,0.1l-0.4-1c0.8,0.1,2,0.2,3.6,0.2h2.8
		c-0.1-0.1-0.2-0.3-0.2-0.5c-0.2-1-0.7-1.8-1.3-2.5L84.1,6.6z M85.3,0c0.8,0.1,1.8,0.2,3,0.5c1,0.1,1.4,0.3,1.4,0.5
		c0,0.3-0.3,0.5-0.8,0.8c-0.4,0.1-0.6,0.3-0.6,0.7v3.4H90v-2c0-1.4-0.1-2.7-0.3-3.9c0.7,0.1,1.7,0.2,2.9,0.5C93.5,0.6,94,0.8,94,1
		c0,0.3-0.2,0.5-0.7,0.7c-0.4,0.1-0.5,0.3-0.5,0.6v3.5h0.8c1.1-1.6,1.9-3.3,2.4-5.2c0.9,0.3,1.7,0.6,2.5,0.9s1.2,0.6,1.2,0.9
		c0,0.2-0.2,0.3-0.6,0.3c-0.4,0.1-0.6,0.1-0.7,0.2c-1.1,1-2.4,2-3.9,2.8H97c0.1,0,0.3-0.4,0.8-1c0.6-0.8,1-1.2,1.1-1.2
		c0.3,0,0.8,0.4,1.5,1.1c0.7,0.8,1.1,1.3,1.1,1.4c0,0.3-0.2,0.4-0.5,0.4H81.7c-1.5,0-2.5,0-3.1,0.1l-0.4-1c0.8,0.1,2,0.2,3.6,0.2
		h3.8V4.1C85.5,2.6,85.5,1.2,85.3,0z M80,1.1c1.8,0.4,3.1,0.7,3.8,1.1c0.6,0.4,0.9,0.8,0.9,1.3S84.5,4.5,84,5
		c-0.3,0.3-0.7,0.5-1.2,0.5c-0.4,0-0.8-0.3-1.1-1c-0.4-1-1.1-1.9-2.1-2.8L80,1.1z"/>
	<path class="st0" d="M113.7-0.1c1.2,0.1,2.4,0.3,3.5,0.5c0.7,0,1.1,0.2,1.1,0.5c0,0.1-0.2,0.3-0.6,0.5c-0.5,0.2-0.7,0.5-0.7,0.7v3
		h5.2c0.1,0,0.4-0.4,1-1.1c0.7-0.9,1.1-1.3,1.2-1.3c0.4,0,0.9,0.4,1.7,1.2c0.8,0.8,1.2,1.3,1.2,1.5c0,0.3-0.2,0.4-0.5,0.4h-4.2
		c-0.6,2.4-1.5,4.7-2.7,7c-0.7,1.4-1.5,2.6-2.3,3.5c0.3,0.2,0.7,0.4,1,0.6c2,1.3,4.9,2.3,8.8,3l-0.2,0.6c-0.8,0.3-1.3,0.8-1.7,1.7
		c-0.2,0.7-0.3,1-0.5,1c-1,0-2.4-0.5-4.2-1.5c-2.1-1.1-3.9-2.3-5.2-3.6c-1.2,0.9-2.5,1.7-3.9,2.5c-2.3,1.2-4.9,2.1-7.8,2.8l-0.2-0.5
		c2.7-1.1,4.9-2.2,6.7-3.4c1.4-0.9,2.6-1.9,3.7-3.1c-0.9-1.1-1.7-2.4-2.3-3.9c-0.9-2-1.7-4.3-2.2-6.7h-1.7c-1.4,0-2.5,0.1-3.5,0.2
		L104,4.8c1.6,0.2,3,0.3,4.3,0.3h5.8V2.3C113.9,1.6,113.8,0.7,113.7-0.1z M110.1,5.8c1.2,3,2.5,5.3,3.7,7c0.4,0.7,1,1.3,1.6,1.9
		c0.6-0.8,1.1-1.8,1.7-3c0.9-1.8,1.6-3.7,2.1-5.9C119.2,5.8,110.1,5.8,110.1,5.8z"/>
	<path class="st0" d="M135.2-0.3c1,0.3,1.9,0.5,2.7,0.8c1,0.3,1.5,0.5,1.5,0.7c0,0.3-0.3,0.5-0.8,0.6c-0.4,0.1-0.7,0.2-0.8,0.4
		c-0.6,1.5-1.3,2.9-1.9,4c0.1,0,0.3,0.1,0.4,0.1c0.6,0.2,0.9,0.3,0.9,0.4c0,0.3-0.2,0.6-0.5,0.8c-0.2,0.1-0.3,0.3-0.3,0.7v14.3
		c0,0.3-0.4,0.6-1.3,0.7c-0.4,0.1-0.7,0.1-0.9,0.1c-0.6,0-0.9-0.3-0.9-0.8c0.1-2,0.2-4,0.2-5.9V9.7c-1,1.2-2.1,2.3-3.4,3.4l-0.3-0.4
		c1-1.4,2-3.2,3.1-5.6C133.7,5.1,134.5,2.7,135.2-0.3z M151.3,7.6c-1.7,1-4,2.1-7,3.2v7.8c0,0.6,0.2,1,0.5,1
		c0.6,0.1,1.6,0.2,2.8,0.2c0.8,0,1.4-0.1,1.9-0.3c0.4-0.1,0.6-0.3,0.8-0.5c0.1-0.2,0.2-0.6,0.4-1.2c0.2-0.7,0.4-1.7,0.6-3l0.6,0.2
		c0.1,1.3,0.1,2.1,0.1,2.4c0,0.8,0.2,1.4,0.7,1.7c0.6,0.4,0.9,0.8,0.9,1.1c0,0.6-0.3,1-0.9,1.3c-0.4,0.3-0.9,0.4-1.4,0.5
		c-0.9,0.2-2.1,0.3-3.6,0.3c-2.4,0-3.9-0.1-4.7-0.3c-0.6-0.2-1.1-0.5-1.3-1c-0.2-0.3-0.3-0.9-0.3-1.8V3.3c0-1.1-0.1-2.1-0.3-3.1
		c0.8,0.1,1.8,0.2,2.9,0.4c1,0.1,1.5,0.3,1.5,0.6s-0.2,0.6-0.7,0.8c-0.3,0.1-0.5,0.3-0.5,0.7V10c0.6-0.5,1.2-1,1.8-1.5
		c1.4-1.2,2.6-2.5,3.5-4c1,0.6,1.9,1.2,2.7,1.7c0.8,0.6,1.2,1,1.2,1.2c0,0.3-0.1,0.4-0.4,0.4L151.3,7.6z"/>
	<path class="st0" d="M156.6,0.3c1.2,0.3,2.3,0.7,3.3,1.1h14.4c0.3-0.3,0.6-0.5,0.8-0.8c0.4-0.4,0.7-0.6,0.8-0.6
		c0.3,0,0.8,0.3,1.5,0.8c0.9,0.7,1.3,1.1,1.3,1.3c0,0.2-0.2,0.5-0.5,0.8s-0.4,0.6-0.4,0.9v13.7l0.2,5.2c0,0.3-0.5,0.6-1.5,0.8
		c-0.4,0.1-0.7,0.1-0.9,0.1c-0.5,0-0.7-0.3-0.7-0.8v-1.1h-15.4v1.1c0,0.3-0.4,0.6-1.3,0.8c-0.4,0.1-0.7,0.1-0.8,0.1
		c-0.6,0-0.9-0.3-0.9-0.8c0.1-2,0.2-3.7,0.2-5.2V5C156.8,3.7,156.8,2.2,156.6,0.3z M159.7,21h3.1c-0.2-0.3-0.4-0.7-0.6-1.2
		c-0.1-0.3-0.3-0.7-0.5-1.3c0.8-0.1,1.5-0.2,2.2-0.3v-1.5c-0.2,0.1-0.3,0.1-0.5,0.2c-1,0.4-2.1,0.8-3.3,1l-0.2-0.4
		c1.2-0.5,2.2-1.1,3.2-1.9c0.9-0.7,1.7-1.5,2.3-2.4h-1.1v0.2c0,0.3-0.4,0.5-1.2,0.6c-0.3,0.1-0.6,0.1-0.8,0.1
		c-0.5,0-0.8-0.2-0.8-0.7c0.1-0.5,0.1-1,0.1-1.5v-1.5c0-0.6,0-1.3-0.1-2c0.9,0.2,1.9,0.6,2.8,1h5.4c0.3-0.3,0.5-0.6,0.7-0.8
		s0.4-0.3,0.6-0.3c0.3,0,0.8,0.3,1.5,0.8c0.8,0.5,1.2,0.9,1.2,1.2c0,0.2-0.2,0.3-0.5,0.5s-0.4,0.3-0.5,0.5v2c0,0.2-0.2,0.4-0.6,0.5
		c0.4,0.3,0.8,0.5,1.2,0.7c0.5,0.3,0.7,0.6,0.7,0.8c0,0.1-0.1,0.2-0.3,0.2h-1c-0.5,0.4-1.1,0.7-1.9,1.1c0.1,0.1,0.3,0.2,0.4,0.3
		c1.1,0.6,2.3,1.1,3.6,1.4l-0.2,0.5c-0.7,0.3-1.1,0.6-1.3,1c-0.3,0.5-0.5,0.8-0.6,0.8c-0.2,0-0.5-0.2-1.1-0.5
		c-0.6-0.4-1.2-0.9-1.8-1.6c-0.5-0.5-0.9-1.2-1.4-2.1c-0.3-0.6-0.6-1.4-0.8-2.4c-0.6,0.6-1.1,1-1.5,1.3v2.4c0.7-0.2,1.5-0.4,2.1-0.6
		l0.2,0.4c-1.5,1.3-3.2,2.2-4.9,2.8c-0.2,0-0.3,0.1-0.3,0.2s0,0.2-0.1,0.3c0,0,0,0,0,0.1h11.8V2.1h-15.4V21H159.7z M161.2,4.5
		c0.8,0.2,2,0.2,3.6,0.2h1c0-0.7-0.1-1.4-0.2-2.1c1.1,0.1,2.2,0.2,3.2,0.4c0.6,0,1,0.2,1,0.5c0,0.1-0.2,0.3-0.6,0.5
		c-0.4,0.2-0.6,0.4-0.6,0.7v0.1h1.6c0.1,0,0.3-0.3,0.8-0.9c0.6-0.6,0.9-1,1-1c0.3,0,0.7,0.3,1.3,1c0.6,0.6,0.9,1,0.9,1.2
		c0,0.3-0.1,0.4-0.4,0.4h-5.1v2h2.5c0.1,0,0.3-0.3,0.8-0.9c0.5-0.7,0.9-1,1-1c0.3,0,0.7,0.3,1.2,1c0.6,0.6,0.9,1,0.9,1.2
		c0,0.3-0.1,0.4-0.4,0.4h-11.1c-1.5,0-2.5,0-3.1,0.1l-0.4-1c0.8,0.1,2,0.2,3.5,0.2h2.3v-2h-1c-1.5,0-2.5,0-3.1,0.1L161.2,4.5z
		 M164.3,12.5h5.9V10h-5.9V12.5z M168.4,13.4c0.3,0.5,0.6,1.1,0.9,1.6c0.3,0.4,0.7,0.8,1.1,1.1c0.1-0.2,0.3-0.4,0.4-0.7
		c0.3-0.5,0.6-1,0.8-1.6c-0.3,0-0.5,0.1-0.7,0.1c-0.5,0-0.7-0.2-0.7-0.6v-0.1h-1.7C168.5,13.3,168.4,13.4,168.4,13.4z"/>
	<path class="st0" d="M181.6,1.6c0.8,0.1,2,0.2,3.6,0.2h15.6c0.1,0,0.3-0.4,0.8-1c0.6-0.8,1-1.2,1.1-1.2c0.3,0,0.9,0.4,1.6,1.1
		c0.7,0.8,1.1,1.2,1.1,1.4c0,0.3-0.2,0.4-0.5,0.4h-18.7v17.1c0,0.7,0.4,1.1,1.3,1.1c1.5,0.1,3.4,0.1,5.7,0.1c1.9,0,3.5,0,4.6-0.1
		c1.7-0.1,3.1-0.2,4.1-0.6c0.4-0.2,0.7-0.3,0.8-0.3c0.3,0,0.7,0.2,1.2,0.7s0.7,1,0.7,1.2c0,0.3-0.3,0.5-0.9,0.7
		c-0.8,0.2-1.9,0.3-3.4,0.4c-2.1,0.1-4.5,0.2-7.2,0.2c-3.9,0-6.4-0.1-7.4-0.3c-0.6-0.1-1.1-0.3-1.5-0.5c-0.5-0.4-0.8-0.9-0.8-1.8
		V2.5c-0.6,0-1,0.1-1.3,0.1L181.6,1.6z M187.5,11.4c1,0.3,2,0.6,3,1.1h1.2c0.3-0.4,0.5-0.7,0.7-1c0.2-0.2,0.4-0.4,0.6-0.4
		c0.3,0,0.7,0.2,1.4,0.7c0.8,0.5,1.1,0.9,1.1,1.1c0,0.2-0.1,0.3-0.4,0.5c-0.2,0.2-0.4,0.3-0.4,0.4v4.5c0,0.3-0.4,0.5-1.2,0.7
		c-0.3,0.1-0.6,0.1-0.8,0.1c-0.5,0-0.7-0.2-0.7-0.6v-0.4h-1.9v0.6c0,0.3-0.4,0.5-1.2,0.6c-0.3,0.1-0.6,0.1-0.8,0.1
		c-0.5,0-0.8-0.2-0.8-0.7c0.1-0.4,0.1-0.9,0.1-1.5v-3.7C187.6,12.9,187.6,12.2,187.5,11.4z M190.3,3.3c1.1,0.3,2.2,0.7,3.3,1.2h4.1
		c0.3-0.4,0.5-0.7,0.7-0.9c0.2-0.3,0.4-0.4,0.6-0.4c0.3,0,0.8,0.3,1.4,0.8c0.8,0.5,1.2,0.9,1.2,1.2c0,0.2-0.1,0.3-0.4,0.5
		c-0.2,0.2-0.4,0.3-0.4,0.5v3.6c0,0.3-0.4,0.5-1.3,0.7c-0.4,0.1-0.7,0.1-0.8,0.1c-0.5,0-0.7-0.2-0.7-0.7V9.7h-4.7V10
		c0,0.3-0.4,0.6-1.3,0.7c-0.4,0.1-0.6,0.1-0.8,0.1c-0.5,0-0.8-0.3-0.8-0.8c0.1-0.5,0.1-1,0.1-1.6V5.5C190.3,4.9,190.3,4.1,190.3,3.3
		z M190.3,17.4h1.9v-4.2h-1.9V17.4z M193.2,8.9h4.7V5.2h-4.7V8.9z M196.1,11.3c1.1,0.3,2.2,0.7,3.3,1.2h1.4c0.3-0.4,0.5-0.8,0.7-1
		c0.2-0.3,0.4-0.4,0.6-0.4c0.3,0,0.7,0.3,1.4,0.8c0.8,0.5,1.2,0.9,1.2,1.1c0,0.2-0.1,0.3-0.4,0.5c-0.3,0.2-0.4,0.3-0.5,0.5v4.3
		c0,0.3-0.4,0.5-1.2,0.7c-0.4,0.1-0.6,0.1-0.8,0.1c-0.5,0-0.7-0.2-0.7-0.6V18h-2.2v0.5c0,0.3-0.4,0.5-1.2,0.7
		c-0.4,0.1-0.6,0.1-0.8,0.1c-0.5,0-0.7-0.2-0.7-0.7c0.1-0.8,0.1-1.6,0.1-2.4v-1.4C196.4,13.5,196.3,12.4,196.1,11.3z M198.9,17.3
		h2.2v-4.1h-2.2V17.3z"/>
</g>
<g>
	<path class="st1" d="M6,42.7V57H3.8V45.3c-0.9,0.8-2,1.4-3.3,1.8v-2.2c0.6-0.2,1.3-0.4,2-0.8c0.7-0.4,1.3-0.9,1.8-1.4
		C4.3,42.7,6,42.7,6,42.7z"/>
	<path class="st1" d="M18.4,44.5c0.8,1.3,1.3,3.1,1.3,5.3s-0.4,4-1.3,5.3c-0.9,1.4-2.2,2.1-3.9,2.1s-3-0.7-3.9-2.1
		c-0.8-1.3-1.3-3.1-1.3-5.3s0.4-4,1.3-5.3c0.9-1.4,2.2-2.1,3.9-2.1S17.5,43.1,18.4,44.5z M12,46.2c-0.4,0.9-0.5,2.1-0.5,3.6
		s0.2,2.7,0.5,3.6c0.5,1.3,1.3,1.9,2.5,1.9s2-0.7,2.5-1.9c0.3-0.9,0.5-2.1,0.5-3.6S17.3,47,17,46.2c-0.5-1.3-1.3-1.9-2.5-1.9
		C13.3,44.2,12.5,44.9,12,46.2z"/>
	<path class="st1" d="M29.1,42.1c-1.4,3.2-3.3,5.6-5.6,7.3L22,48.1c2.4-1.7,4.2-3.9,5.4-6.7L29.1,42.1z M25.1,50.2v-1.8h12
		C37,51,36.9,53,36.7,54.6c-0.2,1.6-0.5,2.7-1,3.3s-1.2,0.9-2.2,1h-3.8L29.2,57c1.2,0,2.3,0.1,3.4,0.1c1,0,1.7-0.4,2-1.3
		c0.3-0.9,0.5-2.8,0.6-5.6h-4.5c-0.5,2.1-1.1,3.7-1.9,5c-1,1.4-2.6,2.8-4.6,3.9L23,57.5c1.8-1,3.2-2,4.1-3.2
		c0.7-1.1,1.3-2.4,1.7-4.1C28.8,50.2,25.1,50.2,25.1,50.2z M35,41.2c1,2.8,2.9,5,5.5,6.7l-1.2,1.7c-2.4-1.6-4.3-3.8-5.5-6.5H31v-1.9
		H35z"/>
	<path class="st1" d="M44.1,47.1v-0.8c-0.2,0.3-0.4,0.5-0.7,0.8l-1-1.4c1.3-1.4,2.4-3.1,3.5-5h1.3c1.3,1.3,2.5,2.6,3.7,4l-1.2,1.2
		c-0.1-0.2-0.3-0.3-0.4-0.5V47h-1.7v1.8h2.6v1.8h-2.6v5.3c0.9-0.2,1.8-0.4,2.6-0.7V57c-2.2,0.6-4.5,1.1-7,1.6l-0.5-1.9
		c1-0.1,2-0.3,3-0.5v-5.6h-2.6v-1.8h2.6V47h-1.6V47.1z M45.2,55.2l-1.4,0.4c-0.2-1.3-0.5-2.6-0.8-3.8l1.4-0.5
		C44.7,52.4,45,53.7,45.2,55.2z M49.3,45.4c-1-1.3-1.9-2.3-2.5-2.9c-0.6,1-1.2,2-1.9,2.9H49.3z M50.3,51.5c-0.3,1.3-0.6,2.5-1,3.5
		L48,54.5c0.3-0.9,0.6-2,0.8-3.4L50.3,51.5z M60,47.7v6.1h-3.5v0.8h3.8v1.5h-3.8v1h4.4v1.5H50.2v-1.5h4.6v-1H51v-1.5h3.8v-0.8h-3.6
		v-6.1H60z M54.6,42.1c-0.2-0.4-0.3-0.8-0.5-1.2l2-0.3c0.2,0.4,0.3,1,0.5,1.5h3.8v1.6H59l-0.5,1.7h2.4V47H50.6v-1.6h2.3l-0.5-1.7H51
		v-1.6H54.6z M54.8,50.2v-1.1h-2v1.1H54.8z M54.8,51.5h-2v1h2V51.5z M56.7,45.4l0.5-1.7h-3l0.5,1.7H56.7z M56.5,50.2h1.9v-1.1h-1.9
		V50.2z M58.4,51.5h-1.9v1h1.9V51.5z"/>
	<path class="st1" d="M73.8,41.3v1.8h-5c-0.8,1.7-1.6,3-2.3,4c1.6-0.2,3.2-0.4,4.7-0.6c-0.4-0.6-0.8-1.2-1.2-1.8l1.5-0.9
		c1.3,1.8,2.3,3.3,3,4.6l-1.6,1.1c-0.3-0.5-0.5-1-0.8-1.5c-2.5,0.5-5.2,0.8-8.2,1.1l-0.4-1.7c0.3,0,0.6-0.1,0.7-0.2
		c0.6-0.5,1.5-1.9,2.6-4h-3v-1.8L73.8,41.3L73.8,41.3z M73.9,57.1c-3.1,0.6-6.4,1.2-10,1.6l-0.4-1.8c1.5-0.2,3.1-0.4,4.6-0.6V53
		h-3.7v-1.8H68v-2.1h1.9v2.1h3.4V53h-3.4v3c1.3-0.2,2.7-0.5,4-0.8V57.1z M77.1,42.4v12.3h-1.8V42.4H77.1z M76,58.8L75.6,57
		c1,0.1,1.9,0.1,2.7,0.1c0.5,0,0.8-0.3,0.8-0.8V40.6H81v16.2c0,1.4-0.7,2-2,2H76z"/>
	<path class="st1" d="M86.7,55.6c-0.1,1.3-0.3,2.5-0.6,3.6l-1.6-0.5c0.4-0.9,0.6-2,0.7-3.2L86.7,55.6z M92,54.4l-1.5,0.4
		c-0.1-0.2-0.1-0.5-0.2-0.7c-1.8,0.4-3.5,0.7-5.1,0.8l-0.4-1.5c0.3-0.1,0.5-0.3,0.7-0.5c0.5-0.4,1.2-1.1,1.9-2
		c-0.8,0.1-1.7,0.2-2.6,0.3l-0.4-1.4c0.2-0.1,0.5-0.3,0.7-0.6c0.8-1,1.5-2.2,2.1-3.4l1.7,0.6c-0.8,1.3-1.5,2.4-2.3,3.3l2-0.2
		c0.5-0.7,0.9-1.4,1.5-2.1l1.6,0.6c-1.8,2.4-3.2,4.2-4.4,5.3c0.9-0.1,1.8-0.3,2.7-0.5c-0.2-0.5-0.3-1-0.5-1.4l1.3-0.4
		C91.2,52,91.6,53.1,92,54.4z M101,41.2v4.5H85.5v-4.5H101z M90.1,42.7h-2.8v1.5h2.8V42.7z M89.4,58.5l-1.6,0.3
		c-0.1-1.3-0.2-2.4-0.3-3.3l1.4-0.3C89.1,56.2,89.2,57.3,89.4,58.5z M92.1,57.7l-1.4,0.7c-0.2-1.1-0.5-2.1-0.7-3l1.4-0.5
		C91.6,55.7,91.9,56.7,92.1,57.7z M94.7,59H93v-8.2c-0.4,0.4-0.8,0.9-1.2,1.3l-0.5-1.7c1.3-1.4,2.2-2.9,2.7-4.5l1.7,0.3
		c-0.2,0.6-0.5,1.2-0.7,1.7h2.3c-0.2-0.6-0.4-1.2-0.6-1.7l1.7-0.3c0.2,0.6,0.4,1.3,0.6,2h2.8v1.7h-2.7v1.3h2.4v1.5h-2.4v1.3h2.5v1.6
		h-2.5v1.4h3.1v1.7h-7.4V59H94.7z M94.6,42.7h-2.8v1.5h2.8V42.7z M94.7,49.6v1.3h2.7v-1.3H94.7z M94.7,53.7h2.7v-1.3h-2.7V53.7z
		 M94.7,56.6h2.7v-1.4h-2.7V56.6z M99.2,42.7h-2.8v1.5h2.8V42.7z"/>
	<path class="st1" d="M112.9,42.1v-1.7h1.8v1.7h7.8v1.8h-7.8v1.4h6.4V53h-4.7c1.5,1.5,3.6,2.7,6.6,3.6l-0.9,1.8
		c-3.4-1.4-5.9-3.2-7.4-5.4l0,0v6h-1.8v-6l0,0c-1.3,2.1-3.6,3.9-7.1,5.4l-1.1-1.7c3.1-1.1,5.3-2.4,6.5-3.7h-4.8v-7.7h6.4v-1.4H105
		v-1.8C105,42.1,112.9,42.1,112.9,42.1z M112.9,47h-4.6v1.5h4.6V47z M108.4,51.4h4.6V50h-4.6V51.4z M119.3,47h-4.5v1.5h4.5V47z
		 M114.8,51.4h4.5V50h-4.5V51.4z"/>
	<path class="st1" d="M128.8,44.3v-3.8h1.9v3.8h2.6v1.8h-2.6V47c1,0.9,2.1,2,3.2,3.2l-1.1,1.7c-0.8-1.2-1.5-2.2-2.1-3v10h-1.9v-9.7
		c-0.7,1.9-1.6,3.7-2.6,5.3l-0.8-2.1c1.5-1.8,2.7-3.9,3.4-6.2H126v-1.8h2.8V44.3z M137.3,44.3v-3.8h1.9v3.8h4.1v1.8h-3.9
		c1,3,2.5,5.6,4.5,7.7l-1.3,1.7c-1.3-1.8-2.5-4.1-3.4-6.8v10.2h-1.9V48.8c-1.1,2.8-2.3,5.1-3.8,6.9l-1.1-1.8c2-1.9,3.6-4.5,4.7-7.7
		h-3.3v-1.8h3.5V44.3z"/>
	<path class="st1" d="M154.3,40.6v2.9h1.7v-2.9h1.8v2.9h1.4c0.5-0.8,1-1.7,1.4-2.6l1.8,0.7c-0.4,0.7-0.8,1.4-1.3,2h2.9v1.7h-5.6
		l1.5,0.5c-0.3,0.5-0.6,0.9-0.9,1.3h4v1.7h-6.9v1.1h6v1.6h-6v1.1h7.8v1.7h-7.8v5h-1.9v-5h-7.8v-1.7h7.8v-1.1h-6v-1.6h6v-1.1h-6.9
		v-1.7h4c-0.3-0.5-0.6-0.9-0.9-1.3l1.3-0.5h-5.3v-1.7h2.8c-0.3-0.7-0.7-1.3-1.2-1.9l1.8-0.7c0.4,0.7,0.8,1.6,1.2,2.6h1.4v-2.9
		L154.3,40.6L154.3,40.6z M152.4,55.5c-1.2,1.2-2.7,2.3-4.5,3.2l-1.2-1.5c1.8-0.8,3.3-1.8,4.5-2.8L152.4,55.5z M152.4,45.1
		c0.3,0.5,0.7,1.1,1,1.8h3.6c0.4-0.6,0.8-1.2,1.1-1.8H152.4z M163.7,57.4l-1.4,1.4c-1-1-2.4-2-4.2-3.1l1.2-1.2
		C161.1,55.5,162.5,56.4,163.7,57.4z"/>
	<path class="st1" d="M175.1,43.8c-0.5-1-1.2-1.9-1.9-2.7l1.9-0.7c0.7,1,1.4,2.1,2,3.4h7.6v1.9h-3.1c-1,3-2.4,5.6-4.3,7.6
		c2.1,1.7,4.7,3.1,7.8,4.2l-1.1,1.6c-3.2-1.2-5.9-2.7-8-4.5c-2.3,2-5,3.5-8.3,4.4l-1-1.7c3.2-0.8,5.9-2.2,8-4
		c-2.2-2.2-3.7-4.8-4.6-7.8H167v-1.9h8.1V43.8z M176,52.1c1.6-1.8,2.8-3.9,3.6-6.5h-7.7C172.8,48.1,174.1,50.3,176,52.1z"/>
	<path class="st1" d="M195,41.2c-0.7,1.6-1.6,3.2-2.6,4.7v13.2h-1.9v-11c-0.8,0.8-1.7,1.7-2.6,2.4l-0.6-2c2.7-2.3,4.7-5.1,6-8.2
		L195,41.2z M204.8,48l-6.3,0.4V56c0,0.6,0.3,0.8,0.9,0.8h3c0.4,0,0.8-0.2,1-0.5s0.3-1.4,0.4-3.2l1.8,0.6c-0.1,2.3-0.4,3.7-0.8,4.2
		c-0.4,0.5-1.1,0.7-2.1,0.7H199c-1.6,0-2.4-0.8-2.4-2.4V40.7h1.9v5.9l6.3-0.4V48z"/>
	<path class="st1" d="M225.5,59h-1.8v-0.8h-13V59h-1.8V41.2h16.6V59z M223.7,56.6V42.9h-13v13.6L223.7,56.6L223.7,56.6z M221.7,48.6
		v3.5l0.2-0.1l1.1,0.9c-0.6,0.4-1.2,0.7-1.8,1.1c0.6,0.3,1.3,0.7,1.8,1l-0.9,1.3c-1.6-1.1-3.2-2-4.9-2.6l0.8-1.1
		c0.6,0.2,1.2,0.5,1.8,0.7c0.7-0.4,1.3-0.7,1.8-1.1h-4.5c-0.3,0.4-0.7,0.7-1.1,1V55c0.7-0.2,1.4-0.4,2.1-0.6l0.3,1.3
		c-1.3,0.3-2.5,0.6-3.9,0.9l-0.5-1.2c0.3-0.1,0.4-0.3,0.4-0.6V54c-0.7,0.4-1.6,0.7-2.5,1l-0.9-1.4c1.9-0.5,3.3-1,4.1-1.6h-2.6v-3.5
		L221.7,48.6L221.7,48.6z M216.3,44.3v-0.9h1.7v0.9h3.9v1.4H218v0.9h4.9V48h-11.5v-1.4h4.8v-0.9h-3.9v-1.4H216.3z M220.1,49.9h-5.9
		v1h5.9V49.9z"/>
	<path class="st1" d="M246.3,41.2V43h-14.6v12.6c0,0.6,0.3,0.9,0.9,0.9h14.1v1.8H232c-1.5,0-2.2-0.8-2.2-2.2V43H229v-1.8H246.3z
		 M238.5,50.1v5.6h-5.7v-5.6H238.5z M243.6,43.9v5h-9.3v-5H243.6z M236.9,51.7h-2.4v2.4h2.4V51.7z M241.8,45.6h-5.7v1.7h5.7V45.6z
		 M245.6,50.1v5.6h-5.7v-5.6H245.6z M243.9,51.7h-2.4v2.4h2.4V51.7z"/>
	<path class="st1" d="M259.8,48.7c0.3,0.4,0.5,1,0.5,1.6c0,1-0.3,1.9-0.9,2.7s-1.4,1.3-2.4,1.5v-1.2c0.5-0.2,1-0.5,1.4-0.9
		c0.3-0.5,0.5-0.9,0.5-1.4c-0.1,0-0.3,0.1-0.5,0.1c-0.4,0-0.8-0.2-1-0.4s-0.4-0.6-0.4-1.1c0-0.4,0.1-0.8,0.4-1.1s0.7-0.4,1.1-0.4
		C259,48.1,259.4,48.3,259.8,48.7z"/>
	<path class="st1" d="M10.7,72.4h7.6v4.2h-1.9v-2.5h-3.7v2.8c0,0.4,0.2,0.6,0.6,0.6h4.4v1.7h-5.3c-1.1,0-1.6-0.5-1.6-1.5v-3.6H7.3
		L9,74.3C7.9,77,5.6,78.9,2,80l-0.9-1.6c3.2-0.9,5.2-2.3,6-4.2H3v2.5H1.1v-4.2h7.6c-0.2-0.6-0.5-1.2-0.8-1.7l2.1-0.4
		C10.2,71,10.5,71.7,10.7,72.4z M16.6,80.6v1.8h-6v4.2h7.6v1.8H1.1v-1.8h7.6v-4.2H2.8v-1.8H16.6z"/>
	<path class="st1" d="M22.5,76.5L21.4,75c1.9-1.3,3.2-2.8,3.9-4.7l1.8,0.2c-0.1,0.4-0.3,0.7-0.4,1.1h11.9v1.6H25.7
		C24.9,74.5,23.8,75.6,22.5,76.5z M26.8,85.3c-1,1.3-2.2,2.4-3.6,3.4l-1.1-1.4c1.4-0.9,2.6-1.9,3.5-3.1L26.8,85.3z M35.7,87.4
		c-0.4-1.1-0.7-3.3-0.7-6.7v-2.2H22.4v-1.6h14.5v3.8c0,2.6,0,4.3,0.2,5.1c0.1,0.7,0.3,1.1,0.5,1.1c0.1,0,0.3-0.3,0.4-0.9
		c0.1-0.5,0.2-1.1,0.3-1.7l1.6,0.8c-0.3,1.6-0.6,2.7-0.9,3.2c-0.3,0.5-0.7,0.8-1.1,0.8C36.8,89,36.1,88.4,35.7,87.4z M27.6,82.3V79
		h1.8v3.2h4.8v1.6h-4.8V89h-1.8v-5.1h-5.1v-1.6H27.6z M26.4,81.5l-1.3,0.7c-0.5-0.8-1-1.6-1.5-2.2l1.4-0.6
		C25.5,79.9,26,80.7,26.4,81.5z M37.6,74.3v1.5H25.1v-1.5H37.6z M34.7,87.5l-1.1,1.3c-1.1-1.3-2.3-2.4-3.5-3.3l1-1.2
		C32.4,85.3,33.6,86.3,34.7,87.5z M33.3,79.9c-0.4,0.8-1,1.5-1.7,2.3l-1.3-0.7c0.6-0.8,1.1-1.5,1.5-2.3L33.3,79.9z"/>
	<path class="st1" d="M52.2,70.5V74h7.1v9.7h-1.9v-1.1h-5.2v6.7h-2v-6.7H45v1.1h-1.9V74h7.1v-3.5H52.2z M50.2,80.6v-4.8H45v4.8H50.2
		z M57.4,80.6v-4.8h-5.2v4.8H57.4z"/>
	<path class="st1" d="M71.7,87.2c0,1.1-0.6,1.7-1.9,1.7H68l-0.5-1.7c0.6,0.1,1.2,0.1,1.8,0.1c0.5,0,0.7-0.2,0.7-0.7v-1.5
		c-1,0.4-2.2,0.7-3.4,1.1l-0.4-1.6c1.4-0.3,2.7-0.7,3.8-1.1V80h-4v1c1.1,0.2,2.2,0.5,3.2,0.8l-0.6,1.4c-0.9-0.3-1.8-0.6-2.7-0.8
		c-0.1,2.7-0.7,5-1.7,6.7l-1.3-1.2c0.9-1.5,1.3-3.4,1.3-5.8v-3.7h7.4v8.8H71.7z M77.8,83.5c1,1.5,2.1,2.8,3.5,4L80,89
		c-1.2-1.1-2.3-2.4-3.2-3.7c-1,1.5-2.3,2.8-3.9,3.8l-1-1.6c1.6-1,2.9-2.3,3.9-3.8c-0.8-1.4-1.4-3-1.9-4.6c-0.3,0.6-0.6,1.1-0.9,1.5
		l-1.1-1.4c0.3-0.5,0.6-1.1,0.9-1.7H63v-1.7h2v-1.7h-1.8v-1.7H65v-1.8h1.8v1.8h2.3v-1.8h1.8v1.8h1.7v1.7h-1.7v1.7h2v1.4
		c0.8-1.8,1.3-4,1.6-6.6l1.8,0.3c-0.1,0.9-0.3,1.8-0.5,2.6h5v1.8h-1.1C79.7,78.5,79,81.3,77.8,83.5z M69.1,75.7V74h-2.3v1.7H69.1z
		 M76.8,81.7c0.7-1.9,1.2-4,1.3-6.4h-2.6c-0.4,1.2-0.8,2.3-1.2,3.3l1.1-0.6C75.7,79.3,76.2,80.5,76.8,81.7z"/>
	<path class="st1" d="M88,74.6c0.8-0.6,1.5-1.2,2.1-1.8h-5.2v-1.6h7.3v1.4c-0.7,1.3-1.7,2.4-3.1,3.4h2.3v5H87l-0.3,1.8h4.9
		c0,2.4-0.1,4-0.3,4.8c-0.2,0.8-1.2,1.2-3,1.3c-0.7,0-1.4,0-2.1-0.1l-0.5-1.7c0.7,0,1.4,0.1,2.2,0.1c1,0,1.6-0.2,1.7-0.5
		c0.1-0.4,0.2-1.2,0.2-2.4h-5l0.7-5h4.2v-1.8H86c-0.5,0.2-1,0.4-1.5,0.5l-1.2-1.5c0.7-0.2,1.4-0.4,2-0.7c0.4-0.2,0.8-0.3,1.2-0.5
		c-0.6-0.5-1.3-0.9-2-1.4l1.4-0.9C86.8,73.7,87.5,74.2,88,74.6z M98.8,71.3c-0.5,0.5-0.9,1-1.4,1.3c-0.3,0.2-0.6,0.4-0.9,0.6
		c0.3,0.2,0.6,0.5,0.9,0.7c0.4-0.2,0.8-0.4,1.2-0.7c0.5-0.4,0.9-0.8,1.3-1.3l1.3,0.8c-0.5,0.6-1,1.1-1.5,1.5
		c-0.2,0.2-0.5,0.4-0.8,0.5c0.9,0.5,1.9,0.9,3,1.3l-1.3,1.5c-0.6-0.3-1.2-0.5-1.8-0.8v1.4c0,0.4,0.2,0.5,0.8,0.5h1v1.5h-1.5
		c-1.2,0-1.9-0.6-1.9-1.7v-1h-2.5c0,0.7-0.1,1.2-0.4,1.8c-0.3,0.5-0.8,1-1.5,1.5l-1.3-1.2c0.6-0.5,1.1-1,1.3-1.5
		c0.2-0.5,0.3-1.2,0.3-2.2h4.2c-2.1-1.2-3.7-2.7-4.7-4.3l1.5-0.8c0.3,0.5,0.7,0.9,1.1,1.4c0.3-0.2,0.7-0.4,1-0.6
		c0.4-0.3,0.8-0.7,1.2-1.1L98.8,71.3z M99.8,81.2v1.6c-0.4,1.1-0.9,2.1-1.7,2.9c1.2,0.7,2.3,1.3,3.2,2L100,89
		c-0.9-0.7-1.9-1.4-3.2-2.1c-1.1,0.9-2.5,1.6-4.1,2.1L92,87.3c1.2-0.4,2.2-0.9,3.1-1.4c-0.8-0.4-1.7-0.9-2.6-1.3l1.1-1.1
		c1,0.4,1.9,0.9,2.7,1.4c0.6-0.6,1-1.2,1.4-1.9h-5.3v-1.7h7.4V81.2z"/>
	<path class="st1" d="M109,78.5l-1.3,1.3c-0.8-0.9-2-1.9-3.5-3l1.3-1.2C106.9,76.6,108.1,77.5,109,78.5z M109.1,81.6
		c-0.9,2.6-1.8,4.9-2.9,7.2l-1.7-0.8c1.1-2.3,2.1-4.6,3-7L109.1,81.6z M109.6,73.7l-1.3,1.3c-0.8-0.9-2-1.9-3.5-2.9l1.3-1.2
		C107.4,71.8,108.6,72.7,109.6,73.7z M112.2,87.3c0.5-0.2,0.8-0.4,0.8-0.8v-3h-1.4c-0.2,2.2-0.8,4.1-1.7,5.5l-1.3-1.2
		c0.9-1.4,1.4-3.3,1.4-5.7V78h12.1v1.3h-10.4v2.8h10.7v1.4h-7.8v3.4c0.9-0.2,1.7-0.3,2.3-0.5l0.2,1.3c-1.3,0.3-2.8,0.6-4.6,0.9
		L112.2,87.3z M113.3,71.6v-1h1.8v1h1.7v-1h1.8v1h3.2v5.7h-11.5v-5.7H113.3z M113.5,73.9v-1.1h-1.7v1.1H113.5z M113.5,75h-1.7v1.1
		h1.7V75z M121.4,80.1v1.3h-8.8v-1.3H121.4z M115.1,73.9h1.7v-1.1h-1.7V73.9z M116.8,75h-1.7v1.1h1.7V75z M121.8,85
		c-0.5,0.5-1.1,0.9-1.8,1.2c0.7,0.6,1.6,1,2.5,1.4l-1,1.4c-2.2-1-3.9-2.5-4.9-4.5l1.2-0.7c0.3,0.5,0.7,1,1.1,1.4
		c0.6-0.3,1.2-0.8,1.7-1.3L121.8,85z M118.3,73.9h1.7v-1.1h-1.7V73.9z M120.1,75h-1.7v1.1h1.7V75z"/>
	<path class="st1" d="M129,72.7c0.2-0.8,0.4-1.5,0.6-2.3l1.8,0.3c-0.2,0.7-0.3,1.3-0.5,2h4.4v1.8h-5c-0.3,0.7-0.6,1.4-0.9,2h5.1V87
		c0,1.2-0.7,1.9-2,1.9h-1.6l-0.5-1.8c0.6,0.1,1.1,0.1,1.5,0.1c0.5,0,0.8-0.3,0.8-0.8V85h-3.8c-0.3,1.6-1,2.9-1.9,4l-1.4-1.2
		c1.2-1.4,1.8-3.2,1.8-5.3v-2.8c-0.5,0.6-1,1.2-1.6,1.7l-1.2-1.4c1.5-1.5,2.8-3.3,3.7-5.5h-3.1v-1.8C125.2,72.7,129,72.7,129,72.7z
		 M129.2,82.4c0,0.3,0,0.6,0,1h3.5v-1.7h-3.5V82.4z M132.7,78.3h-3.5V80h3.5V78.3z M142.8,71.3v1.4c-0.6,2-1.3,3.9-2,5.7
		c1.5,2,2.2,3.6,2.2,4.8c0,1.2-0.3,2-0.8,2.5s-1.6,0.7-3.3,0.7l-0.5-1.9c0.7,0.1,1.2,0.1,1.7,0.1c0.4,0,0.7-0.1,0.9-0.3
		s0.2-0.6,0.2-1.1c0-1.2-0.8-2.8-2.4-4.8c0.6-1.5,1.3-3.3,1.9-5.4h-2.9v16H136V71.3H142.8z"/>
	<path class="st1" d="M153.1,76.4c-0.9,1.3-1.8,2.4-2.7,3.2c-0.4,0.4-0.8,0.7-1.3,1.1h11.5c-0.1,2-0.2,3.6-0.4,4.9
		c-0.2,1.2-0.5,2.1-1,2.6s-1.2,0.7-2.3,0.8h-2.6l-0.5-1.8c0.8,0,1.5,0.1,2.2,0.1c1,0,1.7-0.3,2-0.9s0.5-1.9,0.6-3.8h-4.4
		c-0.5,1.5-1.1,2.6-1.8,3.5c-1,1.1-2.5,2.1-4.5,3l-1.2-1.5c1.8-0.7,3.1-1.5,4-2.3c0.7-0.7,1.2-1.6,1.6-2.7h-3.4v-1.8
		c-0.7,0.5-1.5,1-2.4,1.6l-1-1.7c1.2-0.5,2.4-1.3,3.5-2.2c0.9-0.8,1.7-1.8,2.5-3L153.1,76.4z M150.4,72.1v-1.5h1.8v1.5h2.2v1.8h-2.2
		v1.2h-1.8v-1.2h-4.2v-1.8H150.4z M158.9,75.6c1,2.1,2.7,3.8,5.2,5.1l-1.1,1.6c-2.3-1.2-4-2.9-5.1-4.9h-3.7v-1.7L158.9,75.6
		L158.9,75.6z M159.4,70.6v1.5h4.2v1.8h-4.2v1.2h-1.8v-1.2h-2.2v-1.8h2.2v-1.5H159.4z"/>
	<path class="st1" d="M177,71.3c-0.3,0.3-0.5,0.6-0.8,0.8h5.3v1.5c-2.2,3.8-6.2,6-12,6.5l-0.8-1.7c1.7-0.1,3.2-0.3,4.5-0.7
		c-0.6-0.7-1.2-1.3-1.8-1.9L173,75c0.7,0.6,1.3,1.3,1.9,2c1.8-0.8,3.3-1.9,4.4-3.3H174c-1.6,0.9-3.4,1.6-5.5,2.1l-1.1-1.7
		c3.5-0.6,6.2-1.9,7.9-3.7L177,71.3z M177,85.3c2-0.9,3.5-2.1,4.7-3.6h-5.5c-1.7,0.8-3.8,1.4-6.1,1.9l-1.1-1.7
		c4.4-0.4,7.6-1.7,9.6-3.9l1.6,0.9c-0.4,0.4-0.8,0.7-1.2,1.1h5.1v1.5c-2.9,4.7-8.2,7.1-16,7.3l-0.8-1.8c3,0,5.6-0.3,7.8-1
		c-0.6-0.8-1.3-1.5-1.9-2.2L175,83C175.7,83.7,176.4,84.4,177,85.3z"/>
	<path class="st1" d="M189.5,80.8c-0.3,2.4-0.7,4.5-1.1,6.3l-1.4-0.5c0.5-1.6,0.9-3.7,1.3-6.2L189.5,80.8z M190,77.5v-6.9h1.8v6.9
		h2.2v1.7h-2.2V89H190v-9.8h-2.7v-1.7H190z M189.5,76.4l-1.3,0.3c-0.2-1.4-0.5-2.8-0.9-4.1l1.4-0.4C189,73.5,189.2,74.9,189.5,76.4z
		 M194.7,85.5l-1.4,0.4c-0.2-1.8-0.5-3.5-0.9-5.1l1.1-0.4C194,81.9,194.3,83.6,194.7,85.5z M194.5,72.1c-0.1,1.7-0.4,3.2-0.9,4.5
		l-1.2-0.4c0.4-1.2,0.6-2.7,0.7-4.3L194.5,72.1z M195.8,89l-1.4-1.2c0.9-1.1,1.4-2.5,1.4-4.3v-4.3h8.6v7.9c0,1.2-0.7,1.7-1.9,1.7h-2
		l-0.4-1.6c0.7,0,1.3,0.1,1.9,0.1c0.4,0,0.6-0.3,0.6-0.8v-0.7h-5.3C197,87.1,196.5,88.1,195.8,89z M199.2,71.7v-1.2h1.8v1.2h4v1.5
		h-4v1h3.4v1.5H201v1h4.5v1.6h-10.8v-1.6h4.5v-1h-3.6v-1.5h3.6v-1h-4.1v-1.5H199.2z M197.6,83.4c0,0.3,0,0.7-0.1,1h5v-1.1
		L197.6,83.4L197.6,83.4z M202.6,80.8h-5v1.1h5V80.8z"/>
	<path class="st1" d="M214.3,72.5c-0.7,0.3-1.8,0.6-3.3,0.9l0.1,1.8h2.8V77h-2.7l0.1,2h2.4v1.8h-2.4l0.1,2.1h11.3l0.1-2.1h-2V79h2.1
		l0.1-2h-2v-1.7h2.1l0.1-2h-2.4v-1.8h4.2l-0.4,11.4h1.4v1.8h-5.6c2.1,0.8,3.9,1.7,5.7,2.7L225,89c-2-1.3-4-2.4-6-3.1l0.8-1.3h-5.9
		l1.3,1.2c-1.6,1.2-3.5,2.2-5.8,3.2l-1.2-1.6c2.2-0.8,4.1-1.7,5.6-2.8h-5.7v-1.8h1.5L209.2,72c1.5-0.2,2.9-0.6,4.4-1.2L214.3,72.5z
		 M216.2,77.7c-0.1,1.7-0.3,3.2-0.9,4.8l-1.5-0.4c0.5-1.4,0.8-2.9,0.9-4.4H216.2z M216.7,75.4h3.3c-0.1,3.8-0.2,6-0.6,6.5
		s-1,0.7-2,0.7h-0.6l-0.5-1.7c0.4,0,0.8,0,1.2,0c0.3,0,0.5-0.1,0.6-0.4s0.2-1.4,0.2-3.5h-3.6c0.4-2.4,0.8-4.5,1-6.3l1.7,0.1
		l-0.2,1.4h2.8v1.6h-3C216.9,74.4,216.8,74.9,216.7,75.4z"/>
	<path class="st1" d="M233.5,78.5l-1.3,1.3c-0.8-0.9-2-1.9-3.5-2.9l1.3-1.3C231.5,76.5,232.6,77.5,233.5,78.5z M233.6,81.6
		c-0.9,2.6-1.8,5-2.9,7.2L229,88c1.1-2.3,2.1-4.7,2.9-7.1L233.6,81.6z M234.1,73.6l-1.3,1.3c-0.8-0.9-1.9-1.9-3.4-2.9l1.3-1.3
		C232,71.7,233.2,72.7,234.1,73.6z M241.1,78.7v1.6c0,0.4,0,0.7-0.1,1.1c0.4,2.9,2.4,4.9,6.1,5.9L246,89c-2.8-1-4.7-2.5-5.7-4.5
		c-0.2,0.5-0.5,1-0.8,1.5c-1,1.3-2.6,2.3-4.9,3l-1-1.6c2.2-0.7,3.7-1.6,4.5-2.6c0.8-1.1,1.2-2.6,1.3-4.4v-1.6L241.1,78.7L241.1,78.7
		z M239.6,77.4c-1,1.1-2.6,2-4.8,2.6l-1-1.6c2.1-0.6,3.6-1.3,4.4-2.1c0.7-0.9,1.2-2.1,1.2-3.6v-2.1h1.8v2.1c0,0.9-0.2,1.7-0.4,2.4
		c2.1,0.9,4.1,2,5.8,3.2l-1.1,1.6c-1.8-1.4-3.6-2.5-5.5-3.3C240,76.9,239.8,77.2,239.6,77.4z M237.4,74.9l-1.6,0.7
		c-0.4-1.4-0.9-2.5-1.5-3.6l1.6-0.6C236.5,72.5,237,73.6,237.4,74.9z M237.2,83.8l-1.6,0.7c-0.4-1.3-0.8-2.4-1.2-3.4l1.5-0.6
		C236.4,81.5,236.9,82.6,237.2,83.8z M245.9,81c-0.5,1.4-1.1,2.6-1.8,3.6l-1.6-0.9c0.7-0.9,1.3-2.1,1.7-3.3L245.9,81z M246,71.9
		c-0.5,1.4-1.1,2.7-1.8,3.8l-1.6-0.9c0.7-1,1.3-2.1,1.7-3.5L246,71.9z"/>
	<path class="st1" d="M254.3,78.5l-1.3,1.3c-0.8-0.9-2-1.9-3.5-2.9l1.3-1.3C252.2,76.5,253.4,77.5,254.3,78.5z M254.4,81.6
		c-0.9,2.6-1.8,5-2.9,7.2l-1.7-0.8c1.1-2.3,2.1-4.7,2.9-7.1L254.4,81.6z M254.8,73.6l-1.3,1.3c-0.8-0.9-1.9-1.9-3.4-2.9l1.3-1.3
		C252.8,71.7,253.9,72.7,254.8,73.6z M261.8,78.7v1.6c0,0.4,0,0.7-0.1,1.1c0.4,2.9,2.4,4.9,6.1,5.9l-1.1,1.7c-2.8-1-4.7-2.5-5.7-4.5
		c-0.2,0.5-0.5,1-0.8,1.5c-1,1.3-2.6,2.3-4.9,3l-1-1.6c2.2-0.7,3.7-1.6,4.5-2.6c0.8-1.1,1.2-2.6,1.3-4.4v-1.6L261.8,78.7L261.8,78.7
		z M260.3,77.4c-1,1.1-2.6,2-4.8,2.6l-1-1.6c2.1-0.6,3.6-1.3,4.4-2.1c0.7-0.9,1.2-2.1,1.2-3.6v-2.1h1.8v2.1c0,0.9-0.2,1.7-0.4,2.4
		c2.1,0.9,4.1,2,5.8,3.2l-1.1,1.6c-1.8-1.4-3.6-2.5-5.5-3.3C260.7,76.9,260.5,77.2,260.3,77.4z M258.1,74.9l-1.6,0.7
		c-0.4-1.4-0.9-2.5-1.5-3.6l1.6-0.6C257.2,72.5,257.7,73.6,258.1,74.9z M258,83.8l-1.6,0.7c-0.4-1.3-0.8-2.4-1.2-3.4l1.5-0.6
		C257.2,81.5,257.6,82.6,258,83.8z M266.6,81c-0.5,1.4-1.1,2.6-1.8,3.6l-1.6-0.9c0.7-0.9,1.3-2.1,1.7-3.3L266.6,81z M266.7,71.9
		c-0.5,1.4-1.1,2.7-1.8,3.8l-1.6-0.9c0.7-1,1.3-2.1,1.7-3.5L266.7,71.9z"/>
	<path class="st1" d="M8,117.8H6.1v-1H3v1.6H1.2v-14.5h1.9c0.4-1.1,0.6-2.2,0.8-3.3l1.9,0.3C5.6,102,5.3,103,4.9,104H8V117.8z
		 M6.1,109.3v-3.7H3v3.7H6.1z M6.1,115v-4H3v3.9L6.1,115L6.1,115z M18,116.6c-0.2,1.4-1.2,2.2-2.9,2.2c-0.4,0-1.1,0-2.1-0.1
		l-0.5-1.7c0.9,0,1.6,0.1,2.3,0.1c0.8,0,1.3-0.4,1.4-1.3c0.1-1,0.2-4.4,0.2-10.1h-5c-0.6,1.2-1.2,2.3-2,3.3l-1.1-1.5
		c1.3-1.9,2.2-4.3,2.7-7l1.9,0.2c-0.2,1.1-0.5,2.2-0.8,3.1h6.2C18.3,110.8,18.2,115,18,116.6z M14.6,113l-1.5,1.1
		c-0.8-1.3-1.8-2.8-3.1-4.4l1.5-1C12.9,110.3,13.9,111.7,14.6,113z"/>
	<path class="st1" d="M25.2,119h-1.8v-8.9c-0.5,1.5-1.1,2.9-1.8,4.2l-0.8-2.1c1.2-1.8,2-3.8,2.6-6.1h-2.2v-1.8h2.3v-3.8h1.8v3.8h1.8
		v1.8h-1.8v1.1c0.8,0.9,1.6,2,2.4,3.1l-1.1,1.6c-0.5-1-1-1.9-1.4-2.6V119z M27.9,105.7l-1.1-1.7c2.2-0.8,4-2,5.2-3.3h1.6
		c1,1.2,2.8,2.3,5.4,3.3l-1.1,1.7c-0.8-0.3-1.6-0.7-2.2-1.1v0.6h-5.6v-0.6C29.4,105,28.7,105.4,27.9,105.7z M37.8,105.9v5.6H28v-5.6
		H37.8z M37.4,118.8h-1.8v-0.7h-5.3v0.7h-1.8v-6.6h8.9V118.8z M32.1,107.4h-2.4v2.7h2.4V107.4z M31.7,109.5l-1,0.2
		c-0.2-0.6-0.5-1.2-0.7-1.8l1-0.3C31.3,108.2,31.5,108.8,31.7,109.5z M35.6,114.5v-0.9h-5.3v0.9H35.6z M35.6,116.7v-0.9h-5.3v0.9
		H35.6z M32.9,102.3c-0.5,0.5-0.9,1-1.5,1.4h2.9C33.8,103.2,33.3,102.8,32.9,102.3z M36.1,107.4h-2.4v2.7h2.4V107.4z M35.7,107.8
		c-0.2,0.7-0.4,1.4-0.7,1.9l-0.9-0.3c0.3-0.5,0.5-1.1,0.7-1.8L35.7,107.8z"/>
	<path class="st1" d="M48.7,104.4v-3.8h2v3.8h7.8v1.8h-6.3c1.3,3.2,3.4,6,6.5,8.5l-1.3,1.7c-3.2-3-5.4-6.4-6.7-10.1V119h-2v-12.7
		c-1.4,4.2-3.7,7.6-6.9,10.2l-1.1-1.8c2.9-2.2,5.1-5,6.4-8.5H41v-1.8C41,104.4,48.7,104.4,48.7,104.4z"/>
	<path class="st1" d="M68.9,104.5V103c-1.8,0.1-3.8,0.2-5.9,0.2l-0.6-1.7c5.4,0,10-0.4,13.7-1L77,102c-1.8,0.4-3.9,0.7-6.3,0.9v1.6
		h7.6v1.8h-6.2c2.6,1.1,4.9,2.3,6.8,3.5l-1.2,1.5c-0.6-0.4-1.2-0.9-1.9-1.3v8.9h-1.9v-1h-8.2v1h-1.9v-8.6c-0.7,0.3-1.5,0.7-2.2,1
		l-1.1-1.7c3.1-1,5.4-2.2,6.6-3.4H61v-1.8L68.9,104.5L68.9,104.5z M64.6,110h4.2v-3.3C67.9,107.9,66.5,109,64.6,110z M73.9,113.2
		v-1.5h-8.2v1.5H73.9z M73.9,116.3v-1.5h-8.2v1.5H73.9z M70.7,107.4v2.6h5C74.2,109.1,72.5,108.2,70.7,107.4z"/>
	<path class="st1" d="M91.6,107.9c0.5,0.5,0.8,1.1,0.8,1.9c0,0.7-0.3,1.4-0.8,1.9s-1.2,0.8-1.9,0.8c-0.8,0-1.4-0.3-1.9-0.8
		c-0.6-0.5-0.8-1.1-0.8-1.9s0.3-1.4,0.8-1.9s1.2-0.8,1.9-0.8C90.5,107.1,91.1,107.4,91.6,107.9z M88.7,108.8
		c-0.3,0.2-0.4,0.6-0.4,0.9c0,0.4,0.1,0.7,0.4,0.9c0.3,0.3,0.6,0.4,1,0.4s0.7-0.1,1-0.4s0.4-0.6,0.4-0.9c0-0.4-0.1-0.7-0.4-0.9
		c-0.3-0.3-0.6-0.4-1-0.4C89.3,108.4,89,108.5,88.7,108.8z"/>
</g>
</svg>
