<svg xmlns="http://www.w3.org/2000/svg" width="565.137" height="83.783" viewBox="0 0 565.137 83.783">
  <g id="section6_subtitle" transform="translate(0 -2634.608)">
    <g id="Group_1591" data-name="Group 1591" transform="translate(0.267 -8112.854)">
      <g id="Group_1590" data-name="Group 1590">
        <path id="Path_7939" data-name="Path 7939" d="M301.771,10786.465h-18.6v2.3c0,3.1-.65,4.65-3,5.6-2.35.851-5.2.9-8.85.9a24.189,24.189,0,0,0-2.25-6.1c2.05.1,5.15.1,5.9.1.8,0,1.05-.149,1.05-.75v-2.05H256.068v-5.7h19.951v-.95a41.7,41.7,0,0,0,4.25-2.45h-14.2v-5H286.92l1.5-.351,4.05,3.751c-2.35,1.649-5.1,3.4-7.95,5h17.251Zm-38.1-9.7h-6.85v-10.95h3.6l-.85-14.952a77.656,77.656,0,0,0,10.4-2.949l2.9,4.1a51.121,51.121,0,0,1-6.4,1.85l.051.952h5.95v4.349h-5.7l.1,1.151h5.651v2a28.742,28.742,0,0,0,2.75-1.4c-.8-.5-1.65-1-2.4-1.4l3.3-2.7q1.275.672,2.7,1.5a12.279,12.279,0,0,0,1.75-1.9l4.6,1.4a19.151,19.151,0,0,1-2.5,2.9,28.359,28.359,0,0,1,2.7,2.1l-3.5,3a26.709,26.709,0,0,0-2.6-2.2,33.374,33.374,0,0,1-3.451,2.2h14.9l.15-1.151h-5.15v-4.349h5.55l.05-1.151h-5.35v-4.349h5.65l.05-1.151h-6.05v-4.4h13.151c-.25,5.4-.65,11.751-1.1,16.552h3.651v10.95h-7.2v-5.8h-30.5Zm3.5-10.95h7.6c-.6-.651-1.5-1.6-2.25-2.3v1.149h-5.45Zm14.45-9.2a23.608,23.608,0,0,0-2.2-1.8,28.4,28.4,0,0,1-3.65,2.2,29.232,29.232,0,0,0-3.7-3.15,27.559,27.559,0,0,0,3.45-1.7c-.8-.45-1.55-.9-2.3-1.3l3.2-2.649c.85.4,1.75.9,2.651,1.4a15.618,15.618,0,0,0,1.549-1.649l4.551,1.351a22.455,22.455,0,0,1-2.3,2.649c.8.6,1.551,1.2,2.151,1.7Z" fill="#b78e66"/>
        <path id="Path_7940" data-name="Path 7940" d="M351.371,10764.964H341.22v21.15c0,4.3-.85,6.3-3.4,7.451-2.55,1.2-6.25,1.4-11.251,1.4a30.793,30.793,0,0,0-2.5-7.8c2.9.2,6.55.2,7.6.2,1.049-.05,1.449-.351,1.449-1.3v-18.852c-5.35,9.15-13.4,17.951-21.951,23.151a31.775,31.775,0,0,0-5.9-6.6c7.95-3.95,15.251-11.1,20.251-18.8h-18.5v-7.5h26.1v-9.649h8.1v9.649h10.151Z" fill="#b78e66"/>
        <path id="Path_7941" data-name="Path 7941" d="M398.021,10773.064a.565.565,0,0,0,.4-.15,1.509,1.509,0,0,0,.25-.85,30.719,30.719,0,0,0,.2-3.2,12.868,12.868,0,0,0,3.851,2.05,18.112,18.112,0,0,1-.65,4.55,3.182,3.182,0,0,1-1.55,1.851,4.734,4.734,0,0,1-2.4.55h-2.1a4.448,4.448,0,0,1-3.25-1.2c-.75-.8-1.05-1.75-1.1-4.3l-1.85,2.5a20.807,20.807,0,0,0-2.6-1.9,17.528,17.528,0,0,1-5.8,5.9,18.85,18.85,0,0,0-2.451-2.4v1.1c-7.95.5-16.1.95-22,1.25l-.2-3.95c2.35-.05,5.15-.15,8.25-.25v-1.2h-5.95v-3.25c-.35.05-.7.15-1.1.2a9,9,0,0,0-2.2-3.15c3.25-.35,4.85-.85,5.6-1.851h-4.3v-3.5h7.95v-1.049h-5.75v-3.352h5.75v-1.05h6v1.05h5.85v3.352h-5.85v1.049h8.15v3.5h-5.95v.1c0,.65.05.949.75.949h1.15a9.889,9.889,0,0,0,2.45-.25c.1,1,.1,2,.25,3.051a9.505,9.505,0,0,1-2.6.25h-2.5a5.447,5.447,0,0,1-1.7-.2v.8h6.1v3.35h-6.1v.95l7.8-.3a15.931,15.931,0,0,0,3.549-3.9c-1.35-.65-2.7-1.3-3.95-1.8l2.9-3.8h-1.451v-5h4.751v-2.852h5.3v2.852h7.4v11.8a8.434,8.434,0,0,0,.049,1.45c.051.2.15.25.3.25Zm-41.7,10.851h45.253v3.95h-8.2a40.841,40.841,0,0,1,6.451,4.55l-5,3c-.551-.55-1.251-1.149-2.051-1.8-25.851.8-29.4.851-32.052,1.5a42.728,42.728,0,0,0-2.05-4.6,12.443,12.443,0,0,0,3.35-1.1,33.686,33.686,0,0,0,3.151-1.55h-8.851Zm10.9-28.8h-10.55v-4.9h10.55v-2.5h7.051v2.5h4.25v4.9h-4.25v1.149h-7.051Zm-2.2,14.951v-2.5h4.3a6.873,6.873,0,0,1-.25-2.151v-.05h-3.15c-.7,2.3-2.451,3.8-6.451,4.7Zm30.752,8.851v3.949h-33.1v-3.949Zm-9,10.7a21.25,21.25,0,0,0-2.1-1.1l1.2-.649h-11.2c-1.15.7-2.3,1.4-3.5,2.05Zm-3.151-34.5h-3.7v-4.9h3.7v-2.5h7.151v2.5h10.8v4.9h-10.8v1.149h-7.151Zm-1.949,9.451a27.243,27.243,0,0,1,2.549,1.049c.051-.35.151-.7.2-1.049Zm8.15,0a22.324,22.324,0,0,1-.6,3.5c.9.5,1.7,1,2.45,1.449v-4.949Z" fill="#b78e66"/>
        <path id="Path_7942" data-name="Path 7942" d="M435.868,10785.015c-6.35,1.65-13.15,3.351-18.451,4.7l-1.4-6.95c1.9-.35,4.15-.8,6.65-1.3v-9.1h-5.2v-6.65h5.2v-7.6h-5.6v-6.7h17.351v6.7h-4.75v7.6h4.5v6.65h-4.5v7.6l5.45-1.2Zm21.952,3.3c.65,0,.85-.95.95-6.9a18.753,18.753,0,0,0,6.4,2.949c-.6,8.251-2.35,10.7-6.551,10.7h-2.95c-5.25,0-6.4-2.25-6.4-8.7v-14.2h-2.2c-.5,11.45-2.3,18.951-14.1,23.1a19.1,19.1,0,0,0-4-5.65c9.851-3.2,10.8-8.45,11.15-17.451h-5.05v-6.95H463.92v6.95h-7.45v14.151c0,1.8.05,2,.55,2Zm3.5-30.053H436.968v-6.9H461.32Z" fill="#b78e66"/>
        <path id="Path_7943" data-name="Path 7943" d="M480.118,10770.864a75.767,75.767,0,0,1-3.4,13.65c.75.5,1.649,1.1,2.8,1.75,3.4,2,8.35,2.3,14.151,2.3a156.5,156.5,0,0,0,20.5-1.45,29.09,29.09,0,0,0-2,7.1c-4.3.25-13,.6-18.8.6-6.7,0-10.95-.5-14.65-2.551-2.15-1.149-3.95-2.75-4.95-2.75-.95,0-2.4,3.551-3.2,6.15l-4.551-6.8a18.321,18.321,0,0,1,5.2-4.551,61.169,61.169,0,0,0,2.051-7.95h-5.551c.9-2.95,1.95-6.8,2.851-10.65h-3.451v-6.451h10.851c-.8,3.5-1.75,7.4-2.7,10.9h1.3l.9-.2Zm-8.3-12.352c-.55-2.35-1.7-6.1-2.451-8.9l5.55-1.649c.851,2.75,1.95,6.2,2.651,8.5Zm11.15,1.5h-3.8v-5.9h5.55c-.3-1.549-.75-3.3-1.149-4.7l6.5-1.1a57.727,57.727,0,0,1,1.7,5.8h4.1v2.851a41.335,41.335,0,0,0,3.951-9.5l6,1.65c-.351,1.1-.75,2.2-1.2,3.351h8.8v5.9h-11.4q-.6,1.2-1.2,2.25h8l1.15-.351,3.75,2.9a55.707,55.707,0,0,1-5.25,5.751v1.25h5.25v5.65h-5.25v4.5c0,2.7-.351,4.4-2.2,5.351-1.75.95-3.95,1.05-6.751,1.05a20.236,20.236,0,0,0-1.95-5.95c1.65.05,3.5.05,4.05.05.6,0,.75-.149.75-.6v-4.4h-4.9v-5.65h4.9v-2.5a21.836,21.836,0,0,0,1.9-1.85h-5.751v-4.451c-.8-.7-1.8-1.45-2.65-2.1v.75h-7.1v2.751h7.8s-.05,1.649-.05,2.35c-.25,12.951-.5,18.052-1.651,19.7a4.393,4.393,0,0,1-3.1,2.051,22.675,22.675,0,0,1-4.5.3,16.189,16.189,0,0,0-1.351-5.45,17.125,17.125,0,0,1-3.2,4.8,23.585,23.585,0,0,0-4.15-4.2c4-4.65,4.4-12.051,4.4-17Zm5.75,8.552a37.172,37.172,0,0,1-2.649,12.9,20.307,20.307,0,0,0,2.25.1,1.291,1.291,0,0,0,1.25-.7c.5-.8.7-3.85.849-12.3Z" fill="#b78e66"/>
        <path id="Path_7944" data-name="Path 7944" d="M563.37,10769.914a54.3,54.3,0,0,1-6.251,14.3c.5,1.45,1,2.25,1.551,2.3.65,0,1.05-2.1,1.25-6.05a21.287,21.287,0,0,0,4.95,4.1c-1.4,8.7-4.251,10.451-6.3,10.4-2.5-.1-4.5-1.7-6-4.65a28.5,28.5,0,0,1-3.9,3.55,23.5,23.5,0,0,0-3.7-3.7v2.6c-7.351.6-15.151,1.149-20.852,1.5l-.6-5.15c1.45-.05,3.1-.15,4.9-.25-.25-1-.551-2.05-.85-2.95l4.85-.8a31.239,31.239,0,0,1,1.151,3.451l2.25-.15a27.119,27.119,0,0,0,1.6-3.65l5.9.75c-.55.9-1.151,1.75-1.7,2.551l3.351-.2v.3a27.207,27.207,0,0,0,5.2-5,106.521,106.521,0,0,1-2.05-15.3l-2.5.35-.7-5.4c-.2.7-.4,1.349-.551,1.9l-5.1-.75c.2-1,.45-2.3.649-3.649h-5.05v1.5l3.951-.3.45,3.5-4.4.35c0,.9.15,1.351,1.2,1.351h3a18.689,18.689,0,0,0,3.85-.35c.1,1.45.15,2.5.35,3.85a14.617,14.617,0,0,1-3.9.351h-5.2c-4,0-4.9-1.75-5.051-4.7l-3.95.351-.449-3.551,4.4-.349v-2h-4.4v8.949c0,7.351-.6,18.6-4.051,25.651a23.552,23.552,0,0,0-4.8-3.85c2.8-6.3,3-15.352,3-21.8v-13.449h9.1v-8.052h6.7v2.2h10.151v4.5H534.668v1.352h6.551l.9-.151,4.251.651c-.35,1.8-.751,3.75-1.2,5.5l2.55-.351c-.2-4.2-.3-8.7-.4-13.5h6.65c0,4.4.1,8.65.25,12.65l9.2-1.25.8,6.3-9.6,1.3c.2,2.851.451,5.45.7,7.75a47.822,47.822,0,0,0,2.75-7.6Zm-18.4,5.65h-19.6v-4.351h19.6Zm-18.651,9.1v-8.1h17.9v8.1Zm5.3-3.25h6.951v-1.551h-6.951Zm26.452-22.2a82.1,82.1,0,0,0-3.8-8.25l5.3-2.55c1.35,2.449,3.25,5.8,4.15,7.85Z" fill="#b78e66"/>
      </g>
    </g>
    <g id="Group_1592" data-name="Group 1592" transform="translate(0.267 -8112.854)">
      <path id="Path_7945" data-name="Path 7945" d="M372.283,10811.847l2.3.838q1.062.407,1.063.914,0,.2-.557.254c-.337.034-.523.076-.557.128a14.078,14.078,0,0,1-2.429,2.767h1.19a11.03,11.03,0,0,0,.758-.914q.836-1.015.962-1.016.429,0,1.316.99a6.058,6.058,0,0,1,.734.889v-4.85a31.627,31.627,0,0,0-.2-3.631,20.524,20.524,0,0,1,3.326,1.219h3.554q.61-.659,1.118-1.117a1.04,1.04,0,0,1,.736-.432,4.479,4.479,0,0,1,1.473.736q1.346.94,1.345,1.295,0,.381-.558.762a.956.956,0,0,0-.457.787v6.982q0,1.219.127,3.352,0,.508-1.371.736a7.473,7.473,0,0,1-.889.076.609.609,0,0,1-.2-.025v4.494q0,.838.3.914a2.346,2.346,0,0,0,.813.1.636.636,0,0,0,.558-.406q.178-.762.559-3.656l.635.1.076,1.93a2.13,2.13,0,0,0,.711,1.625,1.637,1.637,0,0,1,.609,1.143,1.127,1.127,0,0,1-.482,1.066,4.381,4.381,0,0,1-2.666.635h-1.3a3.779,3.779,0,0,1-1.282-.2q-1.18-.28-1.18-2.031v-6.5h-.859a12.249,12.249,0,0,1-.783,3.783,8.862,8.862,0,0,1-1.315,2.158,7.072,7.072,0,0,1-2.122,1.625,19.4,19.4,0,0,1-3.731,1.6l-.331-.635a9.171,9.171,0,0,0,2.133-1.346,8.7,8.7,0,0,0,1.8-1.98,6.441,6.441,0,0,0,1.011-2.158,9.607,9.607,0,0,0,.379-2.209h-.051a5.935,5.935,0,0,1-.782.076.717.717,0,0,1-.81-.812q.1-1.318.1-2.615v-1.9a.449.449,0,0,1-.2.051h-4.469v3.25h1.015a4.233,4.233,0,0,0,.61-.686q.686-.812.812-.812.355,0,1.143.813t.787,1.016c0,.271-.11.406-.33.406h-4.037v1.041a9.947,9.947,0,0,1,3.072,1.295,2.118,2.118,0,0,1,.762,1.625,1.864,1.864,0,0,1-.533,1.219,1.309,1.309,0,0,1-.965.382q-.534,0-.914-1.118a8.091,8.091,0,0,0-1.422-2.641v3.275q0,2.462.1,3.936,0,.457-1.308.66a6.65,6.65,0,0,1-.805.076.648.648,0,0,1-.73-.736q.1-1.371.1-3.936v-.635a12.13,12.13,0,0,1-1.9,1.676,11.843,11.843,0,0,1-2.26,1.4l-.381-.2a24.419,24.419,0,0,0,4.393-7.312h-.026q-2.234,0-3.173.076l-.381-1.015a23.344,23.344,0,0,0,3.554.2h.178v-3.25h-.584q-2.235,0-3.148.1l-.432-1.016a21.173,21.173,0,0,0,3.58.229h2.33A43.11,43.11,0,0,0,372.283,10811.847Zm-2.733-4.469q1.524.154,2.945.381.915.051.914.457,0,.152-.558.381-.585.255-.584.635v1.6h.711a4.809,4.809,0,0,0,.787-.838q.811-.964.965-.965.381,0,1.244.939.888.965.889,1.168a.382.382,0,0,1-.432.432h-6.983q-2.233,0-3.148.1l-.406-1.041a23.191,23.191,0,0,0,3.554.2h.28v-1.4A12.564,12.564,0,0,0,369.55,10807.378Zm-2.133,4.469a10.622,10.622,0,0,1,2.387,1.219q.863.712.863,1.219a2.39,2.39,0,0,1-.431,1.5,1.737,1.737,0,0,1-1.219.533.777.777,0,0,1-.61-.2q-.228-.126-.38-1.219a7.73,7.73,0,0,0-.914-2.742Zm12.365,1.32h4.8v-3.021h-4.8Zm0,3.783h4.8v-3.072h-4.8Zm0,4.164h4.8v-3.479h-4.8Z" fill="#fff"/>
      <path id="Path_7946" data-name="Path 7946" d="M396.5,10808.7a17.728,17.728,0,0,0,3.58.33h10.131q.456-.381.736-.609a2.43,2.43,0,0,1,1.219-.635q.482,0,1.853,1.168,1.4,1.143,1.4,1.6,0,.356-1.117.432a2.242,2.242,0,0,0-1.219.279q-2.768,1.651-4.748,2.666.381.127.381.254,0,.483-.737.863a.685.685,0,0,0-.482.686v2.818h4.672a11.162,11.162,0,0,0,1.015-1.219q1.117-1.4,1.3-1.4.583,0,1.828,1.32t1.245,1.625c0,.271-.212.406-.635.406h-9.42v7.694q0,2.537-1.5,3.25a6.446,6.446,0,0,1-2.565.837q-.432,0-.685-.965-.406-1.523-3.682-2.59l.1-.635a21.247,21.247,0,0,0,3.732.406,2.463,2.463,0,0,0,1.219-.229c.22-.117.33-.381.33-.787v-6.982h-6.6a28.362,28.362,0,0,0-3.478.178l-.406-1.219a33.2,33.2,0,0,0,4.265.3h6.221v-.914a26.5,26.5,0,0,0-.33-4.469q1.295.2,2.31.381.355.051.61.1a33.83,33.83,0,0,0,3.275-3.936H400.08a23.188,23.188,0,0,0-3.149.2Z" fill="#fff"/>
      <path id="Path_7947" data-name="Path 7947" d="M422.459,10812.964a23.5,23.5,0,0,0,3.555.2h.533v-1.219a28.076,28.076,0,0,0-.33-4.57q1.219.1,3.022.406,1.243.179,1.244.533,0,.407-.686.66a.656.656,0,0,0-.533.635v3.555h.1a5.1,5.1,0,0,0,.661-.787q.76-.913.888-.914.381,0,1.244.914.89.889.889,1.117,0,.381-.432.381h-3.351v2.488a13.767,13.767,0,0,1,2.869,1.625q1.016.838,1.016,1.473a1.8,1.8,0,0,1-.483,1.295,1.156,1.156,0,0,1-.939.559,1.3,1.3,0,0,1-.737-.2,4.189,4.189,0,0,1-.634-1.5,6.3,6.3,0,0,0-1.092-2.057v12.671q0,.505-1.244.761a6.2,6.2,0,0,1-.787.076q-.889,0-.889-.837.2-2.437.2-4.444v-6.094a17.264,17.264,0,0,1-1.676,2.742,13.214,13.214,0,0,1-2.107,2.412l-.381-.178a42.216,42.216,0,0,0,4.088-10.791h-.457q-2.21,0-3.149.1Zm10.791-4.646a17.009,17.009,0,0,1,3.352,1.117h4.545q.481-.457.812-.838.583-.583.838-.584a3.751,3.751,0,0,1,1.574.787q1.346,1.066,1.346,1.447,0,.331-.609.736a1.311,1.311,0,0,0-.508.863v13.1l.228,5.18q0,.507-1.447.762a8.079,8.079,0,0,1-.914.076q-.686,0-.686-.838v-1.5H436.3v1.6q0,.505-1.32.761a7.436,7.436,0,0,1-.813.076q-.914,0-.914-.837.177-2.947.178-5.181v-12.086Q433.428,10811.06,433.25,10808.317Zm3.047,6.881h5.484v-5.052H436.3Zm0,6.221h5.484v-5.484H436.3Zm0,6.5h5.484v-5.789H436.3Z" fill="#fff"/>
      <path id="Path_7948" data-name="Path 7948" d="M456.264,10807.378q1.346.381,2.615.762,1.219.356,1.219.762,0,.432-.66.533t-.762.279a26.92,26.92,0,0,1-1.955,4.418,3.311,3.311,0,0,1,.432.127q.811.255.812.457a.876.876,0,0,1-.457.736.682.682,0,0,0-.33.66v14.32q0,.508-1.32.762c-.373.033-.644.051-.813.051q-.914,0-.914-.812.177-2.921.178-5.865v-6.982a29.232,29.232,0,0,1-2.844,3l-.406-.381a32.411,32.411,0,0,0,3.25-5.916A38.354,38.354,0,0,0,456.264,10807.378Zm2.514,10.156a20.963,20.963,0,0,0,3.554.229h2.133v-5.484q0-2.742-.2-4.8,1.269.126,3.148.456,1.32.179,1.321.559,0,.407-.813.66-.609.152-.609.559v8.049h1.853a7.2,7.2,0,0,0,.813-1.041q.939-1.192,1.092-1.193.507,0,1.574,1.143,1.091,1.143,1.092,1.4,0,.381-.534.381h-5.89v4.367h2.539a6.875,6.875,0,0,0,.939-1.143q1.016-1.295,1.194-1.295.558,0,1.7,1.244,1.167,1.219,1.168,1.524,0,.406-.533.405h-7.008v2.133q0,2.335.1,4.646,0,.507-1.345.762a8.072,8.072,0,0,1-.889.076q-.914,0-.914-.838.2-2.54.2-4.646v-2.133h-2.92q-2.235,0-3.148.076l-.432-1.016a23.733,23.733,0,0,0,3.58.2h2.92v-4.367h-2.133q-2.208,0-3.123.1Zm.736-7.186a13.469,13.469,0,0,1,3.326,2.133,2.492,2.492,0,0,1,.94,1.6,2.6,2.6,0,0,1-.61,1.752,1.506,1.506,0,0,1-1.244.686.818.818,0,0,1-.559-.229,4.864,4.864,0,0,1-.507-1.7,12.525,12.525,0,0,0-1.778-3.961Zm10.562-.635q1.3.457,2.489.889,1.167.432,1.168.965,0,.229-.584.3c-.373.051-.584.11-.635.178a23.271,23.271,0,0,1-4.469,4.469l-.33-.3A27.764,27.764,0,0,0,470.076,10809.714Z" fill="#fff"/>
      <path id="Path_7949" data-name="Path 7949" d="M483.417,10807.683q1.395.2,2.945.533,1.32.229,1.32.686,0,.407-1.015.584c-.39.034-.618.178-.686.432q-.279,1.727-.584,3.25h1.27q.507-.457.711-.686.609-.634.939-.635a3.861,3.861,0,0,1,1.473.939q1.141.94,1.142,1.295,0,.2-.711.609c-.406.2-.609.374-.609.508a28.63,28.63,0,0,1-1.6,7.211,8.679,8.679,0,0,1-.33.813,1.153,1.153,0,0,1,.2.1,5.654,5.654,0,0,1,2.159,2.082,3.084,3.084,0,0,1,.3,1.4,1.445,1.445,0,0,1-.38,1.066,1.52,1.52,0,0,1-1.042.533q-.355,0-1.041-1.168a12.956,12.956,0,0,0-1.269-1.878,9.564,9.564,0,0,1-1.447,1.878,16.767,16.767,0,0,1-5.205,3.631l-.2-.33a19.2,19.2,0,0,0,4.215-4.8,21.785,21.785,0,0,0,1.016-2.107,15.7,15.7,0,0,0-1.65-1.27c-.051.17-.094.322-.127.457a1.441,1.441,0,0,1-1.5.915q-1.549,0-1.549-.915a84.671,84.671,0,0,0,2.31-8.937c-.761.019-1.456.051-2.082.1l-.431-1.017a18.924,18.924,0,0,0,2.64.178Q483.138,10810.35,483.417,10807.683Zm2.107,14.523a15.34,15.34,0,0,0,.559-1.93,32.815,32.815,0,0,0,.914-6.4H485.27q-.813,4.292-1.676,7.592Q484.66,10821.826,485.524,10822.206Zm3.707-12.975a18.4,18.4,0,0,0,3.529.3h5.307q.407-.457.66-.762.788-.762,1.168-.762.458,0,1.7,1.066,1.32,1.042,1.321,1.473,0,.356-1.041.432a2.281,2.281,0,0,0-1.194.279q-1.929,1.576-3.377,2.564,1.371.23,1.371.457,0,.432-.736.787a.712.712,0,0,0-.508.66v2.615h1.651a12.791,12.791,0,0,0,.838-1.041q.914-1.192,1.091-1.193.483,0,1.549,1.143t1.067,1.4q0,.432-.483.432h-5.713v8.43q0,2.209-1.168,2.818a4.869,4.869,0,0,1-2.082.736q-.3,0-.507-.837-.306-1.373-2.844-2.312l.1-.533a9.7,9.7,0,0,0,2.235.33,2.333,2.333,0,0,0,1.168-.229.753.753,0,0,0,.279-.686v-7.719h-1.549q-2.208,0-3.148.1l-.407-1.016a26.774,26.774,0,0,0,3.555.178h1.549v-.812a36.6,36.6,0,0,0-.2-4.138q.913.127,1.65.253,1.016-1.472,2.082-3.4H492.76a23.542,23.542,0,0,0-3.148.2Z" fill="#fff"/>
      <path id="Path_7950" data-name="Path 7950" d="M508.894,10808.9a16.075,16.075,0,0,1,3.351,1.245h1.016q.432-.56.787-1.017.584-.71.813-.711a3.717,3.717,0,0,1,1.6.787q1.371,1.066,1.371,1.422,0,.331-.584.736a1.13,1.13,0,0,0-.431.787v9.445l.177,5q0,.483-1.345.711a8.072,8.072,0,0,1-.889.076q-.711,0-.711-.787v-1.016h-2.234v2.031q0,.482-1.244.711a6.215,6.215,0,0,1-.788.076q-.888,0-.888-.787.2-2.792.2-4.9v-9.317Q509.1,10811.542,508.894,10808.9Zm2.92,8.531h2.234v-6.6h-2.234Zm0,7.414h2.234v-6.678h-2.234Zm5.383-4.646a27,27,0,0,0,3.58.178h4.468v-.481a26.264,26.264,0,0,0-.228-2.666,21.765,21.765,0,0,1,2.793.507q1.7.3,1.7.711,0,.381-.711.635-.736.179-.736.584v.711h.533a4.307,4.307,0,0,0,.609-.711q.686-.787.787-.787.381,0,1.143.813.812.813.812.99,0,.432-.3.432h-3.58v6.8a2.466,2.466,0,0,1-1.041,2.26,4.433,4.433,0,0,1-2.412.787c-.238,0-.39-.246-.457-.735q-.23-1.17-2.793-2.312l.1-.533a22.8,22.8,0,0,0,3.149.33c.422,0,.634-.145.634-.432v-6.17h-4.468q-2.26,0-3.149.1Zm.533-8.836a22.964,22.964,0,0,0,3.529.2h1.117v-1.752a15.756,15.756,0,0,0-.178-2.335q1.777.177,3.4.481,1.066.051,1.066.533,0,.179-.66.457t-.66.66v1.955h1.93a8.262,8.262,0,0,0,.863-1.092q.965-1.242,1.142-1.244.534,0,1.651,1.193,1.116,1.169,1.117,1.422,0,.432-.533.432h-6.17v3.936h1.016a8.736,8.736,0,0,0,.888-1.092q.939-1.244,1.143-1.244.507,0,1.6,1.193,1.117,1.194,1.118,1.447c0,.288-.162.432-.483.432h-8.15q-2.21,0-3.149.1l-.381-1.016a24.812,24.812,0,0,0,3.428.178v-3.936h-1.117q-2.209,0-3.148.1Zm1.6,10.664a12.089,12.089,0,0,1,2.869,1.143q1.016.661,1.016,1.193a2.233,2.233,0,0,1-.432,1.447,1.611,1.611,0,0,1-1.218.585,1.368,1.368,0,0,1-.813-.2q-.3-.152-.508-1.219a5.722,5.722,0,0,0-1.193-2.641Z" fill="#fff"/>
      <path id="Path_7951" data-name="Path 7951" d="M537.062,10817.23a23.658,23.658,0,0,0,3.555.2h6.5v-7.516a13.851,13.851,0,0,0-.2-2.336q1.8.179,3.428.483,1.041.05,1.041.532c0,.119-.2.271-.61.457-.473.187-.711.406-.711.66v7.719h5.485a6.82,6.82,0,0,0,.939-1.143q1.016-1.295,1.193-1.295.558,0,1.7,1.244,1.167,1.219,1.168,1.523c0,.271-.178.406-.534.406h-7.287v8.328q0,1.143.356,1.447a7.926,7.926,0,0,0,2.107.152,7.285,7.285,0,0,0,1.5-.2q.634-.076.787-1.295l.94-4.266.584.1q.152,3.936.2,3.936a2.278,2.278,0,0,0,.457,1.117,1.427,1.427,0,0,1,.685,1.041,1.746,1.746,0,0,1-.558,1.4,4.406,4.406,0,0,1-2.006.584,10.206,10.206,0,0,1-2.59.254,29.906,29.906,0,0,1-3.6-.152,1.951,1.951,0,0,1-1.168-.609,3.392,3.392,0,0,1-.635-2.387v-9.445h-3.174a31.584,31.584,0,0,1-.432,5.51,8,8,0,0,1-3.859,5.307,17.188,17.188,0,0,1-4.519,1.98l-.2-.33a13.486,13.486,0,0,0,2.819-1.9,8.353,8.353,0,0,0,1.777-2.311,9.083,9.083,0,0,0,.99-2.641,30.454,30.454,0,0,0,.381-5.611h-2.945q-2.21,0-3.123.076Zm3.352-7.084a9.11,9.11,0,0,1,3.529,1.929,3.466,3.466,0,0,1,.838,2.311,1.986,1.986,0,0,1-.559,1.32,1.407,1.407,0,0,1-1.041.406q-.609,0-1.015-1.473a12.8,12.8,0,0,0-1.955-4.088Zm13.914-.813q1.523.432,2.64.762,1.447.407,1.448.736,0,.407-.864.508a1.184,1.184,0,0,0-.787.33,10.207,10.207,0,0,1-1.8,2.285,12.743,12.743,0,0,1-2.87,2.158l-.279-.381a21.217,21.217,0,0,0,1.4-2.792A19.881,19.881,0,0,0,554.328,10809.333Z" fill="#fff"/>
    </g>
    <rect id="Rectangle_171" data-name="Rectangle 171" width="342.567" height="21.216" transform="translate(0 2695.01)" fill="#b78e66"/>
  </g>
</svg>
