<svg xmlns="http://www.w3.org/2000/svg" width="231.469" height="118.834" viewBox="0 0 231.469 118.834">
  <g id="section4_txt3" transform="translate(-444.826 -1532.982)">
    <g id="Group_1562" data-name="Group 1562" transform="translate(0.015 -4569.432)">
      <path id="Path_7713" data-name="Path 7713" d="M449.076,6106.959a24.6,24.6,0,0,1,3.3,1.218h8.582q.432-.557.762-.939a.909.909,0,0,1,.66-.381,3.53,3.53,0,0,1,1.549.838q1.295.837,1.3,1.219c0,.169-.136.355-.406.558a.986.986,0,0,0-.407.559v2.513q0,.458-1.295.661a.711.711,0,0,1-.127.025,6.238,6.238,0,0,1,1.016.736q1.32,1.017,1.32,1.524c0,.2-.338.339-1.015.406a3.224,3.224,0,0,0-1.321.33q-1.5.762-3.072,1.447l.026.051q0,.432-.737.813a.61.61,0,0,0-.482.609v.1h5.256a6.972,6.972,0,0,0,.939-1.143q1.015-1.294,1.194-1.295.558,0,1.7,1.244t1.142,1.524q0,.381-.482.381h-9.75v2.869q0,2.208-1.5,2.818a7.278,7.278,0,0,1-2.565.711q-.355,0-.558-.787-.33-1.347-3-2.26l.1-.482a27.417,27.417,0,0,0,3.022.2,2.61,2.61,0,0,0,1.244-.229c.2-.1.3-.339.3-.711v-1.117c0-.355-.009-.694-.026-1.015H448.34q-2.209,0-3.148.1l-.381-1.016a22.885,22.885,0,0,0,3.529.2h7.389q-.076-1.4-.254-2.539,1.243.177,2.234.38.432.077.762.153l1.955-1.828h-9.852a15.3,15.3,0,0,0-2.513.177l-.432-1.193a17.136,17.136,0,0,0,2.945.279h9.674q.711-.709,1.168-1.193a2.118,2.118,0,0,1,.406-.33.575.575,0,0,1-.253-.508H452v.432q0,.481-1.3.711a5.222,5.222,0,0,1-.837.1.707.707,0,0,1-.788-.812,12.109,12.109,0,0,0,.1-1.651v-2.234Q449.178,6108.254,449.076,6106.959Zm5.866-4.545a34.13,34.13,0,0,1,3.427.457q1.041.051,1.041.558,0,.152-.609.432-.711.279-.711.685v1.016H463.5a11.239,11.239,0,0,0,1.016-1.193q1.117-1.371,1.295-1.371.584,0,1.752,1.295,1.218,1.294,1.219,1.548,0,.406-.534.407H448.975a22.163,22.163,0,0,0-3.479.228l-.406-1.219a33.367,33.367,0,0,0,4.291.305h5.764v-.838A13.489,13.489,0,0,0,454.942,6102.414ZM452,6111.96h9.547v-3.046H452Z" fill="#bb9167"/>
      <path id="Path_7714" data-name="Path 7714" d="M488.864,6105.74q1.446.483,2.792.99,1.27.483,1.27,1.066,0,.281-.66.356-.661.1-.736.228a19.772,19.772,0,0,1-3.961,2.844h2.64q.508-.532.889-.889.558-.609.812-.609.406,0,1.778,1.168,1.269,1.015,1.269,1.447c0,.221-.22.356-.66.407a1.534,1.534,0,0,0-.838.127,24.685,24.685,0,0,1-3.25,1.9l-.431-.2a17.366,17.366,0,0,0,.812-2.616H474.822a3.033,3.033,0,0,1,.153.915q0,2.131-.863,2.818a2.356,2.356,0,0,1-1.7.635,1.21,1.21,0,0,1-.914-.407,1.275,1.275,0,0,1-.3-.812,4.681,4.681,0,0,1,.99-1.574,7.607,7.607,0,0,0,1.066-3.707l.483-.1a7.212,7.212,0,0,1,.838,1.5h12.009A20.623,20.623,0,0,0,488.864,6105.74Zm-14.118,9.14q3.352.23,5.561.229h5.535a7.487,7.487,0,0,1,.711-.863q.635-.787.99-.787a5.372,5.372,0,0,1,1.7,1.117q1.55,1.194,1.549,1.65,0,.33-.66.584-.813.255-.939.635a16.826,16.826,0,0,1-3.733,3.529q.736.229,1.5.432a52.025,52.025,0,0,0,7.719,1.523l-.2.584a3.181,3.181,0,0,0-1.625,1.6q-.255.965-.406.965a19.658,19.658,0,0,1-4.038-.991,25.14,25.14,0,0,1-5.332-2.31c-.118-.068-.228-.136-.33-.2q-.3.151-.584.279a50.078,50.078,0,0,1-10.562,3.225l-.2-.432a51.279,51.279,0,0,0,7.211-2.92,26.226,26.226,0,0,0,2.386-1.422,9.02,9.02,0,0,1-1.65-1.676,21.168,21.168,0,0,1-2.742-3.783q-.99.025-1.422.051Zm15.844-9.623q-4.545.483-8.4.61-3.48.076-8.938.076l-.1-.686q4.7-.328,8.252-.914a44.844,44.844,0,0,0,7.9-1.929q1.243.787,2.26,1.5,1.091.787,1.092,1.345c-.051.136-.3.2-.737.2Zm-16.326,1.118a12.918,12.918,0,0,1,3.91,1.193,1.72,1.72,0,0,1,.94,1.422,2.111,2.111,0,0,1-.635,1.447,1.5,1.5,0,0,1-1.168.508q-.686,0-1.143-1.092a8.549,8.549,0,0,0-2.209-3Zm3.2,9.445a16.056,16.056,0,0,0,4.7,3.808c.186.1.39.2.61.305a4.536,4.536,0,0,0,.406-.355,11.331,11.331,0,0,0,2.971-3.784Q480.229,6115.794,477.463,6115.82Zm3.377-9.674a16.334,16.334,0,0,1,3.225,1.193q1.346.787,1.345,1.473a1.96,1.96,0,0,1-.711,1.6,1.53,1.53,0,0,1-1.091.431,1.152,1.152,0,0,1-.813-.279,1.873,1.873,0,0,1-.584-1.117,9.056,9.056,0,0,0-1.65-3.072Z" fill="#bb9167"/>
      <path id="Path_7715" data-name="Path 7715" d="M516.108,6105.257q-2.539.534-5.713.889v4.6h5a11.392,11.392,0,0,0,1.015-1.194q1.117-1.371,1.295-1.371.584,0,1.752,1.3,1.219,1.294,1.219,1.574,0,.381-.533.381h-9.75v4.8h2.869a12.366,12.366,0,0,1,1.142-1.269,1.161,1.161,0,0,1,.788-.483,4.735,4.735,0,0,1,1.574.787q1.472.99,1.472,1.346,0,.381-.584.762a.947.947,0,0,0-.431.761v3.58q0,1.245.1,3.454,0,.481-1.421.736a8.622,8.622,0,0,1-.915.076q-.711,0-.71-.812v-1.118H503.692v1.118q0,.481-1.321.736a8.589,8.589,0,0,1-.914.076.718.718,0,0,1-.812-.812q.1-1.424.1-2.87v-3.63a36.269,36.269,0,0,0-.2-3.885,25.526,25.526,0,0,1,3.834,1.447h2.971v-4.8h-6.5q-2.209,0-3.123.1l-.432-1.016a20.908,20.908,0,0,0,3.555.229h6.5v-4.266q-3.784.3-8.3.381l-.2-.609a76.265,76.265,0,0,0,9.572-1.5,31.487,31.487,0,0,0,6.348-2.26q1.32.889,1.955,1.32,1.295.889,1.3,1.32c0,.221-.2.33-.584.33Zm-12.416,18.053H514.28v-6.4H503.692Z" fill="#bb9167"/>
      <path id="Path_7716" data-name="Path 7716" d="M523.293,6116.607a33.207,33.207,0,0,0,4.266.305h4.9a20.755,20.755,0,0,0,.2-3.022q1.55.33,2.438.483,1.625.33,1.625.736,0,.33-.61.533a.977.977,0,0,0-.634.686c-.051.2-.094.4-.127.584h5.941a7.957,7.957,0,0,0,1.016-1.219q1.116-1.4,1.32-1.4.558,0,1.8,1.321t1.244,1.625q0,.406-.635.406h-9.8a9.828,9.828,0,0,0,1.651,1.955,10.869,10.869,0,0,0,3.275,1.955,29.753,29.753,0,0,0,5.612,1.549l-.1.635a2.746,2.746,0,0,0-1.676,1.244q-.432.99-.762.99a4.8,4.8,0,0,1-1.726-.635,15.6,15.6,0,0,1-3.1-1.777,9.364,9.364,0,0,1-2.26-2.285,10.515,10.515,0,0,1-1.675-3.631h-.33a9.568,9.568,0,0,1-5.1,6.551,23.665,23.665,0,0,1-6.652,1.98l-.2-.3a22.989,22.989,0,0,0,5.56-2.87,8.27,8.27,0,0,0,2.717-3.046,7.844,7.844,0,0,0,.863-2.311h-5.154a27.717,27.717,0,0,0-3.453.178Zm5.485-11.578q1.243.711,2.209,1.219,1.243.66,1.244,1.015t-.635.406c-.508,0-.8.077-.889.229a20.885,20.885,0,0,1-2.386,2.615,17.508,17.508,0,0,1-4.6,2.844l-.229-.381a23.156,23.156,0,0,0,3.123-3.6A15.445,15.445,0,0,0,528.778,6105.029Zm5.1-2.539a22.747,22.747,0,0,1,2.793.508q1.65.3,1.65.711,0,.355-.71.634-.687.179-.686.584v5.916a2.608,2.608,0,0,1-.965,2.285,3.8,3.8,0,0,1-2.183.762q-.381,0-.508-.711-.2-1.116-2.844-2.234l.1-.533a28.443,28.443,0,0,0,2.945.228c.389,0,.584-.143.584-.431v-5.079Q534.059,6104.4,533.881,6102.49Zm5.18,3.072a19.812,19.812,0,0,1,4.672,2.006q2.513,1.5,2.513,3.174a2.009,2.009,0,0,1-.431,1.345,1.867,1.867,0,0,1-1.27.661q-.583,0-1.168-1.041a25.231,25.231,0,0,0-2.056-3.174,18.03,18.03,0,0,0-2.59-2.59Z" fill="#bb9167"/>
      <path id="Path_7717" data-name="Path 7717" d="M549.192,6123.843a33.206,33.206,0,0,0,4.265.305h5.1v-18.891a10.611,10.611,0,0,0-.33-2.564q1.9.2,3.681.533,1.117.051,1.118.584c0,.136-.221.305-.661.508s-.66.44-.66.711v7.033h3.022a6.106,6.106,0,0,0,.888-.965q1.117-1.371,1.473-1.371.33,0,1.93,1.473.99.913.99,1.142,0,.406-.584.407h-7.719v11.4H567.5a11.237,11.237,0,0,0,1.016-1.193q1.117-1.345,1.3-1.346.583,0,1.752,1.269,1.218,1.271,1.219,1.549,0,.432-.534.432h-19.17a24.675,24.675,0,0,0-3.478.2Z" fill="#bb9167"/>
      <path id="Path_7718" data-name="Path 7718" d="M580.295,6102.693a14.324,14.324,0,0,1,2.361.457q1.27.279,1.27.559,0,.355-.508.558-.509.179-.508.381a12.4,12.4,0,0,1-2.869,3.25h1.651q.583-.686,1.041-1.193a1.015,1.015,0,0,1,.711-.457,4.177,4.177,0,0,1,1.421.711q1.3.888,1.295,1.218a.957.957,0,0,1-.457.711.936.936,0,0,0-.355.737V6120.9q0,1.168.127,3.25,0,.482-1.32.736a6.7,6.7,0,0,1-.813.076q-.711,0-.711-.812v-1.219h-3.25v1.7c0,.339-.415.584-1.244.737a6.773,6.773,0,0,1-.813.076.718.718,0,0,1-.812-.813q.1-1.32.1-2.64v-11.781a31.372,31.372,0,0,0-.2-3.631,17.735,17.735,0,0,1,2.92,1.041A18.657,18.657,0,0,0,580.295,6102.693Zm-.914,11.984h3.25v-6.068h-3.25Zm0,7.516h3.25v-6.779h-3.25Zm9.115-19.7q1.4.381,2.641.762,1.243.355,1.244.761,0,.431-.685.533c-.441.068-.686.162-.737.28q-.432,1.522-.914,2.767h4.063a12.234,12.234,0,0,1,1.041-.965,1.937,1.937,0,0,1,.761-.482,3.757,3.757,0,0,1,1.549.813q1.32.965,1.321,1.421c0,.221-.229.457-.686.711q-.432.256-.432.534a86.339,86.339,0,0,1-.584,10.46q-.609,3.555-1.4,4.52a3.55,3.55,0,0,1-1.549,1.143,3.821,3.821,0,0,1-1.574.431c-.254,0-.491-.339-.711-1.015q-.381-1.3-3.25-2.235l.127-.431q2.666.228,3.656.228.839,0,1.244-1.5a33.481,33.481,0,0,0,.61-4.723q.354-4.594.355-8.226h-4.85a18,18,0,0,1-.837,1.7,25.278,25.278,0,0,1-2.946,4.215l-.381-.432a34.353,34.353,0,0,0,1.829-5.179A48.568,48.568,0,0,0,588.5,6102.49Zm-.406,9.674a13.226,13.226,0,0,1,3.352,2.183,2.581,2.581,0,0,1,.939,1.651,2.872,2.872,0,0,1-.685,1.955,1.643,1.643,0,0,1-1.372.787.73.73,0,0,1-.533-.229,5.488,5.488,0,0,1-.508-1.8,13.816,13.816,0,0,0-1.675-4.165Z" fill="#bb9167"/>
      <path id="Path_7719" data-name="Path 7719" d="M601.725,6105.029a24.37,24.37,0,0,1,3.5,1.346h.431q.585-.737,1.041-1.27a1.085,1.085,0,0,1,.711-.457,4.589,4.589,0,0,1,1.422.686q1.295.888,1.3,1.244a.949.949,0,0,1-.457.685.994.994,0,0,0-.33.711V6116q0,1.218.1,3.25,0,.507-1.295.736a7.3,7.3,0,0,1-.838.076q-.736,0-.737-.812v-.889h-1.929v1.5q0,.483-1.219.762a6.381,6.381,0,0,1-.812.076q-.788,0-.788-.838.1-1.294.1-2.615v-8.532A32.513,32.513,0,0,0,601.725,6105.029Zm2.92,12.619h1.929V6107.06h-1.929Zm5.586-9.953a23.658,23.658,0,0,0,3.58.2h1.015v-.838a28.066,28.066,0,0,0-.33-4.57q1.194.1,3.022.406,1.243.179,1.244.533,0,.406-.686.66a.656.656,0,0,0-.533.635v3.174h1.016a8.364,8.364,0,0,0,.863-1.066q.914-1.168,1.092-1.168.482,0,1.549,1.142,1.066,1.117,1.066,1.371,0,.432-.482.432h-5.1v4.57h2.031a7.447,7.447,0,0,0,.991-1.142q1.066-1.3,1.244-1.295.558,0,1.7,1.218,1.167,1.245,1.168,1.5c0,.288-.178.431-.533.431h-6.069a16.84,16.84,0,0,0,3.25,4.647,11.914,11.914,0,0,0,3.733,2.361l-.1.609a2.51,2.51,0,0,0-1.625,1.6q-.3.939-.685.939-.3,0-1.448-1.472a18.047,18.047,0,0,1-2.259-3.783q-.788-1.829-1.4-3.733v10.385q0,.507-1.244.762a6.352,6.352,0,0,1-.787.076q-.914,0-.914-.838.228-2.437.228-4.469v-4.012a15.245,15.245,0,0,1-1.345,2.133,16.125,16.125,0,0,1-2.946,3.022,16.6,16.6,0,0,1-3.656,2.209l-.1-.28a20.419,20.419,0,0,0,3.834-4.24,26.478,26.478,0,0,0,2.945-5.916h-.483q-2.208,0-3.148.1l-.381-1.016a22.982,22.982,0,0,0,3.529.2h1.752v-4.57h-1.015q-2.235,0-3.149.1Z" fill="#bb9167"/>
      <path id="Path_7720" data-name="Path 7720" d="M629.324,6107.9a26.77,26.77,0,0,0,3.555.178h11.4a11.675,11.675,0,0,0,.787-.94q.864-1.091,1.041-1.092.457,0,1.447,1.067.992,1.042.991,1.269a.382.382,0,0,1-.432.432h-7.82v1.6H647q.483-.458.787-.762.51-.558.762-.559.3,0,1.523,1.041,1.094.916,1.092,1.295c0,.221-.193.365-.584.432a1.7,1.7,0,0,0-.813.1q-1.039.534-2.462,1.118a1.11,1.11,0,0,1,.228.381.381.381,0,0,1-.432.431h-3.123a25.858,25.858,0,0,0-2.767.1l-.381-1.016a18.365,18.365,0,0,0,3.148.2,7.409,7.409,0,0,0,.635-.787q.762-.863.889-.863.357,0,1.193.863c.018.017.035.034.051.051a12.157,12.157,0,0,0,.584-1.295h-7.033v5.662q0,.508-1.346.762a7.9,7.9,0,0,1-.889.076.729.729,0,0,1-.812-.838,29.906,29.906,0,0,0,.228-4.266v-1.4h-7.058a7.244,7.244,0,0,1-.153,1.549,2.115,2.115,0,0,1-.711,1.3,1.012,1.012,0,0,1-.609.2,2.127,2.127,0,0,1-1.447-.533,1.51,1.51,0,0,1-.483-1.219q0-.253.762-.66a4.9,4.9,0,0,0,1.295-.889,3.682,3.682,0,0,0,.787-1.4l.584.127v.787h7.033v-1.6h-4.595q-2.21,0-3.149.1Zm-2.133-3.25a36.045,36.045,0,0,0,4.266.279h2.437v-.279a7.278,7.278,0,0,0-.3-2.234q1.141.127,2.767.38,1.524.153,1.524.534,0,.406-.737.66a.66.66,0,0,0-.482.66v.279h4.469v-.279a7.276,7.276,0,0,0-.3-2.234q1.143.127,2.742.38,1.524.153,1.524.534,0,.406-.737.66a.664.664,0,0,0-.508.66v.279h2.463a7.382,7.382,0,0,0,.838-.99q.915-1.143,1.092-1.143.483,0,1.5,1.118,1.043,1.092,1.041,1.345,0,.406-.533.407h-6.4v1.193q0,.483-1.218.736a5.064,5.064,0,0,1-.787.1c-.541,0-.813-.178-.813-.533a7.176,7.176,0,0,0,.1-1.016v-.482h-4.469v1.295q0,.507-1.244.736a5.028,5.028,0,0,1-.787.1c-.559,0-.838-.177-.838-.533a7.132,7.132,0,0,0,.1-1.015v-.584h-2.818a28.526,28.526,0,0,0-3.479.177Zm1.32,11.045a44.2,44.2,0,0,0,4.9.2,4.6,4.6,0,0,0,.635-.736c.492-.575.779-.864.863-.864q.407,0,1.219.864c.543.558.812.914.812,1.066a.337.337,0,0,1-.381.381h-3.148q-3.147,0-4.469.1Zm1.219,1.219a23.964,23.964,0,0,1,3.53,1.345h10.816a14.044,14.044,0,0,1,1.092-1.117,1.032,1.032,0,0,1,.711-.431,4.248,4.248,0,0,1,1.5.761q1.371.94,1.371,1.27,0,.355-.61.711a.916.916,0,0,0-.431.711v2.031q0,1.192.1,3.25,0,.507-1.269.762a7.584,7.584,0,0,1-.863.076q-.687,0-.686-.838v-.381H632.676v.381q0,.507-1.219.762a6.376,6.376,0,0,1-.813.076c-.523,0-.787-.279-.787-.838q.1-1.294.1-2.615v-2.235A28.732,28.732,0,0,0,629.73,6116.912Zm.61-3.936a18.575,18.575,0,0,0,3.173.2c.036-.033.229-.279.584-.736.457-.542.729-.813.813-.813q.381,0,1.142.838.789.813.788.991c0,.288-.092.431-.28.431h-3.047a25.449,25.449,0,0,0-2.767.1Zm2.336,8.2h4.8v-2.234h-4.8Zm0,3.149h4.8v-2.412h-4.8Zm7.515-5.383v2.234h4.8v-2.234Zm0,2.971v2.412h4.8v-2.412Zm.635-6.5q1.8.177,5.281.177a4.65,4.65,0,0,0,.635-.812q.762-.888.889-.889c.254,0,.67.3,1.244.889q.89.914.888,1.117c0,.288-.134.432-.406.432h-3.25q-3.451,0-4.9.1Z" fill="#bb9167"/>
    </g>
    <g id="Group_1563" data-name="Group 1563" transform="translate(0.015 -4569.432)">
      <path id="Path_7721" data-name="Path 7721" d="M453.8,6148.065v-2.44h-8.222v-.44H453.8V6143.1h.44v2.081h8.222v.44H454.24v2.44h6.241v7.042H454.24v2.52h8.5v.44h-8.5v3.121h-.44v-3.121h-8.5v-.44h8.5v-2.52h-6.242v-7.042Zm0,3.321v-2.9h-5.821v2.9Zm0,.42h-5.821v2.881H453.8Zm.44-.42h5.821v-2.9H454.24Zm5.821.42H454.24v2.881h5.821Z" fill="#fff"/>
      <path id="Path_7722" data-name="Path 7722" d="M472.659,6157.887a53.022,53.022,0,0,1-7.481,1.841l-.1-.42c1.58-.261,3.081-.58,4.521-.941a63.517,63.517,0,0,0,1.6-9.621l.44.059a66.927,66.927,0,0,1-1.56,9.423c.88-.241,1.741-.5,2.58-.761Zm-3.72-11.1a31.44,31.44,0,0,0-1-3.441l.44-.08c.36,1.02.68,2.2,1,3.521h3.461v.44h-7.582v-.44Zm-1.06,10.522-.4.12c-.381-2.861-.861-5.6-1.421-8.241l.4-.121C466.978,6151.446,467.459,6154.187,467.879,6157.307Zm9.542-14.223v3.881h5.421v.44h-5.421v4.8H481.5v8.862h-.441v-1.52h-6.6v1.54h-.42v-8.882h2.941v-9.122Zm3.64,16.043v-6.5h-6.6v6.5Z" fill="#fff"/>
      <path id="Path_7723" data-name="Path 7723" d="M494.4,6145.064h8.2v.441H485.4v-.441h8.562a13.722,13.722,0,0,0-.82-2.08l.44-.08C493.86,6143.544,494.14,6144.265,494.4,6145.064Zm-2.941,4.021h4.8a17.539,17.539,0,0,0,1.781-2.96l.44.16a14.171,14.171,0,0,1-1.761,2.8h4.822v10.8a1.117,1.117,0,0,1-1.281,1.22h-2.14l-.14-.44,2.14.02c.64,0,.98-.3.98-.88v-10.3H496.48v2.621a.7.7,0,0,0,.8.78h3v.42h-3.22a.882.882,0,0,1-1-1V6149.5h-4a5.755,5.755,0,0,1-1.08,3.181,6.332,6.332,0,0,1-2.92,1.821l-.22-.36a6.328,6.328,0,0,0,2.76-1.7,5.494,5.494,0,0,0,1.04-2.941h-4.78v11.543h-.441v-11.963H491a12.926,12.926,0,0,0-1.44-2.88l.42-.16A14.345,14.345,0,0,1,491.459,6149.085Zm6.022,5.642v4.581h-6.942v-4.581Zm-.44.42h-6.062v3.761h6.062Z" fill="#fff"/>
      <path id="Path_7724" data-name="Path 7724" d="M506.638,6161.248h-.44V6144.1h15.6v17.143h-.44v-1H506.638Zm14.723-16.724H506.638v15.3h14.723Zm-10.282,3.441a8.849,8.849,0,0,0-1.2-1.96l.4-.12a7.93,7.93,0,0,1,1.24,2.08h1.821a16.785,16.785,0,0,0,.56-2.54l.44.06a15.048,15.048,0,0,1-.54,2.48h2.321a11.776,11.776,0,0,0,1.139-2.1l.4.1a10.632,10.632,0,0,1-1.08,2h2.38v.42h-5.282a14.738,14.738,0,0,1-.859,2.061h6.861v.44H516.3a31.941,31.941,0,0,1,4,4.061l-.26.28a35.292,35.292,0,0,0-4.321-4.341h-3.14a11.842,11.842,0,0,1-1.421,1.94h5.762v2.041q0,.959-1.381.96c-.64,0-1.26-.02-1.88-.06l-.1-.42c.64.04,1.281.08,1.96.08q.96,0,.96-.54v-1.621h-4.9v3.921c0,.44.34.66,1.059.66H516.9c.681,0,1.121-.119,1.3-.36a3.819,3.819,0,0,0,.38-1.62l.44.12a3.047,3.047,0,0,1-.62,1.96,2.708,2.708,0,0,1-1.52.321H512.66c-1.021,0-1.521-.361-1.521-1.061v-4.361a10.984,10.984,0,0,1-3.22,2.421l-.22-.36a10.436,10.436,0,0,0,4.381-4.021h-3.862v-.44h4.1a12.631,12.631,0,0,0,.9-2.061H509v-.42Z" fill="#fff"/>
      <path id="Path_7725" data-name="Path 7725" d="M534.44,6151.926a19.6,19.6,0,0,1,1.58,1.881l-.38.34a18.2,18.2,0,0,0-1.58-1.881,12.773,12.773,0,0,0-2.06-1.84l.359-.361A14.206,14.206,0,0,1,534.44,6151.926Z" fill="#fff"/>
      <path id="Path_7726" data-name="Path 7726" d="M552.54,6156.987l-.4.1c-.12-.38-.24-.74-.36-1.06a49.87,49.87,0,0,1-5.561.74l-.14-.42a2.323,2.323,0,0,0,.221-.12,21.285,21.285,0,0,0,3.32-3.441c-1.36.14-2.62.26-3.78.341l-.121-.421a.5.5,0,0,0,.2-.16,15.992,15.992,0,0,0,2.961-4.161l.42.16a17.576,17.576,0,0,1-2.96,4.121c1.2-.08,2.4-.18,3.62-.3.56-.72,1.12-1.5,1.7-2.34l.38.12a30.574,30.574,0,0,1-5.281,6.2c1.68-.16,3.32-.4,4.88-.68a20.665,20.665,0,0,0-.9-2l.38-.121A18.957,18.957,0,0,1,552.54,6156.987Zm-5.461.78a10.349,10.349,0,0,1-.881,3.5l-.42-.12a10.453,10.453,0,0,0,.88-3.42Zm14.423-13.7v3.541H546.718v-3.541Zm-10.023.42h-4.341v2.7h4.341Zm-1.66,16.484-.42.08c-.12-1.24-.28-2.32-.44-3.261l.4-.1C549.519,6158.688,549.679,6159.788,549.819,6160.968Zm2.82-.64-.379.16a19.989,19.989,0,0,0-.96-2.961l.419-.12C552.059,6158.308,552.359,6159.288,552.639,6160.328Zm3.7-15.844H551.92v2.7h4.421Zm-1.441,16.724h-.44v-9.542a15.416,15.416,0,0,1-1.941,2.2l-.12-.421a13.641,13.641,0,0,0,3.381-5.161l.4.08a13.316,13.316,0,0,1-1.18,2.481h3.741a17.639,17.639,0,0,0-.7-2.461l.44-.06c.239.72.48,1.561.7,2.521h3.481v.42H559.2v2.581h3.2v.42h-3.2v2.5h3.2v.44h-3.2v2.681h3.6v.42h-7.9Zm0-9.942v2.581h3.86v-2.581Zm0,5.5h3.86v-2.5H554.9Zm0,3.121h3.86v-2.681H554.9Zm6.161-15.4h-4.28v2.7h4.28Z" fill="#fff"/>
      <path id="Path_7727" data-name="Path 7727" d="M573.78,6145.185v-2.141h.44v2.141h8.362v.44H574.22v2.7h6.541v6.522H575.02q2.31,3.42,7.862,5.281l-.161.38c-3.961-1.4-6.7-3.3-8.181-5.661h-.32v6.441h-.44v-6.441h-.38q-1.86,3.39-8.022,5.781l-.22-.38q5.97-2.28,7.782-5.4H567.2v-6.522h6.581v-2.7h-8.362v-.44Zm0,3.561h-6.142v2.62h6.142Zm-6.142,5.661h6.142v-2.621h-6.142Zm12.683-5.661h-6.1v2.62h6.1Zm-6.1,5.661h6.1v-2.621h-6.1Z" fill="#fff"/>
      <path id="Path_7728" data-name="Path 7728" d="M585.318,6155.167l-.24-.34a16.169,16.169,0,0,0,4.521-7.9l.44.04a17.992,17.992,0,0,1-1.6,4.141v10.142H588v-9.382A16.87,16.87,0,0,1,585.318,6155.167Zm8.922-9.582a17.864,17.864,0,0,0-1.24-2.621l.44-.08a19.02,19.02,0,0,1,1.22,2.7h8v.42H585.378v-.42Zm1.141,1.54c-.241.78-.5,1.5-.781,2.181h6.381v.4a14.735,14.735,0,0,1-4.18,7.641,17.8,17.8,0,0,0,6.2,3.461l-.241.38a17.466,17.466,0,0,1-6.26-3.54,19.253,19.253,0,0,1-5.741,3.48l-.241-.38a18.467,18.467,0,0,0,5.681-3.361,15.945,15.945,0,0,1-3.54-4.941,12.992,12.992,0,0,1-2.28,2.16l-.261-.339a13.019,13.019,0,0,0,4.841-7.222Zm3.26,7.322a15.976,15.976,0,0,0,1.88-4.7H594.4a14.974,14.974,0,0,1-1.46,2.34,15.728,15.728,0,0,0,3.58,5,15.611,15.611,0,0,0,1.9-2.3,23.894,23.894,0,0,0-3.221-3.021l.261-.26A20.872,20.872,0,0,1,598.641,6154.447Z" fill="#fff"/>
      <path id="Path_7729" data-name="Path 7729" d="M613.74,6145.765a19.126,19.126,0,0,0-1.16-2.821l.42-.08a21.283,21.283,0,0,1,1.18,2.9h8.541v.42h-8.5v3.581h6.521v6.921c0,1.041-.48,1.561-1.4,1.561H617.4l-.12-.461,1.92.02c.721,0,1.1-.42,1.1-1.22v-6.4H614.22v10.922h-.44v-10.922h-5.842v8.181h-.42v-8.6h6.262v-3.581h-8.5v-.42Z" fill="#fff"/>
      <path id="Path_7730" data-name="Path 7730" d="M449.2,6176.1v-3.021h.42v3.021H452.9v.44h-3.281v3.821h3.421v.44h-3.061v3.7H452.9v.44h-2.921v4.341c.18.1.36.18.54.26,1.241.44,3.981.68,8.222.68,1.9-.02,3.321-.02,4.261-.02l-.08.46h-4.081c-4.661,0-7.561-.28-8.7-.82a7.646,7.646,0,0,1-3.36-3.581,20.144,20.144,0,0,1-1.4,4.8l-.32-.3a22.092,22.092,0,0,0,1.7-8.242l.4.04c-.04,1.061-.14,2.081-.26,3.041a8.393,8.393,0,0,0,2.641,3.4v-8.2h-4.021v-.44H449.2v-3.821h-3.321v-.44Zm4.721-1.26v-.441h8.022c0,3.121-.2,4.982-.58,5.6a2.055,2.055,0,0,1-1.921.9c-.34,0-.74-.02-1.18-.02l-.12-.4c.48.02.88.04,1.2.04a1.683,1.683,0,0,0,1.74-.961,17.966,17.966,0,0,0,.441-4.72h-4a12.368,12.368,0,0,1-1.1,3.72,7.837,7.837,0,0,1-2.4,2.481l-.28-.32a7.917,7.917,0,0,0,2.26-2.3,10.682,10.682,0,0,0,1.081-3.58Zm7.741,7.681v5.722H454.4v-5.722Zm-.44.46h-6.4v4.841h6.4Z" fill="#fff"/>
      <path id="Path_7731" data-name="Path 7731" d="M474.16,6177.6a18.934,18.934,0,0,0,8.9,13l-.26.34a18.9,18.9,0,0,1-8.782-12.342q-1.29,7.5-8.862,12.342l-.26-.36q8.581-5.462,8.922-14.143c.02-1.4.04-2.5.04-3.281h.44C474.3,6174.885,474.24,6176.365,474.16,6177.6Z" fill="#fff"/>
      <path id="Path_7732" data-name="Path 7732" d="M485.578,6178.485l-.28-.34a10.96,10.96,0,0,0,4.161-5.341l.44.04a12.776,12.776,0,0,1-.78,1.761h12.8v.439H488.859A12.113,12.113,0,0,1,485.578,6178.485Zm4.481,8.7a15.521,15.521,0,0,1-3.8,3.481l-.24-.36a15.534,15.534,0,0,0,3.7-3.421Zm9.722,2.261a26.865,26.865,0,0,1-.46-6.362v-2.9H486.078v-.42h13.663v3.32a26.923,26.923,0,0,0,.4,6.122c.2.9.54,1.36,1.02,1.36.321,0,.6-.34.821-1,.18-.6.36-1.42.56-2.461l.38.18a9.035,9.035,0,0,1-.84,3.041c-.26.48-.56.72-.881.72C500.561,6191.028,500.081,6190.488,499.781,6189.448Zm-7.981-4.3v-3.641h.419v3.641H497.5v.44h-5.282v5.521H491.8v-5.521h-5.622v-.44Zm-2.141-1-.36.16a13.625,13.625,0,0,0-1.7-2.381l.4-.18A12.761,12.761,0,0,1,489.659,6184.147Zm11.362-6.982v.42H488.8v-.42Zm-3.08,13.183-.26.32a28.405,28.405,0,0,0-3.761-3.441l.3-.32A27.588,27.588,0,0,1,497.941,6190.348Zm-1.5-8.542a12.5,12.5,0,0,1-1.721,2.5l-.42-.18a14.05,14.05,0,0,0,1.72-2.5Z" fill="#fff"/>
      <path id="Path_7733" data-name="Path 7733" d="M505.238,6191.008l-.08-.42c.66.02,1.3.04,1.921.04a.756.756,0,0,0,.859-.84v-6.121c-.88.359-1.78.66-2.68.939l-.08-.419a28.588,28.588,0,0,0,2.76-.96v-5.5h-2.5v-.42h2.5v-4.121h.441v4.121h2.12v.42h-2.12v5.321c.8-.36,1.58-.74,2.32-1.14v.44a24.777,24.777,0,0,1-2.32,1.14v6.4a1,1,0,0,1-1.141,1.12Zm9.5-14.363v-3.5h.44v9.842c-.06,3.721-1.26,6.422-3.6,8.142l-.32-.26a8,8,0,0,0,3.08-4.7,22.31,22.31,0,0,1-4.221.88l-.06-.42a17.386,17.386,0,0,0,4.4-.92,16.478,16.478,0,0,0,.28-2.721v-1.28h-3.421v-.44h3.421v-4.2h-3.8v-.42Zm4.321-3.5v3.5h3.9v.42h-3.9v4.2h3.361v.44h-3.361v4.341H523.1v.44h-4.041v4.7h-.44v-18.044Z" fill="#fff"/>
      <path id="Path_7734" data-name="Path 7734" d="M530.9,6174.165v.359a56.763,56.763,0,0,1-1.92,5.541,7.96,7.96,0,0,1,1.781,4.342,3.225,3.225,0,0,1-.581,2,3.409,3.409,0,0,1-2.44.76l-.141-.46c.08,0,.161.02.241.02a3.032,3.032,0,0,0,1.98-.6,2.486,2.486,0,0,0,.5-1.72,7.345,7.345,0,0,0-1.8-4.281,49.513,49.513,0,0,0,1.9-5.541h-3.8v16.523h-.44v-16.943Zm4.141,1.92a13.546,13.546,0,0,0-1.64-2.8l.4-.14a13.526,13.526,0,0,1,1.68,2.941h3.061a16.86,16.86,0,0,0,1.74-2.961l.44.14a12.962,12.962,0,0,1-1.74,2.821H542.7v.44H537.56a9.7,9.7,0,0,1-1.98,2.32,8.043,8.043,0,0,1,2.3,3.421,9.755,9.755,0,0,0,2.18-1.6,11.818,11.818,0,0,0,1.74-2.221l.361.241a13.924,13.924,0,0,1-1.8,2.26,11.013,11.013,0,0,1-1.92,1.46,16.609,16.609,0,0,0,4.7,6.221l-.22.381a16.453,16.453,0,0,1-4.8-6.4.438.438,0,0,0-.1.06,14.613,14.613,0,0,1,.56,4.141c0,1.961-.321,3.161-.92,3.621a3.845,3.845,0,0,1-1.941.54c-.46,0-.919.02-1.4.02l-.14-.4h1.38a3.152,3.152,0,0,0,1.8-.52c.52-.44.779-1.541.779-3.261a15.353,15.353,0,0,0-.259-2.861,21.048,21.048,0,0,1-6.682,5.242l-.239-.36a19.482,19.482,0,0,0,6.821-5.4,9.413,9.413,0,0,0-.961-2.44,13.158,13.158,0,0,1-5.041,4.021l-.22-.38a12.58,12.58,0,0,0,5.041-4.021,8.018,8.018,0,0,0-1.32-1.5,18.182,18.182,0,0,1-4.161,2.4l-.22-.38a13,13,0,0,0,6.2-4.6h-5.56v-.44Z" fill="#fff"/>
      <path id="Path_7735" data-name="Path 7735" d="M549.339,6178.225a24.614,24.614,0,0,1-4.08,9.262l-.341-.28a24.128,24.128,0,0,0,4-9.142Zm.68,12.743-.1-.42c1.16.02,2.26.04,3.3.04a.884.884,0,0,0,1-.98v-16.184h.42v16.284a1.128,1.128,0,0,1-1.28,1.26Zm13.083-3.681-.36.26a76.961,76.961,0,0,0-4.321-9.682l.36-.22A81.211,81.211,0,0,1,563.1,6187.287Z" fill="#fff"/>
      <path id="Path_7736" data-name="Path 7736" d="M570.619,6189.168h-.42v-1.52h-3.7v1.98h-.441v-14.543h4.561Zm-.42-1.941v-11.7h-3.7v11.7Zm1.6-7.822-.281-.3a17.093,17.093,0,0,0,3.481-6.082l.4.1a19.058,19.058,0,0,1-1.26,2.961h8.322v.44H573.9A16.645,16.645,0,0,1,571.8,6179.4Zm8.822.981v.42a57.35,57.35,0,0,0-4.581,4.9,21.179,21.179,0,0,0-1.981,2.641,2.8,2.8,0,0,0-.54,1.28c0,.56.46.84,1.4.84h4.962a2.531,2.531,0,0,0,1.78-.54c.359-.4.639-1.64.82-3.721l.4.16c-.161,2.16-.46,3.441-.92,3.861a2.856,2.856,0,0,1-2.08.66H574.86c-1.2,0-1.78-.42-1.78-1.22a2.433,2.433,0,0,1,.519-1.36,20.439,20.439,0,0,1,2.3-3.081c1.061-1.261,2.441-2.721,4.121-4.4H573.34v-.44Z" fill="#fff"/>
      <path id="Path_7737" data-name="Path 7737" d="M594.66,6181.706a1.867,1.867,0,0,1,.181.92,2.443,2.443,0,0,1-.541,1.581,2.358,2.358,0,0,1-1.36.82v-.461a2.107,2.107,0,0,0,1.1-.739,2.158,2.158,0,0,0,.3-1.181,1.249,1.249,0,0,1-.36.04.649.649,0,0,1-.46-.2.638.638,0,0,1-.2-.46.605.605,0,0,1,.16-.5.682.682,0,0,1,.52-.18A.752.752,0,0,1,594.66,6181.706Z" fill="#fff"/>
      <path id="Path_7738" data-name="Path 7738" d="M454.12,6216.827v-1.24a56.5,56.5,0,0,0,5.481-2.3H446.938v-.44h13.623v.361a47.86,47.86,0,0,1-6.021,2.62v1h8.442v.44H454.54v2.661q0,1.26-1.2,1.26h-2.9l-.12-.44c1.2.02,2.141.04,2.841.04a.863.863,0,0,0,.96-.98v-2.541h-9.1v-.44Zm.22-11.642h8.222v.44h-17.1v-.44h8.462a11.324,11.324,0,0,0-1.14-2.021l.44-.08A14.531,14.531,0,0,1,454.34,6205.185Zm5.241,2.34v3.381H448.439v-3.381Zm-.42.44h-10.3v2.521h10.3Z" fill="#fff"/>
      <path id="Path_7739" data-name="Path 7739" d="M479.6,6212.846v.42a13.14,13.14,0,0,1-5.061,4.7,30.771,30.771,0,0,0,8.142,2.841l-.26.34a30.4,30.4,0,0,1-8.282-2.96,32.189,32.189,0,0,1-8.5,2.92l-.24-.38a33.38,33.38,0,0,0,8.342-2.761,11.417,11.417,0,0,1-4.6-4.681H468.1v-.44Zm2.341.72h-.44v-3.58h-15v3.58h-.44v-4.021H477.22a20.212,20.212,0,0,0,2.341-4.06l.4.14a19.314,19.314,0,0,1-2.3,3.92h4.281Zm-.3-9.782a90.409,90.409,0,0,1-15.443,1.061l-.12-.421a94.042,94.042,0,0,0,15.344-1.04Zm-11.662,4.942-.4.2a22.042,22.042,0,0,0-1.941-2.8l.381-.2A23.3,23.3,0,0,1,469.979,6208.726Zm4.181,9.021a13.267,13.267,0,0,0,4.961-4.461h-9.5A11.2,11.2,0,0,0,474.16,6217.747Zm.46-9.162-.38.2a22.686,22.686,0,0,0-1.9-3.04l.4-.2A26.711,26.711,0,0,1,474.62,6208.585Z" fill="#fff"/>
      <path id="Path_7740" data-name="Path 7740" d="M493.78,6208.985v-4.24H486.9v-.441h14.2v.441H494.22v4.24h8.5v.42h-8.5v4.141h5.821v7.582h-.44v-1.46H488.4v1.46h-.44v-7.582h5.821V6209.4h-8.5v-.42Zm5.821,10.243v-5.242H488.4v5.242Z" fill="#fff"/>
      <path id="Path_7741" data-name="Path 7741" d="M514.26,6211.766a16.007,16.007,0,0,1-.5,2.481h8.881v.44H514.28q2.61,4.5,8.7,6.081l-.221.34c-4.16-1.08-7.121-3.221-8.921-6.421h-.22a9.482,9.482,0,0,1-1.9,3.3,14.108,14.108,0,0,1-6.521,3.261l-.16-.4a13.154,13.154,0,0,0,6.382-3.18,8.007,8.007,0,0,0,1.74-2.981h-7.782v-.44H513.3a13.377,13.377,0,0,0,.52-2.481ZM510.279,6205a13.1,13.1,0,0,1-4.161,5.422l-.32-.3a12.37,12.37,0,0,0,4.1-5.261Zm3.961-1.64v7.442h-.44v-7.442Zm7.821,6.8-.34.28a40.1,40.1,0,0,0-4.28-5.661l.34-.221A42.3,42.3,0,0,1,522.061,6210.166Z" fill="#fff"/>
      <path id="Path_7742" data-name="Path 7742" d="M533.28,6203.1v6.562H540.7v.419H533.28v9.7h9.5v.42H525.259v-.42h7.581V6203.1Z" fill="#fff"/>
      <path id="Path_7743" data-name="Path 7743" d="M551.66,6219.968h-.441v-1.361H546.5v1.921h-.441V6206.9h1.721a16.8,16.8,0,0,0,1-3.761l.439.06a19.163,19.163,0,0,1-1.019,3.7h3.461Zm-.441-7.542v-5.081H546.5v5.081Zm0,5.762v-5.342H546.5v5.342Zm10.563.1c-.181,1.72-1.081,2.6-2.7,2.6h-1.84l-.1-.42c.761,0,1.4.02,1.961.02,1.3,0,2.04-.72,2.241-2.14q.24-2.072.3-10.963H555.06a16.365,16.365,0,0,1-2.081,3.681l-.239-.32a18.456,18.456,0,0,0,3.12-7.622l.42.04a22.639,22.639,0,0,1-1.04,3.781h6.821Q562.061,6216.1,561.782,6218.288Zm-3.081-2.6-.32.26a32.794,32.794,0,0,0-3.821-4.521l.34-.22A33.354,33.354,0,0,1,558.7,6215.687Z" fill="#fff"/>
      <path id="Path_7744" data-name="Path 7744" d="M570.419,6219.188H570v-1.441h-3.481v1.9h-.44V6205.1h4.341Zm-.42-1.841v-11.822h-3.481v11.822Zm7.542-5.921v9.822H577.1v-9.822h-.5a16.431,16.431,0,0,1-4.94,8.022l-.221-.341a15.611,15.611,0,0,0,4.8-7.681H572v-.44h5.1v-4.261h-4.381v-.44H577.1v-3.2h.441v3.2H581.9v.44h-4.361v4.261h5.021v.44h-4.141a17.214,17.214,0,0,0,4.781,7.562l-.28.32a18.3,18.3,0,0,1-4.881-7.882Z" fill="#fff"/>
      <path id="Path_7745" data-name="Path 7745" d="M590.2,6204.484v-1.32h.42v1.32h2.741v.441h-2.741v1.44h-.42v-1.44h-4.681v-.441Zm11.5,2.5v.44H594.22v1.62h7.961v3.161h-.42v-2.761H594.22v4.222h-.44v-4.222h-7.542v2.761h-.42v-3.161h7.962v-1.62h-7.462v-.44Zm-1.16,14.263h-.421v-.94H587.9v.9h-.42v-6.421h13.064Zm-8.443-8.142a36.122,36.122,0,0,1-4.32.5l-.1-.379a32.215,32.215,0,0,0,4.3-.5Zm.1-1.64-.141.36a38.935,38.935,0,0,0-4.24-.74l.2-.34A34.367,34.367,0,0,1,592.2,6211.466Zm1.58,5.9v-2.16H587.9v2.16Zm0,2.521v-2.1H587.9v2.1Zm.44-2.521h5.9v-2.16h-5.9Zm5.9,2.521v-2.1h-5.9v2.1Zm-2.3-16.764v1.36H602.5v.441h-4.681v1.44h-.42v-1.44H594.64v-.441H597.4v-1.36Zm2.42,10.222-.14.381c-1.381-.281-2.82-.481-4.3-.641l.179-.34A35.2,35.2,0,0,1,600.241,6213.346Zm-4.421-1.98a28.507,28.507,0,0,0,4.121-.64l.16.38a24.6,24.6,0,0,1-4.2.64Z" fill="#fff"/>
      <path id="Path_7746" data-name="Path 7746" d="M609.339,6208.225a24.614,24.614,0,0,1-4.08,9.262l-.341-.28a24.128,24.128,0,0,0,4-9.142Zm.68,12.743-.1-.42c1.16.02,2.26.04,3.3.04a.884.884,0,0,0,1-.98v-16.184h.42v16.284a1.128,1.128,0,0,1-1.28,1.26Zm13.083-3.681-.36.26a76.961,76.961,0,0,0-4.321-9.682l.36-.22A81.211,81.211,0,0,1,623.1,6217.287Z" fill="#fff"/>
      <path id="Path_7747" data-name="Path 7747" d="M632.26,6206.305v.42h-4.5v3.561h4.081a60.455,60.455,0,0,1-.38,8.962c-.221,1.18-1.061,1.78-2.521,1.78-.14,0-.381-.02-.7-.02l-.1-.4c.281.02.54.04.741.04,1.18,0,1.881-.42,2.121-1.26a52.818,52.818,0,0,0,.4-8.662h-3.64c-.081,4.721-.92,8.2-2.5,10.4l-.321-.26c1.561-2.2,2.34-5.681,2.38-10.482v-3.661H625.3v-.42Zm-2.921-.82-.42.16a18.28,18.28,0,0,0-1.241-2.521l.42-.12A18.96,18.96,0,0,1,629.339,6205.485Zm3.14,3.96-.34-.259a14.437,14.437,0,0,0,3.3-6.1l.4.14c-.3.921-.621,1.76-.941,2.521h7.482v.42H634.7A12.658,12.658,0,0,1,632.479,6209.445Zm1.621,11.083c.16-.04.26-.12.26-.22v-10.462a26.655,26.655,0,0,0,6.941-1.74l.241.339a27.572,27.572,0,0,1-6.762,1.741v10.182c1.341-.34,2.661-.74,3.98-1.2l.061.42c-1.28.44-2.82.9-4.621,1.34Zm5-5.942a11.179,11.179,0,0,0,3.421-2.58l.279.3a10.935,10.935,0,0,1-3.52,2.681,19.15,19.15,0,0,0,3.781,5.8l-.28.3a20.6,20.6,0,0,1-5.2-9.882l.34-.22A23.718,23.718,0,0,0,639.1,6214.586Z" fill="#fff"/>
      <path id="Path_7748" data-name="Path 7748" d="M650.439,6203.544a15.907,15.907,0,0,1-5.3,5.8l-.12-.421a15.3,15.3,0,0,0,5.041-5.541Zm.96,4.541a18.629,18.629,0,0,1-2.5,3.561v9.562h-.421v-9.1a19.957,19.957,0,0,1-3.28,2.721l-.12-.46a17.414,17.414,0,0,0,5.941-6.462Zm11.423,1.941v.42h-3.48v9.3c0,.9-.521,1.36-1.541,1.36H654.82l-.08-.42c1,.02,1.98.04,2.921.04.82,0,1.24-.36,1.24-1.08v-9.2h-6.842v-.42Zm-.94-5.261v.42H652.7v-.42Z" fill="#fff"/>
      <path id="Path_7749" data-name="Path 7749" d="M675.6,6210.546a2.154,2.154,0,0,1,0,3.141,2.257,2.257,0,0,1-1.6.64,2.227,2.227,0,0,1-1.6-.64,2.022,2.022,0,0,1-.68-1.561,2.073,2.073,0,0,1,.68-1.6,2.207,2.207,0,0,1,1.6-.62A2.172,2.172,0,0,1,675.6,6210.546Zm-2.881.34a1.574,1.574,0,0,0-.519,1.24,1.633,1.633,0,0,0,.519,1.24,1.783,1.783,0,0,0,1.281.481,1.9,1.9,0,0,0,1.28-.5,1.666,1.666,0,0,0,.521-1.22,1.708,1.708,0,0,0-.521-1.24,1.813,1.813,0,0,0-1.28-.5A1.719,1.719,0,0,0,672.719,6210.886Z" fill="#fff"/>
    </g>
  </g>
</svg>
