<svg xmlns="http://www.w3.org/2000/svg" width="301.781" height="159.612" viewBox="0 0 301.781 159.612">
  <g id="section5_title" transform="translate(-1118.811 -7198.721)">
    <g id="Group_1581" data-name="Group 1581">
      <path id="Path_7820" data-name="Path 7820" d="M1138.962,7231.572l.7,6.7c-6.35,1.5-13.2,3-18.6,4.2l-1.5-7.15c2.8-.45,6.35-1.1,10.1-1.85a123.035,123.035,0,0,0,2.6-17.951l6.7,1.049c-.95,5.251-2.2,11.2-3.35,15.7Zm1.4-17.3h-20.5v-6.651h8.049a43.158,43.158,0,0,0-2.549-6.45l6.25-1.75a34.093,34.093,0,0,1,3.1,7.1l-3.45,1.1h9.1Zm-17.3,18.55a138.943,138.943,0,0,0-1.7-16l5.549-1.049a152.8,152.8,0,0,1,2.05,15.851Zm32.3-18.151v7.9h9.55v23.9h-7.451v-2.151h-10.051v2.35h-7.049v-24.1h7.5v-23.4h7.5v8.6h11.05v6.9Zm2.1,14.651h-10.051v8.251h10.051Z" fill="#6a2259"/>
      <path id="Path_7821" data-name="Path 7821" d="M1201.813,7231.572a46.065,46.065,0,0,0,15.051,8.451,30.084,30.084,0,0,0-5.2,6.351,47.8,47.8,0,0,1-15.252-10.9v11.251h-7.6v-10.951a45.593,45.593,0,0,1-14.951,10.5,34.284,34.284,0,0,0-5-6.1,45.445,45.445,0,0,0,14.75-8.6h-9.051v-19.7h14.252v-2.1h-18.352v-6.751h18.352v-3.8h7.6v3.8h18.852v6.751h-18.852v2.1h14.9v19.7Zm-20.151-12.35h7.151v-2h-7.151Zm0,7h7.151v-2.05h-7.151Zm14.75-9v2h7.452v-2Zm7.452,6.95h-7.452v2.05h7.452Z" fill="#6a2259"/>
      <path id="Path_7822" data-name="Path 7822" d="M1264.364,7205.471a37.5,37.5,0,0,1-6.651,13.5,30.07,30.07,0,0,0,9.7,4.6,28.714,28.714,0,0,0-3.8,4.9v17.95h-6.951v-1.449h-7.65v1.6h-6.65v-16.151l-.1.051a23.1,23.1,0,0,0-2.5-3.751v2.95h-5.05v5.351c1.851-.4,3.7-.8,5.5-1.2l.7,6.4c-7.2,1.75-15,3.55-20.951,4.9l-1.2-6.95,2-.35v-16.651h5.851v15.551l1.7-.35v-18.1h-6.95v-17.3h17.9v11.9a32.864,32.864,0,0,0,7.9-13.7l6.9,1.7c-.3.95-.65,1.95-1.05,2.9h5.5l1.25-.25Zm-36.752,6.65h5v-5h-5Zm12.15,12.3a30.823,30.823,0,0,0,8.6-5.4,31.854,31.854,0,0,1-2.2-3.1,23.818,23.818,0,0,1-2.049,2.35,48.181,48.181,0,0,0-4.851-4.2v4.2h-4.55v5.1h5.05Zm18.852,3.351a34.68,34.68,0,0,1-5.6-3.851,38.954,38.954,0,0,1-5.4,3.851Zm-1.951,11v-4.95h-7.65v4.95Zm-6.5-28.9-.349.6a32.288,32.288,0,0,0,2.85,3.9,31.823,31.823,0,0,0,2.75-4.5Z" fill="#6a2259"/>
      <path id="Path_7823" data-name="Path 7823" d="M1316.064,7207.371h-7.5a21.8,21.8,0,0,1,2.649,2.35l-3.8,3.3h3.651v13.7h-15.451v2h18.351s-.051,1.65-.15,2.5c-.4,6.5-.95,9.85-2.25,11.3a6.084,6.084,0,0,1-4.2,2,47.342,47.342,0,0,1-6.4.2,15.21,15.21,0,0,0-2.051-6.6,36.115,36.115,0,0,0,4.8.2,2.365,2.365,0,0,0,1.7-.45,6.44,6.44,0,0,0,.851-3.15h-10.651v12h-7.1v-8.851a44.905,44.905,0,0,1-14.351,8.5,29.193,29.193,0,0,0-4.549-5.7,46.391,46.391,0,0,0,13.15-5.95h-8.951a128.745,128.745,0,0,0,1.85-13.9h12.851v-1.9h-14.65v-5.051a48.014,48.014,0,0,0-4.7-4.9,27.914,27.914,0,0,0,7.1-10.25l6.4,1.9c-.2.449-.4.9-.6,1.35h9.9v5.1a22.978,22.978,0,0,0,5.05-8.35l6.6,1.7c-.2.5-.4,1.05-.6,1.55h13.051Zm-37,.05a39.358,39.358,0,0,1-4.3,5.6h8.65a48.824,48.824,0,0,0-4-3.851l1.95-1.75Zm9.45,19.3h-6.4l-.25,2h6.65Zm17.051-13.7a32.081,32.081,0,0,0-4.35-3.8l2.2-1.85h-3.251a28.231,28.231,0,0,1-4,5.05,40.731,40.731,0,0,0-5.349-4.25c.3-.25.55-.5.8-.75h-5.4a22.716,22.716,0,0,1,2.7,2.65l-3.15,2.951Zm-1.65,5.9h-8.3v1.9h8.3Z" fill="#6a2259"/>
      <path id="Path_7824" data-name="Path 7824" d="M1366.114,7218.522v7.95h-46.6v-7.95Z" fill="#6a2259"/>
      <path id="Path_7825" data-name="Path 7825" d="M1385.212,7226.722c-1.45.45-2.9.85-4.4,1.25v11.3c0,3.15-.5,5-2.2,6.1-1.7,1.15-4,1.4-7.3,1.4a25.571,25.571,0,0,0-1.8-6.75,34.788,34.788,0,0,0,3.851.05c.6,0,.8-.15.8-.8v-9.5l-4.049,1.1-1.5-6.951c1.6-.3,3.5-.75,5.55-1.2v-7.7h-4.7v-6.651h4.7v-9.1h6.651v9.1h4v6.651h-4v6.1l3.5-.9Zm7.25-27.552h6.451v21.252c0,10.15-1,19.951-9.6,26.3a29.656,29.656,0,0,0-5.2-4.8,17.654,17.654,0,0,0,5.9-6.85c-1.55.65-3.1,1.25-4.55,1.8l-2.7-6.25c2.45-.6,5.8-1.65,9.3-2.751q.224-1.8.3-3.75h-6.351v-6.35h6.45v-4.05h-6.9v-6.5h6.9Zm24,35.853h-8.15v11.65h-6.851v-47.5h6.851v8.051h7.35v6.5h-7.35v4.05h6.75v6.35h-6.75v4.351h8.15Z" fill="#6a2259"/>
      <path id="Path_7826" data-name="Path 7826" d="M1146.563,7296.123v4.6c0,3-.7,4.35-2.95,5.15-2.25.751-5.05.751-8.55.751a23.676,23.676,0,0,0-1.7-5,54.959,54.959,0,0,1-9.25,4.6,42.35,42.35,0,0,0-5.3-5.051c4.4-1.1,9.15-3,11.8-5l6.65,2.65a26.2,26.2,0,0,1-3.1,2.3c1.651.05,3.6.05,4.151.05.7-.05.949-.2.949-.75v-4.3h-12.8v-11.4h32.952v11.4Zm18.15-12.7h-44.351v-5.65h18.4c-.2-.3-.35-.55-.55-.8l1.95-.6h-14.9v-15.8h34.752v15.8h-14.352c.3.449.6.949.851,1.4h18.2Zm-32.5-17h20.5v-1.5h-20.5Zm0,5.6h20.5v-1.551h-20.5Zm1.2,19.251h18.651v-1.7h-18.651Zm18.8,5a79.384,79.384,0,0,1,12.951,5.55l-5.1,4.4a78.246,78.246,0,0,0-12.6-6.051Z" fill="#6a2259"/>
      <path id="Path_7827" data-name="Path 7827" d="M1210.764,7300.573c.6,0,.75-.5.85-6.1a15.279,15.279,0,0,0,4.9,2.3c-.5,7.55-1.85,9.4-5.1,9.4h-2.3c-4.1,0-4.9-1.8-4.9-7v-8.9h-1.4c-.6,6.95-2.25,12.8-8.6,16.5a16.152,16.152,0,0,0-2-3.3v1.4h-14.351v1.851h-5.1v-14.652c-.451.6-.851,1.2-1.3,1.7a40.926,40.926,0,0,0-2.65-5.05,33.333,33.333,0,0,0,5.5-9.251h-3.75v-10h10.2v10h-3.4l1.75.65c-.3.75-.6,1.55-.951,2.3h3.4a18.35,18.35,0,0,0-.851-2l2.651-1h-1.05v-10h10v10h-6.851a19.124,19.124,0,0,1,1.25,3h5.9v4.7h-5.8v1.25h4.8v4.4h-4.8v1.45h5.2v4.4h-5.2v1.5h5.4v.2c3.35-2.5,4.3-6,4.7-10.05h-2.849v-29.5h19.551v29.5h-4.1v8.85c0,1.3.05,1.45.5,1.45Zm-35.853-34.1h-5.8v-5.05h5.8v-2.15h5.5v9.45h-5.5Zm-.6,9.5h2.451v-3.051h-2.451Zm7.051,11.15h-3.5v1.25h3.5Zm0,5.651h-3.5v1.45h3.5Zm-3.5,7.35h3.5v-1.5h-3.5Zm10.35-31.4h-5.6v-9.45h5.6v2.1h5v5.05h-5Zm-2.2,7.151h2.35v-2.9h-2.35Zm14-6.951h7.3v-1.75h-7.3Zm0,7.5h7.3v-1.8h-7.3Zm0,7.45h7.3v-1.8h-7.3Z" fill="#6a2259"/>
      <path id="Path_7828" data-name="Path 7828" d="M1235.313,7285.072l1.649,6.4c-5.2,2.65-10.85,5.45-15.5,7.6l-2.9-7.3c1.75-.6,3.85-1.4,6.2-2.351v-12h-5v-6.851h5v-10.6h6.75v10.6h4.25v6.851h-4.25v9.25Zm21.85,14.3c2.6,0,3.1-1,3.55-5.8a20.705,20.705,0,0,0,6.3,2.6c-.85,7.2-2.95,9.65-9.15,9.65h-9.8c-7.45,0-9.5-2.1-9.5-9.85v-11.4l-2,.9-2.7-6.4,4.7-2v-12.9h6.9v9.95l2.7-1.149v-13.751h6.8v10.8l4.25-1.8,5.451,1.7-.25,1.05a165.52,165.52,0,0,1-1.9,22.252l-5.9-1.651c.4-3.8.65-9.65.8-15.2l-2.45,1.05v17.351h-6.8v-14.4l-2.7,1.2v14.4c0,3.05.35,3.4,3.3,3.4Z" fill="#6a2259"/>
      <path id="Path_7829" data-name="Path 7829" d="M1283.862,7290.922c-.4-1.25-1.05-2.8-1.75-4.45v20.252h-6.551v-18.352a47.214,47.214,0,0,1-3.9,9.451,50.421,50.421,0,0,0-3.251-7.55c2.651-3.6,5-10.1,6.3-15.2h-4.95v-6.7h5.8v-9.15h6.551v9.15h4.55v6.7h-4.55v2c1.3,1.7,5.1,7.6,5.9,9.051Zm13.05,5.5a34.077,34.077,0,0,1-6.95,9.6,42.4,42.4,0,0,0-5.3-3.85,21.807,21.807,0,0,0,5.951-7.55Zm-1.8-29.952h-8.251v-5.651h28.852v5.651h-8.85v1.6h7.9v12.551h-27.052v-12.551h7.4Zm9.251,27.552v12.65h-6.452v-12.65h-11.05v-5.6h28.852v5.6Zm-14.652-6.8v-5.4h23.2v5.4Zm3.8-11.651h1.6v-2.45h-1.6Zm8.3-9.1h-1.651v1.6h1.651Zm-1.651,9.1h1.651v-2.45h-1.651Zm10.3,19.152a46.661,46.661,0,0,1,5.951,7.6l-5.55,3.2a43.266,43.266,0,0,0-5.7-8.1Zm-3.6-21.6v2.45h1.7v-2.45Z" fill="#6a2259"/>
    </g>
    <rect id="Rectangle_154" data-name="Rectangle 154" width="301.131" height="38.584" transform="translate(1119.462 7319.75)" fill="#6a2259"/>
    <g id="Group_1720" data-name="Group 1720" transform="translate(0 -1.713)">
      <path id="Path_7830" data-name="Path 7830" d="M1146.2,7334.292v-7.5h3.12v7.5h3v3.06h-3v8.7c1.17-.42,2.34-.9,3.479-1.441v3.12a62.122,62.122,0,0,1-9.419,3.36l-.809-3.18c1.229-.24,2.429-.51,3.629-.84v-9.719h-3.209v-3.06Zm17.189-7.62v6.45l6.21-1.8a63.708,63.708,0,0,1-1.5,12.63l-2.909-.9a60.052,60.052,0,0,0,1.379-7.8l-3.18.93v11.79h-2.97v-10.95l-2.849.81v11.609c0,1.02.45,1.53,1.409,1.53h7.23a1.1,1.1,0,0,0,.991-.63,12.241,12.241,0,0,0,.509-3.9l2.91.93c-.24,3.18-.66,5.04-1.259,5.64a3.578,3.578,0,0,1-2.58.87h-8.76c-2.34,0-3.481-1.29-3.481-3.81V7338.7l-1.74.51v-3.06l1.74-.51v-5.91h3.031v5.04l2.849-.81v-7.29Z" fill="#fff"/>
      <path id="Path_7831" data-name="Path 7831" d="M1177.816,7339.542h6.33v2.85h-6.33v3.69a45.55,45.55,0,0,0,7.38-1.17v2.909a66.743,66.743,0,0,1-7.38,1.26v5.16h-3.06v-4.83c-.54.03-1.08.091-1.62.151l-.48-3.121,2.1-.12v-17.429a34.28,34.28,0,0,0,9.119-2.249l1.59,2.639a45.914,45.914,0,0,1-7.649,1.98v2.58h6.33v2.88h-6.33Zm20.639-.3v2.73a17.612,17.612,0,0,1-3.54,6.719,25.576,25.576,0,0,0,5.79,3.21l-1.65,2.7a27.09,27.09,0,0,1-6.24-3.9,24.629,24.629,0,0,1-7.379,3.93l-1.74-2.64a22.769,22.769,0,0,0,6.81-3.54,15.914,15.914,0,0,1-3.33-6.329h-1.621v-2.88Zm-1.56-11.639v6.179c0,.66.3,1.02.961,1.02h2.34v2.79h-3.181c-2.13,0-3.18-1.05-3.18-3.09v-4.02H1190.6v1.29a7.83,7.83,0,0,1-3.84,6.93l-2.1-2.4a4.544,4.544,0,0,0,2.879-4.2v-4.5Zm-4.32,18.928a15.351,15.351,0,0,0,2.76-4.409h-5.309A11.689,11.689,0,0,0,1192.575,7346.531Z" fill="#fff"/>
      <path id="Path_7832" data-name="Path 7832" d="M1211.535,7327.9a34.392,34.392,0,0,1-2.129,5.31v21.269h-3.06v-16.289c-.9,1.2-1.83,2.34-2.82,3.419l-.959-3.119a32.673,32.673,0,0,0,6.269-11.88Zm16.83,10.95v11.819h-2.791a44.124,44.124,0,0,1,5.01,1.44l-.959,2.37a37.8,37.8,0,0,0-7.17-2.34l.75-1.47h-5.16l1.051,1.44a23.981,23.981,0,0,1-7.231,2.34l-1.32-2.28a31.122,31.122,0,0,0,5.971-1.5h-3.54v-11.819Zm1.831-11.28v2.64h-5.581v1.44h4.62v6.27h-17.219v-6.27h4.74v-1.44h-4.86v-2.64Zm-13.051,6.33h-2.459v1.83h2.459Zm8.4,8.34v-1.29h-9.75v1.29Zm0,3.06v-1.231h-9.75v1.231Zm0,1.859h-9.75v1.29h9.75Zm-3.63-13.259h-2.489v1.83h2.489Zm0-3.69h-2.46v1.44h2.46Zm4.62,3.69H1224.2v1.83h2.339Z" fill="#fff"/>
      <path id="Path_7833" data-name="Path 7833" d="M1233.766,7341.762l-1.02-3.36a33.145,33.145,0,0,0,6-11.879l2.82,1.319a39.763,39.763,0,0,1-2.07,5.37v21.269h-3.06V7338.4C1235.6,7339.542,1234.726,7340.682,1233.766,7341.762Zm18.9-14.85-.18,2.28h7.02v2.82h-7.349l-.271,1.8h5.79v16.949h2.7v2.88h-19.889v-2.88h2.94v-16.949h5.34l.269-1.8h-7.259v-2.82h7.559c.06-.93.151-1.83.21-2.7Zm2.04,11.37v-1.65H1246.4v1.65Zm0,4.14v-1.68H1246.4v1.68Zm0,4.14v-1.68H1246.4v1.68Zm0,4.2v-1.739H1246.4v1.739Z" fill="#fff"/>
      <path id="Path_7834" data-name="Path 7834" d="M1289.925,7338.042v2.64h-13.2v13.8h-3.059v-2.43c-2.34.36-5.67.69-10.019,1.02l-.391-2.639,2.46-.12v-9.63h-2.489v-2.64Zm-3.42-1.2h-3.059v-6.96h-13.62v7.05h-3.03v-9.39h19.709Zm-12.839,5.34v-1.5h-4.98v1.5Zm0,3.87V7344.4h-4.98v1.651Zm0,3.539v-1.319h-4.98v1.83C1270.576,7349.951,1272.226,7349.772,1273.666,7349.591Zm8.909-15.059v2.04h-11.849v-2.04Zm-.059-3.27v2.07h-11.731v-2.07Zm-4.74,13.2v-2.579h10.559v2.43a13.376,13.376,0,0,1-2.639,5.4,21.826,21.826,0,0,0,4.349,2.28l-1.59,2.61a25.373,25.373,0,0,1-4.769-2.91,20.242,20.242,0,0,1-5.16,2.88l-1.59-2.43a19.371,19.371,0,0,0,4.649-2.459,13.091,13.091,0,0,1-2.819-5.221Zm7.74,0h-4.08a9.408,9.408,0,0,0,2.1,3.391A10.568,10.568,0,0,0,1285.516,7344.461Z" fill="#fff"/>
      <path id="Path_7835" data-name="Path 7835" d="M1308.316,7328.862H1319.9v2.88h-26.729v-2.88h11.73a16.9,16.9,0,0,0-.841-1.8l3.511-.6C1307.805,7327.182,1308.075,7327.992,1308.316,7328.862Zm4.229,25.469-.75-2.76,2.311.09c1.049,0,1.59-.36,1.59-1.08v-7.35h-18.3v11.19h-2.97v-13.889h24.238v10.679c0,2.07-1.228,3.12-3.659,3.12Zm2.79-21.359v6.36h-17.55v-6.36Zm-2.58,11.46v6.479H1300.4v-6.479Zm-.42-9.12h-11.55v1.68h11.55Zm-2.34,11.429h-6.839v1.861h6.839Z" fill="#fff"/>
      <path id="Path_7836" data-name="Path 7836" d="M1338.227,7347.4a2.215,2.215,0,0,1,.658,1.621,2.281,2.281,0,0,1-.658,1.649,2.444,2.444,0,0,1-1.682.63,2.216,2.216,0,0,1-1.619-.659,2.251,2.251,0,0,1,0-3.241,2.193,2.193,0,0,1,1.619-.629A2.391,2.391,0,0,1,1338.227,7347.4Zm.359-17.519-.75,15.269h-2.551l-.75-15.269Z" fill="#fff"/>
    </g>
  </g>
</svg>
