<?xml version="1.0" encoding="utf-8"?>
<!-- Generator: Adobe Illustrator 24.0.3, SVG Export Plug-In . SVG Version: 6.00 Build 0)  -->
<svg version="1.1" id="圖層_1" xmlns="http://www.w3.org/2000/svg" xmlns:xlink="http://www.w3.org/1999/xlink" x="0px" y="0px"
	 viewBox="0 0 231.5 118.8" style="enable-background:new 0 0 231.5 118.8;" xml:space="preserve">
<style type="text/css">
	.st0{fill:#BB9167;}
	.st1{fill:#FFFFFF;}
</style>
<g id="Group_1562" transform="translate(0.015 -4569.432)">
	<path id="Path_7713" class="st0" d="M4.2,4574c1.1,0.3,2.2,0.7,3.3,1.2h8.6c0.3-0.4,0.5-0.7,0.8-0.9c0.2-0.2,0.4-0.4,0.7-0.4
		c0.6,0.1,1.1,0.4,1.5,0.8c0.9,0.6,1.3,1,1.3,1.2c0,0.2-0.1,0.4-0.4,0.6c-0.2,0.1-0.3,0.3-0.4,0.6v2.5c0,0.3-0.4,0.5-1.3,0.7
		c0,0-0.1,0-0.1,0c0.4,0.2,0.7,0.5,1,0.7c0.9,0.7,1.3,1.2,1.3,1.5c0,0.2-0.3,0.3-1,0.4c-0.5,0-0.9,0.1-1.3,0.3c-1,0.5-2,1-3.1,1.4
		l0,0.1c0,0.3-0.2,0.6-0.7,0.8c-0.3,0.1-0.5,0.3-0.5,0.6v0.1h5.3c0.4-0.3,0.7-0.7,0.9-1.1c0.7-0.9,1.1-1.3,1.2-1.3
		c0.4,0,0.9,0.4,1.7,1.2c0.8,0.8,1.1,1.3,1.1,1.5c0,0.3-0.2,0.4-0.5,0.4h-9.8v2.9c0,1.5-0.5,2.4-1.5,2.8c-0.8,0.4-1.7,0.6-2.6,0.7
		c-0.2,0-0.4-0.3-0.6-0.8c-0.2-0.9-1.2-1.7-3-2.3l0.1-0.5c1,0.1,2,0.2,3,0.2c0.4,0,0.9-0.1,1.2-0.2c0.2-0.1,0.3-0.3,0.3-0.7v-1.1
		c0-0.4,0-0.7,0-1H3.5c-1.5,0-2.5,0-3.1,0.1l-0.4-1c1.2,0.2,2.3,0.2,3.5,0.2h7.4c-0.1-0.9-0.1-1.8-0.3-2.5c0.8,0.1,1.6,0.2,2.2,0.4
		c0.3,0.1,0.5,0.1,0.8,0.2l2-1.8H5.7c-0.8,0-1.7,0-2.5,0.2l-0.4-1.2c1,0.2,2,0.3,2.9,0.3h9.7c0.5-0.5,0.9-0.9,1.2-1.2
		c0.1-0.1,0.3-0.2,0.4-0.3c-0.2-0.1-0.3-0.3-0.3-0.5H7.2v0.4c0,0.3-0.4,0.6-1.3,0.7c-0.3,0.1-0.6,0.1-0.8,0.1
		c-0.4,0-0.7-0.2-0.8-0.6c0-0.1,0-0.1,0-0.2c0.1-0.5,0.1-1.1,0.1-1.7v-2.2C4.4,4575.6,4.3,4574.8,4.2,4574z M10.1,4569.4
		c1.1,0.1,2.3,0.2,3.4,0.5c0.7,0,1,0.2,1,0.6c0,0.1-0.2,0.2-0.6,0.4c-0.5,0.2-0.7,0.4-0.7,0.7v1h5.4c0.4-0.4,0.7-0.8,1-1.2
		c0.7-0.9,1.2-1.4,1.3-1.4c0.4,0,1,0.4,1.8,1.3c0.8,0.9,1.2,1.4,1.2,1.5c0,0.3-0.2,0.4-0.5,0.4H4.1c-1.2,0-2.3,0.1-3.5,0.2l-0.4-1.2
		c1.4,0.2,2.9,0.3,4.3,0.3h5.8v-0.8C10.3,4571,10.2,4570.2,10.1,4569.4z M7.2,4579h9.5v-3H7.2V4579z"/>
	<path id="Path_7714" class="st0" d="M44,4572.8c1,0.3,1.9,0.7,2.8,1c0.8,0.3,1.3,0.7,1.3,1.1c0,0.2-0.2,0.3-0.7,0.4
		c-0.4,0.1-0.7,0.1-0.7,0.2c-1.2,1.1-2.5,2.1-4,2.8h2.6c0.3-0.4,0.6-0.7,0.9-0.9c0.4-0.4,0.6-0.6,0.8-0.6c0.3,0,0.9,0.4,1.8,1.2
		c0.8,0.7,1.3,1.2,1.3,1.4c0,0.2-0.2,0.4-0.7,0.4c-0.3,0-0.6,0-0.8,0.1c-1,0.7-2.1,1.4-3.2,1.9l-0.4-0.2c0.3-0.8,0.6-1.7,0.8-2.6H30
		c0.1,0.3,0.1,0.6,0.2,0.9c0,1.4-0.3,2.4-0.9,2.8c-0.5,0.4-1.1,0.7-1.7,0.6c-0.3,0-0.7-0.1-0.9-0.4c-0.2-0.2-0.3-0.5-0.3-0.8
		c0.2-0.6,0.6-1.1,1-1.6c0.7-1.1,1-2.4,1.1-3.7l0.5-0.1c0.3,0.5,0.6,1,0.8,1.5h12C42.8,4576.5,43.5,4574.7,44,4572.8z M29.9,4581.9
		c2.2,0.2,4.1,0.2,5.6,0.2H41c0.2-0.3,0.5-0.6,0.7-0.9c0.4-0.5,0.8-0.8,1-0.8c0.6,0.3,1.2,0.6,1.7,1.1c1,0.8,1.5,1.3,1.5,1.6
		c0,0.2-0.2,0.4-0.7,0.6c-0.5,0.2-0.9,0.4-0.9,0.6c-1.1,1.4-2.3,2.6-3.7,3.5c0.5,0.2,1,0.3,1.5,0.4c2.5,0.7,5.1,1.2,7.7,1.5
		l-0.2,0.6c-0.7,0.3-1.3,0.9-1.6,1.6c-0.2,0.6-0.3,1-0.4,1c-1.4-0.2-2.7-0.5-4-1c-1.9-0.6-3.6-1.3-5.3-2.3c-0.1-0.1-0.2-0.1-0.3-0.2
		c-0.2,0.1-0.4,0.2-0.6,0.3c-3.4,1.5-6.9,2.5-10.6,3.2l-0.2-0.4c2.5-0.8,4.9-1.8,7.2-2.9c0.8-0.4,1.6-0.9,2.4-1.4
		c-0.6-0.5-1.2-1-1.6-1.7c-1.1-1.2-2-2.4-2.7-3.8c-0.7,0-1.1,0-1.4,0.1L29.9,4581.9z M45.8,4572.3c-3,0.3-5.8,0.5-8.4,0.6
		c-2.3,0.1-5.3,0.1-8.9,0.1l-0.1-0.7c3.1-0.2,5.9-0.5,8.3-0.9c2.7-0.4,5.3-1,7.9-1.9c0.8,0.5,1.6,1,2.3,1.5c0.7,0.5,1.1,1,1.1,1.3
		c-0.1,0.1-0.3,0.2-0.7,0.2L45.8,4572.3z M29.4,4573.4c1.4,0.2,2.7,0.6,3.9,1.2c0.5,0.3,0.9,0.8,0.9,1.4c0,0.5-0.2,1.1-0.6,1.4
		c-0.3,0.3-0.7,0.5-1.2,0.5c-0.5,0-0.8-0.4-1.1-1.1c-0.5-1.2-1.3-2.2-2.2-3L29.4,4573.4z M32.6,4582.8c1.3,1.6,2.9,2.8,4.7,3.8
		c0.2,0.1,0.4,0.2,0.6,0.3c0.1-0.1,0.3-0.2,0.4-0.4c1.2-1,2.3-2.3,3-3.8C37.4,4582.8,34.5,4582.8,32.6,4582.8L32.6,4582.8z
		 M36,4573.2c1.1,0.3,2.2,0.7,3.2,1.2c0.9,0.5,1.3,1,1.3,1.5c0,0.6-0.2,1.2-0.7,1.6c-0.3,0.3-0.7,0.4-1.1,0.4
		c-0.3,0-0.6-0.1-0.8-0.3c-0.3-0.3-0.5-0.7-0.6-1.1c-0.3-1.1-0.9-2.2-1.6-3.1L36,4573.2z"/>
	<path id="Path_7715" class="st0" d="M71.3,4572.3c-1.7,0.4-3.6,0.7-5.7,0.9v4.6h5c0.4-0.4,0.7-0.8,1-1.2c0.7-0.9,1.2-1.4,1.3-1.4
		c0.4,0,1,0.4,1.8,1.3c0.8,0.9,1.2,1.4,1.2,1.6c0,0.3-0.2,0.4-0.5,0.4h-9.8v4.8h2.9c0.4-0.4,0.7-0.9,1.1-1.3
		c0.2-0.3,0.5-0.4,0.8-0.5c0.6,0.2,1.1,0.4,1.6,0.8c1,0.7,1.5,1.1,1.5,1.3c0,0.3-0.2,0.5-0.6,0.8c-0.3,0.2-0.4,0.5-0.4,0.8v3.6
		c0,0.8,0,2,0.1,3.5c0,0.3-0.5,0.6-1.4,0.7c-0.3,0-0.6,0.1-0.9,0.1c-0.5,0-0.7-0.3-0.7-0.8v-1.1H58.9v1.1c0,0.3-0.4,0.6-1.3,0.7
		c-0.3,0-0.6,0.1-0.9,0.1c-0.4,0.1-0.8-0.2-0.8-0.6c0-0.1,0-0.1,0-0.2c0.1-0.9,0.1-1.9,0.1-2.9v-3.6c0-1.3-0.1-2.6-0.2-3.9
		c1.3,0.4,2.6,0.9,3.8,1.4h3v-4.8H56c-1.5,0-2.5,0-3.1,0.1l-0.4-1c1.2,0.2,2.4,0.3,3.6,0.2h6.5v-4.3c-2.5,0.2-5.3,0.3-8.3,0.4
		l-0.2-0.6c3.2-0.3,6.4-0.8,9.6-1.5c2.2-0.5,4.3-1.3,6.3-2.3c0.9,0.6,1.5,1,2,1.3c0.9,0.6,1.3,1,1.3,1.3c0,0.2-0.2,0.3-0.6,0.3
		L71.3,4572.3z M58.9,4590.3h10.6v-6.4H58.9L58.9,4590.3z"/>
	<path id="Path_7716" class="st0" d="M78.5,4583.6c1.4,0.2,2.8,0.3,4.3,0.3h4.9c0.1-1,0.2-2,0.2-3c1,0.2,1.8,0.4,2.4,0.5
		c1.1,0.2,1.6,0.5,1.6,0.7c0,0.2-0.2,0.4-0.6,0.5c-0.3,0.1-0.6,0.4-0.6,0.7c-0.1,0.2-0.1,0.4-0.1,0.6h5.9c0.4-0.4,0.7-0.8,1-1.2
		c0.7-0.9,1.2-1.4,1.3-1.4c0.4,0,1,0.4,1.8,1.3c0.8,0.9,1.2,1.4,1.2,1.6c0,0.3-0.2,0.4-0.6,0.4h-9.8c0.5,0.7,1,1.4,1.7,2
		c1,0.8,2.1,1.5,3.3,2c1.8,0.7,3.7,1.2,5.6,1.5l-0.1,0.6c-0.7,0.2-1.3,0.6-1.7,1.2c-0.3,0.7-0.5,1-0.8,1c-0.6-0.1-1.2-0.3-1.7-0.6
		c-1.1-0.5-2.1-1.1-3.1-1.8c-0.9-0.6-1.6-1.4-2.3-2.3c-0.8-1.1-1.4-2.3-1.7-3.6h-0.3c-0.6,2.8-2.5,5.3-5.1,6.6c-2.1,1-4.3,1.7-6.7,2
		l-0.2-0.3c2-0.7,3.8-1.7,5.6-2.9c1.1-0.8,2.1-1.8,2.7-3c0.4-0.7,0.7-1.5,0.9-2.3h-5.2c-1.2,0-2.3,0-3.5,0.2L78.5,4583.6z M84,4572
		c0.8,0.5,1.6,0.9,2.2,1.2c0.8,0.4,1.2,0.8,1.2,1c0,0.2-0.2,0.4-0.6,0.4c-0.5,0-0.8,0.1-0.9,0.2c-0.7,0.9-1.5,1.8-2.4,2.6
		c-1.4,1.2-2.9,2.1-4.6,2.8l-0.2-0.4c1.2-1.1,2.2-2.3,3.1-3.6C82.7,4575.1,83.5,4573.6,84,4572z M89.1,4569.5
		c0.9,0.1,1.9,0.3,2.8,0.5c1.1,0.2,1.7,0.4,1.7,0.7c0,0.2-0.2,0.4-0.7,0.6c-0.5,0.1-0.7,0.3-0.7,0.6v5.9c0.1,0.9-0.3,1.7-1,2.3
		c-0.6,0.5-1.4,0.7-2.2,0.8c-0.3,0-0.4-0.2-0.5-0.7c-0.1-0.7-1.1-1.5-2.8-2.2l0.1-0.5c1,0.1,2,0.2,2.9,0.2c0.4,0,0.6-0.1,0.6-0.4
		v-5.1C89.2,4571.7,89.2,4570.8,89.1,4569.5L89.1,4569.5z M94.2,4572.6c1.6,0.5,3.2,1.1,4.7,2c1.7,1,2.5,2.1,2.5,3.2
		c0,0.5-0.1,1-0.4,1.3c-0.3,0.4-0.8,0.6-1.3,0.7c-0.4,0-0.8-0.3-1.2-1c-0.6-1.1-1.3-2.2-2.1-3.2c-0.8-0.9-1.6-1.8-2.6-2.6
		L94.2,4572.6z"/>
	<path id="Path_7717" class="st0" d="M104.4,4590.9c1.4,0.2,2.8,0.3,4.3,0.3h5.1v-18.9c0-0.9-0.1-1.7-0.3-2.6
		c1.3,0.1,2.5,0.3,3.7,0.5c0.7,0,1.1,0.2,1.1,0.6c0,0.1-0.2,0.3-0.7,0.5s-0.7,0.4-0.7,0.7v7h3c0.3-0.3,0.6-0.6,0.9-1
		c0.7-0.9,1.2-1.4,1.5-1.4c0.2,0,0.9,0.5,1.9,1.5c0.7,0.6,1,1,1,1.1c0,0.3-0.2,0.4-0.6,0.4h-7.7v11.4h5.8c0.4-0.4,0.7-0.8,1-1.2
		c0.7-0.9,1.2-1.3,1.3-1.3c0.4,0,1,0.4,1.8,1.3c0.8,0.8,1.2,1.4,1.2,1.5c0,0.3-0.2,0.4-0.5,0.4h-19.2c-1.2,0-2.3,0.1-3.5,0.2
		L104.4,4590.9z"/>
	<path id="Path_7718" class="st0" d="M135.5,4569.7c0.8,0.1,1.6,0.2,2.4,0.5c0.8,0.2,1.3,0.4,1.3,0.6c0,0.2-0.2,0.4-0.5,0.6
		c-0.3,0.1-0.5,0.2-0.5,0.4c-0.8,1.2-1.7,2.3-2.9,3.2h1.7c0.4-0.5,0.7-0.9,1-1.2c0.2-0.2,0.4-0.4,0.7-0.5c0.5,0.1,1,0.4,1.4,0.7
		c0.9,0.6,1.3,1,1.3,1.2c0,0.3-0.2,0.6-0.5,0.7c-0.2,0.2-0.4,0.4-0.4,0.7v11.3c0,0.8,0,1.9,0.1,3.2c0,0.3-0.4,0.6-1.3,0.7
		c-0.3,0-0.5,0.1-0.8,0.1c-0.5,0-0.7-0.3-0.7-0.8v-1.2h-3.2v1.7c0,0.3-0.4,0.6-1.2,0.7c-0.3,0-0.5,0.1-0.8,0.1
		c-0.4,0.1-0.8-0.2-0.8-0.6c0-0.1,0-0.1,0-0.2c0.1-0.9,0.1-1.8,0.1-2.6v-11.8c0-1.2-0.1-2.4-0.2-3.6c1,0.3,2,0.6,2.9,1
		C135,4573,135.4,4571.4,135.5,4569.7z M134.6,4581.7h3.2v-6.1h-3.2V4581.7z M134.6,4589.2h3.2v-6.8h-3.2V4589.2z M143.7,4569.5
		c0.9,0.3,1.8,0.5,2.6,0.8c0.8,0.2,1.2,0.5,1.2,0.8c0,0.3-0.2,0.5-0.7,0.5c-0.4,0.1-0.7,0.2-0.7,0.3c-0.3,1-0.6,1.9-0.9,2.8h4.1
		c0.3-0.3,0.7-0.7,1-1c0.2-0.2,0.5-0.4,0.8-0.5c0.6,0.1,1.1,0.4,1.5,0.8c0.9,0.6,1.3,1.1,1.3,1.4c0,0.2-0.2,0.5-0.7,0.7
		c-0.3,0.2-0.4,0.3-0.4,0.5c0,3.5-0.2,7-0.6,10.5c-0.4,2.4-0.9,3.9-1.4,4.5c-0.4,0.5-0.9,0.9-1.5,1.1c-0.5,0.3-1,0.4-1.6,0.4
		c-0.3,0-0.5-0.3-0.7-1c-0.3-0.9-1.3-1.6-3.2-2.2l0.1-0.4c1.8,0.2,3,0.2,3.7,0.2c0.6,0,1-0.5,1.2-1.5c0.3-1.6,0.5-3.1,0.6-4.7
		c0.2-3.1,0.4-5.8,0.4-8.2h-4.8c-0.2,0.6-0.5,1.1-0.8,1.7c-0.8,1.5-1.8,2.9-2.9,4.2l-0.4-0.4c0.7-1.7,1.4-3.4,1.8-5.2
		C143.1,4573.6,143.4,4571.6,143.7,4569.5L143.7,4569.5z M143.3,4579.2c1.2,0.6,2.4,1.3,3.4,2.2c0.5,0.4,0.8,1,0.9,1.7
		c0,0.7-0.2,1.4-0.7,2c-0.3,0.5-0.8,0.8-1.4,0.8c-0.2,0-0.4-0.1-0.5-0.2c-0.3-0.6-0.4-1.2-0.5-1.8c-0.3-1.5-0.9-2.9-1.7-4.2
		L143.3,4579.2z"/>
	<path id="Path_7719" class="st0" d="M156.9,4572c1.2,0.4,2.4,0.8,3.5,1.3h0.4c0.4-0.5,0.7-0.9,1-1.3c0.2-0.2,0.4-0.4,0.7-0.5
		c0.5,0.1,1,0.4,1.4,0.7c0.9,0.6,1.3,1,1.3,1.2c0,0.3-0.2,0.5-0.5,0.7c-0.2,0.2-0.3,0.4-0.3,0.7v8c0,0.8,0,1.9,0.1,3.2
		c0,0.3-0.4,0.6-1.3,0.7c-0.3,0-0.6,0.1-0.8,0.1c-0.5,0-0.7-0.3-0.7-0.8v-0.9h-1.9v1.5c0,0.3-0.4,0.6-1.2,0.8
		c-0.3,0-0.5,0.1-0.8,0.1c-0.5,0-0.8-0.3-0.8-0.8c0.1-0.9,0.1-1.7,0.1-2.6v-8.5C157.1,4574.5,157,4573.3,156.9,4572z M159.8,4584.7
		h1.9v-10.6h-1.9V4584.7z M165.4,4574.7c1.2,0.2,2.4,0.2,3.6,0.2h1v-0.8c0-1.5-0.1-3.1-0.3-4.6c0.8,0.1,1.8,0.2,3,0.4
		c0.8,0.1,1.2,0.3,1.2,0.5c0,0.3-0.2,0.5-0.7,0.7c-0.3,0.1-0.5,0.3-0.5,0.6v3.2h1c0.3-0.3,0.6-0.7,0.9-1.1c0.6-0.8,1-1.2,1.1-1.2
		c0.3,0,0.8,0.4,1.5,1.1c0.7,0.7,1.1,1.2,1.1,1.4c0,0.3-0.2,0.4-0.5,0.4h-5.1v4.6h2c0.4-0.3,0.7-0.7,1-1.1c0.7-0.9,1.1-1.3,1.2-1.3
		c0.4,0,0.9,0.4,1.7,1.2c0.8,0.8,1.2,1.3,1.2,1.5c0,0.3-0.2,0.4-0.5,0.4h-6.1c0.8,1.7,1.9,3.3,3.2,4.6c1.1,1,2.4,1.8,3.7,2.4
		l-0.1,0.6c-0.8,0.2-1.4,0.8-1.6,1.6c-0.2,0.6-0.4,0.9-0.7,0.9c-0.2,0-0.7-0.5-1.4-1.5c-0.9-1.2-1.7-2.4-2.3-3.8
		c-0.5-1.2-1-2.5-1.4-3.7v10.4c0,0.3-0.4,0.6-1.2,0.8c-0.3,0-0.5,0.1-0.8,0.1c-0.6,0-0.9-0.3-0.9-0.8c0.2-1.6,0.2-3.1,0.2-4.5v-4
		c-0.4,0.7-0.8,1.5-1.3,2.1c-0.8,1.1-1.8,2.1-2.9,3c-1.1,0.9-2.3,1.6-3.7,2.2l-0.1-0.3c1.5-1.2,2.8-2.7,3.8-4.2
		c1.2-1.8,2.2-3.8,2.9-5.9h-0.5c-1.5,0-2.5,0-3.1,0.1l-0.4-1c1.2,0.2,2.3,0.2,3.5,0.2h1.8v-4.6h-1c-1.5,0-2.5,0-3.1,0.1
		L165.4,4574.7z"/>
	<path id="Path_7720" class="st0" d="M184.5,4574.9c1.2,0.1,2.4,0.2,3.6,0.2h11.4c0.3-0.3,0.5-0.6,0.8-0.9c0.6-0.7,0.9-1.1,1-1.1
		c0.3,0,0.8,0.4,1.4,1.1c0.7,0.7,1,1.1,1,1.3c0,0.2-0.1,0.4-0.3,0.4c0,0-0.1,0-0.1,0h-7.8v1.6h6.7c0.3-0.3,0.6-0.6,0.8-0.8
		c0.3-0.4,0.6-0.6,0.8-0.6c0.2,0,0.7,0.3,1.5,1c0.7,0.6,1.1,1,1.1,1.3c0,0.2-0.2,0.4-0.6,0.4c-0.3,0-0.6,0-0.8,0.1
		c-0.7,0.4-1.5,0.7-2.5,1.1c0.1,0.1,0.2,0.2,0.2,0.4c0,0.2-0.1,0.4-0.3,0.4c0,0-0.1,0-0.1,0h-3.1c-0.9,0-1.8,0-2.8,0.1l-0.4-1
		c1,0.2,2.1,0.2,3.1,0.2c0.2-0.2,0.4-0.5,0.6-0.8c0.5-0.6,0.8-0.9,0.9-0.9c0.2,0,0.6,0.3,1.2,0.9c0,0,0,0,0.1,0.1
		c0.2-0.4,0.4-0.9,0.6-1.3h-7v5.7c0,0.3-0.4,0.6-1.3,0.8c-0.3,0-0.6,0.1-0.9,0.1c-0.4,0.1-0.8-0.2-0.8-0.6c0-0.1,0-0.1,0-0.2
		c0.2-1.4,0.3-2.8,0.2-4.3v-1.4h-7.1c0,0.5,0,1-0.2,1.5c-0.1,0.5-0.3,1-0.7,1.3c-0.2,0.1-0.4,0.2-0.6,0.2c-0.5,0-1-0.2-1.4-0.5
		c-0.3-0.3-0.5-0.8-0.5-1.2c0-0.2,0.3-0.4,0.8-0.7c0.5-0.2,0.9-0.5,1.3-0.9c0.4-0.4,0.6-0.9,0.8-1.4l0.6,0.1v0.8h7v-1.6h-4.6
		c-1.5,0-2.5,0-3.1,0.1L184.5,4574.9z M182.4,4571.7c1.4,0.2,2.8,0.3,4.3,0.3h2.4v-0.3c0-0.8-0.1-1.5-0.3-2.2
		c0.8,0.1,1.7,0.2,2.8,0.4c1,0.1,1.5,0.3,1.5,0.5c0,0.3-0.2,0.5-0.7,0.7c-0.3,0.1-0.5,0.4-0.5,0.7v0.3h4.5v-0.3
		c0-0.8-0.1-1.5-0.3-2.2c0.8,0.1,1.7,0.2,2.7,0.4c1,0.1,1.5,0.3,1.5,0.5c0,0.3-0.2,0.5-0.7,0.7c-0.3,0.1-0.5,0.3-0.5,0.7v0.3h2.5
		c0.3-0.3,0.6-0.6,0.8-1c0.6-0.8,1-1.1,1.1-1.1c0.3,0,0.8,0.4,1.5,1.1c0.7,0.7,1,1.2,1,1.3c0,0.3-0.2,0.4-0.5,0.4H199v1.2
		c0,0.3-0.4,0.6-1.2,0.7c-0.3,0.1-0.5,0.1-0.8,0.1c-0.5,0-0.8-0.2-0.8-0.5c0.1-0.3,0.1-0.7,0.1-1v-0.5h-4.5v1.3
		c0,0.3-0.4,0.6-1.2,0.7c-0.3,0.1-0.5,0.1-0.8,0.1c-0.6,0-0.8-0.2-0.8-0.5c0.1-0.3,0.1-0.7,0.1-1v-0.6h-2.8c-1.2,0-2.3,0-3.5,0.2
		L182.4,4571.7z M183.7,4582.7c1.6,0.2,3.3,0.2,4.9,0.2c0.2-0.2,0.4-0.5,0.6-0.7c0.5-0.6,0.8-0.9,0.9-0.9c0.3,0,0.7,0.3,1.2,0.9
		c0.5,0.6,0.8,0.9,0.8,1.1c0,0.2-0.1,0.4-0.3,0.4c0,0-0.1,0-0.1,0h-3.1c-2.1,0-3.6,0-4.5,0.1L183.7,4582.7z M184.9,4583.9
		c1.2,0.4,2.4,0.8,3.5,1.3h10.8c0.3-0.4,0.7-0.8,1.1-1.1c0.2-0.2,0.4-0.4,0.7-0.4c0.5,0.2,1.1,0.4,1.5,0.8c0.9,0.6,1.4,1,1.4,1.3
		c0,0.2-0.2,0.5-0.6,0.7c-0.2,0.2-0.4,0.4-0.4,0.7v2c0,0.8,0,1.9,0.1,3.2c0,0.3-0.4,0.6-1.3,0.8c-0.3,0-0.6,0.1-0.9,0.1
		c-0.5,0-0.7-0.3-0.7-0.8v-0.4h-12.3v0.4c0,0.3-0.4,0.6-1.2,0.8c-0.3,0-0.5,0.1-0.8,0.1c-0.5,0-0.8-0.3-0.8-0.8
		c0.1-0.9,0.1-1.7,0.1-2.6v-2.2C185.1,4586.4,185.1,4585.2,184.9,4583.9L184.9,4583.9z M185.5,4580c1,0.2,2.1,0.2,3.2,0.2
		c0,0,0.2-0.3,0.6-0.7c0.5-0.5,0.7-0.8,0.8-0.8c0.3,0,0.6,0.3,1.1,0.8c0.5,0.5,0.8,0.9,0.8,1c0,0.3-0.1,0.4-0.3,0.4h-3
		c-0.9,0-1.8,0-2.8,0.1L185.5,4580z M187.8,4588.2h4.8v-2.2h-4.8V4588.2z M187.8,4591.3h4.8v-2.4h-4.8V4591.3z M195.4,4586v2.2h4.8
		v-2.2H195.4z M195.4,4588.9v2.4h4.8v-2.4H195.4z M196,4582.4c1.2,0.1,3,0.2,5.3,0.2c0.2-0.2,0.5-0.5,0.6-0.8
		c0.5-0.6,0.8-0.9,0.9-0.9c0.3,0,0.7,0.3,1.2,0.9c0.6,0.6,0.9,1,0.9,1.1c0,0.3-0.1,0.4-0.4,0.4h-3.2c-2.3,0-3.9,0-4.9,0.1
		L196,4582.4z"/>
</g>
<g>
	<path class="st1" d="M8.5,44.3V43H0.8v-1.8h7.7v-1.5h1.9v1.5h7.6V43h-7.6v1.3h6.1v8.1h-6.1v1.4h7.9v1.8h-7.9v2.5H8.5v-2.5h-8v-1.8
		h8v-1.4H2.3v-8.1H8.5z M8.5,47.5V46H4.1v1.5H8.5z M8.5,49.2H4.1v1.5h4.4V49.2z M10.5,47.5h4.3V46h-4.3V47.5z M14.8,49.2h-4.3v1.5
		h4.3V49.2z"/>
	<path class="st1" d="M28.1,55.3c-2.3,0.6-4.7,1.1-7.3,1.6L20.4,55c1.4-0.2,2.8-0.4,4.2-0.7c0.6-2.8,1-5.7,1.3-8.8l1.8,0.3
		c-0.3,2.9-0.8,5.7-1.4,8.1c0.6-0.2,1.2-0.3,1.7-0.5V55.3z M23.5,42.8c-0.2-1-0.5-1.9-0.8-2.7l1.9-0.3c0.2,0.9,0.5,1.9,0.7,3h3.1
		v1.8h-8v-1.8H23.5z M23.8,53.5l-1.6,0.4c-0.4-2.7-0.8-5.3-1.3-7.7l1.7-0.5C23,47.9,23.5,50.5,23.8,53.5z M33.6,39.7V43h4.9v1.8
		h-4.9v3.5h4V58h-1.8v-1.2h-5.2V58h-1.8v-9.7h2.9v-8.7H33.6z M35.8,55v-5h-5.2v5H35.8z"/>
	<path class="st1" d="M50.4,41.1h7.8v1.8h-5.3l1.5,0.5c-0.4,0.7-0.7,1.4-1.2,1.9h4.3V56c0,1.4-0.7,2.1-2,2.1h-2L53,56.4h-7.5v-5.3
		h7.8v5.2l1.6,0c0.5,0,0.7-0.3,0.7-0.8v-8.5h-3.2v1.2c0,0.4,0.2,0.6,0.6,0.6h2v1.5h-2.8c-1,0-1.5-0.5-1.5-1.4v-2h-2.7
		c-0.2,1.1-0.5,2-1,2.7c-0.6,0.8-1.6,1.4-3,1.8l-0.8-1.5c1-0.3,1.8-0.8,2.3-1.4c0.4-0.4,0.6-1,0.8-1.7h-3.1V58h-1.8V45.4h4.2
		c-0.3-0.7-0.6-1.3-1-1.9l1.3-0.5h-5.2v-1.8h7.8c-0.2-0.5-0.4-0.9-0.6-1.3l2-0.3C50.1,40,50.2,40.5,50.4,41.1z M51.1,45.4
		c0.5-0.8,0.9-1.6,1.3-2.4h-6.1c0.4,0.7,0.7,1.5,1,2.4H51.1z M51.5,52.7h-4.2v2h4.2V52.7z"/>
	<path class="st1" d="M62.8,58.2H61V40.3h16.8v17.9H76v-0.8H62.8V58.2z M76,42H62.8v13.9H76V42z M65.6,44.4
		c-0.2-0.5-0.4-0.9-0.7-1.3l1.5-0.5c0.3,0.5,0.6,1.2,0.8,1.9h1.1c0.2-0.6,0.3-1.3,0.4-2l1.7,0.2c-0.1,0.6-0.2,1.2-0.3,1.8h1.4
		c0.3-0.6,0.6-1.3,0.9-1.9l1.5,0.6c-0.2,0.5-0.5,1-0.7,1.4h1.7v1.5h-5.1c-0.1,0.3-0.2,0.6-0.4,0.9h6v1.5h-2.3c1,0.8,1.9,1.7,2.8,2.7
		l-1.1,1.2c-0.8-0.9-1.5-1.7-2.3-2.4v1.9c0,0.8-0.5,1.2-1.6,1.3c-0.6,0-1.2,0-1.7-0.1l-0.3-1.3c0.5,0.1,1,0.1,1.4,0.1
		c0.4,0,0.6-0.2,0.6-0.5v-0.6h-3.1v2.7c0,0.4,0.2,0.6,0.7,0.6h3.2c0.6,0,0.9-0.1,1.1-0.3c0.1-0.2,0.2-0.6,0.3-1.3l1.6,0.5
		c-0.2,1.2-0.4,1.9-0.7,2.1c-0.3,0.2-0.9,0.3-1.8,0.3h-4.3c-1.1,0-1.6-0.5-1.6-1.5V51c-0.6,0.5-1.3,1-2,1.4l-0.9-1.4
		c1.4-0.7,2.5-1.6,3.3-2.7h-2.8v-1.5h3.7c0.1-0.3,0.3-0.6,0.4-0.9h-3.6v-1.5H65.6z M70.7,48.2h-2.4c-0.2,0.3-0.4,0.6-0.6,0.9h4
		C71.4,48.8,71.1,48.5,70.7,48.2z"/>
	<path class="st1" d="M90.3,48.3c0.6,0.7,1.2,1.4,1.8,2.1l-1.3,1.1c-0.5-0.8-1.1-1.5-1.7-2.1c-0.7-0.8-1.5-1.5-2.3-2.1l1.1-1
		C88.7,46.8,89.5,47.5,90.3,48.3z"/>
	<path class="st1" d="M102.9,54.7c-0.1,1.3-0.3,2.5-0.6,3.6l-1.6-0.5c0.4-0.9,0.6-2,0.7-3.2L102.9,54.7z M108.2,53.5l-1.5,0.4
		c-0.1-0.2-0.1-0.5-0.2-0.7c-1.8,0.4-3.5,0.7-5.1,0.8l-0.4-1.5c0.3-0.1,0.5-0.3,0.7-0.5c0.5-0.4,1.2-1.1,1.9-2
		c-0.8,0.1-1.7,0.2-2.6,0.3l-0.4-1.4c0.2-0.1,0.5-0.3,0.7-0.6c0.8-1,1.5-2.2,2.1-3.4l1.7,0.6c-0.8,1.3-1.5,2.4-2.3,3.3l2-0.2
		c0.5-0.7,0.9-1.4,1.5-2.1l1.6,0.6c-1.8,2.4-3.2,4.2-4.4,5.3c0.9-0.1,1.8-0.3,2.7-0.5c-0.2-0.5-0.3-1-0.5-1.4l1.3-0.4
		C107.5,51.1,107.9,52.2,108.2,53.5z M117.2,40.3v4.5h-15.5v-4.5H117.2z M106.3,41.8h-2.8v1.5h2.8V41.8z M105.6,57.6l-1.6,0.3
		c-0.1-1.3-0.2-2.4-0.3-3.3l1.4-0.3C105.3,55.3,105.4,56.4,105.6,57.6z M108.3,56.8l-1.4,0.7c-0.2-1.1-0.5-2.1-0.7-3l1.4-0.5
		C107.8,54.8,108.1,55.8,108.3,56.8z M111,58.1h-1.7v-8.2c-0.4,0.4-0.8,0.9-1.2,1.3l-0.5-1.7c1.3-1.4,2.2-2.9,2.7-4.5l1.7,0.3
		c-0.2,0.6-0.5,1.2-0.7,1.7h2.3c-0.2-0.6-0.4-1.2-0.6-1.7l1.7-0.3c0.2,0.6,0.4,1.3,0.6,2h2.8v1.7h-2.7V50h2.4v1.5h-2.4v1.3h2.5v1.6
		h-2.5v1.4h3.1v1.7H111V58.1z M110.9,41.8H108v1.5h2.8V41.8z M111,48.7V50h2.7v-1.3H111z M111,52.8h2.7v-1.3H111V52.8z M111,55.8
		h2.7v-1.4H111V55.8z M115.4,41.8h-2.8v1.5h2.8V41.8z"/>
	<path class="st1" d="M128.5,41.2v-1.7h1.8v1.7h7.8v1.8h-7.8v1.4h6.4v7.7H132c1.5,1.5,3.6,2.7,6.6,3.6l-0.9,1.8
		c-3.4-1.4-5.9-3.2-7.4-5.4h0v6h-1.8v-6h0c-1.3,2.1-3.6,3.9-7.1,5.4l-1.1-1.7c3.1-1.1,5.3-2.4,6.5-3.7h-4.8v-7.7h6.4v-1.4h-7.8v-1.8
		H128.5z M128.5,46.1h-4.6v1.5h4.6V46.1z M123.9,50.6h4.6v-1.5h-4.6V50.6z M134.9,46.1h-4.5v1.5h4.5V46.1z M130.3,50.6h4.5v-1.5
		h-4.5V50.6z"/>
	<path class="st1" d="M141.4,52.3l-1.3-1.7c2-1.9,3.3-4.2,4-6.9l2,0.2c-0.4,1.5-0.9,2.9-1.6,4.1v10.1h-1.9V51
		C142.3,51.5,141.9,51.9,141.4,52.3z M148.5,41.6c-0.3-0.6-0.6-1.2-0.9-1.8l2.1-0.3c0.3,0.6,0.6,1.3,0.9,2.1h7.7v1.8h-17.7v-1.8
		H148.5z M151.6,44.1c-0.1,0.5-0.3,0.9-0.4,1.3h6V47c-0.6,2.8-1.9,5.1-3.7,7c1.5,1,3.2,1.8,5.1,2.4l-1.2,1.8
		c-2.1-0.7-3.9-1.7-5.4-2.9c-1.5,1.2-3.2,2.1-5.1,2.9l-1-1.8c1.8-0.7,3.3-1.5,4.6-2.4c-1-1-1.8-2.2-2.5-3.4
		c-0.4,0.4-0.8,0.8-1.3,1.1l-1.2-1.6c2.1-1.6,3.5-3.7,4.2-6.4L151.6,44.1z M154.1,50c0.5-0.9,0.9-1.9,1.2-2.9h-4.9
		c-0.4,0.7-0.8,1.4-1.2,2c0.7,1.4,1.6,2.6,2.7,3.6c0.5-0.5,0.9-1,1.3-1.5c-0.8-0.7-1.7-1.5-2.8-2.2l1.2-1.2
		C152.6,48.6,153.4,49.3,154.1,50z"/>
	<path class="st1" d="M168.4,41.8c-0.3-0.7-0.6-1.4-1-2l2-0.3c0.3,0.7,0.6,1.5,0.9,2.3h8v1.8h-8v2.2h6.5v7.4c0,1.3-0.7,1.9-2,1.9h-2
		l-0.5-1.8l1.9,0.1c0.5,0,0.7-0.2,0.7-0.7v-5.2h-4.6v10.5h-1.9V47.6h-4.4v7.7h-1.9v-9.5h6.2v-2.2h-8v-1.8H168.4z"/>
	<path class="st1" d="M3.9,72.2v-2.6h1.8v2.6h2.9v1.7H5.7v2.6h2.7v1.7H6.2v2.4h2.4v1.7H6.2v3.1c0.1,0,0.1,0,0.2,0.1
		c1.2,0.4,3.9,0.6,8.1,0.6c1.8,0,3.2,0,4.1-0.1l-0.3,1.9h-3.3c-5.1,0-8.3-0.3-9.6-0.9c-1-0.5-1.9-1.2-2.7-2.3
		c-0.3,1.2-0.6,2.3-1,3.4l-1.4-1.2c0.8-2.3,1.3-4.8,1.4-7.6l1.6,0.2c0,1-0.1,2-0.2,3c0.4,0.7,0.9,1.3,1.4,1.8v-6.1H0.8v-1.7h3.1
		v-2.6H1v-1.7H3.9z M9.1,72.3v-1.8h8.7c0,3.6-0.2,5.7-0.6,6.4c-0.4,0.7-1,1.1-1.9,1.1c-0.4,0-0.9,0-1.5-0.1l-0.5-1.7
		c0.6,0.1,1.2,0.1,1.6,0.1c0.5,0,0.8-0.3,0.9-0.7c0.1-0.4,0.2-1.5,0.2-3.4h-2.6c-0.3,1.3-0.6,2.4-1,3.2c-0.6,1-1.4,1.9-2.5,2.7
		l-1.2-1.6c0.9-0.6,1.6-1.3,2.1-2c0.4-0.6,0.7-1.4,0.9-2.3H9.1z M17.5,78.8v6.4H9.7v-6.4H17.5z M15.8,80.4h-4.5v3.1h4.5V80.4z"/>
	<path class="st1" d="M30.2,74.2c1.2,5.3,4,9.4,8.6,12.2L37.5,88c-3.8-2.6-6.5-6-8-10.3c-1.3,4.2-4.1,7.6-8.3,10.3L20,86.4
		c5.4-3.3,8.2-7.8,8.3-13.5c0-1.3,0-2.4,0-3.1h1.9C30.3,71.5,30.3,73,30.2,74.2z"/>
	<path class="st1" d="M41.5,75.6l-1.1-1.5c1.9-1.3,3.2-2.8,3.9-4.7l1.8,0.2c-0.1,0.4-0.3,0.7-0.4,1.1h11.9v1.6H44.7
		C43.9,73.6,42.8,74.7,41.5,75.6z M45.8,84.5c-1,1.3-2.2,2.4-3.6,3.4l-1.1-1.4c1.4-0.9,2.6-1.9,3.5-3.1L45.8,84.5z M54.7,86.5
		c-0.4-1.1-0.7-3.3-0.7-6.7v-2.2H41.3v-1.6h14.5v3.8c0,2.6,0,4.3,0.2,5.1c0.1,0.7,0.3,1.1,0.5,1.1c0.1,0,0.3-0.3,0.4-0.9
		c0.1-0.5,0.2-1.1,0.3-1.7l1.6,0.8c-0.3,1.6-0.6,2.7-0.9,3.2c-0.3,0.5-0.7,0.8-1.1,0.8C55.8,88.1,55.1,87.6,54.7,86.5z M46.5,81.4
		v-3.2h1.8v3.2h4.8V83h-4.8v5.1h-1.8V83h-5.1v-1.6H46.5z M45.4,80.6l-1.3,0.7c-0.5-0.8-1-1.6-1.5-2.2l1.4-0.6
		C44.5,79.1,45,79.8,45.4,80.6z M56.6,73.4v1.5H44.1v-1.5H56.6z M53.7,86.6l-1.1,1.3c-1.1-1.3-2.3-2.4-3.5-3.3l1-1.2
		C51.4,84.4,52.6,85.5,53.7,86.6z M52.3,79c-0.4,0.8-1,1.5-1.7,2.3l-1.3-0.7c0.6-0.8,1.1-1.5,1.5-2.3L52.3,79z"/>
	<path class="st1" d="M60.7,88l-0.4-1.8c0.6,0.1,1.1,0.1,1.6,0.1c0.5,0,0.8-0.2,0.8-0.6v-4.3c-0.7,0.2-1.3,0.5-1.9,0.7l-0.5-1.9
		c0.8-0.2,1.6-0.4,2.4-0.7v-4.2h-2v-1.8h2v-3.6h1.8v3.6h1.6v1.8h-1.6v3.5c0.6-0.3,1.1-0.6,1.7-0.9v2c-0.6,0.3-1.1,0.5-1.7,0.8v5.5
		c0,1.2-0.7,1.9-2,1.9H60.7z M69.6,72.7v-3h1.8v9.9c0,4-1.2,6.8-3.5,8.7l-1.5-1.3c1.1-0.8,1.9-1.8,2.4-3.1c-0.8,0.2-1.8,0.4-3,0.6
		l-0.3-1.8c1.5-0.1,2.8-0.3,3.8-0.6c0.1-0.8,0.2-1.6,0.2-2.5v-0.5H67v-1.7h2.6v-2.9h-3v-1.7H69.6z M75.2,69.7v3h3.3v1.7h-3.3v2.9H78
		v1.7h-2.8v3.1h3.4v1.7h-3.4v4.3h-1.8V69.7H75.2z"/>
	<path class="st1" d="M86.7,70.4v1.4c-0.4,1.5-0.9,3.2-1.5,4.8c0.9,1.6,1.4,3.1,1.5,4.4c0,1.1-0.2,1.8-0.6,2.2
		c-0.5,0.6-1.5,0.9-2.8,0.9l-0.6-1.9c0.4,0.1,0.7,0.1,1,0.1c0.4,0,0.7-0.2,0.9-0.3c0.1-0.2,0.2-0.5,0.2-1c0-1.2-0.5-2.6-1.5-4.1
		c0.6-1.8,1.1-3.4,1.5-4.8h-2.1V88h-1.9V70.4H86.7z M89.5,72.1c-0.3-0.7-0.6-1.3-1-1.9l1.8-0.7c0.4,0.7,0.8,1.6,1.1,2.5h2.2
		c0.4-0.8,0.8-1.6,1.1-2.5l1.8,0.6c-0.3,0.7-0.7,1.3-1,1.9h2.7V74h-4.8c-0.4,0.5-0.9,1-1.4,1.5c0.7,0.7,1.2,1.5,1.6,2.5
		c0.4-0.3,0.9-0.7,1.3-1.1c0.5-0.6,1.1-1.3,1.6-2.1l1.6,1c-0.6,0.9-1.2,1.7-1.8,2.3c-0.4,0.4-1,0.9-1.7,1.4c1.1,1.9,2.6,3.5,4.4,4.9
		l-1,1.7c-1.3-1.1-2.4-2.4-3.3-3.8c0,0.5,0.1,0.9,0.1,1.5c0,2-0.3,3.3-0.8,3.7c-0.6,0.4-1.4,0.6-2.7,0.7c-0.3,0-0.7,0-1,0l-0.6-1.7
		H91c0.6,0,1-0.2,1.3-0.4c0.3-0.3,0.4-1.1,0.4-2.3c0-0.5,0-1-0.1-1.4c-1.6,1.6-3.4,2.9-5.5,3.9l-1.1-1.6c2.7-1.2,4.7-2.7,6.2-4.4
		c-0.1-0.5-0.3-0.9-0.4-1.3c-1.1,1.2-2.4,2.2-4.1,3.1l-0.9-1.6c1.8-0.8,3.2-1.8,4.3-3c-0.2-0.3-0.4-0.6-0.6-0.8
		c-1,0.7-2.1,1.3-3.4,1.8l-1-1.6c2.2-0.8,3.8-1.7,5-2.8H87v-1.8H89.5z"/>
	<path class="st1" d="M105.3,75.4c-0.9,3.9-2.1,7-3.6,9L100,83c1.5-2.1,2.7-4.9,3.4-8.3L105.3,75.4z M105.4,87.9l-0.5-2
		c1,0.1,1.8,0.1,2.7,0.1c0.8,0,1.2-0.4,1.2-1.2V70h2v15.4c0,1.7-0.8,2.5-2.4,2.5H105.4z M118.8,83.3l-1.7,1.2
		c-0.8-2.8-2-5.9-3.4-9.3l1.7-1.1C116.9,77.6,118,80.7,118.8,83.3z"/>
	<path class="st1" d="M126.6,75c1.2-1.3,2.2-3.1,3.1-5.4l1.8,0.4c-0.3,0.7-0.6,1.4-0.9,2.1h7.4V74h-8.4c-0.6,0.9-1.2,1.8-1.8,2.5
		L126.6,75v11.1h-1.8V85h-2.1v1.6h-1.9V71.2h5.8V75z M124.8,83.2V73h-2.1v10.3H124.8z M136.5,76.6v1.7c-1.7,1.6-3.1,3-4,4
		c-0.9,1-1.4,1.7-1.8,2.2c-0.3,0.5-0.5,0.8-0.5,1.1c0,0.4,0.3,0.6,0.8,0.6h4.2c0.4,0,0.8-0.2,1-0.5c0.2-0.3,0.4-1.3,0.5-3.1l1.8,0.6
		c-0.2,2.2-0.5,3.6-1,4c-0.5,0.4-1.2,0.7-2.2,0.7h-4.6c-1.6,0-2.4-0.7-2.4-2c0-0.4,0.2-0.9,0.5-1.4c0.3-0.6,1-1.4,2-2.7
		c0.8-1,1.8-2.1,3-3.3h-5.3v-1.8H136.5z"/>
	<path class="st1" d="M150.7,77.9c0.3,0.4,0.5,1,0.5,1.6c0,1-0.3,1.9-0.9,2.7c-0.6,0.8-1.4,1.3-2.4,1.5v-1.2c0.5-0.2,1-0.5,1.4-0.9
		c0.3-0.5,0.5-0.9,0.5-1.4c-0.1,0-0.3,0.1-0.5,0.1c-0.4,0-0.8-0.2-1-0.4c-0.3-0.3-0.4-0.6-0.4-1.1c0-0.4,0.1-0.8,0.4-1.1
		c0.3-0.3,0.7-0.4,1.1-0.4C149.9,77.2,150.3,77.4,150.7,77.9z"/>
	<path class="st1" d="M8.8,112.9v-0.6l3.8-1.5H2.2v-1.7h14.2v1.3c-1.6,0.7-3.6,1.5-5.7,2.3v0.1h7.9v1.7h-7.9v1.5
		c0,1.4-0.7,2.1-2,2.1H5.9l-0.5-1.7c1.1,0.1,1.9,0.1,2.5,0.1c0.6,0,0.9-0.4,0.9-1v-0.9H0.2v-1.7H8.8z M10.3,101.2h7.9v1.8H0.7v-1.8
		h7.4c-0.3-0.4-0.5-0.8-0.8-1.2l2.2-0.3C9.7,100.1,10,100.6,10.3,101.2z M15.6,103.8v4.3H3.2v-4.3H15.6z M13.8,105.4H5.1v1.1h8.7
		V105.4z"/>
	<path class="st1" d="M35.3,109v1.6c-0.8,1.5-2,2.8-3.7,3.9c1.9,0.8,4.2,1.4,6.8,2l-1.1,1.7c-3.1-0.7-5.6-1.5-7.6-2.6
		c-2.2,1.1-5,2-8.2,2.6l-1-1.8c2.9-0.5,5.3-1.1,7.3-1.9c-1.6-1.1-2.8-2.4-3.6-3.8h-0.7V109H35.3z M38,110.5h-1.9v-3H22.7v3h-1.9
		v-4.8h3.4c-0.6-0.9-1.2-1.7-1.9-2.4l1.7-0.8c0.7,0.8,1.3,1.7,2,2.7l-1.2,0.6H29c-0.6-1-1.2-1.8-1.9-2.6l1.7-0.8
		c0.6,0.8,1.3,1.6,1.9,2.6l-1.6,0.8h3.2c0.7-1.1,1.4-2.3,1.9-3.6l1.9,0.7c-0.6,1.1-1.2,2.1-1.8,2.9H38V110.5z M37.3,101.4
		c-3.9,0.6-9,0.9-15.5,0.9l-0.6-1.7c6,0,11-0.3,15.1-0.8L37.3,101.4z M29.7,113.6c1.5-0.8,2.7-1.8,3.5-2.9h-7
		C26.9,111.8,28.1,112.8,29.7,113.6z"/>
	<path class="st1" d="M48.5,105v-2.8h-6.3v-1.8h14.6v1.8h-6.3v2.8h8v1.8h-8v2.8h5.8v8.5h-1.8v-1h-9.8v1h-1.8v-8.5h5.8v-2.8h-8V105
		H48.5z M54.3,115.3v-3.9h-9.8v3.9H54.3z"/>
	<path class="st1" d="M70.4,108.5c-0.1,0.6-0.2,1.3-0.3,1.8h8.2v1.8h-7.1c1.6,2.1,4.2,3.5,7.5,4.3l-1,1.7c-3.7-1-6.4-3-8.2-5.8
		c-0.4,0.9-1,1.8-1.6,2.5c-1.3,1.4-3.6,2.5-6.8,3.4l-0.8-1.8c2.8-0.7,4.8-1.6,6.1-2.8c0.4-0.4,0.8-0.9,1.1-1.5h-6.8v-1.8h7.5
		c0.2-0.6,0.3-1.2,0.4-1.8H70.4z M66.4,102.1c-1.1,2.4-2.5,4.2-4.2,5.5l-1.5-1.3c1.8-1.2,3.1-2.9,4-4.9L66.4,102.1z M70.4,99.9v7.8
		h-1.9v-7.8H70.4z M78.1,106.4l-1.6,1.1c-1-1.7-2.4-3.6-4.1-5.7l1.5-0.9C75.7,103.1,77.1,104.9,78.1,106.4z"/>
	<path class="st1" d="M89.5,99.7v6h7.4v1.8h-7.4v8h8.9v1.8H80.5v-1.8h7V99.7H89.5z"/>
	<path class="st1" d="M107.7,116.9h-1.8v-1h-3.2v1.6h-1.8V103h1.9c0.4-1.1,0.6-2.2,0.8-3.3l1.9,0.3c-0.2,1.1-0.5,2.1-0.9,3.1h3.1
		V116.9z M105.9,108.5v-3.7h-3.2v3.7H105.9z M105.9,114.1v-3.9h-3.2v3.9H105.9z M117.7,115.8c-0.2,1.4-1.2,2.2-2.9,2.2
		c-0.4,0-1.1,0-2.1-0.1l-0.5-1.7c0.9,0,1.6,0.1,2.3,0.1c0.8,0,1.3-0.4,1.4-1.3c0.1-1,0.2-4.4,0.2-10.1h-5c-0.6,1.2-1.2,2.3-2,3.3
		l-1.1-1.5c1.3-1.9,2.2-4.3,2.7-7l1.9,0.2c-0.2,1.1-0.5,2.2-0.8,3.1h6.2C118,109.9,117.9,114.2,117.7,115.8z M114.3,112.1l-1.5,1.1
		c-0.8-1.3-1.8-2.8-3.1-4.4l1.5-1C112.6,109.4,113.6,110.8,114.3,112.1z"/>
	<path class="st1" d="M126.4,116.1h-1.8V115h-1.9v1.6h-1.8v-15.4h5.5V116.1z M124.6,113.3V103h-1.9v10.3H124.6z M133.7,118.2h-1.9
		v-8.5c-0.9,2.7-2.3,4.9-4.2,6.7l-1-1.6c1.9-1.6,3.2-3.6,4.1-6h-3.5V107h4.6v-2.9h-3.9v-1.8h3.9v-2.7h1.9v2.7h3.8v1.8h-3.8v2.9h4.5
		v1.8h-3.5c0.8,2.2,2.2,4.2,4.2,6l-1.2,1.5c-1.8-2-3.1-4.2-4-6.6V118.2z"/>
	<path class="st1" d="M144.9,103.2v-0.9h-4.2v-1.6h4.2v-1h1.8v1h2.3v1.6h-2.3v0.9h5.5v-0.9h-2.3v-1.6h2.3v-1.1h1.7v1.1h4.2v1.6h-4.2
		v0.9h3.4v1.4h-6.9v0.9h7.7v3.6h-1.8v-2.2h-5.9v3.5h-1.8v-3.5h-5.9v2.2h-1.8v-3.6h7.7v-0.9h-7v-1.4H144.9z M156.4,118.2h-1.8v-0.7
		h-10.3v0.7h-1.8v-7.1h13.9V118.2z M147.6,110.1c-0.8,0.1-2.2,0.3-4.1,0.4l-0.3-1.1c1.9,0,3.2-0.1,4.1-0.3L147.6,110.1z
		 M147.7,107.8l-0.4,1c-1.2-0.2-2.5-0.3-3.9-0.4l0.5-1C145.2,107.5,146.4,107.6,147.7,107.8z M148.6,113.6v-1.1h-4.3v1.1H148.6z
		 M148.6,116.1V115h-4.3v1.1H148.6z M150.3,113.6h4.3v-1.1h-4.3V113.6z M154.6,116.1V115h-4.3v1.1H154.6z M155.6,109.5l-0.4,1.1
		c-1.3-0.2-2.6-0.4-4-0.5l0.5-0.9C153,109.3,154.3,109.4,155.6,109.5z M151.3,107.8c1.4-0.1,2.6-0.2,3.7-0.5l0.4,1.1
		c-1.1,0.2-2.4,0.3-3.9,0.4L151.3,107.8z"/>
	<path class="st1" d="M165.3,105.4c-0.9,3.9-2.1,7-3.6,9L160,113c1.5-2.1,2.7-4.9,3.4-8.3L165.3,105.4z M165.4,117.9l-0.5-2
		c1,0.1,1.8,0.1,2.7,0.1c0.8,0,1.2-0.4,1.2-1.2V100h2v15.4c0,1.7-0.8,2.5-2.4,2.5H165.4z M178.8,113.3l-1.7,1.2
		c-0.8-2.8-2-5.9-3.4-9.3l1.7-1.1C176.9,107.6,178,110.7,178.8,113.3z"/>
	<path class="st1" d="M183.5,102.4c-0.3-0.8-0.6-1.6-0.9-2.3l1.8-0.5c0.4,1,0.8,2,1,2.8h2.5v1.8h-4v2.3h3.8c0,5.2-0.1,8.5-0.3,9.7
		c-0.2,1.2-1.1,1.8-2.9,1.8c-0.2,0-0.4,0-0.8-0.1l-0.4-1.7c0.4,0.1,0.7,0.1,0.9,0.1c0.8,0,1.3-0.3,1.5-1c0.1-0.7,0.2-3,0.2-7.1h-2.1
		c-0.1,4.4-0.9,7.7-2.3,9.8l-1.5-1.3c1.3-2,2-5.1,2-9.5v-3.2h-1.5v-1.8H183.5z M188.5,106.3l-1.4-1.2c1.5-1.4,2.7-3.3,3.4-5.6
		l1.8,0.7c-0.2,0.6-0.4,1.1-0.6,1.6h6.4v1.8h-7.3C190,104.7,189.3,105.6,188.5,106.3z M188.9,116.2c0.3-0.2,0.4-0.4,0.4-0.9v-9.2
		c2.5-0.3,4.9-0.8,7.2-1.6l1,1.6c-1.9,0.7-4,1.2-6.3,1.5v8c1-0.2,1.9-0.5,2.8-0.8l0.3,1.8c-1.4,0.4-3.1,0.9-5.1,1.3L188.9,116.2z
		 M195,110.3c0.9-0.5,1.7-1.2,2.4-1.9l1.2,1.4c-0.8,0.8-1.8,1.5-2.9,2.1c0.8,1.8,1.8,3.3,3.1,4.6l-1.3,1.5c-2.3-2.5-3.9-5.7-4.8-9.7
		l1.5-0.8C194.4,108.5,194.7,109.5,195,110.3z"/>
	<path class="st1" d="M206.2,100.6c-1.1,2.2-2.9,4.2-5.4,5.9l-0.6-1.9c1.9-1.4,3.4-3,4.3-4.8L206.2,100.6z M207.1,105.2
		c-0.5,1.1-1.2,2.1-2,3.1v9.9h-1.9v-8c-0.7,0.6-1.5,1.2-2.3,1.8l-0.6-1.9c2.3-1.6,4-3.5,5.1-5.6L207.1,105.2z M218.4,105.8v1.9h-3.1
		v8.5c0,1.3-0.7,1.9-2.1,1.9h-2.9l-0.4-1.9c0.9,0.1,1.8,0.1,2.7,0.1c0.6,0,0.9-0.2,0.9-0.6v-8h-6.1v-1.9H218.4z M217.6,100.8v1.9
		h-9.8v-1.9H217.6z"/>
	<path class="st1" d="M231.4,107c0.5,0.5,0.8,1.1,0.8,1.9c0,0.7-0.3,1.4-0.8,1.9c-0.5,0.5-1.2,0.8-1.9,0.8c-0.8,0-1.4-0.3-1.9-0.8
		c-0.6-0.5-0.8-1.1-0.8-1.9c0-0.8,0.3-1.4,0.8-1.9c0.5-0.5,1.2-0.8,1.9-0.8C230.2,106.2,230.8,106.5,231.4,107z M228.4,107.9
		c-0.3,0.2-0.4,0.6-0.4,0.9c0,0.4,0.1,0.7,0.4,0.9c0.3,0.3,0.6,0.4,1,0.4c0.4,0,0.7-0.1,1-0.4c0.3-0.3,0.4-0.6,0.4-0.9
		c0-0.4-0.1-0.7-0.4-0.9c-0.3-0.3-0.6-0.4-1-0.4C229,107.5,228.7,107.7,228.4,107.9z"/>
</g>
</svg>
