<svg xmlns="http://www.w3.org/2000/svg" width="995.965" height="91.451" viewBox="0 0 995.965 91.451">
  <g id="section3_title_en" transform="translate(-248.142 -3769.181)">
    <path id="Path_7563" data-name="Path 7563" d="M290.886,3860.632h-1.145l-31.6-78.137q-3.375-8.253-5.543-9.669a8.059,8.059,0,0,0-4.458-1.416v-.9h20.483v.9q-2.712-.181-2.712,2.109a5.8,5.8,0,0,0,.362,1.927l27.552,68.3,27.308-68.271a6.427,6.427,0,0,0,.541-2.211q0-2.032-3.108-1.852v-.9h13.315v.9a11.877,11.877,0,0,0-2.922.391q-1.537.393-3.163,3.1t-1.687,2.892Z" fill="#b78e66"/>
    <path id="Path_7564" data-name="Path 7564" d="M387.192,3818.4H361.148l-13.433,33.5a19.455,19.455,0,0,0-1.386,4.458q0,1.987,2.952,1.988v.9H336.088v-.9a7.439,7.439,0,0,0,4.453-1.295q1.8-1.3,3.972-6.721l32.166-81.146h1.594l31.64,78.368q0,.6,2.433,5.7t7.421,5.095v.9H399.043v-.9q2.83,0,2.832-2.229a14.543,14.543,0,0,0-1.386-4.819,2,2,0,0,1-.421-.784c-.081-.4-.142-.6-.181-.6ZM362,3815.931h24l-11.99-30.243Z" fill="#b78e66"/>
    <path id="Path_7565" data-name="Path 7565" d="M434.214,3859.247v-.9q4.156,0,5.392-1.566t1.235-5.357v-72.6a11.974,11.974,0,0,0-.964-5.569q-.965-1.715-5.784-1.836v-.9h23.8v.9a9.182,9.182,0,0,0-4.639.844,4.076,4.076,0,0,0-1.747,1.987,19.187,19.187,0,0,0-.422,5.181v62.293q0,8.015,3.85,11.3t13.176,3.284h10.829q7.819,0,11.461-3.856t4.061-14.519h.9v21.327Z" fill="#b78e66"/>
    <path id="Path_7566" data-name="Path 7566" d="M594.694,3859.247H577.885v-13.676q-12.819,14.279-30.573,14.278-13.18,0-20.914-7.41t-7.733-20.483V3778.82q0-4.82-1.145-6.115t-5.362-1.3v-.9h23.556v.9q-3.736,0-5.271,1.175t-1.537,5.572V3826.9q0,15.3,7.16,21.839a23.516,23.516,0,0,0,16.307,6.536q14.381,0,25.512-12.952v-60.064q0-7.891-1.385-9.368a5.7,5.7,0,0,0-4.338-1.476h-.843v-.9h23.375v.9q-4.338.242-5.452,1.445t-1.115,4.576v72.242a22.952,22.952,0,0,0,.422,5.6,4.132,4.132,0,0,0,1.717,2.2,8.287,8.287,0,0,0,4.428.873Z" fill="#b78e66"/>
    <path id="Path_7567" data-name="Path 7567" d="M616.912,3771.53v-1.024H672.7v12.23h-.9q-1.807-6.807-3.042-8.013t-6.055-1.2H633.419v39.821H660.59q4.035,0,5.12-.753a2.651,2.651,0,0,0,1.145-2.2h.9v8.374h-.9a3.058,3.058,0,0,0-1.416-2.349,9.662,9.662,0,0,0-4.127-.6H633.419v27.412q0,6.2,1.143,8.946a5.468,5.468,0,0,0,3.64,3.434,30.4,30.4,0,0,0,7.55.693h15.642q7.46,0,9.535-.509a7.041,7.041,0,0,0,3.519-2.035q1.445-1.527,2.227-6.674h.9v12.17H616.912v-.9a10.066,10.066,0,0,0,4.669-1.174q1.6-.993,1.6-5.147v-71.643q0-4.875-.843-6.861T616.912,3771.53Z" fill="#b78e66"/>
    <path id="Path_7568" data-name="Path 7568" d="M694.013,3817.437v-5.061h25.424v5.061Z" fill="#b78e66"/>
    <path id="Path_7569" data-name="Path 7569" d="M786.193,3818.4H760.149l-13.434,33.5a19.539,19.539,0,0,0-1.385,4.458q0,1.987,2.951,1.988v.9H735.089v-.9a7.439,7.439,0,0,0,4.453-1.295q1.8-1.3,3.972-6.721l32.165-81.146h1.595l31.639,78.368q0,.6,2.434,5.7t7.421,5.095v.9H798.044v-.9q2.831,0,2.831-2.229a14.542,14.542,0,0,0-1.386-4.819,2.013,2.013,0,0,1-.421-.784c-.081-.4-.141-.6-.181-.6ZM761,3815.931h24l-11.99-30.243Z" fill="#b78e66"/>
    <path id="Path_7570" data-name="Path 7570" d="M836.407,3771.41v-.9h40.726q15.543,0,24.55,2.44a43.6,43.6,0,0,1,15.693,7.681,37.158,37.158,0,0,1,10.6,13.405,41.606,41.606,0,0,1,3.915,18.224,47.459,47.459,0,0,1-4.067,19.067,49.887,49.887,0,0,1-11.054,16.146,38.129,38.129,0,0,1-14.73,9.278q-7.742,2.5-23.947,2.5h-41.69v-.9h1.084q3.253,0,4.278-2.619t1.024-9.482v-64.6q0-7.224-1.235-8.729T836.407,3771.41Zm30.244.964H853.034v68.859q0,6.507,2.2,9.67t7.5,4.579a57.487,57.487,0,0,0,14.277,1.415q24.942,0,35.032-12.8t10.092-27.924q0-17.77-13.826-30.784T866.651,3772.374Z" fill="#b78e66"/>
    <path id="Path_7571" data-name="Path 7571" d="M952.908,3771.41v-.9h40.726q15.543,0,24.55,2.44a43.6,43.6,0,0,1,15.693,7.681,37.157,37.157,0,0,1,10.6,13.405,41.607,41.607,0,0,1,3.915,18.224,47.458,47.458,0,0,1-4.067,19.067,49.887,49.887,0,0,1-11.054,16.146,38.13,38.13,0,0,1-14.73,9.278q-7.742,2.5-23.947,2.5h-41.69v-.9h1.084q3.254,0,4.278-2.619t1.024-9.482v-64.6q0-7.224-1.235-8.729T952.908,3771.41Zm30.244.964H969.535v68.859q0,6.507,2.2,9.67t7.5,4.579a57.481,57.481,0,0,0,14.277,1.415q24.942,0,35.032-12.8t10.092-27.924q0-17.77-13.826-30.784T983.152,3772.374Z" fill="#b78e66"/>
    <path id="Path_7572" data-name="Path 7572" d="M1069.53,3771.53v-1.024h55.788v12.23h-.905q-1.806-6.807-3.042-8.013t-6.054-1.2h-29.28v39.821h27.171q4.037,0,5.121-.753a2.654,2.654,0,0,0,1.145-2.2h.9v8.374h-.9a3.058,3.058,0,0,0-1.416-2.349,9.659,9.659,0,0,0-4.127-.6h-27.894v27.412q0,6.2,1.144,8.946a5.467,5.467,0,0,0,3.639,3.434,30.412,30.412,0,0,0,7.551.693h15.642q7.46,0,9.535-.509a7.049,7.049,0,0,0,3.52-2.035q1.442-1.527,2.225-6.674h.9v12.17H1069.53v-.9a10.059,10.059,0,0,0,4.669-1.174q1.6-.993,1.6-5.147v-71.643q0-4.875-.844-6.861T1069.53,3771.53Z" fill="#b78e66"/>
    <path id="Path_7573" data-name="Path 7573" d="M1148.619,3771.41v-.9h40.726q15.543,0,24.55,2.44a43.6,43.6,0,0,1,15.693,7.681,37.158,37.158,0,0,1,10.6,13.405,41.607,41.607,0,0,1,3.915,18.224,47.46,47.46,0,0,1-4.067,19.067,49.887,49.887,0,0,1-11.054,16.146,38.129,38.129,0,0,1-14.73,9.278q-7.742,2.5-23.947,2.5h-41.69v-.9h1.084q3.253,0,4.278-2.619t1.024-9.482v-64.6q0-7.224-1.235-8.729T1148.619,3771.41Zm30.243.964h-13.616v68.859q0,6.507,2.2,9.67t7.5,4.579a57.5,57.5,0,0,0,14.278,1.415q24.942,0,35.032-12.8t10.092-27.924q0-17.77-13.826-30.784T1178.862,3772.374Z" fill="#b78e66"/>
  </g>
</svg>
