<svg xmlns="http://www.w3.org/2000/svg" width="630.717" height="84.283" viewBox="0 0 630.717 84.283">
  <g id="section6_title" transform="translate(-262.938 -180.798)">
    <rect id="Rectangle_158" data-name="Rectangle 158" width="468.636" height="17.642" transform="translate(425.019 245.852)" fill="#b78e66"/>
    <g id="Group_1588" data-name="Group 1588" transform="translate(0.267 -8112.854)">
      <path id="Path_7926" data-name="Path 7926" d="M285.322,8295.1h6.65v21.8c0,10.05-1.25,19.3-10.95,24.852a27.578,27.578,0,0,0-5.151-5.1,16.116,16.116,0,0,0,8.5-10.4c-1.5,1.25-3.05,2.451-4.45,3.6l-3.651-6.1c2.2-1.25,5.5-3.4,8.751-5.6l.3.649v-6.65l-2.8,1.7a67.564,67.564,0,0,0-3.95-8.4v4.8h-3.7v4.85l3.4-1.25,1.35,6.351c-1.55.6-3.151,1.25-4.751,1.9v12.4c0,3.15-.5,5-2.2,6.1-1.7,1.149-4,1.4-7.3,1.4a25.6,25.6,0,0,0-1.8-6.751,33.891,33.891,0,0,0,3.85.05c.6,0,.8-.149.8-.8v-9.9l-3.85,1.45-1.7-6.9c1.6-.45,3.5-1.051,5.55-1.75v-7.15h-4.9v-6.65h4.9v-9.1h6.65v9.1h3.151l5-2.751c.75,1.2,1.55,2.551,2.3,3.9Zm18.451,40c.85,0,1.05-1.4,1.2-6.151a18.069,18.069,0,0,0,6.051,2.8c-.651,7-2.35,9.8-6.6,9.8h-3.9c-5.051,0-6.451-2.1-6.451-9.351v-37.1h6.851v12.551a50.932,50.932,0,0,0,2.75-7.5l6.45,3.3c-2.15,3.7-4.2,7.851-5.95,10.5l-3.25-1.8v5.251l1.7-1.7a57.915,57.915,0,0,1,8.551,8.75l-4.6,5a52.982,52.982,0,0,0-5.65-6.8v9.6c0,2.5.1,2.852.95,2.852Z" fill="#6a2259"/>
      <path id="Path_7927" data-name="Path 7927" d="M359.024,8298.8v6.051h-44.6V8298.8h18.6c-.3-1-.7-2.05-1-2.95l7.6-1.851c.6,1.451,1.4,3.251,2,4.8Zm-.85,36.8c0,3.049-.751,4.349-2.951,5.2-2.15.751-5.1.8-8.8.751a18.628,18.628,0,0,0-1.4-3.8H332.072v1.8h-6.7v-13.5h22.252v10.45c1,0,1.85-.05,2.15-.05.75,0,1.05-.2,1.05-.9v-10.7h-28.2v17.1h-7.05V8319h42.6Zm-4.451-18.152H320.571v-11.2h33.152Zm-7.7-6.45h-18.2v1.7h18.2Zm-4.751,19.951h-9.2v1.9h9.2Z" fill="#6a2259"/>
      <path id="Path_7928" data-name="Path 7928" d="M385.372,8316.253h-12.7v25.7h-7.2v-45.7h19.9Zm-12.7-14.2v1.6h5.9v-1.6Zm5.9,8.451v-1.8h-5.9v1.8Zm29.951,22.951c0,4-.8,6-3.25,7.151-2.45,1.2-5.95,1.349-11,1.349a28.034,28.034,0,0,0-2.551-7.45c3,.25,6.9.2,8,.2,1.05,0,1.45-.349,1.45-1.351V8316.4H388.122v-20.151h20.4Zm-13.5-31.4v1.6h6.15v-1.6Zm6.15,8.6v-1.95h-6.15v1.95Z" fill="#6a2259"/>
      <path id="Path_7929" data-name="Path 7929" d="M437.422,8336.454a22.858,22.858,0,0,0,1.2-5.95l4.45,1.25c-.3,3.2-.85,6.6-2.25,8.751l-3.4-1.551v2.95h-5.25v-13.1a24.494,24.494,0,0,1-2.951.45v1.649h2.151v3.7h-2.151v1.448l2.2-.149.1,4.05c-3.5.35-6.851.651-9.951.9l-.45-4.352,3.75-.2v-1.7h-2.3v-3.7h2.3v-1.3c-.85,0-1.7,0-2.45-.05a16.41,16.41,0,0,0-.65-2.6c-.65,5.45-1.75,10.951-3.75,15.1a24.692,24.692,0,0,0-5.5-3.949c3.25-7.151,3.45-17.753,3.45-25.153V8297.6h17.8a16.445,16.445,0,0,0-1-1.55l6.25-2.4a20.532,20.532,0,0,1,2.55,3.95h18.3v5.5h-37.4v9.8a119.116,119.116,0,0,1-.6,12.751,46.681,46.681,0,0,0,8.151-1.1l2.15,4.05v-4.5c-3.3.2-6.451.4-9.251.6l-.35-4.851,2.05-.05v-10.65h-1.4V8304.8h15.8v4.351h-1.6Zm-7.85-27.3v1.15h2.6v-1.15Zm0,5.8h2.6v-1.3h-2.6Zm2.6,4.551v-1.2h-2.6v1.3Zm23.6,20.3a16.741,16.741,0,0,0-.6-2.7c-.6,3.549-1.85,4.549-4.45,4.549h-2.8c-4,0-4.8-1.351-4.8-5.549v-5.4h3.9a16.066,16.066,0,0,0-1.75-1.9l1.45-.85h-8.051v-4.7h21.651v4.7h-9.75a23.678,23.678,0,0,1,2.4,2.9l4.1-1.45a27.671,27.671,0,0,1,3.451,8.65Zm-3.75-29.4v1.45h6.951v10.2h-19.4v-10.2h6.4v-1.45h-6.6v-4.8h6.6v-1.8h6.051v1.8h7.2v4.8Zm-7.1,5.3h-1.25v2.45h1.25Zm5.15,21.551c.65,0,.85-.35.95-3.148a11.048,11.048,0,0,0,3.7,1.648c-.45-1.25-1-2.5-1.55-3.65l-3.7,2.2a13.262,13.262,0,0,0-1.4-2.25v4.052c0,1.049.1,1.148.7,1.148Zm-.3-21.551h-1.3v2.45h1.3Zm3.55,2.45h1.35v-2.45h-1.35Z" fill="#6a2259"/>
      <path id="Path_7930" data-name="Path 7930" d="M522.023,8322.4h-4.851c.8.95,1.551,1.85,2.051,2.55l-3.851,2.351a28.137,28.137,0,0,0-2-2.75c-.7,1.449-2.05,1.949-4.45,1.949h-3.4c-.3.4-.651.75-1,1.15h8.85l1.151-.25,4.3,2.351a19.438,19.438,0,0,1-6.2,5.852,74.931,74.931,0,0,0,9.4,1.1,23.89,23.89,0,0,0-3.4,5.2,62.363,62.363,0,0,1-13.8-2.75,78.716,78.716,0,0,1-14.251,3.05,21.628,21.628,0,0,0-3.35-5.15,99.616,99.616,0,0,0,10.051-1.4c-.551-.351-1.051-.7-1.551-1.049-1.149.648-2.4,1.3-3.75,1.9a16.717,16.717,0,0,0-3.851-4.1c1.25-.449,2.451-.949,3.5-1.449-.55-.65-1.15-1.351-1.65-2.051l5.2-1.75c.3.4.651.75,1,1.15a22.458,22.458,0,0,0,3-2.65,2.907,2.907,0,0,1-1.25-1.7,17.669,17.669,0,0,1-3.15,3.251l-3.95-3.051a11.646,11.646,0,0,0,2.2-1.75h-4.85v-7.351h4.35V8302.7h8.051l.3-1.3h-11.1v-4.8a87.679,87.679,0,0,1-3.3,8.65V8341.9h-6.9v-23.951c-.8,1.149-1.651,2.25-2.5,3.25a56.4,56.4,0,0,0-3.4-8c3.85-4.55,7.4-11.65,9.45-18.751l6.651,2v-.1h31.1v5.05h-12.6l-.6,1.3h10.351v12.351h4Zm-24.352-1.8v-.85h5.25l-.149-.15,1.3-.649h-9.8v2.1c.45-.551.85-1.1,1.2-1.6Zm1.3-14.551v1.1h12.3v-1.1Zm12.3,3.8h-12.3v1.25h12.3Zm-12.3,5.2h12.3v-1.25h-12.3Zm1.851,16.751a31.349,31.349,0,0,0,3.95,1.75,24.523,24.523,0,0,0,3.8-1.75Zm2.5-10.2c0,1.1.25,1.2,1.4,1.2h1c-.65-.75-1.55-1.8-2.4-2.65Zm11-2.3c.4.4.8.851,1.25,1.3v-1.649h-7.55c.8.75,1.55,1.55,2.05,2.1l-3.3,1.75h1.4c.85,0,1.1-.25,1.3-1.4a14.055,14.055,0,0,0,1.85.75l-.65-.75Z" fill="#6a2259"/>
      <path id="Path_7931" data-name="Path 7931" d="M557.722,8312v-4.751h-3.1a13.5,13.5,0,0,1-3,5.5h13.251V8333.5h-5c4.151,1.3,8.2,2.7,10.95,3.8l-3.25,5.052a135.515,135.515,0,0,0-15.151-5.7l1.851-3.15H542.021l3.3,1.95a94.169,94.169,0,0,1-16.452,6.851,46.233,46.233,0,0,0-3.35-6.051,98.189,98.189,0,0,0,11.2-2.75h-5v-20.751h18.451a31.2,31.2,0,0,0-4.45-2.851,11.664,11.664,0,0,0,2.2-2.65h-4.2v4.6h-6.4v-4.6h-3.5a14.981,14.981,0,0,1-4.8,6.7,25.267,25.267,0,0,0-4.7-4.55c4-2.95,4.5-6.6,4.5-9.551v-3c5.3-.25,11.3-.95,14.8-2.25l3.9,4.1a48.264,48.264,0,0,1-12.5,2.4c-.05.3-.05.6-.1.95h13.2v4.851a14.131,14.131,0,0,0,1.35-6.551V8296.7c5.6-.25,11.951-.951,15.451-2.251l4.4,3.9a53.737,53.737,0,0,1-13.85,2.55,9.249,9.249,0,0,1-.05,1.15h15.45v5.2h-6.7V8312Zm-.2,4.95h-18.8v1.5h18.8Zm-18.8,6.9h18.8v-1.5h-18.8Zm0,5.45h18.8v-1.5h-18.8Z" fill="#6a2259"/>
      <path id="Path_7932" data-name="Path 7932" d="M595.572,8298.052c-3.751,8.2-9.8,17.051-15.152,22.352a59.845,59.845,0,0,0-6.5-6.3c5.2-4.35,10.45-11.65,13.45-18.7Zm14.05,22.551a154.246,154.246,0,0,1,11.051,17.552l-7.551,4.05c-.65-1.449-1.5-3.2-2.55-5.05-23.251,2.05-27.051,2.3-29.9,3.4a69.679,69.679,0,0,0-2.95-7.8c1.851-.5,3.1-1.65,5.15-3.8,2.151-2.1,8.4-10.4,12.151-18.552l8.651,3.5a98.69,98.69,0,0,1-12.8,17.451l15.7-1.1c-1.4-2.2-2.8-4.45-4.1-6.4Zm.85-24.951c2.05,6.5,6.4,13.3,12.7,17a38.71,38.71,0,0,0-5.5,7.5c-5.75-4.45-10.05-10.851-12.8-17h-7.3v-7.5Z" fill="#6a2259"/>
      <path id="Path_7933" data-name="Path 7933" d="M644.822,8308.3h-19.9v-5.649h7.651a61.846,61.846,0,0,0-2.8-5.8l5.6-2.65a48,48,0,0,1,3.6,6.851l-3,1.6h8.851Zm-2.051,1.551c4.551-2.4,5-5.551,5-8.551v-5.35h17.9v10.6c0,1.451.1,2.1.65,2.1h1.451a8.829,8.829,0,0,0,2.6-.4c.1,1.8.25,4.3.45,5.949a6.9,6.9,0,0,1-3,.451h-2.25c-5.5,0-6.55-2.5-6.55-8.2v-3.8h-4.651c-.25,4.8-1.9,10-7.95,13.051a28.968,28.968,0,0,0-3.65-4.351v3.85h-15.7v-5.4h15.7Zm.15,12.251H627.07v-5.4h15.851Zm27.4-4.551a32.54,32.54,0,0,1-7.45,14.6,39.936,39.936,0,0,0,9.5,2.851,30.3,30.3,0,0,0-4.45,6.65,36.7,36.7,0,0,1-11.15-4.5,40.359,40.359,0,0,1-11.3,4.65,30.783,30.783,0,0,0-2.65-5.3v2.8h-9.55v2h-6.1v-17.552h15.651v11.4a34.563,34.563,0,0,0,8.05-2.751,37.79,37.79,0,0,1-5.95-8.3l4-1.4h-5.05v-6.75h20.7l1.25-.25Zm-33.7,11.9h-3.349v4.1h3.349Zm14.9-6.751a21.542,21.542,0,0,0,5.15,5.751,21.885,21.885,0,0,0,4.45-5.751Z" fill="#6a2259"/>
    </g>
    <g id="Group_1589" data-name="Group 1589" transform="translate(0.267 -8112.854)">
      <path id="Path_7934" data-name="Path 7934" d="M268.4,8353.89q1.295.331,2.513.66,1.169.356,1.168.736,0,.432-.685.533a2.4,2.4,0,0,0-.407.1,11.758,11.758,0,0,1,3.022,1.066,2,2,0,0,1,1.092,1.65,1.52,1.52,0,0,1-.457,1.066,1.09,1.09,0,0,1-.864.381,1.8,1.8,0,0,1-1.5-1.117,7.5,7.5,0,0,0-1.98-2.311,12.667,12.667,0,0,1-2.361,2.92c-.187.17-.373.33-.559.482a15.817,15.817,0,0,0,1.752.127h1.117q.177-.33.482-.889.406-.762.534-.762.228,0,.888.889a2.517,2.517,0,0,1,.61,1.066c0,.254-.094.381-.28.381H269.14q-.788,0-2.057.1l-.2-.508a23.615,23.615,0,0,1-2.844,1.955l-.279-.33a16.781,16.781,0,0,0,4.647-8.2Zm-3.25,8a20.942,20.942,0,0,1,3.173,1.117h2.743q.4-.457.736-.889.533-.609.762-.609a3.646,3.646,0,0,1,1.5.736q1.269.94,1.269,1.295,0,.3-.584.686a1.28,1.28,0,0,0-.431.813v.635l.2,4.748q0,.457-1.321.66a6.769,6.769,0,0,1-.812.076.65.65,0,0,1-.736-.736v-.178h-3.53v3.53q1.447-.127,2.793-.306a9.79,9.79,0,0,0-1.193-1.828l.228-.381a9.454,9.454,0,0,1,3.25,1.5,2.537,2.537,0,0,1,.787,1.854,1.708,1.708,0,0,1-.533,1.193,1.217,1.217,0,0,1-.965.406q-.558,0-.964-1.219a3.728,3.728,0,0,0-.28-.762,17.78,17.78,0,0,1-4.849,2.26c-.221.034-.33.119-.33.254a1.358,1.358,0,0,0-.077.355c-.067.236-.169.355-.3.355q-.509,0-1.194-1.777-.2-.508-.66-1.6.862-.051,1.651-.1v-7.389A25.067,25.067,0,0,0,265.154,8361.888Zm2.97,7.617h3.53v-2.514h-3.53Zm.026-3.25h3.529v-2.514H268.15Zm16.4-12.187q.355,0,1.98,1.5.991.914.991,1.143,0,.432-.635.432h-8.3v4.545h4.266c.3-.286.558-.533.762-.736.422-.372.7-.559.837-.559a4.743,4.743,0,0,1,1.625.939q1.245.916,1.245,1.4,0,.2-.584.406-.686.229-.762.609a20.307,20.307,0,0,1-1.8,6.221q-.457.788-.965,1.523c.1.12.2.229.3.33a9.346,9.346,0,0,0,4.189,2.59l-.177.584a2.512,2.512,0,0,0-1.575,1.6q-.254.964-.457.965-.66,0-1.8-1.27a12.375,12.375,0,0,1-2.057-2.895q-.483.483-1.041.99a24.006,24.006,0,0,1-5.154,3.479l-.33-.406a24.175,24.175,0,0,0,4.24-4.418,20.916,20.916,0,0,0,1.32-1.879,20.52,20.52,0,0,1-.812-2.92,47.848,47.848,0,0,1-.94-5.814h-.33v.1a48.675,48.675,0,0,1-.406,6.677,16.233,16.233,0,0,1-1.7,4.8,17.838,17.838,0,0,1-2.895,3.555l-.381-.229a21.81,21.81,0,0,0,1.955-5.434,49,49,0,0,0,.661-9.368,66.894,66.894,0,0,0-.28-7.339,24.473,24.473,0,0,1,3.3,1.219h3.4q.025,0,.864-.964Q284.246,8354.067,284.552,8354.067Zm-4.951,8.354a32.557,32.557,0,0,0,1.726,5.916q.153.407.3.762a6.979,6.979,0,0,0,.356-.889,19.393,19.393,0,0,0,1.168-5.789Z" fill="#42526c"/>
      <path id="Path_7935" data-name="Path 7935" d="M303.3,8354.067q1.8.179,3.427.482,1.041.026,1.041.559c0,.1-.2.247-.609.432q-.686.28-.686.686v1.4h4.266a8,8,0,0,0,.838-.914q1.066-1.32,1.4-1.32.3,0,1.879,1.447.965.864.965,1.117c0,.271-.178.406-.533.406H297.918v2.311a69.494,69.494,0,0,1-.356,7.516,19.86,19.86,0,0,1-1.625,5.383,18.416,18.416,0,0,1-2.666,3.986l-.533-.229a30.83,30.83,0,0,0,1.7-6.094,76.736,76.736,0,0,0,.533-10.562,22.616,22.616,0,0,0-.3-4.443,22.433,22.433,0,0,1,3.834,1.4h5V8356.4A13.953,13.953,0,0,0,303.3,8354.067Zm.634,5.1q1.752.179,3.428.457,1.041.051,1.041.559c0,.1-.22.246-.66.432s-.66.415-.66.686v2.031h3.554a7.989,7.989,0,0,0,.838-.938q1.066-1.321,1.4-1.321.3,0,1.879,1.448.939.888.939,1.116c0,.254-.169.382-.508.382h-8.1v4.9H309.9q.609-.686,1.117-1.193a1.089,1.089,0,0,1,.737-.456,4.389,4.389,0,0,1,1.472.761q1.346.94,1.346,1.27,0,.381-.559.763a.947.947,0,0,0-.431.761v2.564q0,1.219.1,3.352c0,.322-.457.566-1.371.736a7.4,7.4,0,0,1-.863.076q-.711,0-.711-.812v-.838H301.8v.914q0,.507-1.32.762a6.769,6.769,0,0,1-.812.076.73.73,0,0,1-.813-.838q.076-1.346.076-2.742v-2.641q0-1.929-.177-3.732a22.117,22.117,0,0,1,3.478,1.219h1.9v-7.414A13.848,13.848,0,0,0,303.935,8359.171Zm-2.133,16.047h8.938v-5.611H301.8Z" fill="#42526c"/>
      <path id="Path_7936" data-name="Path 7936" d="M332.434,8354.067q1.752.179,3.428.482c.693.018,1.041.2,1.041.559,0,.1-.221.247-.661.432q-.686.28-.685.686v1.016h3.783a8.061,8.061,0,0,0,.838-.939q1.066-1.293,1.4-1.295a6.418,6.418,0,0,1,1.879,1.422q.965.864.965,1.093,0,.431-.533.431H326.137v3.656h3.352v-.939a7.438,7.438,0,0,0-.305-2.234q1.143.152,2.742.406,1.5.179,1.5.533c0,.272-.237.5-.711.686a.609.609,0,0,0-.508.609v.939h4.266v-.939a8.074,8.074,0,0,0-.279-2.234q1.116.152,2.742.406,1.523.179,1.523.533c0,.272-.245.5-.736.686a.6.6,0,0,0-.482.609v.939h.279a6.927,6.927,0,0,0,.787-.812q.965-1.143,1.269-1.143.279,0,1.676,1.27.838.762.838.965,0,.432-.482.432h-4.367v3.732q0,.508-1.245.736a5.045,5.045,0,0,1-.787.1q-.837,0-.838-.533c.034-.254.059-.448.077-.583H332.2v.583q0,.508-1.218.736a6.8,6.8,0,0,1-.813.076q-.788,0-.787-.482a8.409,8.409,0,0,0,.1-1.016v-3.352h-3.352v1.9a41.285,41.285,0,0,1-.381,5.992,14.16,14.16,0,0,1-1.549,4.291,17.37,17.37,0,0,1-2.666,3.148l-.406-.2a21.357,21.357,0,0,0,1.7-4.875,47.91,47.91,0,0,0,.533-8.354q0-5.713-.279-8.2a20.044,20.044,0,0,1,3.352,1.218h6.2v-.838A13.953,13.953,0,0,0,332.434,8354.067Zm-6.195,13.838a30.772,30.772,0,0,0,3.453.2h8a6.683,6.683,0,0,1,.736-.635,2.018,2.018,0,0,1,1.016-.482q.329,0,1.574,1.066,1.269,1.118,1.269,1.447,0,.356-.888.457a1.921,1.921,0,0,0-1.041.279,11.743,11.743,0,0,1-3.073,2.971,3.432,3.432,0,0,1-.3.229.385.385,0,0,0,.1.025,34.812,34.812,0,0,0,7.541,1.32l-.1.635a2.053,2.053,0,0,0-1.422,1.32c-.152.541-.288.813-.406.813a12.465,12.465,0,0,1-3.631-.762,20.9,20.9,0,0,1-4.52-1.853,16.962,16.962,0,0,1-1.853.837,37.813,37.813,0,0,1-8.3,2.082l-.178-.533a32.5,32.5,0,0,0,8.049-3.5q.228-.126.381-.229a9.724,9.724,0,0,1-1.4-1.5,13.21,13.21,0,0,1-1.828-3.275q-1.675,0-2.793.1Zm3.859.914a13.389,13.389,0,0,0,3.021,2.844,8.007,8.007,0,0,0,1.168.736,16.668,16.668,0,0,0,3.4-3.58Zm2.107-3.783h4.266v-2.717H332.2Z" fill="#42526c"/>
      <path id="Path_7937" data-name="Path 7937" d="M353.642,8354.169q1.291.381,2.483.762a3.171,3.171,0,0,1,.836.355c-.034-.236-.059-.473-.076-.711a22.814,22.814,0,0,1,3.371,1.244h.988a9.487,9.487,0,0,1,.988-1.117q.328-.431.608-.431a3.886,3.886,0,0,1,1.368.685q1.295.838,1.294,1.168t-.482.686a1,1,0,0,0-.33.712v2.233q0,1.093.1,2.971,0,.483-1.244.736a6.769,6.769,0,0,1-.812.076c-.475,0-.711-.245-.711-.736v-.812h-2.336v3.986h.533a7.907,7.907,0,0,0,.584-.66q.786-.863,1.016-.863a4.909,4.909,0,0,1,1.421,1.016q.711.636.711.787,0,.432-.381.432h-3.884v4.469h.634q.025,0,.711-.812.915-1.116,1.219-1.117.279,0,1.6,1.244.837.788.838.965c0,.271-.178.406-.534.406h-4.468v5.078q0,.507-1.18.762a5.718,5.718,0,0,1-.743.076.732.732,0,0,1-.819-.838q.1-1.194.1-2.412v-16.453q0-1.04-.075-1.98a1.072,1.072,0,0,1-.351.1q-.6.076-.677.229a34.243,34.243,0,0,1-1.538,4.189c.2.051.381.1.534.152q.8.255.8.457,0,.381-.5.609a.65.65,0,0,0-.3.609v14.8q0,.457-1.157.66c-.369.033-.629.051-.78.051q-.907,0-.907-.711.2-2.717.2-5.484V8364.3a33.3,33.3,0,0,1-2.336,2.972l-.381-.382a40.1,40.1,0,0,0,2.539-5.865A50.115,50.115,0,0,0,353.642,8354.169Zm6.046,2.336v4.8h2.361v-4.8Zm4.164,8.734a22.971,22.971,0,0,0,3.148.229h1.651a5.718,5.718,0,0,1,.99-1.066q.405-.379.609-.38a3.713,3.713,0,0,1,1.6.888q1.167.914,1.168,1.244,0,.381-.635.635c-.3.119-.466.279-.482.483a20.47,20.47,0,0,1-1.6,4.163,8.944,8.944,0,0,1-1.016,1.5,6.847,6.847,0,0,0,.635.482,14.78,14.78,0,0,0,3.58,1.574l-.178.534a2.24,2.24,0,0,0-1.675,1.319q-.357.914-.559.914a3.286,3.286,0,0,1-1.523-.812,14.6,14.6,0,0,1-2.133-2.26,14.242,14.242,0,0,1-2.488,1.6,24.957,24.957,0,0,1-3.911,1.473l-.228-.432a21.009,21.009,0,0,0,2.971-1.7,12.5,12.5,0,0,0,2.209-1.955c.169-.186.338-.381.507-.584a10.6,10.6,0,0,1-.711-1.752,22.794,22.794,0,0,1-.787-5.129q-.432.026-.711.051Zm1.853-9.852a16.5,16.5,0,0,0,3.25.33q.458-.431.864-.787.558-.558.837-.559a3.023,3.023,0,0,1,1.524.914q1.244.94,1.244,1.219,0,.407-.609.762a1.059,1.059,0,0,0-.61.787v.2q0,.864.051,2.006.051,2.312.051,2.641,0,.508-1.371.762a8.065,8.065,0,0,1-.864.076q-.736,0-.736-.838v-.38h-.685q-1.828,0-2.946.1l-.431-1.016a27.149,27.149,0,0,0,3.377.178h.685V8356.4a21.328,21.328,0,0,0-3.25.2Zm-.05,10.791a11.142,11.142,0,0,0,.66,2.59,10.619,10.619,0,0,0,1.32,2.463c.084-.168.169-.347.254-.533a16.353,16.353,0,0,0,1.244-4.545H367Q366.187,8366.153,365.655,8366.179Z" fill="#42526c"/>
      <path id="Path_7938" data-name="Path 7938" d="M380.671,8354.169a22.85,22.85,0,0,1,3.3,1.219H395.6c.254-.321.5-.616.737-.889.338-.338.567-.508.685-.508a4.114,4.114,0,0,1,1.524.787q1.244.838,1.244,1.245c0,.271-.246.5-.737.685q-.482.3-.482.609,0,6.779.279,10.791a17.056,17.056,0,0,0,.635,3.732q.355,1.447.584,1.447t.508-1.371q.177-.735.609-2.615l.533.3q-.432,3.938-.431,4.367a6.888,6.888,0,0,0,.178,1.523,4.436,4.436,0,0,1,.253,1.041c0,.61-.245.947-.736,1.016a3.052,3.052,0,0,1-1.955-.838,6.3,6.3,0,0,1-1.447-2.514,25.933,25.933,0,0,1-1.143-5.637q-.432-3.91-.431-12.441H383.718v7.693a45.094,45.094,0,0,1-.381,6.247,14.662,14.662,0,0,1-1.8,4.493,17.537,17.537,0,0,1-3,3.3l-.381-.2a18.963,18.963,0,0,0,2.133-5.1,39.613,39.613,0,0,0,.711-8.734Q381,8357.114,380.671,8354.169Zm13.1,5.484q-1.168.28-2.615.482v2.285h.482a10.415,10.415,0,0,1,.991-.965.969.969,0,0,1,.66-.381,4.165,4.165,0,0,1,1.295.635q1.218.813,1.218,1.092a1,1,0,0,1-.38.711.972.972,0,0,0-.3.711v2.564q0,1.066.1,2.92,0,.508-1.244.736a6.832,6.832,0,0,1-.787.077q-.736,0-.736-.687v-.609h-1.295v3.529q1.143-.05,2.184-.127a11.619,11.619,0,0,0-.889-1.676l.3-.229a10.147,10.147,0,0,1,2.869,1.752,2.971,2.971,0,0,1,1.193,2.031,1.726,1.726,0,0,1-.584,1.371,1.351,1.351,0,0,1-.914.33,1.12,1.12,0,0,1-.787-.3,2.788,2.788,0,0,1-.508-1.32,8.536,8.536,0,0,0-.482-1.5,31.468,31.468,0,0,1-7.034,2.412c-.3.017-.457.093-.457.229a2.4,2.4,0,0,0-.1.355c-.051.236-.144.355-.279.355q-.508,0-1.194-1.777c-.136-.322-.355-.846-.66-1.574q2.488-.1,4.8-.2v-3.656h-1.244v.914q0,.407-1.168.609a5.619,5.619,0,0,1-.737.076q-.736,0-.736-.686.1-1.219.1-2.437v-3.047a30.487,30.487,0,0,0-.178-3.352,20.134,20.134,0,0,1,3.021,1.117h.94v-2.031q-1.956.127-4.266.178l-.228-.609a33.875,33.875,0,0,0,5.129-1.092,13.726,13.726,0,0,0,3.4-1.625q1.193.762,1.777,1.143,1.168.788,1.168,1.168,0,.3-.482.3Zm-6.4,8.836h1.244v-5.383h-1.244Zm3.783-5.383v5.383h1.32v-5.383Z" fill="#42526c"/>
    </g>
  </g>
</svg>
