<svg xmlns="http://www.w3.org/2000/svg" width="210.981" height="118.895" viewBox="0 0 210.981 118.895">
  <g id="section4_txt4" transform="translate(-1244.584 -2081.503)">
    <g id="Group_1566" data-name="Group 1566" transform="translate(0.015 -4569.432)">
      <path id="Path_7779" data-name="Path 7779" d="M1245.579,6652.966a15.537,15.537,0,0,1,3.2,1.118h14.168q.506-.56.888-1.016.584-.736.863-.736a4.008,4.008,0,0,1,1.676.837q1.473,1.119,1.473,1.5,0,.355-.635.761a1.338,1.338,0,0,0-.482.889v11.146l.2,5.205q0,.483-1.473.737a7.312,7.312,0,0,1-.863.076q-.737,0-.736-.813v-1.65H1248.55v1.65q0,.483-1.244.737a6.7,6.7,0,0,1-.787.076q-.941,0-.94-.813.2-2.793.2-4.9v-10.334Q1245.782,6655.583,1245.579,6652.966Zm2.971,17.368h15.311v-4.266H1259.8a2.458,2.458,0,0,1-1.93-.686,2.3,2.3,0,0,1-.685-1.853v-8.76h-2.565v1.016a24.618,24.618,0,0,1-.609,5.967,10.58,10.58,0,0,1-4.875,6.017l-.305-.406a8.375,8.375,0,0,0,1.524-2.438,13.724,13.724,0,0,0,1.066-3.2,38.948,38.948,0,0,0,.381-5.941v-1.016h-3.25Zm11.35-15.565V6663c0,.355.236.533.711.533h3.25v-8.76Z" fill="#bb9167"/>
      <path id="Path_7780" data-name="Path 7780" d="M1289.048,6653.652q-2.844.2-5.383.305v2.539h4.8a10.368,10.368,0,0,0,.965-1.143q1.067-1.269,1.269-1.269.507,0,1.676,1.218,1.143,1.22,1.143,1.5,0,.432-.483.432h-8.81a19.385,19.385,0,0,0,4.367,1.8,35.914,35.914,0,0,0,5.561,1.015l-.1.635a2.349,2.349,0,0,0-1.523,1.473c-.17.558-.373.838-.61.838a8.655,8.655,0,0,1-2.386-.838,17.386,17.386,0,0,1-3.682-2.184,16.884,16.884,0,0,1-2.184-2.006v3.631q0,.483-1.345.711a6.115,6.115,0,0,1-.889.1.719.719,0,0,1-.813-.813,23.764,23.764,0,0,0,.229-3.351,17.843,17.843,0,0,1-2.387,2.056,16.721,16.721,0,0,1-3.428,1.778,24.228,24.228,0,0,1-4.265,1.32l-.2-.406a21.5,21.5,0,0,0,4.519-2.412,14.764,14.764,0,0,0,3.377-3.352h-4.012q-2.235,0-3.148.1l-.432-1.016a27,27,0,0,0,3.58.178h6.4v-2.463q-3.327.051-8.531.051l-.1-.635q4.6-.254,8.024-.737a48.682,48.682,0,0,0,7.693-1.6q1.116.737,2.006,1.371c.642.474.965.863.965,1.168q-.077.229-.635.228Zm-14.4,9.064a19.939,19.939,0,0,0,3.529.28h7.236a7.172,7.172,0,0,0,.61-.584,2.153,2.153,0,0,1,1.091-.61q.483,0,1.676,1.067,1.269,1.041,1.27,1.447t-1.016.482a2.233,2.233,0,0,0-1.117.254q-1.626.711-2.9,1.194c.051.05.077.085.077.1,0,.288-.247.559-.737.813a.652.652,0,0,0-.508.609v.127h4.9a10.514,10.514,0,0,0,.965-1.143q1.066-1.318,1.244-1.32.558,0,1.7,1.244,1.167,1.245,1.168,1.524,0,.381-.533.381h-9.446v2.666q0,2.157-1.3,2.742a5.665,5.665,0,0,1-2.259.711c-.221,0-.4-.263-.533-.787q-.331-1.3-3-2.184l.077-.482a23.446,23.446,0,0,0,2.767.2,2.262,2.262,0,0,0,1.143-.229c.185-.1.279-.339.279-.711v-1.929h-6.805q-2.235,0-3.148.1l-.432-1.015a21.234,21.234,0,0,0,3.58.228h6.78q-.053-1.4-.178-2.463,1.192.178,2.133.356a3.206,3.206,0,0,1,.457.076,25.406,25.406,0,0,0,2.082-2.133h-7.338a23.466,23.466,0,0,0-3.149.2Z" fill="#bb9167"/>
      <path id="Path_7781" data-name="Path 7781" d="M1301.667,6651.646a13.6,13.6,0,0,1,3.733,1.066,1.475,1.475,0,0,1,.914,1.27,1.988,1.988,0,0,1-.61,1.346,1.364,1.364,0,0,1-.33.254h3.733a14.173,14.173,0,0,0,.888-4.571q1.8.3,2.946.584,1.625.3,1.625.737,0,.279-.864.507-.66.1-.787.33a13.57,13.57,0,0,1-3.047,2.413h3.784a10.433,10.433,0,0,0,.964-1.143q1.067-1.269,1.245-1.27.558,0,1.7,1.219,1.167,1.219,1.168,1.524,0,.406-.533.406h-8.633v2.945h2.869a8.731,8.731,0,0,0,.889-1.092q.963-1.269,1.142-1.269.507,0,1.6,1.219,1.116,1.167,1.117,1.447,0,.381-.483.381h-7.134V6663h5.383a6.973,6.973,0,0,0,.939-1.143c.693-.846,1.092-1.269,1.193-1.269q.558,0,1.7,1.218,1.167,1.22,1.167,1.5c0,.288-.177.432-.533.432h-11.426a4.319,4.319,0,0,0,.432.076q1.675.33,1.676.711c0,.237-.221.423-.66.559a.99.99,0,0,0-.686.685q-.179.71-.355,1.321h6.449a7.643,7.643,0,0,0,.99-1.143q1.067-1.294,1.244-1.295.558,0,1.7,1.219,1.167,1.243,1.167,1.5c0,.271-.177.406-.533.406h-9.75a9.564,9.564,0,0,0,2.768,2.057,12.809,12.809,0,0,0,2.945,1.041,29.141,29.141,0,0,0,4.774.863l-.3.635a2.746,2.746,0,0,0-1.473,1.422q-.228.913-.355.914a9.9,9.9,0,0,1-2.336-.686,13.071,13.071,0,0,1-3.123-1.549,7.888,7.888,0,0,1-2.184-2.107,14.953,14.953,0,0,1-1.625-2.59h-.584a9.361,9.361,0,0,1-1.472,2.717,11.1,11.1,0,0,1-3.377,2.564,24.046,24.046,0,0,1-6.653,1.828l-.2-.279a23.27,23.27,0,0,0,5.561-2.717,7.952,7.952,0,0,0,2.716-2.843,5.453,5.453,0,0,0,.584-1.27h-4.875a26.523,26.523,0,0,0-3.148.127l-.432-1.016a23.641,23.641,0,0,0,3.58.2h5.079a14.246,14.246,0,0,0,.406-3.352h-5.586q-2.235,0-3.149.1l-.431-1.016a26.988,26.988,0,0,0,3.58.178h6.271v-3.047h-3.453q-2.208,0-3.148.1l-.406-1.015a21.018,21.018,0,0,0,3.554.228h3.453v-2.945h-5.052q-2.237,0-3.149.1l-.406-1.041a23.11,23.11,0,0,0,3.555.2h2.513a2.145,2.145,0,0,1-.558-.813,7.768,7.768,0,0,0-2.057-2.717Z" fill="#bb9167"/>
      <path id="Path_7782" data-name="Path 7782" d="M1328.581,6668.2q1.066.583,1.854,1.041c.711.372,1.066.669,1.066.888s-.17.339-.508.356q-.609,0-.711.228a16.252,16.252,0,0,1-2.615,1.27,27.709,27.709,0,0,1-5,1.4l-.2-.431a21.5,21.5,0,0,0,3.606-2.158A9.579,9.579,0,0,0,1328.581,6668.2Zm-3.047-16.987a28.931,28.931,0,0,1,3.276,1.219h10.537q.558-.609,1.092-1.092a1.044,1.044,0,0,1,.711-.406,4.413,4.413,0,0,1,1.548.736q1.4.915,1.4,1.295,0,.332-.635.686a.9.9,0,0,0-.482.711v1.219q0,1.192.1,3.25,0,.507-1.269.761a7.332,7.332,0,0,1-.863.076q-.687,0-.686-.837v-.381h-4.6v2.513h6.018a7.651,7.651,0,0,0,.838-.99q.914-1.143,1.092-1.142.456,0,1.472,1.117,1.067,1.091,1.067,1.32,0,.432-.534.432h-19.373q-2.235,0-3.148.1l-.432-1.041a23.744,23.744,0,0,0,3.58.2h6.6v-2.513h-4.367v.584q0,.508-1.27.736a6.167,6.167,0,0,1-.762.076.729.729,0,0,1-.837-.812q.1-1.321.1-2.616V6654.9Q1325.712,6652.992,1325.534,6651.214Zm.28,11.071a21.335,21.335,0,0,1,2.97,1.015h10.461q.458-.557.813-.939a1,1,0,0,1,.711-.381,3.578,3.578,0,0,1,1.6.863q1.345.89,1.346,1.27c0,.186-.186.381-.558.584-.323.186-.508.364-.559.533v2.336q0,.458-1.244.66a6.774,6.774,0,0,1-.787.076q-.738,0-.737-.634v-.2H1336.2v4.266a2.409,2.409,0,0,1-1.447,2.539,5.385,5.385,0,0,1-2.006.609q-.406,0-.685-.812-.381-1.219-3.2-2.031l.1-.407q2.056.1,3.453.1.915,0,.914-.711v-3.555h-4.545v.1q0,.508-1.244.736a6.685,6.685,0,0,1-.812.076q-.813,0-.813-.71a11.342,11.342,0,0,0,.1-1.6v-1.65A13.691,13.691,0,0,0,1325.814,6662.285Zm2.666-7.186h11.781v-1.93H1328.48Zm0,2.615h11.781v-1.929H1328.48Zm11.349,9.065v-2.768h-11.045v2.768Zm-2.31,1.7a33.441,33.441,0,0,1,5.078,1.27q2.715.939,2.717,1.98a1.884,1.884,0,0,1-.407,1.295,1.692,1.692,0,0,1-1.193.66,1.747,1.747,0,0,1-1.3-.762,16.821,16.821,0,0,0-2.336-2.234,18.826,18.826,0,0,0-2.869-1.777Z" fill="#bb9167"/>
      <path id="Path_7783" data-name="Path 7783" d="M1358.745,6651.011a23.136,23.136,0,0,1,2.844.508q1.725.3,1.727.711,0,.381-.737.711-.711.179-.711.609v2.133a24.952,24.952,0,0,0,1.625,4.342,12.892,12.892,0,0,0,.711,1.371,22.783,22.783,0,0,0,1.422-2.006,21.1,21.1,0,0,0,1.955-3.91q1.345.864,2.514,1.6,1.116.787,1.117,1.168c0,.254-.161.38-.482.38l-1.549-.076a23.676,23.676,0,0,1-4.621,3.4,14.837,14.837,0,0,0,2.387,2.945,21.664,21.664,0,0,0,5.2,3.58l-.2.533a3.042,3.042,0,0,0-1.7,1.625q-.508.99-.736.99-.508,0-2.031-1.574a20.857,20.857,0,0,1-3.25-4.367,28.45,28.45,0,0,1-2.108-5.129q-.127-.431-.254-.838v11.832a2.578,2.578,0,0,1-1.142,2.412,4.857,4.857,0,0,1-2.615.838c-.289,0-.466-.262-.534-.787q-.255-1.244-3.326-2.463l.127-.634a27.5,27.5,0,0,0,3.936.431q.635,0,.634-.533v-10.689a1.553,1.553,0,0,1-.406.2q-.788.2-.914.533a17.219,17.219,0,0,1-3.631,6.576,18.181,18.181,0,0,1-5.433,3.91l-.2-.33a19.728,19.728,0,0,0,3.148-3.5,16.443,16.443,0,0,0,1.98-3.758,19.3,19.3,0,0,0,1.3-4.494q-4.392,0-5.205.1l-.381-1.016a22.248,22.248,0,0,0,2.666.2h2.717a7.789,7.789,0,0,1,.686-.736q.584-.584.914-.584a5.2,5.2,0,0,1,1.6,1.041,8,8,0,0,1,1.167,1.016v-5.51Q1358.948,6652.991,1358.745,6651.011Z" fill="#bb9167"/>
      <path id="Path_7784" data-name="Path 7784" d="M1380.581,6655.1q1.219.381,2.336.813t1.117.888q0,.281-.584.33-.559.077-.634.2a34.83,34.83,0,0,1-4.342,4.773q1.625-.026,3.123-.076a10.587,10.587,0,0,0-.533-1.346l.2-.2a7.928,7.928,0,0,1,2.183,1.549,2.6,2.6,0,0,1,.762,1.6,1.941,1.941,0,0,1-.33,1.168,1.4,1.4,0,0,1-.965.432.822.822,0,0,1-.609-.2q-.2-.153-.356-1.346a7.44,7.44,0,0,0-.152-.939q-.636.3-1.219.558v6.729q0,2.413.1,3.834,0,.458-1.3.66a7.3,7.3,0,0,1-.838.076q-.636,0-.635-.736.1-1.321.1-3.834v-2.209c-.069.017-.153.034-.254.051-.373.05-.584.127-.635.228a16.368,16.368,0,0,1-1.015,3,16.158,16.158,0,0,1-1.448,2.489l-.3-.305q.3-1.777.457-3.3.151-1.6.279-3.809,1.143.306,2.209.635a3.215,3.215,0,0,1,.711.28v-2.87q-.636.179-1.27.305-.33.076-.33.229a.98.98,0,0,0-.076.3q-.076.281-.228.28-.484,0-1.143-1.625-.179-.483-.609-1.524,1.421-.024,2.716-.051A28.77,28.77,0,0,0,1380.581,6655.1Zm-2.336-4.088q1.219.406,2.336.838,1.116.406,1.117.914,0,.255-.584.3c-.373.051-.583.11-.634.178a20.729,20.729,0,0,1-3.1,3.351,5.7,5.7,0,0,1,.508.33,1.925,1.925,0,0,1,.762,1.524,1.605,1.605,0,0,1-.483,1.066,1.139,1.139,0,0,1-.838.33q-.533,0-.914-1.015a7.846,7.846,0,0,0-1.752-2.819l.2-.33a16.244,16.244,0,0,1,1.676.559A26.62,26.62,0,0,0,1378.245,6651.011Zm3.123,14.422a7.41,7.41,0,0,1,1.8,1.8,4.674,4.674,0,0,1,.33.635,36.914,36.914,0,0,0,5.612-2.209v-4.494h-2.666q-2.21,0-3.149.1l-.381-.99a22.925,22.925,0,0,0,3.53.2h4.164l.558-2.336h-3.707l-.178.584q0,.483-1.523.533-1.447,0-1.447-.533,2.234-5.307,2.234-7.617,1.725.406,2.768.685,1.116.306,1.117.635,0,.381-.711.483a1.055,1.055,0,0,0-.711.533l-.127.33h2.666q.481-.481.914-.889.609-.66.914-.66.43,0,1.574,1.016,1.066.939,1.067,1.32,0,.3-.838.533c-.424.136-.652.33-.686.584l-1.066,4.8h.533a7.338,7.338,0,0,0,.813-.914q.886-1.015,1.041-1.016.43,0,1.371.991c.642.677.965,1.083.965,1.218a.36.36,0,0,1-.407.407h-5.916v.812a16.413,16.413,0,0,0,.864,2.488,7.754,7.754,0,0,0,.38.838,6.772,6.772,0,0,0,.813-1.066,9.265,9.265,0,0,0,1.193-2.158q1.143.737,2.108,1.345c.642.457.965.787.965.991q0,.33-.3.33l-1.346-.1a22.12,22.12,0,0,1-3.072,1.244,8.337,8.337,0,0,0,1.269,1.651,12.3,12.3,0,0,0,3.454,2.488l-.1.482a2.657,2.657,0,0,0-1.549,1.194q-.406.965-.685.964-.255,0-.965-.863a12.052,12.052,0,0,1-1.7-2.387,14.4,14.4,0,0,1-1.27-3.123.78.78,0,0,0-.051-.177v5.332q0,2.107-1.32,2.691a4.594,4.594,0,0,1-1.93.66c-.186,0-.347-.3-.482-.914q-.332-1.269-2.463-2.158l.127-.482a13.075,13.075,0,0,0,2.539.3.73.73,0,0,0,.813-.838v-3.834a16.75,16.75,0,0,1-2.413,1.981,4.93,4.93,0,0,0-1.269.939v.635c-.034.321-.127.483-.279.483q-.306,0-1.067-1.245a4.024,4.024,0,0,1-.254-.406,1.95,1.95,0,0,1-.406,1.219,1.549,1.549,0,0,1-1.143.533.406.406,0,0,1-.38-.254,5.268,5.268,0,0,1-.229-1.549,15.814,15.814,0,0,0-.609-3.453Zm3.479-2.92a7.473,7.473,0,0,1,2.514.914,1.374,1.374,0,0,1,.634,1.092,1.9,1.9,0,0,1-.609,1.32,1.36,1.36,0,0,1-1.041.407q-.331,0-.584-.889a7.656,7.656,0,0,0-1.143-2.438Zm2.844-5.078h3.656l.685-2.971h-3.376Z" fill="#bb9167"/>
      <path id="Path_7785" data-name="Path 7785" d="M1402.8,6651.113a22.674,22.674,0,0,1,3.3,1.219h11.629q.381-.483.736-.889.507-.507.686-.508a4.128,4.128,0,0,1,1.523.787q1.243.838,1.244,1.244t-.736.686q-.483.3-.483.609,0,6.779.28,10.791a17.053,17.053,0,0,0,.635,3.733q.354,1.447.584,1.447t.507-1.371q.177-.736.61-2.615l.533.3q-.432,3.936-.432,4.368a6.881,6.881,0,0,0,.178,1.523,4.456,4.456,0,0,1,.254,1.041q0,.913-.736,1.016a3.055,3.055,0,0,1-1.955-.838,6.3,6.3,0,0,1-1.448-2.514,25.862,25.862,0,0,1-1.142-5.637q-.432-3.909-.432-12.441h-12.289v7.693a45.072,45.072,0,0,1-.381,6.246,14.633,14.633,0,0,1-1.8,4.5,17.485,17.485,0,0,1-3,3.3l-.381-.2a18.968,18.968,0,0,0,2.133-5.1,39.558,39.558,0,0,0,.711-8.735Q1403.128,6654.059,1402.8,6651.113Zm13.1,5.484q-1.17.281-2.616.483v2.285h.483a10.257,10.257,0,0,1,.99-.965.969.969,0,0,1,.66-.381,4.155,4.155,0,0,1,1.3.635q1.219.813,1.219,1.092a1,1,0,0,1-.381.711.975.975,0,0,0-.305.711v2.564q0,1.066.1,2.92,0,.509-1.244.736a6.774,6.774,0,0,1-.787.076q-.738,0-.737-.685v-.61h-1.295v3.53q1.143-.051,2.184-.127a11.448,11.448,0,0,0-.889-1.676l.305-.228a10.119,10.119,0,0,1,2.869,1.751,2.976,2.976,0,0,1,1.194,2.032,1.729,1.729,0,0,1-.584,1.371,1.35,1.35,0,0,1-.915.33,1.124,1.124,0,0,1-.787-.3,2.8,2.8,0,0,1-.507-1.32,8.575,8.575,0,0,0-.483-1.5,31.454,31.454,0,0,1-7.033,2.412q-.457.026-.457.228a2.441,2.441,0,0,0-.1.356c-.05.237-.144.355-.279.355q-.508,0-1.193-1.777-.2-.483-.66-1.574,2.487-.1,4.8-.2v-3.657H1409.5v.915q0,.406-1.168.609a5.539,5.539,0,0,1-.736.076q-.737,0-.736-.685.1-1.219.1-2.438V6661.6a30.247,30.247,0,0,0-.178-3.351,20.043,20.043,0,0,1,3.022,1.117h.939v-2.031q-1.954.126-4.265.177l-.229-.609a33.943,33.943,0,0,0,5.129-1.092,13.745,13.745,0,0,0,3.4-1.625q1.193.762,1.778,1.143,1.167.787,1.168,1.168c0,.2-.161.3-.483.3Zm-6.4,8.836h1.244v-5.383H1409.5Zm3.783-5.383v5.383h1.321v-5.383Z" fill="#bb9167"/>
      <path id="Path_7786" data-name="Path 7786" d="M1426.563,6660.863a23.45,23.45,0,0,0,3.554.2h6.5v-7.516a13.747,13.747,0,0,0-.2-2.336q1.8.179,3.428.483c.695.034,1.041.212,1.041.533q0,.179-.609.457c-.473.187-.711.406-.711.66v7.719h5.484a6.744,6.744,0,0,0,.94-1.143c.677-.863,1.076-1.295,1.193-1.295q.559,0,1.7,1.245,1.169,1.218,1.168,1.523,0,.406-.533.406h-7.287v8.328q0,1.143.355,1.448a7.974,7.974,0,0,0,2.108.152,7.271,7.271,0,0,0,1.5-.2c.424-.051.685-.483.787-1.295l.939-4.266.584.1q.153,3.936.2,3.935a2.3,2.3,0,0,0,.457,1.118,1.428,1.428,0,0,1,.686,1.041,1.743,1.743,0,0,1-.559,1.4,4.395,4.395,0,0,1-2.006.584,10.2,10.2,0,0,1-2.589.254,30.066,30.066,0,0,1-3.606-.152,1.961,1.961,0,0,1-1.168-.61,3.392,3.392,0,0,1-.635-2.386V6661.8h-3.173a31.586,31.586,0,0,1-.432,5.51,9.009,9.009,0,0,1-1.5,3.25,8.9,8.9,0,0,1-2.361,2.057,17.182,17.182,0,0,1-4.52,1.98l-.2-.33a13.438,13.438,0,0,0,2.818-1.9,8.368,8.368,0,0,0,1.778-2.311,9.085,9.085,0,0,0,.99-2.64,30.282,30.282,0,0,0,.381-5.612h-2.946q-2.208,0-3.123.076Zm3.351-7.084a9.12,9.12,0,0,1,3.53,1.93,3.469,3.469,0,0,1,.837,2.31,1.977,1.977,0,0,1-.558,1.32,1.407,1.407,0,0,1-1.041.407q-.609,0-1.016-1.473a12.7,12.7,0,0,0-1.955-4.088Zm13.914-.813q1.524.432,2.641.762,1.447.406,1.447.736,0,.406-.863.508a1.182,1.182,0,0,0-.787.33,10.189,10.189,0,0,1-1.8,2.285,12.738,12.738,0,0,1-2.869,2.159l-.279-.381a21.132,21.132,0,0,0,1.4-2.793A19.729,19.729,0,0,0,1443.828,6652.966Z" fill="#bb9167"/>
    </g>
    <g id="Group_1567" data-name="Group 1567" transform="translate(0.015 -4569.432)">
      <path id="Path_7787" data-name="Path 7787" d="M1248.209,6699.728l-.32.32a21.87,21.87,0,0,0-3.32-2.761l.319-.3A22.071,22.071,0,0,1,1248.209,6699.728Zm.06,2.88a62.108,62.108,0,0,1-2.941,6.7l-.42-.161a53.407,53.407,0,0,0,2.981-6.681Zm.5-7.7-.3.321a24.273,24.273,0,0,0-3.5-2.861l.32-.3A23.337,23.337,0,0,1,1248.769,6694.906Zm11.783,9.023v.38a13.505,13.505,0,0,1-4.281,3.22,29.458,29.458,0,0,0,6.081,1.721l-.239.359a29.917,29.917,0,0,1-6.323-1.839,25.479,25.479,0,0,1-6.7,1.86l-.2-.36a25.425,25.425,0,0,0,6.422-1.721,12.91,12.91,0,0,1-4.381-3.181h-1.1v-.439Zm.46-5.222v3.541h-10.883v-3.541Zm-7.321.441h-3.141v2.7h3.141Zm6.121-1.42h-.42v-4.8h-7.642v4.842h-.44v-5.262h8.5Zm-4.022,9.6a13.317,13.317,0,0,0,4.2-2.961h-8.521A13.075,13.075,0,0,0,1255.79,6707.329Zm2.381-12.6v.44h-5.221v-.44Zm0,1.96v.42h-5.221v-.42Zm-1.16,2.461h-2.881v2.7h2.881Zm3.561,0h-3.121v2.7h3.121Z" fill="#fff"/>
      <path id="Path_7788" data-name="Path 7788" d="M1268.629,6696.907v.38a29.921,29.921,0,0,1-2.9,4.181h2.94v.34a25.494,25.494,0,0,1-1.18,4.7,2.188,2.188,0,0,1,.7.42,7.093,7.093,0,0,0,2.161,1.541,8.381,8.381,0,0,0,3.12.479c1.141,0,2.44.021,3.881.021,1.261,0,2.9-.021,4.9-.04l-.08.46h-4.741c-1.78,0-3.141-.02-4.061-.02a8.234,8.234,0,0,1-3.321-.62,6.639,6.639,0,0,1-2.32-1.661,1.009,1.009,0,0,0-.56-.2c-.66,0-1.48.9-2.461,2.741l-.34-.24c1-1.9,1.9-2.881,2.721-2.941a22.809,22.809,0,0,0,1.16-4.561h-3.081v-.38a29.092,29.092,0,0,0,2.941-4.161h-3.58v-.44Zm-.24-1.98-.32.32a20.159,20.159,0,0,0-3.021-2.9l.32-.3A22.1,22.1,0,0,1,1268.389,6694.927Zm1.181.38v-.42h5.861v.42h-3.621v1.62c0,.56-.02,1.1-.04,1.621h3.161a48.414,48.414,0,0,1-.3,7.181,1.385,1.385,0,0,1-1.58,1.34c-.24,0-.64-.02-1.2-.04l-.1-.38c.5,0,.94.02,1.321.02a1.011,1.011,0,0,0,1.139-.9,54.616,54.616,0,0,0,.28-6.8h-2.74c-.24,3.32-.94,5.821-2.14,7.5l-.321-.28c1.361-1.92,2.04-5.021,2.08-9.262v-1.62Zm3.541-.96-.4.139a19.912,19.912,0,0,0-1.08-2.52l.42-.12A16.654,16.654,0,0,1,1273.111,6694.347Zm2.179,3.32-.279-.32a10.9,10.9,0,0,0,2.7-5.5l.42.08a14.147,14.147,0,0,1-.8,2.56h4.921v.42h-5.1A9.8,9.8,0,0,1,1275.29,6697.667Zm6.382-.1v.4a22.093,22.093,0,0,1-2.06,2.321v1.58h2.72v.441h-2.72v4.26c0,.5-.321.76-.92.76h-1.621l-.1-.44c.46,0,.98.02,1.54.02.44,0,.681-.179.681-.5v-4.1h-3.2v-.441h3.2v-1.7a18.7,18.7,0,0,0,1.98-2.2h-4.3v-.4Z" fill="#fff"/>
      <path id="Path_7789" data-name="Path 7789" d="M1291.81,6705.509l-.4.1c-.12-.379-.239-.739-.359-1.059a50.168,50.168,0,0,1-5.561.74l-.14-.42a2.29,2.29,0,0,0,.22-.12,21.285,21.285,0,0,0,3.32-3.441c-1.36.14-2.62.26-3.78.34l-.12-.42a.515.515,0,0,0,.2-.16,16.035,16.035,0,0,0,2.96-4.161l.421.16a17.6,17.6,0,0,1-2.961,4.121c1.2-.08,2.4-.18,3.621-.3.559-.72,1.12-1.5,1.7-2.34l.38.119a30.559,30.559,0,0,1-5.281,6.2c1.68-.16,3.32-.4,4.88-.68a20.749,20.749,0,0,0-.9-2l.381-.121A19.023,19.023,0,0,1,1291.81,6705.509Zm-5.461.78a10.372,10.372,0,0,1-.88,3.5l-.421-.12a10.481,10.481,0,0,0,.881-3.421Zm14.423-13.7v3.541h-14.783v-3.541Zm-10.023.42h-4.341v2.7h4.341Zm-1.66,16.483-.42.08c-.12-1.24-.28-2.32-.44-3.26l.4-.1C1288.789,6707.209,1288.949,6708.31,1289.089,6709.489Zm2.82-.639-.379.16a19.86,19.86,0,0,0-.96-2.961l.419-.12C1291.329,6706.829,1291.63,6707.81,1291.909,6708.85Zm3.7-15.844h-4.421v2.7h4.421Zm-1.441,16.724h-.439v-9.542a15.59,15.59,0,0,1-1.941,2.2l-.12-.421a13.661,13.661,0,0,0,3.381-5.161l.4.08a13.39,13.39,0,0,1-1.179,2.48h3.74a17.513,17.513,0,0,0-.7-2.46l.44-.06c.24.72.481,1.56.7,2.52h3.481v.421h-3.461v2.58h3.2v.42h-3.2v2.5h3.2v.44h-3.2v2.68h3.6v.42h-7.9Zm0-9.942v2.58h3.861v-2.58Zm0,5.5h3.861v-2.5h-3.861Zm0,3.12h3.861v-2.68h-3.861Zm6.161-15.4h-4.28v2.7h4.28Z" fill="#fff"/>
      <path id="Path_7790" data-name="Path 7790" d="M1313.05,6693.706v-2.141h.44v2.141h8.362v.441h-8.362v2.7h6.541v6.521h-5.741q2.31,3.42,7.862,5.281l-.161.38c-3.96-1.4-6.7-3.3-8.181-5.661h-.32v6.442h-.44v-6.442h-.38q-1.86,3.391-8.021,5.781l-.221-.379q5.97-2.281,7.782-5.4h-5.741v-6.521h6.581v-2.7h-8.361v-.441Zm0,3.562h-6.142v2.62h6.142Zm-6.142,5.661h6.142v-2.621h-6.142Zm12.683-5.661h-6.1v2.62h6.1Zm-6.1,5.661h6.1v-2.621h-6.1Z" fill="#fff"/>
      <path id="Path_7791" data-name="Path 7791" d="M1328.629,6696.907v.38a30,30,0,0,1-2.9,4.181h3.12v.34a20.894,20.894,0,0,1-1.38,4.7,2.419,2.419,0,0,1,.66.4,6.974,6.974,0,0,0,2.16,1.5,9.26,9.26,0,0,0,3.1.481h3.881c1.28,0,2.94-.021,4.981-.04l-.08.46h-4.841c-1.76,0-3.121-.02-4.041-.02a8.662,8.662,0,0,1-3.3-.6,6.816,6.816,0,0,1-2.3-1.6,1.012,1.012,0,0,0-.561-.2c-.659,0-1.46.9-2.42,2.741l-.34-.24q1.44-2.852,2.7-2.941a23,23,0,0,0,1.379-4.561h-3.28v-.38a29.092,29.092,0,0,0,2.941-4.161h-3.58v-.44Zm-.06-2.041-.32.321a22.57,22.57,0,0,0-3.121-2.9l.3-.3A22.354,22.354,0,0,1,1328.569,6694.866Zm12.863.381h-.42v-2.161h-4.882v2.421h4.321v.42h-4.321v1.841h4.442v5.34h-4.442v1.96h5.781v.4h-5.781v2.5h-.439v-2.5h-5.742v-.4h5.742v-1.96h-4.442v-5.34h4.442v-1.841h-4.322v-.42h4.322v-2.421h-4.982v2.221h-.42v-2.641h11.143Zm-5.741,5v-2.041h-4v2.041Zm0,.42h-4v2.04h4Zm.439-.42h4.022v-2.041h-4.022Zm4.022.42h-4.022v2.04h4.022Z" fill="#fff"/>
      <path id="Path_7792" data-name="Path 7792" d="M1353.27,6708.209c-2.6.36-5.581.641-8.922.881l-.06-.441c1.6-.1,3.1-.219,4.5-.339v-2.581h-3.961v-.44h3.961v-2.02h-3.781v-5.581h3.781v-1.921h-4.421v-.44h4.421v-2.18c-1.26.1-2.621.16-4.1.16l-.14-.421a34.591,34.591,0,0,0,8.361-.86l.221.4a25.96,25.96,0,0,1-3.9.68v2.221h4.341v.44h-4.341v1.921h3.8v5.581h-3.8v2.02h3.981v.44h-3.981v2.541c1.461-.161,2.8-.321,4.041-.5Zm-4.481-7.961v-2.141h-3.361v2.141Zm0,.44h-3.361v2.14h3.361Zm.44-.44h3.381v-2.141h-3.381Zm3.381.44h-3.381v2.14h3.381Zm4.461-8.982v4.1h4.161c0,6.321-.1,10.222-.281,11.742a1.929,1.929,0,0,1-2.14,1.921c-.4,0-1.06-.021-2-.021l-.1-.4c.82.019,1.54.04,2.14.04a1.531,1.531,0,0,0,1.661-1.481c.159-1.44.26-5.22.3-11.382h-3.741v1.4q-.06,8.191-3.661,11.982l-.32-.259c2.32-2.441,3.521-6.362,3.561-11.723v-1.4h-2.341v-.42h2.341v-4.1Z" fill="#fff"/>
      <path id="Path_7793" data-name="Path 7793" d="M1370.969,6692.866a21.147,21.147,0,0,1-6.041,8.9l-.34-.3a20.261,20.261,0,0,0,5.961-8.762Zm9.543,16.623-.381.181c-.359-.7-.72-1.36-1.08-1.961q-5.461.87-12.223,1.32l-.1-.439q2.94-2.521,6.1-10.1l.42.1c-2,4.8-3.961,8.143-5.861,9.982a98.258,98.258,0,0,0,11.422-1.28,37.391,37.391,0,0,0-3.28-4.7l.419-.12A42.179,42.179,0,0,1,1380.512,6709.489Zm-3.6-16.9a14.813,14.813,0,0,0,5.142,8.742l-.36.32a15.848,15.848,0,0,1-5.121-8.642h-3.761v-.42Z" fill="#fff"/>
      <path id="Path_7794" data-name="Path 7794" d="M1400.991,6709.73h-.44v-1.121h-14.562v1.121h-.441v-17.043h15.443Zm-.44-1.541v-15.083h-14.562v15.083Zm-3.38-8.561v2.92h-4.361a6.323,6.323,0,0,1-1.28,1.24v2.781c.959-.24,1.92-.54,2.9-.88l.08.42a27.1,27.1,0,0,1-3.541.98l-.18-.359c.2-.061.321-.141.321-.261v-2.38a16.259,16.259,0,0,1-3.421,1.559l-.241-.379c2.5-.781,4.142-1.68,4.921-2.721h-3.02v-2.92Zm-4.121-4.041v-1.561h.44v1.561h4.421v.439h-4.421v1.841h5.4v.441h-11.182v-.441h5.341v-1.841h-4.421v-.439Zm3.7,4.461h-6.981v2.06h6.981Zm1.921,3.3a17.929,17.929,0,0,1-2.52,1.52,25.531,25.531,0,0,1,2.88,1.72l-.24.34a24.643,24.643,0,0,0-5.381-2.88l.24-.36a19.96,19.96,0,0,1,2.081.959,14.076,14.076,0,0,0,2.58-1.54Z" fill="#fff"/>
      <path id="Path_7795" data-name="Path 7795" d="M1413.93,6700.228a1.869,1.869,0,0,1,.181.92,2.446,2.446,0,0,1-.541,1.581,2.362,2.362,0,0,1-1.36.82v-.461a2.107,2.107,0,0,0,1.1-.739,2.161,2.161,0,0,0,.3-1.181,1.248,1.248,0,0,1-.36.04.649.649,0,0,1-.46-.2.638.638,0,0,1-.2-.46.605.605,0,0,1,.16-.5.684.684,0,0,1,.52-.181A.751.751,0,0,1,1413.93,6700.228Z" fill="#fff"/>
      <path id="Path_7796" data-name="Path 7796" d="M1249.469,6723.246v-1.6h.421v1.6h2.74v.42h-2.74v1.82h-.421v-1.82h-4.681v-.42Zm-1.439,10.7a45.036,45.036,0,0,1-2.761,5.442l-.42-.18a43.694,43.694,0,0,0,2.82-5.4Zm.419-2.06-.32.32a19.642,19.642,0,0,0-3.241-2.221l.32-.3A24.446,24.446,0,0,1,1248.449,6731.888Zm.64-3.981-.32.321a21.019,21.019,0,0,0-3.12-2.3l.32-.3A21.121,21.121,0,0,1,1249.089,6727.907Zm5.4-2.8a10.893,10.893,0,0,1-1,1.921h6.362v.36a13.215,13.215,0,0,1-4.022,3.921,21.455,21.455,0,0,0,6.582,2.381l-.26.379a20.007,20.007,0,0,1-6.7-2.5,27.993,27.993,0,0,1-6.121,2.681l-.28-.341a27.629,27.629,0,0,0,6.022-2.58,11.8,11.8,0,0,1-2.921-2.68,14.708,14.708,0,0,1-2.8,2.16l-.26-.34a11.48,11.48,0,0,0,4.961-5.4Zm5.181,14.644h-.42v-1h-7.4v1h-.441v-5.561h8.262Zm-.42-1.421v-3.721h-7.4v3.721Zm-3.8-7.241a13.508,13.508,0,0,0,3.862-3.621h-6.142c-.24.3-.5.6-.74.881A11.126,11.126,0,0,0,1255.45,6731.088Zm1.641-9.442v1.6h4.681v.42h-4.681v1.82h-.42v-1.82h-2.761v-.42h2.761v-1.6Z" fill="#fff"/>
      <path id="Path_7797" data-name="Path 7797" d="M1271.59,6723.246h-6.722v-.44h7.162v15.443a1.214,1.214,0,0,1-1.38,1.36h-3.281l-.1-.42,3.3.021c.68,0,1.02-.381,1.02-1.1v-7.781a23.6,23.6,0,0,1-6.962,5.641l-.22-.4a22.274,22.274,0,0,0,7.182-5.821Zm-2.781,6.722-.34.26a34.711,34.711,0,0,0-3.181-4.681l.34-.22A33.435,33.435,0,0,1,1268.809,6729.968Zm6.922,9.221,3.76.021c.621,0,.941-.36.941-1.041v-8.182a22.641,22.641,0,0,1-6.682,5.661l-.219-.4a21.628,21.628,0,0,0,6.9-5.842v-6.161h-6.661v-.44h7.1v15.5a1.153,1.153,0,0,1-1.3,1.3h-3.742Zm1.9-9.521-.34.26a30.612,30.612,0,0,0-2.921-4.381l.34-.24A32.364,32.364,0,0,1,1277.631,6729.668Z" fill="#fff"/>
      <path id="Path_7798" data-name="Path 7798" d="M1288.229,6739.63h-.42v-12.083a21.363,21.363,0,0,1-3.361,7.061l-.18-.4a20.845,20.845,0,0,0,3.5-7.882h-3.24v-.42h3.28v-4.241h.42v4.241h2.76v.42h-2.76v1.84a50.9,50.9,0,0,1,2.981,4.3l-.24.341a42.474,42.474,0,0,0-2.741-4.142Zm6.7-16.784a18.622,18.622,0,0,1-3.341,8.022l-.32-.28a16.959,16.959,0,0,0,3.22-7.8Zm6.461,16.763-.38.181c-.28-.74-.54-1.421-.8-2.06a56.164,56.164,0,0,1-8.2,1.339l-.1-.42q2.161-2.52,4.482-10.082l.42.1q-2.19,7.083-4.28,9.923a48.953,48.953,0,0,0,7.521-1.24,41.84,41.84,0,0,0-2.2-4.461l.421-.12A48.289,48.289,0,0,1,1301.392,6739.609Zm-2.341-17.023a16.993,16.993,0,0,0,3.181,8.462l-.32.3a17.991,17.991,0,0,1-3.2-8.342h-2.2v-.42Z" fill="#fff"/>
      <path id="Path_7799" data-name="Path 7799" d="M1307.629,6727.467v-3.881c-.881.221-1.8.4-2.8.561l-.08-.441a20.885,20.885,0,0,0,5.862-1.58l.16.42a22.76,22.76,0,0,1-2.721.94v3.981h2.561v.421h-2.561v1.04c.76.9,1.561,1.94,2.36,3.1l-.24.361c-.84-1.261-1.54-2.241-2.12-2.961v10.221h-.42v-10.622a18.67,18.67,0,0,1-3.2,6.322l-.18-.4a17.866,17.866,0,0,0,3.341-7.061h-3.041v-.421Zm8.281,11.663c-.879,0-1.3-.42-1.3-1.261v-2.16a16.466,16.466,0,0,1-4.262,3.381l-.239-.36a16.278,16.278,0,0,0,4.5-3.641v-9.523h.439v9a29.939,29.939,0,0,0,5.281-11.822l.38.16q-1.95,7.892-5.661,12.3v2.58c0,.6.32.9,1,.9h2.34a1.307,1.307,0,0,0,1.1-.4,8.273,8.273,0,0,0,.581-3.34l.4.119a7.8,7.8,0,0,1-.641,3.522,1.6,1.6,0,0,1-1.36.54Zm-2.8-11.463a30.771,30.771,0,0,1-1.741,6.741l-.36-.239a32.83,32.83,0,0,0,1.681-6.582Zm4.841-2.641-.3.3a24.831,24.831,0,0,0-3.6-3.361l.3-.26A23.561,23.561,0,0,1,1317.951,6725.026Zm4.361,8.643-.361.159a32.087,32.087,0,0,0-2.28-5.121l.42-.12A34.23,34.23,0,0,1,1322.312,6733.669Z" fill="#fff"/>
      <path id="Path_7800" data-name="Path 7800" d="M1329.989,6734.749a27.7,27.7,0,0,1-5.541,2.12l-.1-.42c.84-.219,1.641-.46,2.4-.74v-8.4h-2.46v-.44h2.46v-5.061h.42v5.061h2.221v.44h-2.221v8.242a29.568,29.568,0,0,0,2.821-1.221Zm10.382-5.642v5.682h-2.72v3.38c0,.52.28.78.86.78h2.24a1,1,0,0,0,.78-.279,5.848,5.848,0,0,0,.4-2.321l.38.14a6.078,6.078,0,0,1-.48,2.5,1.2,1.2,0,0,1-.98.381h-2.481a1.009,1.009,0,0,1-1.16-1.121v-3.46h-2.48a5.3,5.3,0,0,1-1.561,3.12,9.05,9.05,0,0,1-4.061,1.761l-.18-.38a8.993,8.993,0,0,0,3.94-1.661,4.907,4.907,0,0,0,1.461-2.84h-2.56v-5.682Zm-4.4-5.68a15.113,15.113,0,0,0-.66-1.9l.42-.079a16.4,16.4,0,0,1,.66,1.981h5.06v.42h-2.3a12.1,12.1,0,0,1-.981,2.9h3.86v.42H1330.27v-.42h3.62a28.294,28.294,0,0,0-.88-2.9h-2.141v-.42Zm3.96,8.281v-2.181h-7.741v2.181Zm0,.42h-7.741v2.24h7.741Zm-1.2-8.281h-5.261c.3.88.58,1.84.86,2.9h3.4A9.581,9.581,0,0,0,1338.731,6723.847Z" fill="#fff"/>
      <path id="Path_7801" data-name="Path 7801" d="M1353.93,6730.228a1.869,1.869,0,0,1,.181.92,2.446,2.446,0,0,1-.541,1.581,2.362,2.362,0,0,1-1.36.82v-.461a2.107,2.107,0,0,0,1.1-.739,2.161,2.161,0,0,0,.3-1.181,1.248,1.248,0,0,1-.36.04.649.649,0,0,1-.46-.2.638.638,0,0,1-.2-.46.605.605,0,0,1,.16-.5.684.684,0,0,1,.52-.181A.751.751,0,0,1,1353.93,6730.228Z" fill="#fff"/>
      <path id="Path_7802" data-name="Path 7802" d="M1261.112,6769.41h-.44v-1.461h-14.8v1.461h-.439v-16.183h15.683Zm-.44-1.881v-13.882h-5.061v8.521c0,.561.3.841.94.841h3.04v.42h-3.06c-.9,0-1.34-.42-1.34-1.24v-8.542h-4v4.84a6.367,6.367,0,0,1-3.421,5.881l-.321-.279a6.046,6.046,0,0,0,3.3-5.6v-4.84h-4.881v13.882Z" fill="#fff"/>
      <path id="Path_7803" data-name="Path 7803" d="M1273.05,6755.467v-2.421c-1.96.12-4.081.2-6.361.2l-.16-.42a67.039,67.039,0,0,0,12.943-1.06l.2.36a45.771,45.771,0,0,1-6.181.88v2.461h8.222v.44h-8.222v.76a39.081,39.081,0,0,1,4.921,1.7,29.246,29.246,0,0,1,3.481,1.7l-.16.4a29.459,29.459,0,0,0-3.7-1.881,36.73,36.73,0,0,0-4.541-1.54v3.861h4.341v.42a34.5,34.5,0,0,1-3.9,2.24v1.321h7.382v.42h-7.382v3.22a.923.923,0,0,1-1.02,1.061h-2.781l-.1-.441c.82.021,1.74.04,2.74.04.48,0,.74-.28.74-.8v-3.081h-8.3v-.42h8.3v-1.561a29.291,29.291,0,0,0,3.521-2h-8.782v-.42h4.8v-5h-.32q-1.83,2.76-7.822,4.8l-.24-.4c3.881-1.241,6.422-2.721,7.6-4.4h-7.442v-.44Z" fill="#fff"/>
      <path id="Path_7804" data-name="Path 7804" d="M1293.71,6761.788a9.468,9.468,0,0,1-.5,2.1h8.222v.439h-8.4a8.069,8.069,0,0,1-1.9,2.681c-1.28,1.18-3.5,2.1-6.7,2.781l-.18-.42q4.531-.9,6.541-2.64a6.8,6.8,0,0,0,1.761-2.4h-7.422v-.439h7.6a11.494,11.494,0,0,0,.54-2.141Zm-3.3-7.821a15.438,15.438,0,0,0-1.2-2.381l.42-.08a15.649,15.649,0,0,1,1.221,2.461h4.821a9.391,9.391,0,0,0,1.14-2.561l.42.06a9.043,9.043,0,0,1-1.12,2.5h5.1v.439h-7.722v2.761h6.7v.44h-6.7v2.8h8.4v.44h-17.243v-.44h8.4v-2.8h-6.621v-.44h6.621v-2.761h-7.722v-.439Zm11.9,15.5-.24.36a43.171,43.171,0,0,0-8.642-3.761l.261-.38A47.133,47.133,0,0,1,1302.312,6769.47Z" fill="#fff"/>
      <path id="Path_7805" data-name="Path 7805" d="M1309.869,6766.289a15.578,15.578,0,0,1-5.241,3.061l-.24-.38a15.264,15.264,0,0,0,5.182-2.981Zm9.582-13.9v5.021h-6.462c.221.52.441,1.1.641,1.741h8.222v.4h-17.163v-.4h8.5a12.316,12.316,0,0,0-.66-1.741h-5.421v-5.021Zm-.14,8.8v3.541h-5.641v3.821a.968.968,0,0,1-1.08,1.1h-2.261l-.1-.419c.759.02,1.5.04,2.2.04a.725.725,0,0,0,.8-.821v-3.72h-5.9v-3.541Zm-.3-6.561v-1.821h-11.462v1.821Zm0,.439h-11.462v1.9h11.462Zm-.14,6.562h-11.1v2.7h11.1Zm3.241,7.321-.121.4a22.554,22.554,0,0,0-5.5-2.961l.2-.36A20.748,20.748,0,0,1,1322.112,6768.949Z" fill="#fff"/>
      <path id="Path_7806" data-name="Path 7806" d="M1330.989,6757.067v.36a17.467,17.467,0,0,1-6.441,10.043l-.26-.361a17.223,17.223,0,0,0,6.261-9.6h-5.841v-.44Zm9.842-1.78a29.458,29.458,0,0,1-5.18,5.081,19.945,19.945,0,0,0,6.6,6.961l-.261.38a20.742,20.742,0,0,1-8.341-10.822v11.423a1.181,1.181,0,0,1-1.34,1.32h-2.561l-.08-.42c.88.02,1.7.04,2.481.04a.937.937,0,0,0,1.06-1.041v-16.7h.44v4.121a21.48,21.48,0,0,0,1.8,4.381,28.78,28.78,0,0,0,5.022-4.961Z" fill="#fff"/>
      <path id="Path_7807" data-name="Path 7807" d="M1345.708,6764.789a18.644,18.644,0,0,1-.9,4.8l-.4-.12a18.727,18.727,0,0,0,.88-4.721Zm5.581-1.381-.38.16c-.16-.54-.32-1.04-.48-1.52a39.073,39.073,0,0,1-5.541,1.24l-.14-.439a.806.806,0,0,0,.22-.141,26.954,26.954,0,0,0,3.581-5.06c-1.4.279-2.681.479-3.881.639l-.12-.42a.564.564,0,0,0,.2-.179,26.51,26.51,0,0,0,3.08-6.123l.4.161a26.568,26.568,0,0,1-3.12,6.1,28.352,28.352,0,0,0,3.7-.639c.44-.8.92-1.662,1.4-2.561l.38.14c-2.16,4.041-3.9,6.741-5.2,8.061a35.3,35.3,0,0,0,4.921-1.16c-.279-.82-.58-1.561-.88-2.24l.38-.12A28.194,28.194,0,0,1,1351.289,6763.408Zm-2.86,5.562-.44.04a32.623,32.623,0,0,0-.42-4.461l.42-.04A33.281,33.281,0,0,1,1348.429,6768.97Zm2.82-1.4-.38.161a27.568,27.568,0,0,0-1.18-3.461l.4-.14A28.567,28.567,0,0,1,1351.249,6767.569Zm7.042-8.462.48-2.22h-6.081l1.52-5.5.42.06-.479,1.7h5.72v.219l-1.14,5.741h3.22v.42h-4.92v9.042c0,.681-.34,1.04-.98,1.04h-1.961l-.08-.42c.641.041,1.28.061,1.881.061.46,0,.7-.261.7-.761v-8.962h-5.121v-.42Zm-3,5.862a12.216,12.216,0,0,1-3.56,3.14l-.22-.4a11.166,11.166,0,0,0,3.62-3.141Zm-.259-1.761-.241.36a12.568,12.568,0,0,0-2.881-1.68l.221-.36A14.828,14.828,0,0,1,1355.031,6763.208Zm4.44-9.622h-5.44l-.8,2.861h5.641Zm3.02,14.363-.239.361a17.439,17.439,0,0,0-3.881-3.381l.241-.34A21.16,21.16,0,0,1,1362.491,6767.949Zm-.939-6.421a7.717,7.717,0,0,1-2.761,2.021l-.219-.341a7.338,7.338,0,0,0,2.639-1.96Z" fill="#fff"/>
      <path id="Path_7808" data-name="Path 7808" d="M1379.251,6752.606v8.382a32.028,32.028,0,0,0,.4,6.641c.259.94.58,1.421.979,1.421q.751-.031,1.2-3.721l.38.16a12.126,12.126,0,0,1-.721,3.281c-.219.46-.5.7-.82.7-.64,0-1.12-.58-1.4-1.721a29.9,29.9,0,0,1-.481-6.761v-7.962h-12.423v7.442a22.9,22.9,0,0,1-1.74,9.181l-.3-.259a22.874,22.874,0,0,0,1.62-8.922v-7.862Zm-1.92,3.121v.42h-4.541v2.7h3.8v5.18h-3.8v4.1a21.417,21.417,0,0,0,3.5-.78,20.5,20.5,0,0,0-1.12-2.021l.38-.12a23.359,23.359,0,0,1,2.061,4.061l-.4.14c-.24-.6-.5-1.161-.74-1.68a45.378,45.378,0,0,1-8.8,1.3l-.12-.42q2.76-.18,4.8-.42v-4.161h-3.781v-5.18h3.781v-2.7h-4.522v-.42Zm-4.981,3.56h-3.361v4.3h3.361Zm3.82,0h-3.38v4.3h3.38Z" fill="#fff"/>
      <path id="Path_7809" data-name="Path 7809" d="M1393.49,6751.586v7.941h8.381v.441h-6.18v7.762c0,.66.36,1,1.1,1h2.8a2,2,0,0,0,1.44-.42c.361-.4.581-1.58.7-3.541l.4.14c-.1,1.941-.36,3.16-.8,3.681a2.08,2.08,0,0,1-1.66.58h-3.02a1.214,1.214,0,0,1-1.38-1.36v-7.842h-4.222v.3a10.663,10.663,0,0,1-1.519,6,10.027,10.027,0,0,1-4.962,3.3l-.24-.359a9.841,9.841,0,0,0,4.921-3.3,10.506,10.506,0,0,0,1.361-5.641v-.3h-5.922v-.441h8.362v-7.941Zm-3.641,5.981-.38.18a37.94,37.94,0,0,0-3.04-4.741l.4-.2A36.41,36.41,0,0,1,1389.849,6757.567Zm10.282-4.721a25.492,25.492,0,0,1-2.84,4.9l-.381-.18a28.651,28.651,0,0,0,2.8-4.9Z" fill="#fff"/>
      <path id="Path_7810" data-name="Path 7810" d="M1404.788,6756.527l-.28-.34a9.081,9.081,0,0,0,3.36-4.541l.441.04a8.682,8.682,0,0,1-1,2.18h13.863v.441h-14.163A10.641,10.641,0,0,1,1404.788,6756.527Zm3.321-.74v2.941h3.26v-2.941h.441v2.941h3.3v-2.941h.42v2.941h3.26v-2.941h.441v2.941h2.32v.44h-2.32v4.24h2.58v.42h-17.084v-.42h2.961v-4.24h-2.681v-.44h2.681v-2.941Zm-.241,9.762a18.032,18.032,0,0,1-2.5,4.14l-.36-.24a16.286,16.286,0,0,0,2.461-4.08Zm3.5-2.141v-4.24h-3.26v4.24Zm.721,6.161-.421.08a29.992,29.992,0,0,0-.979-3.96l.42-.1C1411.47,6766.81,1411.81,6768.13,1412.09,6769.569Zm3.021-6.161v-4.24h-3.3v4.24Zm1.58,6.041-.441.08a21.74,21.74,0,0,0-1.34-3.96l.42-.1A31.947,31.947,0,0,1,1416.691,6769.449Zm2.1-6.041v-4.24h-3.26v4.24Zm3.08,5.962-.359.239a35.094,35.094,0,0,0-2.861-4.22l.34-.2A31.809,31.809,0,0,1,1421.871,6769.37Z" fill="#fff"/>
      <path id="Path_7811" data-name="Path 7811" d="M1430.77,6752.706v.38a63.481,63.481,0,0,1-2.341,6.1,8.135,8.135,0,0,1,2.181,4.76,1.921,1.921,0,0,1-.681,1.561,4.939,4.939,0,0,1-2.8.58l-.139-.441c.08,0,.16.021.24.021a5.662,5.662,0,0,0,2.341-.46,1.408,1.408,0,0,0,.62-1.261c0-1.4-.761-2.98-2.242-4.7a51.1,51.1,0,0,0,2.361-6.1h-4.5v16.583h-.441v-17.024Zm1.92,16.024a27.155,27.155,0,0,0,4.461-1.7l.08.441a35.734,35.734,0,0,1-5.161,1.84l-.121-.4c.2-.04.3-.119.3-.239v-15.884h8.082v7.762h-7.641Zm7.2-15.5h-7.2v3.26h7.2Zm-7.2,6.9h7.2v-3.221h-7.2Zm9.022,2.12a10.035,10.035,0,0,1-3.561,2.86,12.8,12.8,0,0,0,4.261,4.041l-.24.34a13.693,13.693,0,0,1-6.021-7.381l.339-.22a16.542,16.542,0,0,0,1.421,2.861,9.829,9.829,0,0,0,3.481-2.8Z" fill="#fff"/>
      <path id="Path_7812" data-name="Path 7812" d="M1454.87,6759.067a2.154,2.154,0,0,1,0,3.141,2.254,2.254,0,0,1-1.6.641,2.224,2.224,0,0,1-1.6-.641,2.018,2.018,0,0,1-.68-1.56,2.073,2.073,0,0,1,.68-1.6,2.2,2.2,0,0,1,1.6-.62A2.17,2.17,0,0,1,1454.87,6759.067Zm-2.881.34a1.578,1.578,0,0,0-.519,1.241,1.633,1.633,0,0,0,.519,1.24,1.786,1.786,0,0,0,1.281.48,1.9,1.9,0,0,0,1.28-.5,1.666,1.666,0,0,0,.521-1.22,1.712,1.712,0,0,0-.521-1.241,1.813,1.813,0,0,0-1.28-.5A1.719,1.719,0,0,0,1451.989,6759.407Z" fill="#fff"/>
    </g>
  </g>
</svg>
