<?xml version="1.0" encoding="utf-8"?>
<!-- Generator: Adobe Illustrator 24.0.3, SVG Export Plug-In . SVG Version: 6.00 Build 0)  -->
<svg version="1.1" id="圖層_1" xmlns="http://www.w3.org/2000/svg" xmlns:xlink="http://www.w3.org/1999/xlink" x="0px" y="0px"
	 viewBox="0 0 604.4 84" style="enable-background:new 0 0 604.4 84;" xml:space="preserve">
<style type="text/css">
	.st0{fill:#B78E66;}
	.st1{fill:#6A2259;}
	.st2{fill:#42526C;}
</style>
<g id="section7_title" transform="translate(-267.807 -127.54)">
	<rect id="Rectangle_177" x="428.7" y="187.9" class="st0" width="443.5" height="21.2"/>
	<g id="Group_1610" transform="translate(3.015 -12202.258)">
		<path id="Path_8116" class="st1" d="M287,12341.8c-0.6,8.3-3.2,12.6-18.9,14.5c-0.7-2.2-1.8-4.3-3.4-6.1c12.7-1,14.4-3.1,14.8-8.4
			h-7v6.3h-7.1v-12.9h18c-0.4-1.2-0.9-2.3-1.2-3.3l7.8-2.1c0.8,1.6,1.6,3.7,2.4,5.5h17.8v12h-7.5v-5.5h-5.5v5c0,1.3,0.2,1.9,1.8,1.9
			h6.8c1.7,0,3.5-0.1,5.2-0.4c0.1,1.9,0.4,4.7,0.6,6.4c-1.8,0.4-3.7,0.6-5.6,0.5h-7.2c-7,0-8.9-2.2-8.9-8.5v-4.9L287,12341.8z
			 M292,12370h18.2v6.8h-44.6v-6.8h18.7v-6.5h-12.5v-6.7h33.4v6.7H292L292,12370z"/>
		<path id="Path_8117" class="st1" d="M358.8,12338.9v26h-7.6v-2.3h-9.7v15.3h-7.7v-15.3h-9.6v2.6h-7.3v-26.2h16.9v-8.6h7.7v8.6
			H358.8z M333.8,12355.4v-9.4h-9.6v9.4H333.8z M351.1,12355.4v-9.4h-9.7v9.4H351.1z"/>
		<path id="Path_8118" class="st1" d="M389.6,12348.4c-0.5,7.7-1.6,13.8-3.5,18.6c3.7,3.1,8.5,4,14,4c2,0,8.9,0,11.4,0
			c-1,1.8-1.6,3.8-2,5.8h-9.8c-6.5,0-11.9-1-16.1-4.4c-1.4,2.1-3.1,4-5.2,5.4c-1.2-1.5-2.6-2.8-4.1-4v4H368v-23.8
			c-0.5,0.7-1,1.3-1.4,1.9c-0.8-2.7-1.9-5.4-3.1-8c3.3-4.4,6.2-11,7.9-17.6l6.5,1.9l-0.2,0.9h11.6c-1.4,4.7-3.1,10.1-4.8,14.7h0.6
			l1-0.1L389.6,12348.4z M374.3,12373.2c2.1-1.4,3.8-3.3,5.1-5.5c-1.8-2.8-3.1-5.9-4-9.1l5-1.8c0.4,1.5,1,3.1,1.7,4.5
			c0.7-2.7,1.2-5.4,1.5-8.1H376c1.5-3.8,3.3-9,4.8-14h-4v-4.1c-0.8,2.3-1.6,4.7-2.6,7L374.3,12373.2z M395.5,12338.9h-4.8v-5.1h4.8
			v-3.5h5.9v3.5h7v6.5h2.5v5.2h-2.5v6.7h-7v1.4h7.3v5.6h-7.3v1.5h8.5v5.6h-8.5v3.7h-5.9v-3.7h-6v-5.6h6v-1.5h-5v-5.6h5v-1.4h-4.8
			v-5.1h4.8v-1.6h-6.9v-5.2h6.9V12338.9z M401.4,12338.9v1.4h1.6v-1.4H401.4z M403,12345.5h-1.6v1.6h1.6V12345.5z"/>
		<path id="Path_8119" class="st1" d="M461.1,12348.2c-2.4,3.8-5.2,7.3-8.5,10.5v10.7c0,3.9-0.7,6-3.1,7.2
			c-2.4,1.2-5.6,1.4-10.3,1.4c-0.5-2.6-1.3-5.2-2.5-7.6c-5.6,3-11.5,5.4-17.6,7.2c-1.5-2.3-3.1-4.6-5-6.7c6.7-1.6,13.1-4,19.2-7.2
			c-6.2,0.5-12,0.8-16.7,1.2l-0.7-6.4c1.9-0.1,4-0.2,6.2-0.3v-23.2h10.5c0.5-1.6,1-3.2,1.4-4.8l9,0.9c-0.6,1.4-1.4,2.7-2.1,4h11.8
			v11.9c0.5-0.7,0.9-1.3,1.3-2.1L461.1,12348.2z M429.6,12341.2v2h15.5v-2H429.6z M445.1,12348.3h-15.5v2.1h15.5V12348.3z
			 M429.6,12357.7c4.5-0.3,9.4-0.6,14.1-0.9c0.5-0.5,1-0.8,1.5-1.2v-0.1h-15.5L429.6,12357.7z M445.1,12365.1
			c-2.6,1.9-5.4,3.7-8.3,5.2c2.6,0.2,6,0.1,7,0.1c1,0,1.3-0.3,1.3-1.1V12365.1z"/>
		<path id="Path_8120" class="st1" d="M521.8,12371.1v5.7h-36.1v-5.7H500v-2.3h-11.1v-5.7H500v-2.1c-7,0.6-8.8,0.9-10.1,1.4
			c-0.4-1.3-1.4-4.4-2.1-6.1c1.1-0.3,2.1-0.8,3-1.5c0.4-0.3,1.1-0.8,1.9-1.5h-5.1c-0.3,8.2-1.8,18-5.8,24.6c-2-1.5-4.3-2.7-6.6-3.7
			c4.9-7.6,5.2-18.9,5.2-26.8v-14.8h39.3v13.5h-32v1.6h33.2v5.7h-6.4c2.4,1.9,4.7,3.9,6.8,6.2l-5.8,3.5c-0.8-1-1.6-1.9-2.5-2.8
			l-5.9,0.4v2.7h11.3v5.7h-11.3v2.3L521.8,12371.1z M487.7,12338.3v1.9h24.6v-1.9H487.7z M501.7,12353.2c-0.9,0.8-1.7,1.5-2.6,2.2
			l8.3-0.4l-1.1-0.8l1.7-1H501.7z"/>
		<path id="Path_8121" class="st1" d="M538.9,12339.7v29c0,3.5-0.6,5.4-2.6,6.5s-4.9,1.3-8.7,1.3c-0.4-2.4-1.1-4.8-2.1-7.1
			c2.1,0.1,4.5,0.1,5.3,0.1s1-0.2,1-1v-28.8h-6.4v-6.8h18.5v6.8H538.9z M564.7,12367.7c3.2,1.7,6.2,3.7,9.1,5.8l-5.8,4.2
			c-3-2.5-6.2-4.7-9.5-6.7l4.7-3.4h-10.6l4.7,3.3c-3.9,2.9-8.3,5.1-12.9,6.7c-1.3-1.8-2.8-3.5-4.4-5c3.7-1.2,7.2-2.9,10.5-5h-4.3
			v-26.8h7.7c0.2-0.9,0.3-1.9,0.5-2.8h-9.7v-6.1h28v6.1h-10.2c-0.3,1-0.7,1.8-1.1,2.8h9.8v26.8L564.7,12367.7z M552.9,12348.3H564
			v-2.2h-11.1V12348.3z M552.9,12355.4H564v-2.2h-11.1V12355.4z M552.9,12362.5H564v-2.2h-11.1V12362.5z"/>
		<path id="Path_8122" class="st1" d="M594.6,12334.4h3.8v6.8h-3.8v4h-5.9l6,1.9c-1,2.1-2.2,4-3.5,6v24.9H584v-16
			c-1.1,1.1-2.2,2.1-3.3,3c-1.8-1.9-3.8-3.6-6-5.2c5.5-3.8,9.8-9,12.7-15v-3.5h-10.9v-6.8h10.9v-4.1h7.2L594.6,12334.4z
			 M614,12370.6c1.8,0,2.2-1.2,2.5-7.2c2,1.3,4.2,2.3,6.5,2.9c-0.8,8.5-2.6,11-8.3,11H608c-6.6,0-8.3-2.1-8.3-9.2v-22h7.2v6.5h14.8
			v6.8h-14.8v8.7c0,2.3,0.2,2.5,2.2,2.5H614z M604,12341.2h-4v-6.8h4v-4.1h7.3v4.1h10.5v6.8h-10.5v4H604V12341.2z"/>
		<path id="Path_8123" class="st1" d="M670.9,12332.1v45.8h-7.1v-1.7h-29.6v1.7h-6.8v-45.8H670.9z M663.8,12369.8v-31.2h-29.6v31.2
			h6.5c-0.3-1.2-0.8-2.3-1.5-3.3c0.8-0.4,1.5-0.9,1.5-2.8v-0.7c-1.1,0.4-2.1,0.8-3.2,1c-1-1.4-2.1-2.7-3.3-3.9
			c2.8-0.6,5.5-1.4,8.2-2.4h-4.7v-7.1h23v7.1h-10.1c-1.5,1.2-3.1,2.2-4.8,3.1v3.1l5.5-1.1c-0.2,1.4-0.2,2.8,0,4.2
			c-6.9,1.6-9.1,2.2-10.2,2.7L663.8,12369.8z M662.5,12349.6h-27.1v-3.9h10.2v-1.2h-8.1v-3.8h8.1v-1.7h6.5v1.7h8.6v3.8h-8.6v1.2
			h10.3L662.5,12349.6z M654.4,12354.8v-1.2h-10.7v1.2H654.4z M663.5,12360.7c-1.1,0.8-2.3,1.6-3.5,2.4c1.3,0.9,2.5,1.8,3.7,2.8
			l-4.6,2.7c-3.5-3.1-7.2-5.9-11.1-8.4l4.3-2.3c1.2,0.8,2.6,1.7,4,2.6c1.1-0.7,2.1-1.6,3.1-2.5L663.5,12360.7z"/>
	</g>
	<g id="Group_1611" transform="translate(3.015 -12202.258)">
		<path id="Path_8124" class="st2" d="M269.4,12400.7c0.9,0.2,1.7,0.4,2.5,0.7c0.8,0.2,1.2,0.5,1.2,0.7c0,0.3-0.2,0.5-0.7,0.5
			c-0.4,0.1-0.7,0.2-0.8,0.3c-0.2,0.3-0.4,0.6-0.6,0.9h4.3c0-1.3-0.1-2.5-0.3-3.8c0.8,0.1,1.9,0.3,3.1,0.5c1,0.2,1.5,0.3,1.5,0.5
			c0,0.3-0.3,0.5-0.9,0.8c-0.3,0.1-0.6,0.3-0.6,0.7v1.3h3c0.3-0.3,0.6-0.6,0.9-1c0.7-0.9,1.2-1.4,1.4-1.4c0.2,0,0.9,0.5,2,1.5
			c0.7,0.6,1,1,1,1.1c0,0.3-0.2,0.4-0.6,0.4h-7.7v3.1h2.5c0.3-0.3,0.6-0.7,0.9-1.1c0.6-0.8,1-1.2,1.1-1.2c0.3,0,0.9,0.4,1.6,1.2
			c0.7,0.8,1.1,1.3,1.1,1.5c0,0.3-0.2,0.4-0.5,0.4h-6.7v3.4h5.1c0.4-0.3,0.7-0.7,1-1.1c0.7-0.8,1.1-1.3,1.2-1.3
			c0.4,0,0.9,0.4,1.7,1.2c0.8,0.8,1.2,1.3,1.2,1.5c0,0.3-0.2,0.4-0.5,0.4h-19.5c-1.5,0-2.5,0-3.1,0.1l-0.4-1
			c1.2,0.1,2.4,0.2,3.6,0.2h6.9v-3.4h-3c-1.5,0-2.5,0-3.1,0.1l-0.4-1c1.2,0.2,2.3,0.2,3.5,0.2h3v-3.1h-4.8c-0.4,0.5-0.8,1-1.3,1.4
			c-1.1,1-2.3,1.8-3.6,2.5l-0.3-0.3c1-1,1.9-2.2,2.6-3.4C268.6,12403.4,269.1,12402,269.4,12400.7z M267.7,12390.3
			c1.2,0.4,2.4,0.8,3.6,1.3h10c0.4-0.4,0.8-0.8,1.1-1.1c0.2-0.2,0.4-0.4,0.7-0.4c0.5,0.2,1.1,0.4,1.5,0.8c0.9,0.6,1.4,1.1,1.4,1.3
			s-0.2,0.5-0.6,0.7c-0.2,0.2-0.4,0.5-0.4,0.8v2.8c0,0.8,0,2,0.1,3.5c0,0.3-0.5,0.6-1.4,0.8c-0.3,0-0.6,0.1-0.9,0.1
			c-0.5,0-0.7-0.3-0.7-0.8v-0.7h-11.4v0.3c0,0.3-0.5,0.6-1.4,0.7c-0.3,0-0.6,0.1-0.9,0.1c-0.4,0.1-0.8-0.2-0.8-0.6
			c0-0.1,0-0.1,0-0.2c0.1-0.9,0.1-1.9,0.1-2.9v-2.5C267.9,12392.9,267.9,12391.6,267.7,12390.3L267.7,12390.3z M270.9,12395.1h11.4
			v-2.8h-11.4V12395.1z M270.9,12398.5h11.4v-2.8h-11.4V12398.5z"/>
		<path id="Path_8125" class="st2" d="M303.5,12390.2c1.1,0.1,2.2,0.2,3.3,0.5c0.7,0,1,0.2,1,0.5c0,0.1-0.2,0.3-0.6,0.5
			c-0.4,0.2-0.7,0.5-0.7,0.7v1.5h5.9c0.3-0.3,0.6-0.6,0.8-0.8c0.4-0.4,0.6-0.6,0.8-0.6c0.3,0,0.8,0.4,1.7,1.1
			c0.8,0.7,1.2,1.1,1.2,1.4c0,0.2-0.2,0.3-0.6,0.4c-0.3,0-0.5,0-0.8,0.1c-1.1,0.8-2.3,1.6-3.6,2.2l-0.4-0.2c0.5-1,0.9-2,1.2-3h-4
			v4.9c0,0.6,0.1,1,0.4,1.2c1.2,0.2,2.5,0.2,3.7-0.1c0.5,0,0.7-0.4,0.9-1l0.8-1.9l0.5,0.1c0,0.7,0.1,1.5,0.2,2.2
			c0.1,0.2,0.2,0.5,0.4,0.6c0.4,0.2,0.5,0.4,0.5,0.6c0,0.4-0.2,0.9-0.5,1.1c-0.6,0.3-1.2,0.5-1.9,0.5c-0.8,0.1-1.6,0.2-2.4,0.2
			c-1.6,0-2.7,0-3.4-0.1c-0.4,0-0.8-0.2-1.1-0.5c-0.5-0.6-0.7-1.3-0.6-2v-5.8h-8.7c0,0.7-0.1,1.3-0.2,2c-0.1,0.7-0.4,1.3-0.9,1.8
			c-0.2,0.2-0.5,0.3-0.8,0.3c-0.5,0-1-0.2-1.4-0.5c-0.4-0.3-0.6-0.8-0.5-1.2c0-0.3,0.3-0.7,0.9-1.1c0.6-0.4,1.1-0.9,1.5-1.5
			c0.4-0.7,0.7-1.5,0.9-2.3l0.6,0.1c0,0.7,0,1.3,0,1.8h6.1v-1.4C303.7,12391.6,303.7,12390.9,303.5,12390.2z M296.7,12405.4
			c1.2,0.2,2.4,0.2,3.6,0.2h9.4c0.3-0.3,0.6-0.7,0.9-1c0.6-0.8,1-1.2,1.1-1.2c0.3,0,0.8,0.4,1.5,1.1c0.7,0.8,1.1,1.3,1.1,1.4
			c0,0.3-0.2,0.4-0.5,0.4h-6.9v5.8h4.7c0.3-0.4,0.7-0.7,1-1.1c0.7-0.9,1.1-1.3,1.3-1.3c0.3,0,0.9,0.4,1.7,1.2
			c0.8,0.8,1.1,1.3,1.1,1.5c0,0.3-0.2,0.4-0.5,0.4h-18.5c-1.5,0-2.5,0-3.2,0.1l-0.4-1c1.2,0.2,2.4,0.2,3.6,0.2h6.2v-5.8h-3.6
			c-1.5,0-2.5,0-3.1,0.1L296.7,12405.4z M300.2,12395.1c1,0.2,1.8,0.3,2.4,0.4c1,0.2,1.6,0.4,1.6,0.7c0,0.2-0.2,0.3-0.6,0.5
			c-0.3,0.1-0.5,0.3-0.6,0.6c-0.2,1.2-0.7,2.3-1.3,3.2c-0.6,0.7-1.3,1.3-2.2,1.8c-1.4,0.6-2.8,1.1-4.3,1.3l-0.2-0.3
			c1.1-0.5,2.2-1.2,3.1-2c0.7-0.6,1.2-1.3,1.5-2.1C300,12397.9,300.2,12396.5,300.2,12395.1L300.2,12395.1z"/>
		<path id="Path_8126" class="st2" d="M326.5,12390.1c1,0.3,2,0.5,2.9,0.8c0.9,0.3,1.3,0.6,1.3,0.9c0,0.3-0.2,0.4-0.7,0.5
			c-0.5,0.1-0.7,0.2-0.8,0.3c-0.5,1.4-1.1,2.8-1.8,4.1c0.1,0,0.1,0,0.2,0.1c0.6,0.2,0.8,0.3,0.8,0.5c0,0.3-0.2,0.5-0.5,0.7
			c-0.2,0.1-0.4,0.4-0.4,0.7v14.3c0,0.3-0.4,0.6-1.2,0.8c-0.3,0-0.5,0.1-0.8,0.1c-0.6,0-0.9-0.3-0.9-0.8c0.1-1.8,0.2-3.7,0.2-5.6
			v-6.8c-0.8,1-1.7,1.9-2.6,2.8l-0.4-0.4c1.1-1.9,2.1-3.9,2.9-5.9C325.6,12394.7,326.2,12392.4,326.5,12390.1z M329.1,12395.8
			c1.2,0.2,2.4,0.3,3.6,0.2h2.3v-1.5c0-1.7-0.1-3.1-0.2-4.4c0.8,0.1,1.8,0.2,2.9,0.4c0.8,0.1,1.2,0.3,1.2,0.5c0,0.3-0.3,0.5-0.8,0.6
			c-0.4,0.1-0.6,0.3-0.6,0.6v3.8h2.6c0.3-0.4,0.7-0.8,0.9-1.2c0.7-0.9,1.1-1.3,1.2-1.3c0.3,0,0.9,0.4,1.7,1.2
			c0.8,0.8,1.1,1.3,1.1,1.5c0,0.3-0.2,0.4-0.5,0.4H338c0.8,2.4,2,4.6,3.7,6.4c1.2,1.3,2.6,2.3,4.2,3l-0.1,0.6
			c-0.8,0.3-1.4,0.9-1.8,1.6c-0.2,0.6-0.4,0.9-0.6,0.9c-0.3,0-0.8-0.5-1.7-1.6c-1-1.4-1.9-2.8-2.5-4.4c-0.6-1.6-1.2-3.1-1.6-4.8
			v14.2c0,0.3-0.4,0.6-1.2,0.8c-0.2,0-0.5,0.1-0.7,0.1c-0.6,0-0.9-0.3-0.9-0.8c0.1-1.5,0.2-3,0.2-4.3v-6.9c-0.6,1.1-1.3,2.1-2.1,3.1
			c-1.4,1.8-3,3.3-4.9,4.5l-0.1-0.3c1.4-1.6,2.6-3.5,3.5-5.4c1.2-2.1,2.1-4.4,2.7-6.8h-1.5c-1.5,0-2.5,0-3.1,0.1L329.1,12395.8z"/>
		<path id="Path_8127" class="st2" d="M351.9,12390.2c1.1,0.3,2.2,0.6,3.2,1.1h2.6c0.4-0.4,0.7-0.8,1.1-1.1c0.2-0.2,0.4-0.4,0.7-0.4
			c0.5,0.1,1.1,0.4,1.5,0.7c0.9,0.6,1.4,1,1.4,1.3c0,0.2-0.2,0.4-0.7,0.7c-0.3,0.1-0.4,0.4-0.5,0.7v1.8c0,0.8,0,1.9,0.1,3.2
			c0,0.3-0.4,0.6-1.3,0.7c-0.3,0-0.6,0.1-0.8,0.1c-0.5,0-0.7-0.3-0.7-0.8v-0.2h-3.6v14.9c0,0.3-0.4,0.6-1.2,0.8
			c-0.3,0-0.5,0.1-0.8,0.1c-0.6,0-0.9-0.3-0.9-0.8c0.1-1.8,0.2-3.4,0.2-4.8v-13.4C352.1,12393.4,352,12391.9,351.9,12390.2z
			 M354.8,12394.3h3.6v-2.2h-3.6V12394.3z M354.8,12397.3h3.6v-2.3h-3.6V12397.3z M357.4,12399.1c1,0.3,1.9,0.6,2.8,1.1h3.9
			c0.2-0.2,0.4-0.4,0.5-0.7c0.4-0.5,0.7-0.8,0.9-0.8c0.6,0.2,1.1,0.5,1.5,0.9c0.7,0.6,1.1,1,1.1,1.2c0,0.2-0.2,0.4-0.5,0.7
			c-0.5,0.3-0.7,0.6-0.7,0.8v7.7c0.7,0.2,1.5,0.3,2.2,0.3c0.4,0,0.6-0.3,0.6-0.8v-11.3h-3.7c-0.1,0.3-0.5,0.5-1.3,0.6
			c-0.3,0-0.6,0.1-0.8,0.1c-0.4,0-0.7-0.2-0.8-0.6c0-0.1,0-0.1,0-0.2c0.1-0.9,0.1-1.8,0.1-2.7v-1.3c0-1.3-0.1-2.5-0.2-3.8
			c1.2,0.3,2.3,0.7,3.4,1.2h2.8c0.2-0.2,0.4-0.4,0.6-0.7c0.5-0.5,0.8-0.8,1-0.8c0.6,0.2,1.2,0.5,1.7,1c0.8,0.6,1.2,1,1.2,1.3
			c0,0.2-0.2,0.4-0.6,0.8c-0.5,0.3-0.7,0.7-0.7,1v16.9c0,1-0.6,1.8-1.5,2.2c-0.6,0.4-1.3,0.6-2,0.6c-0.2,0-0.3-0.4-0.5-1.1
			c-0.3-0.8-0.9-1.5-1.8-1.9c-0.1,0.7-0.6,1.3-1.3,1.5c-0.5,0.3-1.1,0.4-1.8,0.5c-0.2,0-0.3-0.3-0.5-0.9c-0.2-0.7-0.9-1.3-2.3-1.8
			l0.1-0.4c0.9,0.2,1.7,0.3,2.6,0.3c0.4,0,0.5-0.2,0.5-0.7v-2.3h-4.4c0,0.3,0,0.6-0.1,0.9c-0.1,0.6-0.3,1.2-0.6,1.8
			c-0.3,0.6-0.7,1.1-1.2,1.6c-0.7,0.6-1.4,1.1-2.3,1.4l-0.3-0.3c0.4-0.5,0.8-1,1.1-1.5c0.3-0.6,0.5-1.2,0.6-1.9
			c0.3-1.9,0.4-3.8,0.3-5.8C357.5,12401.2,357.4,12399.9,357.4,12399.1L357.4,12399.1z M360,12406.2h4.4v-2.2H360
			C360,12404.9,360,12405.6,360,12406.2L360,12406.2z M360,12403.3h4.4v-2.3H360V12403.3z M366.1,12394.3h3.7v-2.2h-3.7V12394.3z
			 M366.1,12397.4h3.7v-2.3h-3.7V12397.4z"/>
		<path id="Path_8128" class="st2" d="M379.9,12392c1.2,0.3,2.4,0.8,3.5,1.3h0.5c0.4-0.4,0.7-0.8,1-1.1c0.2-0.2,0.4-0.4,0.7-0.4
			c0.5,0.1,0.9,0.3,1.3,0.6c0.8,0.5,1.2,0.9,1.2,1.1c0,0.3-0.2,0.6-0.5,0.7c-0.2,0.2-0.3,0.5-0.3,0.7v8.5c0,0.8,0,1.9,0.1,3.2
			c0,0.3-0.4,0.6-1.3,0.7c-0.3,0-0.5,0.1-0.8,0.1c-0.5,0-0.7-0.3-0.7-0.8v-0.9h-1.7v1.6c0,0.3-0.4,0.6-1.2,0.8
			c-0.3,0-0.5,0.1-0.8,0.1c-0.4,0.1-0.8-0.2-0.8-0.6c0-0.1,0-0.1,0-0.2c0.1-0.9,0.1-1.7,0.1-2.6v-9.2
			C380.1,12394.4,380,12393.2,379.9,12392z M382.8,12405.1h1.8v-11.1h-1.8L382.8,12405.1z M399.6,12390.4c0.5,0.2,1,0.4,1.4,0.7
			c0.9,0.6,1.3,1,1.3,1.2c0,0.3-0.2,0.6-0.5,0.8c-0.2,0.2-0.4,0.5-0.4,0.8v5.9c0,0.8,0,1.9,0.1,3.4c0,0.3-0.5,0.6-1.4,0.8
			c-0.3,0-0.6,0.1-0.9,0.1c-0.5,0-0.7-0.3-0.7-0.8v-0.9h-7.1v6.5c0,0.9,0.2,1.5,0.5,1.6c1.3,0.3,2.7,0.4,4.1,0.3
			c1.8,0,2.8-0.1,3.1-0.4c0.4-0.2,0.6-0.6,0.7-1.4l0.9-3l0.6,0.1c0,1,0.1,2,0.2,3c0,0.5,0.4,1,0.8,1.3c0.4,0.2,0.6,0.5,0.6,0.7
			c0.1,0.6-0.3,1.2-0.8,1.4c-0.5,0.2-1,0.4-1.5,0.4c-1.6,0.2-3.2,0.3-4.8,0.3c-1.9,0.1-3.8,0-5.6-0.3c-0.6-0.1-1.1-0.5-1.4-1
			c-0.2-0.6-0.3-1.2-0.3-1.8v-15.8c0-1.1-0.1-2.2-0.2-3.2c1.1,0.3,2.1,0.6,3.1,1.1h6.2c0.4-0.5,0.7-0.9,1-1.2
			C399.1,12390.6,399.3,12390.4,399.6,12390.4L399.6,12390.4z M391.4,12392.7v8.7h2.2v-8.7H391.4z M396.4,12401.5h2.1v-8.7h-2.1
			V12401.5z"/>
	</g>
</g>
</svg>
