<svg xmlns="http://www.w3.org/2000/svg" width="170.422" height="118.818" viewBox="0 0 170.422 118.818">
  <g id="section4_txt2" transform="translate(-1244.883 -985.407)">
    <g id="Group_1564" data-name="Group 1564" transform="translate(0.015 -4569.432)">
      <path id="Path_7750" data-name="Path 7750" d="M1248.931,5556.9q1.447.379,2.793.787,1.295.381,1.3.812t-.737.533q-.711.127-.787.28-.381.99-.812,1.853h4.367v-2.031a26.023,26.023,0,0,0-.305-4.19q1.219.153,3.123.508,1.549.229,1.549.508,0,.432-.863.762a.676.676,0,0,0-.559.66v3.783h3.25a8.513,8.513,0,0,0,.864-.965q1.116-1.37,1.472-1.371.33,0,1.955,1.473.964.914.965,1.142,0,.406-.584.407h-7.922v6.627h2.539a9.7,9.7,0,0,0,.94-1.143q1.016-1.32,1.193-1.32.507,0,1.676,1.244t1.168,1.523q0,.382-.533.381h-6.983v7.516h4.774a11.286,11.286,0,0,0,1.015-1.168q1.117-1.347,1.295-1.346.584,0,1.752,1.27,1.219,1.269,1.219,1.549,0,.431-.533.431h-19.069q-2.235,0-3.148.1l-.432-1.016a27.185,27.185,0,0,0,3.58.178h6.6v-7.516h-3.885q-2.208,0-3.148.1l-.406-1.016a20.9,20.9,0,0,0,3.554.229h3.885v-6.627h-4.7a15.312,15.312,0,0,1-1.346,2.158,22.554,22.554,0,0,1-3.529,3.834l-.381-.381a31.762,31.762,0,0,0,2.412-4.9A32.538,32.538,0,0,0,1248.931,5556.9Z" fill="#bb9167"/>
      <path id="Path_7751" data-name="Path 7751" d="M1270.767,5561.542a10.252,10.252,0,0,1,3.351,1.346,1.974,1.974,0,0,1,.178,3.047,1.5,1.5,0,0,1-1.168.507q-.533,0-.914-1.168a8.812,8.812,0,0,0-1.752-3.2Zm7.033-.914.482.1q-1.269,5.281-1.929,8.226a24.724,24.724,0,0,0-.584,3.986c0,.424.016.889.051,1.4a12.541,12.541,0,0,1,.33,2.437,1.027,1.027,0,0,1-.305.864,1.23,1.23,0,0,1-1.016.355,2.329,2.329,0,0,1-1.4-.355,1.027,1.027,0,0,1-.3-.864,6.185,6.185,0,0,1,.229-1.345,10.671,10.671,0,0,0,.076-1.092,2.576,2.576,0,0,0-.3-1.371q-.332-.534-2.031-.94l.1-.634a6.884,6.884,0,0,0,2.235-.229,2,2,0,0,0,.812-1.168Zm-4.9-5.383a10.653,10.653,0,0,1,3.529,1.371,1.875,1.875,0,0,1,.228,2.946,1.4,1.4,0,0,1-1.091.482q-.585,0-.991-1.168a8.937,8.937,0,0,0-1.878-3.2Zm18.078,2.463q-2.007.406-3.86.686v5.1h1.93a6.908,6.908,0,0,0,.94-1.142q1.014-1.3,1.193-1.295.558,0,1.7,1.218,1.167,1.219,1.168,1.5,0,.432-.533.432h-6.4v5.154h1.448a15.12,15.12,0,0,1,1.091-1.168,1.031,1.031,0,0,1,.711-.431,4.322,4.322,0,0,1,1.5.736q1.345.913,1.346,1.295c0,.237-.17.474-.508.711a1.091,1.091,0,0,0-.406.787v2.971q0,1.243.1,3.427,0,.508-1.4.762a8.724,8.724,0,0,1-.939.076q-.685,0-.686-.838v-1.015h-7.211v1.117q0,.507-1.345.762a8.735,8.735,0,0,1-.889.076.74.74,0,0,1-.838-.838q.1-1.4.1-2.818v-3.149q0-2.006-.178-3.885a27.951,27.951,0,0,1,3.808,1.422h1.371v-5.154h-2.437q-2.235,0-3.148.1l-.432-1.016a23.658,23.658,0,0,0,3.58.2h2.437v-4.7q-2.691.3-5.1.406l-.178-.609a33.675,33.675,0,0,0,6.246-1.6,19.626,19.626,0,0,0,4.418-2.158q1.243.939,2.006,1.473,1.143.813,1.143,1.168c0,.22-.145.33-.432.33Zm-8.811,18.281h7.211v-5.916h-7.211Z" fill="#bb9167"/>
      <path id="Path_7752" data-name="Path 7752" d="M1301.566,5555.042a14.325,14.325,0,0,1,2.361.457q1.269.281,1.27.559c0,.237-.17.423-.508.558q-.508.178-.508.381a12.431,12.431,0,0,1-2.869,3.25h1.65q.583-.686,1.041-1.193a1.015,1.015,0,0,1,.711-.457,4.178,4.178,0,0,1,1.422.711q1.295.888,1.3,1.218a.954.954,0,0,1-.457.711.939.939,0,0,0-.356.737v11.273q0,1.168.127,3.25,0,.481-1.32.736a6.756,6.756,0,0,1-.812.077c-.475,0-.711-.271-.711-.813v-1.219h-3.25v1.7q0,.507-1.245.736a6.681,6.681,0,0,1-.812.076.718.718,0,0,1-.813-.812q.1-1.321.1-2.641v-11.781a31.623,31.623,0,0,0-.2-3.631,17.813,17.813,0,0,1,2.92,1.041A18.69,18.69,0,0,0,1301.566,5555.042Zm-.914,11.984h3.25v-6.068h-3.25Zm0,7.516h3.25v-6.779h-3.25Zm9.115-19.7q1.4.381,2.64.762,1.245.355,1.245.761,0,.432-.686.534c-.44.067-.685.161-.736.279q-.432,1.523-.914,2.767h4.062a12,12,0,0,1,1.041-.964,1.919,1.919,0,0,1,.762-.483,3.763,3.763,0,0,1,1.549.813q1.32.965,1.32,1.422,0,.33-.686.71c-.288.17-.431.348-.431.534a86.571,86.571,0,0,1-.584,10.461q-.609,3.554-1.4,4.519a3.551,3.551,0,0,1-1.548,1.143,3.835,3.835,0,0,1-1.575.431q-.381,0-.711-1.015-.381-1.3-3.25-2.235l.127-.431q2.667.228,3.657.228.837,0,1.244-1.5a33.536,33.536,0,0,0,.609-4.722q.354-4.6.356-8.227h-4.85a18.294,18.294,0,0,1-.838,1.7,25.171,25.171,0,0,1-2.945,4.215l-.381-.432a34.273,34.273,0,0,0,1.828-5.179A48.546,48.546,0,0,0,1309.767,5554.839Zm-.406,9.674a13.25,13.25,0,0,1,3.351,2.183,2.585,2.585,0,0,1,.94,1.651,2.87,2.87,0,0,1-.686,1.955,1.642,1.642,0,0,1-1.371.787.727.727,0,0,1-.533-.229,5.434,5.434,0,0,1-.508-1.8,13.819,13.819,0,0,0-1.676-4.164Z" fill="#bb9167"/>
      <path id="Path_7753" data-name="Path 7753" d="M1327.667,5555.474a13.55,13.55,0,0,1,3.733,1.066,1.474,1.474,0,0,1,.914,1.27,1.984,1.984,0,0,1-.61,1.345,1.331,1.331,0,0,1-.33.254h3.733a14.167,14.167,0,0,0,.888-4.57q1.8.3,2.946.584,1.625.3,1.625.736,0,.281-.864.508-.66.1-.787.33a13.555,13.555,0,0,1-3.047,2.412h3.784a10.243,10.243,0,0,0,.964-1.142q1.067-1.271,1.245-1.27.558,0,1.7,1.219,1.167,1.218,1.168,1.523,0,.406-.533.407h-8.633v2.945h2.869a8.884,8.884,0,0,0,.889-1.092q.963-1.269,1.142-1.269.507,0,1.6,1.218,1.116,1.168,1.117,1.448,0,.379-.483.38h-7.134v3.047h5.383a6.886,6.886,0,0,0,.939-1.142c.693-.846,1.092-1.27,1.193-1.27q.558,0,1.7,1.219,1.167,1.218,1.167,1.5c0,.288-.177.432-.533.432h-11.426c.153.034.3.059.432.076q1.675.33,1.676.711c0,.237-.221.423-.66.558a.993.993,0,0,0-.686.686q-.179.711-.355,1.32h6.449a7.6,7.6,0,0,0,.99-1.142q1.067-1.3,1.244-1.295.558,0,1.7,1.218,1.167,1.245,1.167,1.5c0,.271-.177.407-.533.407h-9.75a9.555,9.555,0,0,0,2.768,2.056,12.694,12.694,0,0,0,2.945,1.041,29.087,29.087,0,0,0,4.774.864l-.3.634a2.756,2.756,0,0,0-1.473,1.422c-.152.61-.271.914-.355.914a9.875,9.875,0,0,1-2.336-.685,13.144,13.144,0,0,1-3.123-1.549,7.923,7.923,0,0,1-2.184-2.107,14.99,14.99,0,0,1-1.625-2.59h-.584a9.374,9.374,0,0,1-1.472,2.717,11.113,11.113,0,0,1-3.377,2.564,24.1,24.1,0,0,1-6.653,1.828l-.2-.279a23.253,23.253,0,0,0,5.561-2.717,7.955,7.955,0,0,0,2.716-2.844,5.455,5.455,0,0,0,.584-1.269h-4.875a26.309,26.309,0,0,0-3.148.127l-.432-1.016a23.667,23.667,0,0,0,3.58.2h5.079a14.23,14.23,0,0,0,.406-3.351h-5.586q-2.235,0-3.149.1l-.431-1.015a27.192,27.192,0,0,0,3.58.177h6.271v-3.047h-3.453q-2.208,0-3.148.1l-.406-1.016a20.845,20.845,0,0,0,3.554.229h3.453v-2.945h-5.052q-2.237,0-3.149.1l-.406-1.041a23.2,23.2,0,0,0,3.555.2h2.513a2.149,2.149,0,0,1-.558-.812,7.755,7.755,0,0,0-2.057-2.717Z" fill="#bb9167"/>
      <path id="Path_7754" data-name="Path 7754" d="M1351.534,5554.839q1.192.356,2.336.711,1.092.33,1.092.711t-.609.482q-.609.076-.686.254a12.992,12.992,0,0,1-2.133,3.225,18.553,18.553,0,0,1-3.072,2.64l-.279-.3a21.81,21.81,0,0,0,2.107-3.555A26.176,26.176,0,0,0,1351.534,5554.839Zm1.391,4.672q1.215.355,2.354.711,1.086.33,1.087.736a.148.148,0,0,1-.025.1c.675.05,1.468.085,2.379.1v-1.955a36.471,36.471,0,0,0-.229-4.367q1.178.1,2.971.406,1.219.178,1.219.533a.3.3,0,0,1-.127.28,8.34,8.34,0,0,1,1.65.711c.541.321.813.634.813.939a1.836,1.836,0,0,1-.635,1.447,1.182,1.182,0,0,1-.228.178,4.822,4.822,0,0,1,.964.889,4.058,4.058,0,0,1,.914,1.218c0,.271-.126.407-.38.407h-4.291v15.945q0,.507-1.18.762a6.272,6.272,0,0,1-.769.076q-.921,0-.921-.838.23-2.337.229-4.266v-11.679q-1.82.051-2.652.127l-.228-.61a.1.1,0,0,1-.076.026c-.421.068-.657.152-.707.254a18.311,18.311,0,0,1-1.466,2.869c.067.017.127.034.178.051.538.169.808.313.808.431a.754.754,0,0,1-.505.66.591.591,0,0,0-.3.584v11.655q0,.456-1.168.66a6.771,6.771,0,0,1-.787.076q-.915,0-.914-.736.228-2.718.228-5.485v-4.8a26.849,26.849,0,0,1-2.564,2.286l-.28-.305a25.985,25.985,0,0,0,2.919-4.672A26.432,26.432,0,0,0,1352.925,5559.511Zm2.57,4.469q.964.177,1.524.3c1,.2,1.5.373,1.5.508a.546.546,0,0,1-.254.508q-.508.254-.533.406a25.213,25.213,0,0,1-.559,4.723,7.969,7.969,0,0,1-1.066,2.666,3.624,3.624,0,0,1-1.955,1.549l-.1-.305a7.882,7.882,0,0,0,.889-2.209,14.362,14.362,0,0,0,.431-2.641Q1355.494,5567.814,1355.495,5563.98Zm7.948-4.469h-.026a.483.483,0,0,1-.406-.2,1.627,1.627,0,0,1-.3-.838,10.627,10.627,0,0,0-.711-2.108.2.2,0,0,1-.076.026c-.373.118-.558.322-.558.609v4.164h.736a10.227,10.227,0,0,0,.736-.914C1363.12,5559.909,1363.323,5559.663,1363.443,5559.511Zm-1.448,4.9q.939.076,2.362.279.99.153.99.407,0,.355-.609.558a.454.454,0,0,0-.407.457v4.494c0,.322.026.5.076.534a.5.5,0,0,0,.407.152.273.273,0,0,0,.254-.127,1.384,1.384,0,0,0,.152-.609q.05-.584.228-1.6h.381q.077,1.118.127,1.6a1.078,1.078,0,0,0,.356.761c.355.238.533.441.533.61a1.083,1.083,0,0,1-.229.711,1.3,1.3,0,0,1-.685.431,3.209,3.209,0,0,1-1.117.178,6.965,6.965,0,0,1-1.524-.127,1.26,1.26,0,0,1-.711-.355,2.306,2.306,0,0,1-.381-1.575v-3.96A14.463,14.463,0,0,0,1361.995,5564.411Zm8.1-3.885q.33,0,1.193,1.219a3.361,3.361,0,0,1,.864,1.447q0,.381-.407.381H1370.2v11.7a2.424,2.424,0,0,1-1.321,2.514,4.723,4.723,0,0,1-1.929.635q-.332,0-.559-.863-.355-1.245-2.793-2.108l.1-.381a26.58,26.58,0,0,0,2.97.2c.541,0,.813-.245.813-.736v-10.969h-.533q-.762,0-2.032.1l-.381-1.016a20.255,20.255,0,0,0,2.413.2h1.853c.169-.287.381-.711.635-1.269Q1369.942,5560.526,1370.095,5560.526Zm0-5.687q.33,0,1.193,1.168a3.389,3.389,0,0,1,.864,1.371q0,.432-.407.432h-4.265q-.762,0-2.032.1l-.431-1.015a24.039,24.039,0,0,0,2.463.177h1.32a13.365,13.365,0,0,0,.635-1.193Q1369.942,5554.839,1370.095,5554.839Z" fill="#bb9167"/>
      <path id="Path_7755" data-name="Path 7755" d="M1378.652,5554.94q1.243.357,2.412.711c.744.221,1.117.457,1.117.711s-.2.415-.609.483q-.636.076-.711.228a12.661,12.661,0,0,1,3.1,1.041,1.845,1.845,0,0,1,.99,1.5,1.383,1.383,0,0,1-.457.991.962.962,0,0,1-.761.355,1.644,1.644,0,0,1-1.371-1.016,7.181,7.181,0,0,0-1.879-2.209,11.715,11.715,0,0,1-2.108,2.692c-.3.305-.627.6-.965.889q1.245.126,1.956.126h1.117a6.709,6.709,0,0,0,.482-.939q.381-.762.533-.762.253,0,.864.914a2.6,2.6,0,0,1,.66,1.092q0,.432-.305.432h-3.351q-.762,0-2.032.1l-.3-.685a18.069,18.069,0,0,1-2.26,1.6l-.3-.33a19.914,19.914,0,0,0,2.641-3.656A20.391,20.391,0,0,0,1378.652,5554.94Zm-2.87,8.252a13.968,13.968,0,0,1,3.047,1.016h2.235q.405-.458.736-.838c.3-.406.541-.609.711-.609a3.454,3.454,0,0,1,1.422.711q1.218.913,1.219,1.218c0,.2-.2.432-.584.686a1.028,1.028,0,0,0-.457.736v.914l.2,4.571q0,.456-1.295.634a6.785,6.785,0,0,1-.838.077q-.585,0-.584-.711v-.2h-2.945v3.732q1.523-.179,2.894-.432a9.98,9.98,0,0,0-1.5-1.955l.2-.431a10.214,10.214,0,0,1,3.682,1.726,2.733,2.733,0,0,1,.914,2.057,1.662,1.662,0,0,1-.533,1.142,1.188,1.188,0,0,1-.914.356q-.636,0-1.143-1.27a5.742,5.742,0,0,0-.3-.812,17.149,17.149,0,0,1-4.7,2.336c-.237.034-.355.118-.355.254-.018.084-.043.194-.077.33q-.051.279-.228.279-.483,0-1.168-1.7-.2-.457-.66-1.549.71-.051,1.346-.1v-7.694A22.4,22.4,0,0,0,1375.782,5563.192Zm2.87,4.266h2.945v-2.564h-2.945Zm0,3.25h2.945v-2.564h-2.945Zm10.638-15.768a30.393,30.393,0,0,1,3.073.458c.591.017.888.177.888.482,0,.085-.17.212-.508.381-.406.186-.609.4-.609.635v1.929h1.65q.483-.456.838-.736c.338-.321.592-.483.762-.483q.381,0,1.676,1.092,1.167.915,1.168,1.346,0,.3-.61.381a1.608,1.608,0,0,0-.787.1,13.338,13.338,0,0,1-1.777,1.295c.152.119.312.238.482.356q1.3.837,1.3,1.219,0,.253-.457.558a.959.959,0,0,0-.457.559v3.834q0,.456-1.3.634a7.344,7.344,0,0,1-.838.077.64.64,0,0,1-.736-.711v-.508h-4.266v2.971h3.987a13.726,13.726,0,0,1,1.092-1.118,1.038,1.038,0,0,1,.736-.431,4.46,4.46,0,0,1,1.473.736q1.344.966,1.345,1.295c0,.237-.17.474-.508.711a.9.9,0,0,0-.406.736v1.6q0,1.192.127,3.25,0,.507-1.32.762a6.985,6.985,0,0,1-.813.076q-.711,0-.711-.838v-.914h-5v1.015q0,.508-1.218.762a6.228,6.228,0,0,1-.813.076q-.788,0-.787-.838.1-1.294.1-2.615V5565.1q0-1.269-.1-2.438a2.658,2.658,0,0,1-.736.1,1.246,1.246,0,0,1-.914-.381,1.38,1.38,0,0,1-.28-.838q0-.228,1.168-1.244a4.753,4.753,0,0,0,1.242-3.022l.529-.1a5.753,5.753,0,0,1,.73,1.65h1.79v-1.752A11.688,11.688,0,0,0,1389.29,5554.94Zm-.127,7.719h3.4q.43-.558.761-.939a1.256,1.256,0,0,1,.407-.33q.253-.939.431-1.879h-6.4a4.026,4.026,0,0,1-.584,2.336Q1388.173,5562.2,1389.163,5562.659Zm-.381,4.469h4.266V5563.4h-4.266Zm0,8.861h5V5571.5h-5Z" fill="#bb9167"/>
    </g>
    <g id="Group_1565" data-name="Group 1565" transform="translate(0.015 -4569.432)">
      <path id="Path_7756" data-name="Path 7756" d="M1253.49,5595.393v3.881h7.322v8.842h-.441v-1.5h-6.881v7.061h-.44v-7.061h-6.861v1.5h-.441v-8.842h7.3v-3.881Zm-.44,10.8v-6.482h-6.861v6.482Zm7.321,0v-6.482h-6.881v6.482Z" fill="#fff"/>
      <path id="Path_7757" data-name="Path 7757" d="M1276.651,5608.216h3.18l.141-3.581h-2.421v-.44h2.44l.121-3.3h-2.561v-.421h2.581l.119-3.5h-2.62v-.44h3.041l-.421,11.682h1.8v.44h-17.584v-.44h1.86l-.479-11.5a13.191,13.191,0,0,0,3.04-1.08l.181.38a13.209,13.209,0,0,1-2.822,1.021l.16,3.44h2.521v.421h-2.5l.16,3.3h2.36v.44h-2.34l.16,3.581h3.161v-11.7h6.721Zm-5.6,1.9a23.587,23.587,0,0,1-5.861,3.341l-.281-.32a23.7,23.7,0,0,0,5.8-3.321Zm5.161-1.9v-11.282h-5.842v11.282Zm-1.32-9.3v.42h-3.2v-.42Zm-.061,2.36v5.021h-3.08v-5.021Zm-.4.4h-2.281v4.2h2.281Zm7.441,11.5-.24.36a28.944,28.944,0,0,0-6.121-3.381l.239-.34A30.031,30.031,0,0,1,1281.872,5613.177Z" fill="#fff"/>
      <path id="Path_7758" data-name="Path 7758" d="M1293.571,5599.214a15.67,15.67,0,0,0-2.2-3.621l.421-.16a18.767,18.767,0,0,1,2.241,3.781h7.721v.44h-3.281a19.84,19.84,0,0,1-4.7,8.582,25.319,25.319,0,0,0,8.461,4.981l-.22.34a25.832,25.832,0,0,1-8.542-5,20.618,20.618,0,0,1-8.922,5.061l-.2-.38a20.173,20.173,0,0,0,8.842-4.941,19.089,19.089,0,0,1-5.241-8.642h-3.161v-.44Zm-.081,8.762a19.024,19.024,0,0,0,4.541-8.322h-9.622A18.581,18.581,0,0,0,1293.49,5607.976Z" fill="#fff"/>
      <path id="Path_7759" data-name="Path 7759" d="M1311.07,5595.613a25.188,25.188,0,0,1-2.7,4.822V5613.6h-.44v-12.582a24.716,24.716,0,0,1-3.541,3.7l-.12-.44a23.369,23.369,0,0,0,6.4-8.822Zm10.261,6.482-6.941.32v9.242c0,.74.32,1.12.98,1.12h4.021a1.719,1.719,0,0,0,1.4-.56c.281-.38.46-1.72.561-4.021l.42.1a13.25,13.25,0,0,1-.6,4.2,1.972,1.972,0,0,1-1.721.72h-4.161c-.9,0-1.34-.5-1.34-1.5v-16.224h.44v6.5l6.941-.34Z" fill="#fff"/>
      <path id="Path_7760" data-name="Path 7760" d="M1330.309,5595.793a52.8,52.8,0,0,1,5.061,3.941l-.259.3a56.661,56.661,0,0,0-4.942-3.8,26.908,26.908,0,0,1-5.7,5.041l-.24-.339a26.576,26.576,0,0,0,5.721-5.142Zm-5.761,17.644-.3-.26a15.262,15.262,0,0,0,2.2-8.442v-3.24h7.6v5.061h-7.262A15.06,15.06,0,0,1,1324.548,5613.437Zm2.341-8.7q0,.72-.061,1.381h6.8v-1.881h-6.741Zm6.741-2.8h-6.741v1.9h6.741Zm.64,11.522h-.44v-.86h-5.641v.9h-.42v-5h6.5Zm-1.361-14.343v.44h-5.081v-.44Zm.921,13.063v-3.241h-5.641v3.241Zm2.96,1.16-.079-.42c1,.02,1.98.04,2.9.04.639,0,.979-.28.979-.82v-16.684h.44v16.8q0,1.08-1.259,1.08Zm.58-16.463v13.1h-.42v-13.1Z" fill="#fff"/>
      <path id="Path_7761" data-name="Path 7761" d="M1346.989,5608.756a14.266,14.266,0,0,1-2.041,4.181l-.38-.24a12.167,12.167,0,0,0,1.98-4.021Zm-1.34-11.362v-.44h7.5a10.5,10.5,0,0,0-.88-1.64l.44-.081a12.51,12.51,0,0,1,.88,1.721h7.3v.44h-3.5l-1.141,2.4h5.6v.42h-17.164v-.42h5.422l-1-2.4Zm13.482,4.781v5.221h-11.723v-5.221Zm-.44,2.38v-1.96h-10.842v1.96Zm0,.42h-10.842v1.981h10.842Zm-2.88-5.181,1.139-2.4h-7.4l.981,2.4Zm-4.781,13.443a1.253,1.253,0,0,1-1.4-1.44V5609h.441v2.721a.96.96,0,0,0,1.1,1.08h4.661a1.847,1.847,0,0,0,1.181-.28,4.082,4.082,0,0,0,.64-2.361l.4.12a4.434,4.434,0,0,1-.7,2.561,2.1,2.1,0,0,1-1.441.4Zm4.1-2.26-.359.26a18.215,18.215,0,0,0-2.2-2.6l.339-.24A21.444,21.444,0,0,1,1355.13,5610.977Zm6.922,1.44-.34.26a25.541,25.541,0,0,0-2.781-3.721l.36-.22A28.812,28.812,0,0,1,1362.052,5612.417Z" fill="#fff"/>
      <path id="Path_7762" data-name="Path 7762" d="M1380.991,5613.557h-.44v-1.12h-14.562v1.12h-.441v-17.043h15.443Zm-.44-1.54v-15.083h-14.562v15.083Zm-3.38-8.562v2.921h-4.361a6.362,6.362,0,0,1-1.28,1.24v2.781c.959-.241,1.92-.541,2.9-.881l.08.421a27.488,27.488,0,0,1-3.541.98l-.18-.36c.2-.06.321-.14.321-.261v-2.38a16.256,16.256,0,0,1-3.421,1.56l-.241-.38c2.5-.78,4.142-1.68,4.921-2.72h-3.02v-2.921Zm-4.121-4.041v-1.56h.44v1.56h4.421v.44h-4.421v1.841h5.4v.44h-11.182v-.44h5.341v-1.841h-4.421v-.44Zm3.7,4.461h-6.981v2.061h6.981Zm1.921,3.3a17.929,17.929,0,0,1-2.52,1.52,25.323,25.323,0,0,1,2.88,1.721l-.24.339a24.661,24.661,0,0,0-5.381-2.88l.24-.36a19.669,19.669,0,0,1,2.081.96,14.186,14.186,0,0,0,2.58-1.54Z" fill="#fff"/>
      <path id="Path_7763" data-name="Path 7763" d="M1401.371,5596.614v.44h-15.1v14.463c0,.6.279.92.88.92h14.722v.44h-14.743c-.859,0-1.28-.46-1.28-1.34v-14.483h-1.28v-.44Zm-8.061,8.641v5.041h-4.8v-5.041Zm-.441.4h-3.98v4.242h3.98Zm5.762-6.541v4.061h-8.6v-4.061Zm-.42.42h-7.782v3.2h7.782Zm2.3,5.721v5.041h-4.8v-5.041Zm-.421.4h-3.961v4.242h3.961Z" fill="#fff"/>
      <path id="Path_7764" data-name="Path 7764" d="M1413.71,5604.275a19.6,19.6,0,0,1,1.58,1.881l-.38.34a18.3,18.3,0,0,0-1.58-1.881,12.749,12.749,0,0,0-2.06-1.84l.359-.36A14.13,14.13,0,0,1,1413.71,5604.275Z" fill="#fff"/>
      <path id="Path_7765" data-name="Path 7765" d="M1251.81,5639.336l-.4.1c-.12-.38-.239-.74-.359-1.06a50.052,50.052,0,0,1-5.561.74l-.14-.42a2.293,2.293,0,0,0,.22-.12,21.25,21.25,0,0,0,3.32-3.441c-1.36.14-2.62.261-3.78.341l-.12-.421a.521.521,0,0,0,.2-.159,16.035,16.035,0,0,0,2.96-4.162l.421.161a17.6,17.6,0,0,1-2.961,4.12c1.2-.079,2.4-.18,3.621-.3.559-.72,1.12-1.5,1.7-2.34l.38.12a30.526,30.526,0,0,1-5.281,6.2c1.68-.16,3.32-.4,4.88-.68a20.7,20.7,0,0,0-.9-2l.381-.12A19.012,19.012,0,0,1,1251.81,5639.336Zm-5.461.78a10.366,10.366,0,0,1-.88,3.5l-.421-.12a10.475,10.475,0,0,0,.881-3.42Zm14.423-13.7v3.54h-14.783v-3.54Zm-10.023.42h-4.341v2.7h4.341Zm-1.66,16.483-.42.08c-.12-1.24-.28-2.32-.44-3.261l.4-.1C1248.789,5641.037,1248.949,5642.137,1249.089,5643.317Zm2.82-.64-.379.16a19.771,19.771,0,0,0-.96-2.96l.419-.121C1251.329,5640.657,1251.63,5641.637,1251.909,5642.677Zm3.7-15.843h-4.421v2.7h4.421Zm-1.441,16.723h-.439v-9.542a15.506,15.506,0,0,1-1.941,2.2l-.12-.421a13.655,13.655,0,0,0,3.381-5.161l.4.08a13.34,13.34,0,0,1-1.179,2.481h3.74a17.548,17.548,0,0,0-.7-2.461l.44-.06c.24.721.481,1.561.7,2.521h3.481v.42h-3.461v2.581h3.2v.42h-3.2v2.5h3.2v.44h-3.2v2.681h3.6v.42h-7.9Zm0-9.942v2.581h3.861v-2.581Zm0,5.5h3.861v-2.5h-3.861Zm0,3.121h3.861v-2.681h-3.861Zm6.161-15.4h-4.28v2.7h4.28Z" fill="#fff"/>
      <path id="Path_7766" data-name="Path 7766" d="M1273.05,5627.534v-2.141h.44v2.141h8.362v.44h-8.362v2.7h6.541v6.522h-5.741q2.31,3.42,7.862,5.281l-.16.38c-3.961-1.4-6.7-3.3-8.181-5.661h-.321v6.441h-.44V5637.2h-.38q-1.86,3.39-8.021,5.781l-.221-.38q5.972-2.28,7.782-5.4h-5.741v-6.522h6.581v-2.7h-8.361v-.44Zm0,3.561h-6.142v2.62h6.142Zm-6.142,5.661h6.142v-2.621h-6.142Zm12.683-5.661h-6.1v2.62h6.1Zm-6.1,5.661h6.1v-2.621h-6.1Z" fill="#fff"/>
      <path id="Path_7767" data-name="Path 7767" d="M1293.571,5629.214a15.67,15.67,0,0,0-2.2-3.621l.421-.16a18.767,18.767,0,0,1,2.241,3.781h7.721v.44h-3.281a19.84,19.84,0,0,1-4.7,8.582,25.319,25.319,0,0,0,8.461,4.981l-.22.34a25.832,25.832,0,0,1-8.542-5,20.618,20.618,0,0,1-8.922,5.061l-.2-.38a20.173,20.173,0,0,0,8.842-4.941,19.089,19.089,0,0,1-5.241-8.642h-3.161v-.44Zm-.081,8.762a19.024,19.024,0,0,0,4.541-8.322h-9.622A18.581,18.581,0,0,0,1293.49,5637.976Z" fill="#fff"/>
      <path id="Path_7768" data-name="Path 7768" d="M1311.07,5625.613a25.188,25.188,0,0,1-2.7,4.822V5643.6h-.44v-12.582a24.716,24.716,0,0,1-3.541,3.7l-.12-.44a23.369,23.369,0,0,0,6.4-8.822Zm10.261,6.482-6.941.32v9.242c0,.74.32,1.12.98,1.12h4.021a1.719,1.719,0,0,0,1.4-.56c.281-.38.46-1.72.561-4.021l.42.1a13.25,13.25,0,0,1-.6,4.2,1.972,1.972,0,0,1-1.721.72h-4.161c-.9,0-1.34-.5-1.34-1.5v-16.224h.44v6.5l6.941-.34Z" fill="#fff"/>
      <path id="Path_7769" data-name="Path 7769" d="M1325.828,5627.714v-.421h14.944v.421h-7.262v13.743h8.682v.42h-17.824v-.42h8.7v-13.743Z" fill="#fff"/>
      <path id="Path_7770" data-name="Path 7770" d="M1347.009,5631.134v-5.7h.42v5.7h2.52v.441h-2.52v7.961c.88-.32,1.74-.66,2.56-1.02v.44a32.291,32.291,0,0,1-5.6,1.86l-.1-.4c.94-.221,1.84-.46,2.721-.741v-8.1h-2.641v-.441Zm15.2,2.4v.44h-7.9a8.221,8.221,0,0,1-1.361,2h8.422c-.059,1.84-.16,3.34-.3,4.461a5.094,5.094,0,0,1-.821,2.34,2.594,2.594,0,0,1-1.84.7h-1.12l-.1-.42c.36,0,.68.02,1,.02a2.077,2.077,0,0,0,2.1-1.24,21.585,21.585,0,0,0,.66-5.421h-1.92a11.332,11.332,0,0,1-7.141,6.881l-.24-.36a10.89,10.89,0,0,0,6.922-6.521h-2.6a10.609,10.609,0,0,1-5.542,4.461l-.26-.32a10.257,10.257,0,0,0,5.321-4.141h-3a12.284,12.284,0,0,1-2.12,1.54l-.259-.36a8.682,8.682,0,0,0,3.76-3.621h-3.581v-.44Zm-1.681-7.221v5.4h-8.681v-5.4Zm-.419,2.5v-2.081h-7.842v2.081Zm0,.42h-7.842v2.06h7.842Z" fill="#fff"/>
      <path id="Path_7771" data-name="Path 7771" d="M1373.93,5634.055a1.868,1.868,0,0,1,.181.92,2.442,2.442,0,0,1-.541,1.581,2.36,2.36,0,0,1-1.36.82v-.46a2.115,2.115,0,0,0,1.1-.74,2.154,2.154,0,0,0,.3-1.181,1.248,1.248,0,0,1-.36.04.685.685,0,0,1-.66-.66.6.6,0,0,1,.16-.5.682.682,0,0,1,.52-.18A.753.753,0,0,1,1373.93,5634.055Z" fill="#fff"/>
      <path id="Path_7772" data-name="Path 7772" d="M1254.45,5671a12.991,12.991,0,0,0,6.242-5.262h-6.742a19.951,19.951,0,0,1-6.561,1.881l-.28-.38q6.541-.72,9.782-4.2l.38.22a11.464,11.464,0,0,1-2.521,2.04h6.482v.38q-4.172,7.2-15.7,7.422l-.161-.44a4.413,4.413,0,1,0,6.142-4.5l.4-.18A22.918,22.918,0,0,1,1254.45,5671Zm-.44-15.284a11.982,11.982,0,0,1-1.98,1.8h6.681v.4q-3.27,5.76-12.022,6.4l-.22-.4a20.641,20.641,0,0,0,5.6-1.08,18.3,18.3,0,0,0-2.4-2.541l.4-.18a22.355,22.355,0,0,1,2.42,2.541,11.261,11.261,0,0,0,5.681-4.7h-6.8a18.09,18.09,0,0,1-5.621,2.16l-.259-.38c3.6-.74,6.321-2.14,8.141-4.221Z" fill="#fff"/>
      <path id="Path_7773" data-name="Path 7773" d="M1281.692,5662.815v.44h-5.862v8.582q0,.96,1.2.96h2.241a1.847,1.847,0,0,0,1.42-.44c.36-.44.62-1.7.74-3.741l.42.14c-.12,2.04-.4,3.321-.821,3.881a2.02,2.02,0,0,1-1.66.6h-2.46c-1.02,0-1.52-.44-1.52-1.32v-8.662h-4.562v.14a12.783,12.783,0,0,1-1.48,6.582,9.919,9.919,0,0,1-4.82,3.62l-.261-.38a9.345,9.345,0,0,0,4.8-3.621,12.69,12.69,0,0,0,1.32-6.2v-.14h-5.522v-.44Zm-1.741-5.881v.44h-13.543v-.44Z" fill="#fff"/>
      <path id="Path_7774" data-name="Path 7774" d="M1293.71,5665.615a9.431,9.431,0,0,1-.5,2.1h8.222v.44h-8.4a8.077,8.077,0,0,1-1.9,2.68c-1.28,1.181-3.5,2.1-6.7,2.781l-.18-.42q4.531-.9,6.541-2.64a6.789,6.789,0,0,0,1.761-2.4h-7.422v-.44h7.6a11.488,11.488,0,0,0,.54-2.14Zm-3.3-7.821a15.46,15.46,0,0,0-1.2-2.381l.42-.079a15.637,15.637,0,0,1,1.221,2.46h4.821a9.4,9.4,0,0,0,1.14-2.561l.42.06a9.049,9.049,0,0,1-1.12,2.5h5.1v.44h-7.722V5661h6.7v.44h-6.7v2.8h8.4v.44h-17.243v-.44h8.4v-2.8h-6.621V5661h6.621v-2.761h-7.722v-.44Zm11.9,15.5-.24.36a43.111,43.111,0,0,0-8.642-3.76l.261-.381A47.232,47.232,0,0,1,1302.312,5673.3Z" fill="#fff"/>
      <path id="Path_7775" data-name="Path 7775" d="M1318.391,5665.956v.44q-2.1.96-4.741,1.86v1.24h8.282v.421h-8.282v2.46a.975.975,0,0,1-1.12,1.08h-2.2l-.12-.42c.641,0,1.361.02,2.141.02.559,0,.86-.28.86-.8v-2.34h-8.582v-.421h8.582v-1.56c2.021-.68,3.441-1.18,4.24-1.54h-9.8v-.44Zm-11.362-4.682h3.36v.421h-3.32l.16,1.98h12.222l.121-1.98h-3.341v-.421h3.36l.12-1.86h-3.381v-.42h3.4l.12-2.1h-3.581v-.42h4.041l-.441,7.2h1.54v2.8h-.42V5664.1h-15.443v2.361h-.42v-2.781h1.681l-.561-6.942a18.569,18.569,0,0,0,3.841-1.02l.181.4a25.159,25.159,0,0,1-3.581.981l.139,1.9h3.521v.42h-3.481Zm6.461-3.981a9.067,9.067,0,0,0,1.46-1.459l.361.2a13.347,13.347,0,0,1-1.481,1.5,18.962,18.962,0,0,1,1.62,1.22l-.28.28a15.592,15.592,0,0,0-1.66-1.26,10.324,10.324,0,0,1-2.36,1.32l-.241-.32a10.413,10.413,0,0,0,2.261-1.22c-.64-.42-1.32-.841-2.06-1.261l.28-.26Q1312.53,5656.665,1313.49,5657.293Zm.12,3.662a10.8,10.8,0,0,0,1.4-1.481l.36.2a10.324,10.324,0,0,1-1.42,1.5c.661.441,1.26.9,1.8,1.341l-.3.3a17.219,17.219,0,0,0-1.82-1.36,10.688,10.688,0,0,1-2.4,1.4l-.221-.34a10.45,10.45,0,0,0,2.261-1.3q-.9-.6-1.981-1.2l.3-.24C1312.31,5660.174,1312.989,5660.554,1313.61,5660.955Z" fill="#fff"/>
      <path id="Path_7776" data-name="Path 7776" d="M1327.009,5661.134v-5.7h.42v5.7h2.52v.441h-2.52v7.961c.88-.32,1.74-.66,2.56-1.02v.44a32.291,32.291,0,0,1-5.6,1.86l-.1-.4c.94-.221,1.84-.46,2.721-.741v-8.1h-2.641v-.441Zm15.2,2.4v.44h-7.9a8.221,8.221,0,0,1-1.361,2h8.422c-.059,1.84-.16,3.34-.3,4.461a5.094,5.094,0,0,1-.821,2.34,2.594,2.594,0,0,1-1.84.7h-1.12l-.1-.42c.36,0,.68.02,1,.02a2.077,2.077,0,0,0,2.1-1.24,21.585,21.585,0,0,0,.66-5.421h-1.92a11.332,11.332,0,0,1-7.141,6.881l-.24-.36a10.89,10.89,0,0,0,6.922-6.521h-2.6a10.609,10.609,0,0,1-5.542,4.461l-.26-.32a10.257,10.257,0,0,0,5.321-4.141h-3a12.284,12.284,0,0,1-2.12,1.54l-.259-.36a8.682,8.682,0,0,0,3.76-3.621h-3.581v-.44Zm-1.681-7.221v5.4h-8.681v-5.4Zm-.419,2.5v-2.081h-7.842v2.081Zm0,.42h-7.842v2.06h7.842Z" fill="#fff"/>
      <path id="Path_7777" data-name="Path 7777" d="M1346.828,5661.134v-5.7h.42v5.7h2.261v.441h-2.261v7.321c.8-.34,1.561-.7,2.3-1.1v.44a25.273,25.273,0,0,1-5.06,2.06l-.1-.419c.84-.241,1.66-.521,2.44-.821v-7.481h-2.32v-.441Zm8.962,8a38.664,38.664,0,0,1-6.5,1.941l-.1-.4a37.988,37.988,0,0,0,6.6-1.961Zm1.461-10.622c-.04-1-.04-2.02-.04-3.081h.44c0,1.081,0,2.121.02,3.081h3.021a17.517,17.517,0,0,0-1.241-2.461l.42-.079a17.525,17.525,0,0,1,1.241,2.54h1.12v.44h-4.561a70.292,70.292,0,0,0,.66,9.542,24.343,24.343,0,0,0,2.561-7.242l.4.161a24.3,24.3,0,0,1-2.84,7.7,2.84,2.84,0,0,0,.08.44c.52,2.321,1.14,3.481,1.9,3.481.54-.08,1.04-1.22,1.5-3.4l.34.261c-.48,2.36-1.1,3.56-1.84,3.56-.6,0-1.141-.52-1.6-1.54a9.689,9.689,0,0,1-.72-2.261,12.176,12.176,0,0,1-3.941,3.781l-.26-.3a12.177,12.177,0,0,0,4.08-4.061q-.179-.96-.3-2.04a80.779,80.779,0,0,1-.44-8.082h-7.442v-.44Zm-1.94,3.1v5.2h-4.6v-5.2Zm-.441.42h-3.72v4.381h3.72Z" fill="#fff"/>
      <path id="Path_7778" data-name="Path 7778" d="M1374.87,5662.9a2.154,2.154,0,0,1,0,3.141,2.252,2.252,0,0,1-1.6.64,2.223,2.223,0,0,1-1.6-.64,2.022,2.022,0,0,1-.68-1.561,2.073,2.073,0,0,1,.68-1.6,2.207,2.207,0,0,1,1.6-.62A2.172,2.172,0,0,1,1374.87,5662.9Zm-2.881.34a1.576,1.576,0,0,0-.519,1.24,1.629,1.629,0,0,0,.519,1.24,1.781,1.781,0,0,0,1.281.481,1.9,1.9,0,0,0,1.28-.5,1.661,1.661,0,0,0,.521-1.22,1.71,1.71,0,0,0-.521-1.24,1.815,1.815,0,0,0-1.28-.5A1.721,1.721,0,0,0,1371.989,5663.235Z" fill="#fff"/>
    </g>
  </g>
</svg>
