<svg xmlns="http://www.w3.org/2000/svg" width="448.466" height="83.956" viewBox="0 0 448.466 83.956">
  <g id="section7_title" transform="translate(-267.807 -127.54)">
    <rect id="Rectangle_177" data-name="Rectangle 177" width="287.585" height="21.217" transform="translate(428.687 187.859)" fill="#b78e66"/>
    <g id="Group_1610" data-name="Group 1610" transform="translate(3.015 -12202.258)">
      <path id="Path_8116" data-name="Path 8116" d="M287.043,12341.8c-.65,8.251-3.25,12.6-18.9,14.451a17.634,17.634,0,0,0-3.35-6.051c12.7-1,14.4-3.149,14.8-8.4h-7v6.3h-7.15v-12.851h18c-.4-1.15-.85-2.35-1.25-3.35l7.8-2.1c.75,1.649,1.65,3.7,2.35,5.45h17.751v12h-7.55v-5.451h-5.451v5c0,1.35.25,1.9,1.75,1.9h6.8a27.244,27.244,0,0,0,5.2-.449c.15,1.9.351,4.7.6,6.4a21.678,21.678,0,0,1-5.551.5h-7.151c-7,0-8.85-2.25-8.85-8.451v-4.9Zm4.95,28.152h18.2v6.85h-44.6v-6.85h18.7v-6.451H271.842v-6.7h33.352v6.7h-13.2Z" fill="#6a2259"/>
      <path id="Path_8117" data-name="Path 8117" d="M358.794,12338.9v26h-7.65v-2.35h-9.651v15.3h-7.7v-15.3h-9.6v2.6h-7.3V12338.9h16.9v-8.551h7.7v8.551Zm-25,16.5v-9.352h-9.6v9.352Zm17.351,0v-9.352h-9.651v9.352Z" fill="#6a2259"/>
      <path id="Path_8118" data-name="Path 8118" d="M389.643,12348.448c-.5,7.65-1.65,13.8-3.45,18.552,3.7,3.1,8.55,4,13.951,4,2,.05,8.85,0,11.35-.05a20.425,20.425,0,0,0-2,5.8h-9.8c-6.451,0-11.851-1.05-16.1-4.4a19.209,19.209,0,0,1-5.2,5.4,22.087,22.087,0,0,0-4.1-3.951v4h-6.3v-23.751c-.45.65-.95,1.3-1.4,1.9a48.619,48.619,0,0,0-3.15-7.95c3.3-4.351,6.2-10.951,7.9-17.552l6.45,1.9-.25.9h11.6c-1.4,4.7-3.15,10.1-4.75,14.651h.6l1.05-.1Zm-15.351,24.752a16.7,16.7,0,0,0,5.1-5.45,34.841,34.841,0,0,1-4-9.051l5-1.75a24.916,24.916,0,0,0,1.651,4.5,49.1,49.1,0,0,0,1.45-8.1h-7.451c1.5-3.75,3.3-9,4.8-14h-3.951v-4.1c-.75,2.3-1.65,4.65-2.6,6.95Zm21.2-34.252h-4.8v-5.1h4.8v-3.55h5.9v3.55h7v6.5h2.5v5.15h-2.5v6.7h-7v1.4h7.3v5.551h-7.3v1.5h8.45v5.551h-8.45v3.7h-5.9v-3.7h-5.95v-5.551h5.95v-1.5h-5.05v-5.551h5.05v-1.4h-4.8v-5.1h4.8v-1.6h-6.9v-5.15h6.9Zm5.9,0v1.4h1.65v-1.4Zm1.65,6.551h-1.65v1.6h1.65Z" fill="#6a2259"/>
      <path id="Path_8119" data-name="Path 8119" d="M461.145,12348.2a59.025,59.025,0,0,1-8.451,10.451v10.7c0,3.9-.7,5.95-3.1,7.2-2.4,1.2-5.649,1.351-10.3,1.351a28.24,28.24,0,0,0-2.5-7.6,94.208,94.208,0,0,1-17.6,7.2,55.768,55.768,0,0,0-4.951-6.651,82.026,82.026,0,0,0,19.2-7.2c-6.2.45-12,.85-16.651,1.2l-.7-6.4c1.85-.1,3.95-.2,6.2-.3V12335h10.45a44.149,44.149,0,0,0,1.351-4.8l9,.851c-.65,1.351-1.4,2.7-2.15,3.95h11.751v11.851c.45-.65.9-1.35,1.3-2.051Zm-31.552-7v1.95h15.55v-1.95Zm15.55,7.051h-15.55v2.1h15.55Zm-15.55,9.45c4.55-.3,9.35-.6,14.1-.9.5-.45,1-.85,1.45-1.25v-.1h-15.55Zm15.55,7.351a70.151,70.151,0,0,1-8.3,5.2c2.6.2,6,.149,7,.149.95,0,1.3-.3,1.3-1.149Z" fill="#6a2259"/>
      <path id="Path_8120" data-name="Path 8120" d="M521.793,12371.149v5.65H485.741v-5.65h14.3v-2.35h-11.15v-5.65h11.15V12361c-7,.551-8.751.851-10.1,1.4-.35-1.3-1.4-4.4-2.1-6.1a7.683,7.683,0,0,0,2.95-1.55c.4-.3,1.051-.8,1.851-1.5h-5.1c-.349,8.2-1.75,18-5.8,24.551a31.248,31.248,0,0,0-6.6-3.7c4.85-7.551,5.2-18.852,5.2-26.752v-14.8h39.3v13.5H487.692v1.551h33.2v5.65h-6.4a53,53,0,0,1,6.75,6.2l-5.85,3.45a33.57,33.57,0,0,0-2.45-2.8l-5.85.4v2.65h11.3v5.65h-11.3v2.35Zm-34.1-32.8v1.9h24.6v-1.9Zm14,14.9c-.851.75-1.7,1.5-2.6,2.2l8.3-.4-1.1-.85,1.651-.95Z" fill="#6a2259"/>
      <path id="Path_8121" data-name="Path 8121" d="M538.892,12339.7v28.951c0,3.451-.551,5.351-2.6,6.5s-4.9,1.35-8.65,1.3a29.692,29.692,0,0,0-2.1-7.051c2.051.1,4.5.1,5.251.1s1-.25,1-.95V12339.7h-6.4v-6.8h18.5v6.8Zm25.851,28a77.593,77.593,0,0,1,9.1,5.85l-5.751,4.25a77.273,77.273,0,0,0-9.5-6.7l4.7-3.4h-10.6l4.65,3.35a48.384,48.384,0,0,1-12.9,6.65,39.932,39.932,0,0,0-4.4-5,42.153,42.153,0,0,0,10.451-5h-4.3v-26.8h7.65c.15-.9.3-1.851.45-2.75h-9.65v-6.051h27.952v6.051H562.443c-.35.95-.7,1.85-1.1,2.75h9.8v26.8Zm-11.8-19.352h11.1v-2.25h-11.1Zm0,7.051h11.1v-2.25h-11.1Zm0,7.1h11.1v-2.25h-11.1Z" fill="#6a2259"/>
      <path id="Path_8122" data-name="Path 8122" d="M594.592,12334.4h3.8v6.85h-3.8v3.95h-5.9l5.95,1.851a55.638,55.638,0,0,1-3.45,5.95v24.852h-7.2v-16c-1.1,1.1-2.25,2.149-3.35,3.05a50.027,50.027,0,0,0-5.95-5.15,38.548,38.548,0,0,0,12.7-14.951v-3.55H576.541v-6.85h10.851v-4.051h7.2Zm19.451,36.151c1.85,0,2.2-1.15,2.5-7.2a19.98,19.98,0,0,0,6.5,2.851c-.75,8.45-2.649,11.05-8.3,11.05h-6.7c-6.6,0-8.35-2.149-8.35-9.25v-22h7.2v6.5h14.751v6.8H606.893v8.7c0,2.3.25,2.55,2.2,2.55Zm-10.051-29.352h-4.049v-6.8h4.049v-4.051h7.3v4.051h10.5v6.8h-10.5v4h-7.3Z" fill="#6a2259"/>
      <path id="Path_8123" data-name="Path 8123" d="M670.894,12332.1v45.8h-7.1v-1.65H634.241v1.65h-6.8v-45.8Zm-7.1,37.652V12338.6H634.241v31.152h6.5a11.145,11.145,0,0,0-1.45-3.3c.75-.351,1.5-.9,1.5-2.8v-.7c-1.1.4-2.149.75-3.2,1.05a33.81,33.81,0,0,0-3.35-3.9,47.226,47.226,0,0,0,8.2-2.4h-4.7v-7.051h22.952v7.051H650.642a29.4,29.4,0,0,1-4.8,3.1v3.149l5.55-1.149a20.1,20.1,0,0,0,0,4.25c-6.9,1.6-9.1,2.2-10.151,2.7Zm-1.25-20.2H635.491v-3.9h10.2v-1.25h-8.1v-3.75h8.1v-1.7h6.55v1.7h8.551v3.75h-8.551v1.25h10.3Zm-8.15,5.25v-1.25h-10.7v1.25Zm9.1,5.9a38.136,38.136,0,0,1-3.45,2.351,44.93,44.93,0,0,1,3.65,2.85l-4.6,2.65a95.358,95.358,0,0,0-11.1-8.4l4.3-2.3c1.2.75,2.551,1.65,3.95,2.551a28.246,28.246,0,0,0,3.051-2.45Z" fill="#6a2259"/>
    </g>
    <g id="Group_1611" data-name="Group 1611" transform="translate(3.015 -12202.258)">
      <path id="Path_8124" data-name="Path 8124" d="M269.426,12400.652q1.32.33,2.514.661,1.167.354,1.168.735,0,.432-.686.533-.66.127-.762.3-.279.482-.584.914h4.266a22.839,22.839,0,0,0-.33-3.783q1.244.152,3.148.508,1.549.229,1.549.508,0,.432-.863.762a.7.7,0,0,0-.584.687v1.319h3.047a8.739,8.739,0,0,0,.888-.965q1.117-1.371,1.448-1.371.355,0,1.955,1.474.99.913.99,1.142,0,.406-.584.406h-7.744v3.148h2.463a8.783,8.783,0,0,0,.889-1.092q.938-1.244,1.142-1.244.507,0,1.6,1.193,1.116,1.194,1.117,1.473,0,.406-.483.406h-6.728v3.428h5.078a7.524,7.524,0,0,0,.99-1.143q1.066-1.27,1.244-1.27.559,0,1.7,1.22,1.167,1.217,1.168,1.5,0,.432-.534.432h-19.5q-2.208,0-3.148.1l-.406-1.016a26.917,26.917,0,0,0,3.554.178h6.932v-3.428h-2.971q-2.208,0-3.148.076l-.381-1.016a22.982,22.982,0,0,0,3.529.2h2.971v-3.148h-4.824a8.783,8.783,0,0,1-1.346,1.4,20.356,20.356,0,0,1-3.58,2.488l-.33-.3a21.093,21.093,0,0,0,2.641-3.428A18.482,18.482,0,0,0,269.426,12400.652Zm-1.7-10.385a27.746,27.746,0,0,1,3.58,1.346h10q.609-.634,1.117-1.143a1.125,1.125,0,0,1,.736-.406,4.757,4.757,0,0,1,1.524.762q1.422.939,1.422,1.295t-.559.736a1.011,1.011,0,0,0-.355.762v2.844q0,1.27.1,3.453,0,.508-1.422.762a8.723,8.723,0,0,1-.914.076q-.737,0-.736-.838v-.685h-11.35v.3q0,.482-1.371.737a7.574,7.574,0,0,1-.863.075.718.718,0,0,1-.813-.812q.1-1.422.1-2.869v-2.514A36.274,36.274,0,0,0,267.725,12390.268Zm3.148,4.8h11.35v-2.768h-11.35Zm0,3.453h11.35v-2.768h-11.35Z" fill="#42526c"/>
      <path id="Path_8125" data-name="Path 8125" d="M303.51,12390.166a32.52,32.52,0,0,1,3.276.457q.99.025.99.457c0,.136-.186.3-.558.483-.441.219-.661.465-.661.735v1.549h5.916q.483-.482.838-.787c.356-.371.61-.559.762-.559q.381,0,1.727,1.143,1.244.99,1.244,1.422c0,.2-.212.331-.635.381a1.6,1.6,0,0,0-.787.1,24.463,24.463,0,0,1-3.58,2.234l-.381-.2a21.47,21.47,0,0,0,1.193-3.047h-3.961v4.9q0,.914.356,1.168a9.241,9.241,0,0,0,3.681-.051q.686-.025.864-1.016l.812-1.854.483.1a17.763,17.763,0,0,0,.177,2.184.986.986,0,0,0,.407.609q.533.3.533.559a1.339,1.339,0,0,1-.508,1.143,4.05,4.05,0,0,1-1.9.508,12.842,12.842,0,0,1-2.438.178q-2.361,0-3.411-.1a1.788,1.788,0,0,1-1.1-.508,2.661,2.661,0,0,1-.589-2.006v-5.814h-8.659a14.238,14.238,0,0,1-.177,1.955,3.426,3.426,0,0,1-.914,1.828,1.216,1.216,0,0,1-.813.3,2,2,0,0,1-1.4-.508,1.553,1.553,0,0,1-.534-1.244q0-.457.889-1.117a5.242,5.242,0,0,0,1.5-1.5,6.747,6.747,0,0,0,.863-2.336l.635.1q0,1.015-.025,1.828h6.119v-1.447A11.333,11.333,0,0,0,303.51,12390.166Zm-6.8,15.234a23.5,23.5,0,0,0,3.554.2h9.446a8.381,8.381,0,0,0,.863-1.04q.914-1.2,1.092-1.194.481,0,1.549,1.143,1.066,1.167,1.066,1.422c0,.255-.161.381-.482.381h-6.932v5.789h4.7a10.151,10.151,0,0,0,.965-1.143q1.066-1.295,1.27-1.295.507,0,1.675,1.244,1.143,1.219,1.143,1.523c0,.255-.169.381-.508.381H297.645q-2.233,0-3.174.1l-.38-1.016a23.191,23.191,0,0,0,3.554.2h6.2v-5.789H300.26q-2.208,0-3.148.1Zm3.453-10.334q1.548.3,2.412.432,1.573.3,1.574.686c0,.187-.2.347-.609.482a.85.85,0,0,0-.61.635,8.226,8.226,0,0,1-1.345,3.25,7.021,7.021,0,0,1-2.184,1.777,15.638,15.638,0,0,1-4.291,1.27l-.228-.33a12.648,12.648,0,0,0,3.123-1.954,5.749,5.749,0,0,0,1.523-2.082A10.4,10.4,0,0,0,300.159,12395.066Z" fill="#42526c"/>
      <path id="Path_8126" data-name="Path 8126" d="M326.525,12390.064q1.5.406,2.869.838,1.294.406,1.295.914c0,.254-.238.423-.711.508-.474.067-.737.161-.787.279a28.051,28.051,0,0,1-1.752,4.088c.067.017.127.034.177.051q.838.229.838.457a.75.75,0,0,1-.457.66.669.669,0,0,0-.355.66v14.295q0,.508-1.219.762a6.769,6.769,0,0,1-.812.076q-.889,0-.889-.838.2-2.767.2-5.561v-6.779a30.075,30.075,0,0,1-2.564,2.793l-.407-.381a35.49,35.49,0,0,0,2.895-5.916A41.429,41.429,0,0,0,326.525,12390.064Zm2.564,5.688a20.684,20.684,0,0,0,3.555.229h2.31v-1.55q0-2.487-.177-4.367,1.167.1,2.92.406,1.244.177,1.244.533,0,.381-.787.635-.559.152-.559.559v3.784h2.564a9.862,9.862,0,0,0,.94-1.168q1.016-1.3,1.193-1.3.509,0,1.676,1.244,1.143,1.244,1.143,1.523c0,.254-.162.381-.483.381h-6.652a18.536,18.536,0,0,0,3.681,6.449,14.152,14.152,0,0,0,4.165,3.021l-.077.584a2.985,2.985,0,0,0-1.777,1.625q-.28.939-.559.939-.379,0-1.675-1.574a23.244,23.244,0,0,1-2.539-4.393,36.608,36.608,0,0,1-1.6-4.773v14.168q0,.508-1.168.762a5.625,5.625,0,0,1-.736.076c-.61,0-.914-.278-.914-.838q.177-2.31.177-4.266v-6.855a29.766,29.766,0,0,1-2.056,3.1,19.536,19.536,0,0,1-4.926,4.494l-.127-.33a25.114,25.114,0,0,0,3.529-5.408,31.09,31.09,0,0,0,2.742-6.779h-1.472q-2.235,0-3.149.1Z" fill="#42526c"/>
      <path id="Path_8127" data-name="Path 8127" d="M351.874,12390.166a18.019,18.019,0,0,1,3.174,1.117h2.641q.558-.609,1.092-1.092a1.112,1.112,0,0,1,.71-.406,4.311,4.311,0,0,1,1.5.737q1.372.913,1.372,1.294,0,.33-.661.686a.909.909,0,0,0-.457.711v1.752q0,1.194.1,3.25,0,.482-1.3.711a7.417,7.417,0,0,1-.838.076q-.736,0-.736-.787v-.229h-3.631v14.93q0,.508-1.244.762a6.8,6.8,0,0,1-.813.076q-.914,0-.914-.838.2-2.742.2-4.85v-13.432Q352.077,12392.807,351.874,12390.166Zm2.971,4.088h3.631v-2.234h-3.631Zm0,3.047h3.631v-2.336h-3.631Zm2.514,1.8a13.972,13.972,0,0,1,2.818,1.117h3.885a8.234,8.234,0,0,0,.533-.66q.66-.762.914-.762a3.97,3.97,0,0,1,1.523.863q1.092.863,1.092,1.168,0,.253-.508.686-.711.432-.71.838v7.669a11.727,11.727,0,0,0,2.234.278c.423,0,.635-.278.635-.838v-11.35h-3.707q-.127.406-1.27.609a6.8,6.8,0,0,1-.838.076.707.707,0,0,1-.787-.812q.1-1.371.1-2.717v-1.32a34.362,34.362,0,0,0-.2-3.783,30.848,30.848,0,0,1,3.427,1.219h2.844a4.895,4.895,0,0,0,.609-.66q.736-.762,1.041-.762a4.592,4.592,0,0,1,1.7.965q1.243.939,1.244,1.27,0,.28-.61.762-.736.508-.736.99v16.936a2.293,2.293,0,0,1-1.473,2.158,4.482,4.482,0,0,1-1.98.609c-.17,0-.33-.355-.483-1.066a3.241,3.241,0,0,0-1.777-1.879,1.968,1.968,0,0,1-1.269,1.549,4.414,4.414,0,0,1-1.752.457q-.255,0-.457-.863-.281-1.066-2.26-1.752l.1-.432a14.907,14.907,0,0,0,2.616.3q.532,0,.533-.686v-2.336h-4.444a7.772,7.772,0,0,1-.076.864,4.981,4.981,0,0,1-.634,1.8,6.009,6.009,0,0,1-1.219,1.574,8.494,8.494,0,0,1-2.26,1.447l-.3-.3a8.344,8.344,0,0,0,1.067-1.549,6.146,6.146,0,0,0,.609-1.854,31.017,31.017,0,0,0,.33-5.764Q357.46,12400.271,357.359,12399.1Zm2.615,7.109h4.418V12404h-4.367Q360,12405.324,359.974,12406.213Zm.051-2.945h4.367v-2.336h-4.367Zm6.068-8.937h3.682v-2.209h-3.682Zm0,3.072h3.682v-2.336h-3.682Z" fill="#42526c"/>
      <path id="Path_8128" data-name="Path 8128" d="M379.89,12392.02a20.579,20.579,0,0,1,3.5,1.295h.533q.534-.609.991-1.092a.958.958,0,0,1,.66-.406,4.238,4.238,0,0,1,1.295.609q1.218.787,1.219,1.092a.961.961,0,0,1-.457.711.963.963,0,0,0-.331.736v8.506q0,1.219.1,3.25,0,.508-1.32.736a6.8,6.8,0,0,1-.813.076q-.711,0-.711-.812v-.889H382.81v1.6q0,.51-1.218.762a6.214,6.214,0,0,1-.788.076.729.729,0,0,1-.812-.838q.1-1.295.1-2.615v-9.166A31.414,31.414,0,0,0,379.89,12392.02Zm2.92,13.1h1.752v-11.07H382.81Zm16.783-14.752a4.5,4.5,0,0,1,1.422.711q1.3.889,1.295,1.219a1.023,1.023,0,0,1-.508.762,1.011,1.011,0,0,0-.38.787v5.865q0,1.219.1,3.352,0,.508-1.371.762a7.422,7.422,0,0,1-.863.076q-.711,0-.711-.838v-.914h-7.135v6.5q0,1.422.457,1.574a16.2,16.2,0,0,0,4.088.279q2.666,0,3.148-.381.56-.229.737-1.371l.939-3.021.61.1a22.534,22.534,0,0,0,.2,3.021,1.619,1.619,0,0,0,.838,1.295q.558.356.558.736a1.484,1.484,0,0,1-.787,1.447,3.185,3.185,0,0,1-1.473.381,30.126,30.126,0,0,1-4.773.3,33.279,33.279,0,0,1-5.637-.279,1.873,1.873,0,0,1-1.371-1.016,4.618,4.618,0,0,1-.254-1.752v-15.818a25.853,25.853,0,0,0-.2-3.25,14.386,14.386,0,0,1,3.123,1.117h6.2q.583-.684,1.041-1.193A1.087,1.087,0,0,1,399.593,12390.369Zm-8.15,2.362v8.733h2.234v-8.733Zm5,8.733h2.133v-8.733h-2.133Z" fill="#42526c"/>
    </g>
  </g>
</svg>
