<svg xmlns="http://www.w3.org/2000/svg" width="266.969" height="118.957" viewBox="0 0 266.969 118.957">
  <g id="section4_txt1" transform="translate(-445.013 -431.13)">
    <g id="Group_1557" data-name="Group 1557" transform="translate(0.015 -4569.432)">
      <path id="Path_7652" data-name="Path 7652" d="M451.67,5010.108q1.17.381,2.238.762,1.019.406,1.018.838c0,.136-.17.22-.509.254a1.621,1.621,0,0,0-.611.152,24.919,24.919,0,0,1-3.789,3.123q1.5-.051,2.848-.127a11.862,11.862,0,0,0-.559-1.168l.2-.177a14.884,14.884,0,0,1,1.4.736,24.172,24.172,0,0,0,1.883-3.2,21.841,21.841,0,0,0,1.271-4.139q1.272.33,2.442.66,1.119.357,1.119.737,0,.355-.611.482c-.423.051-.661.136-.711.254a10.139,10.139,0,0,1-.916,1.574l.483.229h2.314c.136-.39.288-.88.458-1.473a14.155,14.155,0,0,0,.432-2.082q1.221.381,2.163.635,1.193.3,1.193.584,0,.355-.711.431c-.339.068-.542.169-.61.305a5.583,5.583,0,0,1-1.068,1.041,8.227,8.227,0,0,1-.89.559h2.746a7.761,7.761,0,0,0,.584-.61q.709-.913.965-.914.228,0,1.345,1.041c.457.423.686.695.686.813q0,.381-.432.381h-3.732v2.767h.279a7.608,7.608,0,0,0,.584-.609q.736-.838.94-.838.228,0,1.294.99.635.584.635.762,0,.382-.279.381h-3.453v2.945h.381a6.841,6.841,0,0,0,.558-.533q.66-.762.864-.762.228,0,1.218.914.611.534.61.686c0,.288-.094.431-.28.431h-3.351v3.454H465a4.882,4.882,0,0,0,.66-.686q.838-.966,1.092-.965a5.035,5.035,0,0,1,1.448,1.092c.507.439.761.719.761.838q0,.431-.381.431h-9.529v.788q0,.456-1.19.66a5.761,5.761,0,0,1-.76.076q-.912,0-.911-.736a30.511,30.511,0,0,0,.2-3.555v-7.11a18.631,18.631,0,0,1-1.941,1.575,4.557,4.557,0,0,1,.485.406,2.288,2.288,0,0,1,.869,1.5,1.841,1.841,0,0,1-.358,1.168,1.406,1.406,0,0,1-.97.432,1.053,1.053,0,0,1-.715-.2q-.23-.152-.409-1.294a3.724,3.724,0,0,0-.255-1.041,11.376,11.376,0,0,1-1.2.584v3.6q0,2.463.1,3.936,0,.456-1.306.66a7.129,7.129,0,0,1-.847.076q-.69,0-.69-.736.1-1.3.1-3.581h-.025q-.534.1-.61.229a7.4,7.4,0,0,1-1.295,1.955,10.163,10.163,0,0,1-1.853,1.6l-.305-.305a15.67,15.67,0,0,0,.965-2.336,23.234,23.234,0,0,0,.584-2.717c.711.187,1.4.372,2.057.559a3.317,3.317,0,0,1,.482.178v-2.133q-.711.2-1.4.381c-.238.034-.356.1-.356.2-.017.067-.042.161-.076.279-.034.2-.1.305-.2.305q-.483,0-1.143-1.625c-.118-.322-.321-.829-.609-1.524q1.5-.023,2.844-.076A20.178,20.178,0,0,0,451.67,5010.108Zm-5.056-9.267a19.641,19.641,0,0,1,3.3,1.219h14.067q.456-.558.787-.94a.869.869,0,0,1,.66-.355,3.564,3.564,0,0,1,1.549.812q1.269.839,1.269,1.219,0,.253-.457.559a1.24,1.24,0,0,0-.558.558v3.352q0,.405-1.295.634a6.767,6.767,0,0,1-.838.077.618.618,0,0,1-.686-.711v-.407H449.559v.2a.288.288,0,0,1-.026.127q.992.329,1.854.634,1.041.406,1.041.838c0,.136-.187.22-.559.254-.338.051-.525.11-.558.178a17.6,17.6,0,0,1-2.844,2.59,4.3,4.3,0,0,1,.482.2,1.272,1.272,0,0,1,.711,1.041,1.517,1.517,0,0,1-.457,1.066,1.173,1.173,0,0,1-.863.356q-.483,0-.863-.787a5.97,5.97,0,0,0-1.651-2.235l.2-.33q.914.2,1.548.381a19.454,19.454,0,0,0,1.448-3.809,4.14,4.14,0,0,1-.762.2,6.919,6.919,0,0,1-.838.076.707.707,0,0,1-.812-.787,9.85,9.85,0,0,0,.126-1.651v-2.336Q446.74,5002.136,446.614,5000.841Zm2.945,5.307h2.971V5002.8h-2.971Zm3.072,12.263a8.32,8.32,0,0,1,2.209,1.32,2.2,2.2,0,0,1,.94,1.549,1.764,1.764,0,0,1-.661,1.448,1.343,1.343,0,0,1-.99.38.587.587,0,0,1-.482-.279,2.989,2.989,0,0,1-.33-1.117,12.633,12.633,0,0,0-.991-3.1Zm2.615-12.263h3.149V5002.8h-3.149Zm6.424,8.429v-2.767h-2.64v2.767Zm0,3.631v-2.945h-2.64v2.945Zm0,4.19v-3.454h-2.64v3.454Zm-.508-16.25h3.25V5002.8h-3.25Z" fill="#bb9167"/>
      <path id="Path_7653" data-name="Path 7653" d="M471.725,5003.913a26.653,26.653,0,0,0,3.555.178h6.169a29.947,29.947,0,0,0-.2-3.25q1.27.127,3.149.457,1.346.177,1.345.584,0,.382-.837.635c-.407.1-.61.288-.61.558v1.016h5.281a6.617,6.617,0,0,0,.915-1.092q.964-1.218,1.142-1.219.507,0,1.6,1.194,1.116,1.167,1.117,1.422c0,.288-.17.431-.508.431h-9.547v2.615h3.453q.611-.709,1.118-1.244a1.085,1.085,0,0,1,.71-.457,4.6,4.6,0,0,1,1.524.711q1.447.939,1.447,1.295,0,.381-.609.762a.986.986,0,0,0-.406.787v3.25q0,1.218.1,3.352,0,.482-1.346.736a8.6,8.6,0,0,1-.888.076q-.736,0-.737-.812v-.635h-3.935a19.327,19.327,0,0,0,4.7,3.2,25.658,25.658,0,0,0,5.535,1.7l-.076.584a2.353,2.353,0,0,0-1.5,1.5q-.279.862-.635.863a7.1,7.1,0,0,1-2.386-1.168,16.673,16.673,0,0,1-3.682-2.894,23.093,23.093,0,0,1-2.387-3v3.1q0,2.334.1,4.646,0,.507-1.371.762a7.634,7.634,0,0,1-.864.076q-.914,0-.914-.838.229-2.539.229-4.646v-1.625a19.592,19.592,0,0,1-1.8,1.777,20.235,20.235,0,0,1-3.783,2.361,30.579,30.579,0,0,1-4.7,1.752l-.178-.432a23.9,23.9,0,0,0,5.053-3.224,18.3,18.3,0,0,0,3.808-4.494h-2.666V5016q0,.481-1.32.736a6.749,6.749,0,0,1-.813.077.718.718,0,0,1-.812-.813q.076-1.371.076-2.768v-3.351q0-1.928-.178-3.732a20.994,20.994,0,0,1,3.657,1.294h3.656v-2.615h-6.2q-2.235,0-3.149.1Zm5.484,7.084h4.266v-2.818h-4.266Zm0,3.58h4.266v-2.869h-4.266Zm7.084-6.4V5011h4.367v-2.818Zm0,3.529v2.869h4.367v-2.869Z" fill="#bb9167"/>
      <path id="Path_7654" data-name="Path 7654" d="M497.166,5006.63a20.979,20.979,0,0,0,3.555.228h.533v-1.65a41.286,41.286,0,0,0-.2-4.367q1.178.1,2.945.406,1.244.177,1.244.533c0,.254-.262.457-.787.61q-.558.177-.558.609v3.859h.33a7.411,7.411,0,0,0,.609-.685q.685-.762.813-.762.328,0,1.066.787.762.787.762.965c0,.254-.111.381-.33.381h-3.25v2.564a9.3,9.3,0,0,1,3.021,1.575,3.094,3.094,0,0,1,.965,2.259,1.6,1.6,0,0,1-.533,1.143,1.086,1.086,0,0,1-.889.406q-.737,0-1.269-1.422a9.765,9.765,0,0,0-1.3-2.488v12.01q0,.508-1.18.762a5.9,5.9,0,0,1-.743.076q-.921,0-.921-.838.2-2.312.2-4.266v-5.687a16.468,16.468,0,0,1-1.752,2.691,11.429,11.429,0,0,1-2.133,2.285l-.38-.2a43.3,43.3,0,0,0,3.986-10.867h-.254q-2.21,0-3.149.1Zm10.41.1a20.644,20.644,0,0,0,3.555.229h.609v-1.219a44.174,44.174,0,0,0-.228-4.8q1.244.127,3.148.457,1.32.179,1.321.559,0,.406-.813.66c-.406.1-.609.288-.609.559v3.783h1.65q.077-.051.787-.914.864-1.015,1.016-1.016.457,0,1.4.991.939,1.014.94,1.244c0,.254-.136.381-.406.381h-5.155a28.552,28.552,0,0,0,2.9,6.525,11.211,11.211,0,0,0,3.275,3.225l-.076.634a2.583,2.583,0,0,0-1.726,1.651q-.306.965-.711.965-.28,0-1.194-1.854a28.677,28.677,0,0,1-1.8-4.8q-.507-1.7-.888-3.478v8.633q0,2.334.1,4.646,0,.507-1.345.762a8.294,8.294,0,0,1-.889.076q-.914,0-.914-.838.228-2.539.228-4.646v-6.17q-.406.913-.736,1.6a19.46,19.46,0,0,1-2.691,3.91,15.57,15.57,0,0,1-3.3,2.9l-.2-.3a24.213,24.213,0,0,0,3.326-5.51,43.509,43.509,0,0,0,2.59-7.921,26.34,26.34,0,0,0-2.768.1Z" fill="#bb9167"/>
      <path id="Path_7655" data-name="Path 7655" d="M529.59,5007.646a10.968,10.968,0,0,1,2.793.761,1.033,1.033,0,0,1,.66.889,1.992,1.992,0,0,1-.609,1.346.4.4,0,0,1-.2.152h4.341a9.707,9.707,0,0,0,.407-1.244q.177-.762.33-1.9,1.243.379,2.158.634,1.193.3,1.193.584c0,.238-.22.381-.66.432-.372.067-.593.161-.66.279a4.3,4.3,0,0,1-1.016.914,4.1,4.1,0,0,1-.507.305h2.843a8.222,8.222,0,0,0,.864-.99q.914-1.143,1.066-1.143.481,0,1.5,1.117,1.041,1.092,1.041,1.321c0,.288-.161.431-.482.431H536.09v2.235h3.174q.077-.051.787-.914c.575-.7.922-1.041,1.041-1.041q.432,0,1.371,1.015.965.99.965,1.219a.382.382,0,0,1-.432.432H536.09v2.234h5.891a5.9,5.9,0,0,0,.863-1.041q.914-1.194,1.066-1.193.509,0,1.575,1.142,1.09,1.143,1.091,1.4c0,.254-.177.381-.533.381h-9.572a9.509,9.509,0,0,0,2.742,1.929,13.035,13.035,0,0,0,2.793.965,38.938,38.938,0,0,0,4.57.787l-.33.584a2.848,2.848,0,0,0-1.447,1.473q-.2.863-.355.863a9.365,9.365,0,0,1-2.209-.609,12.005,12.005,0,0,1-2.946-1.473,7.82,7.82,0,0,1-2.082-1.98,16.563,16.563,0,0,1-1.117-1.7v5.459q0,.507-1.346.762a8.015,8.015,0,0,1-.863.076.74.74,0,0,1-.838-.838,33.643,33.643,0,0,0,.2-4.265v-.584a15.85,15.85,0,0,1-1.955,1.574,20.579,20.579,0,0,1-3.656,1.854,30.907,30.907,0,0,1-4.545,1.32l-.178-.483a22.3,22.3,0,0,0,4.545-2.462,14.584,14.584,0,0,0,3.352-3.25h-3.834q-2.235,0-3.149.1l-.431-1.016a21.1,21.1,0,0,0,3.58.229h6.271v-2.234h-3.732q-2.235,0-3.174.1l-.381-1.015a23.333,23.333,0,0,0,3.555.2h3.732v-2.235h-5.154q-2.235,0-3.148.1l-.432-1.041a23.658,23.658,0,0,0,3.58.2h2.793a1.823,1.823,0,0,1-.229-.482,5.9,5.9,0,0,0-1.244-2.235Zm1.219-6.6q1.167.127,3.021.457,1.447.2,1.448.457,0,.432-.838.762a.675.675,0,0,0-.559.66v3.351h1.727v-1.8a20.882,20.882,0,0,0-.33-3.885q1.116.127,2.894.457,1.371.2,1.371.457,0,.406-.685.711-.534.153-.534.609v3.453h.813a19.688,19.688,0,0,0,2.437-5.154q1.3.406,2.489.863,1.167.458,1.168.94c0,.186-.187.3-.559.33-.39.051-.609.118-.66.2a19.719,19.719,0,0,1-3.936,2.818h2.438a13,13,0,0,0,.838-1.041q.914-1.192,1.092-1.193.482,0,1.548,1.143,1.066,1.167,1.067,1.422,0,.379-.483.38h-19.4q-2.235,0-3.148.1l-.432-1.016a23.658,23.658,0,0,0,3.58.2h3.834v-1.6A36.949,36.949,0,0,0,530.809,5001.044Zm-5.281,1.117a14.6,14.6,0,0,1,3.783,1.117,1.624,1.624,0,0,1,.914,1.321,2.156,2.156,0,0,1-.66,1.472,1.582,1.582,0,0,1-1.168.457q-.636,0-1.092-1.015a8.046,8.046,0,0,0-2.057-2.819Z" fill="#bb9167"/>
      <path id="Path_7656" data-name="Path 7656" d="M559.145,5000.942q1.828.179,3.529.483,1.066.051,1.066.533c0,.136-.211.3-.634.482q-.711.33-.711.737v2.971h5.179a7.669,7.669,0,0,0,.991-1.143q1.066-1.294,1.244-1.295.558,0,1.7,1.219,1.167,1.243,1.168,1.5c0,.288-.178.431-.533.431h-4.164a30.729,30.729,0,0,1-2.742,6.957,17.775,17.775,0,0,1-2.336,3.53c.321.219.651.423.99.609a24.926,24.926,0,0,0,8.785,3.022l-.2.584a2.587,2.587,0,0,0-1.651,1.675q-.253.992-.482.991a9.462,9.462,0,0,1-4.189-1.473,21.032,21.032,0,0,1-5.18-3.555,22.357,22.357,0,0,1-3.91,2.463,34.2,34.2,0,0,1-7.77,2.768l-.2-.533a40.51,40.51,0,0,0,6.652-3.352,17.292,17.292,0,0,0,3.657-3.072,18.367,18.367,0,0,1-2.311-3.885,32.3,32.3,0,0,1-2.234-6.729h-1.676a24.109,24.109,0,0,0-3.453.2l-.432-1.219a33.207,33.207,0,0,0,4.266.305h5.789v-2.768A15.505,15.505,0,0,0,559.145,5000.942Zm-3.58,5.916a30.594,30.594,0,0,0,3.732,7.008,10.32,10.32,0,0,0,1.574,1.879,17.014,17.014,0,0,0,1.651-3.021,26.106,26.106,0,0,0,2.107-5.866Z" fill="#bb9167"/>
      <path id="Path_7657" data-name="Path 7657" d="M580.676,5000.765q1.548.432,2.691.761,1.473.381,1.473.737c0,.288-.279.473-.838.558q-.635.127-.762.356a29.082,29.082,0,0,1-1.929,4.037c.135.034.254.067.355.1.575.169.864.314.864.432a.85.85,0,0,1-.508.762.7.7,0,0,0-.33.685v14.321q0,.481-1.27.736a8.052,8.052,0,0,1-.863.076q-.915,0-.914-.812.2-2.971.2-5.916v-6.881a27.79,27.79,0,0,1-3.352,3.428l-.3-.381a36.87,36.87,0,0,0,3.1-5.637A40.966,40.966,0,0,0,580.676,5000.765Zm16.072,7.9a37.723,37.723,0,0,1-7.008,3.225v7.845q0,.915.457,1.042a14.463,14.463,0,0,0,2.844.2,5.866,5.866,0,0,0,1.879-.254,1.218,1.218,0,0,0,.762-.508,6.192,6.192,0,0,0,.381-1.168q.279-1.118.584-2.971l.584.2q.1,1.929.1,2.412a1.942,1.942,0,0,0,.66,1.676q.89.634.889,1.092a1.523,1.523,0,0,1-.863,1.346,3.942,3.942,0,0,1-1.422.533,19.971,19.971,0,0,1-3.555.254,27.317,27.317,0,0,1-4.7-.254,1.833,1.833,0,0,1-1.295-.965,4.541,4.541,0,0,1-.254-1.828v-16.25a16.2,16.2,0,0,0-.3-3.148q1.27.127,2.92.431,1.55.2,1.549.584,0,.481-.711.762a.716.716,0,0,0-.508.685v7.288q.89-.711,1.752-1.524a18.2,18.2,0,0,0,3.5-3.961q1.473.915,2.692,1.727,1.192.836,1.193,1.244c0,.254-.136.381-.406.381Z" fill="#bb9167"/>
      <path id="Path_7658" data-name="Path 7658" d="M602.131,5001.349a17.707,17.707,0,0,1,3.3,1.142h14.447q.481-.432.813-.787.583-.558.838-.558a3.67,3.67,0,0,1,1.523.787c.863.676,1.3,1.126,1.3,1.345a1.153,1.153,0,0,1-.508.787,1.317,1.317,0,0,0-.381.864v13.685l.2,5.18q0,.507-1.472.762a7.634,7.634,0,0,1-.864.076q-.736,0-.736-.838v-1.117H605.178v1.117q0,.507-1.32.762a7.679,7.679,0,0,1-.813.076q-.914,0-.914-.838.177-2.946.178-5.18v-12.568Q602.309,5004.117,602.131,5001.349Zm3.047,20.642H608.3a4.089,4.089,0,0,1-.609-1.193q-.153-.381-.483-1.27,1.168-.127,2.235-.3V5017.7c-.172.068-.334.136-.488.2a22.2,22.2,0,0,1-3.321,1.041l-.2-.431a14.033,14.033,0,0,0,3.215-1.854,10.3,10.3,0,0,0,2.32-2.412h-1.143v.229q0,.432-1.177.609a5.676,5.676,0,0,1-.77.076q-.8,0-.8-.685a10.6,10.6,0,0,0,.1-1.549v-1.5q0-.863-.1-2.031a17.288,17.288,0,0,1,2.825,1.015H615.3q.434-.508.739-.812a.8.8,0,0,1,.585-.305,3.284,3.284,0,0,1,1.476.762q1.194.786,1.194,1.168,0,.253-.457.507a.808.808,0,0,0-.457.508v2.006c0,.237-.212.415-.635.533.423.254.821.5,1.194.737q.735.508.736.761c0,.136-.093.2-.279.2h-1.016a10.111,10.111,0,0,1-1.879,1.118,1.936,1.936,0,0,0,.406.279,15,15,0,0,0,3.606,1.447l-.2.533a2.277,2.277,0,0,0-1.321.991c-.253.541-.457.812-.609.812a2.645,2.645,0,0,1-1.066-.533,9.891,9.891,0,0,1-1.828-1.6,7.985,7.985,0,0,1-1.372-2.056,11.392,11.392,0,0,1-.812-2.438,13.712,13.712,0,0,1-1.523,1.346v2.412q1.116-.279,2.132-.584l.178.406a14.529,14.529,0,0,1-4.9,2.819c-.187.033-.28.109-.28.228-.017.068-.042.153-.076.254a.21.21,0,0,1-.025.076H620.59v-18.814H605.178Zm1.5-16.478a21.03,21.03,0,0,0,3.555.228h1.015a11.693,11.693,0,0,0-.2-2.133q1.675.153,3.2.432.965.026.965.457,0,.177-.558.457c-.424.187-.635.406-.635.66v.127h1.6q.075-.051.761-.863.839-.966.965-.965.406,0,1.27.965.888.939.888,1.168,0,.381-.406.381h-5.078v1.955h2.514a6.972,6.972,0,0,0,.787-.863q.812-.992.965-.991.379,0,1.244.965c.592.644.888,1.032.888,1.168a.381.381,0,0,1-.431.432H608.91q-2.208,0-3.148.1l-.381-1.015a23.121,23.121,0,0,0,3.529.2h2.336v-1.955h-1.015q-2.21,0-3.123.1Zm3.148,8.049h5.916V5011.1h-5.916Zm4.038.914a9.3,9.3,0,0,0,.939,1.574,5.218,5.218,0,0,0,1.092,1.117c.135-.22.27-.448.406-.686a9.718,9.718,0,0,0,.787-1.574q-.457.051-.66.051-.686,0-.686-.609v-.1h-1.7A1.109,1.109,0,0,0,613.862,5014.476Z" fill="#bb9167"/>
      <path id="Path_7659" data-name="Path 7659" d="M627.09,5002.593a23.45,23.45,0,0,0,3.554.2h15.565a7.735,7.735,0,0,0,.838-1.041q.914-1.194,1.066-1.193c.34,0,.863.38,1.574,1.142q1.094,1.143,1.092,1.371,0,.406-.533.406H631.558v17.063q0,1.039,1.27,1.117,2.21.1,5.713.1,2.893,0,4.646-.076a15.635,15.635,0,0,0,4.114-.559,2.891,2.891,0,0,1,.812-.279,2.139,2.139,0,0,1,1.244.685,2.346,2.346,0,0,1,.686,1.244q0,.458-.94.737a22.747,22.747,0,0,1-3.377.381q-3.123.2-7.185.2a58.579,58.579,0,0,1-7.44-.28,6.17,6.17,0,0,1-1.5-.507,1.987,1.987,0,0,1-.761-1.752v-18.053c-.559.034-1.006.067-1.346.1Zm5.89,9.851a16.549,16.549,0,0,1,3.047,1.118h1.219c.289-.39.525-.711.711-.965a.851.851,0,0,1,.635-.356,3.15,3.15,0,0,1,1.4.711q1.143.787,1.143,1.092c0,.152-.135.313-.407.482a1.029,1.029,0,0,0-.431.432v4.469q0,.456-1.18.66a5.667,5.667,0,0,1-.768.076q-.693,0-.693-.635v-.38h-1.918v.583q0,.458-1.187.635a5.559,5.559,0,0,1-.758.076q-.809,0-.809-.711a8.017,8.017,0,0,0,.127-1.523v-3.732A18.793,18.793,0,0,0,632.98,5012.444Zm2.768-8.15a23.6,23.6,0,0,1,3.275,1.219h4.139l.685-.94a.888.888,0,0,1,.61-.381,3.1,3.1,0,0,1,1.447.788c.8.542,1.193.93,1.193,1.168q0,.228-.38.507a.91.91,0,0,0-.407.508v3.631c0,.305-.431.524-1.295.66a7.33,7.33,0,0,1-.838.076.65.65,0,0,1-.736-.736v-.1h-4.748V5011c0,.339-.447.584-1.346.736a6.124,6.124,0,0,1-.787.077.718.718,0,0,1-.812-.813,15.067,15.067,0,0,0,.076-1.6v-2.87Q635.824,5005.589,635.748,5004.294Zm0,14.117h1.9v-4.164h-1.9Zm2.945-8.43h4.748v-3.732h-4.748Zm2.92,2.362a18.816,18.816,0,0,1,3.275,1.219h1.422c.272-.423.5-.771.686-1.041a.887.887,0,0,1,.635-.407,3.144,3.144,0,0,1,1.421.787q1.2.813,1.194,1.143c0,.169-.143.347-.432.533-.269.169-.422.33-.457.483v4.265q0,.431-1.244.66a6.124,6.124,0,0,1-.787.077q-.735,0-.736-.635v-.381h-2.209v.482q0,.458-1.168.661a6.394,6.394,0,0,1-.787.076q-.687,0-.686-.737.1-1.218.1-2.437v-1.4A23.731,23.731,0,0,0,641.613,5012.343Zm2.768,5.967h2.209v-4.063h-2.209Z" fill="#bb9167"/>
    </g>
    <g id="Group_1561" data-name="Group 1561" transform="translate(0.015 -4569.432)">
      <path id="Path_7681" data-name="Path 7681" d="M449.019,5043.4v14.283h-.48v-13.623a7.114,7.114,0,0,1-3.541,2.321v-.52a7.738,7.738,0,0,0,1.92-.92,7.858,7.858,0,0,0,1.621-1.541Z" fill="#fff"/>
      <path id="Path_7682" data-name="Path 7682" d="M462.222,5045.656a14.282,14.282,0,0,1,0,9.762,4.113,4.113,0,0,1-7.6,0,11.961,11.961,0,0,1-.84-4.881,11.827,11.827,0,0,1,.84-4.881,4.114,4.114,0,0,1,7.6,0Zm-7.162.22a13.979,13.979,0,0,0,0,9.322,3.5,3.5,0,0,0,3.361,2.28,3.537,3.537,0,0,0,3.36-2.28,11.307,11.307,0,0,0,.821-4.661,11.174,11.174,0,0,0-.821-4.661,3.537,3.537,0,0,0-3.36-2.281A3.5,3.5,0,0,0,455.06,5045.876Z" fill="#fff"/>
      <path id="Path_7683" data-name="Path 7683" d="M472.523,5042.515a17.828,17.828,0,0,1-5.881,7.382l-.341-.28a17.062,17.062,0,0,0,5.822-7.242Zm-3.541,7.682v-.421h11.583a55.625,55.625,0,0,1-.341,5.722,7.014,7.014,0,0,1-.94,3,2.657,2.657,0,0,1-2.1.9h-3.541l-.12-.419c1.2,0,2.361.02,3.441.02a2.3,2.3,0,0,0,2.4-1.621,29.461,29.461,0,0,0,.781-7.181h-5.882a15.53,15.53,0,0,1-2.18,5.681,13.929,13.929,0,0,1-4.7,3.721l-.24-.34a13.646,13.646,0,0,0,4.461-3.481,13.488,13.488,0,0,0,2.22-5.581Zm9.362-8a14.667,14.667,0,0,0,5.7,7.382l-.24.34a15.6,15.6,0,0,1-5.761-7.3h-3.16v-.42Z" fill="#fff"/>
      <path id="Path_7684" data-name="Path 7684" d="M490.784,5041.9c1.241,1.26,2.5,2.641,3.761,4.121l-.3.3c-1.3-1.541-2.5-2.881-3.62-4a29.289,29.289,0,0,1-3.681,5.2l-.26-.34a29.509,29.509,0,0,0,3.721-5.281Zm-2.5,5.3v-.44h4.781v.44h-2.18v3.061h3.04v.44h-3.04v6.861c1.1-.28,2.14-.56,3.12-.88v.42a47.067,47.067,0,0,1-6.741,1.6l-.12-.4c1.16-.2,2.26-.4,3.3-.64V5050.7H487.4v-.44h3.041V5047.2Zm.44,8.9-.42.1a38.356,38.356,0,0,0-.9-3.841l.4-.12A39.532,39.532,0,0,1,488.724,5056.1Zm5.081-3.941a18.039,18.039,0,0,1-1.1,3.5l-.4-.14a19.157,19.157,0,0,0,1.1-3.461Zm9.842-3.381v5.461h-3.821v1.861h4.3v.44h-4.3v2.18h4.842v.421H494.345v-.421h5.061v-2.18h-4.241v-.44h4.241v-1.861h-3.88v-5.461Zm-4.14-5.381a11.175,11.175,0,0,0-.621-1.8l.44-.08c.2.56.42,1.18.621,1.88h4.2v.44h-1.8l-.74,2.821h3.021v.42H494.7v-.42h2.921l-.8-2.821h-1.721v-.44Zm-.1,7.922V5049.2h-3.44v2.121Zm0,.42h-3.44v2.1h3.44Zm1.781-5.081.74-2.821h-4.681l.8,2.821Zm-1.361,4.661h3.381V5049.2h-3.381Zm3.381.42h-3.381v2.1h3.381Z" fill="#fff"/>
      <path id="Path_7685" data-name="Path 7685" d="M517.708,5057.6c-3.021.64-6.3,1.18-9.863,1.6l-.08-.421c1.681-.2,3.321-.42,4.9-.66v-4.861h-4.322v-.44h4.322v-2.8h.42v2.8h4.1v.44h-4.1v4.8c1.6-.26,3.14-.56,4.621-.88Zm-.08-14.923v.44h-5.381a21.471,21.471,0,0,1-3.621,5.681c2.881-.26,5.481-.58,7.781-.98-.6-.96-1.26-1.94-2-2.96l.34-.221a39.916,39.916,0,0,1,3.161,5l-.341.26a18.235,18.235,0,0,0-.96-1.741c-2.6.44-5.481.8-8.6,1.08l-.121-.42a1.032,1.032,0,0,1,.18-.04,17.748,17.748,0,0,0,3.761-5.661h-3.9v-.44Zm2.56.66v12.6h-.44v-12.6Zm0,16.023-.1-.419c.98.02,1.921.04,2.821.04a1,1,0,0,0,1.12-1.121v-16.323h.439v16.424a1.247,1.247,0,0,1-1.4,1.4Z" fill="#fff"/>
      <path id="Path_7686" data-name="Path 7686" d="M535.769,5055.338l-.4.1c-.12-.38-.24-.74-.36-1.061a49.79,49.79,0,0,1-5.561.741l-.141-.42a2.2,2.2,0,0,0,.221-.12,21.349,21.349,0,0,0,3.32-3.441c-1.36.14-2.62.26-3.78.34l-.12-.42a.508.508,0,0,0,.2-.16,16,16,0,0,0,2.96-4.161l.42.16a17.579,17.579,0,0,1-2.96,4.121c1.2-.08,2.4-.18,3.62-.3.561-.72,1.12-1.5,1.7-2.34l.38.119a30.616,30.616,0,0,1-5.281,6.2c1.681-.16,3.32-.4,4.881-.68a20.361,20.361,0,0,0-.9-2l.38-.12A18.883,18.883,0,0,1,535.769,5055.338Zm-5.461.78a10.325,10.325,0,0,1-.881,3.5l-.419-.12a10.457,10.457,0,0,0,.879-3.421Zm14.423-13.7v3.541H529.948v-3.541Zm-10.022.42h-4.341v2.7h4.341Zm-1.66,16.483-.42.08c-.12-1.24-.281-2.32-.441-3.26l.4-.1C532.749,5057.038,532.909,5058.138,533.049,5059.318Zm2.82-.64-.38.16a19.823,19.823,0,0,0-.96-2.96l.42-.12C535.289,5056.658,535.589,5057.638,535.869,5058.678Zm3.7-15.843h-4.421v2.7h4.421Zm-1.44,16.724h-.441v-9.542a15.375,15.375,0,0,1-1.94,2.2l-.12-.42a13.676,13.676,0,0,0,3.381-5.161l.4.08a13.279,13.279,0,0,1-1.181,2.48h3.741a17.626,17.626,0,0,0-.7-2.46l.441-.06c.24.72.479,1.56.7,2.52h3.48v.421H542.43v2.58h3.2v.42h-3.2v2.5h3.2v.44h-3.2v2.68h3.6v.42h-7.9Zm0-9.942v2.58h3.86v-2.58Zm0,5.5h3.86v-2.5h-3.86Zm0,3.12h3.86v-2.68h-3.86Zm6.161-15.4H540.01v2.7h4.281Z" fill="#fff"/>
      <path id="Path_7687" data-name="Path 7687" d="M557.712,5043.535v-2.14h.44v2.14h8.361v.44h-8.361v2.7h6.541v6.521h-5.741q2.31,3.422,7.861,5.282l-.16.379c-3.961-1.4-6.7-3.3-8.182-5.661h-.319v6.442h-.44V5053.2h-.38q-1.86,3.392-8.023,5.782l-.219-.38q5.97-2.281,7.782-5.4h-5.741v-6.521h6.581v-2.7h-8.363v-.44Zm0,3.561H551.57v2.62h6.142Zm-6.142,5.661h6.142v-2.62H551.57Zm12.683-5.661h-6.1v2.62h6.1Zm-6.1,5.661h6.1v-2.62h-6.1Z" fill="#fff"/>
      <path id="Path_7688" data-name="Path 7688" d="M573.572,5045.756V5041.5h.439v4.261h3.1v.42h-3.1v1.54a48.269,48.269,0,0,1,3.482,3.981l-.24.34a36.236,36.236,0,0,0-3.242-3.761v11.183h-.439v-12a20.206,20.206,0,0,1-3.7,6.881l-.18-.4a19.485,19.485,0,0,0,3.881-7.762h-3.461v-.42Zm8.642,0V5041.5h.42v4.261H587.2v.42h-3.881a24.487,24.487,0,0,0,4.28,9.062l-.259.36a26.13,26.13,0,0,1-4.362-9.422h-.339v13.283h-.42v-13.283h-.361a24.758,24.758,0,0,1-4.64,9.522l-.241-.38a23.022,23.022,0,0,0,4.521-9.142h-3.34v-.42Z" fill="#fff"/>
      <path id="Path_7689" data-name="Path 7689" d="M597.755,5041.455v3.34h3.06v-3.34h.441v3.34h2.339a14.478,14.478,0,0,0,1.7-2.9l.379.12a16.247,16.247,0,0,1-1.62,2.78h3.88v.42h-17.2v-.42h3.561a13.121,13.121,0,0,0-1.38-2.74l.4-.14a14.793,14.793,0,0,1,1.421,2.88h2.58v-3.34Zm-1.12,6.741a9.767,9.767,0,0,0-1.361-2.22l.4-.12a11.746,11.746,0,0,1,1.419,2.34h4.322a14.018,14.018,0,0,0,1.5-2.38l.42.14a11.444,11.444,0,0,1-1.481,2.24h5.262v.42h-7.542v2.281H606.1v.44h-6.521v2.3h8.361v.441h-8.361v5.541h-.44v-5.541h-8.362v-.441h8.362v-2.3h-6.522v-.44h6.522v-2.281h-7.582v-.42Zm-.26,7.562a18.921,18.921,0,0,1-4.7,3.421l-.261-.341a18.384,18.384,0,0,0,4.641-3.38Zm10.761,3.14-.32.3a29.19,29.19,0,0,0-4.3-3.421l.3-.28A27.759,27.759,0,0,1,607.136,5058.9Z" fill="#fff"/>
      <path id="Path_7690" data-name="Path 7690" d="M620.337,5045.215a15.611,15.611,0,0,0-2.2-3.62l.42-.16a18.681,18.681,0,0,1,2.242,3.78h7.721v.441h-3.281a19.83,19.83,0,0,1-4.7,8.581,25.329,25.329,0,0,0,8.462,4.982l-.22.34a25.854,25.854,0,0,1-8.542-5,20.628,20.628,0,0,1-8.922,5.061l-.2-.38a20.179,20.179,0,0,0,8.842-4.942,19.086,19.086,0,0,1-5.241-8.641h-3.161v-.441Zm-.079,8.763a19.031,19.031,0,0,0,4.54-8.322h-9.622A18.575,18.575,0,0,0,620.258,5053.978Z" fill="#fff"/>
      <path id="Path_7691" data-name="Path 7691" d="M638.539,5041.615a25.184,25.184,0,0,1-2.7,4.821V5059.6H635.4v-12.583a24.731,24.731,0,0,1-3.541,3.7l-.12-.44a23.376,23.376,0,0,0,6.4-8.822ZM648.8,5048.1l-6.942.32v9.242c0,.74.32,1.12.981,1.12h4.02a1.713,1.713,0,0,0,1.4-.56c.281-.38.46-1.72.561-4.021l.42.1a13.235,13.235,0,0,1-.6,4.2,1.97,1.97,0,0,1-1.72.72H642.76c-.9,0-1.34-.5-1.34-1.5V5041.5h.439v6.5l6.942-.34Z" fill="#fff"/>
      <path id="Path_7692" data-name="Path 7692" d="M669.163,5059.559h-.441v-1.12H654.16v1.12h-.441v-17.044h15.444Zm-.441-1.541v-15.083H654.16v15.083Zm-3.379-8.561v2.92h-4.362a6.335,6.335,0,0,1-1.28,1.24v2.781c.96-.24,1.921-.54,2.9-.88l.08.42a27.213,27.213,0,0,1-3.541.98l-.179-.36c.2-.06.32-.14.32-.26v-2.38a16.256,16.256,0,0,1-3.421,1.56l-.24-.38c2.5-.781,4.141-1.68,4.921-2.721H657.52v-2.92Zm-4.122-4.041v-1.56h.441v1.56h4.421v.44h-4.421v1.84h5.4v.44H655.881v-.44h5.34v-1.84H656.8v-.44Zm3.7,4.461H657.94v2.06h6.982Zm1.921,3.3a18.085,18.085,0,0,1-2.521,1.521,25.4,25.4,0,0,1,2.881,1.72l-.24.34a24.73,24.73,0,0,0-5.381-2.881l.239-.359a19.389,19.389,0,0,1,2.081.96,14.127,14.127,0,0,0,2.58-1.541Z" fill="#fff"/>
      <path id="Path_7693" data-name="Path 7693" d="M690.244,5042.615v.44h-15.1v14.463c0,.6.28.921.88.921h14.723v.439H676c-.86,0-1.281-.46-1.281-1.34v-14.483h-1.28v-.44Zm-8.062,8.642v5.041h-4.8v-5.041Zm-.44.4h-3.981v4.241h3.981Zm5.762-6.541v4.06h-8.6v-4.06Zm-.42.42H679.3v3.2h7.783Zm2.3,5.721v5.041h-4.8v-5.041Zm-.421.4H685v4.241h3.961Z" fill="#fff"/>
      <path id="Path_7694" data-name="Path 7694" d="M703.505,5050.057a1.869,1.869,0,0,1,.18.92,2.436,2.436,0,0,1-.541,1.58,2.355,2.355,0,0,1-1.359.82v-.46a2.123,2.123,0,0,0,1.1-.74,2.152,2.152,0,0,0,.3-1.18,1.235,1.235,0,0,1-.359.04.647.647,0,0,1-.46-.2.635.635,0,0,1-.2-.46.605.605,0,0,1,.16-.5.677.677,0,0,1,.519-.181A.753.753,0,0,1,703.505,5050.057Z" fill="#fff"/>
      <path id="Path_7695" data-name="Path 7695" d="M460.721,5082v.44H454.2v5.961h8.182v.44H445.618v-.44h8.142v-5.961h-6.481V5082Zm-8.062-7.322c-1,2.6-3.22,4.481-6.7,5.6l-.2-.36c3.441-1.161,5.6-2.921,6.461-5.3Zm1.8-.92h7.662v3.361H461.7v-2.921h-5.38v4.161c0,.6.319.9.96.9h4.541v.421h-4.761a1.015,1.015,0,0,1-1.161-1.141v-4.341h-9.582v2.921h-.42v-3.361h8.142a17.5,17.5,0,0,0-.98-2.36l.44-.08A20.738,20.738,0,0,1,454.46,5073.755Z" fill="#fff"/>
      <path id="Path_7696" data-name="Path 7696" d="M466.316,5076.836l-.281-.34a10.963,10.963,0,0,0,4.161-5.341l.44.04a12.692,12.692,0,0,1-.78,1.76h12.8v.44H469.6A12.128,12.128,0,0,1,466.316,5076.836Zm4.481,8.7a15.563,15.563,0,0,1-3.8,3.481l-.239-.361a15.557,15.557,0,0,0,3.7-3.42Zm9.721,2.26a26.845,26.845,0,0,1-.46-6.361v-2.9H466.816v-.42h13.662v3.321a26.828,26.828,0,0,0,.4,6.121c.2.9.54,1.36,1.02,1.36.32,0,.6-.339.82-1,.18-.6.36-1.42.56-2.46l.38.18a9.035,9.035,0,0,1-.84,3.04c-.26.481-.56.72-.88.72C481.3,5089.378,480.819,5088.838,480.518,5087.8Zm-7.981-4.3v-3.642h.42v3.642h5.281v.44h-5.281v5.521h-.42v-5.521h-5.621v-.44Zm-2.141-1-.36.16a13.65,13.65,0,0,0-1.7-2.38l.4-.18A12.786,12.786,0,0,1,470.4,5082.5Zm11.363-6.981v.42H469.536v-.42Zm-3.081,13.182-.26.321a28.272,28.272,0,0,0-3.761-3.441l.3-.32A27.619,27.619,0,0,1,478.678,5088.7Zm-1.5-8.541a12.423,12.423,0,0,1-1.721,2.5l-.42-.18a13.965,13.965,0,0,0,1.721-2.5Z" fill="#fff"/>
      <path id="Path_7697" data-name="Path 7697" d="M495.694,5071.4v3.88h7.322v8.843h-.441v-1.5h-6.881v7.062h-.44v-7.062h-6.862v1.5h-.44v-8.843h7.3v-3.88Zm-.44,10.8v-6.481h-6.862v6.481Zm7.321,0v-6.481h-6.881v6.481Z" fill="#fff"/>
      <path id="Path_7698" data-name="Path 7698" d="M509.99,5073.735v-2.44h.439v2.44h3.662v-2.46h.419v2.46h2.2v.44h-2.2v2.921h2.481v.44h-9.542v-.44h2.541v-2.921h-2.221v-.44Zm5.421,14.3c0,.921-.4,1.38-1.16,1.38H512.17l-.1-.419c.72.02,1.4.04,2.04.04.561,0,.86-.4.86-1.161v-2.8a30.459,30.459,0,0,1-4.241,1.62l-.079-.42a28.138,28.138,0,0,0,4.32-1.64v-4.581h-5.34v1.78a17.091,17.091,0,0,1,3.7,1.5l-.119.36a19.8,19.8,0,0,0-3.581-1.44v.5a13.324,13.324,0,0,1-1.661,6.862l-.34-.3a13.267,13.267,0,0,0,1.56-6.541v-3.16h6.222Zm-1.32-10.942v-2.921h-3.662v2.921Zm6.941,7.022a19.28,19.28,0,0,0,2-8.823h-3.9a18.584,18.584,0,0,1-2.441,5.742l-.26-.3a22.841,22.841,0,0,0,3.021-9.342l.439.08c-.179,1.22-.4,2.36-.66,3.4h5.922v.419h-1.7a19.189,19.189,0,0,1-2.181,9.2,20.619,20.619,0,0,0,4.181,4.761l-.28.32a20.661,20.661,0,0,1-4.141-4.641,14.835,14.835,0,0,1-4.441,4.621l-.24-.34a13.912,13.912,0,0,0,4.441-4.661,22.522,22.522,0,0,1-2.46-5.462l.359-.2A22.828,22.828,0,0,0,521.032,5084.118Z" fill="#fff"/>
      <path id="Path_7699" data-name="Path 7699" d="M532.468,5076.056a10.884,10.884,0,0,0,3.16-3.1h-6.2v-.42h6.742v.34a11.7,11.7,0,0,1-5.081,4.461h4.281v3.721h-4.482l-.5,3.021h5.1a21.8,21.8,0,0,1-.26,4.24c-.24.761-1.041,1.141-2.421,1.141-.759,0-1.54-.041-2.34-.081l-.1-.4c.8.04,1.58.08,2.38.08,1.14,0,1.821-.3,2.041-.861a17.655,17.655,0,0,0,.26-3.7h-5.162l.621-3.861h4.42v-2.881h-4.68v-.04c-.62.26-1.261.5-1.921.74l-.26-.34a20.455,20.455,0,0,0,4.041-1.82,19.142,19.142,0,0,0-2.66-2.061l.359-.22A20.9,20.9,0,0,1,532.468,5076.056Zm10.282,1.2v2.54a.684.684,0,0,0,.78.761h1.28v.42h-1.4a.955.955,0,0,1-1.081-1.08v-2.221h-3.9a5.489,5.489,0,0,1-.3,2.04,4.676,4.676,0,0,1-1.4,1.5l-.34-.3a4.071,4.071,0,0,0,1.321-1.46,5.964,5.964,0,0,0,.3-2.2Zm1.059,5.281v.42a10.966,10.966,0,0,1-2.46,3.721,37.888,37.888,0,0,1,3.741,2.66l-.3.3a36.642,36.642,0,0,0-3.761-2.661,13.774,13.774,0,0,1-4.221,2.521l-.16-.4a12.782,12.782,0,0,0,4.041-2.341c-1.06-.68-2.221-1.34-3.461-2.02l.281-.28c1.24.66,2.4,1.32,3.48,2a10.93,10.93,0,0,0,2.36-3.481h-6.22v-.44Zm-1-10.8a8.311,8.311,0,0,1-3.18,2.34,16.61,16.61,0,0,0,1.82,1.461,8.572,8.572,0,0,0,1.9-1.14,8.681,8.681,0,0,0,1.481-1.481l.36.22a9.248,9.248,0,0,1-1.52,1.54,9.558,9.558,0,0,1-1.821,1.121,21.98,21.98,0,0,0,4.121,2.02l-.28.32c-3.921-1.52-6.681-3.541-8.242-6.041l.36-.2a11.8,11.8,0,0,0,1.481,1.86,8.427,8.427,0,0,0,1.8-.96,6.737,6.737,0,0,0,1.36-1.24Z" fill="#fff"/>
      <path id="Path_7700" data-name="Path 7700" d="M552.885,5079.657l-.321.32a22.878,22.878,0,0,0-3.48-2.861l.32-.3A25.532,25.532,0,0,1,552.885,5079.657Zm-.021,2.46a64.952,64.952,0,0,1-3.08,7.042l-.4-.18a57.409,57.409,0,0,0,3.1-7Zm.5-7.221-.3.3a26.035,26.035,0,0,0-3.52-2.8l.3-.3A22.231,22.231,0,0,1,553.365,5074.9Zm3.98,14.043a.4.4,0,0,0,.3-.38v-4.682h-2.48a9.958,9.958,0,0,1-1.861,5.622l-.3-.28a9.529,9.529,0,0,0,1.74-5.882v-4h11.542v.42h-11.1v3.682h11.363v.439h-8.483v4.941a23.167,23.167,0,0,0,3.3-.839l.08.419a29.4,29.4,0,0,1-3.98.92Zm1-16.244v-1.18h.441v1.18h2.841v-1.18h.439v1.18h3.482v5.3H554.885v-5.3Zm0,2.441v-2h-3.02v2Zm0,.42h-3.02v2.02h3.02Zm6.862,5.841v.4h-8.542v-.4Zm-6.421-6.261h2.841v-2h-2.841Zm2.841.42h-2.841v2.02h2.841Zm4.12,9.542a6.992,6.992,0,0,1-2.46,1.92,11.4,11.4,0,0,0,3.381,2.121l-.241.34a10.529,10.529,0,0,1-5.5-4.841l.36-.22a9.657,9.657,0,0,0,1.7,2.3,7.563,7.563,0,0,0,2.46-1.9Zm-3.681-9.962h3.041v-2h-3.041Zm3.041.42h-3.041v2.02h3.041Z" fill="#fff"/>
      <path id="Path_7701" data-name="Path 7701" d="M573.72,5074.1a23.821,23.821,0,0,0,.761-2.74l.42.08a25.849,25.849,0,0,1-.74,2.66h5.281v.421h-5.421a22.932,22.932,0,0,1-1.48,3.3h5.741V5088a1.208,1.208,0,0,1-1.341,1.38H575.2l-.12-.419c.6,0,1.18.02,1.7.02q1.082,0,1.081-1.141V5085H572.52a9.264,9.264,0,0,1-1.719,4.5l-.321-.28a9.782,9.782,0,0,0,1.7-5.821v-4.982a17.28,17.28,0,0,1-2.58,3.241l-.28-.34a17.625,17.625,0,0,0,4.261-6.8H569.8v-.421Zm-1.1,9.3a10.741,10.741,0,0,1-.061,1.16h5.3v-2.9h-5.241Zm5.241-5.142h-5.241v2.961h5.241Zm8.682-5.621v.36c-.66,2.161-1.381,4.2-2.141,6.081q2.31,3.062,2.341,5.042a2.4,2.4,0,0,1-.721,1.96,5.154,5.154,0,0,1-3.02.6l-.1-.44c.16,0,.319.02.44.02a4.631,4.631,0,0,0,2.44-.5,2.226,2.226,0,0,0,.56-1.64c-.019-1.281-.8-2.961-2.36-5.042a55.317,55.317,0,0,0,2.141-6h-4.942v16.444h-.44v-16.884Z" fill="#fff"/>
      <path id="Path_7702" data-name="Path 7702" d="M597.039,5076.816a20.116,20.116,0,0,1-2.721,3.321,16.34,16.34,0,0,1-3.8,2.66l-.24-.32a15.132,15.132,0,0,0,3.721-2.6,16.827,16.827,0,0,0,2.661-3.261Zm-1.681-3.341v-2h.42v2h2.761v.44h-2.761v2.241h-.42v-2.241H590.7v-.44Zm-1.8,9.1v-.44H604.3a41.544,41.544,0,0,1-.341,4.321,4.293,4.293,0,0,1-.84,2.26,2.819,2.819,0,0,1-1.92.68h-2.521l-.12-.419c.84,0,1.66.02,2.42.02a2.155,2.155,0,0,0,2.181-1.181,17.373,17.373,0,0,0,.7-5.241h-5.642a10.141,10.141,0,0,1-2.059,4.161,13.209,13.209,0,0,1-4.482,2.8l-.259-.32a12.9,12.9,0,0,0,4.28-2.581,9.326,9.326,0,0,0,2.1-4.061Zm9.2-5.661a11.6,11.6,0,0,0,5.421,5.341l-.26.34a12.763,12.763,0,0,1-5.441-5.241h-4v-.44Zm.22-5.441v2h4.7v.44h-4.7v2.241h-.42v-2.241h-2.741v-.44h2.741v-2Z" fill="#fff"/>
      <path id="Path_7703" data-name="Path 7703" d="M621.077,5087a12.986,12.986,0,0,0,6.241-5.261h-6.741a19.963,19.963,0,0,1-6.562,1.88l-.28-.38q6.542-.72,9.782-4.2l.38.22a11.459,11.459,0,0,1-2.52,2.041h6.481v.38q-4.17,7.2-15.7,7.422l-.16-.441a24.632,24.632,0,0,0,8.681-1.48,24.422,24.422,0,0,0-2.54-3.021l.4-.179A23.071,23.071,0,0,1,621.077,5087Zm-.441-15.283a11.939,11.939,0,0,1-1.98,1.8h6.682v.4q-3.272,5.761-12.023,6.4l-.22-.4a20.625,20.625,0,0,0,5.6-1.081,18.36,18.36,0,0,0-2.4-2.54l.4-.18a22.222,22.222,0,0,1,2.42,2.54,11.266,11.266,0,0,0,5.682-4.7H618a18.1,18.1,0,0,1-5.621,2.161l-.26-.38q5.4-1.11,8.142-4.221Z" fill="#fff"/>
      <path id="Path_7704" data-name="Path 7704" d="M633.633,5081.437a32.486,32.486,0,0,1-1.8,6.221l-.4-.12a34.887,34.887,0,0,0,1.821-6.2Zm1.419-2.56v-7.4h.42v7.4h2.742v.419h-2.742v10.243h-.42V5079.3h-3.2v-.419Zm-1.62-1.461-.42.1a39.188,39.188,0,0,0-1-4.281l.4-.12C632.772,5074.356,633.112,5075.8,633.432,5077.416Zm5.2,8.882-.38.1a39.76,39.76,0,0,0-1.521-5.021l.36-.12A35.23,35.23,0,0,1,638.634,5086.3Zm-.281-13.563a16.647,16.647,0,0,1-1,4.641l-.42-.12a15.96,15.96,0,0,0,.98-4.561Zm.92,16.824-.32-.3a8.449,8.449,0,0,0,1.541-5.062v-3.72h7.661v7.781a1.061,1.061,0,0,1-1.2,1.2h-1.7l-.08-.4c.58,0,1.12.02,1.64.02q.9,0,.9-.961v-2.06h-6.962A7.836,7.836,0,0,1,639.273,5089.559Zm4.942-16.484v-1.74h.42v1.74h4.5v.42h-4.5v2.081h3.92v.42h-3.92v2.12H649.7v.42H639.053v-.42h5.162V5076h-4.041v-.42h4.041V5073.5h-4.622v-.42Zm-3.282,11.1c-.019.521-.059,1.021-.119,1.461h6.9v-2.12h-6.783Zm6.783-3.26h-6.783v2.18h6.783Z" fill="#fff"/>
      <path id="Path_7705" data-name="Path 7705" d="M658.45,5072.375a21.733,21.733,0,0,1-3.86,1.22l.139,3.041h3.442v.42H654.75l.16,3.3h3.12v.441h-3.1l.181,3.44h12.582l.181-3.4h-2.741v-.44h2.76l.18-3.321h-2.8v-.42h2.821l.179-3.341h-3v-.44h3.441l-.58,11.362h1.98v.441h-17.5v-.441h2.061l-.481-10.962a19.811,19.811,0,0,0,4.062-1.3Zm.78,13.5a25.891,25.891,0,0,1-6.22,3.4l-.261-.339a25.518,25.518,0,0,0,6.162-3.361Zm.8-7.522a14.548,14.548,0,0,1-1,4.761l-.421-.12a14.719,14.719,0,0,0,.981-4.681Zm.24-1.72h3.42c-.019,3.521-.2,5.5-.519,5.941-.2.32-.661.48-1.381.5h-.7l-.121-.44h.841c.58,0,.941-.16,1.08-.46.22-.36.34-2.08.38-5.121h-3.56q.63-3.24.96-5.641l.42.06c-.1.72-.2,1.4-.3,2.08h3.541v.44h-3.6C660.571,5074.916,660.43,5075.8,660.271,5076.636Zm9.882,12.282-.22.36a30.606,30.606,0,0,0-6.382-3.36l.241-.34A31.981,31.981,0,0,1,670.153,5088.918Z" fill="#fff"/>
      <path id="Path_7706" data-name="Path 7706" d="M677.406,5079.637l-.319.32a22.457,22.457,0,0,0-3.522-2.861l.32-.3A25.955,25.955,0,0,1,677.406,5079.637Zm-.02,2.32a67.868,67.868,0,0,1-3.06,7.321l-.4-.159a57.25,57.25,0,0,0,3.081-7.3Zm.56-7.162-.319.3a24.2,24.2,0,0,0-3.562-2.841l.3-.3A22.146,22.146,0,0,1,677.946,5074.795Zm6.742,4.8v1.42c0,.34-.02.68-.04,1,.32,3.281,2.521,5.561,6.581,6.8l-.24.381c-3.641-1.2-5.821-3.161-6.521-5.922a7.3,7.3,0,0,1-1.321,3,10.135,10.135,0,0,1-4.94,2.921l-.261-.4a9.827,9.827,0,0,0,4.941-2.88,8.166,8.166,0,0,0,1.361-4.9v-1.42Zm-1.36-1.8a10.343,10.343,0,0,1-4.781,2.461l-.241-.38a10.021,10.021,0,0,0,4.761-2.4,6.2,6.2,0,0,0,1.3-4.081v-1.92h.44v1.92a7.717,7.717,0,0,1-.48,2.821,32.288,32.288,0,0,1,6.342,3.8l-.241.339a29.994,29.994,0,0,0-6.281-3.76A6.4,6.4,0,0,1,683.328,5077.8Zm-2.141-1.88-.38.16a21.993,21.993,0,0,0-1.78-3.7l.38-.16A25.235,25.235,0,0,1,681.187,5075.916Zm-.179,8.921-.381.161a23.077,23.077,0,0,0-1.46-3.541l.38-.14A24.2,24.2,0,0,1,681.008,5084.837Zm8.681-3.46a14.481,14.481,0,0,1-2.041,3.681l-.359-.221a12.9,12.9,0,0,0,1.98-3.6Zm.06-9.142a14.945,14.945,0,0,1-2.04,3.8l-.361-.2a14.151,14.151,0,0,0,1.981-3.741Z" fill="#fff"/>
      <path id="Path_7707" data-name="Path 7707" d="M698.143,5079.637l-.319.32a22.457,22.457,0,0,0-3.522-2.861l.321-.3A26,26,0,0,1,698.143,5079.637Zm-.019,2.32a68.08,68.08,0,0,1-3.061,7.321l-.4-.159a57.11,57.11,0,0,0,3.081-7.3Zm.559-7.162-.319.3a24.145,24.145,0,0,0-3.562-2.841l.3-.3A22.1,22.1,0,0,1,698.683,5074.795Zm6.743,4.8v1.42c0,.34-.021.68-.041,1,.32,3.281,2.521,5.561,6.582,6.8l-.241.381c-3.64-1.2-5.821-3.161-6.521-5.922a7.3,7.3,0,0,1-1.32,3,10.139,10.139,0,0,1-4.941,2.921l-.261-.4a9.826,9.826,0,0,0,4.942-2.88,8.173,8.173,0,0,0,1.36-4.9v-1.42Zm-1.361-1.8a10.338,10.338,0,0,1-4.781,2.461l-.24-.38a10.022,10.022,0,0,0,4.76-2.4,6.2,6.2,0,0,0,1.3-4.081v-1.92h.441v1.92a7.716,7.716,0,0,1-.481,2.821,32.252,32.252,0,0,1,6.341,3.8l-.239.339a30,30,0,0,0-6.282-3.76A6.347,6.347,0,0,1,704.065,5077.8Zm-2.14-1.88-.38.16a21.992,21.992,0,0,0-1.781-3.7l.38-.16A25.239,25.239,0,0,1,701.925,5075.916Zm-.18,8.921-.381.161a22.883,22.883,0,0,0-1.46-3.541l.38-.14A24.2,24.2,0,0,1,701.745,5084.837Zm8.681-3.46a14.452,14.452,0,0,1-2.041,3.681l-.359-.221a12.928,12.928,0,0,0,1.981-3.6Zm.06-9.142a14.945,14.945,0,0,1-2.04,3.8l-.36-.2a14.148,14.148,0,0,0,1.98-3.741Z" fill="#fff"/>
      <path id="Path_7708" data-name="Path 7708" d="M451.659,5118.318h-.44v-1.36H446.5v1.92h-.44v-13.623h1.721a16.79,16.79,0,0,0,1-3.76l.44.06a19.09,19.09,0,0,1-1.021,3.7h3.461Zm-.44-7.541V5105.7H446.5v5.081Zm0,5.761V5111.2H446.5v5.341Zm10.562.1c-.18,1.72-1.08,2.6-2.7,2.6H457.24l-.1-.421c.761,0,1.4.02,1.961.02,1.3,0,2.04-.72,2.241-2.14.16-1.38.259-5.041.3-10.962H455.06a16.444,16.444,0,0,1-2.08,3.681l-.241-.321a18.454,18.454,0,0,0,3.121-7.621l.421.04a22.737,22.737,0,0,1-1.041,3.78h6.822Q462.062,5114.448,461.781,5116.638Zm-3.08-2.6-.32.259a32.912,32.912,0,0,0-3.821-4.521l.34-.219A33.337,33.337,0,0,1,458.7,5114.038Z" fill="#fff"/>
      <path id="Path_7709" data-name="Path 7709" d="M468.779,5119.479h-.42V5107.5a23.367,23.367,0,0,1-3.021,7.242l-.18-.441a22.993,22.993,0,0,0,3.161-8.141h-2.8v-.42h2.841v-4.261h.42v4.261h2.02v.42h-2.02v1.62q1.32,1.8,2.7,4.141l-.26.36c-.96-1.68-1.76-3-2.44-3.961Zm8.441-17.644a13.156,13.156,0,0,0,5.622,3.761l-.22.36a13.941,13.941,0,0,1-5.621-3.681,14.215,14.215,0,0,1-5.542,3.961l-.24-.38a13.622,13.622,0,0,0,5.582-4.021Zm4.3,5.3v4.581h-8.843v-4.581Zm-4.641.44H473.1v3.7h3.781Zm4.12,11.842h-.44v-1H473.62v1h-.42v-6.041H481Zm-.44-3.74V5113.8H473.62v1.881Zm0,2.3V5116.1H473.62v1.881Zm-.82-13.023v.42h-5.4v-.42Zm-4.081,5.38-.4.1a9.973,9.973,0,0,0-.84-1.821l.38-.12A10.605,10.605,0,0,1,475.66,5110.336Zm5.421-2.76H477.3v3.7h3.78Zm-1.24.9a8.312,8.312,0,0,1-.9,1.941l-.38-.14a7.19,7.19,0,0,0,.88-1.88Z" fill="#fff"/>
      <path id="Path_7710" data-name="Path 7710" d="M493.74,5105.836V5101.5h.44v4.341h8.362v.42H495a22.344,22.344,0,0,0,7.4,9.9l-.3.36a23.525,23.525,0,0,1-7.542-10.262h-.38v13.2h-.44v-13.2h-.38a20.7,20.7,0,0,1-7.722,10.3l-.24-.38a19.857,19.857,0,0,0,7.542-9.922h-7.422v-.42Z" fill="#fff"/>
      <path id="Path_7711" data-name="Path 7711" d="M513.86,5105.916v-2.841q-3.15.24-6.9.24l-.12-.42a61.942,61.942,0,0,0,13.8-1.28l.22.38a46.668,46.668,0,0,1-6.561,1.04v2.881h8.122v.44H514.3v.18a43.765,43.765,0,0,1,8.381,4.741l-.3.34a38.185,38.185,0,0,0-8.082-4.661v4.321h5.461v8.242h-.419v-1.241H509.178v1.241h-.439v-8.242h5.121v-4.921h-.42q-1.86,3.062-7.942,5.221l-.26-.4c3.98-1.361,6.562-2.981,7.762-4.821h-7.442v-.44Zm5.482,8.722v-2.921H509.178v2.921Zm0,3.2v-2.76H509.178v2.76Z" fill="#fff"/>
      <path id="Path_7712" data-name="Path 7712" d="M535.6,5108.9a2.152,2.152,0,0,1,0,3.14,2.252,2.252,0,0,1-1.6.64,2.223,2.223,0,0,1-1.6-.64,2.019,2.019,0,0,1-.68-1.56,2.07,2.07,0,0,1,.68-1.6,2.2,2.2,0,0,1,1.6-.621A2.169,2.169,0,0,1,535.6,5108.9Zm-2.881.339a1.579,1.579,0,0,0-.519,1.241,1.632,1.632,0,0,0,.519,1.24,1.785,1.785,0,0,0,1.281.48,1.9,1.9,0,0,0,1.28-.5,1.664,1.664,0,0,0,.521-1.22,1.714,1.714,0,0,0-.521-1.241,1.819,1.819,0,0,0-1.28-.5A1.724,1.724,0,0,0,532.719,5109.236Z" fill="#fff"/>
    </g>
  </g>
</svg>
